<svg overflow="hidden" preserveAspectRatio="xMidYMid meet" width="429" height="470" viewBox="0 0 429 470" fill="none" xmlns="http://www.w3.org/2000/svg">
<ellipse cx="277.117" cy="53.4741" rx="53.0016" ry="53.4741" fill="#1D1D1D"></ellipse>
<ellipse cx="96.5066" cy="148.501" rx="7.42698" ry="7.49319" fill="#1D1D1D"></ellipse>
<ellipse cx="141.744" cy="148.501" rx="7.42698" ry="7.49319" fill="#1D1D1D"></ellipse>
<path fill-rule="evenodd" clip-rule="evenodd" d="M58.0215 140.327C58.6967 140.895 59.777 142.507 58.6967 144.414C57.6164 146.322 45.4182 159.968 39.4541 166.553C39.004 167.121 38.3738 168.529 39.4541 169.619C39.6293 169.795 39.9722 170.092 40.4368 170.494C43.5525 173.189 52.1386 180.615 52.2824 188.352C52.441 196.882 48.6652 203.19 41.1419 207.085C36.1808 209.653 29.3263 209.242 26.9632 208.788C27.8634 212.648 31.9595 220.572 41.1419 221.39C50.3244 222.207 61.8475 219.006 66.4612 217.303L122.501 190.055C124.864 188.919 129.861 187.057 130.941 188.692C132.291 190.736 131.954 193.461 124.527 196.526C118.585 198.978 114.624 201.181 113.386 201.976C112.261 202.543 110.348 204.224 111.698 206.403C113.049 208.583 149.171 270.436 167.063 301.09C167.851 302.793 169.426 307.766 169.426 314.033C169.426 320.3 170.777 414.737 171.452 461.172C165.6 460.491 153.222 461.785 150.521 472.412C147.933 472.298 142.622 472.616 142.081 474.796H122.839C123.964 465.145 125.134 446.117 120.813 447.207C115.412 448.57 112.036 468.665 112.711 474.796H99.2074C98.0821 473.093 95.5615 469.755 94.4812 470.027L162.674 314.033C163.237 312.557 163.687 308.788 160.986 305.518C158.286 302.248 139.606 268.96 130.603 252.725C129.928 251.59 128.105 249.66 126.215 251.022C124.324 252.384 127.452 273.388 129.253 283.72C129.928 288.601 129.726 303.406 123.514 323.57C117.302 343.733 94.1436 420.3 83.3407 456.063C83.1156 456.971 81.8553 458.788 78.6144 458.788C78.3144 458.788 77.9774 458.78 77.609 458.772C73.004 458.67 63.5105 458.459 60.3846 471.39C58.4716 471.39 54.6455 471.935 54.6455 474.115H36.0781C37.766 454.36 39.3865 414.85 32.3646 414.85C23.5872 414.85 26.6256 472.412 27.3007 474.115C23.6998 474.115 16.1603 474.591 14.8099 476.499C12.7844 468.551 7.45044 452.657 2.31907 452.657C-2.8123 452.657 1.75643 472.185 4.6822 481.948C3.89449 483.084 2.31907 486.376 2.31907 490.463C2.31907 495.572 11.0963 500 14.8099 500H377.719C382.221 499.66 391.223 497.275 391.223 490.463C391.223 481.948 384.809 476.499 377.719 476.499H370.63C371.418 462.194 371.575 433.583 365.904 433.583C360.232 433.583 359.715 462.194 360.165 476.499H352.4C352.963 457.652 352.333 419.959 345.311 419.959C338.289 419.959 340.584 456.744 342.61 475.136H311.889L320.711 397.139C321.273 395.663 321.386 391.962 317.335 388.965C312.271 385.218 309.57 376.022 311.596 368.529C313.216 362.534 331.582 338.556 339.234 304.156C339.572 302.566 341.867 299.183 348.349 298.365C356.451 297.344 400 272.915 400 233.064C400.019 194.104 387.797 151.244 348.349 130.109C311.556 110.396 246.397 133.515 242.008 138.624C237.619 143.733 234.919 148.161 237.619 150.545C240.32 152.929 243.696 155.654 267.665 153.61C268.052 153.578 268.441 153.544 268.834 153.51L269.743 153.432C293.716 151.361 328.998 148.314 348.349 176.771C368.267 206.063 358.814 244.891 339.572 257.153C334.958 242.053 312.902 211.853 261.588 211.853C258.284 211.853 255.139 211.856 252.142 211.858C196.972 211.906 192.397 211.91 180.229 194.142C177.078 189.26 171.857 178.27 176.178 173.365C180.499 168.461 189.907 161.785 194.07 159.06C195.308 157.811 197.041 154.7 194.07 152.248C193.077 151.428 190.996 150.486 188.674 149.435C182.319 146.558 174.162 142.865 181.58 138.624C182.751 137.954 183.868 137.344 184.922 136.768C192.982 132.364 197.354 129.975 194.07 118.529C193.863 117.807 193.632 116.991 193.378 116.095C189.075 100.93 178.22 62.6704 167.063 62.6704C157.611 62.6704 143.544 95.8221 137.693 112.398C137.58 113.533 134.789 115.804 124.527 115.804C122.608 115.804 120.758 115.827 118.995 115.849H118.993C108.966 115.972 101.757 116.061 100.896 111.717C99.8827 106.608 90.4302 62.6704 77.2642 62.6704C66.7314 62.6704 50.8196 100.136 44.1804 118.869C43.1676 121.367 42.6275 127.657 48.569 132.834C54.5106 138.011 57.3464 139.987 58.0215 140.327ZM191.707 470.709C192.788 471.254 193.958 473.66 194.408 474.796L222.766 475.136C222.766 465.872 236.494 464.691 243.359 465.259C255.586 446.921 245.697 399.44 236.313 389.986C228.481 382.085 228.774 367.848 228.886 363.76C232.15 331.063 239.689 311.308 241.333 306.199C242.977 301.09 243.809 300.863 245.046 301.09C245.947 301.09 250.921 301.226 263.614 301.771C276.307 302.316 273.898 309.151 272.773 314.033C270.703 319.482 272.054 315.395 263.614 339.237C255.174 363.079 257.841 381.214 266.021 392.149C272.391 400.664 273.799 414.447 270.703 433.583C268.316 448.34 259.225 475.136 259.225 475.136H274.079C274.079 468.324 286.458 467.303 292.647 467.643C297.637 457.573 293.055 409.323 280.486 396.731C279.451 395.694 278.343 394.585 277.162 393.392C264.738 380.858 264.558 369.551 266.021 365.463C271.423 334.015 284.882 315.804 284.882 309.264C284.882 302.725 278.326 296.645 270.703 295.3C255.269 292.575 229.18 292.575 222.428 292.575C215.676 292.575 211.963 300.295 210.95 304.156L191.707 470.709ZM157.948 148.501C157.948 157.531 150.693 164.85 141.744 164.85C132.795 164.85 125.54 157.531 125.54 148.501C125.54 139.472 132.795 132.153 141.744 132.153C150.693 132.153 157.948 139.472 157.948 148.501ZM96.5068 164.85C105.456 164.85 112.711 157.531 112.711 148.501C112.711 139.472 105.456 132.153 96.5068 132.153C87.5574 132.153 80.3025 139.472 80.3025 148.501C80.3025 157.531 87.5574 164.85 96.5068 164.85Z" fill="#1D1D1D"></path>
<path d="M47.2183 190.395C47.2183 198.107 40.9309 203.338 30.6764 203.338C20.4219 203.338 8.05786 196.745 8.05786 189.033C8.05786 181.32 20.4219 173.024 30.6764 173.024C40.9309 173.024 47.2183 182.683 47.2183 190.395Z" fill="#1D1D1D"></path>
<path d="M377.044 337.534C387.509 337.875 381.095 418.256 370.967 418.256C360.839 418.256 368.604 337.534 377.044 337.534Z" fill="#1D1D1D"></path>
<path d="M353.075 371.253C360.502 370.594 363.202 413.912 355.438 414.85C347.673 415.787 345.648 371.912 353.075 371.253Z" fill="#1D1D1D"></path>
<path d="M388.544 404.025C396.748 404.375 391.159 470.29 383.217 470.222C375.275 470.153 381.926 403.967 388.544 404.025Z" fill="#1D1D1D"></path>
<path d="M218.809 433.316C227.014 433.521 224.293 463.965 216.351 463.896C208.409 463.828 212.191 433.259 218.809 433.316Z" fill="#1D1D1D"></path>
<path d="M145.12 424.387C153.325 424.591 151.711 462.602 143.769 462.534C135.828 462.465 138.501 424.33 145.12 424.387Z" fill="#1D1D1D"></path>
<path d="M52.6195 349.796C60.8249 350 68.2804 461.24 60.3386 461.172C52.3967 461.103 46.0013 349.739 52.6195 349.796Z" fill="#1D1D1D"></path>
<path d="M23.5868 321.185C31.7927 321.347 40.129 402.589 31.0139 402.589C21.8988 402.589 16.9686 321.128 23.5868 321.185Z" fill="#1D1D1D"></path>
<path d="M6.55926 394.439C14.7655 394.554 24.262 444.522 15.1473 444.482C6.03264 444.442 -0.0589614 394.382 6.55926 394.439Z" fill="#1D1D1D"></path>
<path d="M59.0342 266.349C62.275 263.079 70.7373 278.156 74.5633 286.104C75.9137 271.458 85.0287 262.602 85.7039 264.305C89.8107 274.664 82.4405 292.575 77.2641 295.64C80.8651 335.718 86.4466 415.872 79.9649 415.872C73.4831 415.872 70.9624 336.626 70.5122 297.003C66.4611 297.003 54.9831 270.436 59.0342 266.349Z" fill="#1D1D1D"></path>
<path d="M5.617 510.1H27.948C35.7113 510.1 41.374 511.927 44.936 515.58C48.498 519.142 50.279 524.668 50.279 532.157V538.048C50.279 548.003 46.991 554.305 40.415 556.954V557.228C44.0683 558.324 46.6257 560.562 48.087 563.941C49.6397 567.32 50.416 571.841 50.416 577.504V594.355C50.416 597.095 50.5073 599.333 50.69 601.068C50.8727 602.712 51.3293 604.356 52.06 606H36.716C36.168 604.447 35.8027 602.986 35.62 601.616C35.4373 600.246 35.346 597.78 35.346 594.218V576.682C35.346 572.298 34.6153 569.238 33.154 567.503C31.784 565.768 29.3637 564.9 25.893 564.9H20.687V606H5.617V510.1ZM26.167 551.2C29.181 551.2 31.4187 550.424 32.88 548.871C34.4327 547.318 35.209 544.715 35.209 541.062V533.664C35.209 530.193 34.5697 527.682 33.291 526.129C32.1037 524.576 30.1857 523.8 27.537 523.8H20.687V551.2H26.167ZM60.8719 510.1H101.972V523.8H75.9419V549.145H96.6289V562.845H75.9419V592.3H101.972V606H60.8719V510.1ZM110.641 510.1H129.547L144.206 567.503H144.48V510.1H157.906V606H142.425L124.341 535.993H124.067V606H110.641V510.1ZM180.752 510.1H201.165L216.783 606H201.713L198.973 586.957V587.231H181.848L179.108 606H165.134L180.752 510.1ZM197.192 574.216L190.479 526.814H190.205L183.629 574.216H197.192ZM229.588 523.8H213.833V510.1H260.413V523.8H244.658V606H229.588V523.8ZM288.958 607.37C281.56 607.37 275.897 605.269 271.97 601.068C268.042 596.867 266.079 590.93 266.079 583.258V532.842C266.079 525.17 268.042 519.233 271.97 515.032C275.897 510.831 281.56 508.73 288.958 508.73C296.356 508.73 302.018 510.831 305.946 515.032C309.873 519.233 311.837 525.17 311.837 532.842V583.258C311.837 590.93 309.873 596.867 305.946 601.068C302.018 605.269 296.356 607.37 288.958 607.37ZM288.958 593.67C294.164 593.67 296.767 590.519 296.767 584.217V531.883C296.767 525.581 294.164 522.43 288.958 522.43C283.752 522.43 281.149 525.581 281.149 531.883V584.217C281.149 590.519 283.752 593.67 288.958 593.67ZM365.342 607.37C358.035 607.37 352.464 605.315 348.628 601.205C344.792 597.004 342.874 591.021 342.874 583.258V532.842C342.874 525.079 344.792 519.142 348.628 515.032C352.464 510.831 358.035 508.73 365.342 508.73C372.648 508.73 378.22 510.831 382.056 515.032C385.892 519.142 387.81 525.079 387.81 532.842V541.062H373.562V531.883C373.562 525.581 370.959 522.43 365.753 522.43C360.547 522.43 357.944 525.581 357.944 531.883V584.354C357.944 590.565 360.547 593.67 365.753 593.67C370.959 593.67 373.562 590.565 373.562 584.354V565.585H366.027V551.885H387.81V583.258C387.81 591.021 385.892 597.004 382.056 601.205C378.22 605.315 372.648 607.37 365.342 607.37ZM397.485 591.478H412.007V606H397.485V591.478Z" fill="#1D1D1D"></path>
<path d="M18.5608 676.78C14.4008 676.78 11.2288 675.61 9.04481 673.27C6.86081 670.878 5.76881 667.472 5.76881 663.052V621.4H14.3488V663.676C14.3488 665.548 14.7128 666.9 15.4408 667.732C16.2208 668.564 17.3128 668.98 18.7168 668.98C20.1208 668.98 21.1868 668.564 21.9148 667.732C22.6948 666.9 23.0848 665.548 23.0848 663.676V621.4H31.3528V663.052C31.3528 667.472 30.2608 670.878 28.0768 673.27C25.8928 675.61 22.7208 676.78 18.5608 676.78ZM44.9535 648.076L35.5155 621.4H44.5635L50.3355 639.028H50.4915L56.4195 621.4H64.5315L55.0935 648.076L64.9995 676H55.9515L49.7115 656.968H49.5555L43.1595 676H35.0475L44.9535 648.076ZM88.8687 621.4H96.2787L74.7507 676H67.3407L88.8687 621.4ZM112.633 676.78C108.473 676.78 105.301 675.61 103.117 673.27C100.933 670.878 99.8411 667.472 99.8411 663.052V621.4H108.421V663.676C108.421 665.548 108.785 666.9 109.513 667.732C110.293 668.564 111.385 668.98 112.789 668.98C114.193 668.98 115.259 668.564 115.987 667.732C116.767 666.9 117.157 665.548 117.157 663.676V621.4H125.425V663.052C125.425 667.472 124.333 670.878 122.149 673.27C119.965 675.61 116.793 676.78 112.633 676.78ZM131.536 621.4H140.116V676H131.536V621.4ZM165.44 621.4H178.544C182.808 621.4 186.006 622.544 188.138 624.832C190.27 627.12 191.336 630.474 191.336 634.894V662.506C191.336 666.926 190.27 670.28 188.138 672.568C186.006 674.856 182.808 676 178.544 676H165.44V621.4ZM178.388 668.2C179.792 668.2 180.858 667.784 181.586 666.952C182.366 666.12 182.756 664.768 182.756 662.896V634.504C182.756 632.632 182.366 631.28 181.586 630.448C180.858 629.616 179.792 629.2 178.388 629.2H174.02V668.2H178.388ZM197.128 621.4H220.528V629.2H205.708V643.63H217.486V651.43H205.708V668.2H220.528V676H197.128V621.4ZM236.77 676.78C232.61 676.78 229.464 675.61 227.332 673.27C225.2 670.878 224.134 667.472 224.134 663.052V659.932H232.246V663.676C232.246 667.212 233.728 668.98 236.692 668.98C238.148 668.98 239.24 668.564 239.968 667.732C240.748 666.848 241.138 665.444 241.138 663.52C241.138 661.232 240.618 659.23 239.578 657.514C238.538 655.746 236.614 653.64 233.806 651.196C230.27 648.076 227.8 645.268 226.396 642.772C224.992 640.224 224.29 637.364 224.29 634.192C224.29 629.876 225.382 626.548 227.566 624.208C229.75 621.816 232.922 620.62 237.082 620.62C241.19 620.62 244.284 621.816 246.364 624.208C248.496 626.548 249.562 629.928 249.562 634.348V636.61H241.45V633.802C241.45 631.93 241.086 630.578 240.358 629.746C239.63 628.862 238.564 628.42 237.16 628.42C234.3 628.42 232.87 630.162 232.87 633.646C232.87 635.622 233.39 637.468 234.43 639.184C235.522 640.9 237.472 642.98 240.28 645.424C243.868 648.544 246.338 651.378 247.69 653.926C249.042 656.474 249.718 659.464 249.718 662.896C249.718 667.368 248.6 670.8 246.364 673.192C244.18 675.584 240.982 676.78 236.77 676.78ZM254.637 621.4H263.217V676H254.637V621.4ZM281.811 676.78C277.651 676.78 274.479 675.61 272.295 673.27C270.111 670.878 269.019 667.472 269.019 663.052V634.348C269.019 629.928 270.111 626.548 272.295 624.208C274.479 621.816 277.651 620.62 281.811 620.62C285.971 620.62 289.143 621.816 291.327 624.208C293.511 626.548 294.603 629.928 294.603 634.348V639.028H286.491V633.802C286.491 630.214 285.009 628.42 282.045 628.42C279.081 628.42 277.599 630.214 277.599 633.802V663.676C277.599 667.212 279.081 668.98 282.045 668.98C285.009 668.98 286.491 667.212 286.491 663.676V652.99H282.201V645.19H294.603V663.052C294.603 667.472 293.511 670.878 291.327 673.27C289.143 675.61 285.971 676.78 281.811 676.78ZM300.112 621.4H310.876L319.222 654.082H319.378V621.4H327.022V676H318.208L307.912 636.142H307.756V676H300.112V621.4ZM333.399 621.4H356.799V629.2H341.979V643.63H353.757V651.43H341.979V668.2H356.799V676H333.399V621.4ZM361.735 621.4H374.449C378.869 621.4 382.093 622.44 384.121 624.52C386.149 626.548 387.163 629.694 387.163 633.958V637.312C387.163 642.98 385.291 646.568 381.547 648.076V648.232C383.627 648.856 385.083 650.13 385.915 652.054C386.799 653.978 387.241 656.552 387.241 659.776V669.37C387.241 670.93 387.293 672.204 387.397 673.192C387.501 674.128 387.761 675.064 388.177 676H379.441C379.129 675.116 378.921 674.284 378.817 673.504C378.713 672.724 378.661 671.32 378.661 669.292V659.308C378.661 656.812 378.245 655.07 377.413 654.082C376.633 653.094 375.255 652.6 373.279 652.6H370.315V676H361.735V621.4ZM373.435 644.8C375.151 644.8 376.425 644.358 377.257 643.474C378.141 642.59 378.583 641.108 378.583 639.028V634.816C378.583 632.84 378.219 631.41 377.491 630.526C376.815 629.642 375.723 629.2 374.215 629.2H370.315V644.8H373.435Z" fill="#1D1D1D"></path>
</svg>