<svg width="400" height="500" viewBox="0 0 400 500" fill="none" xmlns="http://www.w3.org/2000/svg">
<ellipse cx="277.117" cy="53.4741" rx="53.0016" ry="53.4741" fill="white"/>
<path d="M47.2186 190.395C47.2186 198.107 40.9312 203.338 30.6766 203.338C20.4221 203.338 8.05811 196.745 8.05811 189.033C8.05811 181.32 20.4221 173.024 30.6766 173.024C40.9312 173.024 47.2186 182.683 47.2186 190.395Z" fill="white"/>
<path d="M377.044 337.534C387.509 337.875 381.095 418.256 370.967 418.256C360.839 418.256 368.604 337.534 377.044 337.534Z" fill="white"/>
<path d="M353.074 371.253C360.501 370.594 363.202 413.912 355.437 414.85C347.673 415.787 345.647 371.912 353.074 371.253Z" fill="white"/>
<path d="M388.544 404.025C396.748 404.375 391.159 470.29 383.217 470.222C375.275 470.153 381.926 403.967 388.544 404.025Z" fill="white"/>
<path d="M218.809 433.316C227.015 433.521 224.293 463.965 216.351 463.896C208.409 463.828 212.191 433.259 218.809 433.316Z" fill="white"/>
<path d="M145.119 424.387C153.325 424.591 151.711 462.602 143.769 462.534C135.827 462.465 138.501 424.33 145.119 424.387Z" fill="white"/>
<path d="M52.6192 349.796C60.8247 350 68.2802 461.24 60.3383 461.172C52.3965 461.103 46.001 349.739 52.6192 349.796Z" fill="white"/>
<path d="M23.5871 321.185C31.793 321.347 40.1293 402.589 31.0142 402.589C21.8991 402.589 16.9688 321.128 23.5871 321.185Z" fill="white"/>
<path d="M6.55951 394.439C14.7657 394.554 24.2623 444.522 15.1476 444.482C6.03288 444.442 -0.0587173 394.382 6.55951 394.439Z" fill="white"/>
<path d="M59.0344 266.349C62.2753 263.079 70.7375 278.156 74.5635 286.104C75.9139 271.458 85.029 262.602 85.7041 264.305C89.811 274.664 82.4408 292.575 77.2644 295.64C80.8653 335.718 86.4468 415.872 79.9651 415.872C73.4834 415.872 70.9626 336.626 70.5125 297.003C66.4614 297.003 54.9833 270.436 59.0344 266.349Z" fill="white"/>
<path fill-rule="evenodd" clip-rule="evenodd" d="M156 148.5C156 156.508 149.508 163 141.5 163C133.492 163 127 156.508 127 148.5C127 140.492 133.492 134 141.5 134C149.508 134 156 140.492 156 148.5ZM141.744 155.995C145.846 155.995 149.171 152.64 149.171 148.501C149.171 144.363 145.846 141.008 141.744 141.008C137.643 141.008 134.317 144.363 134.317 148.501C134.317 152.64 137.643 155.995 141.744 155.995Z" fill="white"/>
<path fill-rule="evenodd" clip-rule="evenodd" d="M96.5003 163C104.508 163 111 156.508 111 148.5C111 140.492 104.508 134 96.5003 134C88.4921 134 82.0002 140.492 82.0002 148.5C82.0002 156.508 88.4921 163 96.5003 163ZM103.934 148.501C103.934 152.64 100.609 155.995 96.5068 155.995C92.405 155.995 89.0798 152.64 89.0798 148.501C89.0798 144.363 92.405 141.008 96.5068 141.008C100.609 141.008 103.934 144.363 103.934 148.501Z" fill="white"/>
<path fill-rule="evenodd" clip-rule="evenodd" d="M58.0218 140.327C58.6969 140.895 59.7772 142.507 58.6969 144.414C57.6167 146.322 45.4184 159.968 39.4543 166.553C39.0042 167.121 38.374 168.529 39.4543 169.619C39.6295 169.795 39.9725 170.092 40.437 170.494C43.5527 173.189 52.1388 180.615 52.2826 188.352C52.4412 196.882 48.6655 203.19 41.1422 207.085C36.181 209.653 29.3265 209.242 26.9634 208.788C27.8636 212.648 31.9597 220.572 41.1422 221.39C50.3246 222.207 61.8477 219.006 66.4614 217.303L122.501 190.055C124.865 188.919 129.861 187.057 130.941 188.692C132.292 190.736 131.954 193.461 124.527 196.526C118.585 198.978 114.624 201.181 113.386 201.976C112.261 202.543 110.348 204.224 111.699 206.403C113.049 208.583 149.171 270.436 167.063 301.09C167.851 302.793 169.426 307.766 169.426 314.033C169.426 320.3 170.777 414.737 171.452 461.172C165.6 460.491 153.222 461.785 150.521 472.412C147.933 472.298 142.622 472.616 142.082 474.796H122.839C123.964 465.145 125.135 446.117 120.813 447.207C115.412 448.57 112.036 468.665 112.711 474.796H99.2077C98.0824 473.093 95.5617 469.755 94.4814 470.027L162.675 314.033C163.237 312.557 163.687 308.788 160.987 305.518C158.286 302.248 139.606 268.96 130.604 252.725C129.928 251.59 128.105 249.66 126.215 251.022C124.324 252.384 127.453 273.388 129.253 283.72C129.928 288.601 129.726 303.406 123.514 323.57C117.302 343.733 94.1438 420.3 83.3409 456.063C83.1159 456.971 81.8555 458.788 78.6147 458.788C78.3146 458.788 77.9776 458.78 77.6093 458.772C73.0042 458.67 63.5107 458.459 60.3848 471.39C58.4718 471.39 54.6458 471.935 54.6458 474.115H36.0783C37.7663 454.36 39.3867 414.85 32.3648 414.85C23.5875 414.85 26.6258 472.412 27.301 474.115C23.7 474.115 16.1605 474.591 14.8102 476.499C12.7846 468.551 7.45068 452.657 2.31932 452.657C-2.81205 452.657 1.75667 472.185 4.68245 481.948C3.89473 483.084 2.31932 486.376 2.31932 490.463C2.31932 495.572 11.0965 500 14.8102 500H377.72C382.221 499.66 391.223 497.275 391.223 490.463C391.223 481.948 384.809 476.499 377.72 476.499H370.63C371.418 462.194 371.576 433.583 365.904 433.583C360.232 433.583 359.715 462.194 360.165 476.499H352.4C352.963 457.652 352.333 419.959 345.311 419.959C338.289 419.959 340.585 456.744 342.61 475.136H311.89L320.711 397.139C321.274 395.663 321.386 391.962 317.335 388.965C312.271 385.218 309.571 376.022 311.596 368.529C312.049 366.854 313.809 363.775 316.278 359.457C322.644 348.321 333.72 328.944 339.234 304.156C339.572 302.566 341.868 299.183 348.349 298.365C356.451 297.344 400 272.915 400 233.064C400.019 194.104 387.797 151.244 348.349 130.109C311.556 110.396 246.397 133.515 242.008 138.624C237.62 143.733 234.919 148.161 237.62 150.545C240.32 152.929 243.696 155.654 267.665 153.61C268.052 153.578 268.442 153.544 268.835 153.51L269.743 153.432C293.716 151.361 328.999 148.314 348.349 176.771C368.267 206.063 358.815 244.891 339.572 257.153C334.958 242.053 312.902 211.853 261.589 211.853C258.284 211.853 255.139 211.856 252.142 211.858C196.972 211.906 192.397 211.91 180.229 194.142C177.079 189.26 171.857 178.27 176.178 173.365C180.499 168.461 189.907 161.785 194.071 159.06C195.308 157.811 197.041 154.7 194.071 152.248C193.077 151.428 190.996 150.486 188.675 149.435C182.319 146.558 174.162 142.865 181.58 138.624C182.751 137.954 183.868 137.344 184.922 136.768C192.982 132.364 197.355 129.975 194.071 118.529C193.866 117.817 193.639 117.015 193.389 116.134L193.379 116.1L193.378 116.095C189.075 100.93 178.22 62.6704 167.063 62.6704C157.611 62.6704 143.545 95.8221 137.693 112.398C137.58 113.533 134.79 115.804 124.527 115.804C122.609 115.804 120.76 115.827 118.997 115.849L118.995 115.849H118.993C108.966 115.972 101.757 116.061 100.896 111.717C99.883 106.608 90.4305 62.6704 77.2644 62.6704C66.7316 62.6704 50.8199 100.136 44.1806 118.869C43.1678 121.367 42.6277 127.657 48.5693 132.834C54.5109 138.011 57.3466 139.987 58.0218 140.327ZM191.707 470.709C192.788 471.254 193.958 473.66 194.408 474.796L222.766 475.136C222.766 465.872 236.494 464.691 243.359 465.259C255.587 446.921 245.697 399.44 236.314 389.986C228.481 382.085 228.774 367.848 228.887 363.76C231.835 334.222 238.273 315.246 240.701 308.088C240.961 307.323 241.174 306.693 241.333 306.199C242.977 301.09 243.809 300.863 245.047 301.09C245.947 301.09 250.921 301.226 263.614 301.771C275.589 302.285 274.123 308.398 272.974 313.187L272.973 313.191C272.904 313.477 272.837 313.758 272.773 314.033C272.326 315.212 272.038 315.944 271.777 316.61C270.83 319.021 270.228 320.552 263.614 339.237C255.174 363.079 257.841 381.214 266.021 392.149C272.392 400.664 273.8 414.447 270.704 433.583C268.316 448.34 259.225 475.136 259.225 475.136H274.079C274.079 468.324 286.458 467.303 292.647 467.643C297.637 457.573 293.055 409.323 280.486 396.731C279.451 395.694 278.343 394.585 277.162 393.392C264.739 380.858 264.559 369.551 266.021 365.463C269.445 345.53 276.106 330.914 280.525 321.219C283.078 315.618 284.882 311.659 284.882 309.264C284.882 302.725 278.326 296.645 270.704 295.3C255.269 292.575 229.18 292.575 222.428 292.575C215.676 292.575 211.963 300.295 210.95 304.156L191.707 470.709ZM162 148.5C162 159.822 152.822 169 141.5 169C130.178 169 121 159.822 121 148.5C121 137.178 130.178 128 141.5 128C152.822 128 162 137.178 162 148.5ZM96.5003 169C107.822 169 117 159.822 117 148.5C117 137.178 107.822 128 96.5003 128C85.1784 128 76.0002 137.178 76.0002 148.5C76.0002 159.822 85.1784 169 96.5003 169Z" fill="white"/>
</svg>
