<svg width="400" height="500" viewBox="0 0 400 500" fill="none" xmlns="http://www.w3.org/2000/svg">
<ellipse cx="277.117" cy="53.4741" rx="53.0016" ry="53.4741" fill="#1D1D1D"/>
<ellipse cx="96.5066" cy="148.501" rx="7.42698" ry="7.49319" fill="#1D1D1D"/>
<ellipse cx="141.744" cy="148.501" rx="7.42698" ry="7.49319" fill="#1D1D1D"/>
<path fill-rule="evenodd" clip-rule="evenodd" d="M58.0215 140.327C58.6967 140.895 59.777 142.507 58.6967 144.414C57.6164 146.322 45.4182 159.968 39.4541 166.553C39.004 167.121 38.3738 168.529 39.4541 169.619C39.6293 169.795 39.9722 170.092 40.4368 170.494C43.5525 173.189 52.1386 180.615 52.2824 188.352C52.441 196.882 48.6652 203.19 41.1419 207.085C36.1808 209.653 29.3263 209.242 26.9632 208.788C27.8634 212.648 31.9595 220.572 41.1419 221.39C50.3244 222.207 61.8475 219.006 66.4612 217.303L122.501 190.055C124.864 188.919 129.861 187.057 130.941 188.692C132.291 190.736 131.954 193.461 124.527 196.526C118.585 198.978 114.624 201.181 113.386 201.976C112.261 202.543 110.348 204.224 111.698 206.403C113.049 208.583 149.171 270.436 167.063 301.09C167.851 302.793 169.426 307.766 169.426 314.033C169.426 320.3 170.777 414.737 171.452 461.172C165.6 460.491 153.222 461.785 150.521 472.412C147.933 472.298 142.622 472.616 142.081 474.796H122.839C123.964 465.145 125.134 446.117 120.813 447.207C115.412 448.57 112.036 468.665 112.711 474.796H99.2074C98.0821 473.093 95.5615 469.755 94.4812 470.027L162.674 314.033C163.237 312.557 163.687 308.788 160.986 305.518C158.286 302.248 139.606 268.96 130.603 252.725C129.928 251.59 128.105 249.66 126.215 251.022C124.324 252.384 127.452 273.388 129.253 283.72C129.928 288.601 129.726 303.406 123.514 323.57C117.302 343.733 94.1436 420.3 83.3407 456.063C83.1156 456.971 81.8553 458.788 78.6144 458.788C78.3144 458.788 77.9774 458.78 77.609 458.772C73.004 458.67 63.5105 458.459 60.3846 471.39C58.4716 471.39 54.6455 471.935 54.6455 474.115H36.0781C37.766 454.36 39.3865 414.85 32.3646 414.85C23.5872 414.85 26.6256 472.412 27.3007 474.115C23.6998 474.115 16.1603 474.591 14.8099 476.499C12.7844 468.551 7.45044 452.657 2.31907 452.657C-2.8123 452.657 1.75643 472.185 4.6822 481.948C3.89449 483.084 2.31907 486.376 2.31907 490.463C2.31907 495.572 11.0963 500 14.8099 500H377.719C382.221 499.66 391.223 497.275 391.223 490.463C391.223 481.948 384.809 476.499 377.719 476.499H370.63C371.418 462.194 371.575 433.583 365.904 433.583C360.232 433.583 359.715 462.194 360.165 476.499H352.4C352.963 457.652 352.333 419.959 345.311 419.959C338.289 419.959 340.584 456.744 342.61 475.136H311.889L320.711 397.139C321.273 395.663 321.386 391.962 317.335 388.965C312.271 385.218 309.57 376.022 311.596 368.529C313.216 362.534 331.582 338.556 339.234 304.156C339.572 302.566 341.867 299.183 348.349 298.365C356.451 297.344 400 272.915 400 233.064C400.019 194.104 387.797 151.244 348.349 130.109C311.556 110.396 246.397 133.515 242.008 138.624C237.619 143.733 234.919 148.161 237.619 150.545C240.32 152.929 243.696 155.654 267.665 153.61C268.052 153.578 268.441 153.544 268.834 153.51L269.743 153.432C293.716 151.361 328.998 148.314 348.349 176.771C368.267 206.063 358.814 244.891 339.572 257.153C334.958 242.053 312.902 211.853 261.588 211.853C258.284 211.853 255.139 211.856 252.142 211.858C196.972 211.906 192.397 211.91 180.229 194.142C177.078 189.26 171.857 178.27 176.178 173.365C180.499 168.461 189.907 161.785 194.07 159.06C195.308 157.811 197.041 154.7 194.07 152.248C193.077 151.428 190.996 150.486 188.674 149.435C182.319 146.558 174.162 142.865 181.58 138.624C182.751 137.954 183.868 137.344 184.922 136.768C192.982 132.364 197.354 129.975 194.07 118.529C193.863 117.807 193.632 116.991 193.378 116.095C189.075 100.93 178.22 62.6704 167.063 62.6704C157.611 62.6704 143.544 95.8221 137.693 112.398C137.58 113.533 134.789 115.804 124.527 115.804C122.608 115.804 120.758 115.827 118.995 115.849H118.993C108.966 115.972 101.757 116.061 100.896 111.717C99.8827 106.608 90.4302 62.6704 77.2642 62.6704C66.7314 62.6704 50.8196 100.136 44.1804 118.869C43.1676 121.367 42.6275 127.657 48.569 132.834C54.5106 138.011 57.3464 139.987 58.0215 140.327ZM191.707 470.709C192.788 471.254 193.958 473.66 194.408 474.796L222.766 475.136C222.766 465.872 236.494 464.691 243.359 465.259C255.586 446.921 245.697 399.44 236.313 389.986C228.481 382.085 228.774 367.848 228.886 363.76C232.15 331.063 239.689 311.308 241.333 306.199C242.977 301.09 243.809 300.863 245.046 301.09C245.947 301.09 250.921 301.226 263.614 301.771C276.307 302.316 273.898 309.151 272.773 314.033C270.703 319.482 272.054 315.395 263.614 339.237C255.174 363.079 257.841 381.214 266.021 392.149C272.391 400.664 273.799 414.447 270.703 433.583C268.316 448.34 259.225 475.136 259.225 475.136H274.079C274.079 468.324 286.458 467.303 292.647 467.643C297.637 457.573 293.055 409.323 280.486 396.731C279.451 395.694 278.343 394.585 277.162 393.392C264.738 380.858 264.558 369.551 266.021 365.463C271.423 334.015 284.882 315.804 284.882 309.264C284.882 302.725 278.326 296.645 270.703 295.3C255.269 292.575 229.18 292.575 222.428 292.575C215.676 292.575 211.963 300.295 210.95 304.156L191.707 470.709ZM157.948 148.501C157.948 157.531 150.693 164.85 141.744 164.85C132.795 164.85 125.54 157.531 125.54 148.501C125.54 139.472 132.795 132.153 141.744 132.153C150.693 132.153 157.948 139.472 157.948 148.501ZM96.5068 164.85C105.456 164.85 112.711 157.531 112.711 148.501C112.711 139.472 105.456 132.153 96.5068 132.153C87.5574 132.153 80.3025 139.472 80.3025 148.501C80.3025 157.531 87.5574 164.85 96.5068 164.85Z" fill="#1D1D1D"/>
<path d="M47.2183 190.395C47.2183 198.107 40.9309 203.338 30.6764 203.338C20.4219 203.338 8.05786 196.745 8.05786 189.033C8.05786 181.32 20.4219 173.024 30.6764 173.024C40.9309 173.024 47.2183 182.683 47.2183 190.395Z" fill="#1D1D1D"/>
<path d="M377.044 337.534C387.509 337.875 381.095 418.256 370.967 418.256C360.839 418.256 368.604 337.534 377.044 337.534Z" fill="#1D1D1D"/>
<path d="M353.075 371.253C360.502 370.594 363.202 413.912 355.438 414.85C347.673 415.787 345.648 371.912 353.075 371.253Z" fill="#1D1D1D"/>
<path d="M388.544 404.025C396.748 404.375 391.159 470.29 383.217 470.222C375.275 470.153 381.926 403.967 388.544 404.025Z" fill="#1D1D1D"/>
<path d="M218.809 433.316C227.014 433.521 224.293 463.965 216.351 463.896C208.409 463.828 212.191 433.259 218.809 433.316Z" fill="#1D1D1D"/>
<path d="M145.12 424.387C153.325 424.591 151.711 462.602 143.769 462.534C135.828 462.465 138.501 424.33 145.12 424.387Z" fill="#1D1D1D"/>
<path d="M52.6195 349.796C60.8249 350 68.2804 461.24 60.3386 461.172C52.3967 461.103 46.0013 349.739 52.6195 349.796Z" fill="#1D1D1D"/>
<path d="M23.5868 321.185C31.7927 321.347 40.129 402.589 31.0139 402.589C21.8988 402.589 16.9686 321.128 23.5868 321.185Z" fill="#1D1D1D"/>
<path d="M6.55926 394.439C14.7655 394.554 24.262 444.522 15.1473 444.482C6.03264 444.442 -0.0589614 394.382 6.55926 394.439Z" fill="#1D1D1D"/>
<path d="M59.0342 266.349C62.275 263.079 70.7373 278.156 74.5633 286.104C75.9137 271.458 85.0287 262.602 85.7039 264.305C89.8107 274.664 82.4405 292.575 77.2641 295.64C80.8651 335.718 86.4466 415.872 79.9649 415.872C73.4831 415.872 70.9624 336.626 70.5122 297.003C66.4611 297.003 54.9831 270.436 59.0342 266.349Z" fill="#1D1D1D"/>
</svg>
