<svg width="404" height="407" viewBox="0 0 404 407" fill="none" xmlns="http://www.w3.org/2000/svg">
<ellipse cx="67.882" cy="368.652" rx="20.1182" ry="20.1182" fill="#F34A65" stroke="#1D1D1D" stroke-width="7" stroke-linecap="round" stroke-linejoin="round"></ellipse>
<path d="M98.0591 343.169L96.718 366.64L110.801 368.652L108.789 382.735L101.412 381.394L70.5643 375.358C69.6701 375.582 67.7476 374.688 67.2111 369.323C66.6747 363.958 70.5642 363.511 72.576 363.958L84.647 365.97V349.875L82.6351 345.181L98.0591 343.169Z" fill="#FFF1E7" stroke="#1D1D1D" stroke-width="7" stroke-linecap="round" stroke-linejoin="round"></path>
<ellipse cx="122.872" cy="381.394" rx="21.4595" ry="21.4595" fill="#F34A65" stroke="#1D1D1D" stroke-width="7" stroke-linecap="round" stroke-linejoin="round"></ellipse>
<ellipse cx="124.884" cy="382.064" rx="6.03547" ry="6.03547" fill="#1D1D1D"></ellipse>
<ellipse cx="295.889" cy="350.875" rx="20.1182" ry="20.1182" fill="#F34A65" stroke="#1D1D1D" stroke-width="7" stroke-linecap="round" stroke-linejoin="round"></ellipse>
<path d="M313.995 344.169L315.336 321.368L327.407 322.709L326.066 345.51L348.867 350.875L340.819 362.946C329.419 361.381 305.411 357.983 300.583 356.911C294.547 355.569 294.696 352.604 295.218 348.863C295.686 345.51 298.571 343.275 300.583 343.498L313.995 344.169Z" fill="#FFF1E7" stroke="#1D1D1D" stroke-width="7" stroke-linecap="round" stroke-linejoin="round"></path>
<ellipse cx="359.596" cy="363.617" rx="23.4713" ry="23.4713" fill="#F34A65" stroke="#1D1D1D" stroke-width="7" stroke-linecap="round" stroke-linejoin="round"></ellipse>
<ellipse cx="361.608" cy="364.287" rx="6.70608" ry="6.70608" fill="#1D1D1D"></ellipse>
<path d="M335.333 296.217L49.0604 318.747C25.91 320.795 -3.53519 327.387 5.01759 341.958C17.4397 363.121 45.1072 363.121 221.275 349.467C397.444 335.814 407.607 328.987 398.009 315.333C381.452 291.78 335.333 296.217 335.333 296.217Z" fill="#F34A65" stroke="#1D1D1D" stroke-width="7" stroke-linecap="round" stroke-linejoin="round"></path>
<path d="M109.404 9.2533C128.181 0.669511 153.664 2.55244 167.747 9.25331C225.531 36.7482 250.232 36.0777 273.032 34.0659C295.833 32.054 316.622 79.6672 267.667 92.4088C238.535 99.9913 213.78 86.2736 198.595 72.4005C200.204 79.9113 199.265 98.2207 198.595 105.15C229.711 143.241 275.044 162.152 293.821 166.846C305.221 159.47 305.221 151.422 305.221 132.645C305.221 113.868 334.728 97.103 348.14 123.257C361.553 149.41 332.046 180.258 311.257 185.623C330.034 244.637 298.515 261.402 314.61 267.438C334.484 274.062 296.187 316.589 269.679 324.684C264.616 326.231 259.983 326.52 256.267 325.064C255.806 324.883 255.358 324.675 254.926 324.439C237.222 314.782 256.044 296.721 267.667 288.897C259.224 285.474 253.07 279.989 248.699 274.144C242.44 278.167 223.407 289.031 201.948 294.932C180.488 300.834 171.1 318.851 169.088 327.122C151.119 329.86 118.921 333.122 103.368 329.686C98.6064 328.634 95.4051 326.954 94.6505 324.439C90.3586 304.053 116.11 304.321 129.522 307.003C122.011 280.179 140.62 262.743 150.863 257.378C129.29 235.395 119.666 206.406 116.283 185.623L49.0491 202.389C43.2372 205.071 30.0039 208.826 23.566 202.389C17.1282 195.951 24.4604 189.87 28.9313 187.635C11.4955 184.953 -0.575478 171.541 4.78939 158.799C7.0643 153.396 12.203 154.914 17.529 158.799C24.2366 134.657 46.3671 162.152 47.7083 162.823C48.7813 163.359 87.8702 148.293 107.28 140.693C96.3495 138.357 88.6589 133.329 85.2624 129.925C64.8221 135.153 42.7293 134.624 30.2723 124.598C2.77717 102.468 19.5425 80.3378 30.2723 76.9848C41.002 73.6317 58.4378 76.3142 66.4851 52.8429C74.5324 29.3716 85.9327 19.983 109.404 9.2533Z" fill="#FFF1E7"></path>
<path d="M132.205 92.4088C132.205 108.914 109.938 123.613 85.2624 129.925M85.2624 129.925C64.8221 135.153 42.7293 134.624 30.2723 124.598C2.77717 102.468 19.5425 80.3378 30.2723 76.9848C41.002 73.6317 58.4378 76.3142 66.4851 52.8429C74.5324 29.3716 85.9328 19.983 109.404 9.2533C128.181 0.669511 153.664 2.55244 167.747 9.25331C225.531 36.7482 250.232 36.0777 273.032 34.0659C295.833 32.054 316.622 79.6672 267.667 92.4088C228.504 102.602 197.254 74.3024 186.524 58.8784M85.2624 129.925C88.6589 133.329 96.3495 138.357 107.28 140.693M132.205 140.693C122.736 142.586 114.334 142.2 107.28 140.693M107.28 140.693C87.8702 148.293 48.7813 163.359 47.7083 162.823C46.3671 162.152 24.2366 134.657 17.529 158.799M30.2723 171.541C23.5663 163.046 9.08128 148.606 4.78939 158.799C-0.575478 171.541 11.4955 184.953 28.9313 187.635C24.4604 189.87 17.1282 195.951 23.566 202.388C30.0039 208.826 43.2372 205.071 49.0491 202.388L116.283 185.623M114.769 169.529C114.963 188.357 122.809 228.792 150.863 257.378M165.064 269.449C159.837 265.776 155.118 261.713 150.863 257.378M150.863 257.378C140.62 262.743 122.011 280.179 129.522 307.003C116.11 304.321 90.3586 304.053 94.6505 324.439C95.4051 326.954 98.6064 328.634 103.368 329.686M248.699 274.144C242.44 278.167 223.407 289.031 201.948 294.932C180.488 300.834 171.1 318.851 169.088 327.122C151.119 329.86 118.921 333.122 103.368 329.686M103.368 329.686C103.145 325.255 105.246 316.392 115.439 316.392M239.502 252.684C240.62 261.402 247.817 280.85 267.667 288.897C256.044 296.721 237.222 314.782 254.926 324.439C255.358 324.675 255.806 324.883 256.267 325.064M198.595 72.4005C200.204 79.9113 199.265 98.2207 198.595 105.15C229.711 143.241 275.044 162.152 293.821 166.846C305.221 159.47 305.221 151.422 305.221 132.645C305.221 113.868 334.728 97.103 348.14 123.257C361.553 149.41 332.046 180.258 311.257 185.623C330.034 244.637 298.515 261.402 314.61 267.437C334.484 274.062 296.187 316.589 269.679 324.684M269.679 324.684C267.891 319.685 266.326 308.613 274.373 304.321M269.679 324.684C264.616 326.231 259.983 326.52 256.267 325.064M256.267 325.064C254.479 320.608 253.316 310.222 262.973 304.321" stroke="#1D1D1D" stroke-width="7" stroke-linecap="round" stroke-linejoin="round"></path>
<ellipse cx="149.696" cy="69.2196" rx="5.36486" ry="6.70608" fill="#1D1D1D"></ellipse>
<ellipse cx="108.789" cy="67.2077" rx="6.03547" ry="7.37669" fill="#1D1D1D"></ellipse>
<path d="M46.4223 94.5441C46.422 113.163 32.467 120.592 22.5035 115.5C15.7528 112.05 15.5743 103.684 15.5743 94.5441C15.5743 85.4039 24.6437 75.9257 32.0263 75.9257C39.4089 75.9257 46.4223 80.0631 46.4223 94.5441Z" fill="#1D1D1D"></path>
<path d="M257.622 103.552L197.547 114.949L214.503 157.329L278.566 137.121C283.685 136.035 295.289 131.745 300.755 123.276C306.221 114.808 294.934 112.68 288.608 112.675C313.078 91.0851 294.823 73.2285 288.069 75.0714C285.659 75.7288 283.714 79.3137 282.221 83.786C269.613 67.6415 260.571 90.1219 257.622 103.552Z" fill="#FFF1E7"></path>
<path d="M191.018 116.605L257.622 103.552C260.571 90.1197 269.616 67.634 282.228 83.7943M278.737 100.654C279.596 92.7411 282.665 76.5458 288.069 75.0715C294.824 73.2286 313.078 91.0852 288.608 112.676C294.935 112.68 306.221 114.808 300.755 123.277C295.289 131.745 283.685 136.035 278.566 137.121L214.503 157.329" stroke="#1D1D1D" stroke-width="7" stroke-linecap="round" stroke-linejoin="round"></path>
</svg>