<svg width="387" height="449" viewBox="0 0 387 449" fill="none" xmlns="http://www.w3.org/2000/svg">
<path fill-rule="evenodd" clip-rule="evenodd" d="M167.713 82.5064C169.501 69.21 151.913 37.6065 164.713 32.0065C176.635 26.7904 195.587 16.7611 204.501 11.71C219.501 3.21002 246.501 0.709961 265.001 16.7099C276.046 26.2625 276.001 35.21 293.001 42.71C310.001 50.21 293.334 75.3398 281.001 82.5064C284.168 91.1731 289.501 109.21 270.501 109.21C254.354 109.21 256.001 112.506 259.001 121.711C260.067 124.982 264.844 134.029 266.001 137.711C268.227 144.794 266.501 153.21 278.501 153.21C290.501 153.21 322.061 168.711 325.001 179.211C328.501 191.711 322.37 191.758 319.501 192.211C323.501 198.211 314.001 206.711 307.001 203.711C305.001 206.211 297.01 208.702 292.213 203.007C289.795 200.134 288.244 196.896 286.83 193.942C283.566 187.126 277.398 180.074 266.001 182.211C258.001 183.711 243.001 177.211 241.501 168.711C237.834 178.044 229.629 208.132 235.501 213.711C245.501 223.211 268.501 267.711 229.001 301.711C219.859 309.579 225.547 319.173 227.214 322.006C227.214 322.006 268.955 337.022 296.213 345.006C310.005 349.046 324.626 352.306 337.527 355.183C351.198 358.231 362.938 360.848 369.712 363.506C382.879 368.673 389.48 392.506 364.712 413.506C341.713 433.006 303.213 433.006 281.713 426.006C260.213 429.506 255.001 450.023 237.501 441.711C220.001 433.398 224.713 419.006 232.214 412.506C176.713 397.506 73.7135 354.506 73.7135 354.506C73.7135 354.506 62.2135 353.006 39.2135 368.006C20.6108 380.139 1.16766 351.937 12.2135 338.006C15.4862 333.879 21.3329 332.072 25.0308 330.929C26.1793 330.574 27.1206 330.283 27.7131 330.006C11.7131 321.84 -8.98667 295.606 18.2133 284.006C45.3776 272.422 60.0611 274.638 72.034 276.446C75.0469 276.901 81.6756 278.033 84.5009 278.21C88.002 278.429 87.7157 273.539 92.0969 268.3C97.7267 261.569 110.097 252.803 120.501 249.71C139.001 244.21 129.001 220.71 129.001 220.71C113.001 230.71 80.5003 241.21 48.5009 224.21C10.2585 203.893 30.5009 191.77 36.5009 192.21C43.4162 192.717 42.0009 195.95 51.5009 201.71C66.9985 211.107 91.6702 220.318 118.501 201.71C136.817 189.007 144.501 150.507 146.001 144.007C146.49 141.887 141.501 141.71 140.001 137.21C138.471 132.62 136.214 127.506 136.214 127.506C134.714 125.006 92.3207 136.259 91.2135 144.007C89.7129 154.507 83.7135 167.007 73.7135 161.007C67.7135 165.007 57.7135 161.007 58.7135 154.507C51.7135 152.507 49.2135 143.007 55.7135 133.507C63.3836 122.296 95.7135 104.506 167.713 82.5064ZM189.001 308.21L130.713 288.006C130.713 288.006 153.213 286.506 160.213 282.006C168.749 276.519 176.136 257.172 185.213 261.71C193.213 265.71 207.959 268.536 204.501 276.71C199.001 289.71 189.001 308.21 189.001 308.21Z" fill="#1D1D1D" stroke="#1D1D1D" stroke-width="10"></path>
<path d="M224.51 329.424C227.674 329.911 230.301 331.216 233.024 332.172C258.99 341.267 285.394 348.928 311.95 356.077C326.379 359.963 340.764 364.006 355.155 368.026C358.064 368.838 360.892 369.937 363.524 371.452C370.916 375.71 372.886 382.005 369.171 389.671C366.242 395.716 362.12 400.84 356.693 404.83C345.797 412.84 333.502 417.285 320.08 418.647C303.508 420.329 287.325 418.14 271.439 413.438C253.607 408.161 235.545 403.678 217.857 397.905C199.569 391.936 181.569 385.173 163.512 378.549C120.768 362.874 78.8908 345.253 38.7638 323.679C31.7268 319.899 24.9535 315.717 19.2347 310.063C17.2454 308.094 15.4334 305.967 15.0787 303.009C14.5897 298.947 16.4497 295.902 19.46 293.499C25.3609 288.791 32.326 286.349 39.5068 284.408C52.5693 280.881 65.766 280.289 79.097 282.545C79.8064 282.664 80.5159 282.784 81.2061 282.975C83.5454 283.62 84.2836 284.886 83.6413 287.214C81.9587 293.322 80.1563 299.387 79.1497 305.676C76.9015 319.679 87.3228 330.298 101.617 328.626C109.46 327.708 113.86 324.195 114.91 314.331C115.418 309.542 115.092 304.801 114.498 300.046C114.186 297.561 114.632 295.114 115.351 292.753C115.849 291.114 116.866 290.292 118.797 291.056C139.621 299.277 160.952 306.144 181.728 314.508C182.61 314.862 183.458 315.301 184.34 315.66C185.548 316.152 185.946 316.945 185.73 318.269C184.441 326.141 185.725 333.773 188.007 341.3C189.436 346.008 190.706 350.787 193.879 354.73C199.291 361.454 206.577 364.594 214.947 365.583C220.225 366.205 225.431 366.114 230.397 363.782C236.331 360.995 238.402 356.794 236.815 350.409C235.147 343.685 231.399 338.108 227.027 332.879C226.183 331.866 225.1 331.006 224.52 329.419L224.51 329.424ZM279.708 359.609C280.883 360.45 335.367 374.172 337.068 374.057C332.999 370.343 285.393 358.352 279.708 359.609ZM267.835 388.93C266.248 386.946 264.201 386.435 262.336 385.728C249.633 380.934 236.729 376.728 223.81 372.561C222.526 372.145 220.393 370.955 219.966 372.246C219.434 373.851 221.855 374.167 223.134 374.621C232.496 377.918 241.892 381.116 251.292 384.304C256.603 386.105 261.867 388.103 267.835 388.93ZM340.27 397.117C340.218 395.052 339.091 394.851 338.185 394.521C324.591 389.623 310.799 385.336 296.74 381.976C294.875 381.532 292.872 380.92 290.906 381.575C290.863 381.794 290.815 382.014 290.772 382.229C307.271 387.19 323.771 392.151 340.27 397.112V397.117ZM274.196 373.665C273.16 372.728 271.976 372.566 270.864 372.312C260.194 369.87 249.523 367.457 238.848 365.039C237.592 364.752 235.756 363.848 235.32 365.301C234.994 366.381 237.098 366.73 238.263 367.055C248.588 369.942 259.058 372.188 269.68 373.651C271.075 373.842 272.595 374.544 274.191 373.665H274.196ZM213.576 378.143C211.85 376.279 210.082 375.739 208.37 375.242C200.001 372.8 191.621 370.406 183.214 368.097C181.234 367.552 179.149 367.399 177.107 367.108C176.666 367.046 176.042 366.974 175.894 367.557C175.745 368.126 176.258 368.351 176.718 368.508C177.615 368.819 178.501 369.173 179.412 369.431C184.45 370.836 189.479 372.265 194.536 373.589C200.657 375.19 206.736 376.991 213.571 378.143H213.576ZM145.972 341.171C144.86 339.761 143.441 339.202 142.099 338.614C135.709 335.804 129.065 333.687 122.383 331.684C120.638 331.159 118.845 330.8 117.067 330.389C116.247 330.198 115.236 330.255 114.982 331.049C114.704 331.923 115.758 332.038 116.386 332.306C116.607 332.397 116.808 332.53 117.033 332.602C124.737 335.03 132.43 337.477 140.148 339.866C141.97 340.43 143.738 341.358 145.967 341.176L145.972 341.171ZM179.93 344.349C171.287 339.312 162.352 334.982 152.41 333.128C161.101 338.036 170.28 341.759 179.93 344.349ZM161.566 324.181C158.426 320.176 141.428 313.466 136.625 314.427C144.994 318.068 152.889 321.548 161.566 324.181ZM141.092 308.768C140.536 307.487 139.587 307.167 138.787 306.703C135.541 304.825 132.037 303.54 128.442 302.55C126.304 301.962 124.118 301.528 121.928 301.188C121.185 301.074 119.89 300.615 119.694 301.781C119.536 302.718 120.811 302.732 121.506 302.957C124.751 303.989 128.035 304.911 131.285 305.934C134.448 306.928 137.54 308.18 141.097 308.778L141.092 308.768ZM311.202 404.802C307.41 400.854 294.372 395.96 290.925 397.102C297.56 400.51 304.347 402.78 311.202 404.802ZM59.031 297.365C52.459 297.312 46.1747 298.33 40.6956 302.249C47.1334 301.843 53.1014 299.683 59.031 297.365ZM66.9548 320.114C63.0672 318.556 59.0694 317.404 54.8414 317.294C54.2758 317.28 53.3554 316.95 53.1925 317.734C52.9911 318.69 53.993 318.742 54.6401 318.924C58.6475 320.047 62.7461 320.382 66.9548 320.114ZM283.059 398.278C280.758 395.473 277.532 394.392 274.129 393.656C273.505 393.523 272.743 393.284 272.547 394.11C272.398 394.727 273.108 394.985 273.601 395.219C276.597 396.62 279.627 397.929 283.059 398.283V398.278ZM152.424 354.367C155.296 357 158.714 358.233 162.587 358.3C159.778 355.504 156.341 354.324 152.424 354.367ZM349.522 385.298C345.884 382.679 341.785 382.105 337.442 382.612C341.22 384.552 345.332 385.063 349.522 385.298ZM353.539 381.221C356.415 383.486 359.229 383.964 361.947 384.672C362.307 384.767 362.786 384.772 362.982 384.347C363.246 383.783 362.81 383.496 362.417 383.223C359.939 381.512 357.201 380.953 353.539 381.221ZM334.269 403.057C333.929 403.091 333.253 403.11 333.061 403.659C332.893 404.132 333.44 404.51 333.866 404.692C335.889 405.552 337.917 406.422 340.107 406.761C340.611 406.837 341.277 406.99 341.526 406.302C341.766 405.633 341.258 405.318 340.755 405.045C338.799 403.97 336.666 403.463 334.274 403.062L334.269 403.057ZM130.753 349.716C131.318 349.826 131.908 349.845 132.162 349.215C132.33 348.804 132.013 348.488 131.663 348.273C129.765 347.107 127.704 346.385 125.494 346.094C125.111 346.041 124.65 346.127 124.511 346.567C124.363 347.035 124.785 347.236 125.101 347.456C126.812 348.631 128.739 349.277 130.753 349.712V349.716ZM143.547 355.776C143.959 355.762 144.625 355.839 144.798 355.189C144.918 354.73 144.558 354.266 144.122 354.051C143.221 353.597 142.315 353.09 141.351 352.828C140.56 352.613 139.381 352.302 138.998 353.22C138.509 354.381 139.894 354.419 140.532 354.83C141.394 355.38 142.391 355.657 143.547 355.781V355.776ZM60.2534 287.763C56.5719 286.98 53.9115 287.959 51.3134 289.25C54.2087 289.637 56.9554 289.149 60.2534 287.763ZM27.2927 302.096C28.8986 301.623 30.5907 301.461 31.7604 300.146C32.0336 299.841 31.6645 299.496 31.4104 299.439C29.6704 299.042 28.2323 299.888 26.7942 300.667C26.3676 300.902 25.9601 301.308 26.2573 301.795C26.3963 302.025 26.9476 302.006 27.2927 302.096Z" fill="#F34A65"></path>
<path d="M137.063 98.0446C136.684 96.2009 138.112 95.788 139.55 95.3847C148.964 92.7391 158.383 90.0984 167.791 87.4384C174.583 85.5179 181.72 84.7497 188.1 81.4415C189.581 80.6733 189.893 81.9985 190.391 82.7763C193.77 88.077 197.806 92.8111 202.772 96.6618C214.903 106.068 228.209 109.136 242.919 103.686C247.736 101.9 247.717 101.747 249.193 106.591C252.491 117.409 256.69 127.904 260.587 138.506C261.205 140.196 261.267 141.492 259.82 142.741C255.822 146.174 251.786 149.544 247.166 152.132C246.547 152.478 245.809 153.044 245.177 152.588C244.525 152.118 244.908 151.229 245.057 150.562C246.528 143.941 247.669 137.262 248.647 130.55C248.843 129.201 249.025 127.823 248.613 126.507C248.297 125.504 247.703 124.553 246.519 124.433C245.258 124.303 244.424 125.072 243.868 126.123C242.919 127.914 242.684 129.921 242.301 131.861C238.926 148.824 233.898 165.393 230.395 182.323C229.378 187.24 228.463 192.18 227.672 197.135C227.322 199.334 226.181 200.544 224.178 201.159C219.576 202.57 214.807 203.041 210.057 203.483C186.537 205.677 163.621 202.926 141.343 194.965C137.25 193.501 137.034 193.222 138.438 189.184C144.07 172.984 149.832 156.823 154.313 140.253C154.84 138.299 155.976 137.142 157.707 136.244C163.142 133.412 168.391 130.247 173.452 126.776C174.574 126.008 175.446 125.091 175.379 123.694C175.312 122.248 173.601 121.375 171.88 121.792C169.675 122.33 167.806 123.583 165.898 124.721C160.765 127.78 155.464 130.507 150.129 133.191C148.729 133.896 147.689 134.103 146.932 132.302C142.479 121.687 139.042 110.778 137.154 99.4034C137.087 99.0097 137.101 98.6064 137.063 98.0399V98.0446Z" fill="#F34A65"></path>
<path d="M195.501 332.71C191.866 329.556 192.165 329.004 192.75 320.699C193.339 312.293 197.262 305.149 201.088 297.947C203.708 293.019 206.621 288.235 208.666 283.013C209.921 279.8 210.922 276.519 210.553 272.988C209.997 267.675 206.937 264.033 202.674 261.292C198.507 258.613 193.928 256.759 189.354 254.918C186.015 253.574 185.838 253.03 188.199 250.279C190.858 247.182 193.66 244.214 196.39 241.184C196.926 240.592 197.439 239.98 197.937 239.354C198.607 238.511 199.182 237.6 198.416 236.535C197.606 235.413 196.471 235.529 195.394 236.001C192.055 237.46 189.191 239.628 186.844 242.408C180.866 249.504 174.994 256.696 169.002 263.778C165.587 267.81 162.005 271.688 157.526 274.602C153.077 277.497 148.244 279.179 142.932 279.212C138.468 279.241 134.004 279.222 129.54 278.851C121.048 278.143 114.179 280.841 109.955 288.76C109.418 289.772 108.839 290.851 107.407 290.119C101.654 287.175 96.3138 288.452 91.1457 291.675C90.8823 291.839 90.5757 291.925 90.0009 292.171C90.3506 289.059 91.4762 286.366 92.1755 283.572C95.7151 269.443 105.635 261.451 118.241 255.983C121.369 254.625 124.463 253.141 127.442 251.474C135.374 247.042 138.482 240.216 137.271 231.174C136.375 224.511 135.259 217.863 135.479 211.081C135.733 203.272 136.059 203.012 142.999 205.902C159.72 212.868 177.059 216.356 195.202 214.983C203.071 214.385 210.888 213.263 218.58 211.485C221.205 210.878 223.083 211.191 224.807 213.504C228.011 217.796 231.575 221.814 234.837 226.063C244.172 238.226 246.567 251.937 244.086 266.909C242.481 276.587 237.936 284.439 231.134 291.203C229.036 293.289 227.034 295.476 224.98 297.605C217.431 305.419 213.824 314.793 214.069 325.661C214.107 327.371 213.82 328.667 211.899 329.043C205.332 330.315 200.457 337.011 195.501 332.71Z" fill="#FFF1E7"></path>
<path d="M269.613 28.6458C264.564 28.0572 261.735 30.4888 261.63 34.9371C261.591 36.6836 262.279 37.5038 263.958 37.9477C271.383 39.9161 278.699 42.2512 285.952 44.789C287.971 45.4934 289.894 46.439 291.659 47.6886C294.312 49.5653 295.563 51.939 294.761 55.3356C293.864 59.1567 292.237 62.5725 289.817 65.6023C289.278 66.2778 288.577 66.8616 287.846 67.3295C286.362 68.2752 284.773 68.8686 283.37 67.2138C282.201 65.8291 282.631 64.1694 284.435 62.7027C285.733 61.6462 287.121 60.6909 288.338 59.5523C290.423 57.6031 291.139 54.6746 290.189 52.5759C289.092 50.1443 286.367 48.4846 283.571 48.7162C278.885 49.107 274.318 50.0767 269.976 51.939C267.657 52.9329 265.643 54.2356 264.937 56.9615C264.235 59.6681 264.97 61.4628 267.513 62.6352C269.255 63.4409 271.107 63.8317 273.02 64.0054C275.559 64.2322 276.055 65.2067 274.857 67.4791C273.206 70.6151 270.224 71.8743 267.117 72.5401C258.619 74.3542 250.053 75.1888 241.359 73.7945C238.72 73.37 235.971 73.3024 233.328 74.166C230.006 75.2564 228.956 77.4564 230.35 80.6985C231.39 83.1157 233.194 84.9201 235.298 86.4302C238.157 88.4806 241.292 90.0052 244.518 91.3561C245.372 91.7131 246.641 91.8096 246.741 92.8759C246.861 94.1544 245.601 94.7333 244.651 95.2351C236.038 99.7943 227.095 100.441 217.962 97.1263C208.113 93.5561 201.084 86.5508 195.582 77.7893C194.89 76.6845 194.732 75.7581 195.572 74.523C201.38 65.9931 203.374 56.2715 204.028 46.1495C204.5 38.8451 204.453 31.5261 204.429 24.212C204.415 19.8457 205.923 17.1247 210.236 15.5856C219.503 12.2759 228.861 9.26055 238.772 10.4908C250.177 11.9044 259.783 17.308 267.618 25.8331C268.306 26.5809 268.811 27.5024 269.608 28.641L269.613 28.6458ZM219.27 43.578C219.284 46.0337 220.338 46.9697 222.887 46.5065C226.537 45.8407 230.159 44.9916 233.762 44.0991C236.339 43.4622 236.969 42.01 236.1 39.3999C235.523 37.6727 234.32 36.6161 232.736 35.9069C228.684 34.1025 222.424 36.2012 220.253 40.1043C219.623 41.2332 219.179 42.4249 219.27 43.578Z" fill="#FFF1E7"></path>
<path d="M247.029 160.234C246.842 159.139 247.621 158.524 248.472 158.048C252.733 155.652 256.82 153.006 260.592 149.88C261.442 149.176 262.341 148.731 263.129 150.098C266.794 156.453 273.041 158.034 279.635 159.001C286.759 160.043 299.669 163.551 309.574 171.377C313.01 174.092 315.852 176.953 317.665 179.127C318.715 180.387 319.575 181.768 319.918 183.402C320.185 184.671 319.811 185.776 318.773 186.555C317.691 187.37 316.511 187.255 315.487 186.475C314.312 185.58 313.257 184.529 312.112 183.594C311.395 183.01 310.656 182.124 309.614 183.019C308.648 183.848 309.142 184.818 309.597 185.638C310.345 186.996 311.244 188.266 312.045 189.597C312.843 190.924 313.626 192.247 314.018 193.784C314.432 195.418 314.12 196.767 312.691 197.658C311.177 198.602 309.686 198.264 308.408 197.119C307.17 196.01 306.529 194.483 305.79 193.031C305.224 191.913 304.743 190.742 303.879 189.798C303.318 189.187 302.628 188.96 301.876 189.299C301.07 189.664 300.963 190.403 301.155 191.183C301.555 192.83 302.094 194.456 302.357 196.126C302.597 197.672 302.677 199.395 300.767 200.045C298.986 200.651 297.837 199.484 296.88 198.206C295.072 195.792 294.119 192.973 293.416 190.109C290.882 179.799 283.798 175.702 274.127 175.515C269.541 175.426 264.924 175.72 260.418 174.562C253.735 172.843 248.676 169.378 247.256 162.092C247.185 161.731 247.136 161.361 247.091 160.996C247.065 160.778 247.065 160.551 247.047 160.248L247.029 160.234Z" fill="#FFF1E7"></path>
<path d="M75.4886 150.578C75.5841 150.047 75.7558 149.111 75.9228 148.174C76.0135 147.672 75.9324 147.17 75.4839 146.912C74.8159 146.524 74.4772 147.084 74.1575 147.528C73.833 147.978 73.542 148.456 73.2653 148.934C72.4446 150.382 71.6765 151.859 70.8177 153.288C69.2479 155.908 67.6782 156.721 65.8986 155.908C63.9949 155.038 63.6275 153.241 64.8203 150.301C65.4167 148.833 66.1085 147.409 66.7431 145.956C67.1009 145.138 67.4683 144.115 66.7001 143.532C65.8509 142.887 65.1018 143.718 64.4672 144.321C63.5464 145.2 62.6637 146.118 61.7238 146.969C60.636 147.949 59.3477 148.331 57.9975 147.653C56.7045 147.002 56.0795 145.874 56.0079 144.378C55.9268 142.7 56.5661 141.304 57.3391 139.894C61.0701 133.106 66.8433 128.484 73.3941 124.717C88.0464 116.289 103.653 109.951 119.326 103.765C121.898 102.747 124.451 101.667 126.979 100.543C128.573 99.8406 129.57 100.223 129.952 101.939C130.949 106.428 131.903 110.921 132.915 115.405C133.373 117.427 131.922 118.101 130.582 118.742C127.294 120.319 123.768 121.275 120.319 122.418C113.038 124.836 105.719 127.145 98.5955 130.018C97.2739 130.549 95.957 131.099 94.6879 131.749C88.9816 134.665 85.2553 139.062 84.2151 145.583C83.7523 148.484 82.9603 151.329 80.6845 153.461C79.5966 154.479 78.3084 154.847 76.9677 154.235C75.6413 153.633 75.398 152.337 75.4839 150.573L75.4886 150.578Z" fill="#FFF1E7"></path>
<path d="M166.006 45.2281C165.996 40.8821 167.915 37.5018 171.335 34.8652C176.187 31.118 181.866 28.7663 187.24 25.9076C189.981 24.4492 192.569 22.7977 195.059 20.9676C195.684 20.5088 196.403 19.9004 197.284 20.3929C198.15 20.8807 198.032 21.7692 197.933 22.5611C196.895 31.1325 197.79 39.7714 196.988 48.3476C196.211 56.6678 194.508 64.6935 188.81 71.3526C185.872 74.7908 182.24 77.0893 177.757 78.0358C175.257 78.567 173.653 77.9199 173.289 75.5924C171.763 65.8186 168.324 56.5181 166.158 46.9037C166.035 46.3581 166.05 45.7834 166.001 45.2233L166.006 45.2281Z" fill="#FFF1E7"></path>
<path d="M43.1043 212.813C39.7396 210.273 36.9829 207.204 35.0084 203.481C34.5046 202.535 33.7529 201.355 34.7363 200.388C35.6582 199.482 36.82 200.074 37.8703 200.49C41.7093 202.03 44.5897 205.075 48.1681 207.011C67.7851 217.619 88.193 222.686 110.272 215.613C113.539 214.566 116.565 212.913 119.65 211.418C120.905 210.81 122.538 209.846 123.468 211.533C124.338 213.104 123.467 214.53 121.971 215.592C105.716 227.155 87.9302 230.294 68.7244 225.254C59.3869 222.802 50.7455 218.789 43.1066 212.802L43.1043 212.813Z" fill="#FFF1E7"></path>
<path d="M40.0009 349.684C39.8967 350.649 39.8872 351.633 39.6739 352.574C38.356 358.437 35.4406 360.996 29.9227 361.201C23.907 361.425 18.3654 357.652 16.7062 352.194C14.3217 344.352 18.1757 336.886 25.3718 335.409C30.4489 334.366 35.9952 337.509 38.4413 342.871C39.4179 345.015 40.0341 347.271 39.9962 349.684H40.0009ZM21.9681 348.305C21.9444 350.902 23.5989 353.13 25.5946 353.198C27.4718 353.261 29.3822 351.014 29.4012 348.724C29.4202 346.419 27.4671 344.386 25.2248 344.386C23.3002 344.386 21.9871 345.96 21.9681 348.305Z" fill="#FFF1E7"></path>
<path d="M245.525 436.21C238.478 436.201 232.996 431.161 233.001 424.703C233.006 417.904 238.025 413.224 245.336 413.21C252.774 413.191 257.982 417.291 258.001 423.168C258.025 430.37 252.429 436.219 245.529 436.21H245.525ZM244.168 421.235C241.815 421.301 239.768 423.285 239.901 425.372C240.061 427.876 242.41 430.099 244.891 430.089C247.183 430.08 249.617 427.67 249.622 425.405C249.622 423.276 246.853 421.161 244.168 421.235Z" fill="#FFF1E7"></path>
<path d="M254.001 80.4166C258.429 79.1442 262.521 80.7706 264.818 84.4972C266.298 86.9034 266.818 89.654 267.745 92.2564C268.037 93.0792 267.988 94.5191 269.197 94.2799C270.119 94.0933 270.182 92.7396 270.144 91.7876C269.983 88.0611 268.891 84.5928 266.784 81.4978C265.677 79.8713 266.041 79.4455 267.92 79.2446C270.352 78.9911 271.959 80.1583 273.265 81.8374C276.576 86.0997 278.222 91.0365 278.95 96.2986C279.038 96.9205 279.009 97.5855 278.887 98.2026C278.31 101.202 274.43 103.713 269.794 104.139C265.342 104.546 262.657 103.221 261.497 99.6664C260.686 97.1884 260.191 94.5908 259.744 92.0172C258.977 87.6305 257.142 83.7605 254.006 80.4166H254.001Z" fill="#FFF1E7"></path>
<path d="M43.0009 336.916C46.0977 335.579 49.4149 336.204 51.5946 338.263C52.2811 338.906 51.9304 339.486 51.8001 340.144C50.6476 345.864 52.1709 347.206 58.219 345.745C59.6371 345.403 60.9099 344.882 62.0774 343.846C63.6158 342.481 64.5829 344.585 66.0009 345.188C63.4755 345.969 60.965 346.795 58.4245 347.521C55.3378 348.402 52.211 349.173 49.1192 350.05C47.5458 350.497 47.15 350.009 47.0197 348.566C46.6389 344.467 45.8972 340.427 43.006 336.916H43.0009Z" fill="#FFF1E7"></path>
<path d="M252.996 89.1799C252.828 90.1816 252.191 90.4116 251.64 90.0474C246.863 86.9082 241.271 85.2835 236.952 81.296C236.67 81.0372 236.365 80.7496 236.211 80.4045C235.924 79.7767 235.774 79.0817 236.834 79.2303C242.991 80.0882 248.569 82.1059 252.282 87.8332C252.573 88.2837 252.792 88.7821 253.001 89.1703L252.996 89.1799Z" fill="#FFF1E7"></path>
<path d="M92.0056 305.068C94.0058 301.228 98.4145 299.497 103.148 300.481C106.652 301.209 107.515 302.371 106.736 305.276C106.578 305.859 106.429 306.507 105.696 306.062C101.631 303.574 97.4307 303.48 93.1008 305.152C92.8409 305.251 92.5022 305.117 92.0009 305.073L92.0056 305.068Z" fill="#FFF1E7"></path>
<path d="M202.006 353.21C205.045 354.1 207.093 355.617 209.376 356.661C216.404 359.877 223.028 359.547 229.295 354.926C229.699 354.628 230.112 353.72 230.788 354.443C231.31 354.999 230.756 355.604 230.366 356.024C227.871 358.68 224.545 359.7 221.013 360.107C214.934 360.802 206.807 357.921 202.001 353.21H202.006Z" fill="#FFF1E7"></path>
<path d="M107.001 298.401C100.557 295.126 95.2697 297.631 90.0009 301.21C91.0888 297.811 96.5972 294.272 100.52 294.212C103.871 294.162 105.908 295.346 107.001 298.401Z" fill="#FFF1E7"></path>
<path d="M216.415 334.238C217.211 334.166 217.826 334.19 217.98 334.85C218.119 335.448 217.547 335.607 217.118 335.771C212.463 337.525 209.367 341.121 206.666 345.204C206.35 345.681 206.024 346.548 205.279 346.071C204.655 345.671 205.247 344.996 205.451 344.587C207.714 340.065 210.135 335.689 215.535 334.527C215.908 334.445 216.266 334.286 216.415 334.233V334.238Z" fill="#FFF1E7"></path>
<path d="M107.001 310.678C106.775 311.538 106.679 312.671 105.551 312.013C102.263 310.089 98.7014 310.213 95.1253 310.262C94.6981 310.267 94.0549 310.505 94.0021 309.797C93.9781 309.495 94.3477 309.095 94.6261 308.847C97.415 306.334 104.298 306.799 106.535 309.659C106.766 309.955 106.862 310.366 107.001 310.683V310.678Z" fill="#FFF1E7"></path>
<path d="M209.346 350.1C208.762 349.538 209.028 348.725 209.346 347.807C210.47 344.536 217.9 341.108 221.117 339.481C221.888 339.092 222.436 339.148 222.908 339.481C223.337 339.783 222.162 340.863 221.714 341.201C219.39 342.952 213.54 346.808 211.736 348.954C211.355 349.408 209.84 350.571 209.346 350.1Z" fill="#FFF1E7"></path>
<path d="M283.707 54.2121C284.208 54.2073 284.751 54.1741 284.942 54.7051C285.209 55.4448 284.513 55.6107 284.046 55.8146C280.281 57.4408 276.11 57.6589 272.293 59.1239C271.902 59.2756 271.311 59.2756 271.087 58.7162C270.834 58.0856 271.168 57.583 271.697 57.3649C273.065 56.796 274.442 56.1891 275.877 55.8383C278.465 55.203 281.1 54.7431 283.712 54.2121H283.707Z" fill="#FFF1E7"></path>
<path d="M274.996 421.056C271.867 422.36 268.864 423.282 265.815 424.108C264.942 424.347 264.453 424.195 264.677 423.356C265.031 422.026 264.502 420.782 264.353 419.5C264.308 419.096 263.395 418.305 264.702 418.222C265.595 418.166 266.513 418.274 266.808 419.304C267.501 421.739 267.496 421.673 270.345 420.665C271.783 420.156 273.319 420.104 275.001 421.056H274.996Z" fill="#FFF1E7"></path>
<path d="M106.001 319.369C102.479 322.319 94.332 321.573 92.0009 318.21C96.6035 319.399 101.055 319.359 106.001 319.369Z" fill="#FFF1E7"></path>
<path d="M217.88 352.151C216.933 352.017 216.948 351.296 217.044 350.658C217.38 349.207 221.146 344.693 223.018 343.47C223.456 343.185 224.521 343.067 224.891 343.47C225.139 343.741 224.891 344.693 224.891 344.693C224.891 344.693 218.737 352.136 217.885 352.151C217.885 352.151 218.827 352.284 217.88 352.151Z" fill="#FFF1E7"></path>
</svg>