<svg width="1000" height="1000" viewBox="0 0 1000 1000" fill="none" xmlns="http://www.w3.org/2000/svg">
<rect width="1000" height="1000" fill="#FFF1E7"></rect>
<rect x="106" y="86" width="792" height="837" rx="130" fill="#1D1D1D"></rect>
<mask id="mask0_432_678" style="mask-type:alpha" maskUnits="userSpaceOnUse" x="107" y="86" width="792" height="837">
<rect x="107" y="86" width="792" height="837" rx="130" fill="#D9D9D9"></rect>
</mask>
<g mask="url(#mask0_432_678)">
<ellipse cx="503.5" cy="943" rx="309.5" ry="249" fill="#F34A65"></ellipse>
</g>
<path d="M388 608C362.5 634.5 351 604.5 352 586C352.8 571.2 348 554.5 345.5 548C345 571 339.2 616.1 320 612.5C300.8 608.9 304.333 575.667 308.5 559.5C297.5 576.5 270.9 607.1 252.5 593.5C229.5 576.5 258.5 513.5 272 509.5C268.333 498.5 262.1 472.9 266.5 458.5C255.333 471.834 231 495.3 223 482.5C213 466.5 248 419.5 266.5 419.5C268.305 407.28 272.934 383.627 278.824 371.912C268.255 386.503 249.151 405.613 235 395C215 380 262 314 320 314C336.667 259.334 393.5 161.4 487.5 207C497.5 185.334 527 143.3 565 148.5C603 153.7 558.5 189.667 531.5 207C577.833 187.667 670.3 177.6 669.5 292C688.667 293.833 727.8 304.4 731 332C728.5 336.5 716.4 342.8 688 332C693.667 341.333 704.7 362.6 703.5 373C718.167 375.833 747.8 388.4 749 416C750.2 443.6 721.833 445.833 707.5 443.5C712.833 453.833 723.1 476.2 721.5 483C732 486.5 750.2 500.7 739 529.5C727.8 558.3 694.667 534.167 679.5 518.5C687 538 697.5 578.8 679.5 586C661.5 593.2 645 576.333 639 567L393.751 533.5C400.183 557.929 403.889 591.488 388 608Z" fill="#1D1D1D" stroke="white" stroke-width="5" stroke-linejoin="round"></path>
<path d="M645.406 508.5C659.604 509.333 688 502.6 688 469C688 435.4 662.134 432 649.201 434.5C648.822 450.332 648.286 464.964 647.549 478.5C646.968 489.163 646.261 499.146 645.406 508.5Z" fill="#FFF1E7"></path>
<path d="M552.5 650.723C558.803 649.358 565.313 647.323 572 644.5C618.657 624.801 637.841 591.246 645.406 508.5C646.261 499.146 646.968 489.163 647.549 478.5C648.286 464.964 648.822 450.332 649.201 434.5C649.704 413.521 649.934 390.436 650 365C651 323.167 633.8 239.5 557 239.5H429L372 396.5L374.188 421L378.92 474L382.67 516L387 564.5C395.4 576.1 408.833 588 414.5 592.5V738C414.5 752 443.5 797 489 797C525.4 797 546.5 772 552.5 759.5V650.723Z" fill="#FFF1E7"></path>
<path d="M326 469C326 510.6 363.78 517.667 382.67 516L378.92 474L374.188 421C358.125 419.667 326 427.4 326 469Z" fill="#FFF1E7"></path>
<path d="M461 621.5C473.704 636.541 507.904 660.385 552.5 650.723M552.5 650.723C558.803 649.358 565.313 647.323 572 644.5C618.657 624.801 637.841 591.246 645.406 508.5M552.5 650.723V759.5C546.5 772 525.4 797 489 797C443.5 797 414.5 752 414.5 738M414.5 738C414.5 726.8 414.5 636.333 414.5 592.5M414.5 738V592.5M414.5 592.5C408.833 588 395.4 576.1 387 564.5L382.67 516M557 239.5C633.8 239.5 651 323.167 650 365C649.934 390.436 649.704 413.521 649.201 434.5M557 239.5C480.2 239.5 439.667 239.5 429 239.5M557 239.5H429M429 239.5L372 396.5L374.188 421M645.406 508.5C659.604 509.333 688 502.6 688 469C688 435.4 662.134 432 649.201 434.5M645.406 508.5C646.261 499.146 646.968 489.163 647.549 478.5M649.201 434.5C648.822 450.332 648.287 464.964 647.549 478.5M647.549 478.5L675 459.5M647.549 478.5L671 488.5M382.67 516C363.78 517.667 326 510.6 326 469C326 427.4 358.125 419.667 374.188 421M382.67 516L378.92 474M374.188 421L378.92 474M378.92 474L362 497.5" stroke="#1D1D1D" stroke-width="5" stroke-linecap="round" stroke-linejoin="round"></path>
<path d="M510 243C495 275 449.8 346.4 389 376C387 388.5 384.7 421 391.5 451C398.3 481 375.333 486.833 363 486C350.566 485.229 331.712 480.735 319.801 469.5L328.5 512L345 514.75L358.5 517L386 513.5C393.333 522.167 406 547.5 398 579.5C390 611.5 367 567.167 356.5 541L345 514.75L328.5 512L319.801 469.5C311.114 461.308 306.12 449.531 310 433C319.2 393.8 340.167 387 349.5 388.5L404 238.5L515 224.5L624 238.5L661 296L685 370.5C665.667 369.167 619.9 356.9 591.5 318.5C589.5 333 577.3 353.3 544.5 318.5C511.7 283.7 507.833 253.667 510 243Z" fill="#1D1D1D"></path>
<path d="M525 509C528.5 514.5 540 525.5 558 525.5C580.5 525.5 582.5 505 574 478C565.5 451 545.5 413.5 547.5 406.5" stroke="#1D1D1D" stroke-width="5" stroke-linecap="round"></path>
<path d="M457 513C481.5 544.333 544.8 590.8 602 526" stroke="#1D1D1D" stroke-width="5" stroke-linecap="round"></path>
<path d="M448.767 414.269C449.559 406.388 456.59 400.642 464.47 401.435C472.351 402.227 478.096 409.258 477.304 417.138L475.435 435.731C474.642 443.612 467.612 449.358 459.731 448.565C451.851 447.773 446.105 440.742 446.897 432.862L448.767 414.269Z" fill="#1D1D1D"></path>
<path d="M574.304 414.269C575.096 406.388 582.127 400.642 590.007 401.435C597.888 402.227 603.634 409.258 602.841 417.138L600.972 435.731C600.179 443.612 593.149 449.358 585.269 448.565C577.388 447.773 571.642 440.742 572.435 432.862L574.304 414.269Z" fill="#1D1D1D"></path>
<path d="M420.193 374.068C419.979 372.65 420.799 371.279 422.149 370.796L475.802 351.608C476.847 351.234 478.013 351.468 478.833 352.216L496.271 368.114C497.978 369.67 497.36 372.49 495.16 373.19L426.852 394.933C425.093 395.493 423.251 394.347 422.976 392.522L420.193 374.068Z" fill="#1D1D1D"></path>
<path d="M580.989 354.532C581.64 354.189 582.395 354.098 583.109 354.275L624.091 364.436C625.249 364.723 626.127 365.67 626.327 366.847L629.7 386.776C630.07 388.959 628.027 390.777 625.901 390.156L560.619 371.08C558.03 370.324 557.676 366.802 560.063 365.546L580.989 354.532Z" fill="#1D1D1D"></path>
<path d="M227 197C209.8 191.4 190.167 239.333 182.5 264C181.333 262.5 176.4 255.6 158 264C135 274.5 159 321.5 215.5 305.5C272 289.5 284 272 284 252.5C284 236.9 265 243 255.5 248C264.5 223.5 248.5 204 227 197Z" fill="white"></path>
<path d="M300.5 198C304.614 194.786 310.642 190.332 317 186.074M343.5 173C338.094 173 327.128 179.29 317 186.074M317 186.074C314.5 180.216 308.6 167.8 305 165M317 186.074C321.167 193.882 329.9 209.6 331.5 210" stroke="white" stroke-width="5" stroke-linecap="round"></path>
<path d="M786 351.6C788.2 349.886 791.425 347.511 794.826 345.239M809 338.267C806.108 338.267 800.243 341.621 794.826 345.239M794.826 345.239C793.488 342.115 790.333 335.493 788.407 334M794.826 345.239C797.054 349.404 801.726 357.787 802.581 358" stroke="white" stroke-width="5" stroke-linecap="round"></path>
<path d="M670.001 156.765C675.221 156.763 689.803 153.945 697.436 154.501M721 152C715 154.501 709.593 155.386 697.436 154.501M697.436 154.501C699.07 148.345 688.614 136.422 687.5 132M697.436 154.501C700.5 163 703.485 180.7 704.5 182" stroke="white" stroke-width="5" stroke-linecap="round"></path>
<circle cx="790.5" cy="535.5" r="4.5" fill="white"></circle>
<circle cx="683.5" cy="633.5" r="4.5" fill="white"></circle>
<circle cx="647.5" cy="679.5" r="4.5" fill="white"></circle>
<circle cx="849.5" cy="624.5" r="4.5" fill="white"></circle>
<circle cx="321.5" cy="683.5" r="4.5" fill="white"></circle>
<circle cx="148.5" cy="548.5" r="4.5" fill="white"></circle>
<circle cx="252.5" cy="637.5" r="4.5" fill="white"></circle>
<circle cx="139.5" cy="684.5" r="4.5" fill="white"></circle>
<path fill-rule="evenodd" clip-rule="evenodd" d="M812.5 264.5C809.5 261.5 808.795 269 799 269C781.327 269 767 254.673 767 237C767 219.327 778.327 206 796 206C803.717 206 808.125 204 810 201C811.875 198 796.179 187.5 779.5 187.5C753.266 187.5 732 211.938 732 239C732 266.062 753.266 288 779.5 288C808.5 288 815.5 267.5 812.5 264.5Z" fill="white"></path>
</svg>