<svg width="500" height="500" viewBox="0 0 500 500" fill="none" xmlns="http://www.w3.org/2000/svg">
<rect x="10" y="10" width="480" height="480" rx="240" fill="#F34A65"></rect>
<rect x="10" y="10" width="480" height="480" rx="240" stroke="#1D1D1D" stroke-width="20"></rect>
<path d="M360.471 284.728H401.194" stroke="#1D1D1D" stroke-width="6" stroke-linecap="round" stroke-linejoin="round"></path>
<path d="M364.477 87.7882C366.079 100.072 356.466 121.835 349.122 125.841C346.674 138.303 349.841 155.031 367.147 134.52C385.172 113.157 386.956 90.3914 381.167 79.7772C377.161 72.4336 362.474 72.4335 364.477 87.7882Z" fill="#FFF1E7" stroke="#1D1D1D" stroke-width="6" stroke-linejoin="round"></path>
<path d="M397.856 213.963C416.344 251.054 359.611 308.195 280.177 347.788C200.744 387.38 121.363 389.409 102.876 352.318C84.3883 315.228 140.176 258.897 219.609 219.304C299.043 179.711 379.369 176.873 397.856 213.963Z" fill="#1D1D1D"></path>
<path d="M355.798 133.852C326.424 99.6713 274.129 126.286 251.654 143.866C248.449 144.4 244.088 137.858 242.307 134.52C234.83 120.1 212.933 124.951 202.919 129.179C197.579 122.77 182.002 122.058 174.881 122.503C173.1 120.5 167.938 115.426 161.529 111.154C153.518 105.813 118.135 124.506 127.482 129.179C136.828 133.852 147.509 121.168 153.518 129.179C158.324 135.588 138.163 154.992 127.482 163.894C102.781 161.223 83.5909 195.938 110.124 216.633C127.906 230.503 151.684 230.719 169.54 226.523C158.636 248.331 132.288 299.148 122.141 306.091C109.456 314.769 108.789 320.778 122.141 324.783C132.822 327.988 141.278 316.772 144.171 310.764C144.705 310.23 187.12 268.114 208.26 247.124C223.309 246.162 241.603 250.43 248.316 258.692C255.258 267.237 234.741 290.736 223.615 301.418C216.271 306.091 203.854 316.505 212.933 320.778C224.282 326.118 238.302 318.775 239.637 313.434C240.972 308.093 263.003 292.071 281.695 270.708C296.649 253.618 286.146 236.884 279.025 230.653C284.366 220.639 296.382 205.284 318.413 211.96C340.443 218.636 334.435 243.337 335.103 257.356C335.77 271.376 353.795 270.708 361.806 267.37C379.061 260.181 359.136 260.694 365.144 246.007C374.49 225.312 392.515 176.578 355.798 133.852Z" fill="#FFF1E7"></path>
<path d="M189.568 250.013C193.046 248.803 203.852 247.405 208.26 247.124M208.26 247.124C223.309 246.162 241.603 250.43 248.316 258.692C255.258 267.237 234.741 290.736 223.615 301.418C216.271 306.091 203.854 316.505 212.933 320.778C224.282 326.118 238.302 318.775 239.637 313.434C240.972 308.093 263.003 292.071 281.695 270.708C296.649 253.618 286.146 236.884 279.025 230.653C284.366 220.639 296.382 205.284 318.413 211.96C340.443 218.636 334.435 243.337 335.103 257.356C335.77 271.376 353.795 270.708 361.806 267.37C379.061 260.181 359.136 260.694 365.144 246.007C374.49 225.312 392.515 176.578 355.798 133.852C326.424 99.6713 274.129 126.286 251.654 143.866C248.449 144.4 244.088 137.858 242.307 134.52C234.83 120.1 212.933 124.951 202.919 129.179C197.579 122.77 182.002 122.058 174.881 122.503C173.1 120.5 167.938 115.426 161.529 111.154C153.518 105.813 118.135 124.506 127.482 129.179C136.828 133.852 147.509 121.168 153.518 129.179C158.324 135.588 138.163 154.992 127.482 163.894C102.781 161.223 83.5909 195.938 110.124 216.633C138.163 238.503 181.112 226.425 192.238 216.633M208.26 247.124C187.12 268.114 144.705 310.23 144.171 310.764C141.278 316.772 132.822 327.988 122.141 324.783C108.789 320.778 109.456 314.769 122.141 306.091C132.288 299.148 158.636 248.331 169.54 226.523" stroke="#1D1D1D" stroke-width="6" stroke-linecap="round" stroke-linejoin="round"></path>
<path d="M195.576 193.935C161.93 194.469 167.76 167.009 174.881 153.212C176.604 149.874 178.219 146.536 174.881 145.869C163.532 143.599 170.208 166.259 149.512 174.575C132.956 181.228 128.817 171.116 128.817 165.229C128.817 165.229 150.701 149.058 152.183 133.852C152.461 130.998 154.21 128.536 152.183 126.509C150.155 124.481 147.705 126.397 144.839 126.509C138.538 126.753 130.064 134.693 128.817 128.511C128.079 124.852 130.614 122.842 132.822 119.833C136.844 114.351 140.89 112.037 147.509 110.486C152.079 109.416 155.156 108.776 159.526 110.486C164.333 112.367 164.468 117.141 168.872 119.833C174.808 123.46 183.817 120.066 190.5 122C197.946 124.155 197.208 131.273 204.922 130.514C210.271 129.988 212.305 126.058 217.607 125.173C225.174 123.91 230.459 124.447 236.967 128.511C243.291 132.461 246.09 145.869 248.316 143.866C250.541 141.863 254.858 140.929 254.324 153.212C253.79 165.496 236.744 156.55 228.288 150.542C229.623 155.215 237.634 193.268 195.576 193.935Z" fill="#1D1D1D"></path>
<ellipse cx="118.135" cy="183.921" rx="8.67869" ry="6.00833" fill="#1D1D1D"></ellipse>
<path d="M137.496 204.617C142.391 209.958 155.654 216.767 169.54 201.279" stroke="#1D1D1D" stroke-width="4" stroke-linecap="round" stroke-linejoin="round"></path>
<circle cx="148.177" cy="161.891" r="6.67592" fill="#FFF1E7"></circle>
<circle cx="182.892" cy="172.572" r="6.67592" fill="#FFF1E7"></circle>
<ellipse cx="146.842" cy="161.223" rx="2.67037" ry="2.00278" fill="#1D1D1D"></ellipse>
<ellipse cx="184.227" cy="173.24" rx="2.67037" ry="2.00278" fill="#1D1D1D"></ellipse>
<path d="M98.7751 373.18C106.999 373.18 114.467 381.219 114.467 392.21C114.467 403.201 106.999 411.241 98.7751 411.241C90.5516 411.241 83.0827 403.201 83.0827 392.21C83.0828 381.219 90.5516 373.18 98.7751 373.18Z" fill="#FFF1E7" stroke="#1D1D1D" stroke-width="6"></path>
<path d="M102.113 394.881L210.263 402.892" stroke="#1D1D1D" stroke-width="6" stroke-linecap="round" stroke-linejoin="round"></path>
<path d="M225.618 383.861C233.841 383.861 241.31 391.9 241.31 402.891C241.31 413.883 233.841 421.923 225.618 421.923C217.394 421.922 209.925 413.883 209.925 402.891C209.925 391.9 217.394 383.861 225.618 383.861Z" fill="#FFF1E7" stroke="#1D1D1D" stroke-width="6"></path>
<path d="M408.538 266.365C416.761 266.365 424.23 274.404 424.23 285.395C424.23 296.386 416.761 304.426 408.538 304.426C400.314 304.426 392.845 296.386 392.845 285.395C392.845 274.404 400.314 266.365 408.538 266.365Z" fill="#FFF1E7" stroke="#1D1D1D" stroke-width="6"></path>
</svg>