<svg width="500" height="500" viewBox="0 0 500 500" fill="none" xmlns="http://www.w3.org/2000/svg">
<path fill-rule="evenodd" clip-rule="evenodd" d="M210.712 109.296C212.5 96 194.912 64.3965 207.712 58.7965C219.634 53.5804 238.586 43.5511 247.5 38.5C262.5 30 289.5 27.4999 308 43.4999C319.045 53.0525 319 61.9999 336 69.4999C353 76.9999 336.333 102.13 324 109.296C327.167 117.963 332.5 136 313.5 136C297.353 136 299 139.296 302 148.501C303.066 151.772 307.843 160.819 309 164.501C311.226 171.584 309.5 180 321.5 180C333.5 180 365.06 195.501 368 206.001C371.5 218.501 365.37 218.548 362.5 219.001C366.5 225.001 357 233.501 350 230.501C348 233.001 340.009 235.492 335.213 229.797C332.794 226.924 331.243 223.686 329.829 220.732C326.565 213.916 320.397 206.864 309 209.001C301 210.501 286 204.001 284.5 195.501C280.833 204.834 272.628 234.922 278.5 240.501C288.5 250.001 311.5 294.501 272 328.501C262.858 336.369 268.546 345.963 270.213 348.796C270.213 348.796 311.954 363.812 339.213 371.796C353.004 375.836 367.625 379.096 380.526 381.973C394.197 385.021 405.937 387.638 412.711 390.296C425.878 395.463 432.479 419.296 407.711 440.296C384.713 459.796 346.212 459.796 324.712 452.796C303.212 456.296 298 476.813 280.5 468.501C263 460.188 267.712 445.796 275.213 439.296C219.712 424.296 116.713 381.296 116.713 381.296C116.713 381.296 105.213 379.796 82.2125 394.796C63.6099 406.929 44.1667 378.727 55.2125 364.796C58.4853 360.669 64.332 358.862 68.0299 357.719C69.1784 357.364 70.1196 357.073 70.7121 356.796C54.7121 348.63 34.0124 322.396 61.2124 310.796C88.3766 299.212 103.06 301.428 115.033 303.236C118.046 303.691 124.675 304.823 127.5 305C131.001 305.219 130.715 300.329 135.096 295.09C140.726 288.359 153.096 279.593 163.5 276.5C182 271 172 247.5 172 247.5C156 257.5 123.499 268 91.5 251C53.2576 230.683 73.5 218.56 79.5 219C86.4153 219.507 85 222.74 94.5 228.5C109.998 237.897 134.669 247.108 161.5 228.5C179.816 215.797 187.5 177.297 189 170.797C189.489 168.677 184.5 168.5 183 164C181.47 159.41 179.213 154.296 179.213 154.296C177.713 151.796 135.32 163.049 134.213 170.797C132.712 181.297 126.713 193.797 116.713 187.797C110.713 191.797 100.713 187.797 101.713 181.297C94.7125 179.297 92.2125 169.797 98.7125 160.297C106.383 149.086 138.713 131.296 210.712 109.296ZM232 335L173.712 314.796C173.712 314.796 196.212 313.296 203.212 308.796C211.748 303.309 219.135 283.962 228.212 288.5C236.212 292.5 250.958 295.326 247.5 303.5C242 316.5 232 335 232 335Z" fill="#1D1D1D" stroke="#1D1D1D" stroke-width="10"></path>
<path d="M267.509 356.214C270.673 356.701 273.3 358.006 276.023 358.962C301.99 368.057 328.393 375.718 354.949 382.867C369.378 386.753 383.763 390.796 398.154 394.815C401.063 395.628 403.891 396.727 406.523 398.242C413.915 402.5 415.885 408.795 412.17 416.461C409.241 422.506 405.119 427.63 399.692 431.62C388.797 439.63 376.501 444.075 363.079 445.437C346.508 447.119 330.324 444.93 314.438 440.228C296.606 434.951 278.544 430.468 260.856 424.695C242.568 418.726 224.568 411.963 206.511 405.339C163.767 389.664 121.89 372.043 81.7628 350.469C74.7259 346.689 67.9525 342.507 62.2338 336.853C60.2444 334.884 58.4325 332.757 58.0777 329.799C57.5888 325.737 59.4487 322.692 62.4591 320.288C68.36 315.581 75.3251 313.139 82.5058 311.198C95.5683 307.671 108.765 307.079 122.096 309.335C122.805 309.454 123.515 309.574 124.205 309.765C126.544 310.41 127.283 311.676 126.64 314.004C124.958 320.112 123.155 326.176 122.149 332.466C119.901 346.469 130.322 357.088 144.616 355.416C152.459 354.498 156.859 350.985 157.909 341.121C158.417 336.332 158.091 331.591 157.497 326.836C157.185 324.351 157.631 321.904 158.35 319.543C158.848 317.904 159.865 317.082 161.796 317.846C182.62 326.067 203.951 332.934 224.727 341.298C225.609 341.652 226.457 342.091 227.339 342.45C228.547 342.942 228.945 343.735 228.729 345.059C227.44 352.931 228.724 360.563 231.006 368.09C232.435 372.798 233.705 377.577 236.878 381.52C242.29 388.244 249.577 391.384 257.946 392.373C263.224 392.995 268.43 392.904 273.396 390.572C279.33 387.785 281.401 383.584 279.814 377.199C278.146 370.475 274.398 364.898 270.026 359.669C269.182 358.656 268.099 357.796 267.519 356.209L267.509 356.214ZM322.707 386.399C323.882 387.24 378.366 400.962 380.067 400.847C375.998 397.133 328.393 385.142 322.707 386.399ZM310.834 415.72C309.247 413.736 307.2 413.225 305.335 412.518C292.632 407.724 279.728 403.518 266.809 399.351C265.525 398.935 263.392 397.745 262.965 399.036C262.433 400.641 264.854 400.957 266.134 401.411C275.495 404.708 284.891 407.906 294.291 411.093C299.602 412.895 304.866 414.893 310.834 415.72ZM383.27 423.907C383.217 421.842 382.09 421.641 381.184 421.311C367.59 416.413 353.799 412.126 339.739 408.766C337.874 408.322 335.871 407.71 333.905 408.365C333.862 408.584 333.814 408.804 333.771 409.019C350.27 413.98 366.77 418.941 383.27 423.902V423.907ZM317.195 400.455C316.159 399.518 314.975 399.356 313.863 399.102C303.193 396.66 292.522 394.247 281.847 391.828C280.591 391.542 278.755 390.638 278.319 392.091C277.993 393.171 280.097 393.52 281.262 393.845C291.587 396.732 302.057 398.978 312.679 400.441C314.074 400.632 315.594 401.334 317.19 400.455H317.195ZM256.575 404.933C254.849 403.069 253.081 402.529 251.369 402.032C243 399.59 234.621 397.196 226.213 394.887C224.233 394.342 222.148 394.189 220.106 393.898C219.665 393.836 219.041 393.764 218.893 394.347C218.744 394.916 219.257 395.14 219.717 395.298C220.614 395.609 221.501 395.963 222.411 396.221C227.449 397.626 232.478 399.055 237.535 400.379C243.656 401.98 249.735 403.781 256.57 404.933H256.575ZM188.971 367.961C187.859 366.551 186.44 365.992 185.098 365.404C178.708 362.594 172.064 360.477 165.382 358.474C163.637 357.949 161.844 357.59 160.066 357.179C159.246 356.988 158.235 357.045 157.981 357.839C157.703 358.713 158.757 358.828 159.385 359.096C159.606 359.186 159.807 359.32 160.032 359.392C167.736 361.82 175.429 364.267 183.147 366.656C184.969 367.22 186.737 368.148 188.966 367.966L188.971 367.961ZM222.929 371.139C214.286 366.102 205.351 361.772 195.409 359.918C204.1 364.826 213.28 368.549 222.929 371.139ZM204.565 350.971C201.425 346.966 184.427 340.256 179.624 341.217C187.993 344.858 195.888 348.338 204.565 350.971ZM184.091 335.558C183.535 334.277 182.586 333.957 181.786 333.493C178.54 331.615 175.036 330.33 171.441 329.34C169.303 328.752 167.117 328.318 164.927 327.978C164.184 327.864 162.889 327.405 162.693 328.571C162.535 329.508 163.81 329.522 164.505 329.747C167.75 330.779 171.034 331.701 174.284 332.724C177.448 333.718 180.539 334.97 184.096 335.568L184.091 335.558ZM354.201 431.592C350.409 427.644 337.371 422.75 333.924 423.892C340.559 427.3 347.346 429.57 354.201 431.592ZM102.03 324.155C95.4581 324.102 89.1737 325.12 83.6946 329.039C90.1324 328.633 96.1004 326.473 102.03 324.155ZM109.954 346.904C106.066 345.346 102.068 344.194 97.8405 344.084C97.2749 344.07 96.3545 343.74 96.1915 344.524C95.9902 345.48 96.992 345.532 97.6392 345.714C101.647 346.837 105.745 347.172 109.954 346.904ZM326.058 425.068C323.757 422.262 320.531 421.182 317.128 420.446C316.505 420.313 315.742 420.074 315.546 420.9C315.397 421.517 316.107 421.775 316.6 422.009C319.596 423.41 322.626 424.719 326.058 425.073V425.068ZM195.423 381.157C198.295 383.79 201.713 385.023 205.586 385.09C202.777 382.294 199.34 381.113 195.423 381.157ZM392.521 412.088C388.883 409.469 384.784 408.895 380.441 409.402C384.219 411.342 388.332 411.853 392.521 412.088ZM396.538 408.011C399.414 410.276 402.228 410.754 404.946 411.461C405.306 411.557 405.785 411.562 405.981 411.137C406.245 410.573 405.809 410.286 405.416 410.013C402.938 408.302 400.2 407.743 396.538 408.011ZM377.268 429.847C376.928 429.881 376.252 429.9 376.06 430.449C375.892 430.922 376.439 431.3 376.865 431.482C378.888 432.342 380.916 433.212 383.107 433.551C383.61 433.627 384.276 433.78 384.525 433.092C384.765 432.423 384.257 432.108 383.754 431.835C381.798 430.76 379.665 430.253 377.273 429.852L377.268 429.847ZM173.752 376.506C174.317 376.616 174.907 376.635 175.161 376.005C175.329 375.594 175.012 375.278 174.662 375.063C172.764 373.897 170.703 373.175 168.493 372.884C168.11 372.831 167.649 372.917 167.51 373.357C167.362 373.825 167.784 374.026 168.1 374.246C169.811 375.421 171.738 376.067 173.752 376.502V376.506ZM186.546 382.566C186.958 382.552 187.624 382.629 187.797 381.979C187.917 381.52 187.557 381.056 187.121 380.841C186.22 380.387 185.314 379.88 184.35 379.618C183.559 379.403 182.38 379.092 181.997 380.01C181.508 381.171 182.893 381.209 183.531 381.62C184.393 382.17 185.39 382.447 186.546 382.571V382.566ZM103.252 314.553C99.571 313.77 96.9105 314.749 94.3124 316.04C97.2077 316.427 99.9545 315.939 103.252 314.553ZM70.2918 328.886C71.8976 328.413 73.5898 328.251 74.7594 326.936C75.0326 326.631 74.6635 326.286 74.4095 326.229C72.6694 325.832 71.2313 326.678 69.7933 327.457C69.3666 327.691 68.9592 328.098 69.2564 328.585C69.3954 328.815 69.9466 328.795 70.2918 328.886Z" fill="#F34A65"></path>
<path d="M180.062 124.835C179.683 122.991 181.111 122.578 182.549 122.175C191.963 119.529 201.382 116.888 210.791 114.228C217.582 112.308 224.719 111.54 231.099 108.231C232.58 107.463 232.892 108.788 233.39 109.566C236.769 114.867 240.805 119.601 245.771 123.452C257.902 132.858 271.208 135.926 285.918 130.476C290.735 128.69 290.716 128.536 292.192 133.381C295.49 144.199 299.689 154.694 303.586 165.296C304.204 166.986 304.266 168.282 302.819 169.531C298.821 172.964 294.785 176.334 290.165 178.922C289.547 179.268 288.808 179.834 288.176 179.378C287.524 178.908 287.907 178.019 288.056 177.352C289.527 170.731 290.668 164.052 291.646 157.34C291.842 155.991 292.025 154.613 291.612 153.297C291.296 152.294 290.702 151.343 289.518 151.223C288.257 151.093 287.423 151.862 286.867 152.913C285.918 154.704 285.683 156.711 285.3 158.651C281.925 175.614 276.897 192.183 273.394 209.113C272.377 214.03 271.462 218.97 270.671 223.925C270.321 226.124 269.18 227.334 267.177 227.949C262.576 229.36 257.806 229.831 253.056 230.273C229.536 232.467 206.621 229.716 184.342 221.755C180.249 220.291 180.033 220.012 181.437 215.974C187.069 199.774 192.831 183.613 197.312 167.043C197.839 165.089 198.975 163.932 200.706 163.034C206.141 160.202 211.39 157.037 216.451 153.566C217.573 152.798 218.445 151.881 218.378 150.484C218.311 149.038 216.6 148.164 214.879 148.582C212.674 149.12 210.805 150.373 208.897 151.511C203.764 154.57 198.463 157.297 193.128 159.981C191.728 160.686 190.688 160.893 189.931 159.092C185.478 148.477 182.041 137.568 180.153 126.193C180.086 125.8 180.1 125.396 180.062 124.83V124.835Z" fill="#F34A65"></path>
<path d="M238.5 359.5C234.866 356.346 235.164 355.794 235.749 347.489C236.338 339.083 240.261 331.939 244.088 324.737C246.708 319.809 249.62 315.025 251.665 309.803C252.92 306.59 253.921 303.309 253.552 299.778C252.996 294.465 249.936 290.823 245.673 288.082C241.506 285.403 236.927 283.549 232.353 281.708C229.014 280.364 228.837 279.82 231.198 277.069C233.857 273.972 236.659 271.004 239.389 267.974C239.925 267.382 240.438 266.77 240.936 266.144C241.606 265.301 242.181 264.39 241.415 263.325C240.605 262.203 239.47 262.319 238.393 262.791C235.054 264.25 232.19 266.418 229.843 269.198C223.865 276.294 217.993 283.486 212.001 290.568C208.586 294.6 205.004 298.478 200.525 301.392C196.076 304.287 191.243 305.969 185.931 306.002C181.467 306.031 177.003 306.012 172.539 305.641C164.047 304.933 157.178 307.631 152.954 315.55C152.417 316.562 151.838 317.641 150.406 316.909C144.653 313.965 139.313 315.242 134.145 318.465C133.881 318.629 133.575 318.715 133 318.961C133.35 315.849 134.475 313.156 135.175 310.362C138.714 296.233 148.634 288.241 161.24 282.773C164.368 281.415 167.462 279.931 170.441 278.264C178.373 273.832 181.481 267.006 180.27 257.964C179.374 251.301 178.258 244.653 178.478 237.871C178.732 230.062 179.058 229.802 185.998 232.692C202.719 239.658 220.058 243.146 238.201 241.773C246.07 241.175 253.887 240.053 261.58 238.275C264.204 237.668 266.082 237.981 267.806 240.294C271.01 244.586 274.574 248.604 277.836 252.853C287.171 265.016 289.566 278.727 287.085 293.699C285.48 303.377 280.935 311.229 274.133 317.993C272.035 320.079 270.033 322.266 267.979 324.395C260.43 332.209 256.823 341.583 257.068 352.451C257.106 354.161 256.819 355.457 254.898 355.833C248.331 357.105 243.456 363.801 238.5 359.5Z" fill="#FFF1E7"></path>
<path d="M312.612 55.4358C307.563 54.8472 304.734 57.2788 304.629 61.7271C304.591 63.4736 305.278 64.2938 306.957 64.7377C314.382 66.7061 321.698 69.0412 328.951 71.5789C330.97 72.2833 332.893 73.229 334.658 74.4785C337.311 76.3553 338.562 78.729 337.76 82.1256C336.863 85.9466 335.236 89.3625 332.816 92.3923C332.277 93.0678 331.576 93.6515 330.846 94.1195C329.361 95.0651 327.772 95.6586 326.369 94.0037C325.2 92.6191 325.63 90.9594 327.434 89.4927C328.732 88.4361 330.12 87.4809 331.337 86.3423C333.422 84.3931 334.138 81.4646 333.189 79.3659C332.091 76.9343 329.366 75.2746 326.57 75.5062C321.884 75.897 317.317 76.8667 312.975 78.729C310.656 79.7229 308.642 81.0255 307.936 83.7514C307.234 86.458 307.969 88.2528 310.512 89.4252C312.254 90.2309 314.106 90.6217 316.019 90.7954C318.558 91.0221 319.054 91.9967 317.856 94.2691C316.205 97.4051 313.223 98.6643 310.116 99.3301C301.618 101.144 293.052 101.979 284.358 100.585C281.719 100.16 278.97 100.092 276.327 100.956C273.005 102.046 271.956 104.246 273.349 107.489C274.389 109.906 276.193 111.71 278.297 113.22C281.156 115.271 284.291 116.795 287.517 118.146C288.371 118.503 289.64 118.6 289.74 119.666C289.86 120.944 288.6 121.523 287.65 122.025C279.037 126.584 270.094 127.231 260.961 123.916C251.112 120.346 244.083 113.341 238.581 104.579C237.889 103.474 237.731 102.548 238.571 101.313C244.379 92.7831 246.373 83.0615 247.027 72.9395C247.5 65.635 247.452 58.3161 247.428 51.002C247.414 46.6357 248.922 43.9146 253.235 42.3756C262.502 39.0659 271.86 36.0505 281.771 37.2808C293.176 38.6944 302.782 44.098 310.617 52.6231C311.305 53.3709 311.81 54.2924 312.607 55.431L312.612 55.4358ZM262.269 70.368C262.283 72.8237 263.337 73.7597 265.886 73.2965C269.536 72.6307 273.158 71.7816 276.761 70.889C279.338 70.2522 279.968 68.8 279.099 66.1899C278.522 64.4627 277.319 63.4061 275.735 62.6968C271.684 60.8924 265.423 62.9911 263.252 66.8943C262.622 68.0232 262.178 69.2149 262.269 70.368Z" fill="#FFF1E7"></path>
<path d="M290.028 187.024C289.841 185.929 290.62 185.314 291.471 184.838C295.732 182.442 299.819 179.796 303.591 176.67C304.441 175.966 305.34 175.521 306.129 176.888C309.793 183.243 316.04 184.824 322.634 185.791C329.758 186.833 342.668 190.341 352.573 198.167C356.009 200.882 358.852 203.743 360.664 205.917C361.715 207.177 362.574 208.558 362.917 210.192C363.184 211.461 362.81 212.566 361.772 213.345C360.69 214.16 359.511 214.045 358.486 213.265C357.311 212.37 356.256 211.319 355.111 210.384C354.394 209.8 353.655 208.914 352.613 209.809C351.647 210.638 352.141 211.608 352.596 212.428C353.344 213.786 354.243 215.056 355.045 216.387C355.842 217.714 356.625 219.037 357.017 220.574C357.431 222.208 357.119 223.557 355.69 224.448C354.176 225.392 352.685 225.054 351.407 223.909C350.169 222.8 349.528 221.273 348.789 219.821C348.223 218.703 347.742 217.532 346.879 216.588C346.318 215.977 345.627 215.75 344.875 216.089C344.069 216.454 343.962 217.193 344.154 217.973C344.554 219.62 345.093 221.246 345.356 222.916C345.596 224.462 345.676 226.185 343.766 226.835C341.985 227.441 340.836 226.274 339.879 224.996C338.071 222.582 337.118 219.763 336.415 216.899C333.881 206.589 326.797 202.492 317.126 202.305C312.54 202.216 307.923 202.51 303.417 201.352C296.734 199.633 291.675 196.168 290.255 188.882C290.184 188.521 290.135 188.151 290.09 187.786C290.064 187.568 290.064 187.341 290.046 187.038L290.028 187.024Z" fill="#FFF1E7"></path>
<path d="M118.488 177.368C118.583 176.837 118.755 175.901 118.922 174.964C119.013 174.462 118.931 173.96 118.483 173.702C117.815 173.314 117.476 173.874 117.157 174.318C116.832 174.768 116.541 175.246 116.264 175.724C115.444 177.172 114.676 178.649 113.817 180.078C112.247 182.698 110.677 183.511 108.898 182.698C106.994 181.828 106.627 180.031 107.819 177.091C108.416 175.623 109.108 174.199 109.742 172.746C110.1 171.928 110.467 170.905 109.699 170.322C108.85 169.677 108.101 170.508 107.466 171.111C106.545 171.99 105.663 172.908 104.723 173.759C103.635 174.739 102.347 175.121 100.997 174.443C99.7035 173.792 99.0785 172.664 99.007 171.168C98.9258 169.49 99.5652 168.094 100.338 166.684C104.069 159.896 109.842 155.274 116.393 151.507C131.045 143.079 146.652 136.741 162.325 130.555C164.897 129.537 167.45 128.457 169.978 127.333C171.572 126.631 172.569 127.013 172.951 128.729C173.948 133.218 174.902 137.711 175.914 142.195C176.372 144.217 174.921 144.891 173.581 145.532C170.293 147.109 166.767 148.065 163.318 149.208C156.037 151.626 148.718 153.935 141.595 156.808C140.273 157.339 138.956 157.889 137.687 158.539C131.981 161.455 128.254 165.852 127.214 172.373C126.751 175.274 125.959 178.119 123.684 180.251C122.596 181.269 121.307 181.637 119.967 181.025C118.64 180.423 118.397 179.127 118.483 177.363L118.488 177.368Z" fill="#FFF1E7"></path>
<path d="M209.005 72.0181C208.995 67.672 210.914 64.2918 214.334 61.6552C219.186 57.908 224.865 55.5563 230.239 52.6975C232.98 51.2392 235.568 49.5877 238.058 47.7576C238.683 47.2988 239.402 46.6904 240.283 47.1829C241.149 47.6706 241.031 48.5591 240.932 49.3511C239.894 57.9224 240.789 66.5614 239.987 75.1375C239.21 83.4578 237.507 91.4835 231.809 98.1425C228.871 101.581 225.239 103.879 220.756 104.826C218.256 105.357 216.652 104.71 216.288 102.382C214.762 92.6086 211.323 83.3081 209.157 73.6937C209.034 73.148 209.049 72.5734 209 72.0132L209.005 72.0181Z" fill="#FFF1E7"></path>
<path d="M86.1034 239.603C82.7387 237.063 79.982 233.994 78.0074 230.271C77.5037 229.325 76.7519 228.145 77.7354 227.178C78.6573 226.272 79.8191 226.864 80.8694 227.28C84.7083 228.82 87.5888 231.865 91.1671 233.801C110.784 244.409 131.192 249.476 153.271 242.403C156.538 241.356 159.564 239.703 162.649 238.208C163.904 237.6 165.537 236.636 166.467 238.323C167.337 239.894 166.466 241.32 164.97 242.382C148.716 253.945 130.929 257.084 111.723 252.044C102.386 249.592 93.7446 245.579 86.1057 239.592L86.1034 239.603Z" fill="#FFF1E7"></path>
<path d="M83 376.474C82.8957 377.439 82.8862 378.423 82.6729 379.364C81.355 385.227 78.4397 387.786 72.9217 387.991C66.906 388.215 61.3644 384.442 59.7052 378.984C57.3208 371.142 61.1748 363.676 68.3708 362.199C73.4479 361.156 78.9943 364.299 81.4404 369.661C82.4169 371.805 83.0332 374.061 82.9953 376.474H83ZM64.9672 375.095C64.9435 377.692 66.5979 379.92 68.5937 379.988C70.4709 380.051 72.3813 377.804 72.4003 375.514C72.4192 373.209 70.4661 371.176 68.2239 371.176C66.2993 371.176 64.9861 372.75 64.9672 375.095Z" fill="#FFF1E7"></path>
<path d="M288.524 463C281.477 462.991 275.995 457.951 276 451.493C276.005 444.694 281.024 440.014 288.335 440C295.773 439.981 300.981 444.081 301 449.958C301.024 457.16 295.428 463.009 288.528 463H288.524ZM287.167 448.025C284.814 448.091 282.767 450.075 282.9 452.162C283.06 454.666 285.409 456.889 287.89 456.879C290.182 456.87 292.616 454.46 292.621 452.195C292.621 450.066 289.852 447.951 287.167 448.025Z" fill="#FFF1E7"></path>
<path d="M297 107.207C301.428 105.934 305.52 107.561 307.817 111.287C309.298 113.693 309.817 116.444 310.744 119.046C311.036 119.869 310.987 121.309 312.196 121.07C313.118 120.883 313.181 119.53 313.143 118.578C312.982 114.851 311.89 111.383 309.783 108.288C308.676 106.661 309.04 106.236 310.919 106.035C313.351 105.781 314.958 106.948 316.264 108.627C319.575 112.89 321.221 117.827 321.949 123.089C322.037 123.711 322.008 124.375 321.886 124.993C321.309 127.992 317.43 130.503 312.793 130.929C308.341 131.336 305.656 130.011 304.496 126.456C303.685 123.978 303.19 121.381 302.743 118.807C301.976 114.42 300.141 110.55 297.005 107.207H297Z" fill="#FFF1E7"></path>
<path d="M86 363.706C89.0967 362.369 92.4139 362.994 94.5937 365.053C95.2802 365.696 94.9294 366.276 94.7991 366.934C93.6466 372.654 95.1699 373.996 101.218 372.535C102.636 372.193 103.909 371.672 105.076 370.636C106.615 369.271 107.582 371.375 109 371.978C106.475 372.759 103.964 373.585 101.424 374.311C98.3368 375.192 95.21 375.963 92.1183 376.84C90.5449 377.287 90.149 376.799 90.0187 375.356C89.6379 371.257 88.8963 367.217 86.005 363.706H86Z" fill="#FFF1E7"></path>
<path d="M295.995 115.97C295.827 116.972 295.19 117.202 294.639 116.837C289.862 113.698 284.27 112.073 279.951 108.086C279.669 107.827 279.364 107.54 279.21 107.194C278.923 106.567 278.773 105.872 279.833 106.02C285.99 106.878 291.568 108.896 295.281 114.623C295.572 115.074 295.791 115.572 296 115.96L295.995 115.97Z" fill="#FFF1E7"></path>
<path d="M135.005 331.858C137.005 328.018 141.414 326.287 146.147 327.271C149.651 327.999 150.514 329.161 149.735 332.066C149.577 332.649 149.428 333.297 148.695 332.852C144.63 330.364 140.43 330.27 136.1 331.942C135.84 332.041 135.501 331.907 135 331.863L135.005 331.858Z" fill="#FFF1E7"></path>
<path d="M245.005 380C248.044 380.89 250.092 382.407 252.375 383.451C259.403 386.667 266.027 386.337 272.294 381.716C272.698 381.418 273.111 380.51 273.788 381.233C274.309 381.789 273.755 382.394 273.365 382.814C270.87 385.47 267.544 386.49 264.012 386.897C257.933 387.592 249.806 384.711 245 380H245.005Z" fill="#FFF1E7"></path>
<path d="M150 325.191C143.556 321.916 138.269 324.421 133 328C134.088 324.601 139.596 321.061 143.519 321.002C146.87 320.952 148.908 322.136 150 325.191Z" fill="#FFF1E7"></path>
<path d="M259.414 361.028C260.21 360.956 260.825 360.98 260.979 361.64C261.118 362.238 260.546 362.397 260.117 362.561C255.462 364.315 252.366 367.911 249.666 371.994C249.349 372.471 249.023 373.338 248.278 372.861C247.654 372.461 248.246 371.786 248.45 371.377C250.713 366.855 253.134 362.479 258.534 361.317C258.907 361.235 259.265 361.076 259.414 361.023V361.028Z" fill="#FFF1E7"></path>
<path d="M150 337.468C149.774 338.328 149.678 339.461 148.55 338.803C145.262 336.879 141.7 337.003 138.124 337.052C137.697 337.057 137.054 337.294 137.001 336.587C136.977 336.285 137.347 335.885 137.625 335.637C140.414 333.124 147.297 333.589 149.534 336.449C149.765 336.745 149.861 337.156 150 337.473V337.468Z" fill="#FFF1E7"></path>
<path d="M252.346 376.89C251.761 376.328 252.027 375.515 252.345 374.597C253.469 371.326 260.899 367.898 264.116 366.271C264.887 365.882 265.435 365.938 265.907 366.271C266.336 366.573 265.161 367.653 264.713 367.991C262.389 369.742 256.539 373.598 254.735 375.744C254.354 376.198 252.839 377.36 252.346 376.89Z" fill="#FFF1E7"></path>
<path d="M326.706 81.0021C327.207 80.9973 327.75 80.9641 327.941 81.4951C328.208 82.2347 327.512 82.4007 327.045 82.6046C323.28 84.2308 319.109 84.4489 315.292 85.9139C314.901 86.0656 314.31 86.0656 314.086 85.5062C313.833 84.8756 314.167 84.373 314.696 84.1549C316.064 83.586 317.441 82.9791 318.876 82.6283C321.464 81.993 324.099 81.5331 326.711 81.0021H326.706Z" fill="#FFF1E7"></path>
<path d="M317.995 447.846C314.866 449.15 311.863 450.072 308.814 450.898C307.941 451.137 307.452 450.985 307.676 450.146C308.03 448.816 307.502 447.572 307.352 446.29C307.307 445.886 306.394 445.095 307.701 445.012C308.594 444.955 309.512 445.064 309.807 446.094C310.5 448.529 310.495 448.463 313.345 447.455C314.782 446.946 316.318 446.894 318 447.846H317.995Z" fill="#FFF1E7"></path>
<path d="M149 346.159C145.478 349.109 137.331 348.363 135 345C139.603 346.189 144.054 346.149 149 346.159Z" fill="#FFF1E7"></path>
<path d="M260.879 378.941C259.932 378.807 259.947 378.086 260.043 377.448C260.379 375.997 264.145 371.483 266.017 370.26C266.455 369.975 267.52 369.857 267.89 370.26C268.138 370.531 267.89 371.483 267.89 371.483C267.89 371.483 261.736 378.926 260.884 378.941C260.884 378.941 261.827 379.074 260.879 378.941Z" fill="#FFF1E7"></path>
</svg>