<svg width="1000" height="1000" viewBox="0 0 1000 1000" fill="none" xmlns="http://www.w3.org/2000/svg">
<rect width="1000" height="1000" fill="#FFF1E7"></rect>
<path d="M818.82 682.11C818.97 683.79 817.73 684.34 817.46 685.65C818.49 687.51 820.04 689.33 820.8 691.57C821.11 692.5 821.66 693.48 821.04 694.37C819.13 697.09 819.17 700.16 819.42 703.29C818.79 703.8 818.23 704.25 817.65 704.71C817.12 706.07 817.07 707.59 817.87 708.7C820.06 711.75 820.04 714.81 818.28 717.79C819.01 719.47 820.93 719.95 821.06 721.78C820.89 723.1 819.48 723.72 818.97 725.03C818.76 725.82 819.65 726.39 819.64 727.21C819.18 729.24 817.01 729.77 815.93 731.4C816.95 733.84 819.55 734.52 821.29 736.12C821.38 737.52 820.1 738.28 819.8 740.1C819.76 740.43 820.83 741.27 820.01 742.45C819.43 742.64 818.64 742.84 817.92 743.16C815.8 744.09 815.01 746.73 816.25 748.97C816.88 750.1 817.73 751.11 818.44 752.2C819.5 753.8 820.1 755.41 818.46 757.04C818.24 757.26 817.95 757.64 818.01 757.87C818.78 761.3 816.75 763.51 814.61 765.33C814.76 767.9 816.83 768.04 818.33 769.11C815.97 772.14 816.52 775.33 817.92 778.51C818.7 780.28 818.32 781.6 816.78 782.76C815.62 783.64 814.56 784.66 814.02 786.11C814.49 788.3 816.07 789.78 817.29 791.48C819.24 794.18 818.74 795 817.33 797.83C815.37 801.74 812.71 802.71 808.75 801.8C807.7 801.56 806.51 801.96 805.39 802.1C804.56 802.3 804.27 801.21 803.37 801.3C803.26 801.42 803 801.57 802.97 801.76C802.84 802.64 802.91 803.57 802.66 804.4C802.11 806.26 800.97 807.12 798.97 806.22C798.39 805.96 797.6 805.51 797.16 805.71C794.24 807.02 791.41 807.04 788.96 805.34C788.34 805.69 788.11 805.79 787.92 805.93C786.57 806.95 785.74 809.44 783.65 808.44C780.99 807.18 778.23 805.71 776.93 802.78C776.6 802.03 776.54 801.24 775.59 801.02C774.85 801.51 775.09 802.36 774.83 803.02C774.05 805.01 772.81 806.46 770.46 806.08C768.43 805.75 766.49 807.09 764.48 806.2C763.79 806.7 763.15 807.17 762.56 807.59C760.24 807.48 758.41 806.41 756.51 805.49C754.76 804.64 753.1 804.15 751.32 805.64C750.13 806.64 748.89 806.33 748 804.81C748.21 804.12 748.44 803.37 748.68 802.6C747.21 800.89 745.39 801.19 743.46 801.4C742.34 803.18 742.35 806.16 739.2 805.94C736.96 805.79 734.77 807.37 733.61 806.67C728.46 805.72 724.23 807.92 720.31 805.33C718.65 804.23 717.03 805.07 715.35 805.47C714.29 804.67 713.28 803.9 712.39 803.23C710.42 803.14 709.94 805 708.4 805.64C706.87 805.45 705.08 804.97 703.67 806.09C702.05 806.22 700.99 804.75 699.21 805.32C698.74 805.66 698.03 806.17 697.42 806.6C695.99 806.67 695.21 805.07 694.23 805.28C691.14 805.94 688.01 805.56 684.93 805.96C684.41 806.03 683.94 806.46 683.49 806.69C680.704 805.03 678.504 804.227 676.89 804.28C676.51 804.75 675.95 805.44 675.48 806.03C673.65 806.42 673.07 804.69 671.96 804.23C669.28 803.82 667.27 805.43 665.04 806.17C664.44 805.66 663.9 805.2 663.45 804.81C662.06 804.86 661.61 806.38 659.95 806.33C658.38 804.59 656.23 804.49 653.85 805.56C652.87 806 651.98 805.29 651.19 804.69C650.42 804.11 649.7 803.43 648.79 803.32C647.64 803.66 647.7 804.79 646.79 805.72C643.77 802.51 640.4 800.38 637 804.56C635.14 804.69 634.44 803.49 633.32 802.78C631.61 803.65 630.01 802.28 628.34 802.3C626.5 803.27 625.91 806.19 623.18 805.44C621.12 804.87 620.01 802.66 617.94 802.14C615.86 803.447 613.69 803.177 611.43 801.33C611.32 803.77 611.3 806.2 608.77 807.31C607.72 807.56 607.45 806.39 606.55 806.23C606.22 806.62 605.87 807.04 605.49 807.49C602.3 806.47 601.37 802.7 598.33 801.55C597.08 802.11 596.59 803.32 595.77 804.19C594.61 805.42 593.09 805.92 591.82 805C588.78 802.82 585.35 803.25 582.01 803.17C580.71 803.14 579.44 803.08 578.2 802.84C575.2 804.24 572.64 806.59 569.24 806.8C567.85 805.29 567.31 803.22 564.94 802.87C564.47 803.07 563.82 803.35 563.2 803.62C562.21 802.76 562.82 801.52 562.25 800.46C560.39 799.09 559.55 800.97 558.29 801.8C556.94 802.69 557.35 805.05 555.41 805.29C553.91 804.8 554.52 802.9 553.12 802.43C551.77 802.69 552.02 804.53 550.6 805C549.14 803.99 547.43 803.13 546.49 801.35C545.36 801.91 546.21 802.98 545.62 803.57C544.99 804.29 544.46 805.15 543.39 805.49C542.24 805.62 541.3 805.1 541.02 803.95C540.24 800.73 537.46 800.31 535.06 799.31C534.06 800.49 535.35 801.38 535.17 802.52C534.71 803.38 534.19 804.35 533.65 805.35C532.64 805.22 532.67 804.08 531.68 803.65C530.82 803.67 529.68 803.7 528.89 802.82C526.08 804.44 523.13 803.36 520.11 803.89C517.06 807.75 512.02 804.93 508.4 806.9C506.9 806.93 506.11 805.73 505.06 805.52C503.84 805.42 503.18 806.37 502.24 806.61C498.96 806.14 495.73 805.23 492.39 805.67C490.74 805.89 489.64 804.91 488.5 804.06C486.54 803.81 484.54 804.59 483.23 803.79C478.14 803.31 473.84 805.76 469.02 804.87C468.37 805.11 467.54 805.42 466.68 805.74C465.91 805.43 465.17 805.13 464.31 804.79C463.48 805.08 462.57 805.39 461.63 805.72C460.88 805.38 460.15 805.06 459.59 804.8C455.57 806.22 451.7 805.2 447.85 805.06C446.94 804.67 446.43 805.64 445.39 805.62C444.89 805.42 444.23 805.15 443.54 804.87C442.74 805.09 441.96 805.31 441.12 805.55C440.26 805.24 439.35 804.92 438.99 804.8C437.49 804.57 437.08 805.61 435.86 805.66C432.96 803.44 428.98 804.46 425.63 803.01C424.79 803.63 424.16 804.11 423.44 804.64C422.22 804.2 420.96 804.15 419.62 804.8C417.42 803.31 415.49 804.33 413.99 805.54C412.4 805.71 411.75 804.65 410.75 804.22C407.82 805.02 404.35 802.35 401.95 805.97C399.52 804.59 397.5 804.91 395.76 806.83C393.68 805.1 391.66 804.19 389.98 806.08C388.45 806.3 387.92 805.28 386.9 805.15C385.21 805.44 383.41 805.74 381.35 806.09C380.54 806.09 380.05 804.93 378.67 804.79C377.02 805.29 375.03 805.4 373.09 804.05C371.28 806.17 369.31 806.92 367.17 805.06C366.22 805.32 365.45 805.53 365.35 805.55C360.68 804.86 356.75 803.18 352.65 805.27C351.93 804.76 351.27 804.3 350.65 803.86H344.43C344.04 804.29 343.56 804.82 342.92 805.53C335.55 806.11 327.96 805.32 319.77 806.02C317.89 804.38 315.34 805.44 312.71 806.03C310.23 806.59 307.7 806.22 305.19 805.82C303.05 805.48 300.88 804.96 298.79 806.2C298.06 806.63 297.22 806.66 296.51 805.94C295.64 804.67 297.08 802.86 295.31 801.39C295.03 804.99 293.14 806.61 289.72 806.72C285.9 806.84 286.01 802.93 283.66 800.89C283.11 806.05 279.39 806.12 275.89 806.37C273.64 806.53 271.37 806.4 269.08 806.4C267.89 805.13 268.57 803.18 267.48 801.75C267.43 803.57 267.06 805.22 265.73 806.54C262.81 807.25 260.18 805.96 257.55 805.23C252.8 807.73 251.27 807.27 249.53 802.83C248.35 803.01 248.45 804.33 247.73 804.88C246.8 804.43 247.45 802.91 246.17 802.64C244.57 803.42 245.9 804.81 245.59 805.86C244.9 806.36 244.09 806.86 243.34 806.42C241.03 805.05 238.76 805.97 236.46 806.31C235.66 806.43 234.86 806.65 234.06 806.63C230.14 806.51 226.31 804.7 222.75 806.21C221.3 805.41 221.27 804.15 220.38 803.34C218.55 803.27 216.62 803.11 214.78 803.79C209.44 802.66 204.18 799.07 199.25 803.64C197.97 803.57 197.89 802.55 197.03 802.23C195.65 802.08 194.15 802.04 193.08 803.43C191.09 802.21 194.03 801.15 193.01 800.05C189.21 802.09 185.24 802.5 181.08 801.65C180.38 799.73 179.45 798.25 178.34 796.84C177 795.14 177.85 793.47 178.84 791.89C180.08 789.92 182.02 788.38 182.56 786.05C182.27 784.39 180.98 783.68 179.86 782.94C177.94 781.68 177.64 780.18 178.55 778.14C179.85 775.21 180.51 772.23 178.13 769.35C179.26 768.12 181.53 768.18 181.73 765.78C181.07 764 178.59 763.16 178.31 760.86C178.2 759.83 179.14 758.89 178.25 757.26C178.05 757.02 177.43 756.27 176.9 755.62C176.7 754.06 177.39 752.95 178.11 751.87C178.74 750.92 179.48 750.04 180.04 749.05C181.85 745.86 180.82 743.59 177.26 742.81C176.8 742.71 176.35 742.58 175.66 742.4C176.87 740.22 175.85 738.44 174.68 736.63C176.77 734.82 179.57 733.92 180.45 731.12C179.63 729.45 177.71 729 176.79 727.54C176.56 726.63 177.54 726.11 177.52 725.27C177.52 723.64 175.46 723.21 175.35 721.53C175.67 720.06 177.32 719.77 178.12 718.74C178.17 718.53 178.29 718.33 178.23 718.22C176.5 714.65 176.88 711.3 179.01 707.97C179.58 707.07 179.57 705.77 179.04 704.55C178.46 704.27 177.82 703.95 177.26 703.68C176.66 702.84 176.83 702.01 176.99 701.23C177.36 699.39 177.13 697.74 176.07 696.12C173.85 692.74 176.28 690.13 177.73 687.41C178.1 686.72 178.91 686.26 178.67 684.98C178.44 684.58 178.04 683.88 177.5 682.95C178.58 681.04 179.41 678.92 177.33 676.88C178.79 674.94 178.93 673.15 177.82 671.11C177.07 669.73 179 668.72 179.02 667.39C178.79 666.36 177.67 666.15 177.33 665.29C176.96 664.14 177.91 663.31 178.09 662C177.64 660.6 177.41 658.93 178.45 657.55C178.6 656.5 177.91 655.88 177.85 655.1C178.05 650.93 177.95 646.74 178.88 642.67C177.79 641.9 176.94 641.31 176.07 640.69C175.82 638.33 178.88 637.43 178.34 635.19C179.91 633.96 181.63 636.15 183.26 634.66C181.8 633.71 180.24 634.14 178.78 633.56C177.16 631.65 176.78 629.57 176.89 626.79C177 623.86 178.72 620.81 176.96 617.79C176.61 617.19 176.78 616.18 176.94 615.4C177.51 612.64 177.3 609.91 176.78 606.96C179.07 605.92 179.12 603.54 180.01 601.14C180.1 600.72 178.93 600.45 179.09 599.8C179.12 598.28 180.83 596.84 178.7 595.82C179.06 594.95 179.34 594.28 179.62 593.59C179.33 592.81 179.05 592.06 178.75 591.26C179.15 590.35 180.12 589.59 179.75 588.41C179.39 587.24 180.46 586.46 180.5 585.82C180.59 583.85 179.13 583.11 178.55 581.96C178.81 580.34 180.99 579.74 180.47 577.82C179.82 576.55 178.23 576.73 177.17 575.88C177.63 573.48 179.9 572.19 180.82 570.21C180.02 568.95 178.43 569.48 177.75 568.14C177.5 566.3 180.08 565.56 179.82 563.23C179.71 563.03 179.4 562.47 179.11 561.96C179.2 558.61 181.62 555.3 179.02 551.83C179.6 550.89 179.4 549.84 178.6 548.96C180.02 546.55 180.02 546.47 178.22 543.5C178.38 543.04 178.57 542.51 178.75 541.98C178.9 541.52 179.02 541.06 179.18 540.54C178.72 539.86 178.28 539.19 177.74 538.38C180.05 534.87 176.78 531.22 177.9 527.51C179.27 526.19 180.91 526.98 182.45 527.1C183.26 526.49 183.6 525.72 183.5 524.61C182.41 524.03 181.14 524.63 179.88 524.23C178.89 523.16 178.32 521.73 177.8 520.29C177.29 518.86 177.58 517.65 178.84 516.61C181.84 514.13 181.9 513.18 179.5 510.03C178.92 509.26 178.3 508.52 177.63 507.69C178.89 506.29 180.5 505.41 181.41 503.83C182.35 502.2 182.61 500.77 181.28 499.14C180.11 497.71 179.22 496.05 178.08 494.28C179.09 492.19 179.6 489.84 180.15 487.37C178.11 482.25 177.78 476.69 176.98 471.21C178.6 470.07 181.48 470.25 181.04 467.3C179.97 466.18 178.38 466.62 177.35 465.54C177.83 464.22 179.78 463.76 179.58 462.02C179.45 460.59 177.94 460.1 177.34 458.94C177.97 457.43 179.9 457.42 180.59 455.84C180.73 453.33 178.4 453.99 176.81 453.31C176.29 451.5 177.64 449.87 177.74 448.01C177.93 444.33 179.1 440.71 179.6 437.03C179.85 435.2 179.19 433.37 177.99 431.64C179.58 429.31 180.06 426.39 182.2 424.27C181.86 421.66 179.33 420.42 178.34 418.23C181.52 413.663 180.537 410.243 175.39 407.97C175.93 402.08 179.99 397.23 181.38 391.55C180.5 390.07 178.67 390.17 177.88 388.77C178 387.08 178.7 385.47 179.28 384.01C180.7 383.24 181.82 384.58 183.08 384.04C183.71 383.2 183.61 382.28 183.34 381.36C182.61 380.8 181.87 381.36 181.17 381.22C179.66 380.92 178.15 380.42 177.99 378.69C177.79 376.59 177.88 374.52 178.21 372.34C178.68 369.28 180.51 366.06 178.75 362.7C179.09 362.14 179.46 361.53 179.8 360.99C179.42 358.85 179.84 356.71 178.92 354.74C178.81 354.49 178.87 354.03 179.04 353.8C181.55 350.49 180.26 347.19 178.91 344.04C179.33 343.04 179.68 342.22 180.06 341.32C179.74 340.62 179.41 339.89 179.02 339.04C179.54 337.62 180.33 336.09 179 334.47C181.16 331.59 178.06 329.53 177.83 326.89C178.65 325.14 180.38 323.81 180.52 321.59C180.67 319.29 177.91 318.7 177.78 316.69C177.94 315.13 179.8 314.42 179.58 312.77C179.23 311.69 177.96 311.71 177.35 310.77C176.66 309.2 177.74 308.34 179.04 307.6C178.89 305.95 179.69 304.34 179.01 303.22C180.55 296.9 177.5 291.1 178.85 285.85C178.46 284.48 177.6 284.31 176.98 283.43C180.08 280.78 178.28 278.19 176.66 275.93C179.44 267.32 186.1 269.82 191.87 270.37C192.82 268.6 191.72 267.07 192.13 265.28C196.31 263.98 200.51 262.28 205.1 263.55C207.61 262.41 210.04 261.31 212.73 260.97C213.3 260.5 213.2 259.8 213.31 259.18C213.7 256.89 214.22 254.67 216.73 253.69C216.8 253.66 216.88 253.61 216.92 253.55C218.71 250.79 221 249.15 224.52 248.93C226.69 248.79 226.45 246.24 226.97 244.64C227.64 243.71 229.01 243.84 229.71 242.36C229.34 240.21 229.88 237.63 229.62 235.08C229.33 232.25 230.1 230 232.07 228.01C233.46 226.62 234.74 225.11 234.25 222.91C235.34 222.86 235.23 224.21 236.32 224.02C237.51 223.43 236.68 222.21 236.94 221.23C237.88 220.69 238.87 220.15 239.84 219.57C241.81 218.4 242.81 216.83 241.86 214.48C241.53 213.65 241.79 212.91 242.17 212.15C243.33 209.857 242.904 207.873 240.89 206.2C240.87 203.47 242.16 201.05 243.87 200.61C245.65 200.15 249.27 202.13 250.32 204.24C249.13 205.79 246.2 206.78 248.11 209.68C249.49 209.48 249.31 208.04 250.04 207.38C250.73 206.76 251.42 207.72 252.13 207.38C253.95 206.39 255.28 204.88 256.36 203.3C263.69 204.72 270.95 203.46 278.34 203.67C278.79 204.35 279.33 205.15 280.09 206.29C282.62 202.48 285.71 202.07 289.13 204.81C291.51 204.43 293.25 202.24 295.81 202.71C297.36 203.45 297.33 205.59 298.97 206.32C300.27 205.38 300.05 203.37 301.63 202.61C302.88 202.56 303.59 203.57 304.44 204.27C307.61 206.88 311.05 207.42 314.62 205.37C317.75 203.58 320.76 203 324.07 204.81C325.65 205.67 327.39 205.51 329.04 204.83C330.51 204.23 331.83 204.34 333.2 205.22C335.17 206.48 337.24 206.66 339.47 205.71C341.26 204.95 343.15 204.43 345.01 203.84C346.68 203.31 348.36 203.24 350.03 203.91C352.84 205.05 355.45 205.2 357.39 202.21C358.84 203.1 360.13 203.9 361.43 204.68C365.05 206.87 368.7 206.99 372.18 204.49C374.46 202.86 376.59 202.35 379.13 203.93C381.46 205.38 383.67 203.8 385.82 203.24C386.06 203.34 386.25 203.36 386.35 203.46C391.66 208.6 390.99 207.47 396.06 204.27C397.29 203.49 398.49 202.67 399.56 201.98C400.67 201.87 401.14 202.79 401.85 202.93C403.24 202.99 404.14 201.9 405.41 201.76C406.82 202.01 407.52 203.46 408.85 203.94C409.9 203.84 409.43 202.42 410.99 202.15C414.07 205.91 419.15 206.06 423.54 207.57C424.89 206.21 423.58 204.99 424.03 203.52C428.16 207.04 431.93 207.49 434.82 201.51C438.02 204.79 442.41 203.38 445.65 205.33C447.71 205.13 447.75 203.04 449.07 202.18C449.75 202.61 450.43 203.04 451.45 203.69C454.94 200.7 458.05 203.87 461.42 204.54C462.15 205.44 462.01 206.85 463.4 207.35C464.41 205.83 462.94 204.85 462.59 203.6C462.64 202.95 462.57 202.2 463.42 201.64C466.45 204.69 470.3 206.04 474.2 207.05C475.88 205.34 475.33 202.68 477.71 201.71C480.47 204.96 484.3 203.38 487.7 203.75C490.27 204.03 492.89 203.81 495.77 203.81C496.2 204.09 496.87 204.52 497.65 205.02C499.32 203.18 501.98 203.82 503.79 202.14C505.65 203.35 507.2 202.68 508.61 201.21C511.16 202.36 513.62 203.54 515.4 205.93C516.54 204.37 516.38 202.69 516.63 200.79C517.71 202.12 518.29 203.49 519.47 204.41C521.45 205.93 524.16 206.34 525.96 204.63C528.58 202.15 530.98 202 533.69 204.23C533.92 204.42 534.29 204.45 534.51 204.52C536.24 204.41 537.28 202.97 538.95 202.67C539.57 203.01 540.27 203.39 540.93 203.75C542.31 203.73 543.12 202.58 544.64 202.18C547.58 203.04 550.81 203.99 554.13 204.97C555.39 204.93 556.25 203.59 557.78 203.59C558.33 203.98 558.98 204.44 559.56 204.85C560.86 204.78 561.25 203.52 562.48 202.93C566.13 205.07 569.79 204.09 573.17 202.11C574.32 202.43 574.16 203.8 575.29 204C576.63 203.96 576.9 202.35 578.05 201.87C578.98 201.84 579.4 202.66 579.97 203.17C580.84 203.95 581.83 204.38 582.87 203.95C587.01 202.27 590.42 203.59 593.61 206.59C596.68 204.29 600.05 203.59 603.76 203.97C605.73 204.17 607.01 201.77 609.15 202.06C611.66 203.49 614.33 204.64 616.2 206.76C618.26 205.36 617.99 203.19 619.36 201.77C620.68 203.12 621.98 204.36 623.92 204.75C625.66 205.1 626.48 207.3 628.6 207.37C630.63 206.03 630.74 203.05 633.02 201.75C633.56 202.41 634.06 203.03 634.73 203.84C637.57 203.71 640.27 204.34 641.69 207.44C644.11 205.98 645.21 203.45 647.52 202.3C648.51 202.55 648.3 203.94 649.3 204.13C652.25 203.94 655.26 201.8 658.07 204.4C659.94 204.35 661.2 202.88 662.92 202.63C664.92 203 665.52 206.02 668 205.44C669.95 204.99 671.27 203.35 673.14 202.5C674.1 202.99 675.09 203.5 675.93 203.92C679.46 203.61 682.83 203.32 686.21 203.03C686.89 203.75 687.49 204.38 688.14 205.06C688.58 204.88 688.97 204.78 689.3 204.58C692.85 202.46 696.36 202.23 699.76 204.85C701.93 206.52 703.97 206.75 706.47 205.32C709.83 203.4 713.67 203.71 717.29 203.48C718.16 204.38 717.94 205.73 719.16 206.26C721.03 206 722.2 203.87 724.45 204C724.98 204.3 725.61 204.65 726.53 205.16C729.23 203.36 732.44 203.47 735.7 203.41C738.24 203.36 740.09 204.28 741.69 206.06C742.23 206.67 742.7 207.34 743.27 207.92C744.29 208.96 745.47 209.69 746.97 208.92C748.45 208.16 748.26 206.8 748.02 205.49C747.82 204.39 747.26 203.32 747.79 202.18C753.45 199.94 756.15 200.54 756.87 206.06C756.1 206.62 755.11 207.33 754.53 207.74C754.38 208.49 754.27 208.7 754.33 208.81C755.71 211.24 756.43 213.66 755.38 216.51C754.97 217.63 756.22 218.52 757.23 219.11C757.99 219.56 758.81 219.93 759.68 220.37C759.94 221.38 760.2 222.39 760.46 223.4C761.61 223.42 761.01 222.1 762.14 221.78C762.81 221.66 763.4 222.16 763.27 223.16C762.95 225.52 764.32 226.99 765.85 228.38C767.22 229.62 767.7 231.09 767.64 232.95C767.52 236.35 767.61 239.75 767.61 243.21C768.56 243.61 769.44 243.98 770.43 244.4C770.64 245.25 770.76 246.15 771.1 246.96C771.63 248.25 772.61 249.06 774.1 249.03C775 249.02 776.18 248.88 776.65 249.58C779.11 253.35 784.83 254.9 784.06 260.76C786.57 261.51 788.96 261.95 791.09 263.14C791.98 263.63 793.02 263.8 793.94 263.53C797.66 262.44 800.84 264.85 804.26 264.77C805.29 266.61 804.26 268.4 804.95 270.17C807.17 270.45 809.42 269.93 811.58 269.55C816.3 268.74 818.64 271.26 820.43 275.24C819.66 276.95 818.84 278.78 818.11 280.4C818.24 281.9 819.49 282.46 819.91 283.72C818.07 285.23 818.18 287.07 818.39 289.45C818.6 291.85 818.95 294.56 817.86 297.04C816.98 299.04 817.44 301.02 818.52 302.87C818.18 303.6 817.88 304.25 817.58 304.91C817.35 307.3 820.7 308.49 819.93 310.92C818.93 311.8 817.69 311.34 817.04 312.37C816.56 313.95 818.2 314.47 818.83 315.7C819.23 316.76 818.83 317.7 817.98 318.63C815.96 320.85 815.8 322.28 817.78 324.57C819.29 326.3 819.25 327.89 818.26 329.67C816.66 332.55 817.73 335.53 817.94 338.52C817.56 339.21 817.18 339.9 816.91 340.39C816.78 341.62 817.7 342.19 817.89 343.06C818.03 344.43 817.24 345.55 816.89 346.79C816.32 348.81 816.06 350.75 817.43 352.61C818.6 354.2 817.86 355.69 816.94 357.07C817.09 358.46 817.97 359.81 816.94 360.73C816.93 361.96 817.93 362.17 818.09 363.08C818.09 363.17 818.11 363.42 818.04 363.64C817.85 364.26 817.27 365.03 817.46 365.45C818.77 368.19 817.49 371.29 818.85 374.06C820.1 376.61 818.7 378.88 817.64 380.88C816.16 381.62 814.97 380.55 813.74 381.01C813.31 381.79 812.92 382.58 813.37 383.53C814.5 384.2 815.78 383.36 817.1 383.96C818.43 385.33 818.75 387.2 818.92 388.99C818.09 390.34 816.47 390.37 815.49 391.66C816.29 397.23 820.95 401.47 821.12 407.27C820.86 408.58 819.69 408.77 818.58 409.04C814.69 410 813.92 412.18 816.36 415.35C817 416.18 817.66 417.01 818.32 417.85C817.72 420.47 814.28 421.37 814.47 424.53C816.69 426.27 817.16 429.18 818.86 431.43C815.8 435.64 817.41 439.95 818.59 444.17C818.96 445.49 818.83 446.83 819.14 448.16C819.48 449.61 819.8 451.21 819.97 452.77C818.71 453.76 816.76 453.34 815.95 455.09C815.45 457.4 818.28 457.17 819.03 459.01C815.91 461.06 816.56 463.33 819.27 465.34C818.21 466.7 816.46 465.9 815.39 467.68C815.07 470.37 817.78 470.23 819.92 470.97C818.58 476.34 818.84 481.91 816.71 487.28C817.24 488.99 816.9 491.1 818.22 492.85C818.74 493.53 818.47 494.42 818.01 495.15C817.45 496.04 816.9 496.95 816.29 497.81C813.64 501.53 813.8 502.92 817.27 506.01C817.75 506.44 818.24 506.86 818.85 507.39C817.49 509.49 815.5 511.2 815.12 513.71C815.38 515.06 816.34 515.71 817.31 516.31C819.21 517.51 819.57 519.03 818.74 521.11C817.92 523.18 817.02 524.84 814.36 524.21C814 524.12 813.59 524.26 813.29 524.29C812.71 525.11 812.86 525.79 813.23 526.46C814.02 527.12 814.9 526.91 815.79 526.75C818.46 526.26 819.92 527.5 819.16 530.06C818.46 532.44 819.22 534.92 818.2 537.23C817.95 537.79 818.36 538.63 818.49 539.52C818.25 540.03 817.94 540.67 817.63 541.33C817.82 542.06 818.01 542.76 818.21 543.55C817.29 545.3 816.71 547.13 818.14 548.95C815.98 552.96 816.01 557.02 817.71 561.15C815.25 563.99 818.35 565.8 819.14 567.76C818.3 569.2 816.82 568.94 816 570.02C816.53 572.27 819.19 573.37 819.55 575.78C818.61 576.87 816.95 576.31 815.99 577.55C815.4 579.53 817.47 580.3 818.21 581.8C817.81 583.19 816.08 583.81 815.95 585.57C816.39 587.37 816.87 589.31 818.03 591.06C817.13 592.63 816.33 594.19 817.83 595.68C817.55 596.33 816.93 596.62 816.96 597.27C817.11 598.62 818.43 600.1 816.34 601.13C817.43 603.19 817.19 605.81 820.01 606.89C818.82 610.29 820.04 613.77 819.57 617.01C818.99 620.97 819.57 624.68 819.94 628.5C820.26 631.77 818.47 633.67 815.15 633.84C814.45 633.88 813.48 633.36 813.04 634.63C813.82 635.47 814.67 634.75 815.46 634.71C816.27 634.68 817.08 634.51 818.06 634.95C818.9 636.56 819.82 638.32 820.7 640.01C819.9 641.32 818.25 641.35 817.56 643.04C819.13 646.5 817.87 650.57 818.83 654.5C818.46 655.2 818.08 655.9 817.65 656.71C818 657.56 818.36 658.45 818.79 659.51C817.54 661.34 819.42 663.07 819.22 665.11C818.69 665.79 818.1 666.54 817.59 667.2C817.39 668.6 818.48 669.39 818.82 670.83C817.51 672.58 817.53 674.63 819.21 676.51C817.89 678.49 817.33 680.36 818.85 682.02L818.82 682.11ZM283.45 379.1C281.9 380.09 280.38 380.71 279.36 381.79C276.64 384.68 273.23 386.3 269.66 387.68C267.43 388.54 266.03 390.16 265.35 392.35C264.6 394.75 262.98 396.17 260.69 396.95C259.18 397.46 257.87 398.17 257.16 399.72C256.8 400.5 255.98 400.8 255.27 401.19C251.66 403.15 250.97 404.65 251.76 408.75C251.96 409.79 252.19 410.82 252.39 411.86C253.47 417.5 258.98 418.68 262.51 421.85C262.88 422.18 263.78 421.98 264.42 421.93C266.08 421.81 267.46 422.32 268.55 423.59C269.3 424.47 270.23 425.09 271.29 425.57C273.19 426.43 275.04 427.38 276.9 428.29C277.04 430.24 275.77 431.15 274.51 432.23C271.15 431.71 268.19 432.09 267.85 436.28C267.08 436.5 266.62 436.73 266.15 436.76C263.6 436.89 261.85 437.98 261.09 440.55C260.71 441.84 259.45 442.08 258.33 442.23C256.21 442.51 254.71 443.64 253.68 445.41C253.07 446.45 252.32 447.31 251.15 447.55C248.6 448.06 246.84 449.37 246.37 451.93C244.23 453.04 242.25 454.12 241.69 456.5C241.26 458.34 240.08 459.23 238.38 459.66C236.22 460.2 234.84 461.55 234.17 463.66C233.72 465.1 232.48 465.94 231.64 467.05C229.41 470.02 227.7 473.37 225.8 476.58C225.73 476.71 225.72 476.91 225.76 477.06C226.4 479.4 225.07 480.84 223.58 482.36C221.12 484.86 220.41 488.45 221.8 490.84C223.35 493.52 224.93 496.17 226.6 498.77C229.06 502.59 230.83 503.11 234.95 501.18C236.74 500.34 238.36 500.29 240.03 501.36C241.37 502.22 242.81 502.32 244.22 501.62C246.28 500.6 248.11 501.25 250.01 502.08C250.11 503.72 250.18 505.24 249.79 507.15C245.72 508.95 244.04 512.69 243.59 516.94C240.87 517.85 237.93 517.35 236.39 520.11C234.99 522.64 236.48 525.44 235.49 528.17C234.64 528.71 233.67 529.3 232.74 529.94C231.85 530.55 231.11 531.27 230.94 532.43C230.14 537.78 226.88 541.65 223.16 545.21C222.08 546.25 221.14 547.33 221.64 548.79C223 552.75 221.35 555.71 218.82 558.5C217.54 559.91 217.46 561.4 218.86 562.83C220.29 564.29 221.4 566 222.54 567.69C224.9 571.18 229.68 573.09 233.76 572.1C236.71 571.38 239.68 570.89 242.69 571.55C245.38 572.14 247.83 571.81 250.16 570.3C251.91 569.16 253.83 568.64 256.17 568.97C255.34 570.59 254.25 572 254.2 573.75C254.16 575.34 253.49 576.48 252.28 577.49C250.86 578.68 250.42 580.29 250.76 582.12C250.96 583.16 251.08 584.21 250.76 585.56C247.86 587.77 246.54 590.76 248.21 594.5C246.62 596.27 245.72 598.15 245.26 600.25C245.04 601.23 244.47 602.02 243.77 602.73C241.67 604.86 241.06 607.24 242.39 610.06C243.35 612.11 243.1 613.98 241.22 615.51C239.21 617.14 238.77 619.29 239.57 621.67C240.57 624.65 240.51 627.54 239.35 630.48C238.65 632.26 238.54 634.15 239.67 635.88C240.83 637.66 240.89 639.5 240.2 641.47C239.36 643.88 239.35 646.25 240.72 648.51C241.25 649.38 241.49 650.43 241.17 651.34C240.04 654.62 241.99 656.58 244.08 658.46C245.28 659.54 246.77 660.33 247.91 661.47C250.82 664.4 254.16 664.63 257.81 663.33C259.65 662.67 261.45 661.92 263.25 661.18C265.35 660.32 267.4 659.22 269.68 658.96C271.8 658.72 273.03 657.65 273.76 655.67C274.67 653.19 278.4 651.44 281.46 652.07C280.72 652.75 280.07 653.31 279.46 653.92C276.86 656.56 276.68 657.93 278.71 660.95C280.53 663.67 281.3 666.74 281.68 669.89C282.01 672.65 282.63 675.45 280.29 677.92C278.94 679.35 280.13 680.85 281.31 681.93C283.62 684.04 285.47 686.48 287.02 689.18C289.16 692.92 293.97 695.09 298.22 694.27C299 694.12 299.75 693.65 300.73 694.09C301.57 695.69 303.01 697.07 303.79 699.22C300.75 701.78 302.22 704.08 304.21 706.67C306.59 709.76 307.76 713.4 307.36 717.4C307.11 719.88 308.25 721.59 310.32 722.82C312.97 724.4 315.63 725.98 318.23 727.63C319.24 728.27 320.27 728.72 321.44 728.42C326.78 727.05 332.22 725.95 336.96 722.85C339.38 721.27 341.93 719.92 345.14 718.82C344.34 725.6 349.52 728.44 353.31 731.76C358.26 736.09 363.22 731.7 368.27 730.48C369.3 733.49 369.36 736.68 370.03 739.74C370.45 741.64 371.16 743.34 372.74 744.5C375.02 746.16 376.6 748.43 378.25 750.64C378.93 751.55 379.53 752.59 380.39 753.27C385.14 757.01 389.23 761.49 394.11 765.1C395.57 766.18 396.83 766.76 398.54 765.96C403.24 763.75 407.29 761.05 409.66 756C411.97 751.1 414.41 746.29 415.91 741.69C415.67 740.07 414.68 739.42 414.83 738.21C415.99 737.35 417.35 736.58 418.4 735.51C419.78 734.1 417.73 732.68 418.04 731.23C418.78 730.77 419.45 730.62 420.26 731.19C420.59 733.05 421.07 735.01 423.19 735.78C424.66 736.32 425.58 737.34 426.42 738.6C429.19 742.74 432.18 746.69 436.34 749.58C437.72 750.54 438.26 751.91 438.49 753.51C438.7 754.99 439.12 756.85 440.64 757.05C443.81 757.48 446.88 758.16 449.88 759.21C450.01 759.26 450.2 759.18 450.36 759.13C451.37 758.81 452.32 759.09 453.19 759.53C457.4 761.63 462.01 762.24 466.55 763.06C468.72 763.45 470.53 762.84 472.03 761.15C475.03 757.78 477.38 754.01 479.2 749.75C481.17 751.31 482.57 753.32 484.22 755.09C486.05 757.05 487.48 757.1 489.46 755.32C490.38 754.5 491.3 753.73 492.67 753.5C493.42 753.77 494.24 754.06 494.81 754.26C496.07 753.94 496.34 752.92 497.3 752.32C495.83 754.78 496.62 757.38 496.36 759.88C496.14 762 497.48 763.54 499.31 763.03C501.58 762.39 503.07 763.35 504.61 764.62C505.76 765.56 507.02 766.3 508.51 766.53C509.37 766.66 510.11 766.98 510.58 767.68C511.77 769.41 513.58 769.78 515.46 770.02C517.32 770.25 519.21 770.32 521.02 770.72C523.71 771.32 525.84 770.53 527.57 768.51C528.74 767.14 530.15 766.34 531.97 766.2C532.85 766.13 541.83 760.7 542.36 760.01C542.51 759.82 542.64 759.61 542.77 759.41C543.42 758.48 543.68 757.31 544.77 756.4C546.9 756.33 549.31 756.58 550.78 754.07C552.08 751.85 551.61 749.29 552.4 747.09C553.43 745.77 554.86 745.39 556.29 745.07C558.59 744.55 560.31 743.43 561.04 741.04C561.49 739.58 562.62 738.84 564.11 738.59C565.31 738.39 566.51 738.15 567.71 737.94C569.61 737.6 570.85 736.66 570.85 734.55C570.85 732.76 571.79 731.59 573.45 731.15C578.27 729.85 582.23 727.89 580.73 721.54C583.94 720.76 585.06 718.21 586.9 715.23C587.75 719.38 590.9 719.01 593.83 719.55C592.34 723.86 594.1 726.37 597.74 727.96C598.27 728.19 598.61 728.9 599.01 729.41C602.63 734.19 606.74 738.3 612.9 739.65C613.42 739.76 614.09 740.07 614.32 740.49C615.95 743.49 619.23 745.12 620.53 748.48C621.6 751.25 623.94 751.79 626.54 750.29C628.25 749.3 629.88 749.15 631.62 750.08C633.54 751.11 635.03 750.54 636.26 748.84C637.3 747.4 638.06 745.74 639.64 744.72C642.92 742.6 643.95 739.42 643.94 735.7C643.94 734.03 643.55 732.31 644.28 730.69C645.42 730.4 646.46 730.56 647.48 730.87C648.76 731.25 650.01 731.4 651.26 730.73C654.5 729 656.84 726.56 657.65 722.86C657.8 722.17 657.62 721.36 658.51 720.75C661.55 721.07 664.57 721.85 667.27 723.66C668.31 724.35 669.38 724.97 670.68 724.41C674.55 722.74 678.13 720.72 680.06 716.69C682.1 712.44 685.27 708.82 686.97 704.37C687.27 703.59 688.01 702.91 688.68 702.35C690.14 701.15 690.73 699.68 690.47 697.83C690.12 695.31 690.77 693.03 691.91 690.79C692.96 688.72 693.7 686.34 692.36 684.26C690.67 681.63 690.99 679.04 691.63 676.31C692.24 673.71 692.46 671.18 690.81 668.81C690.34 668.14 690.06 667.34 690.77 666.54C693.24 666.07 693.09 669.27 695.17 669.63C695.77 669.42 696.52 669.15 697.27 668.88C703.04 668.46 704.99 673.18 707.43 676.79C708.26 676.65 708.69 676.66 709.04 676.5C711.42 675.43 713.71 675.24 715.97 676.84C716.65 677.32 717.63 677.48 718.33 677.13C721.43 675.57 724.68 673.97 725.93 670.47C726.68 668.37 727.59 666.53 729.47 665.42C731.44 664.26 731.85 662.6 731.41 660.63C730.36 656 731.11 651.52 732.81 647.25C734.09 644.05 734.08 641.11 732.61 638.09C731.93 636.7 731.67 635.27 732.35 633.86C733.76 630.9 733.32 628.08 732.17 625.14C731.46 623.32 730.83 621.3 732.22 619.24C732.96 619.75 733.61 620.21 734.09 620.54C735.45 620.93 736.52 620.24 737.61 620.41C741.5 620.94 744.76 622.49 746.56 626.03C747.29 626.03 747.71 626.12 748.09 626.02C750.83 625.29 753.51 624.8 755.81 627.14C756 627.34 756.46 627.45 756.73 627.37C759.85 626.4 763.41 625.32 764.95 622.62C766.25 620.33 767.69 617.87 768.52 615.26C769.7 611.56 768.74 608.25 766.41 605.16C769.02 603.12 768.87 600.58 768.11 597.83C762.88 596.62 766.47 592.45 765.26 589.81C764.64 589.26 763.98 588.67 763.4 588.15C762.92 586.65 763.55 585.07 762.58 583.78C761.64 582.52 759.65 582.7 758.95 581.17C760.84 575.8 760.74 575.36 757 572.89C756.4 571.36 756.6 569.37 754.9 568.22C752.26 566.44 749.78 564.48 748.25 561.81C746.66 561.25 745.03 561.61 743.91 560.43C742.65 557.95 744.97 554.81 742.07 552.72C745.61 551.46 749.24 546.37 748.84 543.1C748.41 539.63 747.81 536.21 748.89 532.81C746.62 530.2 744.52 527.72 742.35 525.3C740.1 522.8 739.54 519.48 738.37 517.03C737.51 515.94 736.24 516.21 735.98 514.91C736.95 513.77 738.37 513.52 739.23 514.66C741.13 517.16 743.04 516.59 745.1 515.09C746.51 515.8 747.85 515.58 749.07 515.15C751.297 515.837 753.45 515.553 755.53 514.3C756.25 513.87 757 513.58 757.83 513.61C759.72 513.69 760.68 512.58 761.64 511.1C764.4 506.82 764.4 502.29 763.63 497.48C763.17 494.62 762.5 492.27 759.46 491.28C758.97 491.12 758.38 490.83 758.46 489.83C761.51 488.63 764.58 486.92 768.1 487.41C770.39 487.73 771.51 486.79 772.61 485.02C776.28 479.1 774.85 472.94 773.63 466.79C773.43 465.79 772.65 465.16 771.71 464.71C770.83 464.29 769.73 464.59 768.89 463.71C768.28 462.31 768.68 460.56 767.68 458.91C765.84 458.14 764.85 456.19 763.82 454.93C762.47 454.19 761.3 454.81 760.14 453.95C761.16 450.02 759.71 447.24 755.82 446.36C755.6 445.71 755.47 445.49 755.45 445.25C754.88 439.82 752.91 437.59 747.64 436.4C746 436.03 744.28 435.32 743.81 433.69C743.04 431.02 741.42 429.6 738.87 428.93C738.42 428.81 737.79 428.53 737.65 428.17C736.22 424.39 732.48 423.16 729.76 420.79C728.14 419.38 726.59 418.02 724.5 417.4C721.85 416.61 719.73 415.24 718.28 412.71C717.01 410.5 714.85 409.31 712.21 409.18C711.17 409.13 710.1 409.4 709.1 408.95C708.37 408.29 708.33 407.33 707.98 406.53C707.44 405.27 706.71 404.22 705.27 403.98C702.92 403.59 701.5 401.79 699.78 400.32C700.72 400.42 701.66 400.53 702.66 400.64C704.64 399.06 705.51 396.68 707 394.78C709.97 390.98 709.84 388.27 706.66 384.64C705.9 383.77 704.79 383.12 704.53 381.7C707.34 380.69 709.97 380.32 712.35 381.85C713.72 381.61 714.14 380.82 714.48 379.82C715.79 375.93 717.8 372.18 716.66 367.85C716.58 367.55 716.63 367.17 716.75 366.89C717.78 364.42 716.55 362.74 714.89 361.11C713.04 359.29 710.72 357.81 709.5 355.51C708.34 353.32 707.42 351.16 704.88 350.19C704.02 349.86 703.74 348.9 703.54 347.98C703 345.48 701.72 343.87 698.85 344.05C697.91 344.11 696.94 343.8 695.75 343.62C694.77 339.29 692.99 335.74 687.71 337.04C687.14 335.98 686.76 335.28 686.46 334.71C685.03 333.74 683.57 334.82 681.79 334.02C681.16 333.73 680.85 332.48 679.82 331.64C677.42 331.38 675.47 329.02 672.81 329.66C671.47 328.53 670.2 327.62 669.15 326.51C668.14 325.43 666.31 325.39 665.64 323.84C667.1 322.67 667.71 324.6 668.63 324.45C670.4 324.45 671.59 323.71 672.46 322.4C672.87 321.78 673.33 321.13 674.08 320.98C675.91 320.62 676.62 319.17 677.56 317.82C679.82 314.54 679.03 311.23 678.09 307.78C676.64 302.44 675.46 301.34 669.89 300.9C668.75 300.81 667.33 300.99 666.72 299.98C664.59 296.49 661.54 295.93 657.9 296.74C657.77 296.77 657.61 296.62 657.27 296.48C656.5 294.7 655.43 292.93 652.98 292.99C650.53 293.05 648.4 292.09 646.23 291.13C642.86 289.65 639.57 287.61 635.61 289.15C635.35 289.25 634.98 289.08 634.47 289.01C632.21 285.45 629.62 288.02 627.43 288.87C622.34 286.74 617.59 284.94 612.55 288.22C611.5 286.58 609.49 286.61 608.35 285.05C609.24 284.62 609.94 284.28 610.87 283.83C610.75 281.69 610.89 279.53 612.17 277.59C612.59 276.95 612.19 276.14 611.81 275.51C610.17 272.7 608.76 269.71 606.78 267.17C604.47 264.2 601.68 261.62 597.3 262.51C596.64 262.64 595.82 262.43 595.18 262.13C591.75 260.55 587.93 259.6 585.72 256.37C584.57 256.12 583.78 256.53 582.99 256.98C580.49 258.42 577.99 258.13 575.54 256.86C574.31 256.22 573.13 255.51 571.92 254.84C570.18 253.88 568.35 253.11 566.34 253.5C564.67 253.82 563.13 253.76 561.58 252.69C559.59 253.95 557.8 253.25 555.94 252.19C553.71 250.91 551.33 250.79 548.92 251.89C547.69 252.45 546.42 252.58 545.17 251.87C544.35 251.41 543.44 251.59 542.56 251.5C539.23 251.17 536.15 252.05 532.89 253.54C532.42 252.76 531.99 252.06 531.83 251.78C529.54 251.19 527.92 252.97 526.16 252.03C525.52 249.457 524.103 247.443 521.91 245.99C521.3 245.59 520.76 245.09 520.19 244.63C515.45 240.78 510.66 239.02 504.54 242.21C500.98 244.06 496.7 244.81 492.47 243.63C490.89 243.19 489.61 243.75 488.67 245.13C488.17 245.86 487.73 246.7 486.79 246.96C483.37 247.93 479.94 248.88 476.35 249.88C476.26 246.49 477.08 243.16 475.97 239.8C471.7 236.97 466.94 236.07 462.1 237.54C459.63 238.29 457.49 239.85 454.73 238.82C453.95 238.53 453.13 238.98 452.43 239.42C450.87 240.38 449.24 240.98 447.35 240.78C446.26 240.66 445.26 241.1 444.35 241.66C440.93 243.77 436.81 244.78 434.24 248.25C433.76 248.9 432.77 249.32 431.93 249.52C427.48 250.61 423.25 251.97 421.48 256.59C417.414 256.977 415.067 258.673 414.44 261.68C413.87 262.44 413.01 262.75 412.18 263.05C410.3 263.74 409.22 265.11 408.96 267C408.69 268.97 407.6 270.21 406.02 271.23C404.94 271.93 403.48 272.61 403.49 274.02C403.53 277.96 399.85 280.03 399.41 283.32C394.52 283 390.71 279.8 386.1 280.24C385.37 279.33 384.76 278.58 383.94 277.55C380.62 278.5 377.14 278.63 373.66 278.3C369.81 277.93 365.99 277 362.21 278.8C361.56 279.11 360.6 278.89 359.8 278.77C355.68 278.16 351.71 278.61 347.88 280.28C346.57 280.85 345.07 281.14 343.85 280.45C339.1 277.76 335.17 278.78 331.74 282.77C331.38 283.19 330.82 283.43 330.34 283.74C326.41 286.3 325.76 288.7 327.72 293.04C328.45 294.66 329.9 296.32 329.46 298C328.9 300.13 329.72 301.8 330.13 303.66C330.4 304.88 331.29 305.99 330.93 307.36C327 308.33 322.7 307.15 319.18 309.89C318.59 310.35 317.25 310.08 316.33 309.85C314.84 309.49 313.37 308.95 311.95 308.36C309.51 307.35 307.23 306.75 305 308.95C304.16 309.79 302.78 309.98 301.56 310.04C295.54 310.31 293.97 315.22 291.4 319.38C295.15 322.78 292.68 327.83 294.91 331.29C296.18 332.65 297.76 330.99 298.93 332.04C298.54 333.4 296.86 333.58 296.73 334.92C296.5 336.44 298.6 336.96 298.25 338.97C295.46 338.07 292.85 338.51 290.31 339.79C289.53 340.18 288.55 339.74 287.71 339.41C286.27 338.85 284.83 338.3 283.39 337.74C282.44 337.37 281.46 337.16 280.58 337.8C278.15 339.56 275.31 340.24 272.51 341.11C269.64 342 266.42 347.82 267.92 349.83C269.78 352.31 270.63 354.94 271.07 357.86C271.14 358.29 271.5 358.78 271.87 359.03C274.69 360.9 275.17 363.57 274.92 366.71C274.65 370 275.49 371.02 278.68 371.99C279.86 372.35 281.11 372.6 281.62 373.89C282.27 375.54 282.83 377.23 283.5 379.07L283.45 379.1Z" fill="#E8533B"></path>
<path d="M283.45 379.1C282.79 377.26 282.23 375.57 281.57 373.92C281.06 372.62 279.81 372.38 278.63 372.02C275.44 371.04 274.6 370.03 274.87 366.74C275.12 363.6 274.64 360.92 271.82 359.06C271.45 358.81 271.08 358.32 271.02 357.89C270.57 354.97 269.72 352.34 267.87 349.86C266.37 347.85 269.59 342.03 272.46 341.14C275.26 340.27 278.1 339.58 280.53 337.83C281.41 337.2 282.39 337.41 283.34 337.77C284.78 338.33 286.22 338.88 287.66 339.44C288.5 339.77 289.48 340.21 290.26 339.82C292.8 338.54 295.41 338.1 298.2 339C298.55 336.99 296.45 336.47 296.68 334.95C296.82 333.61 298.5 333.43 298.88 332.07C297.71 331.02 296.13 332.68 294.86 331.32C292.63 327.85 295.11 322.81 291.35 319.41C293.92 315.25 295.49 310.34 301.51 310.07C302.73 310.02 304.11 309.82 304.95 308.98C307.18 306.77 309.46 307.37 311.9 308.39C313.32 308.98 314.79 309.51 316.28 309.88C317.2 310.1 318.54 310.38 319.13 309.92C322.65 307.18 326.95 308.35 330.88 307.39C331.24 306.02 330.34 304.91 330.08 303.69C329.67 301.83 328.86 300.16 329.41 298.03C329.85 296.35 328.4 294.69 327.67 293.07C325.71 288.73 326.37 286.33 330.29 283.77C330.77 283.46 331.33 283.22 331.69 282.8C335.12 278.82 339.05 277.79 343.8 280.48C345.03 281.17 346.52 280.88 347.83 280.31C351.66 278.64 355.63 278.19 359.75 278.8C360.55 278.92 361.51 279.14 362.16 278.83C365.94 277.03 369.76 277.97 373.61 278.33C377.08 278.66 380.57 278.53 383.89 277.58C384.72 278.61 385.32 279.36 386.05 280.27C390.66 279.83 394.47 283.03 399.36 283.35C399.8 280.06 403.49 277.98 403.44 274.05C403.42 272.64 404.89 271.96 405.97 271.26C407.55 270.24 408.64 269 408.91 267.03C409.17 265.14 410.26 263.77 412.13 263.08C412.96 262.78 413.82 262.46 414.39 261.7C415.017 258.7 417.364 257.007 421.43 256.62C423.2 252 427.43 250.64 431.88 249.55C432.71 249.35 433.71 248.92 434.19 248.28C436.76 244.81 440.88 243.8 444.3 241.69C445.21 241.13 446.21 240.69 447.3 240.81C449.18 241.01 450.82 240.42 452.38 239.45C453.08 239.02 453.91 238.56 454.68 238.85C457.44 239.88 459.58 238.32 462.05 237.57C466.89 236.1 471.65 237 475.92 239.83C477.03 243.19 476.22 246.52 476.3 249.91C479.89 248.91 483.32 247.96 486.74 246.99C487.68 246.72 488.13 245.88 488.62 245.16C489.56 243.79 490.84 243.22 492.42 243.66C496.65 244.84 500.93 244.1 504.49 242.24C510.61 239.06 515.4 240.81 520.14 244.66C520.71 245.12 521.25 245.62 521.86 246.02C524.054 247.48 525.47 249.493 526.11 252.06C527.87 253 529.49 251.22 531.78 251.81C531.95 252.09 532.37 252.79 532.84 253.57C536.1 252.07 539.18 251.2 542.51 251.53C543.39 251.62 544.3 251.44 545.12 251.9C546.37 252.61 547.64 252.48 548.87 251.92C551.27 250.82 553.66 250.94 555.89 252.22C557.75 253.29 559.54 253.99 561.53 252.72C563.08 253.79 564.62 253.85 566.29 253.53C568.3 253.14 570.13 253.91 571.87 254.87C573.08 255.54 574.27 256.25 575.49 256.89C577.94 258.16 580.44 258.45 582.94 257.01C583.73 256.56 584.52 256.15 585.67 256.4C587.88 259.63 591.7 260.58 595.13 262.16C595.77 262.45 596.59 262.67 597.25 262.54C601.64 261.65 604.42 264.23 606.73 267.2C608.71 269.75 610.12 272.74 611.76 275.54C612.13 276.18 612.54 276.98 612.12 277.62C610.85 279.55 610.71 281.71 610.82 283.86C609.89 284.31 609.19 284.65 608.3 285.08C609.45 286.64 611.45 286.61 612.5 288.25C617.54 284.97 622.29 286.77 627.38 288.9C629.57 288.05 632.16 285.48 634.42 289.04C634.93 289.11 635.3 289.28 635.56 289.18C639.52 287.64 642.81 289.68 646.18 291.16C648.35 292.11 650.48 293.08 652.93 293.02C655.38 292.96 656.44 294.73 657.22 296.51C657.56 296.66 657.72 296.8 657.85 296.77C661.49 295.95 664.54 296.51 666.67 300.01C667.29 301.02 668.7 300.84 669.84 300.93C675.42 301.37 676.59 302.47 678.04 307.81C678.98 311.26 679.77 314.57 677.51 317.85C676.58 319.2 675.86 320.65 674.03 321.01C673.28 321.16 672.83 321.81 672.41 322.43C671.54 323.74 670.35 324.48 668.58 324.48C667.66 324.63 667.05 322.7 665.59 323.87C666.26 325.42 668.09 325.46 669.1 326.54C670.15 327.66 671.43 328.56 672.76 329.69C675.42 329.04 677.37 331.4 679.77 331.67C680.8 332.51 681.11 333.76 681.74 334.05C683.53 334.84 684.98 333.76 686.41 334.74C686.71 335.31 687.09 336.01 687.66 337.07C692.94 335.77 694.71 339.32 695.7 343.65C696.89 343.83 697.86 344.14 698.8 344.08C701.67 343.9 702.95 345.51 703.49 348.01C703.69 348.93 703.96 349.89 704.83 350.22C707.37 351.19 708.29 353.35 709.45 355.54C710.67 357.84 712.98 359.32 714.84 361.14C716.5 362.77 717.74 364.45 716.7 366.92C716.58 367.21 716.53 367.59 716.61 367.88C717.75 372.22 715.74 375.97 714.43 379.85C714.09 380.85 713.67 381.64 712.3 381.88C709.92 380.35 707.29 380.72 704.48 381.73C704.74 383.15 705.85 383.8 706.61 384.67C709.79 388.3 709.91 391.01 706.95 394.81C705.46 396.71 704.59 399.09 702.61 400.67C701.61 400.56 700.67 400.45 699.73 400.35C701.45 401.82 702.87 403.62 705.22 404.01C706.66 404.25 707.39 405.3 707.93 406.56C708.28 407.37 708.32 408.32 709.05 408.98C710.05 409.43 711.12 409.16 712.16 409.21C714.8 409.34 716.97 410.53 718.23 412.74C719.69 415.28 721.8 416.65 724.45 417.43C726.54 418.05 728.1 419.42 729.71 420.82C732.43 423.19 736.17 424.42 737.6 428.2C737.74 428.56 738.36 428.84 738.82 428.96C741.37 429.63 743 431.06 743.76 433.72C744.23 435.35 745.94 436.06 747.59 436.43C752.86 437.62 754.84 439.85 755.4 445.28C755.42 445.51 755.55 445.74 755.77 446.39C759.66 447.27 761.11 450.05 760.09 453.98C761.24 454.84 762.41 454.22 763.77 454.96C764.8 456.22 765.78 458.18 767.63 458.94C768.63 460.59 768.22 462.34 768.84 463.74C769.68 464.62 770.79 464.31 771.66 464.74C772.59 465.19 773.38 465.83 773.58 466.82C774.79 472.97 776.22 479.13 772.56 485.05C771.46 486.82 770.33 487.76 768.05 487.44C764.53 486.95 761.47 488.66 758.41 489.86C758.33 490.86 758.92 491.14 759.41 491.31C762.45 492.3 763.12 494.66 763.58 497.51C764.36 502.32 764.36 506.85 761.59 511.13C760.63 512.61 759.67 513.72 757.78 513.64C756.95 513.61 756.2 513.9 755.48 514.33C753.4 515.583 751.247 515.867 749.02 515.18C747.8 515.6 746.46 515.82 745.05 515.12C742.98 516.62 741.07 517.18 739.18 514.69C738.32 513.56 736.9 513.81 735.93 514.94C736.19 516.24 737.46 515.97 738.32 517.06C739.5 519.51 740.05 522.83 742.3 525.33C744.47 527.75 746.57 530.23 748.84 532.84C747.76 536.24 748.36 539.66 748.79 543.13C749.19 546.4 745.57 551.49 742.02 552.75C744.93 554.84 742.6 557.98 743.86 560.46C744.98 561.64 746.61 561.28 748.2 561.84C749.73 564.51 752.22 566.46 754.85 568.25C756.55 569.4 756.35 571.39 756.95 572.92C760.69 575.39 760.79 575.83 758.9 581.2C759.6 582.73 761.59 582.55 762.53 583.81C763.5 585.11 762.88 586.68 763.35 588.18C763.94 588.7 764.59 589.29 765.21 589.84C766.42 592.48 762.84 596.64 768.06 597.86C768.82 600.61 768.97 603.15 766.36 605.19C768.69 608.28 769.65 611.6 768.47 615.29C767.63 617.91 766.2 620.37 764.9 622.65C763.36 625.34 759.8 626.43 756.68 627.4C756.42 627.48 755.96 627.37 755.76 627.17C753.46 624.83 750.78 625.33 748.04 626.05C747.66 626.15 747.24 626.06 746.51 626.06C744.72 622.52 741.45 620.97 737.56 620.44C736.48 620.27 735.41 620.96 734.04 620.57C733.56 620.24 732.91 619.79 732.17 619.27C730.78 621.33 731.4 623.34 732.12 625.17C733.27 628.11 733.71 630.93 732.3 633.89C731.63 635.3 731.89 636.74 732.56 638.12C734.03 641.14 734.04 644.08 732.76 647.28C731.06 651.54 730.31 656.02 731.36 660.66C731.81 662.62 731.39 664.28 729.42 665.45C727.54 666.56 726.63 668.39 725.88 670.5C724.63 673.99 721.38 675.6 718.28 677.16C717.59 677.51 716.61 677.35 715.92 676.87C713.66 675.27 711.36 675.47 708.99 676.53C708.64 676.69 708.21 676.68 707.38 676.82C704.94 673.21 702.99 668.49 697.22 668.91C696.47 669.18 695.72 669.44 695.12 669.66C693.04 669.3 693.19 666.1 690.72 666.57C690 667.37 690.29 668.17 690.76 668.84C692.41 671.2 692.2 673.74 691.58 676.34C690.94 679.07 690.62 681.66 692.31 684.29C693.65 686.38 692.91 688.75 691.86 690.82C690.72 693.07 690.07 695.35 690.42 697.86C690.68 699.71 690.08 701.18 688.63 702.38C687.95 702.94 687.21 703.62 686.92 704.4C685.22 708.85 682.05 712.47 680.01 716.72C678.08 720.75 674.5 722.77 670.63 724.44C669.33 725 668.26 724.38 667.22 723.69C664.52 721.88 661.5 721.1 658.46 720.78C657.57 721.39 657.75 722.2 657.6 722.89C656.8 726.59 654.45 729.03 651.21 730.76C649.96 731.43 648.71 731.28 647.43 730.9C646.41 730.6 645.37 730.43 644.23 730.72C643.5 732.34 643.88 734.06 643.89 735.73C643.89 739.45 642.87 742.64 639.59 744.75C638.01 745.77 637.26 747.43 636.21 748.87C634.98 750.57 633.5 751.14 631.57 750.11C629.83 749.18 628.2 749.33 626.49 750.32C623.89 751.82 621.55 751.28 620.48 748.51C619.18 745.15 615.9 743.52 614.27 740.52C614.04 740.1 613.37 739.8 612.85 739.68C606.69 738.32 602.58 734.22 598.96 729.44C598.57 728.92 598.23 728.22 597.69 727.99C594.05 726.4 592.29 723.89 593.78 719.58C590.86 719.04 587.71 719.41 586.85 715.26C585.01 718.23 583.89 720.79 580.68 721.57C582.18 727.92 578.22 729.88 573.4 731.18C571.74 731.63 570.8 732.79 570.8 734.58C570.8 736.68 569.57 737.63 567.66 737.97C566.46 738.18 565.27 738.42 564.06 738.62C562.57 738.87 561.44 739.61 560.99 741.07C560.26 743.46 558.55 744.59 556.24 745.1C554.81 745.42 553.38 745.8 552.35 747.12C551.55 749.32 552.03 751.88 550.73 754.1C549.26 756.61 546.84 756.37 544.72 756.43C543.62 757.34 543.37 758.51 542.72 759.44C542.58 759.64 542.45 759.85 542.31 760.04C541.78 760.73 532.81 766.16 531.92 766.23C530.11 766.37 528.7 767.17 527.52 768.54C525.79 770.56 523.66 771.34 520.97 770.75C519.15 770.35 517.26 770.28 515.41 770.05C513.53 769.81 511.72 769.44 510.53 767.71C510.05 767.02 509.31 766.7 508.46 766.56C506.98 766.33 505.71 765.6 504.56 764.65C503.02 763.39 501.53 762.42 499.26 763.06C497.43 763.58 496.08 762.03 496.31 759.91C496.58 757.41 495.78 754.81 497.25 752.35C496.29 752.95 496.02 753.97 494.76 754.29C494.2 754.09 493.38 753.8 492.62 753.53C491.25 753.76 490.33 754.53 489.41 755.35C487.43 757.12 486 757.08 484.17 755.12C482.52 753.35 481.12 751.34 479.15 749.78C477.33 754.04 474.98 757.81 471.98 761.18C470.48 762.86 468.67 763.48 466.5 763.09C461.95 762.28 457.35 761.67 453.14 759.56C452.27 759.12 451.32 758.84 450.31 759.16C450.16 759.21 449.97 759.28 449.83 759.24C446.82 758.19 443.76 757.51 440.59 757.08C439.06 756.87 438.65 755.01 438.44 753.54C438.21 751.94 437.66 750.56 436.29 749.61C432.14 746.72 429.14 742.77 426.37 738.63C425.53 737.38 424.62 736.35 423.14 735.81C421.02 735.04 420.54 733.08 420.21 731.22C419.39 730.65 418.73 730.8 417.99 731.26C417.69 732.71 419.73 734.13 418.35 735.54C417.3 736.61 415.94 737.38 414.78 738.24C414.63 739.45 415.63 740.1 415.86 741.72C414.36 746.32 411.92 751.13 409.61 756.03C407.23 761.08 403.19 763.78 398.49 765.99C396.78 766.79 395.51 766.21 394.06 765.13C389.19 761.53 385.09 757.04 380.34 753.3C379.47 752.62 378.88 751.57 378.2 750.67C376.54 748.46 374.97 746.19 372.69 744.53C371.1 743.37 370.39 741.67 369.98 739.77C369.31 736.71 369.25 733.52 368.22 730.51C363.16 731.73 358.2 736.12 353.26 731.79C349.46 728.46 344.28 725.63 345.09 718.85C341.89 719.94 339.33 721.3 336.91 722.88C332.17 725.98 326.74 727.08 321.39 728.45C320.22 728.75 319.19 728.3 318.18 727.66C315.57 726.01 312.92 724.42 310.27 722.85C308.2 721.62 307.06 719.91 307.31 717.43C307.71 713.43 306.54 709.78 304.16 706.7C302.16 704.11 300.7 701.81 303.74 699.25C302.96 697.11 301.53 695.72 300.68 694.12C299.7 693.68 298.96 694.15 298.17 694.3C293.92 695.12 289.11 692.96 286.97 689.21C285.42 686.5 283.57 684.06 281.26 681.96C280.08 680.88 278.89 679.38 280.24 677.95C282.58 675.48 281.96 672.68 281.63 669.92C281.25 666.77 280.48 663.7 278.66 660.98C276.64 657.96 276.81 656.59 279.41 653.95C280.01 653.34 280.67 652.78 281.41 652.1C278.35 651.47 274.62 653.22 273.71 655.7C272.98 657.68 271.75 658.75 269.63 658.99C267.34 659.25 265.3 660.34 263.2 661.21C261.4 661.95 259.59 662.7 257.76 663.36C254.12 664.67 250.78 664.44 247.86 661.5C246.73 660.36 245.24 659.57 244.03 658.49C241.94 656.61 239.99 654.65 241.12 651.37C241.43 650.46 241.19 649.42 240.67 648.54C239.3 646.27 239.31 643.9 240.15 641.5C240.84 639.53 240.77 637.69 239.62 635.91C238.5 634.18 238.6 632.29 239.3 630.51C240.46 627.57 240.52 624.68 239.52 621.7C238.72 619.32 239.17 617.17 241.17 615.54C243.05 614.01 243.3 612.13 242.34 610.09C241.01 607.27 241.62 604.89 243.72 602.76C244.42 602.05 245 601.27 245.21 600.28C245.67 598.18 246.57 596.3 248.16 594.53C246.49 590.8 247.81 587.8 250.71 585.59C251.02 584.24 250.9 583.19 250.71 582.15C250.36 580.32 250.8 578.71 252.23 577.52C253.43 576.51 254.1 575.37 254.15 573.78C254.2 572.04 255.28 570.62 256.12 569C253.78 568.67 251.86 569.19 250.11 570.33C247.79 571.84 245.33 572.18 242.64 571.58C239.63 570.92 236.66 571.41 233.71 572.13C229.63 573.12 224.85 571.21 222.49 567.72C221.35 566.03 220.24 564.33 218.81 562.86C217.41 561.43 217.49 559.94 218.77 558.53C221.3 555.74 222.95 552.77 221.59 548.82C221.09 547.36 222.02 546.28 223.11 545.24C226.83 541.69 230.09 537.81 230.89 532.46C231.06 531.3 231.8 530.58 232.69 529.97C233.62 529.34 234.59 528.75 235.44 528.2C236.43 525.47 234.94 522.67 236.34 520.14C237.87 517.38 240.82 517.88 243.54 516.97C243.99 512.72 245.67 508.98 249.74 507.18C250.13 505.27 250.06 503.75 249.96 502.11C248.06 501.28 246.23 500.63 244.17 501.65C242.76 502.35 241.32 502.25 239.98 501.39C238.32 500.32 236.69 500.38 234.9 501.21C230.78 503.14 229.01 502.62 226.55 498.8C224.88 496.2 223.29 493.55 221.75 490.87C220.36 488.47 221.08 484.88 223.53 482.39C225.02 480.87 226.35 479.43 225.71 477.09C225.67 476.94 225.68 476.74 225.75 476.61C227.65 473.4 229.36 470.05 231.59 467.08C232.42 465.97 233.66 465.13 234.12 463.69C234.79 461.58 236.17 460.23 238.33 459.69C240.03 459.27 241.22 458.37 241.64 456.53C242.19 454.15 244.17 453.06 246.32 451.96C246.78 449.4 248.55 448.09 251.1 447.58C252.27 447.35 253.02 446.48 253.63 445.44C254.66 443.67 256.17 442.54 258.28 442.26C259.4 442.11 260.66 441.87 261.04 440.58C261.8 438.02 263.55 436.93 266.1 436.79C266.57 436.77 267.03 436.54 267.8 436.31C268.14 432.12 271.1 431.74 274.46 432.26C275.72 431.17 277 430.27 276.85 428.32C274.99 427.41 273.14 426.46 271.24 425.6C270.18 425.12 269.25 424.5 268.5 423.62C267.41 422.35 266.03 421.84 264.37 421.96C263.72 422.01 262.83 422.21 262.46 421.88C258.93 418.71 253.42 417.53 252.34 411.89C252.14 410.85 251.91 409.82 251.71 408.78C250.92 404.69 251.61 403.18 255.22 401.22C255.94 400.83 256.76 400.53 257.11 399.75C257.82 398.2 259.13 397.49 260.64 396.98C262.93 396.21 264.55 394.79 265.3 392.38C265.99 390.19 267.39 388.57 269.61 387.71C273.19 386.33 276.6 384.7 279.31 381.82C280.33 380.74 281.85 380.13 283.4 379.13L283.45 379.1ZM251.14 546.02C253.34 545.77 255.36 544.9 257.42 544.21C267.58 540.84 277.01 536 285.79 529.89C288.38 528.09 290.96 526.19 294.26 525.87C294.46 525.85 294.68 526.01 294.84 526.06C295.03 526.74 294.11 527.02 294.52 527.9C294.91 528.19 295.49 528.62 295.84 528.88C295.84 529.91 295.92 530.57 295.83 531.21C294.84 537.68 291.61 543.48 290.4 549.92C289.74 553.46 286.3 556.12 286.63 560.14C286.67 560.57 286.32 561.05 286.11 561.48C283.25 567.53 279.6 573.18 277.4 579.6C276.42 582.46 274.61 584.97 273.79 588.09C272.86 591.64 270.26 594.73 269.91 598.62C269.71 600.84 268.09 602.64 267.71 604.72C266.33 612.29 264.19 619.74 263.81 627.47C263.72 629.36 263.12 631.2 263.17 632.55C266.1 629.87 269.83 627.47 272.16 624.09C276.62 617.62 282.25 612.11 286.58 605.52C290.16 600.05 295.23 595.58 299.02 590.22C302.19 585.74 305.97 581.86 309.43 577.67C310.55 576.32 311.64 574.89 313.43 574.02C317.21 578.49 312.78 583.37 314.08 586.77C311.7 597.33 308.44 606.67 307.9 616.78C309.38 615.76 310.44 614.44 311.64 613.27C316.7 608.35 320.17 602.22 324.43 596.69C326 594.65 327.36 592.2 330.33 591.13C330.82 593.87 332.72 595.99 332.41 598.7C332.06 601.81 331.44 604.92 330.79 607.93C329.97 611.71 327.85 615.21 326.29 618.83C321.42 633.26 311.12 644.48 303.47 657.32C304.13 659.98 303.37 662.74 303.98 665.81C306.79 662.29 310.01 659.69 312.19 656.08C315.51 650.59 320.42 646.29 324.07 641.02C324.61 640.24 325.38 639.58 326.47 639.72C329.27 643.61 329.97 648.13 327.83 652.62C325.37 657.79 325.1 663.51 323.21 668.81C323.01 669.38 323.04 670.17 323.28 670.73C323.93 672.29 323.71 673.83 323.08 675.21C321.7 678.25 323.72 681.5 322.28 684.4C324.88 690.21 323.97 696.75 326.53 702.9C336.71 692.98 344.76 682.06 350.98 669.83C352.47 666.91 353.97 663.92 355.51 661.07C357.5 657.38 359.68 653.83 361 649.82C361.41 648.58 362.02 647.39 363.63 647.1C364.65 647.27 365.37 647.93 365.98 648.88C367.69 651.55 367.41 654.38 366.91 657.28C366.72 658.39 365.87 659.43 366.23 660.56C367.17 663.52 365.73 666.25 365.44 669.08C365.12 672.22 366.07 675.48 364.69 678.54C364.56 678.82 364.87 679.31 365.01 679.69C365.29 680.4 365.42 681.23 365.09 681.83C364.06 683.72 364.23 685.52 364.98 687.43C365.19 687.98 365.15 688.81 364.88 689.34C363.25 692.5 366.02 695.56 364.63 698.61C365.66 698.81 366.1 698.71 366.25 697.93C366.83 694.72 370 692.53 369.8 688.95C369.77 688.44 370.71 687.89 371.19 687.34C371.61 686.85 372.25 686.4 372.38 685.83C373.47 681.07 376.81 677.38 378.48 672.9C379.35 670.56 381.39 670.2 383.42 671.73C385.05 672.96 386.16 674.64 386.31 676.63C386.66 681.35 386.89 686.1 386.27 690.83C386.16 691.69 385.74 692.47 385.99 693.45C386.96 697.11 387.39 700.8 385.52 704.23C386.52 706.49 387.97 708.73 387.41 710.87C386.46 714.53 388.03 717.53 388.88 720.77C389.15 721.79 389.4 722.81 389.67 723.83C390.54 727.18 391.41 730.53 393.77 733.41C394.99 731.73 396.87 730.23 397.23 728.43C398.06 724.25 400.21 720.55 401.09 716.43C401.7 713.58 402.14 710.66 404.6 708.59C405.01 708.25 405.11 707.39 405.14 706.77C405.2 705.14 405.84 703.73 406.82 702.54C407.87 701.26 408.35 699.93 408.16 698.29C407.86 695.65 408.73 693.32 410.24 691.22C410.77 690.48 411.13 689.72 411.33 688.81C412.49 683.3 414.58 678.12 416.87 673.01C417.69 671.19 418.92 670.07 421.01 670.36C423.2 670.66 424.83 671.69 425.26 674.04C425.61 675.95 425.81 677.9 426.29 679.78C426.98 682.54 426.68 685.6 427.62 688.08C428.94 691.59 430.07 694.91 429.34 698.53C431.85 701.58 433.18 704.92 433.65 708.61C433.77 709.57 434.26 710.28 435.06 710.77C436.82 711.85 437.77 713.51 438.44 715.39C439.01 717 439.61 718.68 440.82 719.88C445.12 724.16 448.43 729.32 452.94 733.45C453.3 732.8 453.02 732.26 452.65 731.85C451.01 730.05 450.91 728.13 451.99 726.01C452.53 724.95 452.06 723.95 451.52 723.01C450.23 720.77 449.9 718.46 450.91 716.02C451.29 715.11 451.62 714.08 451.12 713.19C449.82 710.88 450.31 708.66 451.19 706.4C451.48 705.64 451.9 704.81 451.61 704.04C450.12 699.97 452.83 695.94 451.64 691.84C451.27 690.56 452.11 689.26 453.46 688.71C454.72 688.2 456 688.29 457.12 689.22C459.78 691.42 462.55 693.49 463.63 697.05C463.99 698.24 464.79 699.3 466.3 699.75C469.07 687.74 476.91 679.69 485.91 672.77C487.76 673.37 488.65 674.23 488.79 675.54C489.08 678.38 489.03 681.41 487.94 683.9C486.45 687.31 485.11 690.74 484.47 692.74C483.81 698.78 483.33 703.26 482.81 707.98C484.74 710.21 483.77 713.05 483.76 715.66C486.53 719.32 486.13 724.58 490.31 727.56C491.4 724.33 491.59 720.86 493.62 717.98C493.55 716.32 493.93 714.68 494.45 713.04C495.66 709.2 497.34 705.49 497.13 701.29C497.06 699.85 497.91 698.5 498.69 697.25C499.27 696.32 500.11 696.02 501.2 696.23C506.44 697.25 509.95 703.12 508.25 708.33C508.53 709.03 508.98 709.83 509.17 710.69C509.94 714.18 510.87 717.9 509.52 721.2C508.37 724.03 509.2 725.95 510.68 727.86C511.85 729.37 512.59 730.83 512.26 732.45C516.47 736.4 517.38 741.77 519.46 746.81C527.13 741.97 533.79 736.41 538.55 728.06C538.64 726.57 539.35 724.65 540.68 722.91C541.93 721.28 542.56 719.32 542.98 717.32C543.78 713.51 544.56 709.7 544.57 705.76C544.57 704.6 544.72 703.34 545.84 702.6C547.43 703.16 547.45 704.64 548.06 705.76C549.17 704.15 549.37 702.52 548.26 700.89C552.24 700.37 552.98 696.07 556.1 694.62C558.69 699.64 559.31 705.21 560.29 711.02C563.01 708.32 565.72 705.87 566.86 702.45C567.73 699.86 569.93 697.86 569.94 694.93C569.96 690.32 572.46 686 571.5 681.26C571.39 680.71 571.86 680.04 572.1 679.43C572.38 678.72 572.49 677.92 572.2 677.28C570.58 673.61 573.51 670.6 573.63 667.19C573.66 666.42 574.52 665.95 575.23 665.86C577.46 665.58 579.72 664.58 582.18 666.01C584.19 671.18 589.5 674.45 591.29 680.27C593.69 681.12 595.24 682.97 595.59 685.72C595.72 686.74 596.36 687.29 597.06 687.84C599.78 690 601.72 692.79 603.46 695.75C604.57 697.64 605.29 699.81 606.91 701.32C610.09 704.28 612.67 707.61 614.09 711.82C615.73 712.4 617.15 713.38 618.91 714.5C618.36 712.44 618.61 710.76 618.89 709.23C617.097 706.003 616.364 703.29 616.69 701.09C614.04 696.46 613.07 690.95 609.53 686.64C608.36 685.21 608.6 683.28 610.03 681.98C611.47 680.66 613.25 680.53 615 681.56C615.9 682.09 616.72 683.12 617.64 683.21C621.47 683.58 623.27 686.7 625.87 688.77C628.39 690.78 630.5 693.15 632.66 695.97C632.85 694.28 632.66 693.17 632.36 692.06C631.9 690.42 631.09 688.78 631.46 687.08C631.81 685.47 631.37 684.25 630.47 683.02C628.9 680.88 628.5 678.65 629.9 676.22C631.37 673.67 633.18 671.95 636.43 672.95C637.53 673.34 637.85 674.62 639.17 675.47C641.51 674.96 643.38 676.64 645.4 677.99C646.34 678.62 647.4 679.01 648.5 679.36C652.03 680.48 655.05 682.89 657.81 684.96C660.94 687.3 664.8 688.63 667.27 692.04C668.95 687.64 666.96 683.13 669.31 679.26C669.43 679.06 669.28 678.61 669.14 678.33C667.87 675.77 667.96 672.93 667.89 670.23C667.83 668.07 666.91 666.46 666.28 664.58C665.12 661.16 663.51 658 662.11 654.73C660.23 650.36 657.08 647.32 654.23 643.88C652.87 642.24 650.74 640.86 651.52 638.32C651.84 637.27 651.96 636.21 652.13 635.01C655.24 633.63 658.67 633.79 661.66 634.07C667.32 634.6 672.44 637.87 678.26 638.27C678.85 638.31 679.52 638.73 679.95 639.17C682.81 642.13 686.95 642.34 690.41 644.42C690.58 639.83 689.24 635.78 688.24 631.72C687.16 627.33 685.42 623.14 683.43 619.05C682.39 616.9 683.19 614.57 685.08 613.19C686.77 611.96 688.22 612.68 689.75 613.69C695.5 617.48 699.51 622.91 703.52 628.3C705.58 631.07 707.96 633.47 710.56 636.39C710.45 625.52 709.03 615.51 704.86 604.5C702.42 601.16 702.18 594.85 698.02 590.63C696.53 588.31 699.36 586.68 698.85 584.72C699.86 583.47 700.83 584.83 701.36 584.57C702.77 584.02 703.84 582.91 704.9 583.58C709.02 586.16 714.48 584.61 718.28 588.05C718.5 588.25 718.88 588.28 719.19 588.35C721.43 588.86 723.52 589.68 725.24 591.35C728.82 591.04 731.3 592.8 732.91 595.67C736.17 595.66 739.25 595.16 741.79 597.53C741.66 596.7 741.53 595.95 741.13 595.42C738.14 591.54 736.38 586.95 733.17 583.07C729.89 579.09 726.21 575.46 723.05 571.38C720.76 568.42 716.85 567.14 715.82 565.26C706.79 558.12 698.61 552.62 689.7 546.91C688.66 546.89 687.12 546.06 685.54 545.17C683.16 543.83 680.98 542.15 678.29 541.3C676.39 540.69 674.89 539.36 674.97 536.86C676.57 535.75 674.81 533.71 675.95 532.3C677.07 532.08 678.56 532.61 678.53 531.12C691.49 529.9 704.24 531 717.75 531.17C715.21 529.2 714.41 526.94 713.7 524.59C710.7 524.68 709.46 522.75 708.46 520.49C708.08 519.62 707.94 518.42 706.96 518.08C704.46 517.21 703.38 515.21 702.47 512.98C702.19 512.29 701.71 511.73 701.05 511.36C698.52 509.93 696.83 507.63 694.81 505.64C692.15 503.03 689.94 499.93 686.5 498.06C682.32 495.79 681.42 492.36 683.63 488.58C683.74 487.84 682.8 487.31 683.29 486.4C684 485.68 684.82 484.9 686.13 484.76C687.53 485.95 689.43 485.52 691.12 485.99C693.58 486.67 695.99 488.18 698.62 487.71C701.21 487.24 703.45 487.48 704.78 488.87C712.93 489.74 720.34 491.12 728.15 491.31C726.27 489.69 725.97 487.48 725.26 485.47C723.88 485.51 722.46 486.35 721.47 485.06C719.1 481.97 715.49 479.98 713.88 476.36C707.21 474.22 705.77 470.57 709.32 464.91C719.59 464.14 729.95 465.11 741.05 464.15C736.49 461.78 734.39 457.78 731.5 454.63C728.59 451.47 725.39 449.1 722 446.73C721.34 446.27 720.63 445.73 720.24 445.06C718.57 442.21 714.81 441.47 713.47 438.31C713.39 438.12 713.1 437.92 712.89 437.9C710.17 437.67 708.6 435.84 707.29 433.81C705.57 433.45 703.78 433.4 702.63 432.21C700.56 430.07 698.36 428.41 695.48 427.29C692.7 426.22 689.85 424.72 688.48 422.11C683.49 421.79 679.82 418.29 675.11 418.21C674.37 418.2 673.64 417.27 672.93 416.72C672.41 416.31 671.91 415.9 671.22 415.86C668.85 415.7 666.88 414.65 665.18 412.97C662.48 413.52 660.63 411.94 658.47 410.78C654.81 408.82 650.89 407.34 647 405.87C645.17 405.18 644.15 404.09 643.92 402.22C643.68 400.24 645.09 399.3 646.5 398.47C649.3 396.82 652.34 395.67 655.36 394.47C660.11 392.59 664.94 390.87 669.34 388.21C671.4 386.96 673.48 385.7 674.79 383.08C667.88 378.02 659.89 375.52 652.13 372.79C651.82 370.78 651.54 369.12 652.64 367.39C657.27 366 662.02 364.91 666.93 364.16C671.78 363.42 676.82 363.7 681.47 362.12C677.76 357.42 671.23 356.92 667.55 351.93C663.57 353.02 661.26 350.22 658.91 347.66C655.18 347.56 652.31 345.85 649.75 343.21C646.94 343.65 644.55 342.69 642.55 340.64C642.08 340.16 641.45 340 640.78 339.91C636.64 339.37 632.8 337.45 628.55 337.29C627.37 337.25 626.3 336.13 625.05 336.5C622.12 337.36 618.82 336.17 616.31 338.41C614.61 337.17 612.37 336.89 612.11 334.49C618.89 325.81 628.17 320.34 637.22 314.54C634.25 312.94 631.38 312.53 628.51 312.18C623.95 311.61 619.33 311.41 614.88 310.06C614.45 309.93 613.9 310.08 613.44 310.22C611.65 310.76 609.9 310.58 608.19 309.91C606.93 309.41 605.66 309.2 604.44 309.93C602.43 311.13 600.33 311.33 598.29 310.64C594.96 312.27 591.78 313.82 588.49 315.42C587.61 315.03 586.48 314.98 585.94 313.59C586.86 310.82 587.82 307.89 588.83 304.83C579.82 305.74 571.78 308.87 563.34 312.1C559.66 314.93 554.67 316.3 550.62 318.97C548.58 318.04 546.56 317.69 546.49 315.03C549.26 310.74 551.04 305.7 554.83 301.73C558.5 297.89 561.58 293.48 565.24 288.92C560.88 289.25 557.2 290.6 553.39 290.96C550.7 291.22 548.48 293.15 545.75 292.83C544.37 292.67 543.27 293.01 542.06 293.59C538.22 295.44 533.98 296.16 529.98 297.58C526.51 298.81 523.06 300.33 519.27 300.9C516.42 301.32 514.56 301.09 513.07 298.03C523.18 289.28 535.83 284.12 546.67 275.46C534.99 274.55 524.24 276.06 513.53 279.71C512.58 280.38 511.44 281.3 510.2 282.06C508.96 282.82 507.06 283.09 506.45 284.15C504.98 286.74 502.13 287.71 500.45 290.02C499.06 291.94 496.5 292.09 495.07 290.74C493.9 289.64 492.86 288.39 491.97 287.43C490.38 280.4 493.87 274.68 496.17 268.6C494.78 268.53 493.71 268.93 492.67 269.34C485.83 272.08 478.97 274.78 472.59 278.53C468.59 280.88 465.44 284.1 462.85 287.91C461.94 289.25 461 290.61 459.86 291.75C457.6 294.03 454.59 293.34 453.48 290.32C452.76 288.35 452.23 286.3 451.64 284.28C449.85 278.08 449.45 271.73 449.79 265.27C448.33 265.37 447.75 266.57 446.45 267.07H444.2C443.5 267.87 443.05 268.77 442.32 269.17C438.63 271.17 435.66 274.09 432.47 276.72C429.29 279.34 426.35 282.31 424.44 286.01C423.77 287.3 423.37 288.72 422.27 289.74C419.16 292.62 419.55 297.2 417.05 300.38C416.84 300.64 416.93 301.18 416.96 301.58C417.21 304.71 416 307.18 413.91 309.48C410.75 312.97 406.02 313.49 402.4 310.44H400.53C398.89 309.95 398.64 308.01 397.14 307.85C393.68 307.46 391.07 305.3 388 303.6C385.42 303.86 382.67 303.91 380.23 302.22C379.86 301.96 379.29 301.91 378.82 301.91C375.85 301.89 372.97 299.92 369.91 301.45C369.68 301.57 369.24 301.43 368.97 301.29C367.41 300.48 365.84 300.64 364.27 301.22C362.89 301.73 361.58 301.57 360.31 300.77C358.65 301.95 356.71 301.57 354.87 301.84C355.62 304.64 358.68 306.1 358.51 308.91C365.27 310.46 368.38 316.74 372.86 319.13C375.39 324.04 376.05 328.08 371.43 330.75C369.61 331.8 367.47 331.77 366.05 329.49C364.72 330.66 363.39 330.87 361.84 330.47C356.81 329.14 351.71 328.76 346.52 329.34C341.49 329.91 336.44 330.31 331.41 330.83C327.92 331.19 324.43 331.62 320.61 331.38C321.04 332.3 321.26 332.91 321.59 333.44C323.9 337.08 325.57 340.99 329.21 343.91C331.82 345.99 332.67 350.07 335.96 351.98C334.84 354.55 338.83 355.96 337.01 358.41C335.64 360.26 334.75 362.65 332.29 363.44C330.26 364.09 328.24 364.35 326.93 362.59C317.49 360.47 308.18 360.49 298.51 361.25C302.51 366.65 307.42 370.66 312.43 374.46C314.45 375.99 317.22 376.52 318.26 379.21C322.25 379.46 325.24 381.11 326.81 384.54C331.41 384.93 332.43 385.7 332.89 388.88C331.8 392.22 328.26 392.68 326.12 394.77C325.6 395.28 324.66 395.28 324.01 395.01C322.16 394.24 320.35 394.77 318.52 394.98C314.01 395.51 309.41 395.62 305.02 396.65C301.09 397.57 297.05 398.24 293.31 400.23C290.19 401.89 287.2 403.59 284.36 405.84C285.81 407.57 287.74 408.09 289.4 409.03C292.82 410.95 296.8 411.42 300.24 413.23C301.21 413.74 302.1 414.14 303.2 414.06C305.75 413.89 308.25 413.98 310.4 415.65C310.96 416.08 311.63 415.98 312.28 415.85C316.96 414.91 318.69 418.03 320.44 421.52C321.68 424 320.51 427.09 317.48 428.69C314.64 430.19 313.04 433.47 309.58 433.99C309.24 434.04 308.88 434.44 308.66 434.76C306.25 438.31 302.43 440.12 299.07 442.48C297.74 443.41 296.27 444.17 295.06 445.24C293.61 446.53 292.15 447.56 290.13 447.36C288.14 449.78 286.63 452.79 282.84 452.13C282.1 453.89 280.88 455.05 279.48 456.08C273.31 460.64 266.78 464.6 261.51 470.47C258.84 473.44 256.49 477.15 252.47 478.95C261.24 479.27 269.88 479.54 278.52 478.63C281.92 478.27 285.44 477.67 288.8 478.86C289.57 479.68 290.35 480.4 291 481.22C291.97 482.45 292.88 483.84 292.03 485.44C289.67 489.84 288.71 494.96 285.08 498.69C284.56 499.23 284.3 499.91 284.17 500.65C283.96 501.9 283.35 502.99 282.44 503.8C280.05 505.93 278.56 508.65 276.81 511.28C274.32 515.02 270.76 518.03 268.54 522.08C267.93 523.19 266.12 523.28 265.59 524.53C263.73 528.92 259.59 531.53 257.2 535.55C255.14 539 252.56 542.15 250.91 545.86C250.84 545.95 250.77 546.03 250.66 546.16C250.83 546.09 250.95 546.04 251.07 545.99L251.14 546.02Z" fill="#1D1D1D"></path>
<path d="M251.14 546.02C251.02 546.07 250.9 546.12 250.73 546.19C250.84 546.06 250.91 545.98 250.98 545.89L251.14 546.01V546.02Z" fill="#FFF1E7"></path>
<path d="M507.23 651.36C502.65 652.22 498.69 654.1 494.56 655.45C491.73 656.38 488.81 656.95 486.11 658.34C484.28 659.28 482.47 658.04 481.99 655.86C481.78 654.93 481.8 653.94 481.68 652.59C475.17 653.84 468.41 652.66 462.05 655.01C460.22 655.68 458.48 656.37 456.83 654.84C455.27 653.38 455.31 651.54 455.89 649.65C455.96 649.42 455.98 649.18 456.04 648.88C455.33 648.11 454.35 648.08 453.42 647.95C450.51 647.55 447.66 646.93 445.11 645.39C443.43 644.37 441.67 644.7 439.86 644.96C438.56 644.18 437.25 643.39 435.84 642.53C435.27 644.56 433.95 645.77 431.86 645.79C429.84 645.81 428.92 644.35 428.21 642.7C427.66 641.41 426.74 640.42 425.76 639.42C424.35 637.98 422.85 636.45 422 634.67C420.79 632.12 418.72 630.59 416.59 628.89C416.32 629.36 416.09 629.87 415.76 630.31C414.14 632.5 411.32 632.29 410.37 629.77C409.29 626.91 407.48 624.35 406.95 621.25C406.52 618.73 404.3 617.16 403.45 614.68C401.98 610.36 399.63 606.34 397.53 601.93C396.95 602.62 396.63 603.11 396.21 603.49C394.95 604.64 393.4 604.85 391.89 604.28C390.32 603.68 389.75 602.22 390.04 600.67C390.89 596.23 390.41 591.73 390.34 587.32C390.29 583.57 390.21 579.71 389.59 575.82C388.7 576.27 387.86 576.87 386.91 577.14C385.46 577.55 383.95 577.53 382.83 576.31C381.79 575.19 381.73 573.85 382.27 572.44C385.18 564.82 386.66 556.75 389.62 549.16C388.89 548.67 388.28 549.16 387.66 549.15C385.88 549.09 384.23 548.68 383.32 546.98C382.45 545.36 382.75 543.7 383.93 542.44C389.67 536.29 394.27 529.18 400.21 522.96C398.4 522.12 396.52 522.74 394.78 522.22C390.42 520.93 386.01 519.99 381.86 517.87C379.8 516.82 377.53 516.31 375.99 514.39C375.76 514.1 375.28 513.85 374.92 513.86C371.81 513.95 370.28 511.94 369.07 509.47C366.39 509.1 364.62 507.56 363.41 505.28C363.22 504.93 363 504.54 362.69 504.31C356.41 499.81 352.98 493.06 349.12 486.72C347.86 484.65 347.17 482.18 345.72 480.11C345.01 479.1 344.92 477.83 344.84 476.6C344.81 476.11 345 475.51 344.78 475.15C342.66 471.7 343.01 467.71 342.27 463.96C342.16 463.41 341.76 462.82 341.86 462.33C342.59 458.77 340.99 455.12 342.31 451.59C342.47 451.17 342.38 450.63 342.34 450.15C341.92 445.67 341.97 445.42 344.2 441.84C343.7 439.04 344.02 436.4 346.2 434.23C346.47 433.97 346.64 433.56 346.73 433.18C347.93 428.19 350.43 423.95 354.06 420.33C354.49 419.9 354.69 419.22 355 418.67C355.43 417.9 355.68 416.79 356.35 416.41C359.37 414.67 361.11 411.35 364.52 410.06C365.89 409.54 367 408.32 368.3 407.37C367.22 403.99 365.52 400.91 364.93 397.44C364.49 394.85 365.11 393.44 367.85 392.01C373.23 395.03 378.69 398.43 385.48 398.28C385.65 396.27 385.78 394.74 385.9 393.25C385.74 392.42 384.72 392.71 384.38 391.86C385.17 389.73 382.98 388.25 382.72 386.14C382.32 382.85 384.32 380.75 387.55 381.49C388.18 381.63 388.81 381.82 389.4 382.08C394.7 384.44 400.38 385.23 406.39 386.15C403.6 383.53 401.74 380.54 400.1 377.43C399.04 375.41 398.16 373.25 400.06 371.1C401.58 369.38 403.41 368.8 405.2 370.28C408.5 373.02 412.39 374.82 416.2 376.43C419.37 377.77 422.97 378.47 426.4 379.37C427.09 379.55 427.79 379.7 428.75 379.92C427.95 378.08 427.19 376.51 426.59 374.89C425.83 372.85 426.27 371.05 428.03 369.67C429.66 368.4 431.11 368.96 432.7 369.95C437.97 373.25 443.45 376.16 449.95 378.06C446.8 374.01 447.82 370.19 449.09 366C448.96 365.77 448.65 365.22 448.38 364.76C448.7 363.29 449.67 362.97 450.81 363.19C452.87 363.58 453.56 365.26 453.99 366.61C465.54 374.17 477.93 378.65 491.48 380.81C490.12 378.92 489.03 377.1 488.17 375.14C487.53 373.67 487.25 372.2 487.9 370.67C488.82 368.52 491.61 367.69 493.09 369.45C494.52 371.15 496.35 371.73 498.19 372.44C500.44 373.3 502.65 374.24 505.11 375.63C504.65 373.87 504.38 372.45 503.9 371.1C503.07 368.78 504.08 367.08 505.77 365.81C507.5 364.51 509.03 365.36 510.55 366.63C512.96 368.64 515.92 369.85 518.58 371.52C524.35 375.14 529.2 379.79 534.42 384.22C537.12 376.8 541.98 371.75 550.56 368.98C552.32 367.07 553.93 367.24 555.58 370.53C554.7 375.55 549.13 377.71 548 383.01C550.52 381.51 553.15 380.85 555.62 379.8C561.21 377.43 567.05 377.41 573 377.29C577.04 377.21 580.75 378.76 584.72 378.63C586.08 378.58 587.45 379.01 588.59 379.91C588.91 380.16 589.28 380.54 589.61 380.53C595.15 380.43 598.73 385.31 603.91 386.11C604.37 386.18 604.91 386.38 605.22 386.7C609.42 391.01 614.75 394.05 618.75 398.58C619.49 399.42 620.05 400.44 620.66 401.39C620.88 401.73 620.89 402.3 621.17 402.47C624.64 404.54 625.61 408.41 627.73 411.44C628.53 412.58 629.24 413.76 629.8 415.01C633.2 422.55 634.99 430.57 636.56 438.64C634.87 443.12 637.31 447.69 635.86 452.44C634.66 456.36 633.48 460.41 632.62 464.42C631.9 467.74 629.78 469.93 628.67 472.69C626.25 478.72 620.61 482.14 617.75 487.68C617.36 488.43 616.66 488.92 615.92 489.24C614.3 489.93 612.92 490.85 612.19 492.53C612.13 492.67 612.01 492.85 611.88 492.9C608.46 494.03 606.72 497.69 603.18 498.66C602.12 498.95 601.54 499.93 600.54 500.67C601.82 502.85 603.18 504.95 605.34 506.31C606.86 507.26 608.01 508.34 607.48 510.21C606.97 512.03 606.11 513.7 603.66 513.76C608.1 518.09 609.93 524.03 613.79 528.63C615.01 530.08 615.18 532.16 616.65 533.62C617.72 534.68 616.69 536.07 616 537.16C615.28 538.28 614.17 538.96 612.79 539.49C615.24 548.01 615.58 556.9 617.95 565.55C617.04 569.45 615.59 570.38 611.61 569.49C611.31 572.53 611.14 575.55 609.83 578.44C608.75 580.83 609.1 583.55 608.99 586.13C608.93 587.61 609.04 589.11 608.34 590.4C607.49 591.97 607.89 593.55 608.02 595C604.85 599.39 603.71 599.53 600.31 595.84C597.97 599.93 594.81 603.4 592.78 607.59C591.48 610.26 589.4 612.32 587.67 614.64C586.66 615.99 584.94 616.32 583.09 616.67C582.7 619.56 579.62 620.21 578.16 622.31C576.06 625.34 573.33 627.79 570.88 630.5C569.95 631.52 568.97 632.5 567.99 633.48C564.13 637.31 562.78 637.33 558.96 633.67C555.73 636.08 552.05 637.8 549 640.53C546.77 642.53 544.42 644.39 542.24 646.48C538.99 649.59 536.62 649.5 533.87 646.21C529.66 648.77 525.08 650.74 520.72 653.12C517.68 654.78 514.29 655.73 511.51 658C509.87 659.34 507.19 657.62 506.82 655.37C506.61 654.09 506.97 652.84 507.26 651.4L507.23 651.36ZM506.69 631.91C509.24 630.31 511.75 630.31 514.44 630.06C517.62 629.76 521.03 628.81 524.12 627.86C535.81 624.26 546.56 618.66 556.05 610.69C559.3 607.96 563.03 605.8 565.86 602.53C566.37 601.94 567.19 601.61 567.9 601.21C568.91 600.64 569.83 599.96 570.46 599C572.88 595.27 576.21 592.27 579.04 588.9C582.32 585.01 583.8 579.98 587.62 576.56C587.97 576.25 587.99 575.51 588.07 574.96C588.69 570.64 591.14 566.91 591.76 562.51C592.15 559.72 592.92 556.95 592.63 554.13C592.46 552.48 592.34 550.9 592.79 549.31C593.28 547.59 592.93 546.06 592.36 544.38C591.48 541.8 590.47 539.18 590.8 536.33C590.9 535.49 590.73 534.65 590.19 534.03C588.39 531.93 587.82 529.3 586.8 526.84C585.19 522.97 582.19 519.84 580.65 515.89C580.49 515.48 580.03 515.09 579.61 514.9C577.84 514.07 576.95 512.65 576.53 510.79C576.28 509.68 575.61 508.74 574.91 507.82C569.55 500.92 571.04 493.48 578.6 489.14C579.72 488.5 580.98 488.04 581.75 486.92C583.28 484.71 585.52 483.42 587.77 482.08C593.21 478.83 598.31 475.24 602.86 470.67C605.63 467.89 606.9 464.03 610.24 461.85C610.46 459.3 611.34 457.09 613.14 455.41C612.87 453.8 612.54 452.33 613.23 450.94C614.5 448.41 614.62 445.86 613.84 443.15C613.58 442.25 613.61 441.16 613.87 440.26C614.41 438.32 613.91 436.58 613.25 434.81C611.95 431.32 611.88 427.37 609.28 424.36C609 424.03 608.92 423.44 608.92 422.97C608.93 421.98 608.51 421.24 607.82 420.63C606.07 419.08 604.85 417.21 604.35 414.82C602.41 414.26 601.2 412.84 600.2 411.24C598.44 408.42 594.77 407.73 593.11 404.8C593.02 404.64 592.68 404.54 592.45 404.53C589.72 404.4 587.81 402.81 586.18 400.88C582.3 401.16 579.29 398.38 575.27 398.69C571.12 399.01 566.95 398.11 562.62 398.73C556.82 399.56 551.48 401.25 546.65 404.39C544.19 405.99 541.83 407.31 538.82 406.75C536.7 406.36 534.61 407.98 532.63 407.11C530.89 406.34 529.19 406.34 527.43 406.33C525.63 406.33 523.87 406.1 522.44 405.38C518.2 405.83 514.14 406.02 510.28 407.25C505.25 408.86 499.96 410.15 496.38 414.49C494.37 416.94 492.04 417.39 489.21 416.48C485.52 415.3 481.78 414.42 477.97 413.64C470.53 412.12 463.04 411.66 455.53 411.17C447.45 410.64 439.6 412.19 431.8 414.05C431.36 414.16 430.93 414.47 430.58 414.79C427.87 417.22 424.76 417.49 421.46 416.43C420.47 416.11 419.61 416.08 418.63 416.41C417.22 416.89 415.74 416.92 414.32 416.41C412.96 415.92 411.65 415.91 410.28 416.35C409.03 416.76 407.72 416.85 406.46 416.31C405.68 415.97 404.87 415.95 404.07 416.14C397.92 417.55 391.29 417.48 385.21 421.26C382.46 422.97 378.78 424.91 375.61 427.63C373.05 429.83 371.31 432.58 369.25 435.04C368.06 436.47 367.45 438.72 366.11 440.4C366.58 442.32 366.11 443.96 364.88 445.43C364.39 446.01 364.38 446.78 364.45 447.53C364.84 451.69 363.42 455.78 364.11 460.01C364.36 461.54 364.05 463.19 364.76 464.71C365.22 465.69 365.27 466.75 365.22 467.81C365.17 468.71 365.17 469.59 365.81 470.35C367.24 472.06 367.99 474.12 368.79 476.17C371.13 482.13 375.6 486.61 379.77 491.22C381.54 493.18 384.54 493.96 385.92 496.39C388.76 496.79 391.18 497.62 392.36 499.36C399.91 501.66 407.19 501.97 414.85 503.18C413.03 503.78 411.68 504.22 410.33 504.66C412.91 504.97 415.44 504.85 417.95 505C424.93 505.42 429.71 509.53 430.47 515.73C430.97 519.82 427.09 522.63 427.19 526.62C424.34 528.7 424.08 532.86 420.66 534.47C420.87 538.09 418.31 540.25 416.52 542.81C416.25 546.04 414.79 548.83 413.2 551.84C414.29 555.01 412.15 557.71 411.19 560.55C413.51 564.37 411.47 567.66 410.32 571.16C413.19 574.5 412.02 578.6 412.11 582.48C416.02 585.81 415.22 591.12 417.58 595.26C419.9 599.33 423.96 602.42 424.68 607.4C427.32 608.99 429.75 610.96 431.16 613.59C433.36 617.69 438.23 618.38 440.86 621.83C441.04 622.07 441.62 622.03 442.01 622.09C445.11 622.59 447.99 623.57 450.24 626.08C453.54 625.52 456.48 626.51 459.14 628.44C460.02 629.07 461.01 628.95 461.97 628.84C464.07 628.6 466.02 628.89 467.72 630.24C468.56 630.9 469.52 631 470.49 630.7C472.09 630.2 473.61 630.47 474.91 631.4C476.7 632.69 478.47 632.69 480.41 631.85C481.97 631.18 483.58 631.12 485.09 632.03C486.82 633.08 488.59 633.09 490.46 632.41C492.08 631.82 493.85 631.37 495.47 632.05C497.23 632.78 498.78 632.53 500.38 631.82C502.47 630.89 504.55 630.43 506.71 631.94L506.69 631.91Z" fill="#1D1D1D"></path>
<path d="M527.91 581.97C525.69 583.7 523.1 583.03 520.75 583.48C512.11 585.14 503.4 586.25 494.85 588.54C488.73 590.18 482.47 591.37 476.38 593.21C470.33 595.04 464.22 596.6 458.04 597.93C457.05 598.14 456.32 597.59 455.24 597.72C452.2 599.77 449.06 597.45 445.87 597.35C441.78 597.23 438.31 594.97 434.96 592.71C432.86 591.29 431.55 587.8 432.32 585.36C433.32 582.2 436.36 581.33 439.02 583.33C443.74 586.89 449.11 588.79 454.99 588.81C458.39 588.81 461.6 587.42 464.84 586.45C479.13 582.15 493.8 579.56 508.42 576.7C508.8 576.63 509.18 576.51 509.47 576.43C509.51 571.01 508.06 565.9 507.7 560.63C507.51 557.82 507.19 555.49 508.68 552.85C510.52 549.59 512.51 549.07 514.9 551.94C515.31 552.44 515.67 552.98 516.13 553.62C514.61 555.61 517.53 557.53 516.14 559.43C518.93 564.38 518.25 569.98 519.87 575.23C522.98 574.16 526.31 573.85 529.57 573.55C532.27 573.3 534.94 572.56 537.68 572.76C540.04 572.94 542.3 572.21 544.67 572.2C549.1 572.17 553.55 571.84 557.94 571.25C561.39 570.79 564.86 571.12 568.3 570.37C570.63 569.86 571.77 568.03 573.11 566.58C574.74 564.81 576.19 563.73 578.52 565.04C580.51 566.16 581.84 568.95 580.87 571.14C579.4 574.46 577.57 577.31 573.57 578.68C568.31 580.48 563.01 579.43 557.76 579.94C551.05 580.59 544.31 580.83 537.58 581.42C534.44 581.7 531.32 583.49 527.9 581.96L527.91 581.97Z" fill="#1D1D1D"></path>
<path d="M434.04 481.41C432.87 481.47 431.74 481.54 430.61 481.57C429.55 481.59 428.63 481.16 428.22 480.19C426.32 475.73 423.89 471.36 427.57 466.52C428.86 464.83 429.23 462.54 429.72 460.43C430.1 458.79 431.08 457.49 432.14 456.27C434.79 453.2 437.27 449.94 440.24 447.2C444.58 443.18 448.81 438.9 454.86 437.28C457.77 436.5 460.7 436.71 463.52 437.21C465.9 437.63 467.39 439.58 468.26 441.91C469.17 444.35 468.68 446.23 466.61 447.93C464.24 449.88 461.82 451.58 459.08 453.08C454.97 455.34 451.08 458.08 447.69 461.63C444.45 465.01 442.93 469.49 439.53 472.63C439.2 472.94 438.88 473.46 438.87 473.89C438.79 477.29 436.29 479.12 434.04 481.41Z" fill="#1D1D1D"></path>
<path d="M519.56 438.88C518.62 433.45 523.46 430.87 528.59 431.22C537.24 431.81 544.65 435.54 551.64 440.54C556.32 443.89 559.94 448.17 563.69 452.35C566.24 455.19 566.37 459.18 566.12 462.72C565.98 464.66 563.79 466.27 561.54 466.94C559.51 467.55 558.08 466.71 556.88 465.19C556.26 464.41 555.57 463.81 554.5 463.68C553.96 463.62 553.33 463.32 553.15 462.74C551.83 458.51 547.84 456.47 544.8 454.31C540.16 451.01 535.74 446.69 529.38 446.18C527.66 446.04 525.77 445.43 524.07 444.79C521.29 443.74 518.88 442.2 519.57 438.87L519.56 438.88Z" fill="#1D1D1D"></path>
<path d="M487.29 483.85C487.42 485.14 486.74 486.19 485.85 487.2C482.46 491.02 477.94 492.46 473.17 493.59C470.51 494.22 467.77 493.99 465.12 494.98C462.44 495.98 457.59 494.01 456.73 491.92C455.88 489.86 456.18 485.23 459.23 482.94C464.08 479.3 469.32 477.27 475.48 477.02C478.05 476.91 480.42 477.45 482.87 477.67C485.11 477.87 487.23 481.05 487.29 483.85Z" fill="#1D1D1D"></path>
<path d="M528.21 473.07C532.89 471.86 537.21 473.43 541.58 474.57C544.43 475.32 547.29 478.8 547.32 481.46C547.35 484.06 545.13 486.42 541.92 487.45C537 489.03 531.96 488.13 526.97 488.23C523.88 488.29 520.97 487.68 518.26 486C514.72 483.8 514.23 480.54 516.71 477.25C519.73 473.24 524.28 474.02 528.22 473.07H528.21Z" fill="#1D1D1D"></path>
<path d="M507.17 545.91C506.09 546.65 505.3 547.2 504.74 547.58C501.19 548.76 498.55 547.19 495.98 545.44C491.52 542.41 487.25 539.21 485.73 533.61C485.17 531.53 485.51 529.73 487.15 528.3C488.8 526.87 490.71 526.37 492.79 527.28C498.56 529.8 503.91 532.91 507.61 538.23C508.63 539.69 508.93 541.34 508.72 543.28C508.12 544.02 507.24 544.78 507.16 545.91H507.17Z" fill="#1D1D1D"></path>
<path d="M526.47 523.95C532.56 525.7 532.33 530.08 530.56 535.03C529.52 537.95 527.28 540.14 525.84 542.86C524.51 545.39 521.69 547.02 518.91 547.79C514.67 548.96 511.77 545.32 512.78 540.58C513.91 535.25 516.77 530.89 520.32 526.94C521.88 525.2 524.06 524.43 526.47 523.95Z" fill="#1D1D1D"></path>
</svg>