<svg width="500" height="500" viewBox="0 0 500 500" fill="none" xmlns="http://www.w3.org/2000/svg">
<g clip-path="url(#clip0_49_5725)">
<rect width="500" height="500" rx="250" fill="#1D1D1D"></rect>
<path d="M205.223 288.598C209.356 291.478 213.754 293.879 218.463 295.835C214.775 291.605 210.758 287.726 206.787 282.878C215.704 283.513 223.536 285.452 230.629 289.954C232.32 291.304 233.879 292.851 236.534 294.005C234.889 292.118 233.694 290.791 232.153 289.821C228.09 286.312 223.629 283.392 218.965 280.76C217.361 279.854 216.097 279.577 216.085 282.509C210.574 275.45 203.515 271.023 196.439 266.504C203.048 268.444 208.894 271.947 214.798 275.571C213.748 270.158 205.893 264.652 183.846 253.726C186.495 253.12 188.567 255.221 191.724 255.221C179.258 245.975 165.677 240.764 151.37 237.18C151.358 236.926 151.341 236.672 151.324 236.418C168.938 239.811 184.712 247.233 199.412 257.466C206.753 262.58 214.608 267.018 222.168 272.039C220.316 261.489 181.768 236.758 161.025 232.684C161.429 232.482 161.828 232.28 162.226 232.078C174.727 234.473 186.253 239.355 196.814 246.327C203.55 250.771 210.348 254.973 217.909 257.841C220.98 259.908 224.056 261.974 227.126 264.034H227.218H227.08C226.682 260.566 223.23 259.33 221.868 256.433C224.177 257.732 226.405 259.18 228.43 260.877C230.543 262.643 232.453 264.646 234.456 266.545C231.258 260.381 226.509 255.723 220.789 252.001C207.157 244.619 196.018 233.157 181.018 227.974C190.46 229.434 199.469 232.262 209.217 235.437C206.753 232.661 204.225 231.443 201.922 229.942C195.579 225.816 188.838 222.324 182.738 217.822C182.819 217.747 182.905 217.678 182.986 217.603C193.478 222.214 204.311 225.879 215.56 229.151C215.237 227.576 213.852 227.178 212.876 226.537C205.414 221.672 197.957 216.789 190.824 211.445C189.969 210.804 188.734 210.44 188.55 209.119L188.527 209.159C207.567 218.988 226.33 229.255 242.721 243.286C243.667 244.094 244.977 244.746 245.081 246.668C235.477 239.529 224.783 235.569 212.963 231.991C218.879 237.295 225.193 240.891 229.475 246.754C220.449 240.7 210.043 238.317 199.365 234.854C201.126 237.301 202.978 238.588 205.114 239.361C238.144 251.377 263.769 273.471 286.613 299.304C293.735 307.361 300.978 315.331 307.396 323.988C308.048 325.402 308.769 326.764 310.31 328.005C310.103 325.737 309.381 324.046 308.498 322.407C305.053 312.393 299.835 303.274 294.485 294.283C297.094 294.369 312.209 307.742 325.934 322.211C326.811 323.4 327.688 324.589 328.566 325.777C328.716 325.679 328.866 325.581 329.016 325.477C328.144 324.052 327.273 322.632 326.401 321.206C320.612 310.258 313.779 299.939 307.228 289.446C306.42 288.147 305.578 286.872 304.752 285.596C313.981 287.293 355.876 349.331 355.761 361.474C349.897 354.687 344.195 348.078 338.487 341.47C339.739 347.859 342.238 353.682 343.358 359.91C344.449 365.993 345.395 372.088 344.691 378.835C343.219 376.641 342.896 374.367 341.344 372.648C340.645 373.254 340.339 373.94 340.316 374.812C340.08 383.608 336.288 391.07 331.561 398.181C328.854 402.249 325.714 406.03 323.516 410.433C321.495 410.456 323.048 408.471 322.073 407.911C316.284 411.628 309.687 427.378 311.592 434.102C314.437 425.699 317.692 418.081 321.143 410.543C321.42 410.589 321.697 410.641 321.98 410.687V418.046C321.992 418.427 321.998 418.814 322.009 419.194C321.998 419.391 321.98 419.587 321.969 419.783C321.894 419.962 321.882 420.147 321.934 420.337C322.084 422.392 322.402 424.412 323.296 426.709C323.585 424.291 323.821 422.311 324.052 420.331C326.355 410.809 332.294 403.104 336.882 394.723C339.427 390.072 341.488 385.252 342.215 379.406C345.066 386.424 346.93 393.188 347.79 400.206C347.946 401.453 348.269 402.613 348.529 403.802C348.494 404.61 348.385 405.435 349.256 406.722V401.528C349.199 399.849 349.141 398.175 349.083 396.495L349.175 396.409L349.089 396.322C349.054 395.785 349.02 395.243 348.991 394.706L349.083 394.677L348.985 394.648C348.766 389.327 346.821 384.173 347.259 378.811C347.571 375.002 348.021 371.21 347.969 367.384C347.935 364.804 347.808 362.23 347.386 359.644C356.557 374.125 364.66 389.119 370.316 405.337C370.276 405.828 370.328 406.284 370.767 406.601C370.767 406.601 370.749 406.613 370.755 406.613C371.401 409.712 372.244 412.742 373.525 415.651C373.952 411.853 373.531 408.2 372.071 404.685C371.523 395.953 368.631 387.867 365.209 379.931C365.082 379.631 364.891 379.36 364.406 378.506C367.125 379.798 368.164 381.957 370.345 383.746C368.637 373.317 365.434 363.846 361.578 354.566C362.323 353.798 362.34 353.786 363.177 354.848C368.187 361.209 372.232 368.186 376.105 375.268C379.909 383.631 383.816 391.953 385.028 401.28C387.059 393.84 387.365 386.268 387.065 377.784C389.726 383.977 390.626 389.685 391.013 395.491C391.769 406.884 389.766 417.798 385.264 428.29C383.008 433.554 380.486 438.754 380.093 444.618L380.145 444.543C379.372 444.699 379.58 445.287 379.608 445.789C379.227 446.898 378.189 447.307 377.323 447.867C357.59 460.611 336.64 470.705 313.958 477.082C302.121 480.413 290.139 482.9 277.938 484.453C271.895 485.22 265.83 485.416 259.77 485.82C254.627 485.82 249.479 485.832 244.331 485.838C240.418 486.83 236.597 485.324 232.673 485.405C228.494 485.491 224.304 484.164 220.085 483.852C215.237 483.494 210.556 482.254 205.829 481.376C198.038 479.928 190.293 478.069 182.865 475.155C182.518 475.022 182.213 474.785 181.889 474.595C181.139 467.935 180.083 461.315 179.817 454.539C175.622 459.006 174.894 464.928 172.424 470.122C171.789 466.093 171.397 462.134 171.253 458.169C171.091 453.737 170.433 449.397 169.377 445.108C169.308 444.71 169.233 444.312 169.163 443.919C168.326 440.341 167.472 436.763 166.664 433.179C166.168 430.991 164.979 430.455 162.942 431.343C160.177 432.55 158.642 435.031 156.72 437.126C155.421 438.54 154.602 440.509 152.27 441.242C152.842 437.981 153.367 434.968 153.892 431.955C154.019 431.828 154.105 431.672 154.14 431.493C155.733 427.69 156.379 423.633 157.291 419.65C157.343 419.46 157.395 419.27 157.447 419.079C158.532 415.051 159.363 410.976 159.658 406.809L160.875 397.142C161.441 395.48 161.406 393.765 161.308 392.045C161.401 389.056 161.678 386.049 160.997 382.944C159.271 383.585 159.323 385.593 157.516 386.037C157.516 385.125 157.516 384.473 157.516 383.821C157.482 380.462 157.464 377.097 157.401 373.738C157.389 373.098 157.568 372.238 156.858 371.92C155.912 371.499 155.583 372.497 155.081 373C154.538 373.542 154.105 374.194 153.546 374.714C150.412 377.623 148.005 381.316 144.167 383.469L144.069 383.371C144.115 381.969 144.952 380.855 145.437 379.614C147.624 374.004 150.475 368.631 151.549 362.617C152.322 359.766 152.986 356.857 152.743 353.919C152.588 351.98 153.632 350.041 152.628 348.148C153.344 341.32 151.283 334.925 149.835 327.659C147.705 330.856 148.346 334.111 146.556 336.576C146.285 334.862 146.343 333.176 146.268 331.497C146.141 328.652 145.558 325.951 143.33 323.907C141.841 322.545 140.335 321.564 138.892 323.983C138.205 325.143 137.42 325.05 136.624 324.104C133.975 320.958 130.217 319.602 126.656 317.946C118.617 314.206 110.848 310.016 103.784 304.602C100.996 302.466 100.858 302.438 99.871 305.727C98.4743 310.408 97.2796 315.146 95.8656 320.341C96.2118 314.829 97.118 309.9 98.7455 305.202C99.7902 302.195 99.4266 300.048 97.4239 297.642C95.9868 295.916 95.6001 296.21 94.8729 297.976C92.9971 302.513 91.4157 307.147 90.0017 311.845C87.999 318.488 87.1795 325.379 85.5866 332.109C85.5693 332.178 85.5058 332.236 85.4654 332.299C85.5115 332.27 85.5519 332.236 85.5404 332.247C85.5808 331.439 85.6039 330.672 85.6558 329.904C86.4985 318.084 89.6901 306.847 94.0071 295.881C94.3823 294.923 95.1037 293.994 94.6074 292.874C93.5974 290.595 92.5412 288.332 91.5254 286.052C91.0406 284.967 90.4635 284.737 89.6785 285.77C89.2745 286.301 88.8821 286.843 88.4838 287.38C88.2992 287.207 88.1202 287.034 87.9356 286.855C88.328 285.527 89.1591 284.448 90.0825 283.478C91.3292 282.168 90.6193 281.187 89.6381 280.304C88.3049 279.098 87.8721 280.483 87.2603 281.251C78.4819 292.234 72.5892 304.642 69.0744 318.211C67.7527 323.313 67.1005 328.548 66.0501 333.707C66.1252 331.058 66.2348 328.409 66.6331 325.806C69.1032 309.45 75.0652 294.485 85.0037 281.233C86.8563 278.769 86.7351 277.332 84.438 275.479C83.0991 274.4 82.3545 274.094 81.2695 275.67C79.4746 278.278 77.5238 280.783 75.6481 283.334C75.0248 284.182 74.4534 285.071 73.7839 285.879C73.2068 286.578 73.1779 287.87 71.4984 287.945C74.136 282.693 77.1775 278.065 80.6981 273.753C82.6258 271.393 79.919 270.614 79.2091 269.257C78.4646 267.826 77.5585 269.119 77.0044 269.754C70.5461 277.124 64.3533 284.708 59.3148 293.146C56.0135 298.675 52.972 304.354 50.3864 310.275C50.3748 309.554 50.5133 308.902 50.7442 308.284C51.4195 306.489 52.0716 304.677 52.8508 302.922C58.5645 290.052 66.6215 278.734 76.0002 268.322C77.2295 266.955 77.3738 265.945 76.4907 264.317C73.9917 259.729 74.1302 259.769 69.8189 262.788C62.1429 268.161 55.5403 274.723 48.932 281.279L48.753 281.072C48.8858 279.825 49.8092 279.052 50.5364 278.18C55.9905 271.653 62.2929 266.037 69.1032 260.981C72.9586 258.124 72.8432 258.217 71.8158 253.663C71.256 251.175 70.3037 250.696 67.8855 251.331C55.7423 254.517 44.4706 259.763 33.4125 265.552C32.5352 266.014 31.7618 266.96 30.3478 266.522C31.3405 265.87 32.1889 265.269 33.0662 264.733C43.1951 258.563 53.9358 253.749 65.2652 250.258C70.1652 248.746 70.0959 248.751 69.6458 243.597C69.4957 241.86 68.8493 241.173 67.1352 241.37C66.0848 241.491 65.0228 241.445 63.9724 241.549C50.1036 242.87 36.7368 246.275 23.7279 251.193C22.9199 251.499 22.0888 251.735 21.2577 251.972C20.5305 252.18 19.7976 252.353 19.0646 252.537C34.1858 245.41 49.8958 240.619 66.6157 239.638C67.5507 239.581 68.9936 240.129 69.0398 238.438C69.0859 236.839 67.6892 237.053 66.7139 236.995C58.7204 236.522 50.7846 237.012 42.8719 238.259C34.2955 239.609 26.1346 242.559 17.7429 244.584C17.8064 244.434 17.8295 244.279 17.8064 244.117C18.903 243.776 20.0227 243.482 21.0961 243.078C35.9173 237.503 51.1136 234.173 67.0659 235.465C68.578 235.587 69.1436 235.183 69.1379 233.636C69.1263 231.524 69.0398 229.353 69.4784 227.316C70.1248 224.332 68.9301 222.751 66.4484 221.337C59.286 217.251 51.7196 214.284 43.6741 212.553C40.4767 211.86 37.239 211.335 34.0242 210.735C45.7923 210.994 56.81 214.007 67.0717 219.732C67.9547 220.223 68.9416 221.429 69.8593 220.69C70.7423 219.975 70.3557 218.532 70.1652 217.401C69.513 213.574 69.5188 209.736 70.0382 205.916C71.2964 196.647 76.5427 189.646 83.1337 183.493C96.3446 171.16 109.036 158.266 122.876 146.631C125.998 144.005 127.297 141.108 127.447 137.252C127.724 130.182 130.448 124.249 135.908 119.597C138.188 117.652 140.479 115.742 143.105 114.328C147.774 111.806 151.901 108.822 153.846 103.593C153.955 103.299 154.348 103.108 154.66 102.82C155.433 104.089 155.208 105.642 157.107 107.021C163.773 91.4788 170.9 76.3171 183.234 64.526C183.425 66.2863 183.263 68.3871 183.927 70.3725C184.25 71.3363 183.927 72.7734 185.012 73.1601C186.316 73.6276 186.483 71.9423 187.286 71.3652C187.384 71.2959 187.609 71.3883 187.69 71.3998C188.838 74.1759 188.047 77.3156 189.369 80.0974C191.482 78.5084 192.874 79.0143 193.548 81.6153C193.738 82.3598 194.015 83.0813 194.188 83.8258C194.812 86.5269 196.445 87.433 199.083 86.6885C212.646 82.8504 226.699 82.0424 240.551 80.0282C242.819 79.6992 245.133 79.653 247.823 79.4453C246.957 80.6342 245.214 80.8824 245.612 81.9905C246.097 83.3295 247.632 82.5792 248.717 82.6831C250.535 82.8562 252.359 82.9485 254.177 83.0986C270.066 84.3972 285.481 88.0274 300.66 92.7196C303.939 93.7354 306.588 93.4699 309.664 91.8943C320.526 86.3191 330.955 89.3722 341.638 93.8682C340.097 94.6704 338.706 94.2606 337.304 95.4611C342.619 98.2141 347.975 100.609 352.471 104.424C351.028 105.913 348.829 105.024 348.287 106.923C347.727 108.874 349.92 113.185 351.692 114.276C358.237 118.31 364.735 122.414 371.251 126.5C371.713 126.789 372.567 127.17 371.967 127.718C369.329 130.13 372.036 131.1 373.26 132.116C376.584 134.88 380.03 137.506 383.55 140.017C393.812 147.335 401.811 157.372 412.587 164.095C415.426 165.867 418.006 168.078 420.58 170.242C438.668 185.461 454.268 203.116 470.024 220.627C475.028 226.191 479.68 232.078 485.059 237.307C485.099 239.217 485.134 241.122 485.174 243.032C481.954 240.989 480.015 237.728 477.568 234.963C463.67 219.288 449.865 203.532 433.104 190.742C430.155 188.491 427.038 186.46 423.997 184.324C425.405 184.117 426.571 184.757 427.8 185.306C430.374 186.454 432.983 187.516 435.58 188.618C432.585 185.138 429.364 182.195 425.653 179.846C425.549 179.725 425.422 179.661 425.266 179.65C425.03 179.476 424.793 179.309 424.557 179.136C419.345 175.436 413.96 172.02 407.779 168.92C411.063 168.412 413.291 170.438 415.911 170.461C416.125 170.6 416.332 170.744 416.557 170.865C416.575 170.877 416.673 170.738 416.736 170.669C416.5 170.548 416.263 170.421 416.026 170.3C408.581 164.217 399.843 160.5 391.14 156.708C388.831 155.704 386.534 154.653 384.301 153.487C388.248 153.574 391.538 155.998 395.855 156.483C383.389 144.392 370.23 133.945 355.836 124.849C359.166 125.455 362.49 126.061 365.82 126.667C361.278 123.106 356.321 120.405 351.132 118.108C350.439 117.802 349.741 117.895 349.643 118.836C348.691 128.295 341.903 134.193 336.247 140.773C335.278 141.904 334.377 142.897 336.253 144.057C335.001 144.905 333.5 144.057 332.456 145.494C336.265 148.541 340.507 151.185 343.796 154.982C339.341 152.893 334.908 151.144 329.021 151.508C333.442 153.811 337.384 155.265 340.813 157.654C344.166 159.992 347.155 162.676 349.695 166.139C348.137 166.571 347.79 165.238 346.896 165.048C346.694 164.823 346.474 164.632 346.244 164.984C346.22 165.019 346.463 165.221 346.584 165.348C349.626 169.567 353.793 172.851 356.609 177.26C356.476 177.404 356.344 177.555 356.211 177.699C350.26 174.478 344.31 171.258 337.788 167.731C340.374 167.287 342.14 168.724 344.466 168.447C339.283 163.743 334.285 159.38 327.1 158.89C324.393 158.058 321.651 158.359 318.916 158.688C318.667 158.716 318.442 158.924 318.206 159.051L318.442 159.438C321.218 161.793 325.126 162.306 327.746 165.053C326.286 165.382 324.924 165.683 323.337 166.04C326.003 168.153 329.374 168.851 332.034 171.246C329.322 172.152 326.846 172.984 323.989 173.942C328.802 177.11 333.263 180.013 337.384 184.14C332.854 184.388 328.739 184.567 324.526 183.586C324.722 185.179 326.551 185.011 326.765 186.829C318.61 184.151 310.61 181.612 301.942 180.025C308.44 178.784 314.616 179.147 320.757 178.518C312.74 174.836 304.25 173.041 295.258 170.704C301.653 168.666 307.811 169.561 313.762 168.834C307.038 166.283 300.089 165.319 293.181 164.159C292.338 164.02 291.455 164.136 290.595 164.119C289.85 164.101 289.025 164.28 288.892 163.12C288.789 162.22 289.054 161.666 289.908 161.337C291.951 160.546 293.983 159.726 296.216 158.843C293.55 157.054 290.508 158.353 287.94 157.239C287.513 157.054 286.682 157.181 286.584 156.945C285.083 153.245 281.955 155.34 279.566 154.994C277.927 154.757 276.23 154.948 274.51 154.688C277.257 152.801 280.235 151.433 282.33 148.87C282.521 148.674 282.717 148.478 282.907 148.282C282.526 147.976 282.221 148.08 281.967 148.461C278.065 148.576 274.262 150.544 270.147 148.922C274.706 146.816 279.889 146.048 283.998 142.204C281.747 142.458 279.877 142.672 278.002 142.88C277.43 142.914 276.853 142.949 276.282 142.978C275.503 142.978 274.723 142.983 273.944 142.989C273.76 142.891 273.575 142.885 273.39 142.978C272.04 142.949 270.695 142.926 269.344 142.897C268.958 142.885 268.565 142.874 268.179 142.868C266.476 142.689 264.733 142.735 262.95 141.956C273.494 139.919 279.271 132.191 284.945 124.33C285.066 124.22 285.303 124.03 285.291 124.018C285.054 123.684 284.87 123.886 284.697 124.105C279.445 126.598 274.343 129.472 268.409 130.581C273.09 125.201 277.99 120.076 282.394 114.415C277.084 116.798 272.103 119.915 265.807 121.56C270.476 116.55 275.087 112.308 279.046 107.096C268.756 107.927 258.927 109.624 249.017 111.084C254.142 107.627 259.631 104.972 265.385 102.387C265.731 104.24 264.618 105.405 263.931 107.027C270.418 106.744 276.57 105.619 283.029 104.124C282.405 106.721 280.506 108.458 279.658 110.571C280.258 111.108 280.593 110.761 280.847 110.571C284.004 108.141 287.45 106.577 291.368 105.503C295.582 104.349 298.462 100.719 301.515 97.6716C302.888 96.298 301.255 96.1941 300.505 95.9401C294.144 93.7989 287.698 91.9289 281.147 90.4803C272.184 88.5007 263.129 87.1386 253.946 86.7173C253.715 86.6885 253.484 86.6654 253.259 86.6365C252.648 86.5846 252.036 86.5326 251.43 86.4807C246.414 86.1575 241.405 85.9901 236.412 86.7981C234.693 86.9135 232.973 87.0232 230.497 87.1906C232.973 85.2398 235.529 84.83 237.232 82.7812C221.51 84.149 206.32 87.179 192.122 93.6085C180.094 99.0625 168.494 105.469 156.766 111.581C152.778 113.659 149.125 116.406 145.073 118.339C140.369 120.584 138.28 124.757 136.047 128.941C135.718 129.016 135.544 129.207 135.648 129.553C135.666 129.605 135.862 129.663 135.891 129.634C136.098 129.432 136.312 129.218 136.018 128.924C140.254 127.649 136.347 131.469 138.234 131.775C139.134 130.534 140.225 129.034 141.576 127.175C141.841 129.057 140.704 130.465 141.535 132.046C146.008 127.718 149.8 122.789 154.908 119.193C153.367 123.072 149.644 125.652 148.201 129.299C146.014 134.823 141.356 137.581 137.362 141.125C133.126 144.882 128.567 148.264 124.29 151.981C112.614 162.127 101.776 173.174 90.4231 183.666C86.031 187.724 81.6504 191.718 78.3376 196.739C77.2872 198.326 76.3522 199.977 76.1848 202.199C78.3491 202.297 79.2957 200.386 81.0271 199.573C81.0617 201.466 79.5092 202.568 78.8166 204.53C80.0921 204.132 81.0213 203.838 81.9505 203.549C83.4107 204.328 80.8309 205.898 82.6662 206.706C83.1683 205.581 83.6589 204.49 84.1495 203.393C84.8363 203.434 85.6905 203.37 85.0671 204.478C84.6458 205.223 84.4842 206.031 85.171 206.556C85.8751 207.104 86.6427 206.498 87.3122 206.169C89.0148 205.327 90.7809 204.784 92.8644 204.49C90.5731 208.819 90.9656 209.425 95.7386 209.8C98.884 210.048 101.81 209.171 104.754 208.288C109.434 206.879 114.103 205.402 118.842 204.23C122.455 203.336 125.929 203.717 128.544 206.879C130.973 209.823 131.204 214.821 128.798 218.139C125.387 222.849 120.389 225.977 116.406 230.133C115.506 231.073 114.277 230.641 113.163 230.167C112.586 229.919 111.818 228.898 111.327 230.035C110.952 230.894 111.876 231.472 112.58 231.668C115.869 232.58 119.165 232.753 122.357 231.258C125.26 229.902 127.58 227.703 130.119 225.821C133.345 223.426 136.162 220.477 139.867 218.746C139.954 218.832 140.046 218.919 140.139 219.005C137.668 224.309 133.778 228.534 129.75 232.649C128.486 233.942 127.118 235.136 125.71 236.464C128.567 238.721 131.239 240.833 133.911 242.945C131.072 242.841 128.988 240.666 125.629 240.971C131.574 246.108 137.334 250.766 141.478 256.987C141.691 257.305 141.957 257.605 141.31 258.28C137.795 255.285 134.211 252.191 128.89 250.846C133.559 256.451 138.124 261.379 140.479 267.786C137.963 266.591 136.387 264.311 133.461 262.799C135.192 267.491 138.159 271.162 139.521 275.929C136.664 274.105 134.65 271.935 132.411 269.898C133.253 275.214 139.971 280.835 149.523 284.131C147.497 280.419 145.09 277.251 143.405 273.13C146.631 274.498 149.483 275.058 151.231 278.423C153.632 283.051 157.632 286.485 162.555 289.077C160.997 285.302 159.433 281.533 157.874 277.759C163.121 282.209 168.107 286.739 174.115 289.942C174.161 290.012 174.202 290.098 174.265 290.15C174.294 290.173 174.375 290.139 174.427 290.127C174.311 290.081 174.196 290.029 174.081 289.983C173.711 287.749 172.182 286.127 171.022 284.327C169.388 281.799 167.847 279.236 166.335 275.762C169.377 278.521 171.818 280.725 174.254 282.936C176.51 285.21 179.136 286.947 182.438 288.967C181.358 286.503 180.21 284.95 178.854 283.53C178.623 283.34 178.398 283.149 178.167 282.959L178.305 282.97C176.395 278.953 173.394 275.519 172.02 271.11C179.413 281.141 189.606 287.339 201.299 292.892C195.395 285.677 189.109 279.854 182.974 273.084C187.505 273.644 190.795 275.514 194.24 277.713C194.113 275.623 192.821 274.406 191.724 273.107C185.358 265.558 177.878 259.29 169.567 253.998C169.821 253.773 170.075 253.547 170.323 253.317C183.707 260.646 193.848 271.249 201.553 284.304C202.234 285.458 202.949 286.589 203.648 287.726C203.717 288.448 204.029 289.019 204.698 289.354C204.929 290.075 205.062 290.849 205.414 291.501C208.732 297.722 211.485 304.198 214.192 310.702C213.511 308.411 212.876 306.091 211.999 303.875C210.002 298.819 208.421 293.538 204.71 289.336C204.883 289.082 205.062 288.834 205.235 288.58L205.223 288.598ZM209.304 338.411C209.108 338.128 208.911 337.84 208.715 337.557C208.652 337.621 208.588 337.678 208.53 337.742C208.796 337.961 209.061 338.175 209.327 338.394C209.333 338.879 209.477 339.288 209.944 339.514C209.991 339.537 210.089 339.439 210.164 339.392C209.881 339.063 209.592 338.74 209.31 338.411H209.304ZM207.33 335.502C207.053 335.098 206.782 334.694 206.505 334.296C201.241 326.21 195.972 318.119 190.708 310.033C189.9 308.642 189.537 306.945 187.938 306.114L187.672 305.698C187.77 305.831 187.869 305.964 187.961 306.097C188.255 307.805 189.179 309.208 190.16 310.575C194.431 319.308 200.035 327.157 206.049 334.741C206.251 335.018 206.458 335.295 206.66 335.572C206.943 336.004 207.209 336.772 207.763 336.455C208.248 336.172 207.688 335.751 207.33 335.502ZM212.761 376.52C212.697 376.486 212.64 376.451 212.576 376.416C212.646 376.376 212.721 376.336 212.79 376.295C212.778 376.364 212.772 376.428 212.761 376.497C213.107 378.552 213.632 380.555 214.446 382.476C215.052 385.57 215.733 388.646 216.253 391.751C217.615 399.929 218.584 408.188 221.672 415.98C222.018 417.434 222.497 418.819 223.75 419.87C223.346 418.542 222.942 417.209 222.532 415.882C221.753 411.357 220.945 406.838 220.195 402.307C218.994 395.047 218.29 387.671 214.948 380.935C214.51 379.319 213.661 377.905 212.755 376.514L212.761 376.52ZM297.082 333.148C297.117 333.575 297.157 334.008 297.192 334.435C297.273 334.4 297.405 334.383 297.428 334.331C297.613 333.852 297.348 333.505 297.042 333.182C296.384 331.093 295.732 328.998 294.179 327.353C293.596 325.951 293.1 324.502 292.413 323.146C284.985 308.486 275.249 295.448 264.56 283.04C259.695 277.389 254.598 272.097 247.927 268.582C246.968 268.08 246.12 267.099 244.873 267.63C253.6 277.488 262.494 287.195 270.995 297.232C279.404 307.159 287.461 317.397 294.081 328.663C294.947 330.25 295.478 332.063 297.082 333.153V333.148ZM293.4 154.653C298.335 155.594 303.275 155.692 308.648 155.155C307.673 154.169 306.894 154.301 306.161 154.267C301.826 153.551 297.463 153.932 293.106 153.903C292.8 153.903 292.223 153.903 292.603 154.492C292.707 154.653 293.123 154.607 293.394 154.653H293.4ZM216.801 300.348L216.737 300.244L216.772 300.325C220.962 304.325 225.152 308.325 229.342 312.318C226.682 306.703 222.861 302.328 216.801 300.348ZM264.866 361.855C262.944 370.645 264.941 378.765 269.044 386.534C267.653 379.469 265.87 372.474 265.726 365.22V358.225C264.952 359.639 264.727 360.706 264.866 361.855ZM305.693 121.473C303.725 122.229 303.396 124.215 302.704 125.79C300.897 129.917 298.733 133.922 297.942 138.689C300.522 135.504 305.41 137.466 307.725 133.859C306.888 133.443 305.889 134.724 305.341 133.645C304.902 132.785 305.739 132.058 306.086 131.296C306.415 130.575 307.257 130.05 307.003 129.12C306.282 128.78 305.843 129.311 305.318 129.461C304.625 129.651 303.921 130.505 303.24 129.772C302.611 129.103 303.361 128.301 303.587 127.672C304.331 125.611 305.266 123.62 305.682 121.444L305.693 121.473ZM222.451 335.347C221.799 333.759 220.899 332.34 219.323 330.729C219.929 333.2 220.437 335.168 221.395 337.003C223.963 346.024 229.273 353.33 235.91 359.823C231.316 351.714 226.936 343.502 222.451 335.347ZM285.782 361.653C285.62 362.472 285.724 363.263 286.024 364.037C287.011 376.728 284.241 389.125 282.446 401.932C284.125 401.338 284.119 400.379 284.339 399.606C285.256 396.386 286.272 393.182 287.005 389.916C289.239 379.954 289.827 369.993 286.509 360.106C286.382 358.888 285.949 357.798 285.008 356.891C285.204 357.977 285.406 359.062 285.603 360.147C285.66 360.649 285.718 361.151 285.776 361.653H285.782ZM265.945 322.072C265.812 321.524 265.783 320.918 265.529 320.433C261.818 313.49 257.778 306.76 252.838 300.602C251.049 298.369 248.769 296.533 247.401 293.959L247.384 293.977C249.294 295.344 251.205 296.718 253.109 298.086L253.213 298.074L253.063 298.057C252.624 295.154 249.808 293.855 248.602 291.472C248.833 291.281 249.058 291.097 249.289 290.906C250.275 291.472 251.314 291.962 252.232 292.626C257.646 296.51 263.025 300.429 268.421 304.336C268.444 304.504 268.542 304.579 268.704 304.562C268.888 304.694 269.073 304.833 269.258 304.966C270.568 306.651 272.334 307.753 274.071 308.925C273.234 307.43 272.519 305.9 271.111 304.896C265.934 297.976 259.158 292.828 252.255 287.807C244.527 282.186 236.078 277.568 229.094 270.897C227.265 269.148 225.291 267.364 222.642 266.776C222.422 266.354 222.117 266.302 221.736 266.568C221.903 266.781 222.07 266.989 222.238 267.203C225.706 271.335 229.879 274.89 233.284 280.189C231.276 278.913 230.133 277.892 228.644 277.493C228.43 277.464 228.217 277.436 228.003 277.407C228.107 277.557 228.205 277.707 228.309 277.851C229.325 279.115 230.272 280.448 231.368 281.637C243.442 294.733 255.326 307.984 265.31 322.799C266.17 324.548 267.036 326.291 268.658 327.555C267.867 325.662 267.728 323.48 265.945 322.084V322.072ZM178.144 97.6946C182.847 95.3687 187.655 93.3083 191.943 90.2495C192.832 89.6146 193.831 89.0201 193.542 87.7966C193.046 85.6611 192.717 83.4507 191.505 81.2171C190.604 82.7812 189.871 84.0567 188.752 86.0132C187.99 82.7985 187.407 80.3283 186.818 77.8523C186.68 77.2636 186.599 75.9593 185.958 76.4556C182.894 78.8335 183.448 75.4629 182.847 74.476C181.924 72.9639 181.347 72.3983 180.008 74.0547C177.468 77.1886 174.86 80.2533 172.759 83.7161C170.075 88.1486 168.857 92.9678 168.684 98.2083C170.606 98.0583 171.143 96.1479 172.713 95.2822C172.534 95.9632 172.413 96.3153 172.355 96.6731C172.234 97.4003 171.449 98.2545 172.112 98.8143C172.955 99.5242 173.682 98.5488 174.34 98.0871C175.714 97.1175 177.03 96.0671 178.403 95.0282C178.952 96.0613 177.699 96.6558 178.138 97.6946H178.144ZM289.464 129.807C293.931 123.984 296.049 117.37 300.129 111.898C307.384 102.179 316.896 96.3153 329.189 95.438C330.066 95.3745 330.776 95.1033 331.399 94.5723C321.293 92.0213 312.896 95.2533 305.612 102.208C301.982 105.677 298.79 109.52 296.303 113.884C293.209 119.32 289.747 124.48 285.874 129.397C283.306 132.652 281.049 136.156 278.515 139.751C285.539 138.407 292.101 133.541 293.752 128.618C292.563 128.936 291.599 129.859 289.475 129.801L289.464 129.807ZM328.825 139.619C329.812 140.057 330.372 139.705 330.972 139.365C343.796 132.07 348.627 118.339 342.988 104.759C342.232 102.929 342.446 102.185 344.697 102.133C337.852 98.2372 331.78 97.8274 329.085 100.898C329.801 101.631 330.701 101.694 331.671 101.815C337.679 102.572 341.269 105.654 341.921 111.131C342.429 115.425 342.255 119.69 340.033 123.73C336.917 129.392 333.575 134.857 328.825 139.619ZM301.157 365.97C299.777 359.512 298.444 353.042 296.967 346.607C296.69 345.4 296.545 343.011 295.403 343.334C293.689 343.813 295.12 345.718 295.212 347.016C295.241 347.397 295.247 347.784 295.299 348.165C296.095 354.462 297.544 360.556 301.157 365.976V365.97ZM258.448 387.059C256.434 380.104 254.425 373.144 252.411 366.189C252.145 366.27 251.874 366.351 251.609 366.432C252.826 373.629 254.391 380.722 258.448 387.059ZM164.465 416.274C161.02 420.181 159.005 424.752 158.169 429.866C161.499 425.907 163.253 421.215 164.465 416.274ZM225.966 298.744C224.033 295.668 221.614 290.814 216.062 288.921C215.849 289.123 215.635 289.331 215.422 289.533C219.335 292.949 223.253 296.372 225.966 298.738V298.744ZM246.847 371.112C248.059 365.266 248.59 359.425 246.847 353.602V371.112ZM201.628 357.157C203.059 361.526 204.496 365.895 205.928 370.264C205.812 365.468 204.387 361.116 201.628 357.157ZM120.371 288.355C123.401 289.1 125.456 288.655 127.43 287.674C127.932 287.426 128.486 287.074 128.405 286.422C128.324 285.747 127.632 285.648 127.13 285.498C124.371 284.696 122.945 286.924 120.377 288.355H120.371ZM152.922 367.28C154.446 364.683 156.68 362.409 156.408 359.015C154.746 361.549 153.107 364.088 152.922 367.28Z" fill="white"></path>
<path d="M485.048 237.33C479.674 232.101 475.022 226.214 470.013 220.65C454.257 203.139 438.656 185.484 420.569 170.265C417.995 168.101 415.415 165.89 412.575 164.118C401.8 157.395 393.806 147.358 383.539 140.04C380.018 137.529 376.573 134.903 373.248 132.139C372.025 131.123 369.318 130.159 371.956 127.741C372.556 127.193 371.702 126.812 371.24 126.523C364.724 122.443 358.225 118.333 351.68 114.299C349.909 113.208 347.715 108.897 348.275 106.946C348.818 105.053 351.017 105.942 352.46 104.447C347.964 100.632 342.613 98.2429 337.292 95.4842C338.695 94.2837 340.091 94.6935 341.626 93.8912C330.938 89.3953 320.514 86.3421 309.652 91.9174C306.576 93.493 303.927 93.7585 300.649 92.7427C285.476 88.0505 270.054 84.4202 254.166 83.1217C252.348 82.9716 250.524 82.8793 248.706 82.7061C247.621 82.6022 246.086 83.3525 245.601 82.0135C245.202 80.9054 246.945 80.6515 247.811 79.4683C245.122 79.6761 242.813 79.7223 240.539 80.0512C226.682 82.0655 212.634 82.8735 199.071 86.7115C196.434 87.456 194.794 86.5499 194.177 83.8489C194.004 83.1044 193.727 82.3772 193.536 81.6384C192.863 79.0374 191.47 78.5314 189.358 80.1205C188.03 77.3387 188.827 74.2047 187.678 71.4229C187.597 71.4114 187.378 71.319 187.274 71.3883C186.472 71.9654 186.305 73.6449 185 73.1832C183.921 72.7965 184.238 71.3652 183.915 70.3956C183.246 68.4102 183.413 66.3094 183.223 64.5491C170.889 76.3402 163.767 91.5018 157.095 107.044C155.196 105.671 155.421 104.113 154.648 102.843C154.336 103.126 153.944 103.316 153.834 103.616C151.895 108.845 147.768 111.829 143.094 114.351C140.473 115.765 138.176 117.681 135.897 119.62C130.443 124.272 127.713 130.205 127.436 137.275C127.286 141.131 125.981 144.028 122.865 146.654C109.025 158.289 96.3274 171.183 83.1222 183.516C76.537 189.663 71.2907 196.664 70.0268 205.939C69.5073 209.759 69.5016 213.597 70.1537 217.424C70.3442 218.555 70.7309 220.004 69.8479 220.714C68.9302 221.452 67.9433 220.246 67.0602 219.755C56.7928 214.03 45.7808 211.017 34.0128 210.758C37.2333 211.358 40.4653 211.889 43.6627 212.576C51.7081 214.313 59.2745 217.274 66.4369 221.36C68.9244 222.78 70.1133 224.355 69.4669 227.339C69.0283 229.377 69.1091 231.547 69.1264 233.659C69.138 235.206 68.5666 235.61 67.0545 235.489C51.1021 234.196 35.9058 237.526 21.0847 243.101C20.0112 243.505 18.8915 243.794 17.795 244.134C17.6276 243.228 17.4602 242.328 17.2986 241.427C17.1659 231.824 18.401 222.358 19.9362 212.899C21.1828 205.234 22.6603 197.639 24.6111 190.125C33.1067 157.4 48.1702 127.966 69.1553 101.527C93.13 71.3132 122.87 48.4697 157.944 32.5232C173.342 25.5224 189.433 20.5243 205.956 17.096C213.529 15.5262 221.245 14.4758 229.025 13.9852C233.469 13.7082 237.919 13.131 242.374 12.8136C248.221 12.8136 254.073 12.8136 259.92 12.8136C272.779 13.7082 285.62 14.8452 298.237 17.5404C309.041 19.849 319.654 22.8386 330.043 26.7171C392.288 49.9646 436.758 92.2406 464.692 152.235C470.625 164.978 475.086 178.293 478.514 191.92C480.771 200.894 482.572 209.967 483.483 219.219C484.078 225.25 485.105 231.235 485.042 237.318L485.048 237.33Z" fill="#1D1D1D"></path>
<path d="M48.9262 281.314C55.5403 274.752 62.1371 268.19 69.8131 262.822C74.1244 259.804 73.9859 259.763 76.4849 264.352C77.3738 265.979 77.2237 266.995 75.9944 268.357C66.6157 278.769 58.5588 290.087 52.845 302.957C52.0659 304.712 51.4194 306.524 50.7384 308.319C50.5076 308.936 50.369 309.588 50.3806 310.31C52.972 304.388 56.0135 298.709 59.3091 293.18C64.3418 284.742 70.5346 277.159 76.9986 269.788C77.5527 269.153 78.4588 267.861 79.2033 269.292C79.9074 270.648 82.62 271.422 80.6924 273.788C77.1718 278.093 74.1302 282.728 71.4926 287.98C73.1721 287.905 73.201 286.612 73.7781 285.914C74.4476 285.106 75.019 284.217 75.6423 283.369C77.5238 280.818 79.4688 278.313 81.2637 275.704C82.3488 274.129 83.0933 274.429 84.4323 275.514C86.7293 277.372 86.8447 278.803 84.9979 281.268C75.0594 294.519 69.1032 309.485 66.6273 325.841C66.2348 328.444 66.1194 331.093 66.0444 333.742C67.0948 328.577 67.7469 323.348 69.0686 318.246C72.5834 304.671 78.4761 292.268 87.2545 281.285C87.8663 280.518 88.2991 279.132 89.6324 280.339C90.6077 281.222 91.3234 282.203 90.0768 283.513C89.1533 284.483 88.3222 285.556 87.9298 286.889C85.246 290.56 83.5839 294.71 82.2795 299.038C84.3457 295.166 86.4119 291.287 88.4781 287.414C88.8763 286.878 89.2688 286.335 89.6728 285.804C90.4577 284.765 91.0348 284.996 91.5196 286.087C92.5354 288.367 93.5858 290.629 94.6016 292.909C95.0979 294.029 94.3765 294.963 94.0014 295.916C89.6843 306.882 86.4927 318.124 85.65 329.939C85.5981 330.706 85.575 331.474 85.5346 332.282C85.5462 332.27 85.5058 332.305 85.4596 332.334C85.5 332.27 85.5693 332.213 85.5808 332.143C87.1737 325.414 87.999 318.523 89.996 311.88C91.41 307.182 92.9971 302.547 94.8671 298.011C95.5943 296.251 95.9868 295.95 97.4181 297.676C99.4208 300.083 99.7844 302.23 98.7397 305.237C97.1064 309.935 96.2061 314.864 95.8598 320.375C97.2738 315.181 98.4685 310.437 99.8652 305.762C100.846 302.472 100.991 302.501 103.778 304.637C110.837 310.05 118.611 314.246 126.651 317.98C130.212 319.637 133.969 320.993 136.618 324.138C137.414 325.085 138.199 325.171 138.886 324.017C140.329 321.599 141.835 322.574 143.324 323.942C145.552 325.979 146.135 328.686 146.262 331.532C146.337 333.211 146.274 334.896 146.551 336.61C148.34 334.152 147.699 330.891 149.829 327.694C151.277 334.96 153.338 341.349 152.622 348.182C147.965 347.894 143.498 348.904 139.059 350.156C133.715 351.662 128.33 353.013 122.772 353.469C119.679 353.475 116.585 353.486 113.492 353.492C108.245 353.042 103.467 351.022 98.6532 349.111C93.303 346.993 88.0106 344.691 82.0198 345.291C79.4342 345.55 76.9409 344.817 74.4592 344.183C69.0802 342.803 63.8108 340.928 58.1952 340.633C54.4841 339.819 50.773 339.808 47.062 340.61C43.6164 341.066 40.1651 341.522 36.7195 341.984C32.4717 333.679 29.6033 324.86 26.908 315.966C24.2647 307.257 22.0946 298.444 20.5305 289.469C19.6244 284.275 18.7529 279.098 18.3662 273.828C18.0257 269.205 17.1831 264.623 17.2523 259.965C17.5467 259.809 17.7718 259.631 17.3851 259.33C17.3678 258.574 17.3447 257.824 17.3274 257.068C17.9045 255.319 17.8006 253.576 17.2466 251.845C17.2408 250.119 17.235 248.399 17.2292 246.674C17.3966 245.993 17.564 245.312 17.7371 244.63C26.1346 242.599 34.2955 239.655 42.8661 238.305C50.7788 237.058 58.7146 236.568 66.7081 237.041C67.6835 237.099 69.0802 236.885 69.034 238.484C68.982 240.175 67.5392 239.627 66.61 239.684C49.89 240.666 34.1858 245.462 19.0588 252.584C19.7918 252.393 20.5248 252.226 21.252 252.018C22.0831 251.776 22.9141 251.545 23.7222 251.239C36.7311 246.322 50.0978 242.916 63.9666 241.595C65.017 241.497 66.0848 241.537 67.1294 241.416C68.8435 241.22 69.4842 241.906 69.64 243.644C70.0902 248.803 70.1594 248.792 65.2594 250.304C53.93 253.801 43.1893 258.615 33.0604 264.779C32.1774 265.315 31.3347 265.91 30.342 266.568C31.756 267.006 32.5294 266.054 33.4067 265.598C44.4648 259.809 55.7365 254.563 67.8797 251.377C70.2979 250.742 71.2502 251.222 71.8101 253.709C72.8316 258.263 72.947 258.17 69.0975 261.027C62.2871 266.083 55.9789 271.699 50.5306 278.226C49.8034 279.098 48.88 279.871 48.7473 281.124C47.0504 282.053 46.254 283.698 45.4287 285.314C45.244 285.706 45.0535 286.099 44.8688 286.485L44.8573 286.474C45.0362 286.075 45.2151 285.677 45.3998 285.279C47.0389 284.373 47.9739 282.838 48.9262 281.326V281.314Z" fill="#1D1D1D"></path>
<path d="M151.549 362.634C150.475 368.648 147.618 374.015 145.437 379.631C144.952 380.872 144.115 381.986 144.069 383.388C144.005 383.44 143.942 383.492 143.879 383.544C143.925 383.59 143.965 383.631 144.011 383.677C144.063 383.613 144.115 383.55 144.161 383.481C147.999 381.328 150.406 377.634 153.54 374.725C154.1 374.206 154.533 373.554 155.075 373.011C155.577 372.509 155.912 371.511 156.853 371.932C157.563 372.249 157.384 373.109 157.395 373.75C157.459 377.109 157.476 380.474 157.511 383.833C157.517 384.485 157.511 385.137 157.511 386.049C159.317 385.605 159.271 383.596 160.991 382.955C161.672 386.06 161.395 389.062 161.303 392.057C159.196 392.109 157.061 391.693 154.994 392.444C147.526 393.107 140.052 393.771 132.584 394.435C127.568 394.435 122.553 394.435 117.543 394.441C109.371 393.973 101.787 390.626 93.6378 389.737C86.5505 388.969 79.7171 386.06 72.3642 386.84C69.3284 387.163 66.2811 387.319 63.2337 387.549C57.6354 381.091 53.4973 373.652 49.0532 366.426C51.4657 365.358 53.8435 366.437 56.0598 366.916C66.737 369.219 76.8602 367.615 86.6197 363.125C89.1996 361.936 91.5601 361.763 94.0303 363.142C99.6286 366.259 105.077 366.005 110.768 363.044C118.934 358.79 127.574 358.525 136.364 361.03C141.322 362.444 146.274 364.048 151.537 362.634H151.549Z" fill="#1D1D1D"></path>
<path d="M151.549 362.634C146.285 364.042 141.333 362.438 136.376 361.03C127.586 358.525 118.946 358.79 110.779 363.044C105.088 366.01 99.6401 366.259 94.0418 363.142C91.5716 361.763 89.211 361.941 86.6312 363.125C76.8716 367.615 66.7485 369.219 56.0712 366.917C53.8492 366.437 51.4772 365.358 49.0647 366.426C44.5802 358.461 39.9515 350.572 36.7368 341.972C40.1824 341.516 43.6337 341.06 47.0793 340.599C50.7903 340.604 54.5014 340.616 58.2125 340.622C63.8281 340.922 69.0975 342.792 74.4765 344.171C76.9582 344.806 79.4515 345.539 82.0371 345.279C88.0279 344.679 93.3261 346.982 98.6705 349.1C103.484 351.005 108.263 353.025 113.509 353.481C116.602 354.254 119.696 354.237 122.789 353.457C128.353 353.001 133.732 351.651 139.077 350.145C143.515 348.892 147.982 347.882 152.64 348.171C153.644 350.064 152.593 352.003 152.755 353.942C152.992 356.874 152.334 359.789 151.56 362.64L151.549 362.634Z" fill="white"></path>
<path d="M63.2336 387.55C66.2752 387.319 69.3283 387.163 72.3641 386.84C79.717 386.061 86.5446 388.969 93.6378 389.737C101.793 390.62 109.377 393.967 117.543 394.441C122.559 395.278 127.574 395.22 132.584 394.435C140.052 393.771 147.526 393.107 154.994 392.444C158.815 392.744 160.775 394.314 160.875 397.153C160.471 400.374 160.062 403.594 159.658 406.82C157.557 407.017 155.456 407.253 153.349 407.392C146.256 407.848 138.782 409.158 132.133 407.23C115.996 402.555 99.3688 402.821 83.0009 400.645C82.2333 400.195 81.4195 400.12 80.5711 400.38C78.8743 400.345 77.1833 400.304 75.4865 400.27C74.6092 400.235 73.7377 400.206 72.8605 400.172C69.2417 396.276 65.9866 392.109 63.2336 387.555V387.55Z" fill="white"></path>
<path d="M75.4866 400.264C77.1834 400.299 78.8745 400.339 80.5713 400.374C81.3389 400.841 82.1584 400.818 83.0011 400.639C99.369 402.815 115.997 402.55 132.134 407.224C138.782 409.152 146.256 407.842 153.35 407.386C155.456 407.248 157.557 407.011 159.658 406.815C159.363 410.982 158.532 415.056 157.447 419.085C157.482 418.219 157.557 417.313 156.229 417.486C150.874 417.463 145.512 417.423 140.156 417.423C127.43 417.434 114.698 417.469 101.972 417.492C97.7241 417.515 93.4763 417.538 89.2227 417.567C88.0049 417.33 87.2489 416.418 86.487 415.582C82.1642 410.86 77.6336 406.324 73.709 401.251C74.3034 400.922 74.8979 400.587 75.4924 400.258L75.4866 400.264Z" fill="#1D1D1D"></path>
<path d="M169.377 445.114C170.433 449.408 171.091 453.742 171.253 458.175C171.397 462.14 171.789 466.093 172.424 470.128C174.894 464.933 175.622 459.018 179.818 454.545C180.083 461.32 181.145 467.94 181.889 474.601C178.536 474.387 175.622 472.8 172.592 471.605C155.058 464.708 138.373 456.178 122.743 445.622C123.58 444.785 124.746 445.38 125.675 444.958C126.414 444.964 127.153 444.976 127.892 444.981C132.919 445.293 137.951 445.293 142.978 445.022C143.33 445.022 143.688 445.016 144.04 445.01C144.271 445.01 144.496 445.01 144.727 445.004C146.424 444.987 148.115 444.97 149.812 444.958C150.423 444.953 151.035 444.947 151.647 444.941C152.189 444.935 152.732 444.929 153.28 444.924C157.159 445.27 161.037 445.27 164.916 444.947H168.269C168.638 445.004 169.002 445.062 169.371 445.114H169.377Z" fill="#1D1D1D"></path>
<path d="M157.291 419.656C156.38 423.639 155.733 427.696 154.14 431.499C153.621 431.343 153.119 431.367 152.651 431.672C152.345 431.672 152.045 431.672 151.739 431.678C151.456 431.436 151.179 431.436 150.897 431.678C150.406 431.678 149.915 431.678 149.425 431.678C134.754 431.095 120.077 431.078 105.406 431.632L105.279 431.788L105.423 431.921C105.065 431.805 104.708 431.69 104.344 431.58C104.142 431.494 103.946 431.413 103.744 431.326C99.444 427.886 95.4039 424.158 91.4678 420.314C91.4909 419.997 91.5082 419.679 91.5255 419.362C94.8037 419.454 98.0819 419.547 101.36 419.639C103.496 419.933 105.631 419.922 107.772 419.708C124.279 419.795 140.785 420.066 157.286 419.65L157.291 419.656Z" fill="#1D1D1D"></path>
<path d="M151.739 431.678C152.045 431.678 152.345 431.678 152.651 431.678C153.067 431.776 153.476 431.869 153.892 431.967C153.367 434.98 152.842 437.992 152.27 441.253C154.602 440.52 155.421 438.558 156.72 437.138C158.642 435.043 160.171 432.561 162.942 431.355C164.979 430.466 166.168 431.003 166.664 433.19C167.472 436.774 168.332 440.353 169.163 443.931C168.869 444.272 168.575 444.612 168.28 444.958C167.161 444.958 166.047 444.958 164.927 444.958C161.049 444.404 157.17 444.416 153.292 444.935C152.749 444.941 152.207 444.947 151.658 444.953C151.041 444.566 150.429 444.577 149.823 444.97C148.126 444.987 146.435 445.005 144.738 445.016C144.508 445.016 144.283 445.016 144.052 445.022C143.7 445.022 143.342 445.028 142.99 445.033C137.963 444.45 132.936 444.433 127.903 444.993C127.164 444.987 126.426 444.976 125.687 444.97C124.365 444.393 122.98 444.687 121.618 444.647C116.02 441.484 111.154 437.311 106.075 433.427C105.608 433.069 105.273 432.602 105.429 431.944L105.285 431.811L105.412 431.655C115.194 431.73 124.983 431.84 134.765 431.874C139.654 431.892 144.542 431.765 149.431 431.701C149.921 431.701 150.412 431.701 150.902 431.701C151.185 431.701 151.462 431.701 151.745 431.701L151.739 431.678Z" fill="white"></path>
<path d="M420.476 410.641C419.824 410.214 420.13 409.799 420.343 409.21C424.401 397.967 428.874 386.851 430.599 374.91C431.153 371.078 431.638 367.234 432.215 362.952C433.699 364.446 433.554 366.085 433.693 367.367C434.507 375.049 434.709 382.725 433.358 390.412C433.023 392.317 432.619 394.331 432.769 396.339C431.211 400.01 428.129 402.521 425.671 405.499C424.135 407.357 422.918 409.648 420.476 410.641Z" fill="white"></path>
<path d="M101.36 419.645C98.0819 419.552 94.8037 419.46 91.5255 419.368C91.1503 418.935 90.7348 418.964 90.2962 419.269C89.644 418.889 89.4131 418.236 89.2227 417.567C93.4705 417.544 97.7183 417.521 101.972 417.492C102.861 417.982 103.83 417.902 104.788 417.902C121 417.907 137.212 417.907 153.425 417.902C154.377 417.902 155.352 417.994 156.235 417.48C157.568 417.307 157.488 418.208 157.453 419.079C157.401 419.269 157.349 419.46 157.297 419.65C140.791 420.066 124.284 419.795 107.784 419.708C105.654 419.119 103.513 419.096 101.372 419.639L101.36 419.645Z" fill="white"></path>
<path d="M467.467 339.017C466.232 329.552 463.774 320.329 461.973 310.974C462.198 310.887 461.775 311.087 462 311C464.539 318.261 467.716 325.241 470.255 332.495C469.326 334.666 468.397 336.841 467.467 339.011V339.017Z" fill="white"></path>
<path d="M380.093 444.624C382.719 440.514 385.328 436.399 387.983 432.307C388.762 431.113 389.657 429.993 390.701 428.567C391.879 431.644 390.084 434.714 391.665 437.369C388.45 439.822 385.224 442.257 382.032 444.733C381.438 445.189 380.809 445.172 380.151 445.207C380.151 444.987 380.145 444.768 380.139 444.549L380.087 444.624H380.093Z" fill="white"></path>
<path d="M414.341 417.428C415.097 411.438 415.328 405.412 415.38 399.381C416.246 397.373 415.062 395.029 416.396 393.09C417.417 398.89 418.935 404.622 418.82 410.578C418.808 411.074 418.952 411.518 419.391 411.819C418.318 414.237 416.142 415.662 414.347 417.428H414.341Z" fill="white"></path>
<path d="M442.558 384.092C443.504 379.221 442.466 374.183 443.949 368.804C444.913 372.284 445.749 375.302 446.586 378.327C445.559 380.468 444.047 382.274 442.564 384.092H442.558Z" fill="white"></path>
<path d="M259.92 12.8309C254.068 12.8309 248.221 12.8309 242.375 12.8309C248.227 12.0864 254.073 12.1037 259.92 12.8309Z" fill="white"></path>
<path d="M244.325 485.838C249.473 485.838 254.622 485.826 259.764 485.82C254.616 486.34 249.468 486.322 244.325 485.838Z" fill="white"></path>
<path d="M17.2524 251.833C17.8064 253.565 17.9161 255.308 17.3332 257.057C17.01 255.319 17.0446 253.576 17.2524 251.833Z" fill="white"></path>
<path d="M17.7372 244.619C17.5699 245.3 17.4025 245.981 17.2293 246.662C16.9927 244.919 17.0273 243.176 17.2986 241.439C17.466 242.339 17.6334 243.24 17.795 244.146C17.818 244.313 17.795 244.469 17.7315 244.619H17.7372Z" fill="white"></path>
<path d="M121.612 444.629C122.974 444.67 124.365 444.375 125.681 444.953C124.752 445.38 123.586 444.785 122.749 445.616C122.207 445.472 121.808 445.172 121.612 444.629Z" fill="white"></path>
<path d="M75.4864 400.264C74.8919 400.593 74.2975 400.928 73.703 401.257C73.2297 401.043 72.9412 400.685 72.8604 400.166C73.7376 400.201 74.6091 400.229 75.4864 400.264Z" fill="white"></path>
<path d="M17.3908 259.319C17.7775 259.619 17.5524 259.792 17.2581 259.954C17.3042 259.74 17.3446 259.532 17.3908 259.319Z" fill="white"></path>
<path d="M227.23 154.365C227.605 154.082 228.073 153.868 228.344 153.511C232.736 147.722 238.987 148.016 245.11 148.755C249.104 149.234 251.314 152.627 253.525 155.669C253.727 155.935 253.929 156.2 254.125 156.471C254.541 156.05 254.281 155.64 254.119 155.225C252.44 149.799 248.14 147.283 242.744 145.43C247.586 143.266 251.932 143.462 256.555 145.275C255.193 145.996 254.021 146.302 252.775 146.377C255.707 155.427 264.433 154.486 271.578 157.274C267.555 158.584 263.74 158.093 260.139 159.132C260.07 160.009 261.12 159.761 261.565 160.5C257.773 163.137 255.961 167.068 254.547 171.408C252.838 176.66 256.82 179.384 259.527 183.378C253.427 180.561 248.031 177.676 241.37 176.654C243.973 179.713 247.274 181.317 249.127 184.342L249.139 184.33C244.758 183.02 240.378 181.687 235.985 180.411C234.993 180.123 234.04 179.499 232.436 179.973C235.57 182.431 238.877 184.238 241.428 187.043C230.745 181.773 220.339 175.915 208.282 172.366C212.686 170.271 217.113 170.473 221.551 169.197C217.228 165.965 212.426 164.476 207.988 162.139C208.709 161.868 209.437 161.775 209.91 161.377C211.266 160.24 213.598 159.501 213.558 157.735C213.534 156.835 210.81 156.87 209.004 156.264C211.572 154.503 214.06 152.968 216.357 151.19C219.843 148.484 223.161 145.557 226.659 142.862C227.04 142.568 228.373 139.809 229.008 143.041C229.187 143.941 230.335 143.081 230.976 142.845C235.905 141.01 240.874 141.46 245.924 142.435C238.484 144.571 231.016 146.498 226.988 154.047C226.734 154.203 226.191 154.272 226.451 154.665C226.653 154.971 227.08 154.803 227.219 154.37L227.23 154.365ZM224.108 164.344C230.381 172.17 247.055 176.054 251.684 166.127C251.505 166.092 251.286 165.983 251.147 166.04C250.449 166.341 249.75 166.658 249.087 167.027C242.628 170.583 236.268 170.963 230.029 166.496C229.175 165.885 228.246 165.377 227.322 164.869C226.324 164.315 225.297 163.83 224.108 164.344ZM237.203 152.275C239.05 153.366 241.174 153.043 242.721 154.33C243.696 155.138 244.718 156.108 245.797 154.503C246.894 152.87 245.953 151.71 244.62 150.965C241.999 149.499 239.668 150.475 237.203 152.275Z" fill="white"></path>
<path d="M259.435 240.4C268.918 243.078 278.394 245.808 288.165 247.614C284.576 242.732 280.016 239.003 275.491 235.211C288.604 239.2 299.097 246.864 307.286 257.864C300.701 255.769 294.116 253.911 286.965 253.853C303.962 265.546 318.881 279.127 328.75 297.468C307.044 276.83 285.008 256.635 259.441 240.4H259.435Z" fill="white"></path>
<path d="M354.797 287.126C355.351 287.126 355.599 287.57 355.836 287.974C364.782 303.309 374.599 318.159 381.49 334.631C387.186 348.246 391.192 362.34 393.2 376.947C393.645 380.162 394.77 383.452 394.037 385.916C380.486 353.694 367.131 320.612 354.797 287.132V287.126Z" fill="white"></path>
<path d="M363.015 268.98C368.862 273.28 373.479 278.809 378.148 284.269C384.422 291.605 389.57 299.685 393.806 308.348C394.124 309 394.701 309.635 394.262 310.714C391.03 306.674 387.879 302.738 384.728 298.802L384.11 299.044C384.422 300.025 384.768 301.001 385.045 301.993C388.006 312.757 393.189 322.655 397.021 333.078C398.337 336.651 399.462 340.304 399.618 344.188C397.206 339.387 395.694 334.158 392.335 329.829C392.992 332.917 393.477 335.981 394.008 339.756C392.311 337.107 391.931 334.694 391.307 332.467C386.188 314.217 377.277 297.665 368.689 280.945C366.686 277.037 364.181 273.373 362.779 269.165C362.854 269.102 362.929 269.038 363.004 268.975L363.015 268.98Z" fill="white"></path>
<path d="M280.957 221.164C305.439 232.233 322.292 249.773 327.919 276.83C327.683 276.564 327.388 276.333 327.221 276.033C317.784 258.528 304.262 244.359 290.162 230.675C286.994 227.599 283.704 224.644 280.472 221.631C280.634 221.475 280.795 221.325 280.957 221.169V221.164Z" fill="white"></path>
<path d="M360.557 348.096C358.19 341.066 355.824 334.031 353.21 326.262C368.077 340.512 377.092 357.134 381.144 376.526C379.297 374.829 378.8 372.186 376.757 370.656C376.688 369.41 375.799 368.608 375.164 367.661C370.593 360.92 364.678 355.177 360.557 348.096Z" fill="white"></path>
<path d="M184.885 120.244C190.091 114.542 195.868 109.705 201.87 105.088C202.719 106.138 201.541 106.935 202.193 108.031C213.927 103.703 226.012 100.246 238.877 96.7885C237.469 98.9874 235.224 99.4953 234.75 101.885C241.11 101.625 246.922 98.9124 253.254 99.5126C243.794 102.364 234.341 105.215 224.881 108.066C224.685 107.783 224.483 107.506 224.287 107.223L230.087 102.739C229.798 102.404 229.51 102.075 229.227 101.74C214.21 107.327 199.215 112.954 184.885 120.238V120.244Z" fill="white"></path>
<path d="M356.638 246.021C356.309 245.825 355.992 245.612 355.645 245.444C355.051 245.161 354.347 244.688 353.862 245.467C353.504 246.05 354.122 246.535 354.485 246.928C357.746 250.454 360.984 254.003 364.314 257.46C372.227 265.668 379.095 274.631 384.382 284.76C384.728 285.418 385.016 286.104 385.028 287.028C370.651 264.404 350.717 246.985 331.405 228.892C341.015 233.561 350.197 238.83 358.098 246.102C357.608 246.073 356.967 246.218 356.638 246.021Z" fill="white"></path>
<path d="M440.094 350.774C437.9 330.579 430.478 312.284 419.991 294.842C431.5 300.977 443.608 334.59 440.094 350.774Z" fill="white"></path>
<path d="M437.796 243.217C439.938 248.174 442.823 252.861 443.274 258.528C435.586 242.939 427.108 227.876 415.692 214.642C415.894 214.452 416.096 214.255 416.292 214.065C417.181 214.786 418.121 215.456 418.947 216.246C424.995 222.047 430.322 228.447 434.813 235.529C435.165 236.083 435.626 236.62 435.459 237.37C435.188 237.307 434.922 237.249 434.651 237.185C433.947 236.221 433.248 235.252 432.544 234.288C432.816 235.604 433.335 236.695 434.31 237.462C435.217 239.534 436.504 241.375 437.802 243.211L437.796 243.217Z" fill="white"></path>
<path d="M271.387 195.533C279.768 201.125 287.53 207.353 292.534 216.368C292.984 217.176 293.815 217.857 293.567 218.948L293.556 218.959C286.07 214.983 278.584 211.006 270.424 206.677C275.376 207.485 279.167 209.563 283.744 210.902C279.277 205.673 275.122 200.814 270.972 195.954C271.11 195.815 271.243 195.677 271.382 195.538L271.387 195.533Z" fill="white"></path>
<path d="M207.22 147.866C210.204 131.423 225.966 123.914 245.964 125.074C240.614 126.413 235.529 127.545 230.531 128.959C220.835 131.706 213.39 137.356 208.721 146.429C208.444 146.971 208.346 147.768 207.22 147.866Z" fill="white"></path>
<path d="M258.587 218.174C257.501 217.383 256.422 216.598 255.239 215.739C254.841 216.235 255.885 218.186 253.94 217.251C253.594 217.083 253.213 216.991 252.884 216.812C244.689 212.322 237.145 206.931 230.653 200.057C237.313 204.167 243.979 208.27 250.639 212.38C249.075 208.645 246.363 205.638 244.723 202.008C244.868 201.893 245 201.76 245.11 201.616C250.224 206.573 254.702 212.079 259.06 217.689C258.898 217.851 258.742 218.018 258.581 218.18L258.587 218.174Z" fill="white"></path>
<path d="M283.092 288.88C270.118 274.007 255.983 260.814 241.364 248.116C247.009 248.324 281.412 281.678 283.092 288.88Z" fill="white"></path>
<path d="M158.602 137.148C158.382 135.457 159.796 134.655 160.639 133.611C168.725 123.62 178.732 115.915 189.71 109.376C192.647 107.627 195.649 106.052 198.898 104.932C184.152 114.039 171.166 125.323 158.567 137.085L158.596 137.148H158.602Z" fill="white"></path>
<path d="M273.079 266.545C284.004 273.159 294.231 280.587 301.849 291.074C291.484 283.807 281.459 276.137 273.079 266.545Z" fill="white"></path>
<path d="M426.138 295.858C419.709 286.583 413.008 277.453 406.411 268.253C415.755 275.45 421.81 285.014 426.138 295.858Z" fill="white"></path>
<path d="M366.675 334.573C361.088 324.975 357.648 314.477 353.054 304.504C359.605 313.617 364.447 323.527 366.675 334.573Z" fill="white"></path>
<path d="M304.689 200.6C315.182 203.284 324.837 207.884 333.719 214.169C323.908 209.973 313.883 206.256 304.689 200.6Z" fill="white"></path>
<path d="M190.27 202.228C199.337 206.331 207.688 211.699 216.218 216.766C215.854 217.591 215.324 217.245 214.971 217.118C205.962 213.869 198.026 208.755 190.523 202.909C190.362 202.782 190.373 202.424 190.304 202.176L190.27 202.228Z" fill="white"></path>
<path d="M361.122 186.604C352.661 181.346 343.929 176.296 335.468 171.038C335.618 170.802 335.763 170.559 335.913 170.323C345.303 174.155 353.775 179.465 361.122 186.604C361.221 186.535 361.03 186.673 361.122 186.604Z" fill="white"></path>
<path d="M157.101 254.356C158.371 253.876 159.225 254.39 160.114 254.731C166.318 257.091 172.199 260.098 177.838 263.59C178.484 263.988 179.125 264.427 179.667 264.952C179.858 265.137 179.881 265.702 179.742 265.973C179.517 266.412 179.096 266.181 178.75 266.002C171.576 262.199 164.015 259.123 157.107 254.356H157.101Z" fill="white"></path>
<path d="M354.231 187.326C362.507 191.192 369.272 196.912 374.714 204.242C367.811 198.695 361.018 193.016 354.231 187.326Z" fill="white"></path>
<path d="M274.279 225.198C267.307 220.829 261.922 214.717 256.186 208.847C259.36 209.044 271.053 219.49 274.279 225.198Z" fill="white"></path>
<path d="M337.24 221.348C327.607 218.855 318.188 215.831 309.433 211.046C318.968 213.776 328.358 216.893 337.24 221.348Z" fill="white"></path>
<path d="M203.983 186.772C208.836 188.532 212.386 192.024 215.826 195.671C215.762 195.752 215.699 195.833 215.635 195.908C211.105 193.686 207.561 190.223 204.04 186.725L203.988 186.772H203.983Z" fill="white"></path>
<path d="M333.927 198.782C328.906 197.91 324.491 195.556 320.058 193.189C325.155 193.865 329.72 195.867 333.927 198.782Z" fill="white"></path>
<path d="M210.706 204.201C206.857 202.303 203.492 199.769 200.728 196.439C204.542 198.424 208.127 200.721 211.058 203.942C210.937 204.022 210.822 204.109 210.706 204.201Z" fill="white"></path>
<path d="M205.056 178.842C201.812 178.293 198.748 177.37 195.891 175.812C199.209 176.048 202.286 177.047 205.056 178.842Z" fill="white"></path>
<path d="M162.791 249.288C165.469 250.315 167.934 251.741 170.306 253.334C170.052 253.559 169.798 253.784 169.55 254.015C167.143 252.624 164.731 251.227 162.324 249.836C162.48 249.657 162.636 249.473 162.791 249.294V249.288Z" fill="white"></path>
<path d="M416.39 393.09C415.063 395.029 416.24 397.373 415.375 399.381C415.375 396.674 415.375 393.973 415.375 391.035C416.333 391.647 416.402 392.351 416.39 393.09Z" fill="white"></path>
<path fill-rule="evenodd" clip-rule="evenodd" d="M404.782 396.342C404.955 396.391 405.126 396.439 405.297 396.49C405.317 396.337 405.337 396.184 405.358 396.031C405.561 394.529 405.767 393.003 404.657 391.353C404.204 393.009 404.292 394.395 404.378 395.743C404.389 395.907 404.399 396.072 404.409 396.236C404.534 396.272 404.658 396.307 404.782 396.342ZM405.338 397.006C405.325 396.834 405.312 396.663 405.297 396.49C405.172 396.453 405.047 396.418 404.924 396.383C404.751 396.334 404.58 396.286 404.408 396.236C404.414 401.241 403.413 406.112 402.414 410.974C402.378 411.146 402.343 411.318 402.308 411.49C400.524 420.147 396.813 428.094 392.946 435.972C397.275 433.658 400.899 430.518 403.895 426.64C404.088 423.763 404.28 420.887 404.472 418.011C404.664 415.136 404.856 412.26 405.049 409.383L405.101 407.657C405.146 405.562 405.197 403.472 405.247 401.376L405.251 401.222C405.003 399.981 404.83 398.74 405.378 397.523C405.364 397.349 405.351 397.178 405.338 397.006Z" fill="white"></path>
<path d="M84.1381 203.393C83.6476 204.49 83.157 205.581 82.6549 206.706C80.8195 205.898 83.3994 204.323 81.9392 203.549C82.6722 203.497 83.4052 203.445 84.1381 203.399V203.393Z" fill="white"></path>
<path d="M215.826 195.671C216.201 195.856 216.668 195.96 216.611 196.537C216.178 196.491 215.745 196.445 215.635 195.908C215.699 195.833 215.762 195.752 215.826 195.671Z" fill="white"></path>
<path d="M270.978 195.948C270.574 195.752 270.014 195.348 270.285 195.042C270.614 194.678 271.047 195.261 271.387 195.533C271.249 195.671 271.116 195.81 270.978 195.948Z" fill="white"></path>
<path d="M259.065 217.684C259.36 218.018 259.654 218.359 259.948 218.694C259.256 219.144 258.996 218.463 258.586 218.174C258.748 218.013 258.904 217.845 259.065 217.684Z" fill="white"></path>
<path d="M162.324 249.831L161.129 249.248C161.695 248.746 162.249 248.919 162.797 249.282C162.642 249.461 162.486 249.646 162.33 249.825L162.324 249.831Z" fill="white"></path>
<path d="M244.729 202.002C244.556 201.754 243.956 201.622 244.313 201.246C244.579 200.964 244.977 201.189 245.121 201.61C245.006 201.754 244.879 201.887 244.735 202.002H244.729Z" fill="white"></path>
<path d="M190.31 202.176C190.073 202.141 189.837 202.112 189.6 202.077C189.629 201.997 189.652 201.916 189.681 201.835C189.877 201.968 190.073 202.101 190.275 202.228L190.31 202.176Z" fill="white"></path>
<path d="M280.472 221.62C280.305 221.377 279.722 221.239 280.079 220.864C280.339 220.592 280.749 220.789 280.957 221.158C280.795 221.314 280.634 221.464 280.472 221.62Z" fill="white"></path>
<path d="M370.766 406.601C370.328 406.284 370.282 405.828 370.316 405.337C370.466 405.758 370.616 406.18 370.766 406.601Z" fill="white"></path>
<path d="M211.058 203.942C211.497 204.069 211.705 204.478 211.393 204.715C211.012 204.998 210.92 204.415 210.712 204.201C210.822 204.109 210.943 204.022 211.064 203.942H211.058Z" fill="white"></path>
<path d="M188.561 209.113C188.33 209.107 188.105 209.101 187.874 209.096C187.903 208.974 187.938 208.853 187.967 208.732C188.157 208.87 188.348 209.009 188.532 209.148L188.555 209.107L188.561 209.113Z" fill="white"></path>
<path d="M182.224 217.199C181.988 217.181 181.757 217.164 181.52 217.141C181.555 217.031 181.595 216.927 181.63 216.818C181.809 216.962 181.988 217.106 182.166 217.245L182.224 217.193V217.199Z" fill="white"></path>
<path d="M349.095 396.322L349.181 396.409L349.089 396.495V396.322H349.095Z" fill="#1D1D1D"></path>
<path d="M348.985 394.648L349.089 394.677L348.991 394.706L348.985 394.648Z" fill="#1D1D1D"></path>
<path d="M204.034 186.731C203.994 186.656 203.942 186.587 203.919 186.506C203.907 186.471 203.948 186.419 203.965 186.373C203.971 186.506 203.983 186.639 203.988 186.772L204.04 186.731H204.034Z" fill="white"></path>
<path d="M321.969 419.777C321.981 419.581 321.998 419.385 322.009 419.189C322.044 419.327 322.096 419.466 322.108 419.604C322.108 419.662 322.021 419.72 321.969 419.783V419.777Z" fill="white"></path>
<path d="M356.586 177.289C356.667 177.468 356.748 177.647 356.834 177.826C356.621 177.791 356.407 177.756 356.188 177.728C356.32 177.583 356.453 177.433 356.586 177.289Z" fill="white"></path>
<path d="M362.79 269.171C362.715 269.055 362.64 268.934 362.565 268.819C362.715 268.877 362.865 268.928 363.015 268.986C362.94 269.05 362.865 269.113 362.79 269.177V269.171Z" fill="white"></path>
<path d="M139.856 218.751C140.046 218.734 140.231 218.717 140.421 218.705C140.323 218.809 140.225 218.907 140.127 219.011C140.035 218.924 139.948 218.838 139.856 218.751Z" fill="white"></path>
<path d="M182.172 217.245C182.449 217.366 182.721 217.487 182.998 217.603C182.917 217.672 182.836 217.747 182.749 217.816C182.403 217.753 182.057 217.689 182.224 217.193L182.167 217.245H182.172Z" fill="white"></path>
<path d="M164.465 416.291C163.253 421.232 161.499 425.918 158.169 429.883C159.006 424.77 161.02 420.199 164.465 416.291Z" fill="#1D1D1D"></path>
<path d="M152.934 367.292C153.119 364.1 154.758 361.555 156.42 359.027C156.691 362.421 154.458 364.7 152.934 367.292Z" fill="#1D1D1D"></path>
<path d="M160.876 397.147C160.775 394.308 158.815 392.738 154.994 392.438C157.061 391.688 159.196 392.103 161.303 392.051C161.406 393.771 161.435 395.485 160.87 397.147H160.876Z" fill="white"></path>
<path d="M285.788 361.664C285.868 362.461 285.949 363.257 286.03 364.054C285.73 363.275 285.626 362.484 285.788 361.664Z" fill="white"></path>
<path d="M208.902 337.919C209.509 338.596 210.131 339.264 210.738 339.94C210.55 339.993 210.295 340.145 210.188 340.101C209.118 339.562 208.874 338.767 208.947 337.892L208.901 337.929L208.902 337.919Z" fill="white"></path>
<path d="M209.327 338.394C209.061 338.175 208.796 337.961 208.531 337.742C208.594 337.678 208.657 337.62 208.715 337.557C208.911 337.84 209.108 338.128 209.304 338.411L209.327 338.388V338.394Z" fill="white"></path>
<path d="M168.274 444.947C168.569 444.606 168.863 444.26 169.157 443.919C169.227 444.318 169.302 444.716 169.371 445.114C169.002 445.056 168.638 445.005 168.269 444.947H168.274Z" fill="white"></path>
<path d="M187.967 306.097C187.869 305.964 187.771 305.831 187.678 305.699C187.765 305.837 187.857 305.976 187.944 306.114L187.967 306.091V306.097Z" fill="#1D1D1D"></path>
<path d="M212.766 376.502C212.778 376.433 212.783 376.37 212.795 376.301C212.726 376.341 212.651 376.381 212.582 376.422C212.645 376.456 212.703 376.491 212.766 376.525V376.502Z" fill="#1D1D1D"></path>
<path d="M153.886 431.961C153.471 431.863 153.061 431.771 152.645 431.672C153.113 431.367 153.615 431.343 154.134 431.499C154.094 431.678 154.013 431.834 153.886 431.961Z" fill="white"></path>
<path d="M416.009 170.323C416.246 170.444 416.482 170.571 416.719 170.692C416.656 170.761 416.558 170.9 416.54 170.888C416.321 170.767 416.107 170.623 415.894 170.484L416.009 170.323Z" fill="white"></path>
<path d="M253.069 298.069L253.213 298.086L253.109 298.097L253.069 298.069Z" fill="white"></path>
<path d="M268.427 304.342C268.559 304.371 268.657 304.446 268.709 304.572C268.542 304.584 268.45 304.509 268.427 304.342Z" fill="white"></path>
<path d="M227.097 264.023L227.235 264.034H227.143L227.097 264.023Z" fill="white"></path>
<path d="M216.772 300.331L216.738 300.25L216.801 300.354L216.772 300.331Z" fill="white"></path>
<path d="M88.4898 287.397C86.4236 291.27 84.3574 295.148 82.2913 299.021C83.5956 294.692 85.2578 290.543 87.9415 286.872C88.1262 287.045 88.3051 287.218 88.4898 287.397Z" fill="white"></path>
<path d="M58.201 340.622C54.49 340.616 50.7789 340.604 47.0679 340.599C50.7789 339.796 54.49 339.808 58.201 340.622Z" fill="white"></path>
<path d="M45.4288 285.302C46.2541 283.686 47.0505 282.041 48.7474 281.112L48.9263 281.314C47.974 282.832 47.0332 284.361 45.3999 285.273L45.4345 285.302H45.4288Z" fill="white"></path>
<path d="M122.778 353.457C119.685 354.237 116.597 354.254 113.498 353.481C116.591 353.475 119.685 353.463 122.778 353.457Z" fill="white"></path>
<path d="M44.8689 286.474C45.0536 286.081 45.244 285.689 45.4287 285.302L45.3941 285.273C45.2152 285.671 45.0362 286.07 44.8516 286.468L44.8631 286.48L44.8689 286.474Z" fill="white"></path>
<path d="M132.59 394.429C127.574 395.214 122.559 395.272 117.549 394.435C122.564 394.435 127.58 394.435 132.59 394.429Z" fill="white"></path>
<path d="M144.16 383.48C144.109 383.544 144.057 383.607 144.011 383.676C143.965 383.63 143.925 383.59 143.879 383.544C143.942 383.492 144.005 383.44 144.068 383.388L144.16 383.48Z" fill="white"></path>
<path d="M83.0011 400.639C82.1642 400.818 81.3389 400.841 80.5713 400.374C81.4197 400.114 82.2277 400.189 83.0011 400.639Z" fill="white"></path>
<path d="M156.229 417.486C155.352 418 154.377 417.907 153.419 417.907C137.207 417.907 120.995 417.907 104.783 417.907C103.83 417.907 102.855 417.988 101.966 417.498C114.692 417.475 127.424 417.44 140.15 417.428C145.506 417.428 150.868 417.469 156.224 417.492L156.229 417.486Z" fill="white"></path>
<path d="M127.897 444.981C132.93 444.422 137.957 444.439 142.984 445.022C137.957 445.293 132.924 445.293 127.897 444.981Z" fill="white"></path>
<path d="M153.286 444.924C157.164 444.404 161.043 444.393 164.921 444.947C161.043 445.27 157.164 445.264 153.286 444.924Z" fill="white"></path>
<path d="M149.823 444.958C150.429 444.566 151.041 444.554 151.659 444.941C151.047 444.941 150.435 444.953 149.823 444.958Z" fill="white"></path>
<path d="M149.425 431.684C144.536 431.747 139.648 431.874 134.759 431.857C124.977 431.828 115.188 431.719 105.406 431.638C120.083 431.084 134.754 431.101 149.431 431.684H149.425Z" fill="white"></path>
<path d="M101.36 419.645C103.501 419.102 105.642 419.125 107.772 419.714C105.631 419.927 103.495 419.939 101.36 419.645Z" fill="white"></path>
<path d="M151.739 431.678C151.456 431.678 151.179 431.678 150.896 431.678C151.179 431.436 151.456 431.436 151.739 431.678Z" fill="white"></path>
<path fill-rule="evenodd" clip-rule="evenodd" d="M391.95 231.469C391.253 230.408 390.557 229.347 389.87 228.28H389.864L383.943 220.333C383.888 220.194 383.832 220.056 383.775 219.917C383.735 219.818 383.695 219.72 383.656 219.621C383.725 219.687 383.795 219.753 383.865 219.819C383.964 219.913 384.064 220.007 384.162 220.102C386.719 222.185 389.218 224.321 391.197 226.993C392.123 226.257 391.56 225.759 391.092 225.343C390.935 225.205 390.789 225.076 390.713 224.95C383.216 212.576 371.996 204.334 359.749 197.253C359.368 197.033 358.906 196.906 358.479 197.345C372.365 208.853 383.96 222.301 393.269 237.722C391.597 236.804 390.128 235.618 388.664 234.436C386.824 232.951 384.992 231.472 382.771 230.537C384.363 232.216 385.993 233.86 387.621 235.503C393.403 241.336 399.173 247.158 403.208 254.511C401.291 253.3 399.543 251.871 397.8 250.445C395.738 248.759 393.682 247.078 391.359 245.768C394.428 249.621 397.955 253.007 401.498 256.409C404.578 259.366 407.67 262.335 410.486 265.633C410.929 264.408 410.55 263.597 410.197 262.843C410.145 262.733 410.095 262.625 410.047 262.516C407.617 256.935 404.582 251.724 400.565 247.118C400.44 246.974 400.293 246.811 400.139 246.639C399.519 245.95 398.781 245.131 398.92 244.913C400.076 243.13 399.087 242.059 398.155 241.049C397.817 240.683 397.487 240.325 397.269 239.944C395.613 237.05 393.781 234.26 391.95 231.469ZM383.525 219.461C383.496 219.408 383.466 219.356 383.423 219.317C383.404 219.302 383.363 219.312 383.32 219.322C383.298 219.327 383.276 219.332 383.256 219.334C383.314 219.363 383.373 219.39 383.432 219.418C383.463 219.432 383.494 219.447 383.525 219.461ZM404.8 256.021C404.694 256.103 404.58 256.191 404.395 256.338C404.394 256.337 404.394 256.336 404.393 256.335C404.501 256.251 404.585 256.185 404.656 256.129C404.734 256.068 404.796 256.019 404.858 255.971C404.828 255.934 404.798 255.897 404.768 255.86C404.574 255.62 404.381 255.382 404.172 255.158M404.171 255.158C404.175 255.157 404.177 255.157 404.178 255.158C404.375 255.365 404.558 255.592 404.741 255.818C404.782 255.87 404.823 255.921 404.864 255.972C404.843 255.988 404.822 256.004 404.8 256.021" fill="white"></path>
<path d="M383.614 219.502C383.499 219.444 383.377 219.392 383.262 219.334C383.32 219.328 383.401 219.294 383.429 219.317C383.493 219.375 383.527 219.461 383.574 219.536L383.614 219.502Z" fill="white"></path>
<path d="M383.943 220.333C383.833 220.056 383.718 219.779 383.608 219.502L383.568 219.536C383.764 219.721 383.966 219.911 384.162 220.096C384.093 220.177 384.018 220.252 383.943 220.327V220.333Z" fill="white"></path>
<path d="M248.608 291.478C248.238 291.091 247.875 290.698 247.453 290.254C248.469 289.677 248.781 290.543 249.294 290.912C249.064 291.102 248.839 291.287 248.608 291.478Z" fill="white"></path>
<circle cx="250.5" cy="250.5" r="239.5" stroke="white" stroke-width="30"></circle>
</g>
<defs>
<clipPath id="clip0_49_5725">
<rect width="500" height="500" rx="250" fill="white"></rect>
</clipPath>
</defs>
</svg>