<svg width="500" height="500" viewBox="0 0 500 500" fill="none" xmlns="http://www.w3.org/2000/svg">
<g clip-path="url(#clip0_25_247)">
<rect width="500" height="500" fill="#1D1D1D"></rect>
<path d="M361.514 101.87C378.042 104.541 392.71 111.553 406.299 121.084C411.392 124.653 416.211 128.55 420.786 132.759C421.25 133.184 422.373 133.755 422.373 133.755C391.045 96.4746 350.586 79.9512 302.378 80.9424C308.33 80.0244 314.292 79.4971 320.273 79.0088C324.16 78.6914 328.188 79.1846 331.963 77.7392C336.851 78.2519 341.719 79.0576 346.724 78.75C342.808 77.7637 338.892 76.7773 334.976 75.791C333.12 74.3408 330.796 74.2822 328.657 73.7305C323.667 72.4414 318.55 71.7822 313.437 71.2988C307.886 70.7715 302.295 70.6103 296.719 70.2881C302.905 69.79 309.097 69.3506 315.312 69.4043C316.597 69.414 317.881 69.4043 319.16 69.4043C313.018 67.6025 306.792 67.6709 300.557 67.8076C303.145 67.6953 305.732 67.5781 308.682 67.4512C306.782 66.2549 304.902 66.2988 303.154 65.9912C286.919 63.1396 271.172 64.6924 256.006 71.3476C255.498 71.5722 254.927 71.6455 254.385 71.7871L254.414 71.8164C266.289 64.9463 279.004 60.5615 292.598 58.6035C299.731 57.5732 306.88 56.8066 314.072 57.1924C321.245 57.5781 328.442 57.8418 335.522 59.2724C336.704 59.5117 337.925 59.5459 338.442 59.6045C332.881 57.7832 326.548 56.1767 320.112 55.1074C314.653 54.1992 309.145 53.5986 303.608 53.1543C298.501 52.7441 293.428 52.4512 288.32 52.7295C278.184 53.2764 268.428 55.4834 259.092 59.5117C258.296 59.8535 257.539 60.4834 256.382 59.9512C264.297 53.1006 273.545 49.751 283.721 48.54C279.038 46.5771 257.9 49.331 245.449 55.0537C233.218 60.6738 222.749 68.6035 213.682 78.6914C214.048 73.8574 221.411 64.7558 230.269 58.2324C225.962 59.5264 222.598 61.4795 219.438 63.7939C216.357 66.0547 213.564 68.667 210.874 71.4013C215.732 62.0996 222.27 54.3213 230.981 48.2373C223.271 46.9678 209.336 60.0976 202.27 75.3467C202.036 67.2803 202.505 59.917 203.779 52.5928C205.054 45.2588 206.206 37.9053 207.895 30.5517C205.557 32.3584 204.16 35.0781 201.621 36.5967C200.698 36.6308 200.239 37.373 199.653 37.9053C190.649 46.0986 186.909 56.4648 187.021 68.4375C187.031 69.4629 187.305 70.5469 186.645 72.1338C185.654 68.8574 184.844 66.1816 184.033 63.501C183.35 60.1318 184.062 56.8066 184.414 53.4814C184.634 51.3672 185.161 49.2871 185.303 47.1631C179.79 57.5928 181.113 68.5498 182.881 79.5459C176.064 64.0869 177.319 48.8965 184.531 33.8281C182.461 35.4931 181.548 37.9443 179.639 39.5605C177.91 40.1904 177.153 41.8213 176.108 43.1103C171.445 48.8574 168.75 55.3711 168.315 62.8515C168.091 66.709 168.706 70.5517 168.394 74.8779C166.338 71.9238 164.556 69.3652 162.49 66.4014C162.27 70.0293 164.58 72.3681 164.521 75.2978C161.909 73.2373 160.835 70.2295 159.644 67.3096C157.466 61.9678 156.88 56.333 156.616 50.5908C154.219 55.0293 152.944 59.6533 153.96 64.9658C151.963 62.583 149.849 60.2881 148.008 57.7978C145.933 54.9951 144.111 52.0019 142.153 49.1113C141.733 48.4912 141.548 47.2607 140.576 47.5928C139.687 47.8955 140.122 49.0381 140.181 49.7656C140.825 57.832 143.735 64.8144 150.127 70.0879C151.67 71.3574 153.188 72.6562 154.531 74.4531C151.265 73.7939 148.018 73.0566 144.736 72.5C141.235 71.9092 137.964 70.1074 134.277 70.5273C133.369 70.4639 132.603 69.4971 131.45 70.1611C134.868 72.5244 138.511 74.4531 141.499 77.3291C138.232 76.2353 135.625 73.7549 131.797 72.6221C139.746 78.0615 146.992 83.4668 153.394 89.9316C152.134 90.1855 151.016 89.6777 149.868 89.3066C145.381 87.8564 140.991 86.0498 136.26 85.4639C133.945 84.7705 131.636 84.082 129.321 83.3887C136.958 89.3213 144.292 95.3711 150.762 102.573C147.266 101.099 143.682 101.694 139.443 101.631C149.023 105.112 154.668 111.655 158.433 120.474C131.655 107.676 107.422 114.59 83.9941 128.652C89.2236 128.096 94.3799 127.007 99.6093 126.426C104.927 125.835 110.229 125.225 115.635 125.913C108.237 127.187 100.952 128.867 93.9111 131.484C94.0625 132.017 94.3603 132.353 94.7461 132.31C103.286 131.313 111.777 131.104 120.366 132.285C128.979 133.472 136.968 135.991 144.175 140.864C146.011 142.104 146.172 142.349 147.07 143.984C131.675 140.42 117.949 145.229 104.551 151.728C108.296 150.566 112.002 149.209 115.898 148.594C119.893 147.959 123.896 147.373 127.998 147.705C120.264 149.458 112.529 151.211 105.332 154.8C114.141 151.592 123.14 149.883 132.793 151.06C114.297 162.402 98.0517 176.182 83.872 192.436C88.7793 188.833 92.9297 184.185 98.5547 181.582C98.6865 181.724 98.8232 181.86 98.955 182.002C94.1845 187.104 88.9746 191.787 84.6875 197.339C81.2695 201.772 78.0371 206.318 75.542 211.47C87.793 196.621 102.29 184.844 120.42 177.944C104.014 193.638 90.2832 211.133 82.5293 232.778C89.0283 220.449 96.3965 208.853 108.726 201.372C102.378 208.228 96.4843 215.439 91.3525 223.242C86.167 231.123 81.9287 239.512 78.3496 248.486C79.292 248.354 79.3799 247.69 79.624 247.178C84.8242 236.353 91.0888 226.221 99.2431 217.344C104.277 211.865 110.425 207.969 117.109 204.844C117.554 204.634 118.008 204.434 118.696 204.912C97.9492 227.949 83.4375 254.346 75.7519 284.795C77.1338 284.067 77.1972 282.876 77.5683 281.958C82.9931 268.623 88.8623 255.513 96.9531 243.53C100.845 237.769 105.771 232.993 111.694 229.053C90.7959 263.945 83.9941 301.616 88.8525 341.645C92.1045 323.975 95.1709 306.265 100.874 289.111C101.099 294.409 99.8974 299.639 100.146 304.951C100.395 310.259 99.9218 315.601 100.659 320.884C102.178 302.09 104.453 283.545 114.907 267.134C113.032 273.882 111.084 280.615 109.38 287.412C107.661 294.277 106.289 301.206 105.054 308.164C103.828 315.068 102.988 322.017 102.471 329.053C106.519 319.165 109.536 308.916 114.009 298.618C114.868 302.1 113.975 305.024 113.735 307.871C112.671 320.42 112.759 332.978 112.861 345.547C112.925 353.389 113.613 361.191 114.463 368.984C115.483 378.315 117.085 387.554 119.248 396.665C121.724 407.075 125.015 417.256 129.526 426.997C129.619 427.197 129.819 427.349 130.264 427.524C128.56 412.759 129.692 398.169 132.554 383.647C135.62 410.239 144.268 434.849 157.969 457.729C158.467 458.56 158.877 459.443 159.326 460.303C159.204 460.435 159.077 460.561 158.955 460.693C140.718 453.237 123.838 443.423 108.33 431.289C72.4218 403.188 47.2265 367.393 31.8066 324.57C28.3398 314.936 25.6543 305.073 23.6426 295.078C21.9873 286.865 20.8056 278.535 19.956 270.156C18.9062 259.8 18.8525 249.434 19.1992 239.087C19.4287 232.207 20.1513 225.308 21.0595 218.442C22.2461 209.478 23.8183 200.576 26.0498 191.851C30.9424 172.725 37.9053 154.336 47.4756 137.012C68.7207 98.54 98.9062 69.0967 137.383 48.0127C162.71 34.1357 189.766 25.5762 218.32 21.7285C224.795 20.8545 231.323 20.2783 237.881 19.9658C243.726 19.6875 249.565 19.4531 255.395 19.6777C263.032 19.9707 270.645 20.6543 278.257 21.4502C291.06 22.7881 303.599 25.3125 315.903 28.9306C356.25 40.7861 390.752 62.2656 419.546 92.8418C439.902 114.458 455.254 139.277 465.776 167.051C471.035 180.933 474.99 195.195 477.3 209.853C478.603 218.14 479.59 226.475 480.098 234.893C480.596 243.174 480.654 251.411 480.488 259.683C480.435 262.251 480 266 479.995 267.773C467.925 252.407 455.078 238.462 440.85 225.811C433.608 219.37 425.972 213.447 417.988 207.959C417.246 207.446 416.523 206.929 415.561 206.992C409.805 203.018 404.043 199.048 398.369 195.132C400.659 194.922 413.022 200.83 423.32 207.129C431.318 212.021 438.828 217.573 445.835 223.804C452.881 230.068 459.683 236.587 466.309 244.077C466.04 241.968 465.249 240.684 464.546 239.38C451.621 215.337 434.551 194.78 412.939 178.042C412.495 177.7 412.104 177.285 411.689 176.904C411.689 176.172 411.665 175.469 410.596 175.884L410.561 175.854C411.235 175.088 410.376 174.77 410.059 174.399C405.698 169.248 401.001 164.409 396.138 159.736C384.268 148.335 371.02 138.672 357.617 129.199C356.982 128.75 356.152 128.477 355.728 127.471C360.518 130.044 365.117 132.495 369.702 134.98C383.55 142.485 397.109 150.488 410.386 158.955C420.034 165.107 429.57 171.44 439.155 177.69C439.331 177.788 439.507 177.891 439.683 177.988C439.858 178.032 440.146 178.159 440.181 178.115C440.347 177.861 440.112 177.822 439.932 177.769C439.8 177.578 439.663 177.383 439.531 177.192C438.545 175.395 436.953 174.102 435.645 172.573C432.515 168.921 428.877 165.771 425.298 162.578C425.478 161.436 424.668 160.786 424.009 160.093C415.898 151.528 407.178 143.618 397.91 136.333C396.387 135.137 395.068 133.804 393.711 132.471C393.179 131.074 391.914 130.41 390.776 129.678C386.543 126.948 382.114 124.546 377.651 122.212C373.271 119.922 368.877 117.651 364.492 115.371C369.414 115.903 373.862 117.939 378.247 119.985C389.038 125.029 399.033 131.338 407.817 139.453C409.927 141.401 411.982 143.403 414.199 145.234C409.6 139.473 404.39 134.312 398.848 129.478C387.407 119.497 375.127 110.806 361.084 104.805C360.654 104.619 360.288 104.292 359.888 104.033C360.757 103.574 361.255 102.837 361.509 101.909L361.514 101.87Z" fill="#665DFF"></path>
<path d="M181.387 416.743C184.946 428.179 188.33 439.561 193.711 450.249C192.651 441.401 191.314 432.573 193.027 423.052C193.887 426.987 193.037 430.396 193.77 433.765C194.492 437.085 194.561 440.547 195.581 444.551C196.528 434.971 198.428 426.46 203.374 418.433C204.175 421.807 203.33 424.805 203.037 427.715C202.393 434.146 201.104 440.508 200.254 446.919C199.126 455.449 199.053 463.975 201.069 472.412C201.382 473.716 201.06 474.321 199.668 474.009C195.523 473.076 191.382 472.09 187.227 471.196C186.148 470.967 185.864 470.215 185.508 469.375C181.743 460.479 178.911 451.284 177.339 441.763C176.68 437.778 177.749 433.745 178.34 429.785C178.965 425.63 180.02 421.533 180.903 417.417C180.947 417.207 181.167 417.036 181.382 416.743H181.387Z" fill="#665DFF"></path>
<path d="M212.539 304.809C217.3 307.075 222.046 309.37 227.119 311.816C224.653 312.451 223.057 310.483 220.566 310.601C223.213 312.104 225.488 313.398 227.764 314.692C222.139 313.647 217.144 310.781 211.704 309.101C217.993 313.555 223.55 318.945 230.376 322.607C219.365 319.517 211.074 311.426 200.903 306.733C205.142 311.333 210.337 314.888 214.687 320.034C211.538 318.755 209.731 316.113 206.318 315.156C209.443 318.603 212.178 321.616 214.912 324.629C214.814 324.731 214.722 324.829 214.624 324.932C211.26 322.163 207.92 319.37 204.526 316.641C202.705 315.176 200.796 313.818 198.926 312.412C198.618 312.178 198.276 311.743 197.949 312.226C197.817 312.422 198.521 312.764 198.115 313.374C197.441 312.783 196.768 312.187 196.094 311.597C195.732 311.201 195.469 310.625 194.57 310.698C195.005 311.323 195.308 311.758 195.605 312.192C197.842 315.518 200.532 318.491 203.003 321.665C198.735 319.355 195.186 316.191 191.807 312.754C189.707 310.61 187.964 308.042 185.146 306.66L185.195 306.675C184.453 304.678 182.183 303.662 181.777 300.879C184.468 303.276 186.87 305.42 189.751 307.983C188.75 305.493 187.119 304.16 186.06 302.461C185.82 302.08 185.5 302 185.127 300.879L185.552 301.255C187.832 302.725 189.116 305.337 191.738 306.821C191.479 304.805 189.819 304.126 189.014 302.847C188.696 302.344 187.969 301.655 189.409 301.802C189.585 302.256 189.912 302.329 190.283 302.09C190.342 302.056 190.21 301.724 190.166 301.533C190.015 301.006 189.355 300.713 189.551 299.741C193.906 302.388 198.296 304.751 203.53 306.123C202.021 304.541 200.371 303.804 198.843 302.886C198.516 302.69 198.149 302.559 197.803 302.397C199.941 299.785 196.313 300.366 195.986 299.121C196.123 298.984 195.363 298.137 195.5 298C197 299.5 200.957 299.878 203.315 300.464C202.002 299.634 200.693 298.804 199.067 297.773C202.603 297.71 205.376 299.56 208.56 299.648C205.972 298.823 203.379 298.003 200.791 297.178C202.886 296.797 204.966 296.982 207.012 296.201C205.557 295.342 203.95 295.459 202.417 295.161C210.752 292.759 219.136 292.007 227.627 294.204C222.964 293.296 218.354 294.184 213.711 294.756C217.603 295.034 221.592 294.438 225.327 296.304H218.013C220.366 297.524 222.568 297.183 224.243 298.393C223.97 298.76 224.492 298.574 224.487 298.755C221.045 298.467 217.642 297.646 213.555 297.939C218.95 299.507 223.555 301.567 228.237 303.428C223.364 302.998 218.721 301.24 213.403 301.255C218.281 303.169 222.788 304.936 227.29 306.704L227.202 307.002C220.767 305.493 214.331 303.979 207.588 302.397C208.257 303.823 211 303.5 211.133 304.194C211.44 304.228 212.539 304.809 212.539 304.809ZM195.649 305.781C198.306 309.399 199.883 310.762 202.568 311.797C200.278 309.751 198.794 307.392 195.649 305.781Z" fill="#D3CFE8"></path>
<path d="M181.846 468.872C177.393 467.744 173.535 466.338 169.653 465C168.159 464.487 168.154 463.105 168.037 462.046C167.163 454.175 166.743 446.27 166.831 438.345C166.875 434.448 166.963 430.557 167.051 426.66C167.056 426.377 166.992 425.986 167.944 425.835C170.371 440.688 175.244 454.805 181.851 468.872H181.846Z" fill="#665DFF"></path>
<path d="M328.223 327.974C327.876 352.441 324.336 376.216 313.389 398.398C320.781 375.449 326.001 352.036 328.223 327.974Z" fill="#D3CFE8"></path>
<path d="M136.274 85.4297C141.006 86.0156 145.396 87.8223 149.883 89.2725C151.03 89.6436 152.148 90.1514 153.408 89.8975C159.644 95.1953 164.399 101.553 167.534 109.077C159.531 99.5996 149.722 92.5635 138.794 86.9434C137.93 86.499 136.768 86.5039 136.274 85.4297Z" fill="#D3CFE8"></path>
<path d="M195.508 322.085C191.479 318.091 187.451 314.097 183.428 310.098C183.223 309.683 182.734 309.385 182.471 309.653C181.997 310.137 182.749 310.356 182.934 310.713C186.284 315.591 189.629 320.469 192.978 325.342C186.548 319.038 180.102 312.788 175.444 305.02C175.4 304.775 175.478 304.702 175.718 304.692C177.681 304.631 179.621 305.612 181.538 307.637C181.924 308.047 182.104 309.062 182.905 308.408C183.437 307.974 182.71 307.383 182.519 306.938C182.109 305.996 181.46 305.151 180.908 304.272L180.5 303.5C181.5 304 181.987 304.561 182.495 304.766C183.511 305.181 183.633 306.943 185.2 306.67C185.2 306.67 185.151 306.655 185.156 306.655C185 307.544 185.024 307.529 185.483 308.159C188.813 312.773 192.798 316.885 195.874 321.699C195.752 321.826 195.635 321.953 195.513 322.075L195.508 322.085Z" fill="#D3CFE8"></path>
<path d="M208.98 183.071C208.999 177.471 214.004 173.789 219.565 175.435C221.953 176.143 224.023 177.607 226.045 179.048C226.65 179.478 227.246 180.264 226.807 181.104C226.333 182.007 225.415 181.821 224.688 181.465C222.959 180.63 222.686 181.284 222.671 182.964C222.637 186.055 218.228 189.106 214.272 188.965C211.099 188.853 208.97 186.484 208.98 183.071ZM219.722 181.543C219.707 178.833 218.325 177.29 215.903 177.275C213.413 177.261 210.527 180.073 210.474 182.578C210.43 184.541 212.7 187.061 214.468 187.012C217.427 186.929 219.736 184.526 219.722 181.543Z" fill="#D3CFE8"></path>
<path d="M229.795 180.488C230.342 181.807 229.692 182.803 229.043 183.789C224.619 190.498 218.706 194.731 210.532 195.977C205.903 196.68 201.689 195.469 197.353 194.614C196.704 194.487 194.722 194.424 195.723 192.49C196.704 190.596 198.398 189.536 199.595 190.391C207.71 196.187 215.288 193.242 222.534 188.735C226.748 186.113 228.12 184.004 229.795 180.493V180.488Z" fill="#D3CFE8"></path>
<path d="M224.443 457.817C227.417 462.886 228.989 468.145 227.593 474.014C227.5 474.399 227.485 474.839 227.573 475.22C228.062 477.329 226.978 477.476 225.215 477.554C222.983 477.651 222.583 476.87 222.647 474.795C222.803 469.727 222.227 464.624 223.633 459.639C223.804 459.033 223.823 458.374 224.443 457.817Z" fill="#665DFF"></path>
<path d="M156.435 186.548C159.092 186.206 161.191 187.5 163.169 188.897C165.171 190.308 164.976 191.509 162.768 192.471C162.114 192.754 162.007 193.413 161.641 193.892C159.551 196.607 157.388 199.297 153.511 199.268C150.977 199.248 149.526 197.72 149.429 195.176C149.355 193.32 149.321 191.484 150.474 189.854C151.948 187.769 153.638 186.123 156.44 186.553L156.435 186.548ZM158.691 191.939C158.877 189.829 158.076 188.506 155.815 188.462C153.506 188.413 150.923 191.284 150.913 193.843C150.903 195.562 152.358 197.285 153.823 197.3C156.641 197.324 158.74 195.015 158.696 191.939H158.691Z" fill="#D3CFE8"></path>
<path d="M228.228 258.604C226.958 258.242 225.649 258.384 224.365 258.281C222.598 258.14 220.596 259.077 219.18 256.929C218.838 256.411 217.329 256.128 216.24 256.387C210.84 257.676 205.464 255.991 199.956 256.353C200.474 255.601 201.05 255.254 201.807 255.42C204.165 255.942 206.372 254.829 208.672 254.663C209.98 254.57 211.323 253.013 213.066 253.408C216.543 254.194 220.024 254.966 223.481 255.825C225.176 256.25 226.758 257.139 228.613 256.846C229.541 256.699 229.922 257.52 230.454 258.12C229.81 258.662 229.019 256.865 228.53 258.296C228.418 258.389 228.32 258.491 228.232 258.604H228.228Z" fill="#D3CFE8"></path>
<path d="M159.028 305.991C161.875 309.072 163.174 312.983 164.717 316.743C165.742 319.233 166.904 321.714 166.777 324.595C165.791 322.861 164.805 321.128 163.721 319.219C163.145 321.558 164.79 323.394 164.414 325.527C162.275 320.562 159.287 315.981 158.218 310.493C158.906 311.616 159.595 312.734 160.552 314.297C160.894 311.021 158.916 308.701 159.072 306.011L159.028 306.001V305.991Z" fill="#D3CFE8"></path>
<path d="M219.863 291.924C219.268 291.924 218.682 291.89 218.091 291.89C214.932 291.938 211.909 293.364 208.672 292.856C212.036 291.631 215.327 290.225 219.092 289.883C218.242 289.106 217.354 289.829 216.611 289.321C218.457 288.823 220.254 288.34 222.041 287.861C222.378 287.705 222.764 287.568 222.651 287.075C222.524 286.494 222.114 286.401 221.606 286.509C221.372 286.196 220.078 286.177 221.563 285.498C224.502 284.16 227.471 284.78 230.459 284.878C228.345 285.127 226.152 284.927 223.862 286.187C225.771 286.826 227.461 287.129 229.199 287.378C227.803 287.646 226.411 287.91 224.722 288.237C226.362 289.858 228.579 289.092 230.615 290.664C227.441 290.664 224.844 290.664 222.256 290.664C222.061 290.703 221.729 290.571 221.816 291.001C221.196 291.074 220.532 291.001 220.083 291.577C219.951 291.563 219.824 291.548 219.697 291.538C219.751 291.665 219.81 291.797 219.863 291.924Z" fill="#D3CFE8"></path>
<path d="M168.12 282.085C164.585 281.406 161.006 281.86 157.456 281.738C154.214 281.631 150.83 281.548 147.749 283.208C146.094 284.102 144.038 283.872 142.397 285.059C139.556 287.114 139.394 290.005 139.756 293.398C138.354 290.918 138.31 289.121 139.463 286.997C141.777 282.73 145.698 281.216 150.22 280.591C156.308 279.751 162.217 280.776 168.115 282.08L168.12 282.085Z" fill="#D3CFE8"></path>
<path d="M160.84 199.688C156.982 205.029 151.553 206.602 145.327 206.084C143.535 205.933 142.08 202.344 143.154 200.908C143.398 200.581 143.735 200.61 143.994 200.737C144.419 200.947 144.829 201.23 145.181 201.548C148.823 204.79 152.622 204.307 156.519 202.075C157.944 201.255 159.399 200.483 160.84 199.688Z" fill="#D3CFE8"></path>
<path d="M155.996 131.396C146.533 127.285 137.197 122.954 127.051 120.835C134.805 121.143 151.04 126.616 155.996 131.396Z" fill="#D3CFE8"></path>
<path d="M180.171 317.158C176.973 313.721 173.496 310.596 170.84 306.733C170.459 306.182 170.249 305.718 170.6 305.303C171.02 304.814 171.753 305.044 172.129 305.405C175.61 308.769 178.081 312.842 180.176 317.158H180.171Z" fill="#D3CFE8"></path>
<path d="M202.573 250.137C196.929 250.591 191.304 252.778 185.596 250.693C187.246 249.932 200.977 249.482 202.573 250.137Z" fill="#D3CFE8"></path>
<path d="M220.996 281.548C221.343 281.372 221.475 281.245 221.602 281.25C222.52 281.274 223.721 281.602 224.038 280.488C224.346 279.404 223.447 278.037 222.739 277.744C220.864 276.973 221.499 275.889 221.875 274.644C222.71 276.021 223.564 277.368 224.434 278.623C225.581 280.283 227.7 279.312 229.429 279.082C229.58 279.063 229.565 278.34 229.927 278.911C230.01 279.043 229.839 279.541 229.756 279.546C228.872 279.629 227.974 279.619 227.09 279.692C226.123 279.775 224.658 279.336 224.697 280.923C224.736 282.559 226.172 281.587 226.987 281.772C227.378 281.86 227.788 281.87 228.228 281.924C227.451 282.188 226.699 282.397 225.981 282.7C225.166 283.042 224.653 282.788 224.043 281.919C223.237 280.776 222.095 282.329 220.996 281.543V281.548Z" fill="#D3CFE8"></path>
<path d="M162.393 305.957C165.435 310 167.725 314.463 169.956 318.96C166.548 315.156 163.472 311.157 162.109 306.147C162.202 306.084 162.295 306.016 162.393 305.952V305.957Z" fill="#D3CFE8"></path>
<path d="M155.161 307.632C155.625 312.178 156.231 316.577 155.791 321.606C153.799 316.685 153.076 312.29 155.161 307.632Z" fill="#D3CFE8"></path>
<path d="M208.359 187.612C209.15 188.887 210.522 190.615 209.775 191.479C208.735 192.69 206.86 191.694 205.43 190.996C205.288 190.928 205.098 190.933 204.976 190.845C203.999 190.137 201.826 189.736 202.397 188.594C203.027 187.339 204.37 189.087 205.215 189.561C207.666 190.937 207.075 188.115 208.359 187.612Z" fill="#D3CFE8"></path>
<path d="M170.269 314.966C168.345 311.772 166.489 308.735 165.244 305.396C167.026 306.011 170.312 312.109 170.269 314.966Z" fill="#D3CFE8"></path>
<path d="M213.086 266.509C210.806 267.139 208.511 267.207 206.201 266.856C205.942 266.816 205.254 266.221 205.527 266.118C206.436 265.781 206.826 263.999 207.983 264.819C209.551 265.938 211.314 265.986 213.086 266.504V266.509Z" fill="#D3CFE8"></path>
<path d="M200.61 277.31C198.281 275.43 197.388 272.485 195.127 270.801C197.393 270.405 199.844 273.198 200.61 277.31Z" fill="#D3CFE8"></path>
<path d="M189.648 244.937C192.139 244.463 194.126 245.039 196.953 247.065C195.225 246.963 194.019 247.3 192.715 246.733C191.611 246.255 191.157 244.678 189.648 244.937Z" fill="#D3CFE8"></path>
<path d="M355.078 349.243C355.078 343.936 355.088 338.628 355.093 333.34C355.449 338.652 355.347 343.945 355.078 349.243Z" fill="#665DFF"></path>
<path d="M196.006 276.147C194.297 274.526 192.617 272.881 191.714 270.596C193.799 271.846 195.605 273.345 196.367 275.806C196.245 275.918 196.128 276.03 196.006 276.143V276.147Z" fill="#D3CFE8"></path>
<path d="M208.823 270.425C205.981 270.493 203.647 269.551 201.914 267.305C204.219 268.345 206.519 269.385 208.823 270.425Z" fill="#D3CFE8"></path>
<path d="M178.325 269.8C179.53 272.147 180.049 274.022 179.883 275.425C178.911 273.833 177.334 272.441 178.325 269.8Z" fill="#D3CFE8"></path>
<path d="M147.466 197.539C148.506 198.872 148.413 200.435 149.653 201.543C146.338 201.475 145.82 200.503 147.466 197.539Z" fill="#D3CFE8"></path>
<path d="M172.295 312.666C171 310.5 169.16 308.462 168.657 305.757C169.907 307.734 171.162 309.707 172.402 311.694C172.627 312.051 174.864 315.751 174 316C174 316 173.59 314.832 172.295 312.666Z" fill="#D3CFE8"></path>
<path d="M152.554 181.03C154.79 179.917 156.904 179.98 158.892 181.518C156.797 180.815 154.658 181.045 152.554 181.03Z" fill="#D3CFE8"></path>
<path d="M153.096 256.558C155.078 256.289 156.758 255.649 158.564 256.182C156.802 256.079 155.4 259.102 153.096 256.558Z" fill="#D3CFE8"></path>
<path d="M205.815 212.168C203.97 210.41 202.124 208.657 200.278 206.899C202.861 207.856 204.429 209.927 206.094 211.895C206.001 211.982 205.908 212.075 205.815 212.168Z" fill="#D3CFE8"></path>
<path d="M192.456 274.8C190.742 273.545 189.248 272.104 188.33 270.137C190.21 271.216 191.284 273.071 192.456 274.8Z" fill="#D3CFE8"></path>
<path d="M157.905 269.009C158.301 267.803 159.819 267.3 159.424 265.713C159.375 265.518 159.8 265 160.298 265.127C160.513 265.181 160.708 265.317 160.913 265.415C160.723 265.752 160.591 266.138 160.337 266.416C159.551 267.3 158.721 268.149 157.905 269.009Z" fill="#D3CFE8"></path>
<path d="M212.827 275.259C210.991 275.962 209.736 275 208.33 273.794C210.449 272.915 211.768 273.677 212.808 275.239L212.827 275.259Z" fill="#D3CFE8"></path>
<path d="M204.878 276.509C203.423 275.151 201.963 273.794 200.508 272.437C202.842 272.915 204.58 273.999 205.103 276.348C205.029 276.401 204.956 276.46 204.878 276.509Z" fill="#D3CFE8"></path>
<path d="M181.284 269.858C182.026 271.543 183.462 272.939 183.403 274.966C182.168 273.486 181.309 271.851 181.284 269.858Z" fill="#D3CFE8"></path>
<path d="M184.878 253.159C184.575 253.335 184.331 253.491 184.072 253.628C182.983 254.199 182.139 253.447 181.25 253.052C181.162 253.013 181.182 252.329 181.338 252.222C182.236 251.616 182.969 252.441 183.774 252.622C184.146 252.705 184.478 252.959 184.878 253.159Z" fill="#D3CFE8"></path>
<path d="M197.358 258.481C199.687 258.135 201.338 258.745 203.438 259.58C201.104 260.112 199.409 259.853 197.358 258.481Z" fill="#D3CFE8"></path>
<path d="M166.938 176.069C169.473 175.659 171.597 174.995 174.092 175.518C171.689 175.962 169.575 176.689 166.938 176.069Z" fill="#D3CFE8"></path>
<path d="M172.851 270.288C173.091 271.65 172.934 272.939 172.28 274.287C171.611 272.729 172.534 271.548 172.851 270.288Z" fill="#D3CFE8"></path>
<path d="M186.631 274.824C185.747 273.35 184.868 271.88 183.984 270.405C185.615 271.372 186.455 272.847 186.631 274.824Z" fill="#D3CFE8"></path>
<path d="M190.781 258.965C192.456 258.232 194.087 257.9 195.791 259.57C193.916 259.536 191.781 258.465 190.781 258.965Z" fill="#D3CFE8"></path>
<path d="M217.339 284.741C219.058 284.116 220.781 283.486 222.5 282.861C220.952 284.219 219.077 284.648 217.339 284.741Z" fill="#D3CFE8"></path>
<path d="M126.455 285.317C125.21 285.41 125.12 285.758 124.5 286.5C124.124 286.949 124.565 288.931 123.354 288.687L123.34 288.696C124.312 287.51 123.452 284.634 126.455 285.317Z" fill="#D3CFE8"></path>
<path d="M186.05 246.582C187.578 246.357 188.96 247.021 190.396 247.329C188.882 247.534 187.334 247.905 186.108 246.523L186.05 246.582Z" fill="#D3CFE8"></path>
<path d="M212.808 275.239C212.471 276.069 213.623 276.592 213.115 277.808C213.017 276.724 211.348 276.309 212.827 275.259L212.808 275.244V275.239Z" fill="#D3CFE8"></path>
<path d="M193 255.5C192.756 255.485 192.305 255.186 191.455 255.132C192.437 254.287 192.369 255.132 193 255.5Z" fill="#D3CFE8"></path>
<path d="M195.869 321.704C196.514 322.158 197.002 322.725 197.28 323.726C196.587 323.081 196.045 322.583 195.508 322.085C195.63 321.958 195.747 321.831 195.869 321.709V321.704Z" fill="#D3CFE8"></path>
<path d="M126.455 285.322C125.127 284.604 127.109 283.974 127.5 283.5C127.642 283.671 127.358 283.829 127.5 284C127 284.5 126.26 284.736 126.426 285.332L126.45 285.317L126.455 285.322Z" fill="#D3CFE8"></path>
<path d="M205.103 276.348C205.371 276.328 205.537 276.421 205.493 276.719C205.483 276.782 205.371 276.885 205.366 276.885C205.2 276.768 205.039 276.641 204.878 276.514C204.951 276.46 205.029 276.406 205.103 276.353V276.348Z" fill="#D3CFE8"></path>
<path d="M98.5645 181.543C98.8281 181.211 99.126 181.05 99.5166 181.343C99.3311 181.548 99.1455 181.758 98.9648 181.963C98.833 181.821 98.6963 181.685 98.5645 181.543Z" fill="#665DFF"></path>
<path d="M196.367 275.811C196.851 275.991 196.802 276.328 196.631 276.699C196.421 276.514 196.216 276.333 196.006 276.147C196.128 276.035 196.245 275.923 196.367 275.811Z" fill="#D3CFE8"></path>
<path d="M162.114 306.152C161.714 305.947 161.475 305.688 161.826 305.249C162.017 305.488 162.207 305.723 162.392 305.962C162.3 306.025 162.202 306.089 162.109 306.157L162.114 306.152Z" fill="#D3CFE8"></path>
<path d="M228.521 258.296C228.745 258.384 229.209 258.35 228.936 258.76C228.706 259.106 228.447 258.755 228.223 258.604C228.311 258.491 228.408 258.389 228.521 258.296Z" fill="#D3CFE8"></path>
<path d="M159.072 306.006L159.161 306.138C159.161 306.138 159.058 306.006 159.043 306.001C159.028 305.996 159.072 306.006 159.072 306.006Z" fill="#D3CFE8"></path>
<path d="M206.606 212.354C206.733 212.485 206.992 212.71 206.973 212.739C206.694 213.149 206.538 212.788 206.348 212.612C206.436 212.524 206.519 212.437 206.606 212.349V212.354Z" fill="#D3CFE8"></path>
<path d="M206.348 212.617C206.172 212.466 205.996 212.314 205.815 212.168C205.903 212.075 205.996 211.982 206.094 211.895C206.387 211.914 206.582 212.041 206.606 212.358C206.519 212.446 206.436 212.534 206.348 212.622V212.617Z" fill="#D3CFE8"></path>
<path d="M159.336 460.273C159.404 460.444 159.478 460.615 159.546 460.781C159.351 460.742 159.16 460.698 158.965 460.659C159.087 460.532 159.209 460.4 159.336 460.269V460.273Z" fill="#665DFF"></path>
<path d="M301.45 107.222C298.862 107.236 296.274 107.251 293.706 107.266C296.299 107.251 298.877 107.236 301.45 107.222Z" fill="#665DFF"></path>
<path d="M266.206 216.24C266.709 216.265 266.919 216.626 267.095 217.017C266.987 217.158 266.88 217.295 266.772 217.437C266.548 217.065 266.318 216.699 266.094 216.328L266.211 216.235L266.206 216.24Z" fill="#D3CFE8"></path>
<path d="M254.39 71.7725C254.292 71.8701 254.194 71.9678 254.097 72.0654C254.204 71.9775 254.312 71.8896 254.419 71.8018L254.39 71.7725Z" fill="#665DFF"></path>
<path d="M264.165 214.36C264.058 214.209 263.95 214.053 263.848 213.901C263.96 214.048 264.072 214.194 264.185 214.336L264.165 214.355V214.36Z" fill="#D3CFE8"></path>
<path d="M264.185 214.336C264.736 214.409 265.103 214.683 265.205 215.254L265.161 215.317C264.829 215 264.497 214.678 264.165 214.36L264.185 214.336Z" fill="#D3CFE8"></path>
<path d="M265.205 215.254C265.757 215.361 266.094 215.688 266.206 216.24L266.089 216.333C265.591 216.167 265.361 215.757 265.161 215.317L265.205 215.254Z" fill="#D3CFE8"></path>
<path d="M164.526 75.2344C165.23 75.4102 165.117 75.9521 165.083 76.46C164.756 76.1182 164.082 75.9326 164.526 75.2344Z" fill="#665DFF"></path>
<path d="M188.528 206.718C189.261 207.86 188.104 207.772 187.508 208.173C189.646 209.491 191.634 210.917 193.421 212.601C193.724 213.06 194.031 213.524 194.334 213.983C194.773 212.889 194.217 212.582 193.831 212.167C193.636 211.659 193.436 211.151 193.167 210.458C197.151 212.22 198.812 216.649 202.981 217.855C201.717 216.693 200.452 215.536 199.188 214.374C202.337 215.101 204.886 217.011 207.64 218.5C207.781 218.627 207.918 218.749 208.06 218.876C208.274 219.071 208.489 219.271 208.704 219.467C208.978 219.047 208.895 218.744 208.411 218.573C208.255 218.402 208.099 218.236 207.942 218.065C207.205 216.962 206.136 216.21 205.013 215.604C200.994 213.436 197.918 210.302 195.296 206.376C197.332 206.893 197.986 209.047 199.749 209.628C200.081 209.901 200.408 210.634 200.804 210.204C201.136 209.843 200.447 209.545 200.081 209.325C199.793 208.934 199.505 208.544 199.217 208.158C199.075 208.275 199.358 208.041 199.217 208.158C202 209 205.618 213.363 209.095 215.546C209.319 215.638 209.534 216.049 209.783 215.702C210.037 215.345 209.642 215.258 209.412 215.131C209.046 214.574 208.675 214.012 208.138 213.197C209.451 213.446 209.686 214.618 210.53 214.955C210.857 215.316 211.185 215.682 211.609 216.161C211.771 215.258 211.341 214.94 210.862 214.657C208.885 212.181 206.902 209.706 204.925 207.23C209.437 209.74 213.235 213.007 216.624 217.396C216.194 213.783 213.714 211.888 212.137 209.476C212.024 209.594 212.249 209.359 212.137 209.476C215.857 211.459 218.128 214.994 221.678 217.631C220.95 214.965 219.202 213.422 216.995 211.742C220.408 211.962 222.371 214.237 225.301 216.01C223.196 211.996 219.07 211.053 216.482 207.738C221.082 209.594 224.842 212.064 228.86 214.115C226.902 211.127 223.641 209.847 220.789 207.958C223.958 208.417 227 209.271 229.866 210.814C230.687 211.254 231.37 212.474 232.61 211.693C232.41 211.786 232.22 211.874 232.034 211.967C232.2 212.094 232.366 212.22 232.532 212.343L232.547 211.688C231.219 210.687 230.169 209.33 228.084 208.544C230.892 207.943 232.542 209.808 234.949 210.424C233.284 208.627 231.331 208.099 229.725 207.035C229.837 206.903 229.949 206.771 230.062 206.635C232.815 206.947 235.267 208.168 238.226 209.52C235.462 205.594 231.434 205.311 227.796 204.144C232.327 203.441 236.346 204.867 240.848 207.177C238.582 204.833 236.644 203.348 234.046 202.699C235.906 202.147 237.361 203.383 239.295 203.602C237.815 201.771 236.092 201.107 234.168 200.751C237.391 200.472 240.413 201.312 243.416 202.406C240.862 199.74 237.513 198.744 233.943 197.841C238.279 196.825 241.692 198.822 245.242 200.448C243.216 197.811 240.535 196.215 237.371 195.316C240.926 195.009 243.704 196.928 247.029 198.822C245.193 196.078 242.815 194.969 240.047 193.842C243.499 193.285 245.926 195.555 248.943 196.146C247.767 194.203 245.877 193.568 244.07 192.45C246.331 191.796 247.894 193.392 250.159 193.851C247.835 191.498 245.437 190.223 242.098 189.437C246.028 189.188 248.777 190.394 251.165 192.587C251.16 192.557 251.17 192.616 251.165 192.587C250.999 190.878 248.436 188.187 246.238 187.386C246.038 187.313 245.828 187.255 245.218 187.059C248.46 186.473 250.452 188.651 253.387 189.369C251.243 187.426 249.798 185.302 246.966 184.999C249.056 184.618 250.999 185.189 252.938 185.848C253.06 185.013 252.376 184.862 251.927 184.53C251.473 184.188 250.291 184.193 250.716 183.461C251.287 182.474 250.169 182.621 250.115 182.147C251.189 181.669 252.156 182.26 253.528 182.543C251.277 180.219 248.475 179.623 246.048 178.197C249.021 177.714 251.443 179.066 254.031 180.106C252.757 177.772 252.337 177.592 243.035 175.297C246.282 174.784 249.231 175.663 252.215 176.259C252.474 176.605 252.771 176.796 253.187 176.488C252.981 176.283 252.776 176.078 252.571 175.878C248.934 173.363 244.539 173.168 240.437 172.035C244.871 171.639 249.246 171.571 253.563 172.665C248.694 169.354 243.23 169.608 236.995 170.028C238.846 169.032 240.091 168.363 241.878 167.396C239.227 167.401 237.161 167.172 235.062 167.421C238.079 165.306 241.741 166.415 245.003 165.175C240.979 163.929 236.902 164.603 232.264 164.379C235.042 163.26 237.303 162.352 240.101 161.224H226.136C226.102 161.117 226.072 161.01 226.038 160.897C228.372 160.106 230.706 159.31 233.655 158.309C229.666 157.626 226.517 159.511 222.576 159.017C224.642 158.173 226.126 157.562 227.908 156.835C225.315 156.107 223.182 157.611 220.237 157.098C222.962 156.229 225.066 155.56 227.518 154.779C223.694 154.188 220.56 156.151 217.059 155.77C218.973 154.843 220.887 153.92 222.796 152.992C218.875 153.519 215.169 154.701 211.517 156.185C212.488 154.574 214.207 154.047 215.662 152.826C213.567 152.518 212.063 153.617 210.511 154.403C208.895 155.214 207.366 156.2 205.286 157.411C206.712 155.35 208.094 154.11 209.651 153.046C209.837 152.841 210.027 152.636 210.213 152.426C209.812 152.162 209.52 152.26 209.314 152.684C207.64 153.09 206.146 153.876 204.896 155.043C203.523 156.322 203.685 155.043 204.139 154.325C203.904 154.344 203.523 154.08 203.289 154.099C202.903 154.132 200.965 154.916 200.608 154.969C200.833 153.915 202.059 153.461 202.146 152.352C202.142 152.294 202.21 152.367 202.146 152.352C199.563 154.022 197.454 156.21 195.389 158.636C195.359 156.171 197.801 154.52 196.849 151.893C195.721 153.217 194.651 154.467 193.27 156.088C193.143 154.242 194.345 152.388 194.49 151.962C194.485 151.967 194.485 151.967 194.485 151.967L194.49 151.962C194.485 151.967 194.485 151.967 194.485 151.967C194.334 151.932 194.104 151.815 194.046 151.874C192.576 153.319 192.215 155.98 189.358 155.863C188.973 154.955 189.993 154.066 189.783 152.875C187.61 154.72 186.941 157.43 185.398 159.843C185.022 158.807 185.853 158.085 185.257 157.26C184.373 158.383 184.036 159.686 183.68 161.332C182.386 159.677 183.387 158.256 183.479 156.425C182.273 158.544 181.775 160.414 181.39 162.577C180.12 160.438 180.345 158.461 180.984 156.429C177.894 158.358 178.455 162.269 182.508 166.366C178.284 165.907 178.24 162.235 176.917 159.647C175.149 161.849 176.756 164.091 176.834 166.156C176.722 166.244 176.941 166.063 176.834 166.156C175.75 164.608 174.671 163.06 173.489 161.371C172.996 162.567 173.509 163.407 173.934 164.613C171.883 163.68 170.345 161.888 168.845 161.388C167.845 160.888 167.806 160.76 167.029 161.171C167.308 161.708 167.811 161.888 168.348 162.01C170.145 163.597 172.669 164.169 174.515 166.337C170.32 166.073 167.493 163.895 164.681 161.595C166.282 165.404 169.637 167.26 173.396 169.183C172.166 169.418 171.351 169.301 170.54 169.042C168.846 168.148 167.151 167.255 165.457 166.366C165.306 166.195 165.154 166.019 165.008 165.848C164.417 165.194 163.826 164.545 163.235 163.89C163.245 165.131 164.026 165.746 164.783 166.386L164.939 166.537C166.263 168.226 168.064 169.1 170.115 169.55C170.687 169.701 171.258 169.852 172.161 170.092C168.431 170.927 165.691 169.716 163.309 167.455C161.893 166.112 160.584 164.657 159.134 163.358C158.25 162.567 157.264 161.766 155.965 162.074C160.11 166.122 162.835 172.103 169.847 172.416C166.37 172.933 163.733 171.508 161.409 169.266C159.788 167.704 158.226 166.117 156.355 164.794C154.754 163.656 153.201 163.275 151.141 163.627C152.054 163.939 152.791 164.193 154.056 164.628C151.58 165.184 149.603 165.629 147.625 166.078C149.769 165.682 151.263 167.723 153.304 167.543C150.174 168.002 147.337 169.071 144.651 170.917C145.032 171.639 146.111 170.936 146.395 171.942C144.788 172.714 143.167 173.49 141.546 174.266C141.814 175.052 142.454 174.481 143.035 175.038C139.861 176.976 138.899 180.453 137.166 183.451C137.088 181.986 137.649 180.736 138.309 179.559C139.178 178.011 137.937 178.617 137.2 178.544C137.835 177.753 138.421 177.03 138.992 176.303C139.383 175.804 140.071 175.36 138.709 175.121C137.571 174.921 138.67 174.457 138.821 174.325C139.764 173.505 140.765 172.753 141.946 171.82H138.602C139.446 170.697 140.545 170.385 141.463 169.823C142.02 169.481 142.244 168.837 142.195 168.427C142.068 167.426 141.165 168.593 140.691 168.065C142.913 166.835 145.086 165.634 147.249 164.432C147.664 164.213 148.094 163.993 148.753 163.651C147.181 163.558 145.979 163.49 144.773 163.422C146.214 162.079 147.518 160.468 149.866 160.721C149.036 160.585 148.206 160.448 146.99 160.248C148.865 158.832 150.936 159.291 152.601 158.241C151.629 158.021 150.638 158.046 149.764 157.133C151.443 157.133 152.942 157.172 154.441 157.113C154.964 157.094 153.758 155.966 154.983 156.117C155.784 156.219 156.604 156.136 157.444 156.136C157.298 155.101 156.287 155.385 155.804 154.945C156.155 154.105 157.22 154.428 157.522 154.12C159.187 152.421 160.687 153.705 162.244 154.125C162.444 154.178 162.757 154.252 162.864 154.154C164.012 153.08 164.002 153.07 165.286 154.139C165.525 154.335 165.784 154.506 166.536 155.048C166.009 154.042 165.286 152.792 164 152.5L166.019 152.645C166.331 152.704 166.839 152.909 166.927 152.792C168.685 150.497 169.92 151.962 171.189 153.334C171.346 153.505 171.551 153.627 171.736 153.768C171.79 154.003 171.883 154.208 172.151 154.037C172.19 154.012 172.049 153.695 171.99 153.514C172.005 152.347 171.004 151.542 171.111 150.228C171.727 150.99 172.342 151.752 173.045 152.621C175.066 149.188 175.159 153.256 176.536 153.602C176.59 152.699 176.604 151.859 176.697 151.024C176.756 150.453 176.199 149.613 177.142 149.379C177.996 149.169 177.923 150.223 178.436 150.614C179.344 148.773 178.245 147.059 178.128 144.847C178.792 146.39 179.275 147.504 179.876 148.91C183.24 114.999 166.116 82.8211 134.5 69.4519C138.187 69.032 141.999 70.9141 145.5 71.5C148.781 72.0518 151.07 72.1829 154.5 73.5C153.152 71.708 152.068 70.7214 150.525 69.4519C144.134 64.1834 140.649 57.0713 140 49C139.941 48.2725 139.611 46.8027 140.5 46.5C141.472 46.168 142.127 47.8552 142.552 48.4753C144.51 51.366 146.331 54.3591 148.406 57.1619C150.252 59.657 152.366 61.947 154.358 64.3298C153.348 59.0173 154.617 54.3982 157.015 49.9548C157.278 55.7019 157.864 61.3318 160.042 66.6736C161.233 69.5935 161.5 72 164.5 74L165.5 74.5C165.051 75.1934 165.145 75.5017 165.472 75.8484C170.442 83.3191 177.161 89.4373 181.917 97.6599C182.356 93.5632 181.473 90.2087 180.545 86.9226C179.021 81.5076 176.912 76.2878 174.896 71.0388C173.846 68.3093 173.064 65.4578 172.791 62.5427C172.215 56.3855 173.582 50.6189 176.473 45.1355C177.591 43.0164 179.329 41.2732 180.037 38.9392C181.946 37.323 182.859 34.8669 184.93 33.2068C177.723 48.2751 176.463 63.4656 183.279 78.9246C181.512 67.9285 180.188 56.9714 185.701 46.5417C185.56 48.6609 185.032 50.7459 184.813 52.8601C184.461 56.1853 183.748 59.5105 184.432 62.8796C183.24 65.7361 184.422 68.5388 184.822 71.2927C186.058 79.7888 189.598 87.7527 190.54 96.3757C191.282 103.202 190.95 109.891 190.091 116.639C189.515 121.19 188.113 125.536 187.186 130.16C186.341 128.221 186.165 126.249 185.633 124.374C185.467 129.818 186.404 135.219 185.774 140.922C184.656 135.238 184.319 129.637 181.731 124.584C183.157 133.563 182.942 142.548 182.039 151.947C184.656 148.632 185.315 145.082 185.94 141.517C186.888 143.29 186.009 145.204 186.99 147.479C187.972 143.602 188.123 140.223 188.567 136.874C189.139 139.432 188.909 142.03 188.953 145.199C190.423 142.543 189.803 139.872 191.121 137.562C191.614 139.144 190.901 140.638 191.741 142.172C193.489 138.866 193.284 135.365 195.447 132.201C197.913 128.607 198.802 123.793 200.911 119.72C197.889 123.422 195.931 127.645 194.856 132.782C193.743 129.354 197 120.629 202.117 112.289C202.264 112.108 202.41 111.932 202.552 111.752C202.996 111.464 203.533 111.239 203.162 109.901C202.698 110.629 202.42 111.058 202.146 111.488C201.995 111.547 201.888 111.654 201.829 111.805C195.149 117.709 192.874 125.731 191.38 134.13C191.702 128.988 191.961 123.91 192.859 118.944C194.285 111.073 195.154 103.153 195.721 95.1941C196.448 84.9988 194.485 75.0134 193.152 64.9939C192.229 58.0701 192.859 51.4783 195.823 45.0964C197.4 41.698 200.213 39.2029 202 35.9802C204.534 34.4617 205.936 31.7419 208.274 29.9353C206.585 37.2937 205.433 44.6472 204.158 51.9763C202.884 59.3005 202.42 66.6638 202.649 74.7302C209.715 59.4812 223.646 46.3513 231.36 47.6208C222.649 53.7048 216.111 61.488 211.253 70.7849C213.938 68.0505 216.736 65.4382 219.817 63.1775C222.977 60.863 226.341 58.9099 230.647 57.616C221.795 64.1394 214.432 73.241 214.061 78.075C223.133 67.9871 233.597 60.0574 245.828 54.4373C258.279 48.7146 279.417 45.9607 284.1 47.9236C273.924 49.1345 264.676 52.4841 256.761 59.3347C257.923 59.8669 258.675 59.2419 259.471 58.8953C268.807 54.8669 278.562 52.6599 288.699 52.113C293.807 51.8396 298.875 52.1277 303.987 52.5378C309.524 52.9822 315.032 53.5876 320.491 54.491C326.927 55.5603 333.26 57.1667 338.821 58.988C338.299 58.9294 337.078 58.8953 335.901 58.656C328.821 57.2253 321.624 56.9617 314.451 56.5759C307.259 56.1902 300.11 56.9617 292.977 57.9871C279.383 59.9451 266.668 64.3298 254.793 71.2C254.686 71.2878 254.578 71.3757 254.471 71.4636C254.568 71.366 254.666 71.2683 254.764 71.1707C255.306 71.0291 255.877 70.9509 256.385 70.7312C271.551 64.0759 287.298 62.5232 303.533 65.3748C305.281 65.6824 307.161 65.6384 309.061 66.8347C306.106 66.9666 303.519 67.0789 300.936 67.1912C292.659 67.3669 284.749 69.2761 277.034 72.2058C283.694 71.0535 290.384 70.2722 297.103 69.6667C302.674 69.989 308.265 70.155 313.816 70.6775C318.929 71.1609 324.046 71.8201 329.036 73.1091C331.175 73.6609 333.499 73.7195 335.354 75.1697C335.145 75.6433 334.71 75.6482 334.329 75.5652C327.679 74.0466 320.901 73.6658 314.129 73.0945C310.989 72.8308 307.84 72.9431 304.739 72.6062C297.068 71.7761 289.505 72.8601 281.902 73.241C288.021 74.8035 294.266 73.8806 300.442 74.4714C304.344 74.8474 308.328 74.9841 312.269 75.2087C318.973 75.5945 325.652 76.4587 332.342 77.1228C328.562 78.573 324.539 78.075 320.647 78.3923C314.666 78.8806 308.704 79.408 302.752 80.3259C350.96 79.3347 391.419 95.8582 422.747 133.138C421.995 133.182 421.624 132.567 421.16 132.142C416.585 127.938 411.766 124.037 406.673 120.468C393.084 110.941 378.416 103.925 361.888 101.254C359.017 100.936 356.229 99.5886 352.571 100.297C355.574 101.498 357.923 102.44 360.271 103.378C360.667 103.636 361.038 103.964 361.468 104.149C375.511 110.145 387.791 118.842 399.231 128.822C404.769 133.656 409.983 138.817 414.583 144.579C412.361 142.748 410.306 140.746 408.201 138.798C399.417 130.682 389.422 124.374 378.631 119.33C374.246 117.279 369.798 115.243 364.876 114.716C355.379 110.785 345.906 106.854 335.799 104.598C327.21 102.679 318.572 101.268 309.788 100.995C297.537 100.614 285.384 101.703 273.318 103.871C260.906 106.097 248.675 108.876 237.415 114.857C232.757 117.333 228.826 120.604 225.882 125.707C261.536 108.788 298.543 105.58 336.707 111.317C335.325 110.282 333.694 110.341 332.195 109.989C326.185 108.588 320.052 107.963 313.924 107.245C309.891 106.771 305.843 107.069 301.824 106.615C299.246 106.63 296.673 106.644 294.095 106.654C279.549 107.001 265.276 109.344 251.126 112.64C260.398 108.632 270.154 106.678 280.066 105.341C285.315 104.633 290.608 104.359 295.862 103.802C303.719 102.972 311.561 103.134 319.314 104.047C330.721 105.385 341.727 108.651 352.527 112.552C366.453 117.577 379.69 124.047 392.474 131.483C394 132.5 396.766 134.481 398.289 135.677C407.557 142.963 416.272 150.873 424.388 159.437C425.047 160.131 425.853 160.78 425.677 161.923C423.729 160.404 421.761 158.91 419.842 157.357C411.419 150.546 402.464 144.564 392.85 139.55C381.644 133.705 369.983 129.066 357.757 125.844C352.317 124.413 346.922 122.845 341.36 121.859C335.325 120.79 329.339 119.511 323.206 119.003C317.386 118.519 311.604 117.645 305.789 117.079C302.02 116.713 298.226 116.591 294.441 116.361C290.555 116.136 286.668 116.176 282.786 116.493C266.863 117.367 251.258 119.467 236.795 128.08C238.475 128.485 239.393 127.836 240.354 127.489C253.821 122.611 267.757 119.833 282.01 119.135C292.259 118.632 302.557 118.788 312.811 119.95C320.335 120.804 327.747 122.064 334.91 124.486C342.532 127.059 349.91 130.253 356.814 134.437C361.316 137.167 365.828 139.891 369.886 143.373C355.921 136.517 341.653 130.551 326.512 126.849C311.268 123.124 295.857 121.815 280.218 123.261C295.105 122.831 309.817 124.12 324.295 127.665C320.481 128.148 316.702 127.465 312.947 127.191C310.125 126.986 307.288 127.206 304.5 126.844C295.286 125.648 286.053 126.415 276.888 127.015C268.25 127.582 259.617 128.851 251.136 130.824C249.212 131.273 247.278 131.698 245.384 132.255C243.406 132.831 241.453 133.51 239.52 134.218C237.742 134.867 236.004 135.614 234.246 136.317C253.875 132.338 273.641 131.996 293.48 132.709C285.652 133.89 277.903 135.262 270.311 137.44C271.629 137.562 272.957 137.738 274.222 137.528C279.515 136.659 284.866 137.225 290.184 136.835C296.395 136.381 302.615 137.054 308.836 137.479C313.167 137.772 317.513 138.031 321.78 138.656C331.595 140.092 341.287 142.186 350.804 145.077C366.995 149.989 382.303 156.844 396.663 165.785C401.507 168.798 406.189 172.064 410.945 175.219L410.979 175.248C411.097 175.853 411.648 175.995 412.073 176.268C412.488 176.649 412.879 177.064 413.323 177.406C434.935 194.144 452.005 214.701 464.93 238.744C465.633 240.048 466.424 241.332 466.692 243.441C460.066 235.951 453.265 229.432 446.219 223.168C439.212 216.937 431.702 211.386 423.704 206.493C413.406 200.194 401.043 194.286 398.753 194.496C404.432 198.412 410.188 202.382 415.945 206.356C418.411 209.178 421.487 211.332 424.251 213.822C436.38 224.735 448.084 236.073 459.285 247.938C465.457 254.471 471.438 261.166 477.356 267.928C479.72 270.629 480.022 273.187 479.554 276.718C478.875 281.844 477.889 286.932 477.288 292.455C455.242 261.678 431.712 232.567 403.001 208.041C402.518 207.626 402.283 206.752 401.219 207.167C401.727 207.64 402.171 208.055 402.615 208.47C404.964 211.322 407.273 214.208 409.671 217.015C419.598 228.646 428.655 240.922 437.43 253.441C446.707 266.674 455.711 280.087 464.783 293.456C467.146 296.937 469.28 300.585 471.824 303.925C473.553 306.195 473.558 308.285 472.835 310.873C467.82 328.798 460.623 345.814 451.404 361.947C443.47 375.834 434.168 388.749 423.562 400.78C411.844 414.066 398.826 425.863 384.505 436.224C374.812 443.236 364.603 449.462 353.807 454.667C352.742 455.179 351.595 455.516 350.481 455.936C350.369 455.814 350.594 456.058 350.481 455.936C358.973 450.277 366.81 443.846 374.056 436.61C383.992 426.683 392.068 415.477 397.073 402.274C400.208 394.003 402.254 385.453 403.26 376.61C403.899 370.975 404.451 365.35 404.114 359.711C403.885 355.834 403.792 349.74 403.792 349.74C403.792 349.74 403.5 348 403.514 346.307C407.596 363.148 408.103 380.136 408.67 397.137C411.434 381.459 413.021 365.678 412.898 349.74C412.776 333.861 411.146 318.158 407.596 302.645C416.678 321.615 421.614 341.718 423.978 362.596C424.822 362.01 424.432 361.205 424.471 360.546C424.891 353.641 424.471 346.727 424.041 339.857C423.328 328.48 421.458 317.274 418.47 306.2C413.841 289.027 406.932 272.855 398.807 257.113C392.352 244.603 384.754 232.841 376.316 221.6C370.848 214.31 364.803 207.504 358.636 200.804C358.431 200.585 358.274 200.321 358.313 199.857C372.459 211.346 385.794 223.69 397.835 237.401C409.959 251.205 420.35 266.234 429.427 282.191C438.436 298.026 445.765 314.637 452.591 331.552C451.526 327.46 450.594 323.324 449.368 319.281C445.457 306.376 440.716 293.773 435.066 281.527C426.561 263.08 416.741 245.37 405.481 228.436C398.719 218.27 391.048 208.944 382.269 200.492C381.805 200.043 381.312 199.608 380.794 199.227C380.633 199.105 380.33 199.174 379.808 199.135C382.43 202.509 385.013 205.653 387.391 208.949C389.803 212.289 392.254 215.624 393.797 219.579C372.283 197.152 346.79 180.897 317.908 169.799C317.845 169.989 317.972 169.608 317.908 169.799C321.746 170.809 325.745 171.342 329.607 172.24C333.538 173.153 337.293 174.789 341.395 175.048C328.143 168.734 314.202 164.252 300.457 159.222C314.134 161.053 327.166 165.223 339.852 170.487C352.503 175.736 364.935 181.488 376.849 188.3C367.742 180.643 344.31 167.181 323.416 160.531C307.293 155.399 277.664 150.258 264.314 151.088C283.025 154.872 298.035 165.17 312.078 177.528C311.937 177.694 312.215 177.367 312.078 177.528C305.984 173.988 300.198 169.877 293.499 167.43C297.21 170.292 301.087 172.894 304.637 175.917C312.2 182.352 319.866 188.666 327.381 195.165C335.198 201.928 342.718 208.959 349.085 217.108C352.186 221.073 355.047 225.253 357.967 229.359C362.093 235.165 365.786 239.68 368.5 247.5C368.612 247.821 368.981 248.565 369.3 248.27C369.413 248.166 369.485 248.031 369.476 247.919C369.3 246.339 368.401 245.243 367.972 244.222C362.146 230.38 355.569 216.923 346.429 204.916C342.156 199.301 337.493 193.983 332.767 188.236C335.081 188.744 336.292 190.355 337.654 191.576C341.722 195.219 344.769 199.701 347.703 204.271C353.25 212.914 359.295 221.234 364.612 230.033C373.377 244.535 380.613 259.725 385.203 276.073C387.586 284.564 389.471 293.163 390.599 301.947C391.502 308.993 391.805 316.029 392.068 323.104C392.264 328.334 392.093 333.553 391.858 338.739C391.434 348.119 389.891 357.396 387.342 366.464C387.01 367.64 387.059 368.969 385.853 370.009C388.997 345.663 385.574 322.069 377.962 299.012C370.359 275.99 360.716 253.954 345.599 234.716C353.304 248.417 358.919 262.987 363.816 277.87C367.059 287.723 369.852 297.709 372.186 307.802C373.851 314.999 375.159 322.294 375.945 329.677C376.443 334.335 376.541 338.998 376.946 343.637C377.332 348.012 377.469 352.372 377.269 356.718C376.722 368.783 375.286 380.717 372.249 392.479C367.61 410.424 358.943 426.273 348.118 441.097C347.659 441.727 347.376 442.567 346.092 442.845C358.87 419.764 364.168 395.038 364.881 369.178C364.686 369.125 364.49 369.071 364.295 369.017C363.045 373.583 361.8 378.143 360.55 382.709C360.296 382.709 360.042 382.719 359.788 382.719C363.201 359.149 361.297 336.044 354.769 313.339C354.524 313.353 354.28 313.373 354.036 313.387C354.52 319.847 354.998 326.307 355.481 332.748C355.481 338.036 355.472 343.344 355.467 348.651C354.734 361.249 353.743 373.832 350.862 386.156C349.559 391.742 346.946 396.903 344.627 402.133C340.76 410.853 336.517 419.384 331.453 427.479C330.877 428.397 330.496 429.496 329.207 429.999C338.665 407.885 346.912 385.487 346.419 360.956C345.931 336.762 341.116 313.519 330.833 291.464C339.046 317.177 340.467 343.363 336.302 369.93C336.302 365.013 336.448 360.092 336.263 355.184C336.077 350.248 335.555 345.321 335.042 340.394C334.896 354.901 331.712 368.749 326.873 382.255C326.629 382.206 326.385 382.152 326.141 382.103C326.766 379.545 327.425 376.991 328.006 374.423C329.5 367.811 330.594 361.141 331.473 354.418C332.215 348.705 332.488 342.904 333.538 337.279C334.769 330.668 332.068 324.989 330.53 319.042C328.084 309.564 324.212 300.599 319.847 291.854C319.461 291.078 319.051 290.316 318.294 289.594C323.133 309.515 323.392 329.476 319.939 349.589C316.526 369.476 310.057 388.339 301.395 406.517C302.366 403.466 303.396 400.433 304.3 397.362C307.688 385.795 311.009 374.227 312.957 362.289C314.139 355.052 315.14 347.821 315.896 340.526C316.634 333.373 317.166 326.22 317.112 319.061C317.044 309.764 315.428 300.638 312.815 291.708C312.781 291.591 312.591 291.517 311.829 290.907C313.338 303.778 312.957 316.097 311.424 328.373C309.891 340.638 306.829 352.567 303.255 364.388C307.596 340.99 309.476 317.509 306.248 293.495C305.999 296.088 305.643 298.373 305.589 300.663C305.452 306.62 304.759 312.518 303.572 318.344C301.57 328.187 297.767 337.343 292.532 345.887C288.885 351.84 284.676 357.391 280.325 362.855C276.57 367.572 272.669 372.142 268.426 376.41C265.34 379.515 262.122 382.484 258.958 385.507C258.548 385.897 258.123 386.312 257.381 386.005C275.086 364.33 290.447 341.454 295.218 313.094C291.204 319.926 287.64 327.011 283.299 333.656C285.911 327.787 288.88 322.084 291.141 316.073C294.334 307.596 296.746 298.964 297.825 289.887C299.217 278.148 298.27 266.732 295.359 255.321C292.107 242.562 286.79 230.819 279.314 220.013C278.03 218.134 276.751 216.254 275.467 214.379C275.398 214.403 275.521 214.403 275.467 214.379C275.467 214.379 275.311 215.287 275.579 215.678C276.648 217.264 277.747 218.837 278.836 220.414C283.294 228.524 287.044 236.932 289.222 245.956C291.424 255.067 292.693 264.315 291.849 273.695C291.478 277.806 291.375 282.006 290.096 286.254C289.764 285.878 289.485 285.702 289.505 285.57C290.271 280.629 289.734 275.673 289.402 270.761C288.631 259.354 286.141 248.324 281.282 237.889C278.157 231.176 274.495 224.799 269.832 219.022C269.432 218.529 268.943 218.109 268.494 217.65L267.483 216.444C267.308 216.049 267.098 215.687 266.595 215.668C266.482 215.116 266.145 214.789 265.594 214.681C265.491 214.11 265.12 213.837 264.573 213.763C264.461 213.617 264.349 213.47 264.236 213.329C264.344 213.48 264.451 213.636 264.554 213.788C264.886 214.105 265.218 214.427 265.55 214.745C265.75 215.184 265.979 215.594 266.478 215.761C266.702 216.132 266.932 216.498 267.156 216.869C267.469 217.24 267.776 217.616 268.089 217.987C274.993 228.007 279.925 238.949 283.162 250.653C284.71 256.259 285.726 261.937 286.15 267.806C286.902 278.241 285.696 288.378 283.255 298.466C282.82 300.253 282.513 302.059 281.731 303.773C282.62 299.076 282.742 294.31 283.006 289.574C283.274 284.735 283.143 279.882 282.698 275.009C282.264 270.228 281.687 265.477 280.887 260.76C280.096 256.097 279.061 251.478 277.864 246.854C278.919 257.972 279.085 269.027 277.84 280.155C276.609 291.146 273.733 301.625 269.734 311.981C279.891 278.588 273.729 247.015 259.686 216.303C265.037 232.582 269.466 249.1 271.243 266.278C268.025 254.345 263.235 243.09 257.166 232.367C261.502 244.296 267.239 255.761 268.831 268.568C265.672 258.597 261.243 249.222 255.857 240.282C255.545 239.76 255.335 238.812 254.534 239.349C253.763 239.867 254.812 240.253 254.988 240.687C257.674 247.289 261.082 253.593 263.353 260.37C265.096 265.575 266.39 270.878 265.726 276.532C261.937 260.819 254.07 246.644 248.948 231.42C251.653 244.559 257.864 256.713 259.52 270.145C257.366 263.29 254.72 256.659 250.867 250.463C258.045 264.008 257.732 278.158 254.334 292.582C255.13 274.467 252.347 257.211 242.127 241.761C244.856 249.515 246.863 257.455 248.357 265.526C247.044 260.653 245.12 256.024 242.85 251.478C243.353 255.302 244.124 259.11 244.295 262.943C244.52 267.889 244.822 272.899 243.113 277.723C242.352 279.877 243 279 243.5 280.5C243.378 280.603 244.793 282.836 244.686 282.953C243.899 282.816 243.641 280.751 242.376 282.323C242.249 282.479 242.19 282.352 242.107 282.137C240.34 277.665 235.774 277.553 232.229 275.873C231.268 275.414 230.125 275.331 229.065 275.072C228.548 275.702 229.808 276.156 229.139 276.908C227.215 273.265 224.314 270.863 220.33 269.857C220.12 270.99 221.395 271.766 221.062 272.928L221.102 272.88C220.398 273.319 220.164 272.684 219.793 272.323C218.87 271.42 218.992 271.547 218.099 272.494C216.927 273.739 215.442 272.44 214.734 272.001C213.045 270.946 211.751 269.261 209.529 269.095C209.417 269.086 209.344 268.558 209.217 268.168C210.389 268.007 211.307 268.671 212.103 269.169C213.499 270.038 214.661 270.399 215.643 268.803C215.965 268.28 216.976 267.494 215.491 267.001C214.91 266.81 214.368 266.498 213.88 265.936C216.551 266.615 219.222 267.294 222.518 268.129C220.979 265.682 219.183 264.589 217.391 264.066C213.626 262.972 209.744 262.235 205.75 262.533C203.782 262.679 201.927 262.24 200.174 260.936C209.383 262.411 218.675 261.512 227.63 263.915C224.856 260.99 220.965 261.517 217.649 260.389C213.958 259.135 210.354 261.298 206.365 259.125C217.303 257.518 227.225 259.1 236.976 262.362C234.021 262.709 231.385 260.848 228.426 261.166C228.201 260.516 227.664 260.731 227.21 260.731C227.234 260.863 227.264 260.995 227.288 261.127C227.679 261.034 228.113 261.805 228.47 261.063C228.733 262.982 230.755 262.548 231.79 263.48C232.322 263.964 233.226 264.105 234.197 265.116C232.303 264.501 230.931 264.022 229.534 263.622C229.197 263.524 228.675 263.446 228.494 263.949C228.318 264.437 228.733 264.75 229.07 264.891C233.577 266.796 237.752 269.325 242.103 271.952C240.496 266.869 240.418 261.752 239.026 256.815C237.63 251.854 236.106 247.011 233.958 242.313C235.11 247.035 234.925 252.045 236.521 256.537C235.423 256.371 235.403 257.347 235.628 257.968C235.037 254.349 231.238 256.317 228.87 255.38C227.122 254.686 225.325 254.31 223.543 253.427C219.393 251.366 214.998 250.096 210.027 251.371C205.242 252.596 200.423 254.301 195.271 253.519C197.337 252.401 199.661 252.269 201.902 251.942C203.621 251.688 205.096 251.429 206.604 250.258C207.679 249.423 209.637 249.696 211.209 249.535C214.036 249.237 216.844 249.428 219.632 249.935C219.656 250.614 219.988 250.873 220.687 250.961C222.01 251.132 223.558 251.088 224.578 251.776C226.941 253.368 229.681 253.7 232.405 254.94C231.79 250.834 230.984 247.108 229.085 243.671C229.363 245.238 229.642 246.801 229.92 248.368C229.686 248.461 229.451 248.553 229.217 248.646C227.474 243.221 226.775 237.318 222.557 232.987C224.891 237.235 223.387 242.489 226.316 246.566C226.419 246.713 226.438 247.098 226.336 247.191C224.148 249.071 226.287 249.139 227.352 249.716C227.762 249.94 228.587 249.93 228.245 250.931C225.35 250.931 222.562 249.432 219.583 249.994C219.456 248.378 216.312 246.683 214.485 247.758C212.171 249.115 210.579 247.679 208.782 247.03C208.201 246.82 207.693 246.425 207.034 246.522C201.961 247.245 197.894 244.755 193.699 242.513C192.874 242.074 191.897 241.342 190.594 241.976C189.29 242.611 188.021 241.483 186.717 241.244C185.594 241.039 184.539 240.062 183.309 240.883L183.353 240.814L183.265 240.824C181.214 242.836 181.297 243.358 183.87 244.496C184.451 244.755 185.066 244.935 185.623 245.238C185.945 245.414 186.18 245.756 186.453 246.024L186.512 245.966C182.493 245.848 178.943 244.017 175.081 243.055C178.133 244.833 181.18 246.61 184.231 248.383C184.148 248.563 184.065 248.744 183.982 248.925C181.727 248.383 179.656 247.289 177.64 246.166C177.005 245.809 176.336 245.58 175.696 245.267C175.198 245.023 174.378 244.686 174.173 245.184C173.953 245.721 174.114 246.63 175.35 246.703C173.553 247.665 172.103 245.648 170.579 246.703C170.096 244.603 167.967 245.653 166.805 244.857C168.069 245.472 169.339 246.083 170.604 246.698C170.965 247.196 171.326 247.694 171.81 248.368C170.027 248.627 168.66 246.981 166.771 247.777C167.957 248.558 169.002 249.247 170.047 249.935C167.469 249.257 164.925 248.71 161.961 249.061C163.016 249.921 163.88 250.448 165.11 250.36C165.76 250.316 166.302 250.609 166.053 251.493C165.818 252.343 165.491 252.079 164.754 252.011C163.338 251.884 161.531 250.829 160.506 252.162C159.915 252.928 159.695 253.368 158.66 253.861C156.585 254.843 154.715 253.964 152.752 254.213C154.158 253.871 155.076 253.016 155.77 251.849C155.267 250.892 154.187 251.762 153.572 250.99C155.447 251.171 157.107 250.414 159.207 250.302C157.381 249.242 155.735 249.935 153.528 249.887C155.291 249.232 156.458 248.803 157.972 248.241C156.351 248.051 156.653 245.634 154.71 246.122C159.012 244.359 163.328 242.626 167.61 240.819C170.262 239.701 172.581 238.08 174.456 235.883C177.718 232.059 177.024 225.848 173.699 222.762C172.737 221.869 171.673 221.19 170.276 221.102C168.714 221.005 167.903 221.156 167.82 223.207C167.718 225.736 166.395 227.845 163.816 229.017C162.659 229.54 161.927 229.428 160.97 228.729C158.406 226.854 154.964 226.991 152.518 228.998C148.86 232.001 147.137 235.975 146.932 240.609C146.795 243.661 146.907 246.718 146.907 250.082C144.729 244.374 144.578 238.773 145.208 233.051C143.807 234.061 142.923 235.194 142.996 236.698C143.362 244.042 140.843 251.185 141.541 258.549C139.373 261.556 141.79 264.921 140.579 268.026C139.661 261.752 140.223 255.448 140.604 248.881C139.104 249.613 137.884 250.204 136.663 250.8C136.282 250.985 135.887 251.312 136.111 251.703C136.253 251.947 136.8 252.035 137.171 252.059C137.664 252.089 138.621 250.941 138.519 252.137C138.445 252.948 139.578 253.954 138.299 254.711C137.142 255.394 136.092 256.254 134.983 257.045C136.136 257.928 137.342 256.82 138.65 256.83C138.094 257.972 136.639 257.845 136.258 258.978C136.57 259.681 137.474 259.115 137.972 259.838C136.663 260.512 136.014 262.059 134.251 262.377C135.159 263.055 136.487 263.627 134.837 264.74C136.951 266.093 134.7 267.562 134.939 268.969C135.13 270.077 135.535 271.288 133.812 271.654C133.475 271.727 133.06 272.46 133.421 272.562C135.984 273.28 133.626 274.34 133.406 274.686C130.252 279.725 130.125 288.637 135.096 293.129C138.074 295.824 140.535 298.993 142.229 302.694C142.674 303.661 143.006 304.642 143.045 305.726C143.201 305.702 143.348 305.717 143.445 305.653C144.207 305.155 144.144 303.387 145.193 303.812C146.136 304.193 144.671 305.306 144.983 306.195C145.101 306.522 145.003 306.928 145.003 307.43C146.399 306.073 146.683 303.886 148.753 303.348C149.48 305.087 147.439 306.781 148.968 308.651C149.573 307.142 150.516 305.961 150.555 304.364C150.867 306.722 150.691 309.095 151.624 311.483C152.63 310.721 152.259 309.388 152.952 308.597C154.173 314.618 153.255 320.78 154.119 326.835C152.962 323.016 152.396 319.105 152.02 315.121C150.301 319.594 150.535 324.188 151.204 328.837C149.319 324.437 149.725 319.73 149.036 315.072C148.455 317.845 147.874 320.624 147.205 323.827C146.575 322.303 146.5 321 146.5 320C146.441 319.951 146.751 319.052 145.965 318.876C145.408 318.749 144.905 319.257 144.876 319.891C144.827 321.024 144.861 322.167 144.861 323.412C143.528 320.702 144.456 318.036 144.495 315.394C144.93 315.165 145.018 314.847 144.72 314.442C144.539 314.677 144.358 314.911 144.178 315.14C142.767 315.707 143.89 314.193 143.187 314.061C142.61 314.432 142.659 315.463 141.629 315.78C141.165 313.802 142.273 312.103 142.64 309.564C141.536 311.288 140.828 312.396 139.847 313.929C139.979 311.967 140.071 310.575 140.164 309.213C139.275 308.983 139.192 310.228 138.172 309.823C139.256 307.611 137.996 305.663 137.342 303.597C136.751 301.737 137.542 299.647 136.277 297.816C135.789 298.06 135.164 298.373 134.153 298.876C134.769 297.885 135.213 297.216 135.613 296.517C136.312 295.297 133.792 296.517 134.422 294.935C134.617 294.447 133.04 295.433 132.293 294.667C132.659 294.222 133.05 293.754 133.392 293.334C133.294 292.133 131.18 294.047 131.507 291.996C131.531 291.83 129.998 292.792 129.007 292.758C128.543 291.703 130.589 291.386 129.891 290.258C129.803 290.116 129.168 290.311 128.772 290.355C129.568 288.749 129.256 287.357 127.913 286.4C127.469 286.083 127.347 285.863 127.874 285.326C128.567 284.623 129.559 284.091 129.881 282.899C129.236 282.928 128.724 282.948 128.211 282.972C128.089 282.855 127.962 282.738 127.84 282.616C127.962 282.401 128.079 282.186 128.201 281.971C128.65 281.635 129.3 281.439 129.168 280.638C128.426 280.565 128.021 280.961 127.708 281.508C126.98 281.742 126.731 282.841 125.584 282.592C126.37 281.278 127.127 280.018 127.884 278.763C128.24 278.763 128.67 278.89 128.777 278.358C128.802 278.226 128.777 277.972 128.699 277.943C128.177 277.728 127.898 278.129 127.586 278.436C126.331 278.793 125.193 279.315 124.607 280.594L124.593 280.629C123.729 279.96 124.549 279.594 124.891 279.208C126.023 277.933 127.2 276.693 128.709 275.067C125.833 275.883 124.314 278.06 121.937 278.607L121.883 278.646C123.377 277.269 124.866 275.892 126.365 274.52C127 273.939 127.864 273.451 127.298 272.367C126.648 271.122 125.97 272.435 125.301 272.367C125.066 272.343 124.832 272.299 124.183 272.074C128.802 271.263 127.439 267.982 127.396 265.336C127.259 257.538 129.661 250.458 133.362 243.734C133.592 243.319 133.987 242.997 134.417 242.509C135.647 244.374 136.971 245.99 139.212 246.669C140.384 247.025 141.014 246.879 140.989 245.721C140.921 242.66 141.443 239.574 140.599 236.532C140.281 235.375 139.632 234.535 138.777 233.759C137.728 232.806 136.775 232.313 135.799 233.827C135.56 234.203 135.281 234.784 134.734 234.55C133.992 234.227 134.012 233.397 134.231 232.85C134.891 231.215 135.564 229.554 136.482 228.055C138.138 225.37 139.974 222.792 141.746 220.175C142.137 219.598 142.684 219.11 142.688 218.309C141.492 217.826 140.838 219.105 139.656 219.188C140.081 217.616 141.644 216.952 142.254 215.438C141.233 215.453 140.301 216.073 139.163 215.609C141.111 215.106 138.221 213.695 139.808 213.085C140.237 212.816 140.94 212.548 140.423 211.962C140.125 211.625 139.661 212.191 139.329 212.469C139.114 212.572 138.904 212.723 138.68 212.767C138.509 212.797 138.064 212.621 138.377 212.455C141.492 210.78 139.344 208.383 138.973 206.508C138.592 204.569 138.802 202.733 138.821 200.829C140.521 206.395 142.688 211.815 143.846 217.797C152.845 211.566 162.581 206.166 167.806 195.78C170.462 190.497 171.458 184.955 170.379 179.086C170.228 178.27 169.314 177.831 169.48 176.801H175.906C174.207 177.22 173.177 177.465 172.146 177.733C171.614 177.87 170.804 177.914 170.882 178.597C170.994 179.564 171.922 179.125 172.469 179.11C173.587 179.086 174.705 178.885 175.823 178.763C178.006 178.529 180.105 179.076 182.322 179.437C178.851 179.696 175.398 179.379 172.244 181.063C176.038 182.177 180.057 180.804 183.782 182.352C179.876 182.313 175.926 181.884 172.327 184.003C176.434 184.979 180.721 183.851 184.744 185.331C180.657 185.648 176.468 184.896 172.571 186.722C172.356 186.908 172.137 187.098 171.922 187.284C172.288 187.557 172.654 187.435 173.025 187.299C174.09 186.644 175.252 187.157 176.478 186.971C175.662 188.197 174.07 187.909 173.274 188.915C173.104 188.998 172.781 189.138 172.781 189.138C171.88 189.525 171.741 189.486 171.165 190.131C171.985 190.258 172.43 189.75 172.972 189.525C173.138 189.34 172.972 189.525 173.667 189.174C175.521 188.387 174.803 188.661 175.521 188.387C179.314 186.952 183.084 187.152 186.922 188.534C181.761 189.027 176.292 188.173 171.971 192.02C171.644 192.216 171.312 192.416 170.984 192.611C171.512 193.016 171.985 192.948 172.405 192.44C176.214 191.542 179.886 189.911 183.953 190.355C186.6 190.643 189.109 191.229 191.243 193.119C183.626 192.157 175.984 190.878 169.48 196.517C173.367 195.458 177.195 194.12 181.204 193.485C185.74 192.767 189.583 193.802 193.235 196.801C193.113 196.918 193.353 196.683 193.235 196.801C191.067 196.42 189.021 195.155 186.678 195.917C188.724 197.318 191.546 197.885 192.537 201.097C184.192 194.603 176.556 198.553 168.914 201.884C170.569 202.015 172.024 201.229 173.548 200.756C175.091 200.277 176.614 199.73 178.118 199.144C182.488 197.44 186.429 197.836 189.764 201.517C187.234 200.536 184.7 199.745 181.414 201.161C183.587 201.01 185.184 201.18 186.541 202.069C187.942 202.987 189.28 204.008 190.608 205.028C191.888 206.014 193.147 207.03 194.373 208.08C195.662 209.183 196.902 210.345 198.03 211.693C194.671 210.516 192.21 207.782 188.978 206.42C188.807 205.931 188.479 205.931 188.089 206.136C188.265 206.351 188.353 206.503 188.528 206.718ZM301.741 206.766C302.073 207.025 302.01 207.894 302.425 207.675C302.796 207.474 302.732 206.727 302.112 206.415C301.985 205.892 301.658 205.565 301.136 205.438C298.011 200.389 293.963 196.18 289.485 192.367C293.011 197.045 296.707 201.566 300.789 205.751C301.106 206.093 301.424 206.429 301.741 206.771V206.766ZM311.634 185.839C311.688 185.99 311.79 186.093 311.946 186.146C314.412 188.339 316.863 190.546 319.349 192.714C335.867 207.137 349.07 224.247 360.188 243.051C362.415 246.81 364.612 250.59 366.819 254.359C366.595 253.344 366.224 252.386 365.789 251.459C362.781 245.043 359.441 238.803 355.804 232.714C352.327 226.893 348.577 221.263 344.485 215.868C338.343 207.772 331.072 200.736 323.313 194.218C319.808 191.268 316.507 188.021 312.361 185.902L310.823 185.106C310.555 184.862 311.092 185.35 310.823 185.106L311.634 185.839ZM191.512 239.584C192.181 239.52 192 239 193.47 239.579C194 240.5 198.167 244.213 201.38 244.398C206.731 244.711 211.956 245.697 217.229 246.444C217.977 246.552 218.611 246.342 219.349 245.316C210.516 243.729 201.863 242.128 193.47 239.432C192.806 239.335 192.093 238.676 191.521 239.603C192.254 236.835 189.949 237.386 188.064 236.473C189.334 238.046 191.683 237.435 191.517 239.579L191.512 239.584ZM201.497 125.365C199.339 128.265 197.737 131.429 197.059 135.043C198.641 131.908 200.218 128.773 201.8 125.643C201.883 125.145 202.63 124.818 202.176 124.183C201.829 124.506 201.434 124.808 201.497 125.365ZM211 238.5C211 238.5 210.198 237.499 209.671 237.177C206.258 235.092 202.688 233.573 198.152 233.837C202.288 235.272 207.577 236.386 211 238.5ZM297.889 211.664C292.366 206.332 286.888 200.946 282.249 197.177C283.807 198.886 286.419 201.888 289.178 204.75C302.151 218.226 312.649 233.422 321.18 250.048C326.082 259.608 330.018 269.608 334.925 279.159C337.718 284.594 340.003 290.219 341.429 296.219C342.557 300.966 343.938 305.687 346.18 310.096C348.353 314.374 349.91 318.92 351.712 323.378C351.673 320.829 350.975 318.422 350.477 315.97C348.313 305.277 344.939 294.994 340.301 285.121C337.737 279.662 334.871 274.364 331.819 269.178C326.722 260.507 324.285 250.785 320.594 241.561C318.65 236.698 317.171 231.644 314.646 227.015C311.722 221.649 307.674 217.113 303.904 212.382C297.337 204.13 290.188 196.415 282.361 189.31C277.449 184.852 272.61 180.321 267.449 176.146C266.937 175.199 265.979 174.808 264.954 174.467C265.687 175.136 266.419 175.804 267.156 176.473C269.114 178.368 271.082 180.253 273.035 182.152C278.665 187.626 283.865 193.5 288.958 199.462C292.205 203.261 295.257 207.367 297.889 211.664C298.025 211.512 297.752 211.815 297.889 211.664ZM208.997 128.178C210.125 128.671 210.599 127.699 211.224 127.152C218.958 120.419 227.371 114.642 236.736 110.511C249.925 104.696 263.777 101.112 278.113 99.3591C280.428 99.0759 282.981 99.657 285.359 98.1726C274.007 97.5183 263.074 99.0466 252.161 100.951C256.565 98.656 261.165 97.0447 265.911 95.8582C270.711 94.657 275.584 93.8513 280.481 93.1726C285.179 92.5232 290.008 92.8552 294.617 91.5271C275.433 90.2869 257.073 93.4314 239.754 102.054C245.213 97.8992 251.229 94.9597 257.479 92.4597C242.464 93.6218 218.025 107.494 208.987 128.173L208.997 128.178ZM366.922 316.62C366.922 316.356 366.971 316.019 366.917 315.707C364.3 300.946 360.701 286.429 355.994 272.201C352.63 262.02 348.88 251.986 344.07 242.377C340.037 234.325 336.331 226.112 330.77 218.905C323.016 208.866 314.593 199.667 302.635 194.491C301.858 194.154 301.253 193.436 300.208 193.959C301.282 194.901 302.342 195.761 303.318 196.703C307.64 200.868 311.902 205.087 315.901 209.564C324.729 219.442 332.293 230.131 337.854 242.225C339.949 246.776 341.36 251.625 343.987 255.936C347.566 261.796 350.491 268.002 353.348 274.232C356.702 281.547 359.271 289.164 361.556 296.864C363.484 303.383 365.13 309.979 366.922 316.62ZM398.821 188.412C383.846 176.058 367.479 165.946 349.666 158.173C335.911 152.172 300.413 142.914 293.67 143.719C312.2 149.301 330.267 155.048 347.757 162.465C365.379 169.935 382.4 178.544 398.821 188.412ZM307.215 262.968C305.447 249.779 300.94 237.67 293.816 226.512C286.995 215.829 270.735 198.007 267.728 197.899C284.871 217.079 302.132 236.288 307.22 262.968H307.215ZM232.195 270.638C229.173 269.755 226.653 267.875 222.947 266.967C225.599 270.126 226.805 273.871 230.75 274.725C234.783 275.604 238.47 277.137 242.044 279.662C242.044 277.592 242.015 275.756 242.059 273.925C242.078 273.178 241.741 272.714 241.17 272.333C236.795 269.428 232.024 267.445 226.331 265.77C228.67 267.714 230.433 269.174 232.19 270.634L232.195 270.638ZM348.396 270.472C348.953 281.542 354.09 291.005 359.207 300.472C356.087 290.316 351.204 280.78 348.396 270.472ZM287.02 226.522C291.731 237.362 297.244 247.816 300.511 259.232C298.299 247.352 293.602 236.522 287.02 226.522ZM193.797 238.046C200.555 239.144 206.976 242.035 214.007 241.854C207.547 239.266 200.828 237.938 193.797 238.046ZM201.414 133.617C205.613 129.359 206.019 123.431 208.099 118.241C204.207 122.636 204.012 128.656 201.414 133.617ZM232.146 244.291C232.586 247.758 231.951 251.283 233.216 254.564C233.499 255.302 233.807 256.21 234.778 255.878C235.755 255.546 235.213 254.618 235.042 254.017C234.119 250.76 233.118 247.528 232.142 244.291H232.146ZM149.798 224.198C149.866 223.016 149.778 222.352 148.802 222.665C147.166 223.182 145.921 224.242 145.472 225.897C145.228 226.791 145.457 228.246 146.766 227.758C148.436 227.137 149.349 225.502 149.798 224.198ZM167.122 200.038C170.799 199.037 174.373 197.787 177.654 195.795C173.841 196.449 170.286 197.753 167.122 200.038ZM172.21 203.466C175.56 202.533 179.061 203.265 182.415 202.518C178.919 201.84 175.491 201.952 172.21 203.466ZM221.805 236.864C221.385 242.074 222.371 245.121 224.441 245.267C223.245 242.553 222.571 239.696 221.805 236.864ZM191.731 234.691C194.056 235.38 196.253 236.532 199.065 236.127C196.541 234.725 194.1 234.75 191.731 234.691ZM216.595 226.469C216.946 227.87 217.513 229.515 219.266 231.171C218.655 228.861 217.693 227.426 216.595 226.469ZM219.881 247.05C221.014 247.333 221.961 247.621 222.874 248.134C223.328 248.387 223.924 248.685 224.397 248.124C224.52 247.977 224.505 247.65 224.456 247.43C224.275 246.615 223.494 246.913 223.06 246.879C222.01 246.801 220.94 246.976 219.881 247.045V247.05ZM130.276 288.055C130.379 287.938 130.623 287.738 130.755 287.479C130.818 287.357 130.721 286.986 130.403 287.186C130.149 287.347 129.896 287.572 129.754 287.831C129.676 287.972 129.822 288.241 130.276 288.055ZM191.526 154.559C191.272 154.344 191.126 154.222 190.984 154.105C190.857 154.291 190.726 154.471 190.608 154.657C190.438 154.926 190.667 155.136 190.828 155.096C191.053 155.038 191.233 154.799 191.526 154.559Z" fill="#D3CFE8"></path>
<path d="M191.526 154.559C191.272 154.344 191.126 154.222 190.984 154.105C190.857 154.291 190.726 154.471 190.608 154.657C190.438 154.926 190.667 155.136 190.828 155.096C191.053 155.038 191.233 154.799 191.526 154.559Z" fill="#D3CFE8"></path>
</g>
<defs>
<clipPath id="clip0_25_247">
<rect width="500" height="500" rx="250" fill="white"></rect>
</clipPath>
</defs>
</svg>