<svg width="500" height="500" viewBox="0 0 500 500" fill="none" xmlns="http://www.w3.org/2000/svg">
<g clip-path="url(#clip0_68_5217)">
<rect width="500" height="500" rx="250" transform="matrix(-1 0 0 1 500 0)" fill="#1D1D1D"></rect>
<path d="M175 390C174.6 411.6 151.5 434.667 140 443.5C148.833 451.5 175.4 470.6 211 483C255.5 498.5 348 462 396.5 432C435.3 408 453.333 324.333 457.5 285.5C453.833 265.667 446.2 223.2 445 212C443.5 198 421.5 158 416 146.5C410.5 135 356 95.5 352.5 86C349 76.5 286 55.5 275 55.5C264 55.5 235 61 191 61C147 61 128.5 101.5 115.5 113C105.1 122.2 96.5 146.5 93.5 157.5C91.5 161.333 88 170.5 90 176.5C92 182.5 93.1667 197.333 93.5 204C97.3333 214.833 105.4 238.9 107 248.5C108.6 258.1 117.667 267.167 122 270.5C139.667 290.5 175.5 332.3 177.5 339.5C180 348.5 175.5 363 175 390Z" fill="#1D1D1D"></path>
<path d="M249.949 506.241C257.485 506.252 265.026 506.157 272.52 505.466C278.784 504.886 285.012 503.868 291.224 502.84C319.775 498.115 346.759 488.791 372.114 474.854C401.065 458.933 425.94 438.05 446.939 412.596C470.479 384.056 487.518 352.056 497.622 316.403C500.912 304.791 503.174 292.999 504.783 281.06C505.558 275.296 506.012 269.511 506.465 263.716C507.251 253.649 507.003 243.577 506.771 233.536C506.586 225.42 505.521 217.294 504.271 209.225C502.863 200.15 501.318 191.085 498.877 182.257C493.45 162.645 486.189 143.703 476.264 125.879C445.082 69.88 399.715 30.2449 339.582 7.75894C324.632 2.16909 309.223 -1.77544 293.46 -4.31724C285.545 -5.59341 277.593 -6.35806 269.598 -7.02778C261.113 -7.7397 252.633 -8.27759 244.159 -7.84517C231.397 -7.19126 218.662 -6.26841 206.027 -3.93755C197.958 -2.45044 189.959 -0.704933 182.075 1.41499C150.26 9.96323 121.267 24.3914 95.1211 44.4093C52.0529 77.3841 22.4004 119.867 5.77328 171.452C1.63892 184.277 -1.43024 197.392 -3.25485 210.734C-4.5152 219.93 -5.47498 229.175 -5.69116 238.514C-5.82825 244.273 -6.25012 250.058 -5.98645 255.806C-5.48547 266.832 -4.7894 277.859 -3.01224 288.786C1.63895 317.41 10.5563 344.616 24.6047 369.991C59.1405 432.366 110.266 474.611 178.505 495.768C192.511 500.113 206.897 502.824 221.478 504.612C230.949 505.772 240.436 506.125 249.949 506.246V506.241ZM308.511 184.878C308.511 184.878 308.089 184.467 307.894 184.245C307.73 184.034 307.546 183.887 307.403 183.607C307.298 183.401 307.187 183.059 307.208 183.048C307.519 182.895 307.495 183.235 307.667 183.37C307.897 183.55 308.036 183.702 308.221 183.871C308.405 184.039 308.585 184.208 308.769 184.377L309.291 184.904C311.554 186.734 313.821 188.564 316.083 190.394C316.49 190.684 316.901 190.979 317.307 191.269C317.84 191.243 318.156 191.106 317.618 190.6C316.379 189.445 315.124 188.3 313.879 187.151C313.499 186.787 313.12 186.423 312.745 186.059C311.401 185.505 311.96 184.699 312.455 183.897C309.782 181.756 307.398 179.367 305.784 176.298C305.647 176.071 305.225 175.881 305.679 175.591C305.705 175.57 305.937 175.866 306.069 176.013C308.79 178.044 311.216 180.517 314.528 181.677C309.982 177.933 305.985 173.709 302.626 168.894C302.457 168.662 302.067 168.451 302.525 168.166C302.573 168.14 302.815 168.43 302.968 168.572C305.32 169.833 306.792 172.237 309.223 173.392C309.286 173.292 309.349 173.192 309.413 173.092C304.287 168.319 300.247 162.708 296.255 156.618C298.027 156.523 298.628 157.625 299.551 158.12C301.007 158.901 301.777 160.905 303.854 160.562L303.828 160.552C302.204 159.776 301.349 158.173 300.079 157.013C297.484 154.656 295 152.183 292.49 149.736C292.031 149.287 291.562 148.217 293.249 148.344C293.397 148.233 293.102 148.46 293.249 148.344C292.232 147.168 291.214 145.986 290.196 144.81C290.307 144.726 290.418 144.642 290.528 144.552C290.871 144.795 291.214 145.037 291.562 145.274C291.646 145.132 291.747 145 291.863 144.879C288.535 140.897 284.248 137.944 280.556 134.332C282.191 135.06 283.826 135.793 285.461 136.52C285.566 136.399 285.672 136.273 285.782 136.157C282.877 133.931 279.966 131.701 277.013 129.438C278.394 128.362 279.459 130.018 280.878 129.333C276.311 126.686 271.85 124.249 266.576 122.377C268.011 122.245 268.923 122.166 270.141 122.05C262.732 119.878 255.592 118.533 248.183 120.574C249.912 118.944 251.79 117.995 254.078 118.016C256.204 118.037 258.329 118.016 260.976 118.016C254.996 115.617 253.767 115.632 248.299 116.771C242.988 117.879 237.472 117.552 231.608 118.907C233.623 119.028 235.083 119.118 237.145 119.245C232.352 121.075 227.358 119.303 223.429 122.414C224.062 122.825 224.653 123.21 225.57 123.811C223.123 124.661 220.914 124.597 218.699 124.486C218.393 124.771 217.776 125.14 217.829 125.325C218.15 126.49 219.543 125.42 220.181 126.432C218.541 126.279 217.08 127.244 215.508 126.617H208.59C210.404 127.883 212.408 128.036 214.259 128.563C216.062 129.074 217.929 129.386 220.297 129.902C215.672 131.263 211.464 130.588 207.34 131.062C210.346 131.911 213.352 132.755 216.621 133.678C213.536 134.184 210.805 133.631 207.63 133.024C209.607 135.292 212.376 135.234 214.543 136.974C212.097 137.043 210.098 137.164 208.453 135.661C208.02 135.265 207.488 135.281 207.108 135.693C207.018 135.793 207.335 136.273 207.461 136.578C209.507 137.723 211.559 138.872 213.657 140.043C211.754 140.739 210.277 139.168 208.542 139.126C208.996 140.101 209.455 140.934 210.52 141.567C211.353 142.058 212.692 142.516 212.714 143.935C212.977 143.471 213.199 143.872 213.431 143.977C213.452 143.988 213.431 144.178 213.399 144.193C213.062 144.33 212.819 144.262 212.756 143.861C211.891 144.22 211.153 143.313 210.014 143.508C210.689 144.151 211.168 144.61 211.648 145.063C213.093 146.034 214.781 146.693 216.368 148.665C214.369 147.874 212.851 147.732 211.696 146.651C210.483 146.261 210.451 147.094 210.794 147.742C211.348 148.781 211.901 149.815 212.845 150.653C214.39 152.035 216.131 153.279 217.191 155.283C216.099 155.31 215.735 153.817 214.464 154.434C215.82 156.828 218.456 157.883 220.233 160.467C218.013 159.328 216.215 158.405 214.422 157.482C214.296 157.62 214.169 157.757 214.048 157.894C217.966 161.031 222.105 163.9 226.134 167.628C222.185 167.386 219.727 164.797 216.706 163.52C216.584 163.679 216.463 163.842 216.342 164C217.945 165.788 220.086 166.843 222.053 168.114C225.512 170.344 228.471 173.15 232.173 176.129C228.972 175.607 227.068 173.587 224.452 173.392C224.584 174.157 225.101 174.289 225.539 174.553C229.915 177.205 234.688 179.051 239.239 181.339C239.661 181.55 240.737 181.861 240.404 182.236C238.727 184.113 241.47 183.823 241.554 185.026C237.694 184.588 234.577 181.983 230.39 181.25C233.865 184.287 237.863 185.384 241.264 187.52C244.069 188.954 246.875 190.394 249.675 191.828C250.018 191.818 250.593 191.918 250.482 192.166C250.271 192.661 249.775 192.408 249.396 192.176C248.805 192.071 248.214 191.96 247.629 191.855C249.248 194.033 251.948 194.444 254.068 195.804C259.362 198.014 264.193 200.883 267.863 205.455C263.934 203.277 260.75 200.529 256.5 199C258.298 201.03 260.28 202.291 262.363 203.941C265.68 205.676 268.011 208.498 270.189 211.387C272.356 214.267 275.019 215.67 278.632 215.675C284.728 215.685 289.495 218.417 293.165 223.211C296.92 228.115 299.44 233.657 301.798 239.316C306.686 251.044 316.574 255.885 328.191 258.3L328.144 258.353C327.97 257.657 327.326 257.868 326.878 257.694C320.381 255.141 315.087 251.086 311.253 245.206C311.111 245 310.963 244.789 310.821 244.584C310.388 244.399 310.182 244.125 310.467 243.666C310.689 243.861 310.915 244.062 311.137 244.257C311.3 244.42 311.464 244.584 311.627 244.747C316.141 248.602 320.334 252.942 326.324 254.551C323.624 252.536 321.325 250.189 319.516 247.358C320.903 248.096 322.195 248.94 323.477 249.799C328.745 253.343 334.915 253.522 340.879 254.609C350.535 256.359 357.285 261.849 360.396 271.225C362.569 277.759 361.514 284.498 360.639 291.143C360.322 293.521 359.858 295.942 358.313 298.494C358.366 297.524 358.345 297.028 358.424 296.548C359.642 288.939 360.38 281.287 358.677 273.688C356.446 263.721 347.112 257.15 336.914 258.632C346.232 260.441 352.354 265.609 356.061 273.308C356.278 273.155 355.85 273.461 356.061 273.308C355.64 271.109 354.353 269.285 353.499 267.27C352.892 266.927 352.581 266.421 352.744 265.63C353.114 266.078 353.477 266.527 353.847 266.975C359.094 274.574 359.088 282.695 356.315 291.09C356.425 289.165 355.903 287.304 355.555 285.458C354.163 278.054 350.932 272.061 344.34 267.679C344.166 267.847 344.407 267.391 344.233 267.56C351.389 275.444 354.722 284.635 353.968 295.219C353.572 290.885 352.797 286.618 350.482 282.705C351.595 288.269 351.711 293.848 351.368 299.459C350.635 299.433 351.12 297.993 350.24 298.399C349.29 298.842 350.081 299.997 349.512 300.825C348.178 295.177 347.476 289.413 344.259 284.461C341.022 279.473 336.856 275.665 331.213 273.651C346.569 284.709 350.936 306.009 348.299 318.433C348.188 315.907 348.109 313.37 348.215 310.845C348.304 308.73 348.03 306.615 347.45 304.685C346.1 300.187 344.497 295.747 342.699 291.401C338.601 281.493 331.751 274.194 321.689 270.149C318.13 268.72 314.512 267.428 310.921 266.073C310.731 266.231 310.546 266.395 310.357 266.553C314.064 269.654 318.261 272.053 322.322 274.621C335.068 282.69 341.776 294.075 341.791 309.252C341.791 309.843 342.023 310.428 341.628 311.034C341.338 311.483 341.29 312.089 341.138 312.627C341.322 307.549 340.816 302.623 339.007 297.898C335.273 288.153 328.244 281.698 318.71 277.828C309.518 274.094 301.081 269.242 294.225 261.912C289.843 257.224 285.018 253.016 279.923 249.119C279.691 248.887 279.465 248.655 279.233 248.428C279.713 248.07 280.018 248.344 280.287 248.729C285.476 251.202 290.154 254.419 293.877 258.806C300.754 266.906 309.55 272.127 319.221 276.066C320.629 276.641 322.048 277.516 324.057 277.042C311.881 271.262 301.64 263.225 292.643 253.712C285.123 245.76 276.506 239.785 266.144 236.304C263.265 235.339 260.401 234.327 257.527 233.33C266.17 238.256 275.694 241.388 283.715 247.4C283.979 247.658 284.722 247.753 284.427 248.18C284.074 248.697 283.583 248.254 283.246 247.88C274.618 243.297 264.667 242.158 256.135 237.301C259.035 239.964 262.432 241.752 265.886 243.445C271.723 246.313 277.044 249.957 282.165 253.965C290.307 260.341 296.93 268.499 305.995 273.915C304.93 274.389 304.34 273.661 303.665 273.356C293.466 268.784 285.324 261.179 276.359 254.788C273.242 252.568 270.131 250.321 266.677 248.623C274.181 254.54 281.231 260.91 289.194 266.2C298.623 272.464 308.906 277.163 319.063 282.067C331.477 288.058 337.388 297.577 336.423 310.238C336.007 308.424 336.281 306.668 335.89 304.928C333.718 295.177 328.281 288.047 319.005 284.219C295.765 274.627 274.703 261.153 254.337 246.72C256.335 250.548 260.064 253.18 261.614 257.361C257.364 253.343 253.335 248.945 248.235 245.876C248.383 245.76 248.088 245.992 248.235 245.876C251.204 249.214 253.983 252.768 257.543 255.489C264.314 260.662 269.44 267.296 274.529 273.988C274.703 274.168 274.872 274.347 275.046 274.526C275.214 274.711 275.383 274.89 275.552 275.075C275.721 275.259 275.884 275.444 276.053 275.628C276.222 275.808 276.396 275.987 276.564 276.172C276.67 276.298 276.775 276.43 276.881 276.557C276.68 276.53 276.48 276.504 276.274 276.483L275.752 275.903C275.578 275.755 275.399 275.602 275.225 275.454L274.698 274.927C274.529 274.785 274.36 274.637 274.191 274.495C268.28 269.169 262.405 263.8 256.441 258.537C252.196 254.788 247.972 251.017 243.104 248.012C252.512 257.077 261.915 266.152 271.338 275.201C274.961 278.682 279.059 281.524 283.494 283.866C285.297 284.815 287.18 285.616 289.194 286.566C287.744 287.088 286.721 286.376 285.677 286.033C276.601 283.064 270.025 276.646 263.56 270.028C254.252 260.494 243.711 252.457 232.22 245.654C232.331 245.538 232.125 245.781 232.22 245.654C235.648 248.36 239.091 251.054 242.508 253.77C245.899 256.47 248.531 259.877 251.305 263.162C254.052 266.416 257.179 269.327 260.185 272.375C258.26 271.431 256.531 270.276 254.854 269.047C249.564 265.161 244.164 261.058 238.548 257.609C243.173 263.394 253.662 273.814 253.662 273.814L253.82 274.637C253.614 274.495 253.461 274.315 253.256 274.173C245.551 269.612 238.532 264.043 232.004 258.021C226.804 253.216 221.246 249.23 214.939 246.171C214.417 245.918 213.837 245.29 212.993 245.944C222.796 250.986 230.527 258.421 237.752 266.463C237.963 266.685 238.207 266.791 238.5 267C238.835 267.239 239.36 267.608 239.36 267.608C239.36 267.608 238.531 267.457 238.063 267.207C237.802 267.067 237.435 266.78 237.435 266.78C237.435 266.78 235.463 265.714 234.509 265.113C229.035 261.67 224.663 256.707 218.868 253.702C218.741 253.828 218.614 253.96 218.488 254.087C219.411 255.489 220.687 256.549 221.953 257.614C230.348 264.67 239.993 269.822 249.248 275.56C248.167 276.05 247.497 275.186 246.701 274.764C232.615 267.381 219.332 258.627 205.505 250.791C204.719 250.342 204.028 249.541 202.784 249.989C203.707 250.754 204.54 251.439 205.362 252.135C209.449 255.568 213.357 259.281 218.092 261.796C222.596 264.185 226.783 267.017 230.907 269.965C231.445 270.35 232.531 270.561 232.046 271.695C232.056 271.684 231.814 271.768 232.046 271.695C232.056 271.684 232.056 271.684 232.056 271.684C225.328 266.859 218.794 261.68 210.362 260.024C210.203 260.225 210.045 260.42 209.882 260.62C210.567 261.127 211.253 261.633 211.938 262.139C214.18 263.22 215.967 264.902 217.676 266.701C215.44 265.635 213.42 264.259 211.659 262.503C211.321 262.455 210.91 262.26 210.667 262.392C210.05 262.719 210.504 263.13 210.768 263.405C211.938 264.623 213.146 265.809 214.338 267.006C205.563 261.575 197.046 255.843 188.171 250.68C188.092 250.748 188.018 250.817 187.944 250.891C188.313 251.74 189.141 252.109 189.795 252.657C194.214 256.338 199.071 259.513 202.815 263.969C203.29 264.211 203.68 264.528 203.812 265.082C204.091 265.129 204.345 265.303 204.123 265.551C203.896 265.804 203.712 265.493 203.575 265.303C203.19 265.024 202.81 264.744 202.425 264.465C196.693 260.22 190.961 255.974 185.228 251.735C185.787 254.487 188.092 255.647 189.321 257.725C184.364 254.946 178.716 253.749 174.038 250.495C173.891 250.664 173.743 250.838 173.595 251.007C175.088 254.229 177.967 255.938 181.047 257.562C180.134 257.91 179.501 257.588 178.826 257.393C173.295 255.769 169.366 251.998 165.817 247.716L165.854 247.658C165.833 249.715 167.383 251.123 168.005 252.911C168.332 253.048 168.517 253.243 168.2 253.554C168.185 253.57 167.9 253.306 167.736 253.174C165.131 251.329 163.613 248.481 161.392 246.277C161.224 246.461 161.055 246.646 160.886 246.83C161.603 249.599 163.122 252.009 164.382 254.545C159.916 252.019 158.508 247.579 157.195 243.044C157.084 246.345 155.117 249.493 157.042 252.737C154.716 251.539 154.874 248.708 153.377 246.83C152.617 249.214 153.741 251.255 153.825 253.385C154.168 253.654 154.437 254.118 154.115 254.371C153.614 254.767 153.646 254.002 153.377 253.833C151.394 251.271 150.925 247.959 149.253 245.079C148.051 247.331 148.262 249.731 147.302 251.845C146.669 249.277 146.658 246.725 147.355 243.529C143.194 247.69 143.774 252.584 143.22 257.193C141.338 254.071 142.34 250.632 141.881 247.025C138.775 251.202 137.319 255.484 137.63 260.372C135.4 257.04 136.982 253.538 136.713 249.62C135.036 252.499 134.029 254.878 133.522 257.625C133.042 260.225 133.438 262.946 132.584 265.482C131.703 261.733 131.808 258.026 132.236 254.788C129.203 261.264 130.522 268.383 131.835 276.172C130.416 274.131 129.873 272.501 129.478 270.851C129.056 269.089 129.114 267.202 128.739 265.482C128.397 263.895 128.829 262.171 127.827 260.13C127.194 263.341 127.521 266.057 127.553 269.385C125.517 266.69 125.496 263.769 123.492 261.116C124.078 263.821 124.531 265.92 124.985 268.014C125.011 268.24 125.116 268.636 125.048 268.673C124.71 268.847 124.726 268.509 124.663 268.309C122.459 266.189 121.077 263.399 119.11 260.916C118.25 262.825 119.848 264.391 119.142 266.453C115.366 260.399 113.879 253.796 110.34 247.384C110.678 250.116 109.839 252.003 109.66 254.018C109.022 246.319 106.106 239.062 105.304 231.311C105.014 232.434 104.719 233.557 104.429 234.68C104.508 230.899 103.321 227.255 103.611 223.527C103.712 222.267 102.852 220.4 104.123 219.883C105.531 219.313 106.448 221.143 107.229 222.166C112.049 228.473 118.683 230.525 126.234 230.767C125.011 232.555 123.039 231.769 121.198 232.123C126.424 233.847 130.738 232.339 134.704 229.249C134.772 229.117 134.846 228.985 134.914 228.858C134.978 228.959 135.05 229.027 135.099 229.154C135.219 229.464 135 230 135 230C135 230 133.438 231.221 134.514 232.46C137.166 230.862 138.464 228.146 140.214 225.842C140.409 225.52 140.61 225.204 140.805 224.882C141.069 225.367 141.011 225.795 140.589 226.164V233.568C142.134 231.764 141.949 229.839 142.883 228.336C143.579 229.296 143.436 230.694 144.728 231.801V224.687C145.772 227.63 147.544 229.955 150.039 232.281C149.617 230.061 149.258 228.204 148.831 225.974C150.171 227.139 150.155 228.821 151.431 229.697C151.779 228.5 150.577 227.704 151.289 226.538C153.002 228.864 154.843 230.999 157.295 232.845C157.1 231.701 157.015 231.011 156.783 229.845C156.679 229.318 156.384 228.837 156.5 228.5C156.716 228.648 156.931 229.359 157.153 229.512C158.176 230.646 159.204 231.775 160.227 232.908C159.526 230.166 157.543 227.856 158.033 224.234C159.225 228.03 160.891 230.92 163.375 233.293C163.502 233.167 163.249 233.42 163.375 233.293C163.201 231.838 162.263 230.335 162.637 228.742C164.214 230.33 165.311 232.392 167.362 233.515C166.307 231.405 165.042 229.206 164.704 226.222C167.446 230.108 170.684 232.782 173.98 235.392C174.075 235.26 174.181 235.134 174.297 235.023C172.915 232.08 170.531 229.612 169.872 225.626C173.764 230.783 177.492 235.234 183.272 237.117C180.129 234.775 178.505 231.537 177.134 227.45C181.548 231.732 181.542 231.748 186.689 233.22C187.891 233.562 189.152 233.72 190.386 233.963C187.143 232.096 185.418 228.895 183.045 226.29C186.626 228.473 190.391 230.224 194.146 232.007C197.621 233.657 200.948 235.608 203.622 238.472V238.498C204.223 237.486 203.264 237.117 202.789 236.589C200.933 234.548 198.507 233.325 196.139 232.017C193.771 230.704 191.208 229.634 189.642 227.176C193.471 228.943 197.009 231.405 202.056 231.954C198.412 229.781 195.559 227.798 193.866 224.555C197.389 226.849 200.79 229.291 205.083 229.808C203.896 228.526 202.357 227.751 201.297 226.411C200.88 225.958 200.463 225.51 200.052 225.051C200.163 225.051 199.941 225.051 200.052 225.051C200.089 224.935 200.015 225.167 200.052 225.051C200.991 224.613 201.249 225.552 201.819 225.926C205.863 228.305 210.346 229.075 214.886 229.634C213.072 228.711 211.411 227.63 209.855 226.369C209.518 226.169 209 225.5 208.679 225.114C208.848 225.214 208.511 225.014 208.679 225.114C208.732 225.062 208.658 225.104 208.679 225.114C208.859 225.204 208.511 225.009 208.679 225.114C209.091 225.156 210.23 225.947 210.23 225.947C210.23 225.947 215.218 228.669 218.346 228.711C217.75 227.851 216.616 227.793 216.568 226.554C221.03 227.793 225.338 229.518 230.749 229.175C228.022 228.104 225.807 227.688 223.777 226.148C228.017 225.81 231.761 228.131 235.706 227.06C233.169 225.932 230.48 225.346 228.318 223.511C230.559 223.875 232.716 224.508 234.909 224.982C237.024 225.441 239.165 225.831 241.317 226.079C245.425 226.559 245.43 226.506 247.434 225.726C244.043 224.898 240.61 224.06 236.855 223.142C239.83 222.182 242.319 223.838 244.913 223.416C243.474 222.335 241.633 222.562 239.998 222.045C241.011 221.866 242.002 221.892 242.994 221.861C246.358 221.755 249.728 222.093 252.992 220.7C257.453 218.802 259.294 215.543 258.265 210.723C258.033 210.586 257.807 210.449 257.575 210.312C257.311 211.704 258.186 213.307 256.62 214.615C256.552 212.643 255.713 211.219 253.862 210.138V212.885C252.465 211.736 252.159 209.742 250.223 209.268C250.313 211.53 250.819 213.629 249.854 215.67C248.779 213.128 248.167 210.412 245.52 208.745C245.82 210.407 246.079 211.857 246.342 213.302C244.744 210.887 242.909 208.877 240.631 207.142C240.747 207.037 240.531 207.258 240.631 207.142C241.67 209.452 243.173 211.641 242.619 214.62C241.153 211.878 240.294 208.883 237.267 207.643C236.375 208.962 237.789 210.027 237.304 211.472C235.321 208.461 232.964 206.209 230.132 204.458C231.276 206.362 232.331 208.466 232.789 210.744C231.144 208.651 229.367 206.731 227.047 204.891C227.69 207.279 229.272 209.072 228.972 211.704C228.07 210.38 227.389 209.278 226.609 208.26C224.716 205.803 222.786 204.295 221.067 203.989C222.781 206.388 224.827 208.608 225.444 212.189C222.48 208.208 219.495 205.038 215.582 202.718C217.328 204.701 219.606 207.443 220.481 210.059C220.286 209.837 220.091 209.616 219.896 209.399C217.544 207.148 214.802 205.133 211.796 203.694C212.513 204.896 213.225 206.151 213.942 207.359C211.237 205.244 208.363 203.377 205.557 201.574C205.695 201.452 205.42 201.695 205.557 201.574C206.333 202.966 207.324 204.253 207.667 205.861C207.978 206.156 208.226 206.657 207.872 206.858C207.319 207.169 207.466 206.462 207.287 206.209C204.946 203.678 202.794 200.93 199.272 199.021C200.057 201.015 201.302 202.196 201.639 203.973C199.704 202.17 197.916 200.503 196.134 198.842C196.276 198.663 195.991 199.016 196.134 198.842C196.914 200.34 197.507 201.83 198.085 203.846C198.202 204.254 198.66 204.442 198.365 204.896C198.127 204.706 197.885 204.521 197.647 204.332C195.49 201.342 192.015 200.028 188.872 198.315C189.009 198.146 188.74 198.478 188.872 198.315C190.439 199.965 192.147 201.505 193.017 203.694C193.054 204.115 193.908 204.553 193.244 204.885C192.743 205.133 192.711 204.416 192.638 204.015C189.363 199.796 184.495 197.661 180.066 194.76C181.226 194.117 182.112 195.783 183.13 194.628C182.671 193.706 181.521 193.279 181.252 191.897C182.845 192.778 184.274 193.758 185.967 193.326C184.374 190.779 180.466 190.684 179.586 187.119C180.836 188 181.896 188.743 182.956 189.487C182.312 188.691 181.98 187.541 181.658 186.46C182.265 185.896 182.929 187.119 183.557 186.254C180.277 184.794 180.751 181.598 180.187 178.84C181.178 180.243 181.69 181.946 182.956 183.153C183.087 183.011 182.824 183.291 182.956 183.153C182.354 181.123 182.868 178.89 182.18 176.52C181.997 175.886 181.876 175.537 181.669 174.911C181.466 174.297 181.336 173.958 181.131 173.345C180.652 171.909 180.43 170.851 179.981 169.643C178.789 166.447 176.896 163.927 173.31 162.798C173.4 163.742 174.444 164.111 174.107 165.087C171.322 163.673 168.285 162.756 165.653 161.422C165.785 161.279 165.522 161.559 165.653 161.422C166.439 163.594 167.805 165.582 167.91 168.114C166.46 166.911 166.439 164.464 164.092 164.412C164.092 164.744 164.098 165.076 164.103 165.408C164.293 167.085 164.472 168.768 163.808 170.392C163.76 170.677 163.718 170.956 163.671 171.241C163.628 171.932 163.718 172.665 163.518 173.303C159.615 185.6 150.751 188.005 139.877 186.207C134.593 185.331 130.733 182.515 128.702 176.926C127.637 181.413 125.544 184.414 121.367 185.521C114.016 187.472 107.171 183.212 105.747 175.46C103.743 164.554 106.949 155.41 115.624 148.312C116.489 147.605 117.591 147.11 117.982 145.928C117.122 145.259 115.877 144.752 116.336 143.35C116.663 142.348 117.396 141.409 118.467 141.23C119.658 141.035 120.961 141.003 122.132 141.267C124.958 141.899 126.725 141.203 128.043 138.661C125.106 138.767 122.612 137.053 119.79 136.6C116.869 136.13 114.311 137.417 111.384 138.124C114.928 133.773 120.703 132.539 125.612 134.844C127.168 135.577 128.834 136.162 128.333 139.031C133.137 134.733 136.913 130.551 138.822 124.961C139.139 124.028 139.16 123.421 137.789 123.247C134.883 122.878 132.209 121.692 129.483 120.394C130.063 120.141 130.796 120.03 130.875 119.746C131.102 118.876 130.274 119.192 129.852 119.081C124.289 117.578 119.036 118.891 113.9 120.948C114.216 121.502 115.086 120.995 115.688 121.586C113.573 122.968 111.173 123.622 110.071 125.958C108.489 129.312 106.818 132.623 105.188 135.951C101.729 143.028 99.4032 150.511 97.2674 158.068C96.2918 159.782 97.2674 158.068 96.2918 159.782C96.2918 159.924 96.2444 160.051 96.1494 160.156C96.7559 160.778 96.429 161.348 96.1336 161.991C95.5219 163.336 94.3881 164.807 94.5569 166.083C95.1106 170.313 93.3229 173.93 92.1838 178.223C91.7145 175.718 93.0012 173.904 92.959 171.795C91.4245 172.733 91.5563 174.473 90.586 175.765C90.0692 173.64 91.4139 171.831 91.1028 169.553C89.5418 172.28 89.1832 174.858 89.6104 177.627C90.4752 183.19 91.8674 188.68 91.5457 194.407C91.4245 196.638 91.878 198.9 92.1047 201.146C93.1964 212.152 98.2166 222.029 101.507 232.37C103.353 238.177 105.172 244.009 106.665 249.899C108.062 255.431 109.945 260.51 114.011 264.66C117.396 268.114 120.244 272.021 122.823 276.114C126.925 282.616 131.803 288.448 137.562 293.542C144.844 299.976 150.962 307.411 156.451 315.401C162.869 324.745 169.914 333.594 177.745 341.815C183.741 348.112 189.647 354.498 195.053 361.322C208.605 378.434 219.616 397.123 229.077 416.751C232.594 424.049 236.65 431.132 237.783 439.395C238.105 441.737 237.641 444.12 238.422 446.831C238.991 439.237 238.395 432.171 236.196 424.709C237.968 426.612 237.615 428.817 238.912 430.414C239.397 429.191 238.153 428.194 238.907 427.055C239.903 428.01 240.236 429.212 240.715 430.314C242.841 435.203 244.897 440.118 247.096 444.974C247.26 445.338 248.547 446.029 248.547 446.029C248.547 446.029 247.93 445.275 248.257 444.758C248.293 444.7 248.404 444.695 248.478 444.663C248.578 445.133 248.817 445.47 249 446C249.062 446.179 249.021 446.129 249.153 446.462C250.767 450.522 252.423 454.572 253.398 458.849C254.3 462.809 254.068 466.78 253.366 470.751C253.071 472.433 251.811 471.779 250.888 471.885C249.955 471.996 249.121 471.858 249.121 470.572C249.111 466.907 247.924 463.41 247.476 459.803C247.302 458.416 247.191 456.913 245.847 455.295C245.973 456.813 246.042 457.768 246.137 458.722C246.485 462.255 247.096 465.762 247.075 469.332C247.065 471.12 246.432 472.096 244.433 471.895C242.867 471.737 241.274 471.8 239.692 471.779C235.838 471.732 235.737 471.753 234.867 467.845C233.48 461.602 231.445 455.579 229.156 448.85C229.014 454.324 229.414 458.97 230.506 463.584C230.944 465.435 231.297 467.323 231.714 469.19C231.861 469.854 232.22 470.862 231.139 471.215C230.285 471.495 229.599 470.994 229.061 470.382C228.091 469.285 227.711 467.872 227.59 466.511C227.11 461.232 226.635 455.943 226.44 450.649C226.203 444.284 225.18 438.071 223.06 431.88V443.129C220.977 439.184 219.522 435.197 218.04 431.227C216.516 427.134 214.944 423.058 213.425 418.961C211.975 415.042 211.638 410.866 210.699 406.816C210.045 410.697 210.43 414.504 211.306 418.275C212.83 424.819 215.408 431.031 217.317 437.454C218.952 442.944 220.16 448.492 220.149 454.293C219.833 453.997 219.68 453.639 219.632 453.264C218.931 447.996 217.523 442.897 215.667 437.945C211.859 427.809 207.72 417.795 204.07 407.602C201.397 400.134 199.013 392.477 199.635 384.388C199.936 380.443 200.237 376.525 200.057 372.581C200.036 372.059 200.437 371.283 199.361 371.173C197.616 378.54 196.761 386.028 196.508 393.569C196.276 400.456 197.22 407.28 197.922 414.125C198.681 421.513 199.715 428.853 201.059 436.141C202.879 446.008 205.02 455.811 207.872 465.441C208.068 466.089 208.368 466.859 207.588 468.109C204.946 461.549 202.488 455.442 200.031 449.341C200.215 454.488 200.843 459.45 202.457 464.222C202.71 464.971 203.216 465.868 202.567 466.39C201.882 466.944 200.912 466.59 200.11 466.147C198.243 465.114 197.7 463.178 196.999 461.422C193.945 453.77 192.964 445.639 191.63 437.592C190.707 432.018 190.586 426.322 189.241 420.806C188.914 427.061 188.988 433.304 189.136 439.574C187.158 434.09 186.014 428.484 184.928 422.837C184.247 435.604 184.385 448.386 184.279 461.385C182.681 460.895 181.289 460.389 179.86 460.041C177.656 459.508 177.139 458.327 177.851 456.191C178.811 453.301 178.911 450.253 179.064 447.205C177.867 449.953 177.519 452.948 176.327 455.68C175.747 457.008 175.066 458.031 173.416 457.552C171.776 457.077 169.593 456.982 169.54 454.714C169.482 452.099 169.223 449.452 169.761 446.836C170.784 441.879 172.535 437.133 174.001 432.308C175.842 426.238 176.184 423.422 175.43 420.063C171.686 430.884 168.069 441.309 166.966 452.394C166.782 454.271 166.492 455.047 164.525 454.061C162.336 452.969 160.074 452.014 157.833 451.023C156.757 450.548 156.319 449.831 156.314 448.587C156.298 443.624 157.965 439.305 161.297 435.709C164.019 432.772 166.175 429.571 167.499 425.769C167.805 424.888 167.995 424.229 167.325 422.873C165.115 428.052 161.34 431.612 158.281 435.714C156.915 437.549 155.908 439.606 154.658 441.494C153.329 443.498 153.978 447.369 151.441 447.532C149.184 447.68 146.785 445.428 144.433 444.257C142.941 443.514 142.814 442.77 144.08 441.541C145.519 440.149 147.281 438.994 148.024 436.938C146.5 437.913 145.008 438.957 143.869 440.297C142.202 442.259 140.779 442.311 138.543 440.967C104.065 420.147 76.7432 392.361 57.0786 357.193C44.7493 335.145 36.2485 311.736 32.2776 286.666C31.0278 278.761 30.0047 270.856 29.3508 262.914C28.2961 250.147 28.9817 237.401 30.2526 224.655C31.2018 215.116 32.6625 205.687 34.8457 196.374C39.6498 175.876 47.4176 156.523 57.8801 138.282C78.9422 101.558 108.004 72.8859 145.076 52.4197C165.506 41.1398 187.243 33.5513 210.219 29.3062C218.783 27.7242 227.379 26.5166 236.017 25.9259C243.938 25.3828 251.895 25.0927 259.895 25.6359C268.728 26.2371 277.498 27.0386 286.262 28.3253C300.384 30.4031 314.069 34.0787 327.348 39.1728C367.273 54.4869 400.385 79.1138 426.588 112.88C449.491 142.395 463.887 175.744 469.973 212.574C471.708 223.052 472.557 233.699 472.393 244.373C472.383 245.101 472.62 245.902 472.014 246.683C464.32 239.342 458.15 231.036 453.24 221.739C448.389 212.548 446.322 202.46 443.727 192.561C440.378 179.784 435.274 167.982 427.073 157.482C406.112 130.63 381.522 107.343 356.257 84.6826C340.679 70.7132 321.795 63.6996 302.125 58.2257C302.14 58.7373 303.269 60.082 301.313 59.5441C294.004 57.5349 286.447 56.7386 279.09 54.9668C273.685 53.6695 268.417 51.597 262.7 52.1718C258.392 52.6043 254.126 53.2212 249.881 54.1916C243.663 55.6101 237.351 56.591 231.118 57.941C226.287 58.9851 221.462 59.3648 216.563 58.7056C209.597 57.7722 202.636 56.7861 195.612 56.3959C195.506 56.3906 195.39 56.5119 195.28 56.5752C195.501 57.2607 196.508 56.5119 196.603 57.1394C196.329 57.9568 195.77 57.8566 195.237 57.9041C186.974 58.6476 178.805 59.9871 171.09 63.1406C150.492 71.5675 133.976 85.0992 121.393 103.44C119.11 106.768 116.874 110.09 113.879 112.88C107.777 118.554 104.028 125.794 100.785 133.335C100.489 134.026 100.484 134.691 100.537 135.392C104.93 126.939 109.586 118.686 117.444 112.827C126.24 101.637 134.846 90.246 147.977 83.2007H144.597C147.771 81.1494 150.872 81.392 154.257 82.0775C153.087 80.7802 151.547 80.8488 150.302 80.1738C151.716 78.7236 153.888 80.4533 155.244 78.6128C154.136 78.5337 153.192 78.4652 151.879 78.3703C154.136 77.1732 156.177 76.8304 158.371 76.7619C160.111 76.7091 161.672 77.8113 163.423 77.3103L163.354 77.3367C161.524 75.7599 159.267 75.3433 156.472 75.0638C158.002 73.7613 159.336 73.5662 160.812 73.4871C163.428 73.3447 165.58 74.6156 167.958 75.3169C166.144 72.8015 163.259 72.9755 160.454 72.5062C165.727 70.0277 169.914 70.824 174.064 74.9478C174.149 74.8898 173.985 75.0111 174.064 74.9478C172.435 71.1509 169.071 70.2914 165.659 69.263C166.302 68.6935 167.046 68.5828 167.9 68.4404C171.148 67.8972 174.001 69.3632 177.018 69.9697C175.135 68.1029 172.609 67.6494 169.74 67.2011C175.356 66.1886 178.842 67.9394 180.962 72.5537C181.189 73.0546 181.041 73.8457 182.006 73.7349C183.166 73.5978 182.76 72.1002 182.76 72.1002C182.76 72.1002 181.505 68.0343 179.517 66.8056C178.025 65.888 176.337 65.4925 174.492 64.9441C180.414 64.1003 185.202 65.0812 187.28 71.8154C187.807 68.0818 186.072 65.8617 183.979 63.9949C190.312 62.1228 194.747 63.9211 196.624 70.7132C196.898 67.2222 196.287 64.3271 193.365 62.2072C198.496 62.2283 199.862 64.1478 200.854 72.4587C202.309 69.2103 202.072 66.1992 200.263 63.2355C203.279 64.6857 204.002 67.2644 203.854 70.4707C205.42 68.2769 205.784 65.7035 207.814 63.4464C208.595 68.0765 205.758 71.0982 204.756 74.6683C206.428 72.675 208.099 70.6869 210.177 68.2084C209.929 71.6519 208.094 74.141 207.129 76.4402C207.245 76.7039 207.013 76.1765 207.129 76.4402C210.673 73.3236 217.913 67.2802 217.913 67.2802C217.913 67.2802 218.882 66.6395 219.511 66.2414C220.145 65.8403 221.146 65.2341 221.146 65.2341L222.063 64.8914C222.063 64.8914 221.728 65.3503 221.473 65.6086C220.964 66.1242 220.46 66.3205 219.954 66.6738C219.485 67.0324 219.015 67.391 218.546 67.7496C218.008 68.3244 217.781 69.2947 217.249 69.8642C217.365 69.9855 217.159 69.7218 217.249 69.8642C220.344 68.5459 222.928 66.1148 226.467 65.8142C224.305 67.7443 221.536 68.9519 219.485 71.3566C220.581 71.6572 221.119 71.1246 221.605 70.7238C224.331 68.4773 227.606 67.3804 230.844 66.1992C231.693 65.888 232.515 65.2289 233.28 66.3152C234.329 66.8214 235.089 65.9935 235.859 65.6191C240.81 63.2197 245.815 60.9257 251.02 59.138C253.783 58.1888 256.546 57.0919 259.526 56.9337C255.871 58.5791 252.143 60.0134 248.489 61.606C244.802 63.2091 241.132 64.8597 237.557 66.6791C233.892 68.5459 230.316 70.5972 226.746 72.6539C223.376 74.5945 219.959 76.4982 217.148 79.2404C226.261 74.7527 234.846 69.2894 244.207 65.366C252.201 62.0121 269.308 57.4611 273.58 58.8111C266.239 59.6443 259.294 61.3529 252.597 64.0687C256.567 63.6099 260.454 62.7451 264.388 62.2019C268.338 61.6535 272.33 61.2843 276.316 61.0998C280.24 60.9152 284.179 61.0576 288.06 61.0576C267.921 63.5625 247.555 65.54 229.225 75.5859C230.854 75.1324 232.383 74.373 233.965 73.7349C241.586 70.6605 249.496 68.7779 257.58 67.2328C265.865 65.656 274.117 64.6752 282.523 64.7543C283.045 64.7543 283.583 64.7912 284.095 64.6962C289.843 63.6521 295.591 64.0793 301.239 65.1814C306.027 66.1148 310.409 68.3718 314.828 70.4759C309.355 70.0066 304.318 67.0904 298.101 67.4701C303.237 69.706 308.347 70.9084 312.076 74.4257C315.904 78.038 319.954 81.2865 324.373 84.1869C321.098 83.7914 318.277 81.6925 314.438 81.7505C319.073 86.291 324.299 89.5974 328.255 94.275C328.513 94.3224 328.724 94.4015 328.592 94.739C328.397 94.6599 328.202 94.5808 328.007 94.5017C325.344 93.1834 323.171 90.7945 319.226 90.5783C327.843 96.3527 333.744 104.152 341.222 110.227C346.838 114.794 350.171 120.885 353.003 127.355C355.255 132.507 358.413 136.932 363.476 139.721C363.587 139.605 363.36 139.827 363.476 139.721L360.76 134.522C360.328 134.068 359.695 133.699 360.074 132.75C360.491 133.225 360.855 133.641 361.219 134.053C366.703 139.727 372.166 145.427 378.447 150.231C372.304 142.928 367.278 134.96 363.101 126.427C371.634 136.104 379.491 146.303 387.259 156.538C383.267 143.687 376.106 132.402 370.078 120.125C372.752 120.558 374.281 121.697 375.689 123.036C379.222 126.395 381.996 130.335 384.2 134.654C388.008 142.142 391.668 149.704 396.667 156.517C399.678 160.625 402.193 165.039 404.282 169.685C404.941 171.156 405.468 172.686 406.059 174.183C403.923 172.005 402.826 169.253 400.511 167.259C402.093 178.597 406.254 189.36 407.377 200.814C404.155 194.924 403.021 187.926 397.69 182.384C398.07 188.812 400.538 194.064 401.619 199.691C399.404 196.179 397.774 192.335 394.874 189.36C400.052 205.998 403.506 221.692 402.352 224.587C401.081 220.658 400.29 216.714 398.507 213.112C399.678 219.487 400.991 225.816 401.012 232.323C401.033 238.804 401.16 245.285 400.48 251.771C399.499 245.227 398.892 238.641 395.855 232.608C397.099 240.249 396.039 247.753 394.99 255.901C394.389 253.533 394.02 251.761 393.471 250.042C392.933 248.36 392.796 246.509 391.552 245.037C392.448 257.73 391.04 270.107 387.417 282.252C387.707 276.826 388.008 271.42 387.528 265.957C385.503 274.727 383.293 283.423 379.565 291.644C376.259 298.932 368.174 309.895 363.107 313.692C365.184 309.468 367.747 306.093 369.182 301.822C367.499 302.597 367.035 304.005 366.26 305.107C364.298 307.891 362.822 311.214 359.79 312.938C355.835 315.185 353.414 318.581 351.331 322.388C350.635 323.659 349.886 324.909 349.164 326.164C349.712 322.235 351.827 319.124 353.731 315.912C357.274 309.937 359.911 303.641 361.646 296.87C362.938 291.834 362.885 286.729 363.434 281.667C363.834 277.97 364.214 273.978 362.774 270.497C358.635 260.473 351.194 254.445 340.157 253.528C330.079 252.689 322.417 247.695 316.168 240.101C315.804 239.78 315.219 239.353 315.735 238.946C316.157 238.614 316.479 239.305 316.769 239.653C320.429 242.179 324.094 244.71 328.212 246.435C330.97 247.59 333.776 248.75 337.678 248.734C330.723 245.074 323.825 242.622 319.506 236.468C319.195 236.115 318.583 235.898 318.931 235.234C319.221 235.519 319.511 235.803 319.801 236.094C325.375 240.792 331.951 242.917 339.081 243.645H339.039C338.517 242.643 337.451 242.738 336.597 242.48C333.581 241.573 330.585 240.55 328.091 238.609C326.272 237.196 324.089 235.983 323.514 233.42C323.387 233.42 323.261 233.42 323.134 233.425C323.261 233.272 323.392 233.114 323.519 232.961C323.06 230.82 320.634 229.924 320.228 227.751C319.775 227.498 319.68 227.15 319.928 226.696C320.165 226.891 320.408 227.081 320.645 227.276C323.814 230.293 327.237 232.882 332.183 234.306C329.362 231.131 327.052 228.526 324.742 225.921C324.479 225.573 323.693 225.278 324.147 224.84C324.505 224.497 324.848 225.162 325.075 225.547C330.459 229.518 336.497 232.17 342.735 234.453C346.986 236.009 351.205 237.649 355.413 239.326C363.555 242.569 370.373 247.547 375.389 254.83C375.536 254.688 375.241 254.967 375.389 254.83C372.203 248.639 367.821 243.666 361.778 240.339C355.402 236.827 348.383 234.97 341.612 232.476C338.306 231.258 334.947 230.108 332.157 227.746C337.731 228.937 343.004 231.448 348.842 231.226C347.708 230.841 346.532 230.614 345.377 230.309C337.504 228.22 329.926 225.462 323.424 220.342C323.25 220.199 322.913 219.967 322.928 219.93C323.171 219.503 323.461 219.735 323.746 219.915C325.634 220.853 327.279 222.393 329.689 222.393C329.51 222.135 329.441 221.971 329.325 221.866C323.498 216.698 317.961 211.277 313.964 204.49C313.605 204.295 313.183 203.941 313.526 203.62C313.969 203.198 314.08 203.91 314.348 204.105C316.574 206.067 318.631 208.197 320.872 210.154C328.429 216.751 336.671 221.929 346.632 224.075C353.636 225.584 360.085 228.415 365.812 232.782C372.952 238.224 377.609 245.301 379.676 254.081C379.243 249.151 377.276 244.436 373.079 238.013C372.773 237.676 372.467 237.343 372.161 237.006C371.697 236.616 371.122 236.299 370.996 235.477C371.84 235.682 372.272 236.041 372.551 236.6C372.915 236.937 373.279 237.275 373.643 237.607C375.911 239.226 377.403 241.583 379.307 243.545C379.444 243.434 379.17 243.656 379.307 243.545C374.318 235.086 367.399 229.133 358.35 225.589C353.314 223.617 348.025 222.646 342.778 221.486C341.697 221.233 340.594 221.054 339.534 220.721C335.511 219.461 331.756 217.668 328.455 215.005C327.801 214.478 327.137 213.961 328.708 214.003C328.835 213.871 328.961 213.739 329.082 213.613C326.124 210.755 323.166 207.891 320.202 205.033C318.362 203.535 316.743 201.837 315.445 199.844C315.292 199.649 315.14 199.448 314.981 199.253C314.744 199.085 314.275 198.953 314.66 198.589C315.002 198.257 315.171 198.752 315.398 198.921C315.54 199.063 315.688 199.201 315.83 199.343L321.89 204.485C323.013 204.928 323.793 206.03 325.09 206.125C325.475 204.885 323.556 204.69 323.893 203.472C319.949 201.605 310.082 192.213 309.534 189.803C311.137 191.021 312.666 192.361 314.38 193.405C315.43 194.043 316.189 195.435 317.76 194.924C316.848 193.88 315.936 192.841 315.023 191.797C312.661 189.861 311.285 187.708 308.801 185.173C308.688 185.058 308.511 184.878 308.511 184.878ZM334.994 381.055C335.152 380.86 335.31 380.67 335.474 380.475C336.007 379.789 336.513 379.083 337.077 378.418C347.181 366.601 358.529 355.743 365.538 341.531C365.77 341.056 366.097 340.898 366.513 341.246C365.306 344.152 364.109 347.036 362.906 349.921C363.038 350.037 362.774 349.805 362.906 349.921C365.279 346.556 367.605 343.292 369.292 339.548C373.416 330.409 377.276 321.138 382.239 312.4C382.756 311.488 383.093 310.359 384.316 309.874C384.87 311.129 384.723 312.289 384.585 313.355C383.367 322.773 380.029 331.363 374.376 339.026C372.905 341.019 371.813 343.176 371.196 345.575C371.397 345.771 370.996 345.38 371.196 345.575C372.478 343.809 374.313 342.601 375.647 340.877C379.913 335.366 383.051 329.286 385.239 322.673C387.691 315.253 390.17 307.844 392.153 300.271C392.438 299.174 391.91 296.712 393.708 297.028C394.906 297.239 393.577 299.28 393.508 300.498C393.144 307.079 390.028 320.073 390.028 320.073C390.028 320.073 399.346 299.702 400.991 288.422C401.988 281.587 404.102 275.133 409.961 270.635C411.496 269.459 412.081 267.618 412.44 265.815C413.558 260.193 413.806 254.471 414.048 248.771C414.296 243.044 414.101 237.301 414.101 231.569C414.38 231.569 414.655 231.558 414.934 231.553C417.107 238.54 419.406 245.491 421.415 252.526C423.129 258.537 424.853 264.586 424.59 270.956C424.59 275.497 424.584 280.032 424.579 284.572C424.822 290.399 423.867 296.121 423.171 301.88C421.7 314.114 418.884 326.021 414.707 337.66C422.528 308.582 424.247 279.441 415.915 250.464C415.799 259.529 415.641 268.852 414.792 278.176C413.953 287.42 412.688 296.543 410.552 305.587C407.973 316.508 404.535 327.124 400.274 337.481C392.612 356.106 381.084 372.243 368.064 387.415C356.932 400.382 347.255 414.304 340.241 429.966C340.083 430.325 340.051 430.947 339.355 430.889C339.355 430.599 339.281 430.314 339.366 430.087C344.439 416.355 351.226 403.557 360.264 392.008C365.949 384.746 372.699 378.403 378.278 371.036C393.962 350.327 404.725 327.472 408.759 301.663C409.814 294.929 410.631 288.169 410.346 280.702C407.256 296.153 403.723 310.802 395.871 324.434C395.375 322.13 397.273 320.706 396.709 318.85L396.751 318.908C391.262 325.046 386.225 331.501 382.244 338.752C379.992 342.849 377.023 346.409 373.638 349.652C370.79 352.378 368.132 355.3 365.39 358.131C365.184 358.363 364.973 358.595 364.768 358.833C364.415 358.369 364.641 358.095 365.074 357.884C365.844 356.365 366.086 354.203 366.861 352.684C367.035 352.9 366.687 352.468 366.861 352.684C357.374 363.041 347.102 372.544 335.864 380.981C335.706 381.118 335.548 381.261 335.39 381.398C335.163 381.609 334.941 381.814 334.715 382.025C334.419 381.582 334.53 381.266 335.01 381.06L334.994 381.055ZM284.39 277.833C284.021 277.501 283.652 277.163 283.283 276.831C275.9 270.471 269.725 262.962 263.238 255.748C262.843 255.473 262.094 255.125 262.495 254.693C262.89 254.261 263.281 255.046 263.65 255.342C277.909 265.54 292.59 275.033 308.252 282.985C314.138 285.97 319.522 289.761 323.709 295.029C327.801 300.182 331.666 309.436 331.587 314.9C328.26 300.25 319.701 290.827 306.955 284.841C302.525 282.763 298.28 280.285 293.946 278.012C287.697 274.732 282.613 269.775 276.707 266.01C276.897 265.841 276.517 266.178 276.707 266.01C279.248 269.306 281.215 273.113 283.757 276.409C284.079 276.762 284.401 277.116 284.722 277.464L285.35 278.144C284.907 278.434 284.58 278.36 284.401 277.838L284.39 277.833ZM339.735 293.131C339.735 293.131 340.631 293.595 340.853 294.122C343.917 297.112 344.555 300.999 344.85 305.012C343.943 301.289 340.737 294.37 340.737 294.37L339.735 293.131ZM346.11 379.505C346.116 379.505 346.116 379.505 346.116 379.505C346.696 380.554 345.567 380.665 345.166 381.208C342.878 384.741 340.151 387.947 337.409 391.122C328.007 402.017 319.221 413.344 312.656 426.227C310.251 430.947 308.057 435.767 305.769 440.545C307.345 434.728 309.597 429.191 312.345 423.844C320.682 407.607 330.48 392.461 344.76 380.686C345.214 380.29 345.662 379.895 346.116 379.505H346.11ZM193.128 463.959C189.099 463.642 188.777 463.347 188.967 459.455C189.083 457.135 189.384 454.82 189.605 452.505C190.37 456.465 192.374 459.998 193.223 463.896C193.281 464.001 193.334 464.106 193.392 464.207L193.128 463.954V463.959ZM240.942 407.786C244.618 413.202 247.075 419.055 247.059 425.795C244.913 419.883 242.601 415.157 240.621 408.06C240.516 407.686 240.046 407.528 240.357 407.101C240.552 407.327 240.747 407.559 240.948 407.786H240.942ZM317.855 316.598C317.85 316.603 316.927 316.303 316.637 315.907C310.868 308.039 303.738 301.669 295.464 296.527C294.9 296.179 293.793 296.095 294.13 294.935C303.738 300.298 311.801 307.353 317.855 316.598C317.85 316.603 317.528 317.241 317.85 316.603L317.855 316.598ZM305.194 293.416C315.656 298.642 322.512 306.879 325.955 318.001C321.657 308.419 314.987 300.846 306.359 294.898C305.869 294.56 304.946 294.391 305.194 293.416ZM250.218 145.385C247.297 146.398 245.562 148.338 244.776 151.418C244.022 154.376 245.003 156.897 246.369 159.813C242.435 157.593 241.812 154.345 242.287 150.817C242.735 147.479 244.338 144.726 247.481 143.102C248.32 142.669 249.206 142.669 250.034 142.965C250.993 143.307 251.426 143.961 250.63 144.916C252.686 144.673 254.743 143.824 256.81 144.557C258.25 145.063 259.447 145.997 259.188 147.827C258.951 149.525 257.696 150.057 256.225 150.189C255.275 150.274 254.31 150.2 253.356 150.189C249.912 150.163 248.852 148.533 250.223 145.385H250.218ZM261.224 375.855C261.445 375.919 261.757 375.908 261.867 376.056C267.447 383.149 270.452 391.301 271.681 400.166C271.697 400.282 271.344 400.451 271.09 400.651C270.11 398.225 269.139 395.91 268.243 393.564C265.975 387.631 262.943 381.999 261.224 375.85V375.855ZM322.717 392.045C322.881 391.697 323.044 391.344 323.208 390.995C323.261 391.059 323.356 391.117 323.366 391.185C323.419 391.607 323.105 391.812 322.939 392.214C320.525 398.054 319.443 402.434 317.138 407.322C313.705 414.615 309.85 421.676 305.115 428.237C310.098 415.738 315.82 403.61 322.717 392.05V392.045ZM337.388 358.675C337.204 358.748 336.871 358.907 336.85 358.875C336.676 358.601 336.877 358.49 337.119 358.421C337.372 357.451 338.105 356.797 338.685 356.043C345.573 347.089 354.036 339.495 360.844 330.472C360.892 330.24 360.955 329.982 361.256 330.161C361.308 330.193 361.171 330.546 361.124 330.752C360.212 333.304 358.904 335.645 357.485 337.945C352.312 346.34 344.845 352.505 337.383 358.68L337.388 358.675ZM269.561 140.249C268.607 139.679 267.673 139.078 266.703 138.545C261.134 135.497 255.344 134.348 249.179 136.568C245.277 138.203 242.166 141.04 238.733 143.387C238.395 143.65 238.095 144.014 237.71 144.151C237.024 144.394 236.296 145.327 235.621 144.615C234.915 143.866 235.511 142.901 236.033 142.242C237.145 140.839 238.337 139.489 239.587 138.208C244.117 133.562 249.675 132.207 256.03 132.729C261.783 133.203 266.176 135.635 269.561 140.244C269.561 140.244 269.429 140.18 269.561 140.249C269.487 140.122 269.561 140.249 269.561 140.244V140.249ZM216.447 379.505C216.742 379.811 217.085 380.079 217.333 380.417C223.334 388.696 227.548 397.856 230.722 407.538C232.241 412.158 233.844 416.751 234.319 421.661C228.75 407.48 222.148 393.769 216.141 379.8C216.094 379.594 215.957 379.241 216.015 379.204C216.299 379.02 216.394 379.257 216.447 379.499V379.505ZM274.402 367.951C277.714 372.359 280.024 377.337 282.46 382.242C285.914 389.208 288.435 396.39 287.501 404.343C287.206 406.874 286.573 409.331 284.991 412.237C284.991 411.019 284.865 410.486 285.012 410.048C286.22 406.484 285.234 402.961 284.627 399.517C283.156 391.164 279.913 383.349 276.849 375.486C275.889 373.024 274.297 370.767 274.402 367.951C274.402 367.951 274.402 367.951 274.407 367.951H274.402ZM248.589 165.356C256.641 167.159 263.987 166.073 270.173 160.14C270.938 159.407 271.882 158.89 273.01 159.08C273.469 159.154 274.128 158.89 274.339 159.576C274.513 160.124 273.975 160.314 273.68 160.583C266.624 166.964 258.677 170.302 249.021 167.723C245.636 167.607 242.825 166.031 240.178 164.132C238.759 163.114 237.446 161.933 236.149 160.757C235.542 160.209 234.825 160.029 234.224 160.351C233.523 160.726 234.071 161.369 234.203 161.944C234.43 162.93 234.466 163.958 234.656 165.551C232.225 163.12 232.025 160.14 230.063 157.409V162.424C227.263 159.47 226.91 158.099 226.878 153.1C226.862 150.532 229.857 150.68 230.427 148.554C231.113 151.829 233.639 153.132 236.033 154.577C237.472 155.447 238.785 156.512 239.708 157.91C241.939 161.29 244.924 163.716 248.589 165.361V165.356ZM128.391 206.425C123.919 207.264 119.374 207.675 115.039 209.225C113.721 209.695 111.896 211.757 110.852 209.347C109.834 206.995 112.392 206.473 113.852 205.65C114.897 205.065 116.125 204.769 117.301 204.474C122.485 203.161 127.769 202.897 133.085 203.013C134.155 203.029 135.22 203.045 136.291 203.061C136.454 202.934 136.613 202.945 136.765 203.087C150.919 203.715 164.947 205.339 178.832 208.186C178.584 208.498 178.357 208.608 178.125 208.624C168.353 209.231 158.608 208.519 148.915 207.512C142.071 206.8 135.268 206.125 128.386 206.43L128.391 206.425ZM423.5 188.5C422.466 189.033 423.25 186.755 421.821 187.441C427.279 201.69 433.254 215.833 436.761 230.831C431.693 219.872 425.623 209.494 419.511 198.678C418.715 208.656 421.768 217.178 426.551 225.088C432.843 235.498 437.357 246.487 439.234 258.558C440.51 266.785 441.322 274.996 439.978 283.386C439.54 266.996 435.079 251.629 428.55 236.774C428.692 238.551 428.982 240.296 429.425 242.005C431.171 248.792 432.141 255.753 432.463 262.687C432.996 274.12 433.127 285.595 431.566 297.007C430.607 304.01 430.064 311.087 428.766 318.022C425.908 333.304 421.911 348.307 416.273 362.825C411.696 374.606 408.188 384.962 398.513 396.042C398.281 396.307 398.444 397.023 397.917 396.717C397.542 396.501 397.848 396.032 398.265 395.847C399.362 393.574 400.385 391.264 401.561 389.039C418.03 357.878 427.221 324.772 428.271 289.471C428.503 281.624 427.975 273.814 426.657 266.12C425.333 258.411 423.646 250.748 421.647 243.149C424.548 247.321 425.681 252.262 427.733 256.797C427.849 256.692 427.975 256.586 428.097 256.486C427.506 251.35 426.04 246.414 424.421 241.552C421.035 231.374 417.866 221.154 416.838 210.428C416.078 202.486 415.841 194.497 414.612 186.602C412.883 175.512 410.014 164.802 403.775 155.278C397.147 145.164 390.887 134.854 386.268 123.632C385.556 121.902 384.707 120.236 383.884 118.459C384.823 118.364 385.102 118.876 385.424 119.255C388.54 122.936 391.536 126.717 394.067 130.83C400.912 141.957 407.931 152.974 416.353 162.983C423.198 171.114 428.719 179.916 432.125 190.02C432.611 191.454 432.985 192.857 432.943 194.386C428.17 184.525 423.408 174.695 415.862 166.563C415.414 168.05 416.068 169.179 416.553 170.344C419.005 176.314 422.512 181.83 424.5 188C424.832 188.153 424.91 188.838 424.558 188.928C424.41 188.966 424.226 188.933 424.173 188.859C424.01 188.627 424.534 187.967 423.5 188.5ZM302.441 372.554C302.905 380.881 302.056 388.891 298.966 396.659C295.491 405.381 289.764 412.896 286.078 421.502C287.913 412.643 291.741 404.553 295.733 396.49C292.68 399.064 290.961 402.576 288.714 406.225C290.112 393.411 287.755 381.219 287.907 368.942C290.296 376.963 292.026 385.137 293.629 393.353C295.053 382.31 293.893 371.167 295.507 360.151C296.899 368.478 298.349 376.784 298.444 385.305C299.778 381.055 301.112 376.805 302.441 372.554ZM310.293 402.518C310.293 401.648 310.182 402.718 310.288 402.513C310.805 401.505 311.364 399.132 311.944 398.157C319.031 386.36 328.27 376.267 337.272 365.968C346.327 355.605 355.566 345.386 363.95 334.459C366.308 331.39 368.238 327.999 370.574 324.439C370.468 325.647 370.432 326.475 370.305 327.292C370.257 327.614 369.967 327.894 369.873 328.215C367.331 337.148 361.229 343.714 355.107 350.237C339.513 366.864 324.157 383.702 310.288 402.513L310.293 402.518ZM328.001 357.746C328.181 357.841 328.355 357.942 328.534 358.036C328.07 359.376 327.59 360.71 327.137 362.05C324.141 370.872 320.555 379.32 314.127 386.376C308.79 392.235 304.946 399.132 301.835 406.431C297.737 416.039 293.555 425.616 289.405 435.203C289.194 434.443 289.152 433.731 289.315 433.072C291.451 424.218 294.441 415.696 299.019 407.776C302.035 402.555 304.835 397.229 306.749 391.47C307.519 389.16 308.411 386.798 309.982 384.91C315.72 378.002 320.054 370.181 324.832 362.64C325.871 361 326.947 359.376 328.007 357.746H328.001ZM323.508 414.499C319.232 425.642 316.11 437.112 313.104 448.618C311.944 453.053 311.126 457.583 309.239 461.802C308.832 462.709 308.405 463.716 307.198 463.358C305.832 462.946 306.496 461.712 306.628 460.932C307.957 453.233 310.014 445.713 312.418 438.282C315.129 429.908 318.689 421.919 323.508 414.499ZM273.532 458.453C267.715 447.437 262.405 416.93 265.184 410.375C268.027 426.654 269.783 442.717 273.532 458.453ZM256.494 451.461C256.705 451.93 256.931 452.399 257.132 452.879C259.515 458.585 259.726 464.95 262.484 470.54C262.743 471.062 262.579 471.336 262.221 471.605C260.554 472.86 256.335 471.537 255.977 469.485C254.927 463.474 255.186 457.446 256.499 451.461H256.494ZM273.063 426.296C276.881 439.458 280.767 452.616 279.987 466.564C278.748 452.953 272.435 440.234 273.063 426.296ZM333.512 426.285C333.359 426.765 333.212 427.25 333.059 427.73C330.353 436.089 327.342 444.342 325.375 452.948C324.88 455.11 324.7 457.995 321.715 459.671C323.065 447.337 327.348 436.5 333.512 426.285ZM376.354 404.422C370.78 415.538 367.341 426.702 363.861 437.85C362.463 430.715 370.664 409.078 376.354 404.422ZM297.716 438.673C295.496 445.159 295.612 451.682 296.482 458.321C296.814 460.863 296.93 463.569 295.791 466.047C295.522 466.632 295.364 467.582 294.457 467.392C293.708 467.234 293.888 466.39 293.866 465.81C293.682 460.426 292.801 455.041 293.877 449.662C294.647 445.818 295.422 441.969 297.716 438.667V438.673ZM102.425 201.342C102.657 194.776 101.439 188.511 102.246 181.709C105.694 190.315 106.644 200.271 104.782 206.52C104.46 203.778 104.133 201.009 103.785 198.04C102.562 199 103.559 200.308 102.42 201.342H102.425ZM357.944 425.094C358.883 433.194 353.14 445.729 347.413 448.276C350.002 444.7 351.637 440.945 353.187 437.154C354.754 433.315 356.235 429.439 357.949 425.094H357.944ZM288.013 468.81C285.244 459.962 283.989 451.724 285.809 443.203C287.269 451.424 288.514 459.661 288.013 468.81ZM306.797 383.128C309.423 375.502 314.122 369.232 319.643 363.5C316.263 370.619 312.028 377.195 306.797 383.128ZM321.478 302.808C315.762 295.24 307.899 290.125 300.732 284.245C309.418 288.496 317.043 293.922 321.478 302.808ZM385.171 407.507C381.822 414.631 380.614 422.583 376.918 429.56C377.129 421.228 380.709 414.188 385.171 407.507ZM253.952 420.917C255.808 423.965 257.648 440.713 256.652 444.753C254.606 437.022 253.235 429.212 253.952 420.917ZM240.805 421.987C238.332 415.438 235.157 409.257 232.13 403.008C237.166 408.371 240.821 414.367 240.805 421.987ZM345.435 433.241C343.785 439.743 342.709 446.446 338.928 452.204C339.619 445.365 342.176 439.179 345.435 433.241ZM305.115 381.045C306.533 373.878 309.966 367.613 313.985 361.617C311.796 368.43 308.442 374.701 305.115 381.045ZM275.23 393.585C274.993 393.659 274.756 393.732 274.518 393.812C271.961 387.779 270.041 381.482 267.483 375.449C271.254 380.987 274.081 386.924 275.23 393.585ZM281.321 400.72C280.53 406.71 279.322 412.585 277.097 419.024C276.712 411.957 278.336 406.172 281.321 400.72ZM400.812 400.382C399.747 405.149 397.932 409.663 395.818 414.072C395.533 408.82 398.159 404.612 400.812 400.382ZM417.223 393.3C418.072 388.211 419.501 383.966 422.132 379.568C421.826 383.613 419.48 390.231 417.223 393.3ZM108.205 198.995C107.941 199.027 107.677 199.063 107.408 199.095C107.023 196.796 106.633 194.502 106.248 192.203C107.514 194.349 108.236 196.595 108.205 198.99V198.995ZM343.822 312.39C343.98 315.844 344.402 319.319 343.047 322.657C343.416 319.245 343.447 315.807 343.822 312.39ZM351.141 307.016C351.046 306.995 350.957 306.969 350.862 306.947C350.899 306.336 350.867 305.713 350.983 305.123C351.131 304.39 351.394 303.683 351.642 302.876C352.027 303.731 351.558 304.332 351.394 304.991C351.231 305.645 351.22 306.341 351.141 307.016Z" fill="white"></path>
<path d="M290.302 115.097C288.424 112.065 285.308 110.71 282.328 109.17C281.574 108.78 280.625 108.738 280.124 107.904C273.015 106.739 265.986 104.872 258.081 105.938C259.731 104.577 261.066 104.777 262.331 104.624C267.715 103.965 272.862 105.537 278.099 106.249C278.326 105.806 278.668 105.632 279.148 105.816C279.212 105.843 279.243 105.959 279.291 106.027C278.89 106.09 278.484 106.159 278.083 106.222C278.426 107.272 279.686 107.024 280.256 107.752C282.655 107.852 279.771 106.686 280.667 106.396C282.017 106.027 283.024 107.551 284.437 107.272L284.411 107.298C281.078 104.081 276.649 103.617 272.456 102.621C271.038 102.283 269.598 101.787 268.079 102.009C266.065 103.095 263.834 102.415 261.714 102.747C256.757 103.517 251.911 104.793 246.991 105.705C247.218 105.642 246.996 105.711 246.996 105.711C247.771 104.777 248.926 104.566 249.96 104.113C255.792 101.55 261.962 101.94 268.1 102.035C263.302 100.242 258.355 100.991 253.445 101.186C249.074 101.355 244.95 103.048 240.642 103.575C244.533 101.413 248.905 100.875 253.15 99.9311C259.99 98.407 266.856 98.676 274.08 100.079C272.161 98.5336 269.719 97.7953 264.826 97.326C256.852 96.5561 248.958 97.115 241.132 98.8553C238.812 99.3721 236.813 100.812 234.414 101.038C234.303 101.096 234.197 101.154 234.087 101.218C234.155 101.118 234.219 101.012 234.287 100.912C239.729 96.5297 245.994 93.8824 252.755 92.2688C244.428 92.427 236.76 94.8 229.504 98.7129C226.751 100.195 224.278 102.214 221.225 103.137C221.114 103.201 221.009 103.269 220.903 103.338C220.972 103.232 221.04 103.127 221.109 103.021C224.463 99.2877 228.919 97.1519 233.169 94.742C235.605 93.3603 238.158 92.1844 240.552 90.6604C226.878 92.1686 214.459 97.0096 203.037 104.82C204.176 102.52 206.496 101.46 208.294 99.8889C210.209 98.2172 212.307 96.7828 214.528 95.5225C216.705 94.2885 218.799 92.9016 220.835 91.3459C218.214 91.3881 215.951 92.6695 213.562 93.4447C207.825 95.3063 202.968 98.8131 197.953 102.014C197.927 102.072 197.906 102.141 197.863 102.188C197.837 102.214 197.774 102.209 197.732 102.214C197.811 102.151 197.89 102.088 197.964 102.025C197.784 100.928 198.465 100.237 199.14 99.5461C202.773 95.8178 205.853 91.5463 210.071 88.3822C210.367 88.1607 210.43 87.6334 210.604 87.2484L210.615 87.2643C205.447 89.11 200.912 91.984 196.962 95.765C195.153 97.4947 193.471 99.351 190.412 100.369C191.862 96.7248 195.928 95.6121 196.397 92.0262L196.355 91.984C195.564 90.7869 197.32 88.6723 195.712 88.282C194.23 87.9234 193.798 90.2068 192.87 91.2721C191.535 92.8014 190.022 93.9826 188.118 95.1902C188.213 91.6096 189.315 88.2029 186.984 84.5063C186.415 90.0012 184.522 94.2779 181.083 97.8111C181.205 97.6213 180.957 97.9957 181.078 97.8059C181.537 94.3359 181.837 90.8555 181.542 86.9478C178.104 92.2582 174.845 97.2943 171.586 102.33C173.041 96.2238 177.329 90.6604 173.817 84C173.11 87.2379 171.85 90.2648 170.616 94.0828C170.658 91.0084 170.415 88.6617 169.993 86.3361C169.883 85.7244 169.872 84.9967 169.118 84.907C168.327 84.8121 168.142 85.5768 167.995 86.1357C167.457 88.1344 166.993 90.1488 166.418 92.4955C165.268 90.1963 162.516 89.632 162.236 86.6684C162.136 85.6189 160.248 86.7264 159.62 87.5912C158.307 89.3895 157.764 91.5252 157.348 93.6979C157.021 95.3906 156.926 97.152 156.035 98.9396C155.238 96.4453 156.778 94.2041 156.145 91.7467C154.231 93.0281 154.078 95.1428 153.018 97.6687C152.602 94.8158 152.29 92.6801 151.905 90.0064C151.542 91.2088 151.273 91.9471 151.104 92.7064C150.93 93.4711 150.967 94.3834 149.944 94.5311C148.878 94.684 148.399 93.8824 147.993 93.0809C147.797 92.6906 147.734 92.2371 147.539 91.8521C147.323 91.425 147.412 90.6551 146.685 90.7289C145.92 90.808 145.783 91.5146 145.788 92.1316C145.804 93.7928 145.815 95.4644 145.989 97.115C146.078 97.9799 146.368 98.8131 146.136 99.8625C144.923 97.8375 145.387 95.6807 145.108 93.2496C142.73 95.032 142.629 97.7531 141.237 100.058C141 99.4828 140.742 99.0135 140.615 98.5072C140.488 98.001 140.488 97.4684 140.436 96.9463C140.383 96.4295 140.452 95.7809 139.887 95.5647C139.149 95.2799 138.838 96.0129 138.448 96.4295C137.087 97.8691 136.924 99.8836 136.18 101.808C135.268 100.696 136.138 98.7393 134.593 98.6443C133.369 98.5705 132.758 100.079 132.003 101.028C130.775 102.568 130.2 104.382 129.683 106.887C129.499 105.969 129.451 105.674 129.377 105.389C129.193 104.693 129.857 103.607 128.792 103.369C128.101 103.216 127.748 104.15 127.273 104.651C124.816 107.272 122.306 109.85 119.822 112.445C119.3 112.993 118.678 113.231 117.929 113.157C110.071 119.016 105.415 127.269 101.022 135.722C99.4084 138.111 98.8441 140.948 97.8158 143.569C95.3267 149.929 93.5548 156.536 91.7672 163.128C91.5931 163.771 91.1027 164.568 91.9412 164.984C92.6057 165.322 92.9431 164.483 93.4283 164.156C94.8205 163.218 94.9998 161.214 96.6504 160.507C96.7453 160.402 96.7928 160.275 96.7928 160.133C97.7683 158.419 96.7928 160.084 97.7683 158.419C99.9041 150.867 102.23 143.384 105.689 136.302C107.319 132.969 108.99 129.657 110.572 126.309C111.674 123.978 114.074 123.324 116.188 121.937C115.587 121.346 115.322 121.054 115 120.5C120.136 118.443 124.784 117.924 130.353 119.432C130.775 119.548 130.232 119.13 130 120C129.926 120.285 128.58 120.747 128 121C130.726 122.297 135.384 123.229 138.289 123.598C139.666 123.772 138.322 124.567 138 125.5C136.091 131.09 133.799 133.202 129 137.5C129.501 134.631 127.556 135.228 126 134.5C121.09 132.196 114.044 134.149 110.5 138.5C113.432 137.793 117.084 137.025 120 137.5C122.821 137.954 124.805 139.105 127.743 139C126.424 141.542 122.672 140.171 122.672 140.171C122.672 140.171 118.62 139.455 117 141C116.052 141.904 115.264 142.712 115.5 144C115.764 145.442 117.623 145.61 118.482 146.279C121.836 145.81 124.341 143.152 127.743 142.741C133.47 142.05 139.144 140.995 144.839 140.152C148.704 139.582 152.834 139.239 156.973 140.141C156.145 141.222 154.779 140.853 153.857 142.266C161.034 140.974 167.858 140.589 174.618 142.435C168.812 142.003 163.001 141.349 157.337 143.268C160.1 144.08 162.906 143.537 165.695 143.985C168.448 144.423 171.264 144.449 173.985 145.209C176.569 145.931 179.169 146.601 181.205 148.484C178.647 148.23 176.29 147.112 173.701 147.366C174.418 148.099 175.425 148.151 176.316 148.478C182.064 150.582 187.406 153.451 191.456 158.108C195.87 163.181 200.084 168.417 205.394 172.62C205.726 172.694 206.064 172.762 206.396 172.831C206.327 172.937 206.222 173.142 206.201 173.132C205.895 173.01 205.653 173.228 205.299 173.255C203.294 173.408 202.409 171.956 200.331 171.903C202.446 173.59 204.35 174.334 206.396 174.798C206.612 174.846 207.298 174.761 206.623 175.262C206.412 175.42 205.911 175.209 206.016 175.884C208.141 175.072 209.043 176.876 210.42 177.92C207.466 177.978 204.603 178.126 201.729 177.656C203.975 179.038 206.433 179.491 208.927 180.045H203.321C207.076 182.075 211.221 182.144 215.408 182.924C211.975 183.963 208.611 183.737 205.299 184.158C210.087 186.136 215.129 184.823 219.986 185.862H206.491C210.462 188.256 214.839 186.911 219.042 187.576C218.414 188.229 217.612 187.755 217.027 188.034C215.413 188.799 212.054 187.955 212.265 189.142C212.571 190.877 215.471 190.94 217.47 191.13C218.783 190.181 220.181 190.724 221.557 191.109H217.449C218.261 191.589 218.588 192.09 217.338 192.733C222.691 194.774 227.764 197.041 233.359 198.096C240.236 199.388 247.028 201.234 253.293 204.551C255.792 205.874 257.738 207.662 258.097 210.679C258.329 210.816 258.555 210.953 258.787 211.09C260.185 210.895 261.15 210.278 261.076 208.68C260.723 208.258 260.037 207.989 260.37 207.261C260.391 207.214 260.929 207.398 261.224 207.472C261.087 206.059 261.092 204.725 262.843 204.271C260.765 202.621 258.244 201.566 256.446 199.536L256.504 199.61C256.172 199.578 255.845 199.546 255.513 199.515C253.192 198.956 254.769 197.289 254.553 196.134C252.433 194.779 252.491 193.095 250.672 191.671C248.47 189.948 244.172 188.671 244.172 188.671C244.172 188.671 241.274 187.997 241.744 187.85C238.342 185.714 234.345 184.617 230.87 181.58C235.062 182.313 238.174 184.918 242.034 185.355C241.949 184.153 239.212 184.443 240.884 182.566C241.222 182.191 240.141 181.88 239.719 181.669C235.168 179.381 230.395 177.54 226.018 174.882C225.575 174.613 225.059 174.487 224.932 173.722C227.548 173.917 229.451 175.942 232.652 176.459C228.95 173.48 225.992 170.674 222.533 168.444C220.566 167.173 218.425 166.118 216.821 164.33C216.589 164.251 216.347 164.109 216.547 163.861C216.637 163.755 216.964 163.845 217.185 163.845C220.207 165.121 222.67 167.711 226.614 167.953C222.591 164.225 218.451 161.356 214.528 158.218C213.726 157.607 212.64 157.354 212.154 156.341C211.828 156.309 211.611 156.167 211.648 155.798C211.485 155.682 211.321 155.566 211.158 155.45C211.211 155.392 211.305 155.276 211.316 155.281C211.485 155.397 211.643 155.534 211.801 155.661L212.46 155.967C213.278 156.578 214.095 157.195 214.907 157.807C216.7 158.73 218.498 159.647 220.719 160.792C218.936 158.208 216.331 157.317 214.981 154.922C216.252 154.311 216.584 155.634 217.676 155.608C216.616 153.604 214.876 152.36 213.33 150.978C212.392 150.139 211.833 149.106 211.279 148.067C210.931 147.418 212.172 148.171 212.172 148.171C212.172 148.171 215.172 149.171 216.672 149.171C216.5 147 211.174 144.471 210.499 143.832C211.638 143.637 213.786 145.202 214 144C213.979 142.581 211.838 142.388 211.01 141.892C209.945 141.259 209.486 140.426 209.033 139.45C210 139.5 222 143.5 207.952 136.898C207.825 136.592 207.503 136.107 207.598 136.012C207.978 135.606 208.511 135.585 208.943 135.98C210.588 137.483 212.587 137.362 215.034 137.293C212.872 135.553 210.098 135.611 208.12 133.344C211.295 133.95 214.027 134.509 217.111 133.997C213.842 133.075 210.836 132.231 207.83 131.382C211.949 130.907 216.875 131.361 221.5 130C219.132 129.483 215.5 128.5 215.5 128.5C215.5 128.5 210.894 128.202 209.08 126.936C211.522 126.936 213.301 127.094 215.999 126.936C217.762 126.833 221.131 128.15 220.5 126.5C220.151 125.588 218.5 125 218.5 125C218.5 125 218.425 124.758 219.189 124.806C221.404 124.917 223.614 124.98 226.061 124.131C225.143 123.53 224.552 123.145 223.92 122.733C227.848 119.622 234.706 121.335 239.5 119.5C237.438 119.373 236.014 118.621 234 118.5C239.864 117.145 243.479 118.198 248.789 117.091C254.252 115.952 252.672 116.671 259.172 117.671C256.525 117.671 256.297 117.687 254.172 117.671C251.888 117.65 249.172 118.671 247.672 121.171C255.086 119.136 261.591 119.827 269 122C267.782 122.111 266.934 122.368 265.5 122.5C270.779 124.372 275.438 126.353 280 129C278.576 129.68 277.882 128.424 276.5 129.5C279.453 131.762 282.094 133.775 285 136C285.221 136.221 284.779 135.779 285 136C283.365 135.272 281.135 134.228 279.5 133.5C283.197 137.112 288.172 141.218 291.5 145.199C291.669 145.315 291.331 145.083 291.5 145.199C291.157 144.957 290 144 289.5 144.5C289.611 144.41 289.389 144.584 289.5 144.5C290.518 145.676 291.482 146.824 292.5 148C292.642 148.153 292.358 147.847 292.5 148C292.69 148.163 292.31 147.837 292.5 148C290.812 147.868 291.541 149.052 292 149.5C294.505 151.947 296.905 154.148 299.5 156.5C300.771 157.655 301.876 159.725 303.5 160.5C303.563 160.547 303.437 160.453 303.5 160.5C301.5 160.5 301.502 159.22 300.047 158.44C299.124 157.944 297.772 156.405 296 156.5C299.992 162.591 303.374 167.728 308.5 172.5C306.069 171.345 304 168.5 302 167.5C302.116 167.395 301.889 167.611 302 167.5C303.5 172.5 308.954 177.261 313.5 181C310.188 179.84 307.721 177.03 305 175C305.5 178.5 309.332 181.859 312 184C311.5 184.5 311.868 185.73 312.5 186.5C313.023 187.137 314.126 187.636 314.5 188C316.915 188.654 322.728 190.365 323.445 192.976C321.573 191.995 321.584 192.037 319.137 192.38C318.736 192.438 318.251 191.873 317.803 191.599C317.396 191.309 316.985 191.014 316.579 190.724C316.215 191.198 315.851 191.678 315.482 192.153C316.395 193.197 317.402 194.188 318.309 195.233C318.346 195.264 318.23 195.233 318.309 195.233C316.743 195.744 315.888 194.399 314.839 193.761C313.125 192.717 311.601 191.378 309.993 190.16C310.536 192.57 320.402 201.962 324.352 203.828C330.591 205.737 336.766 207.91 343.178 209.191C346.58 209.872 349.812 211.38 353.419 211.164C354.785 211.079 355.977 210.895 357 209.977C354.453 208.406 351.943 206.76 348.995 205.922C349.77 205.885 350.551 205.848 351.326 205.811C348.816 203.428 345.33 201.962 342.403 202.199C339.55 202.431 338.501 200.511 336.486 199.989C340.12 199.209 343.315 201.36 346.901 201.229C340.753 197.469 333.676 195.386 328.17 190.581C328.133 190.513 328.096 190.439 328.059 190.371C328.086 190.45 328.117 190.529 328.144 190.603C332.537 190.302 336.576 192.374 340.985 192.417C337.784 190.044 333.881 188.883 330.802 186.368C330.765 186.315 330.733 186.263 330.696 186.204C330.722 186.268 330.754 186.326 330.78 186.389C333.697 185.999 336.36 187.249 339.144 187.702C340.236 187.881 341.322 188.33 342.356 187.549C340.847 186.985 339.334 186.442 338.121 185.319C336.144 184.427 333.781 184.322 332.252 182.292C338.575 184.143 344.871 181.922 351.226 182.408C343.637 180.035 335.458 179.581 328.571 175.099C332.215 175.568 335.416 177.915 339.287 177.698C332.241 175.03 325.845 171.481 320.692 165.269C323.545 165.57 325.301 167.484 327.606 167.937L327.648 167.885C327.648 167.057 327.02 166.73 326.472 166.276C322.976 163.376 319.495 160.444 316.041 157.491C315.741 157.232 315 156.5 315 156.5C315 156.5 314.832 156.447 314.546 156.251C314.258 156.054 314.111 155.471 314.111 155.471C314.111 155.471 314.187 155.225 314.312 155.139C314.609 154.932 314.765 155.561 314.992 155.771C315.182 155.93 315.366 156.093 315.556 156.251C316.474 156.742 317.37 157.274 318.309 157.717C318.984 158.039 319.859 158.883 320.413 158.123C321.03 157.269 319.87 156.837 319.305 156.41C317.629 155.123 316.168 153.636 314.749 152.064C318.572 149.754 321.388 154.263 324.937 153.609C315.54 148.262 307.472 141.48 300.722 133.127C301.74 132.632 302.668 132.278 303.575 133.481C304.213 134.324 304.872 135.353 306.686 135.69C302.641 130.438 298.275 126.135 293.898 121.847C289.447 117.486 283.989 114.454 279.022 110.694C281.664 110.889 284.037 111.728 286.257 113.109C287.512 113.89 288.604 114.976 290.138 115.256L290.286 115.087L290.302 115.097Z" fill="#1D1D1D"></path>
<path d="M163.911 164.581C162.166 161.807 161.179 158.585 158.669 156.259C155.052 152.905 150.87 151.081 145.934 150.833C140.455 150.554 135.118 151.218 129.929 153.016C127.192 153.965 124.366 153.48 121.586 153.48C117.468 153.48 114.119 155.094 111.309 157.957C109.326 159.982 109.173 162.456 110.729 165.108C115.206 159.777 121.755 160.8 124.476 167.265C127.15 167.624 129.818 167.987 132.492 168.346C134.1 166.073 135.804 163.8 138.657 163.12C142.359 162.239 146.124 162.023 149.826 163.252C150.506 163.479 151.302 163.837 151.835 163.489C153.343 162.519 154.245 163.489 155.131 164.359C156.043 165.256 156.818 166.284 157.652 167.26C158.617 167.297 159.102 167.993 159.176 168.768C159.439 171.642 161.063 172.138 163.484 171.415C163.531 171.13 163.574 170.851 163.621 170.566C163.384 168.884 162.055 167.138 163.916 165.583C163.916 165.251 163.911 164.918 163.906 164.586L163.911 164.581Z" fill="#1D1D1D"></path>
<path d="M136.141 203.214C135.071 203.198 134.005 203.182 132.935 203.167C132.524 204.053 131.78 204.601 131.068 205.239C130.224 205.993 128.663 205.081 128.236 206.579C135.118 206.273 141.921 206.948 148.766 207.66C158.458 208.667 168.204 209.379 177.975 208.772C178.207 208.756 178.434 208.651 178.682 208.335C164.797 205.492 150.77 203.863 136.616 203.235C136.442 203.525 136.289 203.467 136.141 203.209V203.214Z" fill="#1D1D1D"></path>
<path d="M331.243 211.019C329.096 210.064 327.746 208.113 325.916 206.763C325.521 206.663 324.967 206.921 324.82 206.267L324.899 206.315C323.601 206.215 322.821 205.113 321.698 204.67C321.133 204.854 320.574 205.039 320.015 205.223C322.974 208.081 325.932 210.945 328.896 213.803C329.149 214.193 330.14 214.025 329.877 214.515C329.629 214.984 328.843 214.905 328.516 214.193C326.945 214.146 327.609 214.668 328.263 215.195C331.564 217.858 335.319 219.657 339.343 220.912C340.397 221.244 341.505 221.423 342.586 221.676C343.403 220.801 344.7 221.175 345.771 220.58C344.679 219.008 342.132 219.293 341.826 217.099C340.898 216.651 339.949 216.255 339.053 215.749C336.4 214.251 333.294 213.497 331.248 211.014L331.243 211.019Z" fill="#1D1D1D"></path>
<path d="M249.024 136.727C255.189 134.506 260.979 135.656 266.548 138.704C267.518 139.237 269.051 139.93 270 140.5C266.62 135.891 261.753 132.975 256 132.5C249.646 131.978 243.957 133.726 239.427 138.372C238.177 139.653 236.985 141.003 235.873 142.406C235.35 143.065 234.755 144.03 235.461 144.779C236.131 145.491 236.864 144.558 237.549 144.315C237.934 144.178 238.235 143.814 238.573 143.55C237.349 143.561 237.365 142.986 238.145 142.39C240.002 140.972 241.541 139.073 243.788 138.24C245.481 137.613 246.841 135.698 249.019 136.732L249.024 136.727Z" fill="#1D1D1D"></path>
<path d="M248.434 165.514C248.581 166.305 248.724 167.091 248.871 167.882C258.527 170.455 266.469 167.123 273.53 160.742C273.825 160.473 274.363 160.283 274.189 159.735C273.973 159.049 273.319 159.313 272.86 159.239C271.737 159.054 270.788 159.566 270.023 160.299C263.837 166.237 256.486 167.318 248.439 165.514H248.434Z" fill="#1D1D1D"></path>
<path d="M250.469 145.08C251.266 144.125 252 143.5 250.5 142.5C249.672 142.205 247.839 142.568 247 143C243.857 144.624 242.575 147.637 242.127 150.981C241.652 154.509 242.274 157.757 246.208 159.977C244.843 157.061 243.856 154.54 244.616 151.582C245.402 148.502 247.137 146.562 250.058 145.549L249.963 145.649C249.805 145.106 250.195 145.085 250.548 145.032L250.464 145.08H250.469Z" fill="#1D1D1D"></path>
<path d="M249.963 145.649C248.592 148.797 249.752 150.327 253.191 150.353C254.145 150.358 255.11 150.437 256.059 150.353C257.531 150.221 259.263 149.698 259.5 148C259.758 146.17 258.435 145.012 257 144.5C254.938 143.772 251 144 250.464 145.08C249.5 144.5 249.5 145 249.963 145.649Z" fill="#1D1D1D"></path>
<path d="M424.419 271.131C423.786 275.671 423.828 280.206 424.408 284.747C424.408 280.206 424.414 275.671 424.419 271.131Z" fill="#1D1D1D"></path>
<path d="M181.192 433.669C178.35 410.761 183.476 387.974 181.572 365.741C180.538 368.942 181.034 373.024 180.375 376.974C179.557 381.878 179.035 386.83 178.403 391.766C178.139 393.833 178.102 395.916 177.886 397.988C176.71 409.2 177.258 420.364 179.42 431.433C179.52 431.944 179.716 432.44 179.911 432.925C180.027 433.22 180.227 433.479 180.391 433.753C180.66 433.721 180.929 433.695 181.197 433.663L181.192 433.669Z" fill="white"></path>
<path d="M233.974 440.524C234.006 436.511 232.566 432.856 230.973 429.297C226.19 418.613 219.715 408.788 215.058 397.461C214.357 399.544 214.594 401.063 214.868 402.55C216.234 409.922 218.955 416.709 223.322 422.874C227.277 428.464 231.437 433.964 233.979 440.524H233.974Z" fill="white"></path>
<path d="M197.614 433.716C194.961 419.393 192.857 404.971 191.465 390.453C190.278 405.308 190.848 419.926 197.614 433.716Z" fill="white"></path>
<path d="M178.213 346.156C175.191 363.616 172.665 381.077 174.374 398.827C175.17 381.219 178.197 363.774 178.213 346.156Z" fill="white"></path>
<path d="M188.628 401.216C186.761 387.368 187.494 373.43 187.22 358.802C184.066 373.367 184.309 394.055 188.628 401.216Z" fill="white"></path>
<path d="M170.5 407.5C164.166 417.636 155.138 428.967 146.5 438C150.977 437.003 167.077 418.817 170.5 407.5Z" fill="white"></path>
<path d="M238.414 461.37C235.166 450.512 230.641 440.208 225.004 430.399C227.709 441.484 233.726 451.145 238.414 461.37Z" fill="white"></path>
<path d="M316.335 93.5688C316.44 92.6195 315.876 92.1397 315.127 91.7442C310.175 89.1074 305.245 86.2545 299.512 85.8906C297.656 85.7746 295.679 85.7008 293.727 85.8643C291.697 86.0383 289.361 85.801 287.183 85.358C282.611 84.4246 278.181 85.532 273.704 86.5182C276.779 87.2037 279.885 87.5043 282.943 88.1002C292.889 90.0303 302.676 92.5299 312.258 95.8469C314.299 96.5535 316.619 97.7401 318.423 95.2035C317.943 94.9135 318.423 95.2035 316.915 94.4916C314.89 93.7111 312.896 92.9518 310.871 92.166C306.515 90.5682 302.16 88.9703 297.809 87.3672C302.502 88.1899 306.948 89.7244 311.214 91.7653C313.081 91.9129 314.557 93.168 316.335 93.5688Z" fill="#1D1D1D"></path>
<path d="M366.2 160.083C360.99 155.843 354.831 153.617 348.503 151.782C340.181 149.367 332.134 146.272 324.387 142.39C324.297 142.501 324.213 142.612 324.129 142.728C328.284 146.103 333.436 147.764 337.84 150.917C333.658 150.374 329.476 149.831 325.294 149.288C328.326 150.759 331.606 151.102 334.85 151.355C341.473 151.872 347.516 154.076 352.937 157.731C358.807 161.691 365.072 165.045 370.677 169.401L371.041 169.005C366.664 163.542 361.196 159.408 355.005 155.996C356.745 155.722 356.94 155.78 360.647 157.667C362.424 158.574 364.196 159.487 365.973 160.399C366.053 160.294 366.126 160.188 366.205 160.083H366.2Z" fill="white"></path>
<path d="M389.693 204.691C389.509 201.643 388.001 199.064 386.598 196.496C378.751 182.094 367.239 172.117 351.319 167.513C349.304 166.933 347.179 167.566 345.191 166.717C347.089 168.494 349.584 168.863 351.804 169.802C368.083 176.71 380.602 187.71 388.818 203.472C389.034 203.889 389.097 204.517 389.736 204.638L389.688 204.691H389.693Z" fill="white"></path>
<path d="M337.196 237.186C338.567 238.873 340.724 239.047 342.538 239.822C346.061 241.33 349.71 242.522 353.122 244.31C363.89 249.947 369.554 258.996 371.284 270.856C372.017 275.887 371.648 280.929 372.012 285.96C373.219 278.983 373.14 272.017 372.159 264.919C372.882 266.77 373.646 268.605 374.316 270.477C374.98 272.328 375.561 274.21 376.352 275.988C373.267 258.38 363.996 245.881 346.536 240.223C343.408 239.211 340.271 238.214 337.138 237.212L337.191 237.186H337.196Z" fill="white"></path>
<path d="M364.829 296.633C366.474 293.39 367.223 289.957 367.434 286.461C367.603 283.687 368.32 280.976 368.136 278.155C367.519 268.752 365.362 259.956 358.717 252.816C356.096 250 353.106 247.817 348.503 247.337C349.209 247.954 349.425 248.233 349.71 248.371C359.165 253.006 363.563 261.544 365.188 271.083C366.374 278.055 365.293 285.416 365.182 292.604C365.161 293.949 364.95 295.288 364.824 296.628L364.829 296.633Z" fill="white"></path>
<path d="M350.67 205.645C349.895 205.682 349.114 205.719 348.339 205.756C351.287 206.594 353.797 208.24 356.344 209.811C361.95 211.915 367.318 214.552 372.808 216.951C368.589 211.267 361.876 210.312 355.827 208.113C360.02 207.343 366.812 209.157 372.771 212.342C378.192 215.243 382.147 219.73 386.097 224.266C383.133 216.941 374.88 210.191 366.285 207.902C362.145 206.8 357.963 205.956 353.628 206.257C352.611 206.325 351.524 206.499 350.67 205.65V205.645Z" fill="white"></path>
<path d="M378.123 180.401C374.485 175.481 370.045 171.415 364.655 168.531C357.974 164.955 350.828 162.809 343.197 162.709C342.043 162.693 340.819 163.083 339.274 163.057C341.858 164.607 344.521 164.138 346.942 164.449C356.671 165.699 364.813 170.176 372.46 175.935C374.385 177.385 375.84 179.41 378.108 180.412H378.113L378.123 180.401Z" fill="white"></path>
<path d="M331.243 211.019C333.294 213.508 336.395 214.262 339.047 215.754C339.938 216.261 340.893 216.656 341.821 217.104C350.069 219.593 358.19 222.42 365.995 226.122C361.491 222.167 356.08 219.947 350.617 217.874C345.149 215.796 339.511 214.162 334.301 211.451C333.273 210.913 332.271 211.082 331.243 211.019Z" fill="white"></path>
<path d="M337.476 185.153C338.689 186.276 340.207 186.819 341.71 187.383C347.585 189.398 353.681 190.268 359.819 191.001C363.184 191.402 366.527 191.987 369.733 193.131C372.934 194.276 375.835 196.026 378.83 197.624C375.988 194.149 372.254 192.113 367.962 191.011C360.173 189.023 352.015 189.087 344.279 186.777C342.048 186.112 339.96 184.789 337.481 185.153H337.476Z" fill="white"></path>
<path d="M254.308 76.9363C270.466 73.9147 286.471 73.593 302.36 78.2705C286.487 71.0354 270.398 72.4592 254.308 76.9363Z" fill="white"></path>
<path d="M261.491 78.4392C275.755 79.4465 289.978 80.7543 303.858 84.4879C296.058 79.2883 276.061 77.0049 261.491 78.4392Z" fill="white"></path>
<path d="M344.579 212.59C354.108 216.561 363.906 219.862 373.024 224.782C366.522 218.692 350.327 211.688 344.579 212.59Z" fill="white"></path>
<path d="M334.565 141.488C342.66 147.875 352.658 150.564 361.491 155.521C353.555 148.824 344.389 144.515 334.565 141.488Z" fill="white"></path>
<path d="M330.13 113.45C325.995 109.695 321.033 107.301 315.987 105.155C310.202 102.697 304.285 100.561 298.41 98.3043C298.03 98.1567 297.572 98.2147 297.007 98.5627C299.897 99.918 302.766 101.31 305.677 102.618C313.561 106.162 321.661 109.236 329.26 113.407C329.55 113.566 329.882 113.734 330.188 113.407L330.13 113.45Z" fill="white"></path>
<path d="M381.81 208.878C376.9 204.184 370.672 202.244 364.355 200.482C359.935 199.248 355.437 199.222 350.248 199.549C352.278 200.946 354.198 200.63 355.775 200.836C364.344 201.97 372.47 204.358 380.117 208.387C380.639 208.662 381.108 209.384 381.862 208.836L381.81 208.872V208.878Z" fill="white"></path>
<path d="M370.888 242.411C365.341 234.892 358.759 228.869 348.761 228.094C356.898 231.691 363.764 237.207 370.888 242.411Z" fill="white"></path>
<path d="M357.715 162.888C351.145 159.255 333.494 153.375 329.977 153.644C333.7 156.228 353.054 162.677 357.715 162.888Z" fill="white"></path>
<path d="M335.941 167.75C338.024 170.055 341.009 170.635 343.72 171.595C349.758 173.725 355.416 176.578 360.885 179.863C361.544 180.259 362.271 180.538 363.078 180.923C361.412 176.762 348.566 170.587 335.936 167.755L335.941 167.75Z" fill="white"></path>
<path d="M314.853 122.942C323.791 127.034 332.229 131.996 340.218 137.723C342.064 139.047 343.862 140.444 345.987 142.037C345.539 140.349 344.41 139.527 343.445 138.73C335.219 131.965 326.069 126.77 316.087 123.058C315.702 122.915 315.232 123.01 314.8 123L314.853 122.947V122.942Z" fill="white"></path>
<path d="M324.398 103.367C320.063 100.108 314.969 98.4519 309.948 96.7328C303.536 94.539 297.134 92.2715 290.379 91.1429C293.068 92.0711 295.779 92.9412 298.442 93.9431C307.011 97.1547 315.918 99.4908 324.071 103.789C324.181 103.646 324.287 103.509 324.398 103.367Z" fill="white"></path>
<path d="M307.765 109.959C316.192 114.404 325.352 117.03 334.101 120.68C326.096 115.2 316.804 112.885 307.765 109.959Z" fill="white"></path>
<path d="M318.017 117.658C321.967 120.094 326.423 121.402 330.605 123.321C334.412 125.067 338.198 126.823 341.795 129.349C341.779 127.999 340.851 127.614 340.171 127.134C333.653 122.536 326.238 119.952 318.713 117.621C318.491 117.552 318.212 117.674 317.964 117.705L318.017 117.658Z" fill="white"></path>
<path d="M349.52 194.492L371.453 197.851C364.634 193.579 357.024 194.355 349.52 194.492Z" fill="white"></path>
<path d="M295.315 70.5871C287.985 67.8449 280.449 66.1047 272.523 66.7533C280.095 68.1244 287.768 68.8891 295.315 70.5871Z" fill="white"></path>
<path d="M338.699 240.402C333.827 238.272 328.817 236.442 324.218 233.726C328.284 237.528 333.12 239.738 338.699 240.402Z" fill="white"></path>
<path d="M328.875 127.472C334.233 130.319 339.633 133.083 344.859 136.173C340.229 132.086 334.887 129.233 329.096 127.134C329.022 127.245 328.949 127.356 328.87 127.466L328.875 127.472Z" fill="white"></path>
<path d="M190.547 66.2576C191.86 68.4619 192.14 70.8982 192.256 73.3873C192.456 70.8033 192.883 68.4303 190.547 66.2576C190.394 66.3631 190.7 66.1522 190.547 66.2576Z" fill="white"></path>
<path d="M310.871 92.1608C312.896 92.9412 314.916 93.7217 316.941 94.5074C317.907 94.8823 317.055 94.0954 316.957 93.8641C316.841 93.5926 316.361 93.4 316.361 93.4L316.34 93.5688C314.563 93.168 313.086 91.9129 311.219 91.7653C311.109 91.8971 310.993 92.0289 310.877 92.1608H310.871Z" fill="white"></path>
<path d="M293.242 117.653C293.274 117.732 293.311 117.805 293.342 117.885C293.305 117.811 293.263 117.742 293.226 117.668L293.242 117.653Z" fill="#1D1D1D"></path>
<path d="M308.53 138.746C308.567 138.82 308.609 138.894 308.646 138.968C308.604 138.899 308.561 138.831 308.519 138.757L308.53 138.746Z" fill="#1D1D1D"></path>
<path d="M308.519 138.757C308.345 138.583 308.166 138.403 307.992 138.229L308.003 138.219C308.177 138.393 308.356 138.572 308.53 138.746L308.519 138.757Z" fill="#1D1D1D"></path>
<path d="M307.992 138.229C307.813 138.055 307.639 137.881 307.459 137.707L307.48 137.686C307.655 137.866 307.829 138.04 308.003 138.219L307.992 138.229Z" fill="#1D1D1D"></path>
<path d="M307.459 137.707C307.433 137.628 307.407 137.549 307.375 137.47C307.412 137.544 307.444 137.618 307.48 137.692L307.459 137.713V137.707Z" fill="#1D1D1D"></path>
<path d="M285.316 108.187C285.279 108.113 285.248 108.039 285.211 107.965C285.253 108.034 285.295 108.097 285.337 108.166L285.316 108.187Z" fill="#1D1D1D"></path>
<path d="M283.755 107.1C283.792 107.174 283.824 107.243 283.861 107.317C283.819 107.253 283.771 107.19 283.729 107.127L283.755 107.1Z" fill="#1D1D1D"></path>
<path d="M307.264 263.426C306.468 262.213 305.239 261.28 304.854 259.814C305.276 259.345 305.571 259.729 305.761 259.919C310.655 264.766 316.793 267.038 323.306 268.721C327.604 269.833 331.749 271.484 335.588 273.788C336.115 274.105 336.621 274.469 337.339 274.11C333.03 270.508 328.042 268.357 322.689 267.107C315.512 265.435 309.616 261.823 305.018 256.08C304.833 255.822 304.369 254.962 304.907 255.247C305.118 255.384 305.26 255.563 305.477 255.701C311.942 260.763 319.536 263.062 327.398 264.76C332.698 265.905 337.254 268.473 341.178 272.196L341.13 272.254C341.779 271.394 340.861 271.078 340.492 270.698C337.265 267.397 333.363 265.256 329.049 263.605C323.744 261.57 318.143 260.426 313.012 257.889C304.78 253.818 298.547 247.606 293.037 240.392C289.735 236.073 285.691 232.371 280.813 229.745C281.013 229.56 280.612 229.929 280.813 229.745C287.172 235.161 290.743 242.87 295.515 249.546C297.087 251.746 298.806 253.844 300.24 256.228C293.374 250.359 287.262 243.598 279.389 238.947C288.707 247.063 296.976 256.333 306.89 263.79C307.011 263.663 307.143 263.547 307.275 263.437L307.264 263.426Z" fill="white"></path>
<path d="M309.811 253.285C305.582 249.921 303.125 245.85 300.467 241.953C296.042 235.456 291.201 229.376 284.103 225.542C279.816 223.227 275.355 221.618 270.361 222.051C269.491 222.125 268.589 221.998 267.882 222.984C278.297 223.243 285.743 228.606 291.834 236.437C295.663 241.357 299.613 246.187 304.396 250.237C305.825 251.45 307.185 252.848 309.806 253.291L309.811 253.285Z" fill="white"></path>
<path d="M295.019 230.91C292.673 225.827 290.426 220.268 284.504 218.918C279.906 217.869 275.27 216.45 269.797 216.899C279.816 219.472 288.312 223.617 295.019 230.91C295.172 230.731 295.32 230.552 295.473 230.372L295.019 230.91Z" fill="white"></path>
<path d="M266.907 225.167C273.446 230.251 280.053 235.25 286.413 240.571C284.536 236.521 278.851 231.19 273.208 228.105C271.178 226.992 269.301 225.479 266.864 225.231L266.907 225.167Z" fill="white"></path>
<path d="M261.016 220.216C262.746 217.178 260.41 214.62 260.325 211.783C260.104 213.534 258.432 215.359 260.942 216.957C261.454 217.284 261.016 219.092 261.016 220.216Z" fill="white"></path>
<path d="M275.439 237.47C272.982 235.551 270.866 233.536 267.929 232.555C268.03 232.371 267.824 232.745 267.929 232.555C270.534 234.006 272.835 236.02 275.439 237.47C275.26 237.629 275.618 237.307 275.439 237.47Z" fill="white"></path>
<path d="M198.331 253.691C199.306 254.931 200.498 255.859 202.028 256.318L201.991 256.386C201 253.691 194.994 248.358 193 248.5C193 248.5 196.273 251.633 198.326 253.686C200.378 255.739 198.331 253.691 198.331 253.691Z" fill="white"></path>
<path d="M309.2 266.095C309.521 266.305 309.848 266.516 310.17 266.722C310.36 266.564 310.544 266.4 310.734 266.242C310.423 266.026 310.112 265.815 309.796 265.599C309.595 265.762 309.4 265.926 309.2 266.089V266.095Z" fill="white"></path>
<path d="M307.934 264.824C308.213 265.103 308.493 265.388 308.772 265.667L309.099 265.246C308.825 264.971 308.551 264.697 308.277 264.423C308.161 264.555 308.05 264.692 307.934 264.824Z" fill="white"></path>
<path d="M307.749 263.954C307.586 263.78 307.422 263.6 307.259 263.426C307.122 263.537 306.995 263.653 306.874 263.78C307.059 263.948 307.238 264.117 307.422 264.286C307.528 264.17 307.639 264.059 307.749 263.954Z" fill="white"></path>
<path d="M307.422 264.286C307.591 264.465 307.765 264.644 307.934 264.824C308.05 264.692 308.161 264.555 308.277 264.423C308.103 264.265 307.929 264.112 307.755 263.954C307.639 264.059 307.533 264.17 307.428 264.286H307.422Z" fill="white"></path>
<path d="M308.772 265.667C308.915 265.81 309.057 265.952 309.2 266.095C309.4 265.931 309.595 265.768 309.796 265.604C309.564 265.483 309.331 265.367 309.099 265.246C308.989 265.388 308.878 265.53 308.772 265.667Z" fill="white"></path>
<path d="M157.662 167.26C156.829 166.289 156.054 165.256 155.141 164.359C154.25 163.484 153.354 162.514 151.845 163.489C151.313 163.832 150.517 163.479 149.836 163.252C146.134 162.023 142.369 162.239 138.667 163.12C135.809 163.8 134.111 166.078 132.503 168.346C131.901 170.561 132.223 172.712 132.967 174.832C133.156 175.107 133.346 175.386 133.531 175.66L133.547 175.571C138.388 179.895 144.231 180.275 150.285 179.811C156.607 177.48 158.221 174.279 157.667 167.27L157.662 167.26Z" fill="white"></path>
<path d="M124.482 167.26C121.761 160.8 115.211 159.771 110.734 165.103C110.544 165.989 110.354 166.875 110.164 167.766C109.669 170.693 110.159 173.472 111.477 176.114C112.569 178.042 113.238 178.865 115.105 179.32C115.472 179.409 115.717 179.399 116.06 179.462C121.238 179.41 124.387 176.219 124.455 170.941C124.471 169.712 124.476 168.488 124.482 167.26Z" fill="white"></path>
<path d="M150.279 179.8C144.225 180.264 138.382 179.89 133.541 175.56C133.251 176.552 133.721 177.29 134.459 177.812C139.321 181.255 144.653 181.788 150.29 180.264C150.327 180.254 150.29 179.963 150.285 179.8H150.279Z" fill="#1D1D1D"></path>
<path d="M182.5 174.5C182.687 175.107 182.321 175.558 182.613 176.122C182.927 176.727 184 177.182 184 177.182C184 177.182 183.51 167.088 179.818 163.044C179.955 162.891 179.681 163.202 179.818 163.044C180.799 166.134 181.553 172.968 181.553 172.968C181.553 172.968 182.293 173.828 182.5 174.5Z" fill="white"></path>
<path d="M151.73 142.211C151.877 142.248 151.951 142.29 152.025 142.279C152.051 142.279 152.067 142.163 152.088 142.1C151.988 142.132 151.888 142.158 151.73 142.206V142.211Z" fill="#1D1D1D"></path>
<path d="M133.526 175.655C133.336 175.381 133.146 175.101 132.961 174.827C133.151 175.101 133.341 175.381 133.526 175.655Z" fill="#1D1D1D"></path>
<path d="M427.578 256.945C427.673 257.504 427.762 258.063 427.889 258.822C428.332 257.942 428.221 257.288 427.942 256.639C427.82 256.739 427.699 256.84 427.578 256.945Z" fill="white"></path>
<path d="M311.214 91.7652C306.943 89.7244 302.502 88.1846 297.809 87.3672C302.165 88.965 306.521 90.5629 310.871 92.166C310.987 92.0342 311.103 91.9023 311.214 91.7705V91.7652Z" fill="white"></path>
</g>
<defs>
<clipPath id="clip0_68_5217">
<rect width="500" height="500" rx="250" transform="matrix(-1 0 0 1 500 0)" fill="white"></rect>
</clipPath>
</defs>
</svg>