<svg width="500" height="500" viewBox="0 0 500 500" fill="none" xmlns="http://www.w3.org/2000/svg">
<g clip-path="url(#clip0_51_8312)">
<rect width="500" height="500" rx="250" fill="#1D1D1D"></rect>
<g clip-path="url(#clip1_51_8312)">
<path d="M521.952 250C521.952 160.144 521.947 70.2941 522 -19.5616C522 -21.5538 521.554 -22 519.562 -22C339.856 -21.9469 160.144 -21.9469 -19.5616 -22C-21.5538 -22 -22 -21.5538 -22 -19.5616C-21.9469 160.144 -21.9469 339.85 -22 519.562C-22 521.554 -21.5538 522 -19.5616 522C160.144 521.947 339.85 521.947 519.556 522C521.548 522 522 521.554 521.995 519.562C521.936 429.706 521.947 339.856 521.947 250H521.952ZM191.562 332.301L191.547 332.333C191.913 329.385 192.397 326.457 193.178 323.589C192.381 323.334 191.796 323.036 192.072 321.958C192.79 319.174 193.045 316.252 194.708 313.777C194.575 310.212 196.503 307.226 197.534 304.002C198.017 302.493 197.81 302.126 196.317 302.121C193.943 302.121 191.589 301.919 189.214 301.664C177.128 300.389 165.271 298.052 153.7 294.359C141.583 290.492 130.038 285.275 119.02 278.937C117.049 277.806 116.561 278.422 116.237 280.249C115.934 281.965 115.387 283.639 115.163 285.36C114.234 292.659 114.351 299.938 115.105 307.269C116.072 316.629 117.836 325.772 120.795 334.697C124.774 346.698 130.586 357.7 138.501 367.582C139.883 369.308 141.11 371.162 142.725 373.399C139.728 373.123 137.805 371.869 135.824 370.822C120.943 362.938 108.082 352.377 96.0703 340.7C95.2681 339.919 94.4819 338.389 93.4937 338.698C92.3197 339.064 92.4737 340.785 92.2984 341.959C90.2637 355.257 89.7219 368.687 89.2013 382.09C88.7231 394.282 89.0578 406.496 90.1309 418.682C90.9756 428.272 91.6716 437.871 93.3184 447.37C93.9453 450.972 94.5509 454.579 95.1619 458.186C94.0834 458.346 93.7116 457.756 93.2494 457.395C61.4541 432.824 36.4428 402.639 18.4759 366.689C5.97031 341.667 -2.4925 315.354 -6.59375 287.623C-8.0175 278.002 -9.00562 268.365 -9.55812 258.691C-10.1053 249.177 -9.90875 239.641 -9.27125 230.089C-8.83563 223.544 -8.06 217.036 -7.41188 210.533C-6.56719 202.134 -4.81406 193.836 -2.98125 185.581C0.0999985 171.72 4.71125 158.343 9.98656 145.2C20.4628 119.089 35.6619 95.8844 53.8997 74.5813C64.1156 62.6494 75.7075 52.1572 87.8838 42.3078C99.38 33.0109 111.79 25.0528 124.779 17.9978C141.577 8.87625 159.199 1.76812 177.617 -3.31594C184.837 -5.30813 192.11 -7.06125 199.505 -8.41594C206.815 -9.76 214.183 -10.6153 221.504 -11.8212C227.496 -12.8094 233.563 -12.905 239.587 -13.245C252.47 -13.9675 265.353 -13.3141 278.193 -12.1241C280.01 -11.9541 282.04 -12.2463 283.979 -11.1572C267.696 6.41656 253.087 25.0581 240.862 45.5059C241.893 46.9616 243.11 45.5431 244.263 45.6813C257.512 47.2697 270.698 49.1716 283.671 52.3591C306.87 58.0541 329.066 66.2087 350.13 77.6997C369.829 88.4469 388.715 100.31 406.469 114.016C428.521 131.037 448.714 150.093 467.77 170.36C474.118 177.112 480.956 183.153 488.792 188.093C494.795 191.876 500.283 196.344 505.744 200.849C507.338 202.161 508.639 203.489 508.788 205.837C508.968 208.648 509.675 211.421 510.254 214.778C508.703 213.907 507.492 213.296 506.355 212.573C500.612 208.913 494.572 205.864 488.26 203.303C484.473 201.763 480.467 201.353 476.509 200.626C477.194 201.752 476.939 203.42 479.33 203.34C480.78 203.293 482.162 205.109 483.888 205.742C490.502 208.164 496.787 211.251 501.786 216.42C502.168 216.818 502.376 216.813 502.864 216.691C505.361 216.069 510.312 219.039 510.509 221.44C510.785 224.867 511.534 228.267 511.609 231.672C511.922 245.856 512.438 260.078 510.684 274.188C509.659 282.422 508.368 290.641 506.573 298.785C504.362 308.788 502.009 318.765 498.88 328.487C487.57 363.618 468.795 394.527 444.825 422.417C434.466 434.466 422.651 445.022 410.411 455.025C394.606 467.945 377.335 478.597 358.657 487.054C345.859 492.85 332.705 497.541 319.36 501.738C309.835 504.734 300.038 506.716 290.131 508.081C285.254 509.436 280.191 509.638 275.208 510.18C267.287 511.046 259.302 511.173 251.323 511.21C249.108 511.221 248.3 510.817 248.252 508.373C248.034 496.266 248.454 484.196 249.463 472.137C250.531 459.413 253.602 447.12 257.31 434.955C256.8 434.918 256.609 435.263 256.311 435.613C253.623 438.769 250.887 441.882 248.162 445.006C245.421 448.523 242.52 451.87 238.228 454.807C238.865 450.797 239.396 447.46 239.922 444.124L239.906 444.113C239.359 444.023 239.471 444.549 239.285 444.788C238.753 445.473 238.297 446.515 237.271 446.143C236.336 445.803 236.682 444.804 236.623 443.959C236.427 441.271 237.069 438.684 237.33 436.054C237.399 435.337 238.382 434.471 237.457 433.967C236.602 433.499 236.193 434.662 235.635 435.162C235.178 435.571 234.827 436.097 234.408 436.554C230.657 440.65 226.551 444.347 221.876 447.901C221.52 435.98 224.378 424.914 227.459 413.2C222.019 417.599 218.146 422.529 213.386 426.827C213.386 426.216 213.439 425.854 213.376 425.514C213.243 424.787 213.689 423.767 212.828 423.395C211.931 423.012 211.463 424 210.884 424.489C208.35 426.641 205.827 428.808 203.93 431.645C204.69 425.892 206.087 420.361 208.01 414.964C208.786 412.084 209.758 409.242 210.268 406.32C210.64 404.195 211.543 402.076 210.99 399.828C209.545 400.312 208.754 401.486 207.962 402.665C205.603 406.182 203.245 409.699 200.562 413.699C201.938 403.908 205.444 395.43 208.918 386.951C209.327 385.952 209.582 384.975 209.667 383.923C209.742 383.036 209.997 381.925 208.987 381.601C208.09 381.309 207.431 382.217 206.878 382.908C205.582 384.528 204.297 386.165 202.612 388.29C201.97 381.569 202.559 375.46 202.166 369.335C200.663 371.518 199.446 373.776 197.534 376.145C197.417 373.532 197.321 371.422 197.22 369.085C194.654 370.992 193.624 373.702 191.451 376.246C191.711 368.145 192.949 360.766 193.98 353.323C192.922 354.614 192.492 356.181 191.106 357.233C190.325 356.303 190.309 355.193 190.399 354.205C190.617 351.952 191.042 349.716 191.366 347.468C191.462 346.794 191.828 345.593 191.318 345.513C188.853 345.136 190.022 343.463 190.192 342.406C190.505 340.504 191.026 338.607 191.727 336.812C192.184 335.643 192.11 334.798 191.286 333.943C190.946 333.327 190.967 332.774 191.573 332.328L191.562 332.301Z" fill="#ED8120"></path>
<path d="M242.857 41.4953C238.071 41.8512 233.396 40.5815 228.625 40.5337C220.199 40.4487 211.71 40.045 203.396 41.134C187.958 43.1581 172.228 43.854 157.369 49.124C151.174 51.3181 144.842 53.119 138.78 55.7275C128.49 60.1528 118.375 64.8915 109.163 71.3409C104.982 74.2681 100.53 76.85 96.9601 80.5847C101.624 79.469 105.503 76.5525 109.954 74.8472C110.948 77.0625 109.492 77.8062 107.936 78.3587C102.315 80.3562 97.2151 83.3365 92.232 86.5559C90.5426 87.6503 88.8692 88.8456 86.7973 89.1697C81.7876 93.4994 77.3517 98.339 73.5957 103.8C72.751 105.027 71.7098 106.111 70.7588 107.259C69.5954 111.031 68.4426 114.808 67.2473 118.574C67.0985 119.042 66.8063 119.621 66.1157 119.063C63.5763 122.978 63.6454 127.382 64.1501 131.691C64.8407 137.561 67.8476 142.417 71.8373 146.688C72.8467 145.296 73.856 143.904 74.8654 142.512C73.702 140.86 72.7617 139.081 72.0763 137.189C71.0404 134.326 71.3273 133.885 74.3023 133.417C74.8176 133.338 75.3488 133.327 76.1404 133.263C75.5932 131.792 74.8707 130.512 74.6954 129.067C74.6104 128.365 74.2067 127.452 74.8335 127.064C76.7142 125.89 76.236 124.492 75.6782 122.84C75.0567 120.997 76.2413 119.462 77.1285 117.411C78.3292 121.193 80.3798 124.137 82.1117 127.191C83.0732 123.913 88.1201 121.326 90.447 123.101C90.8401 121.438 91.196 119.812 91.6104 118.202C91.8229 117.379 92.2745 116.731 93.2838 116.864C94.357 117.002 94.3517 117.804 94.4207 118.638C94.782 123 94.5854 122.537 98.4157 120.779C102.113 119.084 106.177 117.91 110.852 117.374C109.79 119.01 108.44 119.132 107.468 119.802C106.91 120.184 106.039 120.444 106.177 121.294C106.294 122.017 107.112 121.98 107.686 122.123C109.312 122.527 110.927 122.973 112.648 122.851C113.408 122.798 113.939 122.559 113.934 124.158C113.934 126.192 116.383 127.34 118.157 128.408C119.034 128.939 120.022 129.29 121.058 130.187C119.225 130.74 118.619 131.351 120.388 132.78C121.562 133.731 121.429 135.117 119.66 135.819C116.218 137.179 112.574 136.929 109.243 136.116C107.776 135.76 106.31 133.848 104.509 133.141C101.709 132.036 99.7757 129.476 96.5404 128.891C95.207 128.647 94.8457 126.246 94.4313 124.593C93.1829 125.858 90.5054 125.369 90.3513 127.977C94.0967 129.444 97.3585 131.813 101.12 133.407C106.05 135.495 111.421 137.535 115.379 141.657C116.005 142.311 117.041 142.629 117.934 142.975C122.423 144.701 126.784 146.72 131.109 148.824C132.086 149.068 132.75 147.937 133.229 147.931C136.825 147.921 140.14 146.375 143.673 146.178C144.571 146.13 145.596 145.657 146.324 146.656L146.276 146.635C146.478 146.571 146.68 146.507 146.882 146.438L147.02 146.449C147.578 145.721 147.88 146.183 148.178 146.693C148.778 146.098 149.379 145.503 150.069 144.823C147.631 143.129 144.948 142.327 142.329 141.397C141.819 141.349 141.543 141.062 141.484 140.563C140.724 139.957 140.034 139.229 139.189 138.783C137.404 137.832 134.859 137.577 135.949 134.437C136.103 133.986 135.316 133.678 134.828 133.465C134.472 133.317 134.142 132.812 134.381 132.711C136.23 131.946 134.721 129.911 136.294 128.939C134.822 128.557 133.654 128.429 132.649 127.951C131.04 127.181 129.701 126.139 129.77 123.993C129.834 121.942 131.369 121.985 132.697 121.629C133.314 121.464 134.179 121.597 134.126 120.513C133.085 119.918 131.077 121.167 131.045 120.062C130.997 118.627 130.344 117.379 130.439 115.87C130.838 109.347 136.124 106.01 139.481 101.457C140.91 99.5184 143.211 98.2487 144.831 96.4212C148.651 92.1075 153.623 89.94 159.015 88.6915C163.388 87.6822 167.983 88.0009 172.339 86.7578C175.24 85.929 178.146 85.4509 181.206 85.589C188.904 85.9397 196.569 85.3819 204.182 84.2131C212.039 83.0125 219.886 81.7269 227.881 82.29C229.348 82.3909 230.745 82.2475 231.914 83.6606C234.278 86.5294 237.773 87.3953 241.194 88.2825C242.99 88.75 244.828 89.0634 246.587 89.6319C252.887 91.6665 259.416 93.0053 265.494 95.7306C266.641 96.2459 267.789 96.6497 266.2 98.0256C265.579 98.5622 265.839 99.2262 266.54 99.4919C270.796 101.112 274.568 103.944 279.301 104.395C284.9 104.927 290.441 105.803 295.632 108.172C295.031 109.681 293.066 108.837 292.338 110.329C294.527 111.02 296.572 111.668 299.143 112.481C296.875 113.395 295.1 114.107 293.321 114.818C285.549 117.671 278.749 122.134 271.63 127.462C275.827 127.823 279.041 125.868 283.169 126.708C265.345 133.205 249.726 143.341 231.627 147.565C248.106 148.585 263.762 145.28 278.839 138.714C273.266 144.643 266.184 148.516 259.682 154.078C266.307 154.147 272.044 153.164 277.75 151.607C270.551 156.697 262.375 159.831 254.842 164.225C264.081 165.075 273.202 165.223 282.334 164.209C276.783 166.095 270.897 166.047 264.67 167.715C274.488 169.808 283.429 173.07 293.082 172.151C286.919 174.037 280.597 174.579 274.27 175.078L274.095 175.763C282.032 179.424 289.974 183.079 297.911 186.739C284.316 183.78 270.987 179.572 256.898 179.397C264.384 184.593 272.581 188.338 280.379 192.923C269.175 191.754 258.89 187.207 248.244 184.024C237.539 180.826 226.999 177.107 216.635 172.857C219.264 175.45 221.905 177.872 225.188 179.514C237.072 185.453 249.514 189.666 262.609 191.956C264.309 192.253 266.259 192.269 267.518 193.688C272.501 199.282 277.941 204.658 277.734 212.728C276.523 211.15 276.151 208.738 274.302 207.235L274.313 207.224C273.797 209.79 274.525 212.324 274.525 214.874C274.525 217.355 274.435 219.82 272.793 222.407C272.506 218.981 272.092 216.069 271.332 213.057C270.376 214.152 270.668 215.384 270.413 216.457C268.469 224.644 263.693 231.359 259.098 238.122C252.059 248.486 244.233 258.336 239.011 269.853C238.517 270.942 238.315 272.238 237.231 273.009C235.781 277.206 233.364 280.94 231.489 284.935C227.764 292.877 224.646 301.032 222.388 309.506C220.412 316.911 218.654 324.365 218.499 332.089C218.489 332.498 218.319 332.971 219.164 333.513C223.817 324.609 227.812 315.355 233.826 307.248C231.223 312.842 228.466 318.367 226.378 324.173C222.861 333.964 219.44 343.798 218.361 354.237C218.191 355.862 217.644 358.354 218.994 358.891C220.725 359.581 221.857 357.27 222.845 355.91C226.787 350.47 230.623 344.956 234.485 339.457C238.034 334.405 241.524 329.311 246.172 325.162C246.225 325.124 246.279 325.092 246.326 325.055C246.268 325.082 246.209 325.114 246.151 325.14C246.454 326.915 245.136 327.897 244.345 329.226C240.01 336.514 236.217 344.069 232.891 351.889C228.758 361.611 224.662 371.338 221.219 381.331C218.26 389.921 215.434 398.564 213.123 407.357C212.99 407.867 212.852 408.377 212.688 408.881C212.263 410.172 211.992 411.676 210.005 410.948C208.076 416.345 206.684 421.876 205.925 427.629C207.816 424.797 210.345 422.63 212.879 420.473C213.453 419.984 213.925 418.991 214.823 419.379C215.684 419.751 215.238 420.771 215.37 421.498C215.434 421.838 215.381 422.2 215.381 422.811C220.136 418.513 224.014 413.588 229.454 409.184C226.373 420.898 223.514 431.964 223.87 443.885C228.545 440.331 232.652 436.634 236.403 432.538C236.822 432.081 237.173 431.555 237.63 431.146C238.188 430.647 238.597 429.483 239.452 429.951C240.371 430.455 239.394 431.321 239.324 432.038C239.064 434.668 238.427 437.25 238.618 439.943C238.682 440.788 238.336 441.787 239.266 442.127C240.291 442.499 240.748 441.457 241.279 440.772C241.465 440.533 241.354 440.007 241.901 440.097C242.129 439.067 242.629 438.01 242.544 437.006C242.129 432.177 243.962 427.863 245.375 423.438C245.636 422.63 246.268 421.775 245.822 420.717C239.213 426.009 233.13 431.608 227.111 437.42C229.645 433.776 229.714 429.042 232.817 425.732C233.831 424.654 234.554 423.299 235.393 422.062C235.622 421.727 236.057 421.073 235.499 421.004C232.28 420.59 234.262 418.763 234.703 417.727C237.051 412.207 239.781 406.847 241.699 401.141C241.975 400.318 243.171 399.138 241.789 398.745C240.429 398.357 239.054 396.2 237.348 398.277C236.567 399.228 235.632 400.052 234.761 400.934C234.166 401.539 233.369 402.081 232.668 401.47C231.313 400.296 230.522 400.976 229.624 402.012C229.209 402.49 228.811 403.239 227.764 402.82C229.178 399.717 229.13 395.967 232.562 393.842C233.587 393.204 234.315 391.871 234.479 390.479C231.744 392.843 229.539 395.828 226.086 397.433C246.789 374.339 265.558 349.812 282.138 323.578C282.324 324.471 282.207 325.146 281.963 325.772C279.152 332.992 277.792 340.467 278.015 348.218C278.037 348.946 277.67 349.934 278.749 350.242C279.662 350.502 280.544 350.189 281.176 349.514C281.777 348.877 282.234 348.101 282.744 347.384C286.999 341.428 291.074 335.351 295.648 329.619C302.246 321.347 309.88 314.191 318.348 307.885C319.092 303.678 319.363 299.407 319.889 295.167C321.036 285.849 322.306 276.552 324.255 267.377C327.82 250.595 333.281 234.498 342.982 220.165C347.386 213.657 352.199 207.421 359.833 204.244C360.412 204.005 360.731 203.511 361.087 202.99C365.56 196.472 372.318 192.105 377.216 185.979C377.428 185.714 377.779 185.56 378.066 185.347C387.989 178.042 399.512 175.392 411.444 174.361C423.626 173.309 435.34 175.939 446.778 179.982C457.217 183.674 467.13 188.349 475.848 195.313C476.735 195.744 477.627 196.179 478.514 196.61C482.467 197.332 486.473 197.747 490.266 199.287C496.577 201.848 502.617 204.902 508.36 208.557C509.497 209.285 510.714 209.891 512.259 210.762C511.68 207.405 510.974 204.626 510.793 201.821C510.645 199.473 509.343 198.15 507.749 196.833C502.288 192.328 496.795 187.855 490.797 184.077C482.961 179.142 476.124 173.097 469.775 166.344C450.725 146.077 430.532 127.021 408.474 110C390.72 96.2937 371.834 84.4309 352.135 73.6837C331.071 62.1928 308.876 54.0381 285.676 48.3431C272.703 45.1609 259.512 43.2537 246.268 41.6653L242.857 41.4953ZM111.235 82.8584C113.45 78.8794 118.911 75.6175 122.264 76.1115C119.172 79.1291 115.697 81.3125 111.235 82.8584Z" fill="#FFF1E7"></path>
<path d="M234.424 47.1282C229.546 47.4916 224.781 46.1952 219.919 46.1464C211.331 46.0596 202.679 45.6473 194.205 46.7593C178.47 48.8261 162.438 49.5367 147.294 54.9178C140.98 57.1581 134.526 58.997 128.348 61.6604C117.86 66.179 107.551 71.0176 98.1621 77.6029C93.9009 80.5918 89.3635 83.2281 85.725 87.0415C90.4789 85.9024 94.4315 82.9243 98.9689 81.1831C99.9814 83.4451 98.4978 84.2045 96.9114 84.7687C91.1828 86.8083 85.9849 89.8514 80.906 93.1386C79.1842 94.2561 77.4786 95.4766 75.367 95.8075C70.2611 100.228 65.7399 105.17 61.9119 110.747C61.051 112 59.9897 113.106 59.0205 114.278C57.8347 118.129 56.6598 121.986 55.4415 125.832C55.2899 126.309 54.9921 126.901 54.2882 126.331C51.7001 130.329 51.7705 134.826 52.2849 139.225C52.9887 145.219 56.0534 150.177 60.1197 154.538C61.1484 153.117 62.1772 151.696 63.206 150.275C62.0202 148.588 61.0618 146.77 60.3633 144.839C59.3075 141.916 59.5999 141.465 62.632 140.988C63.1572 140.907 63.6987 140.896 64.5054 140.831C63.9477 139.328 63.2114 138.021 63.0327 136.545C62.9461 135.829 62.5345 134.896 63.1735 134.5C65.0902 133.301 64.6029 131.875 64.0344 130.188C63.4009 128.306 64.6083 126.738 65.5125 124.644C66.7362 128.506 68.8262 131.511 70.5914 134.63C71.5714 131.284 76.7152 128.642 79.0867 130.454C79.4874 128.756 79.8502 127.096 80.2725 125.452C80.4891 124.611 80.9494 123.95 81.9781 124.085C83.0718 124.226 83.0664 125.045 83.1368 125.897C83.505 130.351 83.3047 129.879 87.2085 128.083C90.977 126.353 95.1192 125.154 99.8839 124.606C98.801 126.277 97.4257 126.402 96.4349 127.085C95.8664 127.476 94.9784 127.741 95.1192 128.609C95.2383 129.347 96.0721 129.309 96.6569 129.456C98.3137 129.868 99.9597 130.323 101.714 130.199C102.488 130.144 103.03 129.9 103.024 131.533C103.024 133.611 105.52 134.782 107.329 135.873C108.222 136.415 109.229 136.773 110.285 137.69C108.417 138.254 107.8 138.878 109.603 140.337C110.8 141.308 110.664 142.724 108.861 143.44C105.353 144.829 101.638 144.574 98.2433 143.744C96.7489 143.38 95.2545 141.427 93.419 140.706C90.5655 139.578 88.5947 136.963 85.2972 136.366C83.9382 136.117 83.57 133.665 83.1476 131.978C81.8752 133.269 79.1463 132.77 78.9893 135.433C82.8065 136.93 86.1311 139.35 89.9645 140.977C94.9892 143.109 100.463 145.192 104.497 149.401C105.136 150.069 106.192 150.394 107.102 150.747C111.677 152.51 116.122 154.571 120.53 156.719C121.526 156.968 122.203 155.813 122.69 155.808C126.356 155.797 129.734 154.218 133.335 154.018C134.25 153.969 135.295 153.486 136.037 154.506L135.988 154.484C136.194 154.419 136.399 154.354 136.605 154.283L136.746 154.294C137.315 153.551 137.623 154.023 137.926 154.544C138.538 153.936 139.15 153.329 139.854 152.634C137.369 150.904 134.634 150.085 131.965 149.136C131.445 149.087 131.164 148.794 131.104 148.284C130.33 147.666 129.626 146.922 128.765 146.467C126.946 145.496 124.352 145.235 125.462 142.029C125.619 141.568 124.818 141.254 124.32 141.037C123.957 140.885 123.621 140.37 123.865 140.267C125.749 139.485 124.211 137.408 125.814 136.415C124.314 136.025 123.123 135.894 122.1 135.406C120.459 134.62 119.095 133.556 119.165 131.365C119.23 129.271 120.795 129.315 122.148 128.951C122.777 128.783 123.659 128.919 123.605 127.812C122.544 127.204 120.497 128.479 120.465 127.351C120.416 125.886 119.75 124.611 119.847 123.071C120.253 116.41 125.641 113.003 129.063 108.354C130.519 106.374 132.864 105.078 134.515 103.212C138.408 98.8072 143.476 96.594 148.972 95.3193C153.428 94.2886 158.112 94.6141 162.552 93.3448C165.508 92.4986 168.47 92.0104 171.588 92.1514C179.434 92.5094 187.247 91.9398 195.006 90.7464C203.014 89.5205 211.012 88.2078 219.161 88.7828C220.655 88.8858 222.079 88.7394 223.27 90.1823C225.68 93.1115 229.242 93.9957 232.729 94.9016C234.559 95.379 236.433 95.699 238.225 96.2794C244.647 98.357 251.301 99.724 257.495 102.507C258.665 103.033 259.834 103.445 258.215 104.85C257.582 105.398 257.847 106.076 258.562 106.347C262.899 108.002 266.743 110.893 271.568 111.354C277.275 111.896 282.922 112.792 288.212 115.211C287.6 116.751 285.597 115.889 284.855 117.413C287.086 118.118 289.17 118.78 291.791 119.61C289.479 120.543 287.671 121.27 285.857 121.997C277.935 124.91 271.005 129.466 263.749 134.907C268.027 135.276 271.302 133.28 275.509 134.137C257.344 140.771 241.425 151.121 222.978 155.433C239.774 156.475 255.73 153.101 271.097 146.396C265.417 152.45 258.199 156.404 251.572 162.084C258.324 162.154 264.171 161.151 269.987 159.561C262.65 164.758 254.317 167.958 246.639 172.445C256.055 173.312 265.352 173.464 274.659 172.428C269.001 174.354 263.002 174.305 256.656 176.008C266.662 178.146 275.775 181.476 285.613 180.538C279.332 182.464 272.889 183.017 266.44 183.527L266.261 184.227C274.351 187.964 282.445 191.696 290.535 195.433C276.679 192.412 263.094 188.116 248.735 187.937C256.364 193.242 264.718 197.066 272.667 201.748C261.248 200.554 250.765 195.911 239.914 192.662C229.004 189.396 218.262 185.599 207.698 181.259C210.378 183.906 213.069 186.38 216.415 188.056C228.528 194.121 241.208 198.422 254.555 200.76C256.288 201.064 258.275 201.08 259.558 202.529C264.637 208.241 270.182 213.73 269.97 221.97C268.736 220.359 268.357 217.896 266.473 216.361L266.483 216.35C265.958 218.97 266.7 221.558 266.7 224.162C266.7 226.695 266.608 229.212 264.935 231.853C264.643 228.355 264.22 225.382 263.446 222.306C262.471 223.424 262.769 224.682 262.509 225.778C260.527 234.137 255.66 240.994 250.976 247.899C243.802 258.482 235.826 268.539 230.504 280.299C230 281.411 229.795 282.735 228.69 283.522C227.212 287.807 224.748 291.62 222.837 295.7C219.041 303.809 215.863 312.136 213.562 320.788C211.548 328.35 209.755 335.96 209.598 343.847C209.588 344.265 209.414 344.748 210.275 345.301C215.018 336.21 219.09 326.76 225.219 318.482C222.566 324.194 219.756 329.836 217.628 335.765C214.044 345.762 210.557 355.803 209.458 366.462C209.284 368.122 208.727 370.666 210.102 371.214C211.867 371.919 213.02 369.559 214.028 368.171C218.045 362.616 221.954 356.985 225.891 351.371C229.508 346.212 233.065 341.01 237.803 336.774C237.857 336.736 237.911 336.703 237.96 336.665C237.9 336.692 237.841 336.725 237.781 336.752C238.09 338.564 236.747 339.567 235.94 340.923C231.522 348.366 227.656 356.079 224.266 364.064C220.054 373.991 215.879 383.923 212.371 394.127C209.355 402.898 206.474 411.724 204.119 420.701C203.984 421.222 203.843 421.743 203.675 422.258C203.242 423.576 202.966 425.111 200.941 424.368C198.975 429.879 195.718 438.5 200 438.5C203.975 438.5 201.287 436.297 203.87 434.094C204.455 433.595 204.937 432.581 205.852 432.977C206.729 433.357 206.274 434.398 206.409 435.141C206.474 435.488 206.42 435.857 206.42 436.481C211.266 432.093 215.219 427.064 220.763 422.567C217.623 434.528 214.71 445.827 215.073 458C219.837 454.371 224.023 450.596 227.845 446.413C228.273 445.947 228.631 445.41 229.096 444.992C229.665 444.482 230.082 443.294 230.953 443.772C231.89 444.287 230.894 445.171 230.823 445.903C230.558 448.589 229.908 451.225 230.103 453.975C230.168 454.838 234.5 485.5 234.5 485.5C233.959 486.2 235.545 485.88 234.5 485.5C248.684 496.679 246.442 465.908 247 466C247.233 464.948 249.087 455.846 249 454.821C248.578 449.89 252.56 443.983 254 439.465C264.009 440.843 243.455 427.579 243 426.5C236.264 431.903 235.47 427.74 234.5 426.5C232.625 424.102 221.029 442.844 224.191 439.465C225.225 438.363 225.961 436.98 226.817 435.716C227.049 435.374 227.493 434.707 226.925 434.637C223.644 434.214 225.663 432.348 226.113 431.29C228.506 425.654 231.289 420.181 233.244 414.355C233.525 413.514 234.743 412.31 233.336 411.908C231.95 411.512 230.547 409.31 228.809 411.431C228.013 412.402 227.06 413.243 226.172 414.143C225.566 414.761 224.754 415.315 224.039 414.691C222.658 413.492 221.852 414.186 220.936 415.244C220.514 415.732 220.108 416.497 219.041 416.069C220.482 412.901 220.433 409.071 223.931 406.901C224.976 406.25 225.717 404.889 225.885 403.468C223.097 405.882 220.85 408.93 217.33 410.568C238.431 386.988 257.56 361.943 274.459 335.157C274.649 336.069 274.529 336.757 274.28 337.398C271.416 344.769 270.03 352.402 270.257 360.316C270.279 361.059 269.905 362.068 271.005 362.383C271.936 362.648 272.835 362.328 273.479 361.64C274.091 360.989 274.557 360.197 275.076 359.464C279.413 353.384 283.566 347.178 288.228 341.325C294.953 332.879 302.734 325.572 311.364 319.133C312.122 314.837 312.399 310.476 312.935 306.147C314.104 296.633 315.398 287.14 317.385 277.772C321.019 260.636 326.585 244.2 336.472 229.564C340.96 222.919 345.866 216.551 353.646 213.307C354.237 213.063 354.562 212.559 354.924 212.027C359.483 205.371 366.371 200.912 371.363 194.658C371.579 194.387 371.937 194.229 372.229 194.012C382.343 186.554 394.088 183.847 406.249 182.794C418.664 181.72 430.603 184.406 442.261 188.534C452.9 192.304 463.004 197.077 471.889 204.189C472.793 204.628 473.703 205.073 474.607 205.512C478.635 206.25 482.718 206.673 486.584 208.246C493.016 210.861 499.173 213.98 505.026 217.712C506.184 218.455 507.424 219.073 509 219.963C508.41 216.535 507.69 213.698 507.506 210.834C507.354 208.436 506.027 207.085 504.403 205.74C498.837 201.14 493.238 196.573 487.125 192.716C479.139 187.676 472.17 181.503 465.7 174.609C446.284 153.915 425.703 134.457 403.222 117.077C385.126 103.082 365.878 90.9688 345.801 79.9951C324.332 68.262 301.71 59.9354 278.065 54.1204C264.843 50.8711 251.399 48.9237 237.9 47.3018C236.725 47.1608 235.485 48.6091 234.435 47.1228L234.424 47.1282ZM100.274 89.3632C102.532 85.3003 108.098 81.9696 111.514 82.4741C108.363 85.5552 104.822 87.7847 100.274 89.3632Z" fill="#1D1D1D"></path>
<path d="M284.93 508.548C285.737 500.053 288.542 492.026 290.88 483.909C296.208 465.405 303.114 447.449 310.238 429.578C310.886 427.952 311.232 426.183 312.363 424.775C312.151 418.825 311.938 412.875 311.726 406.925C311.386 397.357 311.041 387.79 311.726 378.222C311.418 373.733 312.879 369.265 312.215 364.813C310.94 356.318 310.121 347.813 310.021 339.223C309.967 334.553 310.589 329.931 310.658 325.277C309.42 324.443 309.128 325.702 308.661 326.271C305.372 330.319 302.456 334.633 299.613 339.005C298.264 341.077 297.047 343.313 294.099 343.25C293.318 343.234 293.052 343.749 292.654 344.211C289.52 347.818 286.794 351.696 284.451 355.877C277.242 368.76 271.951 382.493 266.442 396.125C263.467 403.493 260.439 410.835 257.974 418.4C256.115 424.106 254.075 429.748 252.114 435.421C248.406 447.582 245.336 459.875 244.268 472.604C243.253 484.663 242.839 496.733 243.056 508.84C243.099 511.284 243.912 511.688 246.127 511.677C254.106 511.64 262.091 511.512 270.012 510.646C274.99 510.105 280.053 509.903 284.935 508.548H284.93Z" fill="#1D1D1D"></path>
<path d="M290.109 508.06C290.917 499.565 293.722 491.538 296.059 483.421C301.388 464.917 308.294 446.961 315.418 429.09C316.066 427.464 316.411 425.695 317.543 424.287C317.331 418.337 317.118 412.387 316.906 406.437C316.566 396.869 316.22 387.302 316.906 377.734C316.597 373.245 318.058 368.777 317.394 364.325C316.119 355.83 315.301 347.325 315.2 338.735C315.147 334.065 315.769 329.443 315.838 324.789C314.6 323.955 314.308 325.214 313.84 325.783C310.552 329.831 307.635 334.145 304.793 338.517C303.444 340.589 302.227 342.825 299.279 342.762C298.498 342.746 298.232 343.261 297.834 343.723C294.699 347.33 291.974 351.208 289.631 355.389C282.422 368.272 277.131 382.005 271.622 395.637C268.647 403.005 265.619 410.347 263.154 417.912C261.294 423.618 259.254 429.26 257.294 434.933C253.586 447.094 250.515 459.387 249.447 472.116C248.433 484.175 248.018 496.245 248.236 508.352C248.279 510.796 249.091 511.2 251.307 511.189C259.286 511.152 267.271 511.024 275.192 510.158C280.17 509.617 285.232 509.415 290.115 508.06H290.109Z" fill="#FFF1E7"></path>
<path d="M210.179 405.439C211.101 403.993 212.139 402.618 212.9 401.082C213.36 400.153 213.555 398.885 212.555 398.1C211.689 397.415 211.012 398.058 210.457 398.814C210.002 399.439 209.336 399.695 208.747 399.26C208.003 398.713 208.231 397.814 208.564 397.111C209.48 395.201 210.057 393.123 211.556 391.504C213.882 388.986 214.704 385.498 216.158 382.42C216.28 382.164 216.447 381.741 216.341 381.575C213.732 377.384 217.546 374.556 218.312 371.104C218.64 369.627 219.561 368.3 220 366.728C216.214 372.02 210.54 375.193 206.893 380.616C206.399 381.348 206.16 383.087 204.822 382.491C203.684 381.979 204.134 380.521 204.256 379.533C205.494 369.735 206.127 359.847 207.848 350.114C207.881 349.941 207.781 349.739 207.709 349.394C206.393 349.68 205.833 350.882 205.083 351.799C204.417 352.614 203.868 353.739 202.696 353.507C201.519 353.269 202.424 351.668 201.364 350.894C200.281 352.156 199.243 353.513 198.05 354.692C197.361 355.37 196.618 356.519 195.452 355.787C194.48 355.18 194.713 354.007 194.886 353.073C196.124 346.37 197.411 339.679 198.683 332.988C198.794 332.387 199.737 331.78 198.899 331.208C198.322 330.815 197.6 331.285 197.139 331.75C196.407 332.488 195.785 333.357 195.102 334.161C194.697 334.643 194.475 335.637 193.714 335.327C192.843 334.976 193.07 333.869 193.237 333.226C193.92 330.559 194.758 327.934 195.552 325.297C195.663 324.922 195.924 324.589 195.979 324.208C196.079 323.475 196.518 322.565 195.618 322.106C194.897 321.737 194.453 322.41 193.997 322.904C192.165 324.91 191.2 327.505 189.873 329.857L189.889 329.821C189.889 329.821 187.139 332.03 188 332.988C188.86 333.946 188.977 334.19 188.5 335.5C187.767 337.512 186.822 340.369 186.5 342.5C186.317 343.685 184.924 346.077 187.5 346.5C188.033 346.589 188.6 347.744 188.5 348.5C188.167 351.018 187.228 352.47 187 355C186.9 356.107 186.684 358.458 187.5 359.5C187.892 360 189.895 361.447 191 360C189.917 368.334 189.401 377.08 191 377.5C192.599 377.92 192.819 375.637 195.5 373.5C195.611 376.119 196 377 196.5 377.5C198.081 379.081 198.929 377.947 200.5 375.5C200.911 382.364 199 391 201.425 392.528C203.903 394.089 204.528 389.816 205.883 388C206.46 387.226 206.771 385.673 207.709 386C207.62 387.185 206.31 389.381 205.883 390.5C202.252 400.007 195.579 415.707 197.5 416.5C200.5 417.739 204.428 414.947 206.893 411C207.72 409.678 208.675 405.999 210.179 405.457V405.439Z" fill="#1D1D1D"></path>
<path d="M210.98 399.802C211.862 398.511 212.855 397.284 213.583 395.913C214.024 395.084 214.21 393.953 213.253 393.252C212.425 392.641 211.777 393.214 211.245 393.889C210.81 394.447 210.172 394.675 209.609 394.287C208.897 393.799 209.115 392.997 209.434 392.37C210.31 390.664 210.863 388.81 212.297 387.365C214.523 385.118 215.309 382.005 216.701 379.258C216.818 379.03 216.977 378.653 216.877 378.504C214.38 374.764 218.029 372.241 218.762 369.159C219.076 367.842 219.958 366.657 220.377 365.255C216.754 369.978 211.325 372.809 207.835 377.649C207.362 378.302 207.133 379.853 205.853 379.322C204.764 378.865 205.194 377.564 205.311 376.682C206.496 367.938 207.102 359.113 208.748 350.427C208.78 350.273 208.685 350.093 208.616 349.785C207.357 350.04 206.82 351.113 206.103 351.931C205.465 352.659 204.939 353.663 203.818 353.456C202.692 353.243 203.558 351.814 202.543 351.123C201.507 352.25 200.514 353.461 199.372 354.513C198.713 355.118 198.001 356.144 196.886 355.49C195.956 354.948 196.179 353.902 196.344 353.068C197.528 347.086 198.761 341.115 199.977 335.143C200.084 334.607 200.987 334.065 200.185 333.555C199.632 333.204 198.942 333.624 198.501 334.038C197.799 334.697 197.204 335.473 196.551 336.19C196.163 336.62 195.951 337.508 195.223 337.231C194.389 336.918 194.607 335.93 194.766 335.356C195.419 332.976 196.222 330.633 196.981 328.28C197.087 327.945 197.337 327.648 197.39 327.308C197.486 326.654 197.906 325.841 197.045 325.432C196.354 325.103 195.929 325.703 195.494 326.144C193.741 327.934 192.816 330.251 191.547 332.349L191.562 332.317L191.276 333.932C192.099 334.787 192.173 335.632 191.717 336.801C191.015 338.597 190.489 340.493 190.181 342.395C190.006 343.452 188.842 345.126 191.307 345.503C191.817 345.583 191.451 346.783 191.355 347.458C191.037 349.705 190.606 351.936 190.388 354.194C190.293 355.182 190.314 356.293 191.095 357.222C192.482 356.17 192.912 354.603 193.969 353.312C192.933 360.75 190.389 375.5 192.5 373.5C194.5 371.605 194.644 370.982 197.21 369.074C197.316 371.412 196.981 374.5 198.501 374.5C199.478 374.5 200.652 371.507 202.156 369.324C202.549 375.449 201.764 388.147 202.602 388.279C204 388.5 205.572 384.518 206.868 382.897C207.42 382.207 208.079 381.298 208.977 381.591C209.986 381.92 209.731 383.025 209.657 383.912C209.572 384.969 209.317 385.942 208.908 386.94C205.433 395.424 200.014 413.814 200.551 413.689C203.5 413 205.593 406.177 207.952 402.655C208.743 401.475 209.54 400.301 210.98 399.818V399.802Z" fill="#FFF1E7"></path>
<path d="M240.857 45.4953C234 45 231.396 44.5815 226.625 44.5337C218.199 44.4487 209.71 44.045 201.396 45.134C185.958 47.1581 170.228 47.854 155.369 53.124C149.174 55.3181 142.842 57.119 136.78 59.7275C126.49 64.1528 116.375 68.8915 107.163 75.3409C102.982 78.2681 98.5301 80.85 94.9601 84.5847C99.6245 83.469 103.503 80.5525 107.954 78.8472C108.948 81.0625 107.492 81.8062 105.936 82.3587C100.315 84.3562 95.2151 87.3365 90.232 90.5559C88.5426 91.6503 86.8692 92.8456 84.7973 93.1697C79.7876 97.4994 75.3517 102.339 71.5957 107.8C70.751 109.027 69.7098 110.111 68.7588 111.259C67.5954 115.031 66.4426 118.808 65.2473 122.574C65.0985 123.042 64.8063 123.621 64.1157 123.063C61.5763 126.978 61.6454 131.382 62.1501 135.691C62.8407 141.561 65.8476 146.417 69.8373 150.688C70.8467 149.296 71.856 147.904 72.8654 146.512C71.702 144.86 70.7617 143.081 70.0763 141.189C69.0404 138.326 69.3273 137.885 72.3023 137.417C72.8176 137.338 73.3488 137.327 74.1404 137.263C73.5932 135.792 72.8707 134.512 72.6954 133.067C72.6104 132.365 72.2067 131.452 72.8335 131.064C74.7142 129.89 74.236 128.492 73.6782 126.84C73.0567 124.997 74.2413 123.462 75.1285 121.411C76.3292 125.193 78.3798 128.137 80.1117 131.191C81.0732 127.913 86.1201 125.326 88.447 127.101C88.8401 125.438 89.196 123.812 89.6104 122.202C89.8229 121.379 90.2745 120.731 91.2838 120.864C92.357 121.002 92.3517 121.804 92.4207 122.638C92.782 127 92.5854 126.537 96.4157 124.779C100.113 123.084 104.177 121.91 108.852 121.374C107.79 123.01 106.44 123.132 105.468 123.802C104.91 124.184 104.039 124.444 104.177 125.294C104.294 126.017 105.112 125.98 105.686 126.123C107.312 126.527 108.927 126.973 110.648 126.851C111.408 126.798 111.939 126.559 111.934 128.158C111.934 130.192 114.383 131.34 116.157 132.408C117.034 132.939 118.022 133.29 119.058 134.187C117.225 134.74 116.619 135.351 118.388 136.78C119.562 137.731 119.429 139.117 117.66 139.819C114.218 141.179 110.574 140.929 107.243 140.116C105.776 139.76 104.31 137.848 102.509 137.141C99.7095 136.036 97.7757 133.476 94.5404 132.891C93.207 132.647 92.8457 130.246 92.4313 128.593C91.1829 129.858 88.5054 129.369 88.3513 131.977C92.0967 133.444 95.3585 135.813 99.1198 137.407C104.05 139.495 109.421 141.535 113.379 145.657C114.005 146.311 115.041 146.629 115.934 146.975C120.423 148.701 124.784 150.72 129.109 152.824C130.086 153.068 130.75 151.937 131.229 151.931C134.825 151.921 138.14 150.375 141.673 150.178C142.571 150.13 143.596 149.657 144.324 150.656V150.943C145.02 151 144.68 150.507 144.882 150.438L145.02 150.449C146.178 150.693 144.882 150.438 146.178 150.693C146.778 150.098 148.109 149.861 148.069 148.823C148 147 142.948 146.327 140.329 145.397C139.484 144.563 140.329 145.397 139.484 144.563C138.724 143.957 138.034 143.229 137.189 142.783C135.404 141.832 132.859 141.577 133.949 138.437C134.103 137.986 133.316 137.678 132.828 137.465C132.472 137.317 132.142 136.812 132.381 136.711C134.23 135.946 132.721 133.911 134.294 132.939C132.822 132.557 131.654 132.429 130.649 131.951C129.04 131.181 127.701 130.139 127.77 127.993C127.834 125.942 129.369 125.985 130.697 125.629C131.314 125.464 132.179 125.597 132.126 124.513C131.085 123.918 129.077 125.167 129.045 124.062C128.997 122.627 128.344 121.379 128.439 119.87C128.838 113.347 134.124 110.01 137.481 105.457C138.91 103.518 141.211 102.249 142.831 100.421C146.651 96.1075 151.623 93.94 157.015 92.6915C161.388 91.6822 165.983 92.0009 170.339 90.7578C173.24 89.929 176.146 89.4509 179.206 89.589C186.904 89.9397 194.569 89.3819 202.182 88.2131C210.039 87.0125 217.886 85.7269 225.881 86.29C227.348 86.3909 228.745 86.2475 229.914 87.6606C232.278 90.5294 235.773 91.3953 239.194 92.2825C240.99 92.75 242.828 93.0634 244.587 93.6319C250.887 95.6665 257.416 97.0053 263.494 99.7306C264.641 100.246 265.789 100.65 264.2 102.026C263.579 102.562 263.839 103.226 264.54 103.492C268.796 105.112 272.568 107.944 277.301 108.395C282.9 108.927 288.441 109.803 293.632 112.172C293.031 113.681 291.066 112.837 290.338 114.329C292.527 115.02 294.572 115.668 297.143 116.481C294.875 117.395 293.1 118.107 291.321 118.818C283.549 121.671 276.749 126.134 269.63 131.462C273.827 131.823 277.041 129.868 281.169 130.708C263.345 137.205 247.726 147.341 229.627 151.565C246.106 152.585 261.762 149.28 276.839 142.714C271.266 148.643 264.184 152.516 257.682 158.078C264.307 158.147 270.044 157.164 275.75 155.607C268.551 160.697 260.375 163.831 252.842 168.225C262.081 169.075 271.202 169.223 280.334 168.209C274.783 170.095 268.897 170.047 262.67 171.715C272.488 173.808 281.429 177.07 291.082 176.151C284.919 178.037 278.597 178.579 272.27 179.078L272.095 179.763C280.032 183.424 287.974 187.079 295.911 190.739C282.316 187.78 268.987 183.572 254.898 183.397C262.384 188.593 270.581 192.338 278.379 196.923C267.175 195.754 256.89 191.207 246.244 188.024C235.539 184.826 224.999 181.107 214.635 176.857C217.264 179.45 219.905 181.872 223.188 183.514C235.072 189.453 247.514 193.666 260.609 195.956C262.309 196.253 264.259 196.269 265.518 197.688C270.501 203.282 275.941 208.658 275.734 216.728C274.523 215.15 274.151 212.738 272.302 211.235L272.313 211.224C271.797 213.79 272.525 216.324 272.525 218.874C272.525 221.355 272.435 223.82 270.793 226.407C270.506 222.981 270.092 220.069 269.332 217.057C268.376 218.152 268.668 219.384 268.413 220.457C266.469 228.644 261.693 235.359 257.098 242.122C250.059 252.486 242.233 262.336 237.011 273.853C236.517 274.942 236.315 276.238 235.231 277.009C233.781 281.206 231.364 284.94 229.489 288.935C225.764 296.877 222.646 305.032 220.388 313.506C218.412 320.911 216.654 328.365 216.499 336.089C216.489 336.498 216.319 336.971 217.164 337.513C221.817 328.609 225.812 319.355 231.826 311.248C229.223 316.842 226.466 322.367 224.378 328.173C220.861 337.964 217.44 347.798 216.361 358.237C216.191 359.862 215.644 362.354 216.994 362.891C218.725 363.581 219.857 361.27 220.845 359.91C224.787 354.47 228.623 348.956 232.485 343.457C236.034 338.405 239.524 333.311 244.172 329.162C244.225 329.124 244.279 329.092 244.326 329.055C244.268 329.082 244.209 329.114 244.151 329.14C244.454 330.915 243.136 331.897 242.345 333.226C238.01 340.514 234.217 348.069 230.891 355.889C226.758 365.611 222.662 375.338 219.219 385.331C216.26 393.921 213.434 402.564 211.123 411.357C210.99 411.867 210.852 412.377 210.688 412.881C210.263 414.172 209.992 415.676 208.005 414.948C206.076 420.345 202.575 430.889 204 430.5C207.759 429.473 208.345 426.63 210.879 424.473C211.453 423.984 211.925 422.991 212.823 423.379C213.684 423.751 213.238 424.771 213.37 425.498C213.434 425.838 213.381 426.2 213.381 426.811C218.136 422.513 222.014 417.588 227.454 413.184C224.373 424.898 221.514 435.964 221.87 447.885C226.545 444.331 230.652 440.634 234.403 436.538C234.822 436.081 235.173 435.555 235.63 435.146C236.188 434.647 236.597 433.483 237.452 433.951C238.371 434.455 237.394 435.321 237.324 436.038C237.064 438.668 236.427 441.25 236.618 443.943C236.682 444.788 236.336 445.787 237.266 446.127C238.291 446.499 238.748 445.457 239.279 444.772C239.465 444.533 239.354 444.007 239.901 444.097C240.129 443.067 240.629 442.01 240.544 441.006C240.129 436.177 241.962 431.863 243.375 427.438C243.636 426.63 244.268 425.775 243.822 424.717C237.213 430.009 231.13 435.608 225.111 441.42C227.645 437.776 227.714 433.042 230.817 429.732C231.831 428.654 232.554 427.299 233.393 426.062C233.622 425.727 234.057 425.073 233.499 425.004C230.28 424.59 232.262 422.763 232.703 421.727C235.051 416.207 237.781 410.847 239.699 405.141C239.975 404.318 241.171 403.138 239.789 402.745C238.429 402.357 237.054 400.2 235.348 402.277C234.567 403.228 233.632 404.052 232.761 404.934C232.166 405.539 231.369 406.081 230.668 405.47C229.313 404.296 228.522 404.976 227.624 406.012C227.209 406.49 226.811 407.239 225.764 406.82C227.178 403.717 227.13 399.967 230.562 397.842C231.587 397.204 232.315 395.871 232.479 394.479C229.744 396.843 227.539 399.828 224.086 401.433C244.789 378.339 263.558 353.812 280.138 327.578C280.324 328.471 280.207 329.146 279.963 329.772C277.152 336.992 275.792 344.467 276.015 352.218C276.037 352.946 275.67 353.934 276.749 354.242C277.662 354.502 278.544 354.189 279.176 353.514C279.777 352.877 280.234 352.101 280.744 351.384C284.999 345.428 289.074 339.351 293.648 333.619C300.246 325.347 307.88 318.191 316.348 311.885C317.092 307.678 317.363 303.407 317.889 299.167C319.036 289.849 320.306 280.552 322.255 271.377C325.82 254.595 331.281 238.498 340.982 224.165C345.386 217.657 350.199 211.421 357.833 208.244C358.412 208.005 358.731 207.511 359.087 206.99C363.56 200.472 370.318 196.105 375.216 189.979C375.428 189.714 375.779 189.56 376.066 189.347C385.989 182.042 397.512 179.392 409.444 178.361C421.626 177.309 433.34 179.939 444.778 183.982C455.217 187.674 465.13 192.349 473.848 199.313C474.735 199.744 475.627 200.179 476.514 200.61C480.467 201.332 484.473 201.747 488.266 203.287C494.577 205.848 500.617 208.902 506.36 212.557C507.497 213.285 508.714 213.891 510.259 214.762C509.68 211.405 508.974 208.626 508.793 205.821C508.645 203.473 507.343 202.15 505.749 200.833C500.288 196.328 494.795 191.855 488.797 188.077C480.961 183.142 474.124 177.097 467.775 170.344C448.725 150.077 428.532 131.021 406.474 114C388.72 100.294 369.834 88.4309 350.135 77.6837C329.071 66.1928 306.876 58.0381 283.676 52.3431C270.703 49.1609 257.512 47.2537 244.268 45.6653C243.115 45.5272 245.299 47.1209 244.268 45.6653L240.857 45.4953ZM109.235 86.8584C111.45 82.8794 116.911 79.6175 120.264 80.1115C117.172 83.1291 113.697 85.3125 109.235 86.8584Z" fill="#1D1D1D"></path>
<path d="M193.177 323.589C194.946 320.816 195.775 317.697 196.434 314.526C196.546 313.978 197.04 313.229 196.36 312.847C195.499 312.363 195.403 313.692 194.707 313.777C193.05 316.252 192.79 319.174 192.072 321.958C191.796 323.042 192.381 323.339 193.177 323.589Z" fill="#1D1D1D"></path>
<path d="M235.231 277.003C236.315 276.233 236.517 274.937 237.011 273.848C242.233 262.33 250.058 252.481 257.097 242.116C261.687 235.353 266.469 228.638 268.413 220.452C268.668 219.379 268.381 218.146 269.332 217.052C270.087 220.064 270.506 222.975 270.793 226.402C272.435 223.815 272.525 221.355 272.525 218.869C272.525 216.313 271.802 213.785 272.312 211.219C272.238 211.208 272.164 211.198 272.089 211.187C272.142 211.128 272.196 211.07 272.249 211.012C272.265 211.086 272.281 211.155 272.297 211.229C274.145 212.733 274.522 215.145 275.728 216.723C275.936 208.653 270.496 203.277 265.512 197.683C264.248 196.264 262.304 196.248 260.604 195.951C247.508 193.661 235.067 189.448 223.182 183.509C219.899 181.867 217.259 179.45 214.629 176.852C224.994 181.102 235.534 184.821 246.239 188.019C256.885 191.201 267.175 195.749 278.374 196.918C270.581 192.333 262.378 188.588 254.893 183.392C268.982 183.567 282.311 187.775 295.905 190.734C287.968 187.073 280.026 183.418 272.089 179.758L272.265 179.073C278.592 178.568 284.908 178.032 291.076 176.146C281.423 177.065 272.482 173.803 262.665 171.71C268.891 170.042 274.783 170.089 280.329 168.203C271.197 169.218 262.075 169.069 252.837 168.219C260.37 163.826 268.551 160.692 275.744 155.602C270.044 157.159 264.307 158.142 257.677 158.073C264.179 152.51 271.261 148.638 276.833 142.709C261.757 149.27 246.101 152.579 229.621 151.559C247.721 147.341 263.34 137.2 281.163 130.703C277.035 129.863 273.821 131.818 269.624 131.457C276.743 126.128 283.543 121.666 291.315 118.813C284.483 119.451 278.528 117.002 272.807 113.628C262.107 107.333 251.376 101.096 240.475 95.146C231.698 90.3541 222.534 88.0379 212.51 89.3713C207.803 89.9982 203.107 91.2572 198.437 91.3847C191.377 91.576 184.348 92.4047 177.277 92.2294C176.889 93.94 176.687 95.725 176.071 97.356C174.605 101.234 175.397 105.42 174.339 109.298C173.325 113.038 174.063 116.667 174.398 120.317C174.547 121.958 173.851 123.849 174.929 125.22C176.549 127.281 176.061 129.55 176.061 131.781C176.061 132.599 176.029 133.816 175.126 134.007C174.249 134.193 173.675 133.168 173.224 132.424C172.862 131.829 172.661 131.133 172.331 130.511C171.088 128.174 171.471 125.592 171.125 123.116C170.254 116.858 169.553 110.632 171.715 104.464C171.965 103.747 171.933 102.908 171.922 102.127C171.869 98.6894 172.645 95.5922 175.28 93.1538C175.381 93.0582 175.104 92.5535 175.009 92.2347C171.662 92.8457 168.315 93.4247 164.979 94.0941C163.996 94.2907 162.806 94.2216 162.307 95.4382C161.302 99.7625 161.515 104.193 161.063 108.539C160.654 112.47 161.398 116.157 161.616 119.95C161.775 122.697 163.937 125.395 161.791 128.206C161.627 128.423 161.871 128.551 162.073 128.726C163.438 129.938 163.555 130.304 163.311 131.951C163.252 132.36 163.417 132.891 162.838 133.04C162.19 133.21 161.871 132.732 161.627 132.259C161.345 131.712 161.095 131.143 160.872 130.57C159.14 126.139 157.828 121.655 157.387 116.842C156.76 109.963 156.426 103.168 158.487 96.4635C156.176 96.7344 154.455 98.1157 152.733 99.4969C153.791 100.724 153.567 102.355 153.19 103.497C152.218 106.43 153.35 109.235 153.19 112.088C153.036 114.76 153.057 117.246 153.977 120.019C155.687 125.162 155.873 130.793 158.45 135.749C158.715 136.259 158.71 136.971 158.646 137.566C158.556 138.368 159.098 139.606 157.987 139.84C157.079 140.031 156.495 138.985 156.117 138.204C154.194 134.203 152.643 130.145 151.575 125.741C149.647 117.767 148.26 109.888 149.36 101.702C147.416 102.562 145.53 103.497 144.281 105.33C144.43 105.537 144.685 105.734 144.706 105.957C145.206 111.902 144.945 117.905 147.92 123.509C149.296 126.097 148.68 129.497 149.96 132.318C150.088 132.604 150.077 133.258 149.96 133.3C147.054 134.373 149.429 134.947 150.136 135.76C150.577 136.265 150.895 136.918 150.651 137.662C148.595 137.63 147.676 136.483 147.347 134.618C147.198 133.763 146.884 132.934 146.587 132.11C145.152 128.163 143.389 124.306 142.342 120.258C141.258 116.045 140.823 111.657 141.072 107.258C138.135 110.18 136.137 113.803 133.396 116.964C134.979 117.639 137.109 117.528 137.29 119.116C137.54 121.283 134.995 121.921 133.752 123.541C135.075 123.839 136.355 124.168 137.077 125.395V125.369C137.29 125.709 137.497 126.049 137.71 126.383C137.986 126.054 138.236 125.698 138.538 125.401C139.059 124.896 139.744 124.498 140.361 125.002C140.945 125.48 140.945 126.336 140.467 126.904C139.92 127.552 139.272 127.281 138.687 126.761C138.443 126.543 138.071 126.474 137.757 126.341C138.119 127.621 136.876 127.648 136.291 128.153C135.521 128.817 134.952 129.635 136.227 130.038C139.303 131.011 140.302 133.306 140.616 136.313C136.567 135.399 138.639 138.772 137.752 140.531C140.058 139.776 141.992 140.748 144.01 141.173C145.184 141.471 146.38 141.614 147.58 141.763C148.356 141.859 149.87 141.96 149.668 143.155C149.503 144.154 148.197 143.819 147.352 143.734C146.226 143.623 145.105 143.405 143.984 143.229C142.454 143.58 140.786 143.468 139.468 144.552C139.75 144.828 140.031 145.11 140.313 145.386C142.937 146.316 145.615 147.118 148.053 148.813C147.368 149.493 146.762 150.088 146.162 150.683C145.774 150.603 145.386 150.518 145.004 150.438C145.004 150.438 144.866 150.428 144.86 150.433C144.701 150.63 144.627 151.087 144.26 150.63L144.308 150.651C143.633 150.948 142.517 150.21 142.262 151.235C142.087 151.931 143.012 152.34 143.537 152.776C144.148 153.281 144.823 153.711 145.455 154.189C147.543 155.772 150.221 156.436 152.117 158.381C151.017 159.13 149.557 158.753 148.887 159.592C148.696 160.878 150.731 161.186 149.891 162.179C147.649 164.841 148.877 166.971 150.614 169.064C153.068 172.013 154.726 175.28 155.082 179.174C151.427 169.845 143.665 164.442 135.771 159.039C136.631 158.551 137.651 158.816 138.188 157.871C136.955 157.446 135.696 157.132 134.554 156.585C132.546 155.623 130.097 155.252 129.093 152.818C124.768 150.72 120.407 148.701 115.918 146.969C115.02 146.624 113.989 146.311 113.362 145.652C109.405 141.529 104.034 139.489 99.1037 137.402C95.3425 135.808 92.0806 133.438 88.3353 131.972C85.7906 133.428 85.7215 134.023 88.2715 135.324C93.6584 138.082 98.8912 141.12 104.225 143.963C117.719 151.145 130.777 159.082 142.757 168.724C149.992 174.552 153.158 182.414 155.411 190.92C156.107 193.549 156.819 196.142 158.487 198.591C162.2 193.464 163.337 186.648 169.356 183.456C168.225 184.428 167.146 185.48 166.397 186.84C166.094 187.387 165.659 188.019 166.078 188.556C166.599 189.225 167.237 188.837 167.938 188.529C171.672 186.893 175.508 186.053 179.503 187.637C181.118 188.279 182.76 188.89 184.438 190.835C176.948 188.433 170.546 188.614 165.244 194.84C167.736 195.781 170.063 195.09 172.246 195.063C179.471 194.984 185.166 197.746 189.937 203C199.983 214.072 209.572 225.499 217.7 238.084C223.65 247.296 228.421 257.14 233.143 267.011C234.647 270.156 235.385 273.492 235.199 276.998L235.231 277.003ZM211.686 132.153C211.681 132.158 211.692 132.148 211.686 132.153C211.692 132.148 211.686 132.153 211.681 132.158L211.686 132.153C212.329 131.993 212.935 131.903 213.36 132.62C214.226 132.764 215.097 132.902 215.963 133.051C221.472 133.991 226.822 133.454 231.539 130.384C237.962 126.208 239.247 119.328 240.113 112.412C240.225 111.53 240.103 110.127 238.514 109.229C238.504 111.944 237.048 113.973 236.676 116.444C235.731 122.782 232.522 127.499 226.274 129.879C219.793 132.349 213.854 130.081 207.856 128.057C207.229 127.844 207.165 127.334 207.027 126.824C205.492 121.129 204.743 115.684 206.724 109.654C208.844 103.21 216.797 99.3588 221.95 99.8954C226.046 100.32 230.487 100.942 233.94 104.167C234.928 105.086 236.527 105.877 238.196 106.318C240.193 106.844 242.552 108.22 242.435 110.802C242.297 113.931 241.585 116.98 241.702 120.216C241.819 123.536 239.056 125.783 236.942 128.248C232.086 133.927 223.156 136.828 216.058 134.474C215.065 134.145 213.599 134.145 213.386 132.578C212.749 132.721 212.196 132.519 211.681 132.158L211.686 132.153ZM230.461 98.4929C231.619 98.9657 232.777 99.4385 233.935 99.9166C232.649 99.736 231.109 100.065 230.492 98.4663C229.228 99.0347 228.341 97.951 227.305 97.5579C228.357 97.8713 229.409 98.1794 230.461 98.4929ZM233.441 133.566C239.338 130.049 243.423 124.838 246.834 118.994C244.826 126.022 240.48 130.989 233.887 133.991C228.596 137.975 222.779 139.054 216.558 136.732C211.102 134.698 205.827 131.754 199.818 135.213C203.377 131.494 207.309 132.217 211.336 133.853C214.985 135.335 218.614 136.977 222.678 136.801C226.519 136.631 229.913 134.857 233.436 133.566H233.441ZM220.85 143.777C222.322 143.219 223.544 142.73 224.782 142.289C227.948 141.152 231.204 140.053 233.627 137.673C235.178 136.148 236.852 134.931 238.769 134.097C243.811 131.908 247.227 128.184 249.517 123.297C250.074 122.112 250.653 120.933 251.562 119.042C253.272 124.891 251.105 129.082 247.933 132.971C249.718 133.725 250.967 131.94 252.481 132.955C251.498 136.026 250.648 139.755 248.273 141.487C244.448 144.271 240.087 146.736 235.258 147.607C232.851 148.043 230.083 148.707 227.889 147.182C225.743 145.689 223.151 145.418 220.85 143.782V143.777ZM275.744 175.593C275.755 175.875 275.771 176.156 275.782 176.438C274.698 176.528 273.593 176.523 272.525 176.73C269.221 177.373 265.858 177.006 262.537 177.368C258.978 177.755 255.387 178.658 251.843 178.202C246.361 177.495 240.841 177.33 235.353 176.868C223.4 175.853 212.584 171.354 201.858 166.705C198.198 165.117 194.543 163.311 190.888 161.595C188.938 160.681 187.068 159.624 185.49 157.27C189.055 157.972 191.902 159.071 194.808 160.033C201.715 162.317 207.505 167.189 214.863 168.448C220.122 169.351 225.318 170.589 230.54 171.71C240.677 173.893 251.004 174.589 261.289 175.519C266.07 175.949 270.926 175.593 275.744 175.593ZM258.606 207.702C247.099 206.082 236.134 202.628 225.775 197.258C215.931 192.152 205.8 187.552 196.631 181.24C190.888 177.283 185.342 173.038 179.705 168.931C177.431 167.274 175.057 165.744 172.91 163.943C171.975 163.157 170.302 161.797 171.077 160.787C171.938 159.672 173.298 161.308 174.403 161.844C174.876 162.073 175.285 162.429 175.71 162.742C183.163 168.299 191.052 173.229 198.421 178.913C208.972 187.047 220.356 193.767 232.915 198.4C241.442 201.545 249.803 205.157 258.606 207.702ZM262.915 159.783C258.782 161.887 254.574 162.763 250.568 163.736C245.07 165.074 239.263 165.202 233.547 165.367C222.779 165.675 212.318 164.092 202.235 160.256C200.748 159.688 199.069 159.172 198.421 156.883C219.836 160.803 241.064 163.04 262.909 159.788L262.915 159.783ZM214.895 198.123C195.451 190.75 179.726 177.925 164.532 164.288C168.102 164.517 170.817 166.376 173.542 168.326C187.35 178.223 198.979 191.138 214.9 198.123H214.895ZM179.423 160.474C192.742 165.377 203.856 174.175 216.09 180.98C202.788 176.077 189.799 170.61 179.423 160.474ZM242.594 102.631C241.07 102.801 240.437 101.935 239.688 101.42C237.42 99.8688 235.061 98.3919 232.463 97.6216C222.014 94.535 212.632 96.9947 204.265 103.683C201.757 105.686 200.541 108.565 199.993 111.684C199.675 113.495 199.51 115.333 199.244 117.373C197.327 110.34 199.499 104.926 204.987 100.719C210.092 96.8035 215.803 94.7847 222.327 95.1247C229.77 95.5125 236.347 98.0413 242.6 102.631H242.594ZM167.311 101.505C167.523 103.242 166.721 104.926 167.082 106.621C168.246 112.013 167.805 117.554 168.676 122.973C168.905 124.391 168.968 126.261 166.897 126.341C165.292 126.399 165.361 124.662 165.085 123.536C163.842 118.484 164.538 113.416 165.345 108.422C165.717 106.106 165.829 103.63 167.316 101.51L167.311 101.505ZM186.818 188.269C183.387 187.849 167.035 175.641 166.907 173.319C174.212 177.463 180.528 182.595 186.818 188.269ZM195.802 134.113C194.442 129.146 194.755 124.513 195.127 119.87C194.851 124.503 197.9 128.944 195.802 134.113ZM163.358 167.508C160.224 165.871 157.748 164.564 155.177 162.493C158.646 163.029 161.058 164.426 163.358 167.508ZM189.708 150.067C192.078 150.492 194.707 149.132 196.753 151.559C192.641 152.356 190.293 151.859 189.708 150.067ZM156.325 152.755C154.54 153.668 153.259 154.667 151.666 153.01C151.267 152.595 150.577 152.489 150.847 151.713C151.087 151.039 151.703 151.278 152.176 151.241C153.647 151.124 154.726 152.016 156.325 152.755ZM163.651 150.964C160.893 151.469 158.986 150.64 156.638 150.077C159.369 148.425 161.255 149.578 163.651 150.964ZM177.495 155.204C180.072 154.051 181.469 154.263 183.62 156.24C181.724 155.491 179.551 156.569 177.495 155.204ZM187.583 150.024C186.234 150.964 184.789 150.353 183.466 150.534C183.009 150.598 182.276 150.81 182.25 150.008C182.228 149.318 182.993 148.622 183.402 148.786C184.72 149.323 186.431 148.483 187.589 150.019L187.583 150.024ZM166.817 146.799C166.796 147.038 166.774 147.278 166.753 147.517C165.382 147.517 164.017 147.527 162.647 147.511C162.184 147.506 161.472 147.793 161.435 147.007C161.398 146.3 161.913 145.949 162.631 145.928C164.107 145.891 165.51 146.141 166.817 146.799ZM166.588 156.888C164.968 158.131 163.592 156.914 162.19 156.628C162.073 156.601 161.935 156.165 161.982 155.958C162.073 155.544 162.482 155.438 162.817 155.533C164.054 155.889 165.388 155.974 166.588 156.883V156.888ZM205.577 130.851C207.325 129.417 207.75 129.454 209.598 131.287C208.249 131.138 207.08 131.016 205.577 130.851ZM242.775 105.394C241.404 105.24 240.932 104.299 240.193 103.736C241.16 103.959 241.973 104.406 242.775 105.394ZM243.152 106.079C243.216 105.904 243.274 105.681 243.296 105.686C243.513 105.723 243.731 105.792 243.944 105.856L243.742 106.398C243.545 106.292 243.343 106.185 243.152 106.079Z" fill="#FFF1E7"></path>
<path d="M50.8715 257.411C51.9446 263.393 53.2887 269.306 55.1375 275.102C61.1246 293.855 70.4959 310.748 82.9112 325.99C85.9287 329.693 89.1056 333.236 92.5481 336.551C92.9837 336.971 93.4087 337.693 94.0568 337.279C94.604 336.928 94.4765 336.19 94.2215 335.584C92.8828 332.429 94.2747 328.763 92.1975 325.677C90.2797 322.818 89.4987 319.418 88.4096 316.279C92.054 313.575 94.1153 316.056 96.2031 318.622C97.765 320.539 99.3746 322.425 100.586 324.593C101.128 325.56 101.893 326.24 102.812 326.808C103.502 327.238 104.267 327.733 105.032 327.313C105.867 326.856 105.681 325.825 105.489 325.145C104.99 323.382 105.989 322.856 107.343 322.749C108.836 322.627 108.778 321.99 108.369 320.842C106.244 314.951 104.618 308.868 103.216 302.817C101.032 293.398 99.8793 283.734 101.107 273.986C101.409 271.595 102.419 269.603 104.416 268.179C107.8 265.768 110.51 262.474 114.175 260.46C117.607 258.574 119.408 255.674 120.402 251.833C117.729 254.765 115.232 257.581 112.364 260.025C111.774 260.529 111.291 261.661 110.191 260.838C109.389 260.232 109.006 259.509 109.086 258.378C109.415 253.682 110.01 249.049 111.742 244.634C112.922 241.628 113.235 238.493 113.501 235.3C114.276 226.057 113.809 216.765 114.568 207.527C114.792 204.785 113.384 202.777 112.242 200.658C111.105 198.538 110.956 196.567 111.7 194.314C113.309 189.422 115.812 184.927 117.793 180.204C119.61 175.864 119.052 172.438 115.769 169.038C114.664 167.895 113.548 166.743 112.337 165.717C109.537 163.348 107.907 160.399 106.961 156.835C105.707 152.107 103.125 148.112 98.7903 145.519C96.389 144.085 94.0781 142.459 91.39 141.551C91.1031 143.931 92.0806 146.465 90.099 148.622C83.3787 155.926 78.4806 164.405 74.56 173.458C73.1256 176.773 71.6275 180.088 70.9315 183.673C70.82 184.242 70.4215 185.288 71.0537 185.31C74.5706 185.427 72.1056 187.429 71.8187 188.157C68.8065 195.738 66.5859 203.537 64.9125 211.506C64.4609 213.647 65.0612 215.899 64.105 217.944C63.8765 218.428 63.749 219.283 62.899 219.065C62.2403 218.901 62.389 218.215 62.3625 217.727C62.2987 216.377 62.5643 214.985 62.0862 213.556C60.7475 214.284 60.8006 215.437 60.5243 216.42C58.0115 225.393 57.119 234.615 56.3115 243.848C56.2531 244.533 56.455 245.431 55.6528 245.723C53.8253 246.377 54.0909 247.875 54.0856 249.256C54.0803 251.557 54.1228 253.857 54.1653 256.157C54.1918 257.613 53.6181 258.42 52.4015 257.183C51.4984 256.263 51.3496 257.23 50.8662 257.406L50.8715 257.411Z" fill="#FFF1E7"></path>
<path d="M50.8715 257.411C51.355 257.241 51.5037 256.269 52.4069 257.188C53.6234 258.426 54.1972 257.618 54.1706 256.162C54.1281 253.862 54.0856 251.562 54.0909 249.262C54.0909 247.88 53.8306 246.382 55.6581 245.729C56.4603 245.442 56.2584 244.539 56.3169 243.853C57.119 234.62 58.0169 225.398 60.5297 216.425C60.8059 215.442 60.7528 214.289 62.0915 213.562C62.5643 214.996 62.304 216.382 62.3678 217.732C62.389 218.221 62.2403 218.906 62.9044 219.071C63.7544 219.283 63.8819 218.433 64.1103 217.95C65.0665 215.91 64.4662 213.652 64.9178 211.511C66.5912 203.537 68.8065 195.738 71.824 188.162C72.1162 187.429 74.5759 185.432 71.059 185.315C70.4269 185.294 70.8253 184.242 70.9369 183.679C71.6328 180.093 73.1309 176.778 74.5653 173.463C78.4859 164.41 83.384 155.932 90.1044 148.627C92.0859 146.47 91.1084 143.936 91.3953 141.556C90.1415 139.654 88.1122 139.176 86.1094 138.549C81.4609 137.099 78.2362 139.006 75.6809 142.719C74.7884 144.016 73.8109 145.253 72.8759 146.523C71.8665 147.915 70.8572 149.307 69.8478 150.699C64.2962 159.549 59.9931 168.995 56.3647 178.765C52.8903 188.115 50.744 197.725 49.5806 207.67C48.4703 217.195 48.2578 226.694 48.7572 236.209C49.129 243.296 49.6231 250.404 50.8822 257.416L50.8715 257.411Z" fill="#FFF1E7"></path>
<path d="M127.982 270.644C132.918 271.797 138.533 269.327 140.121 265.374C142.517 259.408 142.698 253.485 139.08 247.811C137.561 245.426 137.46 242.802 138.326 240.193C140.233 234.466 142.942 229.095 146.21 224.048C149.466 219.018 151.788 213.402 155.719 208.791C157.961 206.161 160.128 203.043 163.475 202.209C168.99 200.833 173.904 196.684 180.64 198.814C179.328 197.088 177.973 196.843 176.756 196.726C171.008 196.179 165.659 195.605 160.697 200.53C149.243 211.893 142.326 225.711 136.961 240.549C135.988 243.232 136.312 245.851 137.736 248.449C139.904 252.401 140.886 256.726 139.84 261.167C138.48 266.968 136.004 268.849 127.993 270.655L127.982 270.644Z" fill="#FFF1E7"></path>
<path d="M84.7973 93.175C86.8692 92.851 88.5426 91.6504 90.232 90.5613C95.2151 87.3419 100.315 84.3616 105.936 82.3641C107.492 81.8116 108.943 81.0679 107.954 78.8525C103.503 80.5525 99.6245 83.4744 94.9601 84.59V84.6219C94.9814 84.7229 94.9973 84.8238 95.0132 84.93C94.8804 84.8822 94.7529 84.8344 94.6201 84.7866C91.2573 87.48 87.7298 89.9875 84.792 93.1804L84.7973 93.175Z" fill="#FFF1E7"></path>
<path d="M64.1157 123.068C64.801 123.626 65.0985 123.047 65.2473 122.58C66.4426 118.818 67.5954 115.041 68.7588 111.264C65.9113 114.685 64.1954 118.558 64.1157 123.068Z" fill="#FFF1E7"></path>
<path d="M94.6252 84.7759C94.7581 84.8237 94.8856 84.8715 95.0184 84.9194C95.0024 84.8184 94.9865 84.7175 94.9652 84.6112C94.8112 84.59 94.7049 84.6431 94.6306 84.7759H94.6252Z" fill="#1D1D1D"></path>
<path d="M316.342 311.88C316.178 316.178 316.008 320.481 315.843 324.779C315.779 329.433 315.152 334.054 315.206 338.724C315.307 347.32 316.125 355.825 317.4 364.314C318.069 368.766 315.535 379.006 315.843 383.5C315.843 393.068 315.206 397 316.911 406.427C317.123 412.377 317.336 418.332 317.548 424.277C318.659 426.391 318.297 428.787 318.563 431.008C319.551 439.194 319.976 447.444 321.315 455.599C322.245 461.262 323.1 466.941 324.263 472.588C325.475 465.751 326.357 458.84 327.982 452.103C329.618 445.341 328.455 438.769 327.844 432.107C326.967 422.608 326.107 413.115 325.331 403.606C324.327 391.328 324.534 379.025 324.784 366.726C324.97 357.621 326.117 348.6 327.323 339.585C327.547 337.922 327.626 336.238 327.743 334.564C327.876 332.737 329.13 332.423 330.601 332.45C332.381 332.482 331.903 333.927 331.834 334.803C331.233 342.533 334.352 349.976 333.539 357.722C333.364 359.406 334.702 360.277 336.132 360.649C337.656 361.047 338.389 362.025 338.565 363.427C338.894 366.041 340.504 368.373 340.158 371.141C340.004 372.384 340.955 372.118 341.582 371.885C342.868 371.401 343.808 370.254 344.249 369.159C345.354 366.418 346.262 363.48 346.788 360.649C348.271 352.632 350.661 344.903 353.158 337.194C356.176 327.881 359.464 318.659 362.71 309.187C360.431 308.958 358.152 308.937 355.931 308.841C349.211 308.565 345.094 304.899 342.055 299.305C338.883 293.456 338.48 286.986 337.476 280.637C337.401 280.175 337.401 279.543 338.357 279.251C339.749 282.507 341.54 285.551 343.936 288.25C351.325 296.569 360.479 298.147 370.748 295.374C375.678 294.041 375.545 293.913 375.598 299.045C375.763 316.56 377.16 333.969 380.464 351.198C381.293 355.522 382.148 359.836 383.089 364.654C383.562 363.379 383.216 361.95 385.155 362.885C387.094 363.826 389.31 360.898 388.757 358.465C388.359 356.723 387.323 355.411 385.942 354.412C384.757 353.557 385.092 352.632 385.867 352C388.359 349.971 390.744 347.851 393.002 345.556C394.24 344.297 395.414 344.191 396.094 346.273C396.667 348.032 397.486 349.641 396.922 351.644C396.551 352.978 397.884 354.045 398.208 355.326C399 358.476 399.818 361.626 401.05 364.75C396.508 332.694 398.601 300.421 397.81 267.829C391.243 274.48 383.886 278.427 375.04 278.661C364.352 278.943 355.735 272.44 352.526 262.267C351.968 260.498 351.368 258.739 350.863 256.954C350.714 256.423 350.449 255.637 351.267 255.376C351.952 255.158 352.101 255.897 352.335 256.317C355.432 261.921 360.128 264.976 366.535 265.603C368.607 265.805 370.689 266.288 372.708 267.043C374.562 267.733 376.299 266.485 378.031 266.049C386.616 263.887 392.593 257.985 398.033 251.461C399.159 250.112 397.698 250.191 396.922 250.165C392.641 250 388.444 249.325 384.597 247.397C380.618 245.399 376.549 243.476 373.154 239.646C375.38 239.986 377.144 239.247 379.014 239.747C381.309 240.363 383.376 239.364 385.347 238.435C386.977 237.664 388.518 237.707 390.234 237.925C397.48 238.849 404.514 237.84 411.282 235.13C413.418 234.275 415.139 232.756 416.733 230.461C406.299 229.834 397.496 226.397 390.425 217.997C392.524 218.061 393.692 219.065 395.026 219.469C405.077 222.487 415.006 222.051 424.314 217.418C433.515 212.839 436.485 200.583 432.761 192.147C431.889 190.171 430.742 188.481 429.037 186.563C430.63 186.749 431.496 187.456 432.442 187.977C433.276 188.439 434.137 189.113 434.864 187.822L434.758 187.722L434.838 187.844C436.155 187.828 437.372 188.417 438.185 189.236C440.113 191.175 442.392 190.495 444.586 190.452C445.516 190.436 445.495 189.815 445.022 189.177C444.671 188.704 443.874 188.651 443.795 187.567C447.747 187.86 451.121 189.623 454.558 191.169C458.579 192.976 462.33 195.318 466.771 196.296C468.471 196.668 470.198 197.991 471.68 199.287C472.158 199.707 473.146 201.162 473.837 199.287C465.124 192.327 455.211 187.647 444.767 183.955C433.329 179.912 421.615 177.282 409.433 178.334C397.502 179.365 385.979 182.011 376.055 189.321C375.768 189.528 375.417 189.682 375.205 189.953C370.307 196.078 363.549 200.445 359.076 206.963C358.72 207.484 358.402 207.978 357.822 208.217C350.194 211.394 345.375 217.631 340.971 224.139C331.271 238.472 325.809 254.569 322.245 271.351C320.295 280.526 319.025 289.822 317.878 299.141C317.357 303.375 317.081 307.646 316.337 311.859L316.342 311.88Z" fill="#FFF1E7"></path>
<path d="M109.235 86.8584C113.697 85.3125 117.166 83.129 120.263 80.1115C116.911 79.6175 111.45 82.8793 109.235 86.8584Z" fill="#FFF1E7"></path>
<path d="M275.739 175.593C270.915 175.593 266.065 175.954 261.284 175.519C250.999 174.589 240.671 173.893 230.535 171.71C225.318 170.583 220.117 169.346 214.858 168.448C207.5 167.183 201.709 162.317 194.803 160.033C191.897 159.071 189.05 157.972 185.485 157.27C187.063 159.629 188.933 160.686 190.883 161.595C194.538 163.305 198.198 165.117 201.853 166.705C212.574 171.354 223.395 175.853 235.348 176.868C240.836 177.336 246.356 177.495 251.838 178.202C255.382 178.658 258.973 177.755 262.532 177.368C265.853 177.006 269.215 177.367 272.52 176.73C273.582 176.523 274.687 176.528 275.776 176.438C275.766 176.156 275.75 175.875 275.739 175.593Z" fill="#1D1D1D"></path>
<path d="M258.601 207.702C249.798 205.157 241.442 201.545 232.91 198.4C220.351 193.767 208.966 187.047 198.416 178.913C191.047 173.229 183.158 168.299 175.705 162.742C175.28 162.423 174.871 162.073 174.398 161.844C173.293 161.308 171.933 159.672 171.072 160.787C170.297 161.791 171.97 163.157 172.905 163.943C175.051 165.744 177.426 167.279 179.7 168.931C185.336 173.038 190.882 177.288 196.625 181.24C205.795 187.552 215.92 192.158 225.77 197.258C236.129 202.628 247.094 206.082 258.601 207.702Z" fill="#1D1D1D"></path>
<path d="M262.909 159.783C241.064 163.034 219.836 160.803 198.421 156.877C199.069 159.172 200.748 159.688 202.235 160.251C212.318 164.086 222.779 165.669 233.547 165.361C239.263 165.197 245.07 165.069 250.568 163.73C254.574 162.758 258.782 161.882 262.915 159.778L262.909 159.783Z" fill="#1D1D1D"></path>
<path d="M214.89 198.123C198.974 191.138 187.344 178.223 173.532 168.326C170.812 166.376 168.097 164.511 164.522 164.288C179.716 177.925 195.441 190.755 214.884 198.123H214.89Z" fill="#1D1D1D"></path>
<path d="M177.288 92.2347C176.533 92.2347 175.779 92.2454 175.025 92.2454C175.126 92.5588 175.402 93.0688 175.296 93.1644C172.661 95.5976 171.885 98.7001 171.938 102.137C171.949 102.918 171.981 103.758 171.731 104.475C169.569 110.637 170.27 116.869 171.141 123.127C171.486 125.603 171.104 128.19 172.347 130.522C172.676 131.143 172.873 131.834 173.24 132.434C173.691 133.178 174.265 134.203 175.141 134.018C176.045 133.821 176.076 132.604 176.076 131.792C176.076 129.56 176.56 127.292 174.945 125.231C173.866 123.86 174.568 121.969 174.414 120.327C174.079 116.672 173.335 113.049 174.355 109.309C175.407 105.431 174.621 101.25 176.087 97.3666C176.703 95.741 176.9 93.956 177.293 92.2401L177.288 92.2347Z" fill="#1D1D1D"></path>
<path d="M152.749 99.5075C151.012 99.3056 149.822 99.9431 149.381 101.717C148.281 109.904 149.663 117.782 151.591 125.757C152.659 130.166 154.21 134.219 156.133 138.22C156.511 139.006 157.095 140.052 158.003 139.856C159.108 139.622 158.572 138.384 158.662 137.582C158.726 136.987 158.731 136.27 158.466 135.765C155.889 130.803 155.703 125.177 153.992 120.035C153.068 117.262 153.052 114.776 153.206 112.103C153.371 109.251 152.234 106.446 153.206 103.513C153.583 102.366 153.806 100.735 152.749 99.5128V99.5075Z" fill="#1D1D1D"></path>
<path d="M162.322 95.4488C160.941 95.3957 159.592 95.4541 158.503 96.4794C156.442 103.184 156.771 109.973 157.403 116.858C157.844 121.671 159.162 126.155 160.888 130.586C161.111 131.159 161.361 131.728 161.642 132.275C161.887 132.748 162.206 133.226 162.854 133.056C163.433 132.907 163.263 132.376 163.327 131.967C163.571 130.325 163.454 129.953 162.089 128.742C161.887 128.562 161.642 128.439 161.807 128.222C163.953 125.411 161.791 122.718 161.632 119.966C161.414 116.173 160.67 112.486 161.079 108.555C161.531 104.209 161.318 99.7732 162.322 95.4541V95.4488Z" fill="#1D1D1D"></path>
<path d="M144.308 105.346C142.799 105.256 142.209 106.701 141.099 107.274C140.849 111.673 141.285 116.056 142.369 120.269C143.41 124.317 145.179 128.174 146.613 132.121C146.911 132.939 147.224 133.773 147.373 134.628C147.702 136.493 148.621 137.641 150.677 137.672C150.927 136.929 150.603 136.275 150.162 135.771C149.456 134.963 147.081 134.389 149.987 133.311C150.098 133.268 150.114 132.61 149.987 132.328C148.706 129.507 149.323 126.107 147.947 123.52C144.966 117.921 145.232 111.917 144.733 105.967C144.717 105.75 144.456 105.553 144.308 105.341V105.346Z" fill="#1D1D1D"></path>
<path d="M179.418 160.479C189.794 170.615 202.783 176.082 216.085 180.985C203.85 174.18 192.737 165.383 179.418 160.479Z" fill="#1D1D1D"></path>
<path d="M167.306 101.51C165.818 103.625 165.712 106.106 165.335 108.422C164.527 113.421 163.831 118.489 165.074 123.536C165.351 124.662 165.282 126.399 166.886 126.341C168.958 126.267 168.894 124.391 168.666 122.973C167.8 117.554 168.235 112.013 167.072 106.621C166.705 104.926 167.513 103.242 167.3 101.505L167.306 101.51Z" fill="#1D1D1D"></path>
<path d="M186.813 188.269C180.528 182.595 174.212 177.463 166.902 173.319C167.024 175.646 183.376 187.849 186.813 188.269Z" fill="#1D1D1D"></path>
<path d="M163.353 167.507C161.053 164.426 158.641 163.029 155.172 162.492C157.743 164.564 160.219 165.871 163.353 167.507Z" fill="#1D1D1D"></path>
<path d="M189.703 150.067C190.288 151.855 192.636 152.353 196.748 151.559C194.702 149.132 192.072 150.492 189.703 150.067Z" fill="#1D1D1D"></path>
<path d="M144.031 141.184C143.654 141.864 143.612 142.549 144.01 143.24C145.131 143.415 146.252 143.633 147.378 143.745C148.223 143.83 149.525 144.164 149.695 143.166C149.896 141.97 148.377 141.869 147.607 141.774C146.406 141.625 145.211 141.482 144.037 141.184H144.031Z" fill="#1D1D1D"></path>
<path d="M156.325 152.755C154.731 152.016 153.647 151.118 152.176 151.241C151.697 151.278 151.081 151.039 150.847 151.713C150.577 152.489 151.267 152.595 151.666 153.01C153.259 154.672 154.54 153.668 156.325 152.755Z" fill="#1D1D1D"></path>
<path d="M163.651 150.964C161.255 149.578 159.369 148.425 156.638 150.077C158.986 150.64 160.893 151.469 163.651 150.964Z" fill="#1D1D1D"></path>
<path d="M177.5 155.204C179.556 156.569 181.729 155.491 183.626 156.24C181.479 154.263 180.077 154.051 177.5 155.204Z" fill="#1D1D1D"></path>
<path d="M187.583 150.024C186.425 148.483 184.715 149.328 183.397 148.792C182.993 148.627 182.223 149.318 182.244 150.013C182.271 150.81 183.004 150.598 183.461 150.539C184.789 150.359 186.234 150.97 187.578 150.029L187.583 150.024Z" fill="#1D1D1D"></path>
<path d="M166.822 146.799C165.521 146.135 164.113 145.891 162.636 145.928C161.913 145.944 161.403 146.3 161.441 147.007C161.478 147.798 162.19 147.506 162.652 147.511C164.023 147.532 165.388 147.517 166.758 147.517C166.78 147.277 166.801 147.038 166.822 146.799Z" fill="#1D1D1D"></path>
<path d="M137.736 126.394C137.736 126.394 137.784 126.352 137.784 126.346C138.098 126.479 138.469 126.548 138.714 126.766C139.298 127.287 139.946 127.558 140.494 126.909C140.972 126.341 140.972 125.486 140.387 125.008C139.776 124.503 139.086 124.901 138.565 125.406C138.262 125.703 138.013 126.059 137.736 126.389V126.394Z" fill="#1D1D1D"></path>
<path d="M166.594 156.893C165.393 155.985 164.054 155.9 162.822 155.544C162.487 155.448 162.078 155.554 161.988 155.969C161.945 156.176 162.078 156.612 162.195 156.638C163.598 156.925 164.973 158.142 166.594 156.898V156.893Z" fill="#1D1D1D"></path>
<path d="M272.302 211.229C272.286 211.155 272.27 211.086 272.254 211.012C272.201 211.07 272.148 211.128 272.095 211.187C272.169 211.197 272.243 211.208 272.318 211.219L272.307 211.229H272.302Z" fill="#1D1D1D"></path>
<path d="M211.782 116.954C211.649 116.46 211.771 115.727 211.176 115.604C210.645 115.498 210.602 116.12 210.56 116.555C210.491 117.235 210.618 118.027 209.412 118.239C209.28 117.161 209.147 116.088 209.003 114.898C206.947 118.563 209.142 125.937 213.062 128.2C218.614 131.404 223.99 130.766 229.202 127.133C234.19 123.653 235.832 118.818 235.088 113.054C234.546 108.858 229.138 104.204 225.881 104.815C225.956 105.373 226.418 105.447 226.832 105.58C227.135 105.675 227.432 105.787 227.735 106.185C224.091 104.645 220.824 106.068 216.877 107.12C219.581 108.231 222.136 106.717 224.032 108.502C225.132 107.498 226.014 107.598 226.965 108.82C229.419 111.971 229.393 114.999 227.464 118.521C224.989 123.037 219.395 125.464 214.916 122.983C212.047 121.39 210.528 120.428 211.787 116.964L211.782 116.954Z" fill="#ED8120"></path>
<path d="M211.782 116.954C210.518 120.417 212.042 121.379 214.911 122.973C219.389 125.454 224.983 123.031 227.459 118.51C229.393 114.988 229.419 111.96 226.96 108.81C226.009 107.588 225.127 107.487 224.027 108.491C226.875 110.791 227.305 113.766 226.248 117.033C225.26 120.109 222.864 121.894 219.862 122.075C215.926 122.314 213.397 120.359 211.782 116.948V116.954Z" fill="#FFF1E7"></path>
</g>
<circle cx="250.5" cy="250.5" r="244.5" stroke="#1D1D1D" stroke-width="20"></circle>
</g>
<defs>
<clipPath id="clip0_51_8312">
<rect width="500" height="500" rx="250" fill="white"></rect>
</clipPath>
<clipPath id="clip1_51_8312">
<rect width="544" height="544" fill="white" transform="translate(-22 -22)"></rect>
</clipPath>
</defs>
</svg>