<svg width="500" height="500" viewBox="0 0 500 500" fill="none" xmlns="http://www.w3.org/2000/svg">
<g clip-path="url(#clip0_51_8408)">
<rect width="500" height="500" rx="250" fill="white"></rect>
<g clip-path="url(#clip1_51_8408)">
<path d="M521.952 250C521.952 160.144 521.947 70.2941 522 -19.5616C522 -21.5538 521.554 -22 519.562 -22C339.856 -21.9469 160.144 -21.9469 -19.5616 -22C-21.5538 -22 -22 -21.5538 -22 -19.5616C-21.9469 160.144 -21.9469 339.85 -22 519.562C-22 521.554 -21.5538 522 -19.5616 522C160.144 521.947 339.85 521.947 519.556 522C521.548 522 522 521.554 521.995 519.562C521.936 429.706 521.947 339.856 521.947 250H521.952ZM191.562 332.301L191.547 332.333C191.913 329.385 192.397 326.457 193.178 323.589C192.381 323.334 191.796 323.036 192.072 321.958C192.79 319.174 193.045 316.252 194.708 313.777C194.575 310.212 196.503 307.226 197.534 304.002C198.017 302.493 197.81 302.126 196.317 302.121C193.943 302.121 191.589 301.919 189.214 301.664C177.128 300.389 165.271 298.052 153.7 294.359C141.583 290.492 130.038 285.275 119.02 278.937C117.049 277.806 116.561 278.422 116.237 280.249C115.934 281.965 115.387 283.639 115.163 285.36C114.234 292.659 114.351 299.938 115.105 307.269C116.072 316.629 117.836 325.772 120.795 334.697C124.774 346.698 130.586 357.7 138.501 367.582C139.883 369.308 141.11 371.162 142.725 373.399C139.728 373.123 137.805 371.869 135.824 370.822C120.943 362.938 108.082 352.377 96.0703 340.7C95.2681 339.919 94.4819 338.389 93.4937 338.698C92.3197 339.064 92.4737 340.785 92.2984 341.959C90.2637 355.257 89.7219 368.687 89.2013 382.09C88.7231 394.282 89.0578 406.496 90.1309 418.682C90.9756 428.272 91.6716 437.871 93.3184 447.37C93.9453 450.972 94.5509 454.579 95.1619 458.186C94.0834 458.346 93.7116 457.756 93.2494 457.395C61.4541 432.824 36.4428 402.639 18.4759 366.689C5.97031 341.667 -2.4925 315.354 -6.59375 287.623C-8.0175 278.002 -9.00562 268.365 -9.55812 258.691C-10.1053 249.177 -9.90875 239.641 -9.27125 230.089C-8.83563 223.544 -8.06 217.036 -7.41188 210.533C-6.56719 202.134 -4.81406 193.836 -2.98125 185.581C0.0999985 171.72 4.71125 158.343 9.98656 145.2C20.4628 119.089 35.6619 95.8844 53.8997 74.5813C64.1156 62.6494 75.7075 52.1572 87.8838 42.3078C99.38 33.0109 111.79 25.0528 124.779 17.9978C141.577 8.87625 159.199 1.76812 177.617 -3.31594C184.837 -5.30813 192.11 -7.06125 199.505 -8.41594C206.815 -9.76 214.183 -10.6153 221.504 -11.8212C227.496 -12.8094 233.563 -12.905 239.587 -13.245C252.47 -13.9675 265.353 -13.3141 278.193 -12.1241C280.01 -11.9541 282.04 -12.2463 283.979 -11.1572C267.696 6.41656 253.087 25.0581 240.862 45.5059C241.893 46.9616 243.11 45.5431 244.263 45.6813C257.512 47.2697 270.698 49.1716 283.671 52.3591C306.87 58.0541 329.066 66.2087 350.13 77.6997C369.829 88.4469 388.715 100.31 406.469 114.016C428.521 131.037 448.714 150.093 467.77 170.36C474.118 177.112 480.956 183.153 488.792 188.093C494.795 191.876 500.283 196.344 505.744 200.849C507.338 202.161 508.639 203.489 508.788 205.837C508.968 208.648 509.675 211.421 510.254 214.778C508.703 213.907 507.492 213.296 506.355 212.573C500.612 208.913 494.572 205.864 488.26 203.303C484.473 201.763 480.467 201.353 476.509 200.626C477.194 201.752 476.939 203.42 479.33 203.34C480.78 203.293 482.162 205.109 483.888 205.742C490.502 208.164 496.787 211.251 501.786 216.42C502.168 216.818 502.376 216.813 502.864 216.691C505.361 216.069 510.312 219.039 510.509 221.44C510.785 224.867 511.534 228.267 511.609 231.672C511.922 245.856 512.438 260.078 510.684 274.188C509.659 282.422 508.368 290.641 506.573 298.785C504.362 308.788 502.009 318.765 498.88 328.487C487.57 363.618 468.795 394.527 444.825 422.417C434.466 434.466 422.651 445.022 410.411 455.025C394.606 467.945 377.335 478.597 358.657 487.054C345.859 492.85 332.705 497.541 319.36 501.738C309.835 504.734 300.038 506.716 290.131 508.081C285.254 509.436 280.191 509.638 275.208 510.18C267.287 511.046 259.302 511.173 251.323 511.21C249.108 511.221 248.3 510.817 248.252 508.373C248.034 496.266 248.454 484.196 249.463 472.137C250.531 459.413 253.602 447.12 257.31 434.955C256.8 434.918 256.609 435.263 256.311 435.613C253.623 438.769 250.887 441.882 248.162 445.006C245.421 448.523 242.52 451.87 238.228 454.807C238.865 450.797 239.396 447.46 239.922 444.124L239.906 444.113C239.359 444.023 239.471 444.549 239.285 444.788C238.753 445.473 238.297 446.515 237.271 446.143C236.336 445.803 236.682 444.804 236.623 443.959C236.427 441.271 237.069 438.684 237.33 436.054C237.399 435.337 238.382 434.471 237.457 433.967C236.602 433.499 236.193 434.662 235.635 435.162C235.178 435.571 234.827 436.097 234.408 436.554C230.657 440.65 226.551 444.347 221.876 447.901C221.52 435.98 224.378 424.914 227.459 413.2C222.019 417.599 218.146 422.529 213.386 426.827C213.386 426.216 213.439 425.854 213.376 425.514C213.243 424.787 213.689 423.767 212.828 423.395C211.931 423.012 211.463 424 210.884 424.489C208.35 426.641 205.827 428.808 203.93 431.645C204.69 425.892 206.087 420.361 208.01 414.964C208.786 412.084 209.758 409.242 210.268 406.32C210.64 404.195 211.543 402.076 210.99 399.828C209.545 400.312 208.754 401.486 207.962 402.665C205.603 406.182 203.245 409.699 200.562 413.699C201.938 403.908 205.444 395.43 208.918 386.951C209.327 385.952 209.582 384.975 209.667 383.923C209.742 383.036 209.997 381.925 208.987 381.601C208.09 381.309 207.431 382.217 206.878 382.908C205.582 384.528 204.297 386.165 202.612 388.29C201.97 381.569 202.559 375.46 202.166 369.335C200.663 371.518 199.446 373.776 197.534 376.145C197.417 373.532 197.321 371.422 197.22 369.085C194.654 370.992 193.624 373.702 191.451 376.246C191.711 368.145 192.949 360.766 193.98 353.323C192.922 354.614 192.492 356.181 191.106 357.233C190.325 356.303 190.309 355.193 190.399 354.205C190.617 351.952 191.042 349.716 191.366 347.468C191.462 346.794 191.828 345.593 191.318 345.513C188.853 345.136 190.022 343.463 190.192 342.406C190.505 340.504 191.026 338.607 191.727 336.812C192.184 335.643 192.11 334.798 191.286 333.943C190.946 333.327 190.967 332.774 191.573 332.328L191.562 332.301Z" fill="#1D1D1D"></path>
<path d="M242.857 41.4953C238.071 41.8512 233.396 40.5815 228.625 40.5337C220.199 40.4487 211.71 40.045 203.396 41.134C187.958 43.1581 172.228 43.854 157.369 49.124C151.174 51.3181 144.842 53.119 138.78 55.7275C128.49 60.1528 118.375 64.8915 109.163 71.3409C104.982 74.2681 100.53 76.85 96.9601 80.5847C101.624 79.469 105.503 76.5525 109.954 74.8472C110.948 77.0625 109.492 77.8062 107.936 78.3587C102.315 80.3562 97.2151 83.3365 92.232 86.5559C90.5426 87.6503 88.8692 88.8456 86.7973 89.1697C81.7876 93.4994 77.3517 98.339 73.5957 103.8C72.751 105.027 71.7098 106.111 70.7588 107.259C69.5954 111.031 68.4426 114.808 67.2473 118.574C67.0985 119.042 66.8063 119.621 66.1157 119.063C63.5763 122.978 63.6454 127.382 64.1501 131.691C64.8407 137.561 67.8476 142.417 71.8373 146.688C72.8467 145.296 73.856 143.904 74.8654 142.512C73.702 140.86 72.7617 139.081 72.0763 137.189C71.0404 134.326 71.3273 133.885 74.3023 133.417C74.8176 133.338 75.3488 133.327 76.1404 133.263C75.5932 131.792 74.8707 130.512 74.6954 129.067C74.6104 128.365 74.2067 127.452 74.8335 127.064C76.7142 125.89 76.236 124.492 75.6782 122.84C75.0567 120.997 76.2413 119.462 77.1285 117.411C78.3292 121.193 80.3798 124.137 82.1117 127.191C83.0732 123.913 88.1201 121.326 90.447 123.101C90.8401 121.438 91.196 119.812 91.6104 118.202C91.8229 117.379 92.2745 116.731 93.2838 116.864C94.357 117.002 94.3517 117.804 94.4207 118.638C94.782 123 94.5854 122.537 98.4157 120.779C102.113 119.084 106.177 117.91 110.852 117.374C109.79 119.01 108.44 119.132 107.468 119.802C106.91 120.184 106.039 120.444 106.177 121.294C106.294 122.017 107.112 121.98 107.686 122.123C109.312 122.527 110.927 122.973 112.648 122.851C113.408 122.798 113.939 122.559 113.934 124.158C113.934 126.192 116.383 127.34 118.157 128.408C119.034 128.939 120.022 129.29 121.058 130.187C119.225 130.74 118.619 131.351 120.388 132.78C121.562 133.731 121.429 135.117 119.66 135.819C116.218 137.179 112.574 136.929 109.243 136.116C107.776 135.76 106.31 133.848 104.509 133.141C101.709 132.036 99.7757 129.476 96.5404 128.891C95.207 128.647 94.8457 126.246 94.4313 124.593C93.1829 125.858 90.5054 125.369 90.3513 127.977C94.0967 129.444 97.3585 131.813 101.12 133.407C106.05 135.495 111.421 137.535 115.379 141.657C116.005 142.311 117.041 142.629 117.934 142.975C122.423 144.701 126.784 146.72 131.109 148.824C132.086 149.068 132.75 147.937 133.229 147.931C136.825 147.921 140.14 146.375 143.673 146.178C144.571 146.13 145.596 145.657 146.324 146.656L146.276 146.635C146.478 146.571 146.68 146.507 146.882 146.438L147.02 146.449C147.578 145.721 147.88 146.183 148.178 146.693C148.778 146.098 149.379 145.503 150.069 144.823C147.631 143.129 144.948 142.327 142.329 141.397C141.819 141.349 141.543 141.062 141.484 140.563C140.724 139.957 140.034 139.229 139.189 138.783C137.404 137.832 134.859 137.577 135.949 134.437C136.103 133.986 135.316 133.678 134.828 133.465C134.472 133.317 134.142 132.812 134.381 132.711C136.23 131.946 134.721 129.911 136.294 128.939C134.822 128.557 133.654 128.429 132.649 127.951C131.04 127.181 129.701 126.139 129.77 123.993C129.834 121.942 131.369 121.985 132.697 121.629C133.314 121.464 134.179 121.597 134.126 120.513C133.085 119.918 131.077 121.167 131.045 120.062C130.997 118.627 130.344 117.379 130.439 115.87C130.838 109.347 136.124 106.01 139.481 101.457C140.91 99.5184 143.211 98.2487 144.831 96.4212C148.651 92.1075 153.623 89.94 159.015 88.6915C163.388 87.6822 167.983 88.0009 172.339 86.7578C175.24 85.929 178.146 85.4509 181.206 85.589C188.904 85.9397 196.569 85.3819 204.182 84.2131C212.039 83.0125 219.886 81.7269 227.881 82.29C229.348 82.3909 230.745 82.2475 231.914 83.6606C234.278 86.5294 237.773 87.3953 241.194 88.2825C242.99 88.75 244.828 89.0634 246.587 89.6319C252.887 91.6665 259.416 93.0053 265.494 95.7306C266.641 96.2459 267.789 96.6497 266.2 98.0256C265.579 98.5622 265.839 99.2262 266.54 99.4919C270.796 101.112 274.568 103.944 279.301 104.395C284.9 104.927 290.441 105.803 295.632 108.172C295.031 109.681 293.066 108.837 292.338 110.329C294.527 111.02 296.572 111.668 299.143 112.481C296.875 113.395 295.1 114.107 293.321 114.818C285.549 117.671 278.749 122.134 271.63 127.462C275.827 127.823 279.041 125.868 283.169 126.708C265.345 133.205 249.726 143.341 231.627 147.565C248.106 148.585 263.762 145.28 278.839 138.714C273.266 144.643 266.184 148.516 259.682 154.078C266.307 154.147 272.044 153.164 277.75 151.607C270.551 156.697 262.375 159.831 254.842 164.225C264.081 165.075 273.202 165.223 282.334 164.209C276.783 166.095 270.897 166.047 264.67 167.715C274.488 169.808 283.429 173.07 293.082 172.151C286.919 174.037 280.597 174.579 274.27 175.078L274.095 175.763C282.032 179.424 289.974 183.079 297.911 186.739C284.316 183.78 270.987 179.572 256.898 179.397C264.384 184.593 272.581 188.338 280.379 192.923C269.175 191.754 258.89 187.207 248.244 184.024C237.539 180.826 226.999 177.107 216.635 172.857C219.264 175.45 221.905 177.872 225.188 179.514C237.072 185.453 249.514 189.666 262.609 191.956C264.309 192.253 266.259 192.269 267.518 193.688C272.501 199.282 277.941 204.658 277.734 212.728C276.523 211.15 276.151 208.738 274.302 207.235L274.313 207.224C273.797 209.79 274.525 212.324 274.525 214.874C274.525 217.355 274.435 219.82 272.793 222.407C272.506 218.981 272.092 216.069 271.332 213.057C270.376 214.152 270.668 215.384 270.413 216.457C268.469 224.644 263.693 231.359 259.098 238.122C252.059 248.486 244.233 258.336 239.011 269.853C238.517 270.942 238.315 272.238 237.231 273.009C235.781 277.206 233.364 280.94 231.489 284.935C227.764 292.877 224.646 301.032 222.388 309.506C220.412 316.911 218.654 324.365 218.499 332.089C218.489 332.498 218.319 332.971 219.164 333.513C223.817 324.609 227.812 315.355 233.826 307.248C231.223 312.842 228.466 318.367 226.378 324.173C222.861 333.964 219.44 343.798 218.361 354.237C218.191 355.862 217.644 358.354 218.994 358.891C220.725 359.581 221.857 357.27 222.845 355.91C226.787 350.47 230.623 344.956 234.485 339.457C238.034 334.405 241.524 329.311 246.172 325.162C246.225 325.124 246.279 325.092 246.326 325.055C246.268 325.082 246.209 325.114 246.151 325.14C246.454 326.915 245.136 327.897 244.345 329.226C240.01 336.514 236.217 344.069 232.891 351.889C228.758 361.611 224.662 371.338 221.219 381.331C218.26 389.921 215.434 398.564 213.123 407.357C212.99 407.867 212.852 408.377 212.688 408.881C212.263 410.172 211.992 411.676 210.005 410.948C208.076 416.345 206.684 421.876 205.925 427.629C207.816 424.797 210.345 422.63 212.879 420.473C213.453 419.984 213.925 418.991 214.823 419.379C215.684 419.751 215.238 420.771 215.37 421.498C215.434 421.838 215.381 422.2 215.381 422.811C220.136 418.513 224.014 413.588 229.454 409.184C226.373 420.898 223.514 431.964 223.87 443.885C228.545 440.331 232.652 436.634 236.403 432.538C236.822 432.081 237.173 431.555 237.63 431.146C238.188 430.647 238.597 429.483 239.452 429.951C240.371 430.455 239.394 431.321 239.324 432.038C239.064 434.668 238.427 437.25 238.618 439.943C238.682 440.788 238.336 441.787 239.266 442.127C240.291 442.499 240.748 441.457 241.279 440.772C241.465 440.533 241.354 440.007 241.901 440.097C242.129 439.067 242.629 438.01 242.544 437.006C242.129 432.177 243.962 427.863 245.375 423.438C245.636 422.63 246.268 421.775 245.822 420.717C239.213 426.009 233.13 431.608 227.111 437.42C229.645 433.776 229.714 429.042 232.817 425.732C233.831 424.654 234.554 423.299 235.393 422.062C235.622 421.727 236.057 421.073 235.499 421.004C232.28 420.59 234.262 418.763 234.703 417.727C237.051 412.207 239.781 406.847 241.699 401.141C241.975 400.318 243.171 399.138 241.789 398.745C240.429 398.357 239.054 396.2 237.348 398.277C236.567 399.228 235.632 400.052 234.761 400.934C234.166 401.539 233.369 402.081 232.668 401.47C231.313 400.296 230.522 400.976 229.624 402.012C229.209 402.49 228.811 403.239 227.764 402.82C229.178 399.717 229.13 395.967 232.562 393.842C233.587 393.204 234.315 391.871 234.479 390.479C231.744 392.843 229.539 395.828 226.086 397.433C246.789 374.339 265.558 349.812 282.138 323.578C282.324 324.471 282.207 325.146 281.963 325.772C279.152 332.992 277.792 340.467 278.015 348.218C278.037 348.946 277.67 349.934 278.749 350.242C279.662 350.502 280.544 350.189 281.176 349.514C281.777 348.877 282.234 348.101 282.744 347.384C286.999 341.428 291.074 335.351 295.648 329.619C302.246 321.347 309.88 314.191 318.348 307.885C319.092 303.678 319.363 299.407 319.889 295.167C321.036 285.849 322.306 276.552 324.255 267.377C327.82 250.595 333.281 234.498 342.982 220.165C347.386 213.657 352.199 207.421 359.833 204.244C360.412 204.005 360.731 203.511 361.087 202.99C365.56 196.472 372.318 192.105 377.216 185.979C377.428 185.714 377.779 185.56 378.066 185.347C387.989 178.042 399.512 175.392 411.444 174.361C423.626 173.309 435.34 175.939 446.778 179.982C457.217 183.674 467.13 188.349 475.848 195.313C476.735 195.744 477.627 196.179 478.514 196.61C482.467 197.332 486.473 197.747 490.266 199.287C496.577 201.848 502.617 204.902 508.36 208.557C509.497 209.285 510.714 209.891 512.259 210.762C511.68 207.405 510.974 204.626 510.793 201.821C510.645 199.473 509.343 198.15 507.749 196.833C502.288 192.328 496.795 187.855 490.797 184.077C482.961 179.142 476.124 173.097 469.775 166.344C450.725 146.077 430.532 127.021 408.474 110C390.72 96.2937 371.834 84.4309 352.135 73.6837C331.071 62.1928 308.876 54.0381 285.676 48.3431C272.703 45.1609 259.512 43.2537 246.268 41.6653L242.857 41.4953ZM111.235 82.8584C113.45 78.8794 118.911 75.6175 122.264 76.1115C119.172 79.1291 115.697 81.3125 111.235 82.8584Z" fill="#1D1D1D"></path>
<path d="M284.93 508.548C285.737 500.053 288.542 492.026 290.88 483.909C296.208 465.405 303.114 447.449 310.238 429.578C310.886 427.952 311.232 426.183 312.363 424.775C312.151 418.825 311.938 412.875 311.726 406.925C311.386 397.357 311.041 387.79 311.726 378.222C311.418 373.733 312.879 369.265 312.215 364.813C310.94 356.318 310.121 347.813 310.021 339.223C309.967 334.553 310.589 329.931 310.658 325.277C309.42 324.443 309.128 325.702 308.661 326.271C305.372 330.319 302.456 334.633 299.613 339.005C298.264 341.077 297.047 343.313 294.099 343.25C293.318 343.234 293.052 343.749 292.654 344.211C289.52 347.818 286.794 351.696 284.451 355.877C277.242 368.76 271.951 382.493 266.442 396.125C263.467 403.493 260.439 410.835 257.974 418.4C256.115 424.106 254.075 429.748 252.114 435.421C248.406 447.582 245.336 459.875 244.268 472.604C243.253 484.663 242.839 496.733 243.056 508.84C243.099 511.284 243.912 511.688 246.127 511.677C254.106 511.64 262.091 511.512 270.012 510.646C274.99 510.105 280.053 509.903 284.935 508.548H284.93Z" fill="white"></path>
<path d="M290.109 508.06C290.917 499.565 293.722 491.538 296.059 483.421C301.388 464.917 308.294 446.961 315.418 429.09C316.066 427.464 316.411 425.695 317.543 424.287C317.331 418.337 317.118 412.387 316.906 406.437C316.566 396.869 316.22 387.302 316.906 377.734C316.597 373.245 318.058 368.777 317.394 364.325C316.119 355.83 315.301 347.325 315.2 338.735C315.147 334.065 315.769 329.443 315.838 324.789C314.6 323.955 314.308 325.214 313.84 325.783C310.552 329.831 307.635 334.145 304.793 338.517C303.444 340.589 302.227 342.825 299.279 342.762C298.498 342.746 298.232 343.261 297.834 343.723C294.699 347.33 291.974 351.208 289.631 355.389C282.422 368.272 277.131 382.005 271.622 395.637C268.647 403.005 265.619 410.347 263.154 417.912C261.294 423.618 259.254 429.26 257.294 434.933C253.586 447.094 250.515 459.387 249.447 472.116C248.433 484.175 248.018 496.245 248.236 508.352C248.279 510.796 249.091 511.2 251.307 511.189C259.286 511.152 267.271 511.024 275.192 510.158C280.17 509.617 285.232 509.415 290.115 508.06H290.109Z" fill="#1D1D1D"></path>
<path d="M210.179 405.439C211.101 403.993 212.139 402.618 212.9 401.082C213.36 400.153 213.555 398.885 212.555 398.1C211.689 397.415 211.012 398.058 210.457 398.814C210.002 399.439 209.336 399.695 208.747 399.26C208.003 398.713 208.231 397.814 208.564 397.111C209.48 395.201 210.057 393.123 211.556 391.504C213.882 388.986 214.704 385.498 216.158 382.42C216.28 382.164 216.447 381.741 216.341 381.575C213.732 377.384 217.546 374.556 218.312 371.104C218.64 369.627 219.561 368.3 220 366.728C216.214 372.02 210.54 375.193 206.893 380.616C206.399 381.348 206.16 383.087 204.822 382.491C203.684 381.979 204.134 380.521 204.256 379.533C205.494 369.735 206.127 359.847 207.848 350.114C207.881 349.941 207.781 349.739 207.709 349.394C206.393 349.68 205.833 350.882 205.083 351.799C204.417 352.614 203.868 353.739 202.696 353.507C201.519 353.269 202.424 351.668 201.364 350.894C200.281 352.156 199.243 353.513 198.05 354.692C197.361 355.37 196.618 356.519 195.452 355.787C194.48 355.18 194.713 354.007 194.886 353.073C196.124 346.37 197.411 339.679 198.683 332.988C198.794 332.387 199.737 331.78 198.899 331.208C198.322 330.815 197.6 331.285 197.139 331.75C196.407 332.488 195.785 333.357 195.102 334.161C194.697 334.643 194.475 335.637 193.714 335.327C192.843 334.976 193.07 333.869 193.237 333.226C193.92 330.559 194.758 327.934 195.552 325.297C195.663 324.922 195.924 324.589 195.979 324.208C196.079 323.475 196.518 322.565 195.618 322.106C194.897 321.737 194.453 322.41 193.997 322.904C192.165 324.91 191.2 327.505 189.873 329.857L189.889 329.821C189.889 329.821 187.139 332.03 188 332.988C188.86 333.946 188.977 334.19 188.5 335.5C187.767 337.512 186.822 340.369 186.5 342.5C186.317 343.685 184.924 346.077 187.5 346.5C188.033 346.589 188.6 347.744 188.5 348.5C188.167 351.018 187.228 352.47 187 355C186.9 356.107 186.684 358.458 187.5 359.5C187.892 360 189.895 361.447 191 360C189.917 368.334 189.401 377.08 191 377.5C192.599 377.92 192.819 375.637 195.5 373.5C195.611 376.119 196 377 196.5 377.5C198.081 379.081 198.929 377.947 200.5 375.5C200.911 382.364 199 391 201.425 392.528C203.903 394.089 204.528 389.816 205.883 388C206.46 387.226 206.771 385.673 207.709 386C207.62 387.185 206.31 389.381 205.883 390.5C202.252 400.007 195.579 415.707 197.5 416.5C200.5 417.739 204.428 414.947 206.893 411C207.72 409.678 208.675 405.999 210.179 405.457V405.439Z" fill="white"></path>
<path d="M210.98 399.802C211.862 398.511 212.855 397.284 213.583 395.913C214.024 395.084 214.21 393.953 213.253 393.252C212.425 392.641 211.777 393.214 211.245 393.889C210.81 394.447 210.172 394.675 209.609 394.287C208.897 393.799 209.115 392.997 209.434 392.37C210.31 390.664 210.863 388.81 212.297 387.365C214.523 385.118 215.309 382.005 216.701 379.258C216.818 379.03 216.977 378.653 216.877 378.504C214.38 374.764 218.029 372.241 218.762 369.159C219.076 367.842 219.958 366.657 220.377 365.255C216.754 369.978 211.325 372.809 207.835 377.649C207.362 378.302 207.133 379.853 205.853 379.322C204.764 378.865 205.194 377.564 205.311 376.682C206.496 367.938 207.102 359.113 208.748 350.427C208.78 350.273 208.685 350.093 208.616 349.785C207.357 350.04 206.82 351.113 206.103 351.931C205.465 352.659 204.939 353.663 203.818 353.456C202.692 353.243 203.558 351.814 202.543 351.123C201.507 352.25 200.514 353.461 199.372 354.513C198.713 355.118 198.001 356.144 196.886 355.49C195.956 354.948 196.179 353.902 196.344 353.068C197.528 347.086 198.761 341.115 199.977 335.143C200.084 334.607 200.987 334.065 200.185 333.555C199.632 333.204 198.942 333.624 198.501 334.038C197.799 334.697 197.204 335.473 196.551 336.19C196.163 336.62 195.951 337.508 195.223 337.231C194.389 336.918 194.607 335.93 194.766 335.356C195.419 332.976 196.222 330.633 196.981 328.28C197.087 327.945 197.337 327.648 197.39 327.308C197.486 326.654 197.906 325.841 197.045 325.432C196.354 325.103 195.929 325.703 195.494 326.144C193.741 327.934 192.816 330.251 191.547 332.349L191.562 332.317L191.276 333.932C192.099 334.787 192.173 335.632 191.717 336.801C191.015 338.597 190.489 340.493 190.181 342.395C190.006 343.452 188.842 345.126 191.307 345.503C191.817 345.583 191.451 346.783 191.355 347.458C191.037 349.705 190.606 351.936 190.388 354.194C190.293 355.182 190.314 356.293 191.095 357.222C192.482 356.17 192.912 354.603 193.969 353.312C192.933 360.75 190.389 375.5 192.5 373.5C194.5 371.605 194.644 370.982 197.21 369.074C197.316 371.412 196.981 374.5 198.501 374.5C199.478 374.5 200.652 371.507 202.156 369.324C202.549 375.449 201.764 388.147 202.602 388.279C204 388.5 205.572 384.518 206.868 382.897C207.42 382.207 208.079 381.298 208.977 381.591C209.986 381.92 209.731 383.025 209.657 383.912C209.572 384.969 209.317 385.942 208.908 386.94C205.433 395.424 200.014 413.814 200.551 413.689C203.5 413 205.593 406.177 207.952 402.655C208.743 401.475 209.54 400.301 210.98 399.818V399.802Z" fill="#1D1D1D"></path>
<path fill-rule="evenodd" clip-rule="evenodd" d="M235.162 44.6333C236.775 44.7735 238.629 44.9347 240.987 45.1049L244.397 45.2749C257.641 46.8634 270.832 48.7705 283.805 51.9527C307.005 57.6477 329.201 65.8024 350.265 77.2934C369.964 88.0405 388.849 99.9033 406.604 113.61C428.661 130.631 448.854 149.687 467.905 169.954C474.253 176.706 481.09 182.752 488.926 187.687C494.924 191.464 500.417 195.937 505.879 200.442C507.472 201.76 508.774 203.083 508.923 205.431C509.047 207.362 509.421 209.281 509.83 211.385C510.016 212.336 510.209 213.326 510.389 214.372C509.859 214.073 509.368 213.806 508.906 213.554C508.019 213.071 507.237 212.646 506.49 212.167C500.747 208.512 494.706 205.457 488.395 202.897C485.415 201.686 482.304 201.171 479.191 200.656C478.341 200.515 477.491 200.374 476.644 200.219C476.2 200.004 475.755 199.788 475.31 199.571C474.866 199.355 474.421 199.138 473.977 198.923C465.259 191.958 455.346 187.283 444.907 183.591C433.469 179.548 421.755 176.919 409.574 177.971C397.642 179.001 386.119 181.652 376.195 188.957C376.1 189.027 375.998 189.091 375.896 189.155C375.691 189.284 375.487 189.411 375.345 189.589C373.145 192.341 370.569 194.737 367.994 197.134C364.837 200.072 361.68 203.009 359.216 206.6L359.172 206.665C358.833 207.161 358.517 207.624 357.963 207.853C350.329 211.03 345.515 217.267 341.111 223.775C331.411 238.108 325.949 254.205 322.385 270.987C320.435 280.162 319.165 289.459 318.018 298.777C317.834 300.261 317.681 301.75 317.528 303.238C317.244 306 316.961 308.761 316.477 311.495C308.009 317.801 300.375 324.957 293.777 333.228C290.412 337.446 287.316 341.85 284.221 346.256C283.109 347.838 281.997 349.42 280.873 350.993C280.73 351.195 280.59 351.401 280.451 351.608C280.095 352.136 279.737 352.665 279.306 353.124C278.674 353.798 277.792 354.112 276.878 353.851C276.025 353.608 276.076 352.938 276.124 352.309C276.137 352.143 276.149 351.979 276.145 351.827C275.922 344.076 277.282 336.602 280.092 329.382C280.336 328.755 280.453 328.081 280.267 327.188C263.687 353.421 244.918 377.949 224.215 401.042C226.616 399.927 228.413 398.144 230.205 396.367C230.99 395.587 231.775 394.809 232.609 394.088C232.444 395.48 231.716 396.814 230.691 397.451C228.27 398.951 227.58 401.259 226.888 403.579C226.599 404.546 226.31 405.516 225.894 406.429C226.806 406.795 227.226 406.273 227.593 405.816C227.647 405.749 227.7 405.683 227.753 405.622C228.651 404.586 229.443 403.906 230.797 405.08C231.499 405.691 232.295 405.149 232.89 404.543C233.154 404.276 233.424 404.015 233.693 403.753C234.314 403.151 234.933 402.55 235.478 401.887C236.7 400.398 237.753 401.085 238.752 401.736C239.147 401.993 239.534 402.245 239.919 402.355C240.952 402.649 240.544 403.382 240.157 404.078C240.026 404.313 239.898 404.543 239.829 404.751C238.523 408.634 236.841 412.358 235.16 416.081C234.371 417.827 233.582 419.574 232.832 421.336C232.746 421.538 232.601 421.771 232.448 422.017C231.816 423.032 231.038 424.28 233.629 424.614C234.187 424.683 233.751 425.336 233.523 425.671C233.279 426.03 233.045 426.399 232.812 426.768C232.239 427.672 231.666 428.577 230.946 429.342C229.228 431.175 228.44 433.444 227.649 435.723C227.011 437.56 226.371 439.403 225.24 441.03C231.259 435.218 237.342 429.618 243.951 424.327C244.294 425.139 244 425.832 243.728 426.475C243.646 426.67 243.565 426.86 243.505 427.047C243.28 427.75 243.045 428.45 242.81 429.15C241.566 432.856 240.325 436.553 240.673 440.615C240.731 441.302 240.516 442.013 240.301 442.724C240.202 443.052 240.103 443.381 240.03 443.707C239.654 443.645 239.589 443.874 239.525 444.101C239.496 444.204 239.467 444.307 239.409 444.382C239.318 444.5 239.228 444.628 239.138 444.758C238.704 445.383 238.245 446.044 237.395 445.736C236.693 445.479 236.718 444.846 236.745 444.187C236.754 443.974 236.763 443.759 236.747 443.553C236.616 441.701 236.876 439.902 237.136 438.105C237.254 437.287 237.373 436.47 237.454 435.648C237.476 435.414 237.596 435.163 237.715 434.915C237.959 434.403 238.2 433.9 237.581 433.56C236.965 433.223 236.58 433.734 236.205 434.232C236.059 434.425 235.915 434.616 235.759 434.756C235.478 435.008 235.236 435.304 234.994 435.602C234.844 435.787 234.693 435.972 234.532 436.147C230.781 440.243 226.675 443.941 222 447.495C221.644 435.574 224.502 424.508 227.583 412.794C224.416 415.358 221.778 418.099 219.188 420.79C217.33 422.72 215.497 424.625 213.51 426.42C213.51 426.208 213.517 426.025 213.523 425.864C213.533 425.561 213.541 425.33 213.5 425.108C213.459 424.885 213.473 424.634 213.487 424.382C213.518 423.815 213.549 423.246 212.953 422.988C212.279 422.697 211.844 423.184 211.427 423.652C211.288 423.807 211.151 423.961 211.008 424.083C210.118 424.841 209.468 425.683 208.837 426.502C207.671 428.013 206.568 429.443 204.129 430.11C202.705 430.499 206.206 419.955 208.134 414.557C209.955 415.224 210.335 414.018 210.712 412.818C210.747 412.709 210.781 412.599 210.817 412.491C210.982 411.986 211.12 411.476 211.253 410.966C213.564 402.174 216.39 393.531 219.349 384.94C222.791 374.947 226.887 365.22 231.02 355.498C231.495 354.382 231.97 353.254 232.447 352.119C235.314 345.305 238.284 338.248 242 332C242.307 331.485 242.676 331.144 243.03 330.818C243.581 330.309 244.093 329.836 244.273 328.797C239.853 332.75 236.481 337.557 233.106 342.366C232.942 342.6 232.778 342.834 232.614 343.067C231.871 344.125 231.129 345.183 230.388 346.241C227.273 350.684 224.158 355.126 220.974 359.52C220.817 359.736 220.657 359.976 220.491 360.224C219.612 361.539 218.58 363.081 217.123 362.5C215.962 362.038 216.205 360.129 216.404 358.569C216.436 358.316 216.467 358.073 216.491 357.846C217.569 347.407 220.99 337.574 224.507 327.783C226.201 323.073 228.335 318.547 230.47 314.02C230.967 312.967 231.464 311.913 231.955 310.857C227.936 316.276 225.135 322.375 222.329 328.483C220.937 331.514 219.543 334.547 218 337.5C217.155 336.958 216.618 336.108 216.629 335.699C216.783 327.974 218.541 320.521 220.518 313.115C222.775 304.642 225.894 296.487 229.618 288.545C230.292 287.109 231.036 285.707 231.78 284.305C233.106 281.806 234.432 279.307 235.361 276.618C236.168 276.045 236.486 275.179 236.8 274.325C236.907 274.032 237.014 273.741 237.14 273.463C241.145 264.632 246.679 256.781 252.216 248.927C253.901 246.538 255.585 244.149 257.227 241.731C257.469 241.375 257.712 241.019 257.954 240.663C262.318 234.257 266.701 227.822 268.543 220.067C268.621 219.737 268.648 219.391 268.675 219.04C268.736 218.248 268.8 217.424 269.462 216.667C270.221 219.679 270.636 222.59 270.923 226.017C272.564 223.43 272.655 220.965 272.655 218.484C272.655 217.542 272.555 216.603 272.456 215.664C272.287 214.064 272.118 212.463 272.439 210.85C273.557 211.763 274.134 213.009 274.685 214.2C275.042 214.971 275.388 215.718 275.863 216.337C276.055 208.872 271.413 203.711 266.771 198.551C266.396 198.133 266.02 197.716 265.647 197.297C264.608 196.126 263.098 195.911 261.646 195.704C261.339 195.661 261.035 195.617 260.739 195.566C247.643 193.276 235.201 189.063 223.317 183.124C220.034 181.482 217.394 179.06 214.764 176.467C225.129 180.717 235.669 184.436 246.374 187.634C249.432 188.548 252.462 189.575 255.491 190.603C263.006 193.15 270.524 195.699 278.509 196.532C275.662 194.859 272.763 193.298 269.864 191.736C264.821 189.021 259.781 186.306 255.028 183.007C265.771 183.14 276.073 185.619 286.388 188.101C289.599 188.873 292.812 189.646 296.04 190.349C292.072 188.519 288.102 186.69 284.132 184.861C280.162 183.032 276.193 181.203 272.224 179.373L272.399 178.688C278.727 178.188 285.049 177.646 291.211 175.761C283.887 176.458 276.973 174.748 269.775 172.969C267.486 172.403 265.168 171.83 262.8 171.325C265.643 170.563 268.416 170.159 271.118 169.765C274.333 169.297 277.448 168.843 280.464 167.818C271.332 168.833 262.21 168.684 252.972 167.834C255.93 166.109 258.988 164.578 262.047 163.046C266.776 160.677 271.508 158.308 275.879 155.217C270.174 156.774 264.436 157.756 257.811 157.687C260.419 155.457 263.12 153.498 265.78 151.569C269.751 148.688 273.63 145.875 276.968 142.324C261.891 148.89 246.235 152.194 229.756 151.174C240.657 148.631 250.658 143.942 260.783 139.196C267.469 136.061 274.209 132.901 281.298 130.317C279.058 129.862 277.088 130.229 275.083 130.603C273.393 130.918 271.679 131.237 269.759 131.072C276.878 125.743 283.678 121.281 291.45 118.428C293.23 117.716 295.004 117.004 297.273 116.091C296.318 115.789 295.435 115.509 294.591 115.242C293.162 114.79 291.843 114.373 290.467 113.939C290.828 113.199 291.493 113.033 292.144 112.871C292.808 112.705 293.458 112.543 293.761 111.782C288.571 109.413 283.03 108.536 277.43 108.005C274.291 107.705 271.575 106.359 268.86 105.014C267.482 104.33 266.103 103.647 264.67 103.101C263.969 102.836 263.708 102.172 264.33 101.635C265.841 100.326 264.876 99.897 263.79 99.4145C263.735 99.39 263.679 99.3652 263.623 99.3402C259.578 97.5261 255.332 96.3263 251.087 95.1267C248.955 94.5242 246.823 93.9217 244.716 93.2415C243.617 92.8861 242.486 92.6304 241.354 92.3744C240.676 92.2209 239.997 92.0673 239.324 91.8921L239.146 91.8459C235.782 90.9743 232.366 90.0892 230.043 87.2702C229.03 86.0455 227.846 85.99 226.593 85.9312C226.401 85.9222 226.206 85.9131 226.011 85.8996C218.369 85.3614 210.863 86.512 203.354 87.663C203.007 87.7163 202.659 87.7696 202.312 87.8227C194.699 88.9915 187.033 89.5493 179.335 89.1987C176.275 89.0605 173.369 89.5387 170.469 90.3674C168.116 91.0388 165.693 91.2546 163.274 91.4702C161.213 91.6537 159.156 91.837 157.145 92.3012C151.753 93.5496 146.78 95.7171 142.96 100.031C142.237 100.846 141.379 101.551 140.523 102.253C139.46 103.125 138.402 103.993 137.611 105.067C136.669 106.344 135.576 107.525 134.482 108.707C131.673 111.742 128.856 114.786 128.569 119.48C128.516 120.317 128.694 121.075 128.87 121.828C129.012 122.432 129.153 123.033 129.174 123.671C129.192 124.275 129.8 124.176 130.517 124.06C131.112 123.963 131.784 123.853 132.256 124.123C132.298 124.992 131.75 125.079 131.214 125.164C131.081 125.185 130.949 125.206 130.827 125.239C130.62 125.294 130.409 125.34 130.199 125.385C129.057 125.632 127.953 125.871 127.899 127.603C127.83 129.749 129.169 130.79 130.779 131.561C131.453 131.882 132.202 132.045 133.066 132.233C133.489 132.325 133.94 132.423 134.423 132.549C133.672 133.013 133.624 133.721 133.577 134.416C133.526 135.176 133.476 135.921 132.511 136.321C132.272 136.421 132.601 136.926 132.957 137.075C132.984 137.087 133.013 137.099 133.042 137.112C133.531 137.322 134.223 137.621 134.078 138.047C133.193 140.6 134.709 141.246 136.266 141.909C136.624 142.061 136.985 142.215 137.319 142.393C137.906 142.703 138.418 143.149 138.932 143.596C139.157 143.792 139.382 143.988 139.614 144.172L140.458 145.006C141.158 145.255 142.031 145.485 142.936 145.723C145.42 146.378 148.148 147.097 148.199 148.433C148.225 149.13 147.634 149.466 147.061 149.791C146.781 149.951 146.505 150.108 146.307 150.303C145.749 150.193 145.672 150.178 145.672 150.177C145.672 150.175 145.809 150.198 145.149 150.059L145.011 150.048C144.941 150.072 144.936 150.147 144.931 150.232C144.92 150.393 144.908 150.59 144.453 150.552V150.266C143.887 149.488 143.14 149.603 142.413 149.714C142.206 149.746 142.001 149.777 141.802 149.788C140.154 149.879 138.554 150.265 136.95 150.651C135.115 151.093 133.277 151.535 131.358 151.541C131.178 151.543 130.971 151.705 130.731 151.893C130.335 152.204 129.847 152.586 129.238 152.433C124.914 150.33 120.552 148.311 116.063 146.584C115.937 146.536 115.808 146.487 115.678 146.439C114.886 146.142 114.046 145.828 113.508 145.267C109.867 141.474 105.03 139.444 100.441 137.518C100.041 137.351 99.6439 137.184 99.2492 137.016C97.4688 136.262 95.8003 135.334 94.1395 134.41C92.2916 133.382 90.4532 132.359 88.4807 131.587C88.5791 129.922 89.7063 129.519 90.8334 129.116C91.4715 128.888 92.1095 128.66 92.5607 128.203C92.6161 128.424 92.6705 128.658 92.7264 128.898C93.089 130.458 93.5145 132.289 94.6698 132.501C96.5573 132.842 98.0019 133.855 99.4338 134.86C100.456 135.578 101.472 136.291 102.639 136.751C103.513 137.094 104.309 137.722 105.064 138.317C105.864 138.948 106.618 139.543 107.372 139.726C110.703 140.539 114.347 140.788 117.79 139.428C119.559 138.727 119.692 137.341 118.518 136.39C116.749 134.961 117.354 134.35 119.187 133.797C118.476 133.181 117.788 132.822 117.142 132.486C116.847 132.333 116.561 132.184 116.286 132.017C116.075 131.89 115.854 131.762 115.629 131.631C113.963 130.664 112.063 129.56 112.063 127.767C112.068 126.336 111.642 126.378 111.008 126.44C110.934 126.447 110.857 126.455 110.777 126.461C109.177 126.574 107.669 126.197 106.159 125.819C106.045 125.79 105.93 125.761 105.815 125.733C105.7 125.704 105.574 125.682 105.446 125.66C104.94 125.573 104.4 125.481 104.307 124.904C104.197 124.229 104.725 123.925 105.226 123.638C105.355 123.563 105.483 123.49 105.598 123.411C105.894 123.207 106.225 123.054 106.573 122.893C107.365 122.527 108.243 122.121 108.982 120.983C104.307 121.52 100.243 122.694 96.5451 124.389C94.5847 125.289 93.6791 125.849 93.2137 125.597C92.7699 125.357 92.7265 124.377 92.5501 122.248C92.546 122.198 92.5421 122.148 92.5383 122.099C92.4778 121.32 92.4222 120.603 91.4132 120.473C90.4039 120.341 89.9523 120.989 89.7398 121.812C89.4561 122.914 89.1997 124.024 88.9401 125.148C88.8205 125.666 88.7003 126.186 88.5764 126.71C86.2495 124.936 81.2026 127.523 80.2411 130.801C79.8565 130.123 79.4562 129.45 79.0531 128.772C77.6404 126.398 76.192 123.963 75.2579 121.021C75.0631 121.471 74.854 121.896 74.6527 122.306C73.9376 123.76 73.3225 125.011 73.8076 126.45L73.8123 126.464C74.3681 128.11 74.8383 129.503 72.9629 130.673C72.4799 130.972 72.6088 131.583 72.7322 132.169C72.769 132.343 72.8053 132.515 72.8248 132.676C72.9487 133.697 73.3457 134.636 73.761 135.618C73.9335 136.026 74.1092 136.441 74.2698 136.873C74.0001 136.895 73.7606 136.91 73.5417 136.925C73.1181 136.952 72.7714 136.975 72.4317 137.027C69.4567 137.495 69.1698 137.936 70.2057 140.799C70.8911 142.69 71.8314 144.47 72.9948 146.122L69.9667 150.298C65.977 146.026 62.9701 141.171 62.2795 135.301C61.7748 130.992 61.7057 126.588 64.2451 122.673C64.9357 123.231 65.2279 122.651 65.3767 122.184C66.3194 119.213 67.2357 116.236 68.1516 113.26C68.397 112.463 68.6424 111.665 68.8882 110.868C69.185 110.51 69.4906 110.158 69.7962 109.806C70.4699 109.03 71.144 108.254 71.7251 107.41C75.481 101.949 79.917 97.109 84.9267 92.7793C86.8129 92.4843 88.369 91.4671 89.9074 90.4614C90.0588 90.3624 90.21 90.2636 90.3614 90.1655C95.3445 86.9462 100.444 83.9659 106.065 81.9684C107.622 81.4159 109.077 80.6721 108.084 78.4568C106.277 79.1489 104.565 80.0406 102.856 80.9304C100.354 82.233 97.8607 83.5315 95.0895 84.1943C97.8311 81.3262 101.093 79.138 104.353 76.9511C105.337 76.2904 106.322 75.6297 107.292 74.9505C116.504 68.5012 126.619 63.7624 136.909 59.3371C140.98 57.5855 145.173 56.198 149.364 54.811C151.414 54.1326 153.463 53.4543 155.498 52.7337C167.005 48.6525 179.035 47.3145 191.046 45.9784C194.545 45.5893 198.043 45.2003 201.525 44.7437C208.378 43.846 215.35 43.9625 222.307 44.0788C223.791 44.1036 225.274 44.1284 226.754 44.1433C229.885 44.1747 232.083 44.3657 235.162 44.6333ZM272.439 210.85C272.44 210.845 272.441 210.839 272.442 210.834L272.431 210.844C272.434 210.846 272.436 210.848 272.439 210.85ZM109.364 86.468C111.579 82.489 117.041 79.2271 120.393 79.7212C117.301 82.7387 113.827 84.9221 109.364 86.468ZM247.895 443.618C247.88 444.113 247.864 444.626 248.146 444.985L248.151 444.99C245.41 448.507 242.504 451.854 238.217 454.792C238.516 452.909 238.791 451.175 239.053 449.519C239.349 447.648 239.63 445.878 239.911 444.108C240.177 444.464 240.171 444.964 240.164 445.45C240.155 446.169 240.147 446.856 241.022 446.993C242.032 447.153 242.758 446.114 243.383 445.22C243.442 445.136 243.499 445.054 243.556 444.974C243.667 444.819 243.804 444.681 243.941 444.544C244.053 444.432 244.165 444.32 244.262 444.198C244.345 444.094 244.428 443.986 244.513 443.876C245.213 442.968 245.998 441.949 247.083 442.111C247.937 442.239 247.916 442.91 247.895 443.618Z" fill="white"></path>
<path d="M193.177 323.589C194.946 320.816 195.775 317.697 196.434 314.526C196.546 313.978 197.04 313.229 196.36 312.847C195.499 312.363 195.403 313.692 194.707 313.777C193.05 316.252 192.79 319.174 192.072 321.958C191.796 323.042 192.381 323.339 193.177 323.589Z" fill="white"></path>
<path d="M235.231 277.003C236.315 276.233 236.517 274.937 237.011 273.848C242.233 262.33 250.058 252.481 257.097 242.116C261.687 235.353 266.469 228.638 268.413 220.452C268.668 219.379 268.381 218.146 269.332 217.052C270.087 220.064 270.506 222.975 270.793 226.402C272.435 223.815 272.525 221.355 272.525 218.869C272.525 216.313 271.802 213.785 272.312 211.219C272.238 211.208 272.164 211.197 272.089 211.187C272.142 211.128 272.196 211.07 272.249 211.012C272.265 211.086 272.281 211.155 272.297 211.229C274.145 212.733 274.522 215.145 275.728 216.722C275.936 208.653 270.496 203.277 265.512 197.682C264.248 196.264 262.304 196.248 260.604 195.951C247.508 193.661 235.067 189.448 223.182 183.509C219.899 181.867 217.259 179.45 214.629 176.852C224.994 181.102 235.534 184.821 246.239 188.019C256.885 191.201 267.175 195.749 278.374 196.917C270.581 192.333 262.378 188.587 254.893 183.392C268.982 183.567 282.311 187.775 295.905 190.734C287.968 187.073 280.026 183.418 272.089 179.758L272.265 179.073C278.592 178.568 284.908 178.032 291.076 176.146C281.423 177.065 272.482 173.803 262.665 171.71C268.891 170.042 274.783 170.089 280.329 168.203C271.197 169.218 262.075 169.069 252.837 168.219C260.37 163.826 268.551 160.692 275.744 155.602C270.044 157.159 264.307 158.142 257.677 158.072C264.179 152.51 271.261 148.637 276.833 142.709C261.757 149.27 246.101 152.579 229.621 151.559C247.721 147.341 263.34 137.2 281.163 130.702C277.035 129.863 273.821 131.818 269.624 131.457C276.743 126.128 283.543 121.666 291.315 118.813C284.483 119.451 278.528 117.002 272.807 113.628C262.107 107.333 251.376 101.096 240.475 95.1459C231.698 90.354 222.534 88.0378 212.51 89.3712C207.803 89.9981 203.107 91.2572 198.437 91.3847C191.377 91.5759 184.348 92.4047 177.277 92.2294C176.889 93.94 176.687 95.725 176.071 97.3559C174.605 101.234 175.397 105.42 174.339 109.298C173.325 113.038 174.063 116.667 174.398 120.317C174.547 121.958 173.851 123.849 174.929 125.22C176.549 127.281 176.061 129.55 176.061 131.781C176.061 132.599 176.029 133.816 175.126 134.007C174.249 134.193 173.675 133.167 173.224 132.424C172.862 131.829 172.661 131.133 172.331 130.511C171.088 128.174 171.471 125.592 171.125 123.116C170.254 116.858 169.553 110.632 171.715 104.464C171.965 103.747 171.933 102.907 171.922 102.127C171.869 98.6894 172.645 95.5922 175.28 93.1537C175.381 93.0581 175.104 92.5534 175.009 92.2347C171.662 92.8456 168.315 93.4247 164.979 94.094C163.996 94.2906 162.806 94.2215 162.307 95.4381C161.302 99.7625 161.515 104.193 161.063 108.539C160.654 112.47 161.398 116.157 161.616 119.95C161.775 122.697 163.937 125.395 161.791 128.206C161.627 128.423 161.871 128.551 162.073 128.726C163.438 129.937 163.555 130.304 163.311 131.951C163.252 132.36 163.417 132.891 162.838 133.04C162.19 133.21 161.871 132.732 161.627 132.259C161.345 131.712 161.095 131.143 160.872 130.57C159.14 126.139 157.828 121.655 157.387 116.842C156.76 109.962 156.426 103.168 158.487 96.4634C156.176 96.7344 154.455 98.1156 152.733 99.4969C153.791 100.724 153.567 102.355 153.19 103.497C152.218 106.43 153.35 109.235 153.19 112.087C153.036 114.76 153.057 117.246 153.977 120.019C155.687 125.162 155.873 130.793 158.45 135.749C158.715 136.259 158.71 136.971 158.646 137.566C158.556 138.368 159.098 139.606 157.987 139.84C157.079 140.031 156.495 138.985 156.117 138.204C154.194 134.203 152.643 130.145 151.575 125.741C149.647 117.767 148.26 109.888 149.36 101.702C147.416 102.562 145.53 103.497 144.281 105.33C144.43 105.537 144.685 105.734 144.706 105.957C145.206 111.902 144.945 117.905 147.92 123.509C149.296 126.097 148.68 129.497 149.96 132.317C150.088 132.604 150.077 133.258 149.96 133.3C147.054 134.373 149.429 134.947 150.136 135.76C150.577 136.265 150.895 136.918 150.651 137.662C148.595 137.63 147.676 136.482 147.347 134.618C147.198 133.762 146.884 132.934 146.587 132.11C145.152 128.163 143.389 124.306 142.342 120.258C141.258 116.045 140.823 111.657 141.072 107.258C138.135 110.18 136.137 113.803 133.396 116.964C134.979 117.639 137.109 117.527 137.29 119.116C137.54 121.283 134.995 121.921 133.752 123.541C135.075 123.839 136.355 124.168 137.077 125.395V125.369C137.29 125.709 137.497 126.049 137.71 126.383C137.986 126.054 138.236 125.698 138.538 125.401C139.059 124.896 139.744 124.497 140.361 125.002C140.945 125.48 140.945 126.336 140.467 126.904C139.92 127.552 139.272 127.281 138.687 126.761C138.443 126.543 138.071 126.474 137.757 126.341C138.119 127.621 136.876 127.648 136.291 128.152C135.521 128.817 134.952 129.635 136.227 130.038C139.303 131.011 140.302 133.306 140.616 136.312C136.567 135.399 138.639 138.772 137.752 140.531C140.058 139.776 141.992 140.748 144.01 141.173C145.184 141.471 146.38 141.614 147.58 141.763C148.356 141.859 149.87 141.96 149.668 143.155C149.503 144.154 148.197 143.819 147.352 143.734C146.226 143.622 145.105 143.405 143.984 143.229C142.454 143.58 140.786 143.468 139.468 144.552C139.75 144.828 140.031 145.11 140.313 145.386C142.937 146.316 145.615 147.118 148.053 148.813C147.368 149.493 146.762 150.088 146.162 150.683C145.774 150.603 145.386 150.518 145.004 150.438C145.004 150.438 144.866 150.428 144.86 150.433C144.701 150.63 144.627 151.087 144.26 150.63L144.308 150.651C143.633 150.948 142.517 150.21 142.262 151.235C142.087 151.931 143.012 152.34 143.537 152.776C144.148 153.281 144.823 153.711 145.455 154.189C147.543 155.772 150.221 156.436 152.117 158.381C151.017 159.13 149.557 158.752 148.887 159.592C148.696 160.877 150.731 161.186 149.891 162.179C147.649 164.841 148.877 166.971 150.614 169.064C153.068 172.012 154.726 175.28 155.082 179.174C151.427 169.845 143.665 164.442 135.771 159.039C136.631 158.551 137.651 158.816 138.188 157.871C136.955 157.446 135.696 157.132 134.554 156.585C132.546 155.623 130.097 155.252 129.093 152.818C124.768 150.72 120.407 148.701 115.918 146.969C115.02 146.624 113.989 146.311 113.362 145.652C109.405 141.529 104.034 139.489 99.1037 137.402C95.3425 135.808 92.0806 133.438 88.3353 131.972C85.7906 133.428 85.7215 134.023 88.2715 135.324C93.6584 138.082 98.8912 141.12 104.225 143.962C117.719 151.145 130.777 159.082 142.757 168.724C149.992 174.552 153.158 182.414 155.411 190.92C156.107 193.549 156.819 196.142 158.487 198.591C162.2 193.464 163.337 186.648 169.356 183.456C168.225 184.428 167.146 185.48 166.397 186.84C166.094 187.387 165.659 188.019 166.078 188.556C166.599 189.225 167.237 188.837 167.938 188.529C171.672 186.893 175.508 186.053 179.503 187.637C181.118 188.279 182.76 188.89 184.438 190.835C176.948 188.433 170.546 188.614 165.244 194.84C167.736 195.781 170.063 195.09 172.246 195.063C179.471 194.984 185.166 197.746 189.937 203C199.983 214.072 209.572 225.499 217.7 238.084C223.65 247.296 228.421 257.14 233.143 267.011C234.647 270.156 235.385 273.492 235.199 276.998L235.231 277.003ZM211.686 132.153C211.681 132.158 211.692 132.147 211.686 132.153C211.692 132.147 211.686 132.153 211.681 132.158L211.686 132.153C212.329 131.993 212.935 131.903 213.36 132.62C214.226 132.764 215.097 132.902 215.963 133.051C221.472 133.991 226.822 133.454 231.539 130.384C237.962 126.208 239.247 119.328 240.113 112.412C240.225 111.53 240.103 110.127 238.514 109.229C238.504 111.944 237.048 113.973 236.676 116.444C235.731 122.782 232.522 127.499 226.274 129.879C219.793 132.349 213.854 130.081 207.856 128.057C207.229 127.844 207.165 127.334 207.027 126.824C205.492 121.129 204.743 115.684 206.724 109.654C208.844 103.21 216.797 99.3587 221.95 99.8953C226.046 100.32 230.487 100.942 233.94 104.167C234.928 105.086 236.527 105.877 238.196 106.318C240.193 106.844 242.552 108.22 242.435 110.802C242.297 113.931 241.585 116.98 241.702 120.216C241.819 123.536 239.056 125.783 236.942 128.248C232.086 133.927 223.156 136.828 216.058 134.474C215.065 134.145 213.599 134.145 213.386 132.578C212.749 132.721 212.196 132.519 211.681 132.158L211.686 132.153ZM230.461 98.4928C231.619 98.9656 232.777 99.4384 233.935 99.9165C232.649 99.7359 231.109 100.065 230.492 98.4662C229.228 99.0347 228.341 97.9509 227.305 97.5578C228.357 97.8712 229.409 98.1794 230.461 98.4928ZM233.441 133.566C239.338 130.049 243.423 124.837 246.834 118.994C244.826 126.022 240.48 130.989 233.887 133.991C228.596 137.975 222.779 139.054 216.558 136.732C211.102 134.697 205.827 131.754 199.818 135.213C203.377 131.494 207.309 132.217 211.336 133.853C214.985 135.335 218.614 136.977 222.678 136.801C226.519 136.631 229.913 134.857 233.436 133.566H233.441ZM220.85 143.777C222.322 143.219 223.544 142.73 224.782 142.289C227.948 141.152 231.204 140.052 233.627 137.672C235.178 136.148 236.852 134.931 238.769 134.097C243.811 131.908 247.227 128.184 249.517 123.297C250.074 122.112 250.653 120.933 251.562 119.042C253.272 124.891 251.105 129.082 247.933 132.971C249.718 133.725 250.967 131.94 252.481 132.955C251.498 136.026 250.648 139.755 248.273 141.487C244.448 144.271 240.087 146.736 235.258 147.607C232.851 148.042 230.083 148.707 227.889 147.182C225.743 145.689 223.151 145.418 220.85 143.782V143.777ZM275.744 175.593C275.755 175.875 275.771 176.156 275.782 176.438C274.698 176.528 273.593 176.523 272.525 176.73C269.221 177.373 265.858 177.006 262.537 177.367C258.978 177.755 255.387 178.658 251.843 178.202C246.361 177.495 240.841 177.33 235.353 176.868C223.4 175.853 212.584 171.354 201.858 166.705C198.198 165.117 194.543 163.311 190.888 161.595C188.938 160.681 187.068 159.624 185.49 157.27C189.055 157.972 191.902 159.071 194.808 160.033C201.715 162.317 207.505 167.189 214.863 168.448C220.122 169.351 225.318 170.589 230.54 171.71C240.677 173.893 251.004 174.589 261.289 175.519C266.07 175.949 270.926 175.593 275.744 175.593ZM258.606 207.702C247.099 206.082 236.134 202.628 225.775 197.257C215.931 192.152 205.8 187.552 196.631 181.24C190.888 177.282 185.342 173.038 179.705 168.931C177.431 167.274 175.057 165.744 172.91 163.943C171.975 163.157 170.302 161.797 171.077 160.787C171.938 159.672 173.298 161.308 174.403 161.844C174.876 162.073 175.285 162.429 175.71 162.742C183.163 168.299 191.052 173.229 198.421 178.913C208.972 187.047 220.356 193.767 232.915 198.4C241.442 201.545 249.803 205.157 258.606 207.702ZM262.915 159.783C258.782 161.887 254.574 162.763 250.568 163.736C245.07 165.074 239.263 165.202 233.547 165.367C222.779 165.675 212.318 164.092 202.235 160.256C200.748 159.687 199.069 159.172 198.421 156.882C219.836 160.803 241.064 163.04 262.909 159.788L262.915 159.783ZM214.895 198.123C195.451 190.75 179.726 177.925 164.532 164.288C168.102 164.517 170.817 166.376 173.542 168.326C187.35 178.223 198.979 191.137 214.9 198.123H214.895ZM179.423 160.474C192.742 165.377 203.856 174.175 216.09 180.98C202.788 176.077 189.799 170.61 179.423 160.474ZM242.594 102.631C241.07 102.801 240.437 101.935 239.688 101.42C237.42 99.8687 235.061 98.3919 232.463 97.6215C222.014 94.535 212.632 96.9947 204.265 103.683C201.757 105.686 200.541 108.565 199.993 111.684C199.675 113.495 199.51 115.333 199.244 117.373C197.327 110.34 199.499 104.926 204.987 100.719C210.092 96.8034 215.803 94.7847 222.327 95.1247C229.77 95.5125 236.347 98.0412 242.6 102.631H242.594ZM167.311 101.505C167.523 103.242 166.721 104.926 167.082 106.621C168.246 112.013 167.805 117.554 168.676 122.973C168.905 124.391 168.968 126.261 166.897 126.341C165.292 126.399 165.361 124.662 165.085 123.536C163.842 118.484 164.538 113.416 165.345 108.422C165.717 106.106 165.829 103.63 167.316 101.51L167.311 101.505ZM186.818 188.269C183.387 187.849 167.035 175.641 166.907 173.319C174.212 177.463 180.528 182.595 186.818 188.269ZM195.802 134.113C194.442 129.146 194.755 124.513 195.127 119.87C194.851 124.503 197.9 128.944 195.802 134.113ZM163.358 167.507C160.224 165.871 157.748 164.564 155.177 162.492C158.646 163.029 161.058 164.426 163.358 167.507ZM189.708 150.067C192.078 150.492 194.707 149.132 196.753 151.559C192.641 152.356 190.293 151.859 189.708 150.067ZM156.325 152.755C154.54 153.668 153.259 154.667 151.666 153.01C151.267 152.595 150.577 152.489 150.847 151.713C151.087 151.039 151.703 151.278 152.176 151.241C153.647 151.124 154.726 152.016 156.325 152.755ZM163.651 150.964C160.893 151.469 158.986 150.64 156.638 150.077C159.369 148.425 161.255 149.578 163.651 150.964ZM177.495 155.204C180.072 154.051 181.469 154.263 183.62 156.24C181.724 155.491 179.551 156.569 177.495 155.204ZM187.583 150.024C186.234 150.964 184.789 150.353 183.466 150.534C183.009 150.598 182.276 150.81 182.25 150.008C182.228 149.317 182.993 148.622 183.402 148.786C184.72 149.323 186.431 148.483 187.589 150.019L187.583 150.024ZM166.817 146.799C166.796 147.038 166.774 147.277 166.753 147.517C165.382 147.517 164.017 147.527 162.647 147.511C162.184 147.506 161.472 147.793 161.435 147.007C161.398 146.3 161.913 145.949 162.631 145.928C164.107 145.891 165.51 146.141 166.817 146.799ZM166.588 156.888C164.968 158.131 163.592 156.914 162.19 156.627C162.073 156.601 161.935 156.165 161.982 155.958C162.073 155.544 162.482 155.437 162.817 155.533C164.054 155.889 165.388 155.974 166.588 156.882V156.888ZM205.577 130.851C207.325 129.417 207.75 129.454 209.598 131.287C208.249 131.138 207.08 131.016 205.577 130.851ZM242.775 105.394C241.404 105.24 240.932 104.299 240.193 103.736C241.16 103.959 241.973 104.406 242.775 105.394ZM243.152 106.079C243.216 105.904 243.274 105.681 243.296 105.686C243.513 105.723 243.731 105.792 243.944 105.856L243.742 106.398C243.545 106.292 243.343 106.185 243.152 106.079Z" fill="#1D1D1D"></path>
<path d="M50.8715 257.411C51.9446 263.393 53.2887 269.306 55.1375 275.102C61.1246 293.855 70.4959 310.748 82.9112 325.99C85.9287 329.693 89.1056 333.236 92.5481 336.551C92.9837 336.971 93.4087 337.693 94.0568 337.279C94.604 336.928 94.4765 336.19 94.2215 335.584C92.8828 332.429 94.2747 328.763 92.1975 325.677C90.2797 322.818 89.4987 319.418 88.4096 316.279C92.054 313.575 94.1153 316.056 96.2031 318.622C97.765 320.539 99.3746 322.425 100.586 324.593C101.128 325.56 101.893 326.24 102.812 326.808C103.502 327.238 104.267 327.732 105.032 327.313C105.867 326.856 105.681 325.825 105.489 325.145C104.99 323.382 105.989 322.856 107.343 322.749C108.836 322.627 108.778 321.99 108.369 320.842C106.244 314.951 104.618 308.868 103.216 302.817C101.032 293.398 99.8793 283.734 101.107 273.986C101.409 271.595 102.419 269.603 104.416 268.179C107.8 265.767 110.51 262.474 114.175 260.46C117.607 258.574 119.408 255.674 120.402 251.833C117.729 254.765 115.232 257.581 112.364 260.025C111.774 260.529 111.291 261.661 110.191 260.837C109.389 260.232 109.006 259.509 109.086 258.378C109.415 253.682 110.01 249.049 111.742 244.634C112.922 241.627 113.235 238.493 113.501 235.3C114.276 226.057 113.809 216.765 114.568 207.527C114.792 204.785 113.384 202.777 112.242 200.657C111.105 198.538 110.956 196.567 111.7 194.314C113.309 189.422 115.812 184.927 117.793 180.204C119.61 175.864 119.052 172.437 115.769 169.037C114.664 167.895 113.548 166.742 112.337 165.717C109.537 163.348 107.907 160.399 106.961 156.835C105.707 152.107 103.125 148.112 98.7903 145.519C96.389 144.085 94.0781 142.459 91.39 141.551C91.1031 143.931 92.0806 146.465 90.099 148.622C83.3787 155.926 78.4806 164.405 74.56 173.457C73.1256 176.772 71.6275 180.087 70.9315 183.673C70.82 184.242 70.4215 185.288 71.0537 185.31C74.5706 185.427 72.1056 187.429 71.8187 188.157C68.8065 195.738 66.5859 203.537 64.9125 211.506C64.4609 213.647 65.0612 215.899 64.105 217.944C63.8765 218.428 63.749 219.283 62.899 219.065C62.2403 218.901 62.389 218.215 62.3625 217.727C62.2987 216.377 62.5643 214.985 62.0862 213.556C60.7475 214.284 60.8006 215.437 60.5243 216.42C58.0115 225.392 57.119 234.615 56.3115 243.848C56.2531 244.533 56.455 245.431 55.6528 245.723C53.8253 246.377 54.0909 247.875 54.0856 249.256C54.0803 251.557 54.1228 253.857 54.1653 256.157C54.1918 257.613 53.6181 258.42 52.4015 257.182C51.4984 256.263 51.3496 257.23 50.8662 257.406L50.8715 257.411Z" fill="#1D1D1D"></path>
<path d="M50.8715 257.411C51.355 257.241 51.5037 256.269 52.4069 257.188C53.6234 258.426 54.1972 257.618 54.1706 256.162C54.1281 253.862 54.0856 251.562 54.0909 249.262C54.0909 247.88 53.8306 246.382 55.6581 245.729C56.4603 245.442 56.2584 244.539 56.3169 243.853C57.119 234.62 58.0169 225.398 60.5297 216.425C60.8059 215.442 60.7528 214.289 62.0915 213.562C62.5643 214.996 62.304 216.382 62.3678 217.732C62.389 218.221 62.2403 218.906 62.9044 219.071C63.7544 219.283 63.8819 218.433 64.1103 217.95C65.0665 215.91 64.4662 213.652 64.9178 211.511C66.5912 203.537 68.8065 195.738 71.824 188.162C72.1162 187.429 74.5759 185.432 71.059 185.315C70.4269 185.294 70.8253 184.242 70.9369 183.679C71.6328 180.093 73.1309 176.778 74.5653 173.463C78.4859 164.41 83.384 155.932 90.1044 148.627C92.0859 146.47 91.1084 143.936 91.3953 141.556C90.1415 139.654 88.1122 139.176 86.1094 138.549C81.4609 137.099 78.2362 139.006 75.6809 142.719C74.7884 144.016 73.8109 145.253 72.8759 146.523C71.8665 147.915 70.8572 149.307 69.8478 150.699C64.2962 159.549 59.9931 168.995 56.3647 178.765C52.8903 188.115 50.744 197.725 49.5806 207.67C48.4703 217.195 48.2578 226.694 48.7572 236.209C49.129 243.296 49.6231 250.404 50.8822 257.416L50.8715 257.411Z" fill="#1D1D1D"></path>
<path d="M127.982 270.644C132.918 271.797 138.533 269.327 140.121 265.374C142.517 259.408 142.698 253.485 139.08 247.811C137.561 245.426 137.46 242.802 138.326 240.193C140.233 234.466 142.942 229.095 146.21 224.048C149.466 219.018 151.788 213.402 155.719 208.791C157.961 206.161 160.128 203.043 163.475 202.209C168.99 200.833 173.904 196.684 180.64 198.814C179.328 197.088 177.973 196.843 176.756 196.726C171.008 196.179 165.659 195.605 160.697 200.53C149.243 211.893 142.326 225.711 136.961 240.549C135.988 243.232 136.312 245.851 137.736 248.449C139.904 252.401 140.886 256.726 139.84 261.167C138.48 266.968 136.004 268.849 127.993 270.655L127.982 270.644Z" fill="#1D1D1D"></path>
<path d="M84.7973 93.175C86.8692 92.8509 88.5426 91.6503 90.232 90.5612C95.2151 87.3419 100.315 84.3615 105.936 82.364C107.492 81.8115 108.943 81.0678 107.954 78.8525C103.503 80.5525 99.6245 83.4744 94.9601 84.59V84.6219C94.9814 84.7228 94.9973 84.8237 95.0132 84.93C94.8804 84.8822 94.7529 84.8344 94.6201 84.7865C91.2573 87.48 87.7298 89.9875 84.792 93.1803L84.7973 93.175Z" fill="#1D1D1D"></path>
<path d="M64.1157 123.068C64.801 123.626 65.0985 123.047 65.2473 122.58C66.4426 118.818 67.5954 115.041 68.7588 111.264C65.9113 114.685 64.1954 118.558 64.1157 123.068Z" fill="#1D1D1D"></path>
<path d="M94.6252 84.7759C94.7581 84.8237 94.8856 84.8715 95.0184 84.9194C95.0024 84.8184 94.9865 84.7175 94.9652 84.6112C94.8112 84.59 94.7049 84.6431 94.6306 84.7759H94.6252Z" fill="white"></path>
<path d="M316.342 311.88C316.178 316.178 316.008 320.481 315.843 324.779C315.779 329.433 315.152 334.054 315.206 338.724C315.307 347.32 316.125 355.825 317.4 364.314C318.069 368.766 315.535 379.006 315.843 383.5C315.843 393.068 315.206 397 316.911 406.427C317.123 412.377 317.336 418.332 317.548 424.277C318.659 426.391 318.297 428.787 318.563 431.008C319.551 439.194 319.976 447.444 321.315 455.599C322.245 461.262 323.1 466.941 324.263 472.588C325.475 465.751 326.357 458.84 327.982 452.103C329.618 445.341 328.455 438.769 327.844 432.107C326.967 422.608 326.107 413.115 325.331 403.606C324.327 391.328 324.534 379.025 324.784 366.726C324.97 357.621 326.117 348.6 327.323 339.585C327.547 337.922 327.626 336.238 327.743 334.564C327.876 332.737 329.13 332.423 330.601 332.45C332.381 332.482 331.903 333.927 331.834 334.803C331.233 342.533 334.352 349.976 333.539 357.722C333.364 359.406 334.702 360.277 336.132 360.649C337.656 361.047 338.389 362.025 338.565 363.427C338.894 366.041 340.504 368.373 340.158 371.141C340.004 372.384 340.955 372.118 341.582 371.885C342.868 371.401 343.808 370.254 344.249 369.159C345.354 366.418 346.262 363.48 346.788 360.649C348.271 352.632 350.661 344.903 353.158 337.194C356.176 327.881 359.464 318.659 362.71 309.187C360.431 308.958 358.152 308.937 355.931 308.841C349.211 308.565 345.094 304.899 342.055 299.305C338.883 293.456 338.48 286.986 337.476 280.637C337.401 280.175 337.401 279.543 338.357 279.251C339.749 282.507 341.54 285.551 343.936 288.25C351.325 296.569 360.479 298.147 370.748 295.374C375.678 294.041 375.545 293.913 375.598 299.045C375.763 316.56 377.16 333.969 380.464 351.198C381.293 355.522 382.148 359.836 383.089 364.654C383.562 363.379 383.216 361.95 385.155 362.885C387.094 363.826 389.31 360.898 388.757 358.465C388.359 356.723 387.323 355.411 385.942 354.412C384.757 353.557 385.092 352.632 385.867 352C388.359 349.971 390.744 347.851 393.002 345.556C394.24 344.297 395.414 344.191 396.094 346.273C396.667 348.032 397.486 349.641 396.922 351.644C396.551 352.978 397.884 354.045 398.208 355.326C399 358.476 399.818 361.626 401.05 364.75C396.508 332.694 398.601 300.421 397.81 267.829C391.243 274.48 383.886 278.427 375.04 278.661C364.352 278.943 355.735 272.44 352.526 262.267C351.968 260.498 351.368 258.739 350.863 256.954C350.714 256.423 350.449 255.637 351.267 255.376C351.952 255.158 352.101 255.897 352.335 256.317C355.432 261.921 360.128 264.976 366.535 265.603C368.607 265.805 370.689 266.288 372.708 267.043C374.562 267.733 376.299 266.485 378.031 266.049C386.616 263.887 392.593 257.985 398.033 251.461C399.159 250.112 397.698 250.191 396.922 250.165C392.641 250 388.444 249.325 384.597 247.397C380.618 245.399 376.549 243.476 373.154 239.646C375.38 239.986 377.144 239.247 379.014 239.747C381.309 240.363 383.376 239.364 385.347 238.435C386.977 237.664 388.518 237.707 390.234 237.925C397.48 238.849 404.514 237.84 411.282 235.13C413.418 234.275 415.139 232.756 416.733 230.461C406.299 229.834 397.496 226.397 390.425 217.997C392.524 218.061 393.692 219.065 395.026 219.469C405.077 222.487 415.006 222.051 424.314 217.418C433.515 212.839 436.485 200.583 432.761 192.147C431.889 190.171 430.742 188.481 429.037 186.563C430.63 186.749 431.496 187.456 432.442 187.977C433.276 188.439 434.137 189.113 434.864 187.822L434.758 187.722L434.838 187.844C436.155 187.828 437.372 188.417 438.185 189.236C440.113 191.175 442.392 190.495 444.586 190.452C445.516 190.436 445.495 189.815 445.022 189.177C444.671 188.704 443.874 188.651 443.795 187.567C447.747 187.86 451.121 189.623 454.558 191.169C458.579 192.976 462.33 195.318 466.771 196.296C468.471 196.668 470.198 197.991 471.68 199.287C472.158 199.707 473.146 201.162 473.837 199.287C465.124 192.327 455.211 187.647 444.767 183.955C433.329 179.912 421.615 177.282 409.433 178.334C397.502 179.365 385.979 182.011 376.055 189.321C375.768 189.528 375.417 189.682 375.205 189.953C370.307 196.078 363.549 200.445 359.076 206.963C358.72 207.484 358.402 207.978 357.822 208.217C350.194 211.394 345.375 217.631 340.971 224.139C331.271 238.472 325.809 254.569 322.245 271.351C320.295 280.526 319.025 289.822 317.878 299.141C317.357 303.375 317.081 307.646 316.337 311.859L316.342 311.88Z" fill="#1D1D1D"></path>
<path d="M109.235 86.8584C113.697 85.3125 117.166 83.129 120.263 80.1115C116.911 79.6175 111.45 82.8793 109.235 86.8584Z" fill="#1D1D1D"></path>
<path d="M275.739 175.593C270.915 175.593 266.065 175.954 261.284 175.519C250.999 174.589 240.671 173.893 230.535 171.71C225.318 170.583 220.117 169.346 214.858 168.448C207.5 167.183 201.709 162.317 194.803 160.033C191.897 159.071 189.05 157.972 185.485 157.27C187.063 159.629 188.933 160.686 190.883 161.595C194.538 163.305 198.198 165.117 201.853 166.705C212.574 171.354 223.395 175.853 235.348 176.868C240.836 177.336 246.356 177.495 251.838 178.202C255.382 178.658 258.973 177.755 262.532 177.368C265.853 177.006 269.215 177.367 272.52 176.73C273.582 176.523 274.687 176.528 275.776 176.438C275.766 176.156 275.75 175.875 275.739 175.593Z" fill="white"></path>
<path d="M258.601 207.702C249.798 205.157 241.442 201.545 232.91 198.4C220.351 193.767 208.966 187.047 198.416 178.913C191.047 173.229 183.158 168.299 175.705 162.742C175.28 162.423 174.871 162.073 174.398 161.844C173.293 161.308 171.933 159.672 171.072 160.787C170.297 161.791 171.97 163.157 172.905 163.943C175.051 165.744 177.426 167.279 179.7 168.931C185.336 173.038 190.882 177.288 196.625 181.24C205.795 187.552 215.92 192.157 225.77 197.257C236.129 202.628 247.094 206.082 258.601 207.702Z" fill="white"></path>
<path d="M262.909 159.783C241.064 163.034 219.836 160.803 198.421 156.877C199.069 159.172 200.748 159.688 202.235 160.251C212.318 164.086 222.779 165.669 233.547 165.361C239.263 165.197 245.07 165.069 250.568 163.73C254.574 162.758 258.782 161.882 262.915 159.778L262.909 159.783Z" fill="white"></path>
<path d="M214.89 198.123C198.974 191.138 187.344 178.223 173.532 168.326C170.812 166.376 168.097 164.511 164.522 164.288C179.716 177.925 195.441 190.755 214.884 198.123H214.89Z" fill="white"></path>
<path d="M177.288 92.2347C176.533 92.2347 175.779 92.2453 175.025 92.2453C175.126 92.5587 175.402 93.0687 175.296 93.1644C172.661 95.5975 171.885 98.7 171.938 102.137C171.949 102.918 171.981 103.757 171.731 104.475C169.569 110.637 170.27 116.869 171.141 123.127C171.486 125.602 171.104 128.19 172.347 130.522C172.676 131.143 172.873 131.834 173.24 132.434C173.691 133.178 174.265 134.203 175.141 134.017C176.045 133.821 176.076 132.604 176.076 131.792C176.076 129.56 176.56 127.292 174.945 125.231C173.866 123.86 174.568 121.969 174.414 120.327C174.079 116.672 173.335 113.049 174.355 109.309C175.407 105.431 174.621 101.25 176.087 97.3666C176.703 95.7409 176.9 93.9559 177.293 92.24L177.288 92.2347Z" fill="white"></path>
<path d="M152.749 99.5075C151.012 99.3056 149.822 99.9431 149.381 101.717C148.281 109.904 149.663 117.782 151.591 125.757C152.659 130.166 154.21 134.219 156.133 138.22C156.511 139.006 157.095 140.052 158.003 139.856C159.108 139.622 158.572 138.384 158.662 137.582C158.726 136.987 158.731 136.27 158.466 135.765C155.889 130.803 155.703 125.177 153.992 120.035C153.068 117.262 153.052 114.776 153.206 112.103C153.371 109.251 152.234 106.446 153.206 103.513C153.583 102.366 153.806 100.735 152.749 99.5128V99.5075Z" fill="white"></path>
<path d="M162.322 95.4487C160.941 95.3956 159.592 95.454 158.503 96.4794C156.442 103.184 156.771 109.973 157.403 116.858C157.844 121.671 159.162 126.155 160.888 130.586C161.111 131.159 161.361 131.728 161.642 132.275C161.887 132.748 162.206 133.226 162.854 133.056C163.433 132.907 163.263 132.376 163.327 131.967C163.571 130.325 163.454 129.953 162.089 128.742C161.887 128.562 161.642 128.439 161.807 128.222C163.953 125.411 161.791 122.718 161.632 119.966C161.414 116.173 160.67 112.486 161.079 108.555C161.531 104.209 161.318 99.7731 162.322 95.454V95.4487Z" fill="white"></path>
<path d="M144.308 105.346C142.799 105.256 142.209 106.701 141.099 107.274C140.849 111.673 141.285 116.056 142.369 120.269C143.41 124.317 145.179 128.174 146.613 132.121C146.911 132.939 147.224 133.773 147.373 134.628C147.702 136.493 148.621 137.641 150.677 137.673C150.927 136.929 150.603 136.275 150.162 135.771C149.456 134.963 147.081 134.389 149.987 133.311C150.098 133.268 150.114 132.61 149.987 132.328C148.706 129.507 149.323 126.107 147.947 123.52C144.966 117.921 145.232 111.918 144.733 105.968C144.717 105.75 144.456 105.553 144.308 105.341V105.346Z" fill="white"></path>
<path d="M179.418 160.479C189.794 170.615 202.783 176.082 216.085 180.985C203.85 174.18 192.737 165.383 179.418 160.479Z" fill="white"></path>
<path d="M167.306 101.51C165.818 103.625 165.712 106.106 165.335 108.422C164.527 113.421 163.831 118.489 165.074 123.536C165.351 124.662 165.282 126.399 166.886 126.341C168.958 126.267 168.894 124.391 168.666 122.973C167.8 117.554 168.235 112.013 167.072 106.621C166.705 104.926 167.513 103.242 167.3 101.505L167.306 101.51Z" fill="white"></path>
<path d="M186.813 188.269C180.528 182.595 174.212 177.463 166.902 173.319C167.024 175.646 183.376 187.849 186.813 188.269Z" fill="white"></path>
<path d="M163.353 167.507C161.053 164.426 158.641 163.029 155.172 162.492C157.743 164.564 160.219 165.871 163.353 167.507Z" fill="white"></path>
<path d="M189.703 150.067C190.288 151.855 192.636 152.353 196.748 151.559C194.702 149.132 192.072 150.492 189.703 150.067Z" fill="white"></path>
<path d="M144.031 141.184C143.654 141.864 143.612 142.549 144.01 143.24C145.131 143.415 146.252 143.633 147.378 143.745C148.223 143.83 149.525 144.164 149.695 143.166C149.896 141.97 148.377 141.869 147.607 141.774C146.406 141.625 145.211 141.482 144.037 141.184H144.031Z" fill="white"></path>
<path d="M156.325 152.755C154.731 152.016 153.647 151.118 152.176 151.241C151.697 151.278 151.081 151.039 150.847 151.713C150.577 152.489 151.267 152.595 151.666 153.01C153.259 154.672 154.54 153.668 156.325 152.755Z" fill="white"></path>
<path d="M163.651 150.964C161.255 149.578 159.369 148.425 156.638 150.077C158.986 150.64 160.893 151.469 163.651 150.964Z" fill="white"></path>
<path d="M177.5 155.204C179.556 156.569 181.729 155.491 183.626 156.24C181.479 154.263 180.077 154.051 177.5 155.204Z" fill="white"></path>
<path d="M187.583 150.024C186.425 148.483 184.715 149.328 183.397 148.792C182.993 148.627 182.223 149.318 182.244 150.013C182.271 150.81 183.004 150.598 183.461 150.539C184.789 150.359 186.234 150.97 187.578 150.029L187.583 150.024Z" fill="white"></path>
<path d="M166.822 146.799C165.521 146.135 164.113 145.891 162.636 145.928C161.913 145.944 161.403 146.3 161.441 147.007C161.478 147.798 162.19 147.506 162.652 147.511C164.023 147.533 165.388 147.517 166.758 147.517C166.78 147.278 166.801 147.038 166.822 146.799Z" fill="white"></path>
<path d="M137.736 126.394C137.736 126.394 137.784 126.352 137.784 126.346C138.098 126.479 138.469 126.548 138.714 126.766C139.298 127.287 139.946 127.557 140.494 126.909C140.972 126.341 140.972 125.486 140.387 125.007C139.776 124.503 139.086 124.901 138.565 125.406C138.262 125.703 138.013 126.059 137.736 126.389V126.394Z" fill="white"></path>
<path d="M166.594 156.893C165.393 155.985 164.054 155.9 162.822 155.544C162.487 155.448 162.078 155.554 161.988 155.969C161.945 156.176 162.078 156.612 162.195 156.638C163.598 156.925 164.973 158.142 166.594 156.898V156.893Z" fill="white"></path>
<path d="M272.302 211.229C272.286 211.155 272.27 211.086 272.254 211.012C272.201 211.07 272.148 211.128 272.095 211.187C272.169 211.197 272.243 211.208 272.318 211.219L272.307 211.229H272.302Z" fill="white"></path>
<path d="M211.782 116.954C211.649 116.46 211.771 115.727 211.176 115.604C210.645 115.498 210.602 116.12 210.56 116.555C210.491 117.235 210.618 118.027 209.412 118.239C209.28 117.161 209.147 116.088 209.003 114.898C206.947 118.563 209.142 125.937 213.062 128.2C218.614 131.404 223.99 130.766 229.202 127.133C234.19 123.653 235.832 118.818 235.088 113.054C234.546 108.858 229.138 104.204 225.881 104.815C225.956 105.373 226.418 105.447 226.832 105.58C227.135 105.675 227.432 105.787 227.735 106.185C224.091 104.645 220.824 106.068 216.877 107.12C219.581 108.231 222.136 106.717 224.032 108.502C225.132 107.498 226.014 107.598 226.965 108.82C229.419 111.971 229.393 114.999 227.464 118.521C224.989 123.037 219.395 125.464 214.916 122.983C212.047 121.39 210.528 120.428 211.787 116.964L211.782 116.954Z" fill="#1D1D1D"></path>
<path d="M211.782 116.954C210.518 120.417 212.042 121.379 214.911 122.973C219.389 125.454 224.983 123.031 227.459 118.51C229.393 114.988 229.419 111.96 226.96 108.81C226.009 107.588 225.127 107.487 224.027 108.491C226.875 110.791 227.305 113.766 226.248 117.033C225.26 120.109 222.864 121.894 219.862 122.075C215.926 122.314 213.397 120.359 211.782 116.948V116.954Z" fill="white"></path>
</g>
<circle cx="250.5" cy="250.5" r="244.5" stroke="white" stroke-width="20"></circle>
</g>
<defs>
<clipPath id="clip0_51_8408">
<rect width="500" height="500" rx="250" fill="white"></rect>
</clipPath>
<clipPath id="clip1_51_8408">
<rect width="544" height="544" fill="white" transform="translate(-22 -22)"></rect>
</clipPath>
</defs>
</svg>