<svg width="500" height="500" viewBox="0 0 500 500" fill="none" xmlns="http://www.w3.org/2000/svg">
<g clip-path="url(#clip0_67_5416)">
<rect width="500" height="500" rx="250" fill="#665DFF"></rect>
<g clip-path="url(#clip1_67_5416)">
<path d="M360.298 365.186C368.247 365.918 375.688 363.472 383.213 361.528C385.479 360.942 387.646 361.509 388.965 363.267C393.647 369.512 400.474 370.938 407.524 372.026C414.268 373.071 420.649 375.601 427.339 376.88C427.637 376.939 427.979 377.041 427.935 377.7C425.742 378.179 423.423 377.881 421.157 378.252C418.74 378.647 416.255 378.955 414.17 380.103C406.235 384.482 398.145 383.848 389.858 381.504C383.682 379.756 377.803 377.163 371.68 375.278C369.517 374.614 367.295 374.121 365.103 373.55C363.501 370.762 361.899 367.974 360.293 365.19L360.298 365.186Z" fill="#D3CFE8"></path>
<path d="M350.806 348.115C355.103 346.582 359.458 346.514 363.677 348.179C367.969 349.873 371.973 350.044 375.967 347.402C377.002 346.719 378.428 346.23 379.648 346.284C386.797 346.611 393.638 344.57 400.625 343.711C409.927 342.568 419.102 343.437 428.188 345.435C435.474 347.036 442.744 348.721 450.161 349.624C449.624 351.221 449.111 352.827 447.778 353.994C441.782 353.594 435.791 353.14 429.771 353.037C421.602 352.9 413.569 354.023 405.532 355.171C401.963 355.679 398.33 355.923 394.839 355.332C388.682 354.292 382.944 355.635 377.266 357.578C372.314 359.272 367.339 360.654 362.041 360.317C360.425 360.215 358.813 360.049 357.202 359.912C354.648 356.206 352.91 352.056 350.801 348.105L350.806 348.115Z" fill="#D3CFE8"></path>
<path d="M457.554 334.414C449.033 334.39 440.513 334.36 431.997 334.78C428.267 334.961 424.526 334.966 420.791 334.917C414.048 334.829 407.344 335.557 400.62 335.845C396.777 336.011 392.993 335.552 389.253 334.888C383.281 333.828 377.622 335.049 372.051 336.846C363.862 339.487 355.527 340.85 346.924 340.439C343.599 334.224 340.273 328.008 336.948 321.792C344.673 320.391 352.261 321.631 359.883 322.832C365.073 323.647 370.327 324.043 375.591 324.15C377.192 324.185 378.823 324.028 380.718 324.927C375.513 325.63 370.654 325.635 365.791 325.806C373.701 327.222 381.709 327.637 389.717 328.511C384.727 330.103 379.199 328.813 374.375 331.504C402.246 331.934 430.151 330.942 457.979 333.164C457.939 333.618 458.018 334.116 457.549 334.419L457.554 334.414Z" fill="#D3CFE8"></path>
<path d="M375.381 394.526C375.635 394.36 375.898 394.043 376.147 394.053C388.501 394.434 400.752 395.205 410.698 403.975C410.503 404.829 409.819 405.312 409.248 405.869C402.993 411.934 396.367 417.588 389.8 423.311C389.062 423.955 388.218 424.448 387.153 424.248C384.014 415.942 380.937 407.612 377.402 399.458C376.694 397.827 376.055 396.167 375.381 394.521V394.526Z" fill="#D3CFE8"></path>
<path d="M333.286 315.479C330.698 312.3 328.979 308.56 326.65 305.21C334.453 306.274 342.319 305.195 350.176 306.016C345.771 306.885 341.226 306.851 336.294 308.135C358.809 310.625 380.898 306.929 402.705 310.352C399.761 311.387 396.523 311.182 393.423 311.26C384.16 311.489 374.912 311.86 365.659 312.393C361.694 312.622 357.71 312.549 353.73 312.065C349.663 311.577 345.635 311.816 341.831 313.691C339.155 315.01 336.113 314.785 333.286 315.474V315.479Z" fill="#D3CFE8"></path>
<path fill-rule="evenodd" clip-rule="evenodd" d="M369.328 437.635L369.325 437.637C368.021 433.804 366.096 430.285 364.17 426.765C363.039 424.696 361.906 422.627 360.9 420.493L360.868 420.407C360.881 420.432 360.893 420.457 360.905 420.483C361.911 422.618 363.044 424.689 364.177 426.76L364.178 426.761C366.103 430.279 368.029 433.799 369.332 437.635C371.588 436.41 373.766 435.067 375.753 433.43C372.995 423.349 368.698 413.917 364.054 404.624C363.722 403.965 363.537 402.457 363.537 402.457C363.537 402.457 367.916 406.747 369.791 409.167C370.648 410.272 371.521 411.367 372.394 412.461C375.801 416.731 379.208 421.002 381.657 425.967C381.73 426.116 381.808 426.264 381.886 426.412C382.265 427.131 382.646 427.855 382.521 428.739C383.244 428.432 383.825 427.956 384.215 427.256C379.323 415.048 373.375 403.355 367.394 391.677C366.416 391.823 366.107 391.138 365.823 390.507L365.823 390.507C365.75 390.344 365.678 390.185 365.597 390.045C357.599 376.225 349.186 362.677 340.123 349.551C339.791 349.075 339.499 348.589 339.562 347.97C338.893 347.867 338.639 347.376 338.384 346.885C338.234 346.595 338.084 346.305 337.848 346.095C338.8 346.358 339.289 347.062 339.577 347.955C344.164 352.632 347.966 357.952 351.767 363.273C352.137 363.79 352.507 364.308 352.877 364.825C354.001 366.389 355.045 368.011 356.089 369.633C356.573 370.386 357.058 371.139 357.55 371.886C357.604 372.005 357.648 372.124 357.677 372.253L357.663 372.189C368.297 387.824 377.775 404.079 383.786 422.208C383.925 422.627 384.035 423.059 384.146 423.491C384.42 424.559 384.694 425.631 385.407 426.527C385.68 426.248 386.034 426.044 386.389 425.84C387.149 425.403 387.909 424.965 387.873 423.785C387.501 422.785 387.13 421.785 386.759 420.785C383.998 413.344 381.238 405.905 378.122 398.609C377.65 397.505 377.208 396.388 376.766 395.27C376.546 394.712 376.325 394.153 376.1 393.596C374.407 390.089 372.716 386.582 371.024 383.076L370.961 382.944L370.897 382.812C369.206 379.306 367.514 375.799 365.822 372.293C364.225 369.483 362.633 366.669 361.042 363.855L361.012 363.803C359.728 362.167 358.761 360.347 357.916 358.453C356.153 355.853 354.778 353.042 353.404 350.229L353.403 350.229C352.787 348.969 352.171 347.708 351.52 346.467C351.271 346.16 351.027 345.852 350.778 345.545L350.77 345.552C349.727 343.262 348.685 340.977 347.643 338.692L347.638 338.682L337.663 319.744C337.089 318.824 336.515 317.905 335.94 316.986C335.365 316.065 334.789 315.145 334.215 314.225C333.858 314.617 333.491 315.001 333.124 315.386L333.124 315.387C332.252 316.301 331.38 317.214 330.641 318.226C329.855 319.307 329.152 319.327 328.219 318.648C326.128 317.126 323.916 315.787 321.704 314.449C318.545 312.537 315.387 310.626 312.585 308.185C309.917 305.864 307.911 302.942 305.917 300.036C305.593 299.564 305.269 299.093 304.943 298.624C297.985 288.612 289.928 279.592 281.237 271.127C280.929 270.826 280.63 270.517 280.331 270.208L280.324 270.2C280.226 270.099 280.129 269.998 280.031 269.898C279.334 269.185 278.57 268.395 279.241 267.377C278.588 268.388 279.347 269.173 280.041 269.883C280.14 269.986 280.24 270.089 280.34 270.192C280.639 270.501 280.939 270.811 281.247 271.113C289.938 279.577 297.99 288.602 304.953 298.609C305.279 299.078 305.603 299.549 305.927 300.022C307.921 302.927 309.927 305.849 312.594 308.17C315.397 310.611 318.555 312.522 321.713 314.434C323.925 315.773 326.138 317.112 328.229 318.633C329.162 319.312 329.86 319.293 330.651 318.212C331.39 317.2 332.261 316.286 333.133 315.372C333.501 314.987 333.868 314.602 334.225 314.21L334.005 313.317L334.015 313.307C332.497 311.41 331.278 309.319 330.059 307.228C329.2 305.755 328.342 304.283 327.379 302.879C326.722 301.992 326.069 301.102 325.416 300.211C322.484 296.213 319.551 292.215 316.237 288.528C315.443 287.644 314.658 286.751 313.873 285.857C310.663 282.202 307.452 278.545 303.576 275.561C303.569 275.563 303.563 275.564 303.557 275.566C298.63 270.618 293.051 266.496 287.474 262.377C286.367 261.558 285.259 260.74 284.157 259.915C276.359 254.08 268.17 248.852 259.982 243.624L259.982 243.624C256.306 241.278 252.631 238.931 248.991 236.53C248.35 236.106 247.71 235.673 247.069 235.239L247.068 235.239C245.359 234.081 243.644 232.92 241.911 231.943C240.168 230.962 238.462 229.913 236.756 228.865L236.756 228.865C234.003 227.173 231.25 225.481 228.341 224.073C228.16 223.982 227.929 223.996 227.698 224.01C227.589 224.017 227.479 224.023 227.375 224.018C226.725 232.885 229.04 241.191 232.228 249.274C233.908 253.526 235.741 257.715 237.574 261.903L237.574 261.904L237.574 261.905C238.404 263.802 239.235 265.699 240.05 267.602C242.506 272.327 243.854 277.376 244.396 282.672C244.473 283.429 244.617 284.181 244.762 284.934C244.829 285.285 244.897 285.637 244.958 285.989C245.685 288.791 245.646 291.602 245.045 294.419C244.123 305.175 241.222 315.35 235.963 324.732C230.617 334.273 227.668 344.558 225.651 355.264C224.557 361.101 223.029 366.873 220.827 372.436C218.605 378.05 215.002 382.473 210.329 386.113C209.847 386.487 209.351 386.848 208.855 387.21L208.854 387.21C206.588 388.861 204.313 390.517 203.356 393.442C203.057 394.354 202.615 393.952 202.312 393.675C202.23 393.6 202.158 393.534 202.101 393.507C200.733 392.844 199.395 392.112 197.956 391.325L197.955 391.325L197.955 391.324C197.5 391.075 197.034 390.821 196.554 390.561V395.411C195.356 393.857 194.285 392.463 193.174 391.019L193.158 390.998L193.15 390.988C192.326 389.916 191.479 388.816 190.544 387.601C190.724 388.979 190.926 390.32 191.124 391.635L191.124 391.635C191.814 396.215 192.454 400.471 191.984 404.833C191.45 404.679 190.907 404.551 190.365 404.424C188.704 404.033 187.047 403.643 185.67 402.507C184.342 401.411 184.245 402.209 184.259 403.34C184.262 403.709 184.262 404.079 184.261 404.514V404.515C184.26 404.759 184.259 405.023 184.259 405.319C181.869 404.493 180.108 402.865 178.321 401.212C177.209 400.184 176.087 399.147 174.796 398.287C174.867 398.869 174.937 399.432 175.004 399.98C175.184 401.435 175.351 402.789 175.5 404.143C175.661 405.586 174.884 406.117 173.59 405.928C164.435 404.599 155.431 402.636 146.96 398.723C142.516 396.67 138.937 393.497 136.071 389.49C135.887 390.025 136.095 390.503 136.302 390.982C136.52 391.484 136.738 391.986 136.505 392.554C136.353 392.825 136.717 393.265 137.119 393.751L137.119 393.751C137.471 394.177 137.852 394.637 137.941 395.049C138.105 395.297 138.267 395.543 138.429 395.79C138.592 396.037 138.754 396.284 138.918 396.531C139.711 397.471 139.818 398.625 139.925 399.775L139.938 399.913C141.198 400.543 141.701 401.609 141.828 402.973C141.924 404.008 142.765 405.01 143.613 406.021C144.27 406.805 144.931 407.594 145.255 408.408C146.058 409.673 146.857 410.941 147.656 412.209C149.551 415.216 151.446 418.225 153.39 421.197C156 425.185 158.651 429.148 161.302 433.11L161.302 433.111L161.304 433.114C162.318 434.629 163.331 436.144 164.342 437.66L164.318 437.65C164.372 437.698 164.425 437.747 164.479 437.796C164.511 437.825 164.542 437.854 164.574 437.883L164.575 437.884C164.66 437.962 164.745 438.04 164.831 438.116C171.017 445.683 176.891 453.479 181.96 461.879C183.486 462.672 185.139 463.063 186.787 463.454L186.787 463.454C187.427 463.606 188.067 463.757 188.698 463.932C196.037 465.97 203.463 467.651 210.978 468.861C217.101 469.848 223.253 470.745 229.42 471.355C232.774 471.687 236.151 471.776 239.529 471.864H239.53H239.53C241.001 471.903 242.473 471.941 243.942 472H256.515C257.86 471.794 259.215 471.741 260.572 471.687C261.536 471.65 262.5 471.612 263.463 471.519C264.246 471.444 265.029 471.37 265.811 471.296L265.812 471.296C273.386 470.579 280.949 469.864 288.468 468.529C297.658 466.902 306.745 464.899 315.67 462.191C325.612 459.176 335.348 455.556 344.767 451.108C353.218 447.122 361.499 442.803 369.325 437.637L369.328 437.645V437.635ZM302.497 276.328C302.251 276.803 302.388 277.389 302.523 277.967C302.592 278.26 302.66 278.551 302.677 278.824C302.696 279.11 302.827 279.376 302.964 279.653C303.226 280.183 303.506 280.751 303.043 281.565C303.043 281.565 303.043 281.566 303.043 281.566C303.515 280.747 303.236 280.177 302.974 279.644C302.837 279.366 302.705 279.097 302.687 278.809C302.67 278.535 302.601 278.244 302.532 277.95C302.398 277.379 302.262 276.8 302.497 276.328ZM330.841 328.095C330.786 327.645 330.811 327.272 330.91 326.985C330.815 327.27 330.792 327.637 330.846 328.08C330.917 328.658 330.9 329.13 330.795 329.494C330.896 329.132 330.911 328.665 330.841 328.095ZM324.513 331.407C324.393 330.862 324.371 330.362 324.492 329.992C324.376 330.36 324.399 330.854 324.518 331.392C324.711 332.265 325.089 333.095 325.467 333.925L325.467 333.926C325.635 334.293 325.802 334.661 325.954 335.032C326.017 335.126 326.081 335.215 326.144 335.305C326.053 335.242 325.962 335.183 325.872 335.125L325.949 335.047C325.797 334.675 325.63 334.308 325.462 333.94L325.462 333.94C325.084 333.11 324.706 332.28 324.513 331.407ZM314.843 331.797C314.896 331.409 314.955 331.067 315.022 330.768C314.956 331.068 314.898 331.41 314.845 331.799L314.843 331.797ZM303.903 328.987C303.895 328.058 304.02 327.348 304.287 326.859C304.025 327.347 303.901 328.052 303.908 328.972C303.917 330.202 304.435 331.209 304.972 332.205C305.968 334.048 306.977 335.884 307.985 337.721C309.498 340.475 311.011 343.23 312.482 346.006C312.569 346.17 312.671 346.336 312.775 346.506L312.776 346.506C313.166 347.141 313.583 347.819 313.327 348.601C313.573 347.825 313.159 347.152 312.771 346.521L312.771 346.521C312.666 346.351 312.564 346.185 312.477 346.021C311.006 343.245 309.494 340.49 307.981 337.736C306.972 335.899 305.963 334.063 304.967 332.22C304.425 331.224 303.913 330.217 303.903 328.987ZM313.058 349.135L313.061 349.131C314.071 351.043 315.086 352.953 316.102 354.863C318.315 359.026 320.529 363.19 322.687 367.383C325.114 372.099 327.262 376.944 328.624 382.111C323.507 372.084 318.043 362.266 312.243 352.651C309.721 348.467 307.145 344.317 304.569 340.167C303.21 337.977 301.85 335.788 300.499 333.594C300.158 333.038 299.842 332.465 299.526 331.892C299.372 331.612 299.217 331.332 299.06 331.054C304.987 336.071 309.179 342.479 313.058 349.135ZM280.778 319.486L280.785 319.488C281.313 320.346 281.843 321.203 282.373 322.06C283.718 324.235 285.062 326.409 286.374 328.6C290.641 335.729 294.512 343.063 297.543 350.835C295.657 348.529 294.271 345.912 292.886 343.295C292.184 341.968 291.482 340.642 290.714 339.356C287.807 334.477 285.019 329.522 282.231 324.568C281.194 322.724 280.156 320.88 279.113 319.04C278.948 318.749 278.834 318.429 278.719 318.109L278.719 318.109C278.67 317.972 278.621 317.834 278.568 317.699C279.197 317.868 279.61 318.316 280.022 318.764L280.022 318.764C280.26 319.023 280.498 319.282 280.778 319.486ZM297.615 350.958C297.629 351.345 297.642 351.733 298.065 351.915C298.031 351.54 297.964 351.178 297.615 350.958ZM298.098 352.015L298.097 351.995C298.247 352.246 298.399 352.5 298.596 352.83L298.61 352.853C298.755 353.097 298.925 353.382 299.137 353.737C298.169 353.139 298.133 352.564 298.098 352.015ZM260.006 307.565C259.996 306.484 260.117 305.71 260.405 305.236C260.122 305.71 260.002 306.479 260.011 307.55C260.021 308.537 260.109 309.499 260.314 310.486C262.35 320.21 265.871 329.419 269.796 338.468C271.823 343.15 274.215 347.672 277.814 351.361L277.923 351.473C278.939 352.518 280.125 353.738 281.789 352.933C282.328 352.672 282.605 352.336 282.73 351.958C282.608 352.342 282.33 352.683 281.784 352.948C280.125 353.757 278.934 352.533 277.918 351.488L277.809 351.376C274.21 347.692 271.823 343.164 269.792 338.483C265.866 329.433 262.345 320.225 260.309 310.501C260.104 309.514 260.016 308.552 260.006 307.565ZM282.625 348.992C282.564 349.062 282.516 349.115 282.497 349.163C282.513 349.112 282.563 349.055 282.631 348.978C282.68 348.922 282.738 348.855 282.799 348.773C286.041 356.122 289.625 363.134 294.108 369.63C296.627 373.279 299.24 376.87 302.916 379.433C304.469 380.513 305.347 380.454 305.698 379.227C305.35 380.471 304.471 380.533 302.912 379.448C299.23 376.885 296.623 373.294 294.103 369.645C289.621 363.149 286.037 356.137 282.794 348.788C282.733 348.87 282.675 348.936 282.625 348.992L282.625 348.992ZM328.933 412.668C320.945 399.545 312.983 386.464 305.885 372.783V372.759C312.984 386.443 320.948 399.527 328.938 412.653C332.494 418.495 336.055 424.346 339.547 430.261C340.496 429.121 341.057 427.917 341.338 426.68C341.059 427.921 340.497 429.13 339.543 430.276C336.05 424.361 332.489 418.51 328.933 412.668L328.933 412.668ZM336.655 398.088C336.636 397.855 336.621 397.622 336.612 397.387C336.604 397.554 336.619 397.793 336.655 398.088ZM342.719 377.827C342.608 377.678 341.994 379.703 341.194 382.487C341.027 381.974 340.854 381.466 340.651 380.976C335.656 368.94 328.361 358.353 320.88 347.865C320.039 346.687 319.261 345.46 318.483 344.233C318.119 343.658 317.755 343.084 317.384 342.515C317.023 341.959 316.662 341.404 316.725 340.695C316.742 340.518 316.727 340.326 316.713 340.135C316.677 339.645 316.641 339.15 317.111 338.865C317.902 338.384 318.581 339.034 319 339.559C320.36 341.255 321.632 343.017 322.904 344.778L323.117 345.074C324.592 347.117 326.086 349.149 327.579 351.18C332.106 357.338 336.635 363.499 340.67 370.002C347.54 381.08 353.83 392.505 358.961 404.614C357.633 404.525 356.206 404.094 354.679 403.32C355.589 405.46 356.24 407.582 356.786 409.68C352.42 398.422 345.743 381.872 342.719 377.827ZM309.2 314.931L309.182 315.286C306.391 312.114 304.415 308.927 302.506 305.725C299.547 300.761 295.983 296.289 292.106 292.078C288.959 288.663 285.747 285.315 282.535 281.965L282.534 281.965C281.101 280.47 279.667 278.976 278.239 277.475C278.191 277.426 278.141 277.379 278.09 277.331C277.961 277.209 277.831 277.085 277.736 276.939C277.63 276.777 277.506 276.613 277.381 276.447C276.839 275.731 276.267 274.974 277.008 274.132C277.843 273.18 279.127 273.364 280.143 274.053C282.775 275.853 285.153 278.015 287.277 280.371C287.759 280.906 288.246 281.438 288.732 281.97L288.733 281.972L288.734 281.972C291.333 284.815 293.941 287.667 295.939 291.012C296.051 291.199 296.186 291.382 296.322 291.565C296.884 292.325 297.454 293.095 296.408 294.226C296.025 294.641 296.465 295.044 296.875 295.421C297.013 295.548 297.149 295.672 297.248 295.793C298.387 297.181 299.534 298.564 300.681 299.946L300.681 299.947C302.873 302.589 305.066 305.232 307.204 307.917C309.42 310.703 309.413 310.837 309.2 314.931ZM276.352 329.903C274.471 326.316 272.591 322.731 271.295 318.858C274.224 323.502 276.483 328.475 278.292 333.663C277.662 332.402 277.007 331.153 276.352 329.904L276.352 329.903L276.352 329.903ZM271.189 318.651C271.175 318.602 271.158 318.553 271.129 318.514C271.111 318.492 271.069 318.486 271.029 318.481C271.014 318.479 271 318.477 270.988 318.474C271.032 318.514 271.077 318.553 271.123 318.593L271.189 318.651ZM300.46 344.146C304.489 362.742 311.989 379.081 322.042 394.295C321.753 393.438 321.464 392.58 321.175 391.722C315.709 375.505 310.232 359.255 300.46 344.146ZM268.893 315.107C269.238 315.765 269.502 316.265 269.731 316.701C269.854 316.933 269.967 317.148 270.077 317.358C270.114 317.428 270.15 317.497 270.187 317.567C270.387 316.57 270.065 315.881 268.893 315.107ZM279.313 336.172C279.376 335.622 279.22 335.24 278.722 334.858C278.707 335.414 278.766 335.83 279.313 336.172Z" fill="#1D1D1D"></path>
<path d="M499.956 250C499.956 332.588 499.951 415.171 500 497.759C500 499.59 499.59 500 497.759 500C332.588 499.951 167.417 499.951 2.24609 500C0.415039 500 0.00488281 499.59 0.00488281 497.759C0.0488281 332.588 0.0488281 167.412 0 2.24121C0 0.410156 0.410156 0 2.24121 0C167.412 0.0488281 332.583 0.0488281 497.754 0C499.585 0 500 0.410156 499.995 2.24121C499.941 84.8291 499.951 167.412 499.951 250H499.956ZM66.4014 117.695L66.4502 117.666C66.2598 117.837 66.0693 118.008 65.8789 118.179C59.2822 126.689 53.6182 135.781 48.9014 145.464C47.8467 147.549 46.7139 149.6 45.7568 151.729C44.585 154.336 42.8809 156.724 42.4561 159.639L42.4854 159.624C41.9678 159.478 42.0752 159.902 41.9971 160.156C40.2295 163.75 38.7549 167.461 37.5684 171.284C36.5186 174.077 35.3711 176.836 34.4482 179.673C32.9346 184.331 31.4648 189.014 30.6934 193.872C30.0781 195.215 29.7607 196.626 29.7363 198.101C28.457 202.817 27.3145 207.563 26.9336 212.461C26.8311 213.11 26.7285 213.765 26.626 214.419C25.8154 219.248 25.0635 224.082 24.9902 228.989C24.7168 229.434 24.5264 231.5 24.5264 231.5C24.5264 231.5 24.5117 231.489 24.5264 232.021C24.541 232.476 24.5557 232.93 24.5703 233.389C24.5557 233.721 24.5459 234.058 24.5312 234.39C24.5166 234.873 24.5068 235.352 24.4922 235.835C24.4629 236.333 24.4287 236.831 24.3994 237.329C23.6084 243.208 24.0771 249.116 24.0527 255.015C24.043 256.768 23.7158 258.569 24.4336 260.283C24.4238 260.625 24.4092 260.967 24.3994 261.304C24.8975 282.954 29.6094 304.077 37.1533 324.292C39.209 330.181 41.7188 335.889 44.4141 341.504C45.5811 343.94 46.3135 346.646 48.291 348.652C49.3555 352.271 51.5039 355.312 53.4619 358.462C54.2627 360.962 55.8936 362.993 57.2119 365.205C60.1025 370.2 63.5645 374.805 67.041 379.395C67.1729 379.531 67.4414 379.81 67.4414 379.81C67.4414 379.81 67.9003 380.251 68.1543 380.537C68.8383 381.309 69.6045 382.744 69.6045 382.744C69.6045 382.744 84.8535 401.333 93.5205 409.692C98.7109 414.697 103.901 419.717 109.854 423.848V423.813C109.8 424.224 110.127 424.321 110.396 424.463C111.323 425.82 112.568 426.641 114.238 426.753C117.212 429.966 120.859 432.295 124.517 434.609C130.029 438.604 135.913 441.997 141.88 445.239C154.438 452.075 167.544 457.632 181.24 461.768C183.359 462.852 185.723 463.174 187.979 463.789C195.317 465.796 202.744 467.451 210.259 468.643C216.382 469.614 222.529 470.498 228.701 471.099C233.516 471.567 238.379 471.538 243.223 471.733C247.412 472.388 251.606 472.383 255.796 471.733C258.096 471.382 260.425 471.475 262.744 471.26C271.104 470.474 279.453 469.766 287.749 468.315C296.938 466.709 306.025 464.741 314.951 462.075C324.893 459.106 334.629 455.542 344.048 451.162C352.5 447.231 360.781 442.983 368.608 437.896C370.864 436.694 373.037 435.371 375.029 433.755C377.285 432.217 379.541 430.674 381.802 429.136C382.524 428.828 383.101 428.359 383.496 427.676C384.058 427.71 384.424 427.417 384.688 426.958C385.547 426.094 387.212 425.957 387.158 424.258C388.223 424.458 389.067 423.96 389.805 423.32C396.367 417.598 402.993 411.943 409.253 405.879C409.824 405.322 410.508 404.834 410.703 403.984C411.875 403.496 412.603 402.471 413.442 401.606C417.783 397.134 421.777 392.363 425.708 387.529C432.295 379.429 438.442 371.025 443.652 361.973C445.142 359.385 446.875 356.904 447.783 354.004C449.111 352.842 449.624 351.23 450.166 349.634C453.13 344.805 455.21 339.551 457.559 334.424C458.027 334.116 457.954 333.623 457.988 333.169C461.812 325.278 464.282 316.895 466.753 308.53C471.333 293.022 473.682 277.129 474.644 261.011C475.171 252.173 475.083 243.369 474.229 234.521C473.516 227.139 473.027 219.761 471.802 212.417C470.547 204.912 468.94 197.5 467.109 190.137C464.639 180.2 461.123 170.591 456.982 161.226C453.706 153.813 450.322 146.45 445.908 139.619C445.752 139.39 445.728 138.989 445.278 139.146L445.327 139.185C445.508 138.003 444.624 137.241 444.111 136.387C420.249 96.8848 387.705 66.8701 346.055 46.8652C331.646 39.9463 316.606 34.8438 301.03 31.1328C292.422 29.082 283.745 27.627 275.01 26.4795C268.467 25.6201 261.841 25.3662 255.249 24.8438C250.776 24.2236 246.304 24.2188 241.831 24.8535C234.551 25.5713 227.246 25.9033 219.971 26.8213C203.32 28.9258 187.148 32.8564 171.401 38.5791C136.533 51.2549 106.743 71.5381 81.6992 98.8428C76.377 104.644 71.1963 110.581 66.8652 117.192L66.9141 117.178C66.5869 117.197 66.4404 117.393 66.4014 117.7V117.695Z" fill="#1D1D1D"></path>
<path d="M368.608 437.891C360.781 442.978 352.5 447.231 344.048 451.157C334.629 455.537 324.893 459.102 314.951 462.07C306.025 464.736 296.939 466.709 287.749 468.311C279.453 469.761 271.104 470.469 262.744 471.255C260.425 471.475 256.8 473.153 254.5 473.5C250.311 473.5 247.689 474.5 243.5 474.5C238.656 474.31 233.516 471.562 228.701 471.094C222.534 470.493 216.382 469.609 210.259 468.638C202.744 467.446 195.317 465.791 187.979 463.784C185.723 463.169 183.359 462.847 181.24 461.763C176.172 453.491 170.298 445.815 164.111 438.364C163.94 438.213 163.77 438.057 163.599 437.905L163.623 437.915C159.966 432.515 156.279 427.134 152.671 421.704C149.907 417.544 147.241 413.311 144.536 409.111C143.794 407.275 141.279 405.568 141.108 403.76C140.981 402.417 140.479 401.367 139.219 400.747C139.106 399.57 139.023 398.379 138.198 397.417C137.871 396.929 137.549 396.445 137.222 395.957C137.031 395.088 135.5 394 135.786 393.501C136.24 392.407 134.976 391.562 135.352 390.483C138.218 394.429 141.797 397.554 146.24 399.575C154.712 403.428 163.716 405.361 172.871 406.67C174.165 406.855 174.941 406.333 174.78 404.912C174.575 403.076 174.336 401.24 174.077 399.145C177.441 401.353 179.663 404.751 183.54 406.069C183.54 405.259 183.545 404.687 183.54 404.121C183.525 403.008 183.623 402.222 184.951 403.301C186.777 404.785 189.097 404.976 191.265 405.591C191.87 400.063 190.635 394.707 189.824 388.623C192.031 391.445 193.74 393.638 195.835 396.313V391.538C197.832 392.603 199.58 393.579 201.382 394.438C201.646 394.565 202.256 395.518 202.637 394.375C203.804 390.864 206.929 389.209 209.609 387.158C214.282 383.574 217.886 379.219 220.107 373.691C222.31 368.213 223.838 362.529 224.932 356.782C226.948 346.24 229.898 336.113 235.244 326.719C240.503 317.48 244 299 244.238 288.569C244.048 287.48 243.789 286.396 243.677 285.303C243.135 280.088 241.787 275.117 239.331 270.464C236.714 264.453 233.95 258.501 231.509 252.417C228.32 244.458 226.006 236.279 226.655 227.549C226.978 227.563 227.354 227.471 227.622 227.603C232.334 229.849 236.636 232.827 241.191 235.352C243.574 236.675 245.923 238.34 248.272 239.868C260.02 247.5 272.139 254.57 283.438 262.895C290.093 267.798 296.939 272.471 302.847 278.315C300.894 278.911 301.885 280.371 301.958 281.514C302.012 282.339 303.037 282.998 302.315 284.228C300.967 283.311 299.648 282.417 298.335 281.514C292.647 277.607 286.943 273.73 280.913 270.371C280.2 269.976 279.307 269.131 278.555 270.195C277.827 271.221 278.604 272.012 279.312 272.725C279.712 273.13 280.107 273.54 280.518 273.936C289.209 282.27 297.266 291.152 304.224 301.011C306.558 304.311 308.765 307.769 311.865 310.425C316.631 314.512 322.422 317.09 327.5 320.728C328.433 321.396 329.136 321.377 329.922 320.312C330.972 318.896 332.29 317.676 333.496 316.372C334.644 318.184 335.796 319.995 336.943 321.807C340.269 328.022 343.594 334.238 346.919 340.454C347.964 342.71 349.009 344.966 350.054 347.227C349.683 347.563 349.463 347.28 349.292 347.012C346.758 343.047 344.273 339.043 340.913 335.708C338.281 333.096 335.796 330.259 332.378 328.599C330.776 327.817 329.922 328.423 330.122 330.029C330.383 332.122 329.456 332.793 327.344 332.041C326.812 331.851 326.255 331.714 325.728 331.509C323.843 330.767 323.477 331.875 323.794 333.291C324.072 334.531 324.736 335.684 325.23 336.875L325.142 336.963C323.54 337.7 322.598 337.134 321.611 335.693C320.625 334.258 319.346 332.935 317.788 332.007C315.215 330.469 314.526 330.791 314.121 333.691C311.548 332.139 309.6 329.727 306.836 328.501C304.307 327.383 303.159 328.198 303.184 330.908C303.193 332.119 303.706 333.11 304.248 334.092C306.738 338.628 309.307 343.125 311.758 347.681C312.241 348.579 313.193 349.536 312.339 350.747C308.457 344.189 304.263 337.876 298.33 332.935C295.845 329.224 292.656 326.23 288.98 323.74C287.983 323.066 287.217 323.35 287.148 324.58C287.022 326.855 286.104 326.084 284.873 325.381C283.052 324.346 282.251 322.07 280.059 321.553C279.292 321.001 278.838 320.049 277.837 319.79C276.943 317.832 274.956 317.026 273.442 315.757C270.034 312.895 266.719 309.863 262.798 307.7C260.2 306.265 259.258 306.929 259.287 309.814C259.297 310.786 259.385 311.733 259.59 312.705C261.626 322.28 265.147 331.348 269.072 340.259C271.104 344.868 273.491 349.326 277.09 352.954C278.13 354.004 279.346 355.327 281.064 354.502C282.783 353.682 281.841 352.119 281.768 350.825C281.763 350.728 281.909 350.625 282.075 350.405C285.317 357.642 288.901 364.546 293.384 370.942C295.903 374.536 298.511 378.071 302.192 380.596C304.209 381.978 305.088 381.47 305.151 378.999C305.195 377.344 305.161 375.684 305.161 374.023C315.42 393.496 327.485 411.733 338.823 430.645C340.772 428.34 341.084 425.781 340.698 423.208C339.849 417.534 338.955 411.865 337.529 406.284C336.831 403.56 335.942 400.835 335.884 397.964L335.982 397.881C336.67 397.886 341.663 378.555 342 378.999C346.692 385.181 360.181 421.011 360.181 421.011C362.9 426.689 366.538 431.904 368.608 437.9V437.891ZM308.462 317.427C308.691 313.042 308.765 312.983 306.484 310.161C303.228 306.133 299.844 302.202 296.528 298.223C296.138 297.754 295.176 297.227 295.689 296.68C296.987 295.298 295.796 294.463 295.22 293.516C292.847 289.604 289.614 286.377 286.558 283.037C284.434 280.718 282.056 278.589 279.424 276.816C278.408 276.138 277.124 275.957 276.289 276.895C275.376 277.915 276.455 278.809 277.017 279.658C277.148 279.858 277.349 280.015 277.52 280.186C282.148 284.976 286.836 289.702 291.387 294.565C295.264 298.711 298.828 303.115 301.787 308.003C303.696 311.157 305.674 314.297 308.467 317.422L308.462 317.427Z" fill="#1D1D1D"></path>
<path d="M445.322 139.175C426.499 130.552 407.28 122.935 387.549 116.631C368.315 110.484 348.76 105.645 328.887 102.07C325.698 101.499 322.505 100.952 319.326 100.352C318.74 100.239 318.218 100.093 317.773 100.625C317.539 100.562 317.29 100.527 317.07 100.43C300.562 93.1398 283.408 87.8761 265.757 84.2433C258.54 82.7589 251.265 81.5968 243.892 81.0108C238.276 80.5665 232.695 79.6534 227.036 80.2101C225.469 80.0245 224.16 81.0938 222.637 81.128C221.836 81.2013 221.001 81.1671 220.234 81.3673C215.732 82.544 211.196 82.2267 206.729 81.4015C197.944 79.7706 189.189 78.8136 180.19 79.5167C169.995 80.3175 160.151 82.1241 150.82 86.3868C150.571 85.9474 150.483 86.2257 150.396 86.4845L150.435 86.4454C149.546 86.4942 148.628 86.4112 147.773 86.6065C142.646 87.7931 137.544 89.0675 132.422 90.2589C125.581 91.8507 118.984 94.5656 111.753 94.3116C106.636 94.131 101.953 95.713 98.0273 99.0577C93.5986 102.832 88.6914 105.781 83.4277 108.208C78.4033 110.523 73.6572 113.345 69.0479 116.397C68.3838 116.836 67.7979 117.495 66.8652 117.183C71.2012 110.571 76.377 104.634 81.6992 98.8331C106.743 71.5284 136.533 51.2501 171.401 38.5694C187.148 32.8468 203.32 28.9161 219.971 26.8116C227.246 25.8937 239.755 23.6269 252.5 24.0001C261.34 24.2589 268.462 25.6104 275.01 26.4698C283.745 27.6173 292.422 29.0724 301.03 31.1231C316.602 34.8292 331.641 39.9317 346.055 46.8556C387.71 66.8556 420.254 96.8751 444.111 136.377C444.629 137.232 445.508 137.988 445.327 139.175H445.322Z" fill="#1D1D1D"></path>
<path d="M312.344 350.732C313.198 349.522 312.246 348.564 311.763 347.666C309.311 343.11 306.743 338.613 304.253 334.077C303.716 333.096 303.198 332.105 303.188 330.894C303.169 328.184 304.316 327.368 306.841 328.486C309.604 329.712 311.553 332.119 314.126 333.677C314.526 330.776 315.22 330.454 317.793 331.992C319.346 332.92 320.625 334.243 321.616 335.679C322.607 337.119 323.545 337.686 325.146 336.948C325.239 337.007 325.332 337.065 325.425 337.129C325.361 337.041 325.298 336.953 325.234 336.86C324.741 335.669 324.077 334.517 323.799 333.276C323.481 331.86 323.848 330.752 325.732 331.494C326.26 331.699 326.816 331.836 327.349 332.026C329.461 332.775 330.387 332.105 330.127 330.015C329.927 328.408 330.781 327.808 332.383 328.584C335.801 330.244 338.286 333.081 340.918 335.693C344.277 339.028 346.768 343.037 349.297 346.997C349.468 347.271 349.687 347.549 350.059 347.212C350.308 347.515 350.552 347.817 350.801 348.12C352.905 352.07 354.644 356.216 357.197 359.922C358.042 361.787 359.009 363.579 360.293 365.19C361.894 367.979 363.496 370.767 365.102 373.55C368.53 380.542 371.953 387.534 375.381 394.526C376.055 396.172 376.694 397.832 377.402 399.463C380.937 407.612 384.014 415.942 387.153 424.253C387.207 425.957 385.547 426.089 384.687 426.953C383.686 425.713 383.55 424.131 383.066 422.7C377.056 404.849 367.578 388.843 356.943 373.447L356.958 373.511C356.929 373.384 356.885 373.267 356.831 373.149C355.278 370.83 353.804 368.452 352.158 366.196C347.978 360.454 343.877 354.653 338.843 349.6C338.779 350.21 339.072 350.688 339.404 351.157C348.467 364.082 356.88 377.422 364.878 391.03C365.273 391.704 365.444 392.817 366.675 392.637C372.656 404.136 378.603 415.649 383.496 427.671C383.105 428.359 382.524 428.828 381.802 429.131C381.953 428.081 381.367 427.261 380.937 426.401C377.861 420.259 373.271 415.195 369.072 409.858C367.197 407.476 362.817 403.252 362.817 403.252C362.734 403.042 362.895 403.467 362.817 403.252C362.7 403.066 362.92 403.442 362.817 403.252C362.817 403.252 363.003 404.736 363.335 405.386C367.978 414.536 372.275 423.823 375.034 433.75C373.047 435.361 370.869 436.685 368.613 437.891C366.543 431.89 362.9 426.675 360.185 421.001C359.805 420.2 359.214 419.741 358.359 419.585C356.899 414.595 356.25 409.404 353.96 404.102C355.487 404.863 356.914 405.288 358.242 405.376C353.11 393.452 346.821 382.202 339.951 371.294C334.585 362.778 328.345 354.858 322.397 346.748C321.055 344.917 319.717 343.081 318.281 341.318C317.861 340.801 317.183 340.161 316.392 340.635C315.737 341.025 316.064 341.816 316.006 342.437C315.942 343.135 316.304 343.682 316.665 344.229C317.827 345.986 318.926 347.793 320.161 349.497C327.642 359.824 334.936 370.249 339.932 382.1C340.859 384.307 341.162 386.875 343.159 388.716C343.198 388.115 343.228 387.632 343.262 387.148C343.428 387.5 343.652 387.842 343.755 388.213C347.134 400.415 349.941 412.773 353.936 424.805C351.743 423.164 351.299 420.469 350.093 418.252C346.372 411.411 341.929 405.073 337.236 398.887C336.899 398.442 336.641 398 336 398C335.5 398 336.836 403.54 337.534 406.27C338.96 411.851 339.853 417.52 340.703 423.193C341.089 425.767 340.771 428.33 338.828 430.63C327.49 411.719 315.425 393.481 305.166 374.009C305.166 375.669 305.2 377.324 305.156 378.984C305.093 381.45 304.214 381.963 302.197 380.581C298.52 378.057 295.908 374.521 293.389 370.928C288.906 364.531 285.322 357.627 282.08 350.391C281.914 350.61 281.768 350.718 281.772 350.811C281.846 352.105 282.788 353.667 281.069 354.487C279.346 355.308 278.135 353.989 277.095 352.939C273.496 349.307 271.103 344.854 269.077 340.244C265.151 331.333 261.631 322.266 259.595 312.69C259.39 311.719 259.302 310.772 259.292 309.8C259.268 306.914 260.21 306.255 262.803 307.686C266.724 309.849 270.039 312.881 273.447 315.742C274.961 317.012 276.948 317.817 277.842 319.775C278.022 320.225 278.154 320.698 278.394 321.113C282.241 327.793 286.006 334.526 289.995 341.118C292.295 344.912 294.009 349.067 296.894 352.505C293.5 345 289.941 337.578 285.654 330.527C283.823 327.515 281.929 324.536 280.059 321.543C282.256 322.061 283.057 324.336 284.873 325.371C286.108 326.074 287.026 326.841 287.148 324.57C287.217 323.34 287.983 323.057 288.979 323.731C292.656 326.221 295.845 329.214 298.33 332.925C298.813 333.765 299.268 334.624 299.78 335.444C303.691 341.699 307.671 347.915 311.523 354.209C317.324 363.677 322.788 373.345 327.905 383.218C326.543 378.13 324.395 373.359 321.968 368.716C318.818 362.69 315.552 356.729 312.339 350.737L312.344 350.732ZM270.493 320.806C270.469 320.732 270.454 320.654 270.41 320.596C270.386 320.566 270.317 320.566 270.269 320.557C270.352 320.63 270.439 320.703 270.522 320.776C272.266 325.981 275.107 330.654 277.573 335.513C275.747 330.356 273.462 325.415 270.493 320.806ZM299.741 345.835C303.769 364.146 311.269 380.234 321.323 395.215C315.557 378.408 310.029 361.499 299.741 345.835Z" fill="#665DFF"></path>
<path d="M141.421 404.16C143.032 405.454 143.794 407.275 144.541 409.116C144.238 409.072 143.916 409.072 143.628 408.98C138.789 407.476 134.033 405.776 128.95 405.23C133.56 408.247 138.35 411.025 142.124 415.327C138.555 416.309 135.737 413.438 132.104 413.638C134.404 416.143 136.382 418.301 138.398 420.493C137.3 421.211 136.675 420.62 136.074 420.308C133.208 418.828 130.342 417.339 127.529 415.752C123.379 413.418 119.419 410.732 115.01 408.857C114.541 408.682 114.204 408.12 113.398 408.408C113.901 408.731 114.297 408.98 114.692 409.233C122.563 415.356 130.923 420.869 138.13 427.832C138.276 427.983 138.423 428.13 138.564 428.281L138.574 428.32C138.657 428.701 138.74 429.082 138.823 429.468C134.219 427.402 130.171 424.336 125.771 421.924C128.965 426.377 131.919 430.962 134.673 435.63C134.609 435.693 134.731 435.566 134.673 435.63C132.617 434.976 131.06 433.535 129.38 432.285C125.708 429.561 122.783 426.021 119.219 423.096C119.619 424.243 120.229 425.244 120.786 426.279C122.227 428.965 124.028 431.494 124.521 434.605C120.864 432.29 117.217 429.961 114.243 426.748C112.52 423.369 110.068 420.532 107.637 417.656C107.866 418.711 108.369 419.609 108.726 420.566C109.126 421.65 110.498 422.407 109.858 423.843C103.906 419.712 98.7158 414.692 93.5254 409.688C84.8584 401.328 76.9336 392.295 69.6094 382.739C69.9707 382.808 70.2693 382.841 70.6836 382.944C71.354 383.112 71.3965 383.926 72.3535 383.53C71.7773 383.135 71.3867 382.866 70.9961 382.598C70.1416 381.826 70.5453 380.527 69.5 380C68.7882 379.641 67.8516 379.902 67.4658 379.829C67.334 379.692 67.1729 379.522 67.041 379.385C63.5645 374.79 60.1074 370.19 57.2119 365.195C58.2422 365.02 59.1113 365.479 60 365.874C64.0088 367.661 67.7197 369.917 71.1328 372.72C69.3213 369.16 66.3721 366.709 63.1445 364.443C67.2656 364.131 70.0342 366.523 72.5391 369.253C75.0781 372.017 76.6895 375.464 78.9209 378.477C78.335 375.176 76.0303 372.695 74.8291 369.678C79.1895 372.246 81.416 376.558 84.1455 381.255C84.1455 380.122 84.165 379.722 84.1455 379.321C83.667 370.703 85.6055 362.72 90.3369 355.444C90.9912 354.434 91.4111 353.272 91.9385 352.178C92.0947 351.948 92.2559 351.719 92.4121 351.494C92.9492 351.846 92.8125 352.339 92.6367 352.788C91.5088 355.708 91.1719 358.726 91.3623 361.846C91.4355 363.037 91.2598 364.243 91.0205 365.454C90.6396 367.398 90.6494 369.424 90.498 371.416C90.6982 371.465 90.8984 371.514 91.1035 371.563C96.6553 360.161 102.192 348.755 109.37 338.262C109.57 338.008 109.766 337.749 109.966 337.495C110.767 337.148 111.567 336.523 112.388 337.466C111.709 340.381 109.492 342.656 109.009 345.649C108.174 348.096 106.201 350.772 106.06 353.467C106.064 353.535 106.128 353.603 106.206 353.652C106.436 353.797 106.369 353.261 106.479 353.013C107.877 349.868 110.239 348.467 111.46 345.742C112.749 344.653 113.906 343.413 115.396 342.549C117.139 341.538 116.87 342.564 116.621 343.652C115.073 345.01 114.17 346.797 113.315 348.618C112.822 349.185 112.422 349.805 112.295 350.562C108.413 356.323 106.021 362.842 102.852 368.999C104.092 368.652 104.663 367.661 105.391 366.831C109.614 362.007 113.711 357.065 118.501 352.769C118.809 354.458 120.063 355.952 119.526 357.813C117.974 359.014 116.729 360.503 115.547 362.051C115.405 362.227 115.117 362.524 115.146 362.559C115.444 362.915 115.679 362.725 115.869 362.407C117.407 361.309 118.95 360.215 120.488 359.116C122.622 365.527 125.776 371.509 128.32 377.744C127.29 377.915 126.24 378.018 125.225 378.267C116.279 380.43 107.988 384.204 99.9854 388.648C98.6914 389.365 97.0898 389.692 96.2158 391.074C96.6162 391.025 97.041 391.05 97.4121 390.923C106.26 387.915 115.225 388.125 124.194 390.147C128.115 391.03 131.934 392.368 135.801 393.501L135.781 393.486C135.815 393.604 135.854 393.716 135.889 393.828C136.011 393.726 136.138 393.618 136.26 393.516C136.909 394.199 137.046 395.093 137.236 395.962C135.503 395.654 133.77 395.352 132.036 395.044C134.189 395.645 135.918 397.334 138.213 397.422C139.033 398.384 139.116 399.57 139.233 400.752C137.158 401.191 135.42 399.385 133.34 399.858C135.947 401.167 138.555 402.476 141.162 403.784L141.118 403.76C141.221 403.892 141.323 404.024 141.426 404.155L141.421 404.16Z" fill="#1D1D1D"></path>
<path d="M24.4385 260.278C26.6309 260.049 27.1924 261.514 27.4414 263.53C29.3652 260.957 30.2637 257.647 33.8818 257.275C35.21 257.139 36.2256 257.71 37.0312 259.106C33.623 259.082 31.7139 261.108 30.3125 263.76C28.9746 266.299 27.6758 268.862 27.124 271.865C33.8184 263.345 42.7441 259.268 53.1982 258.32C59.751 257.725 66.3916 256.733 73.2129 260.2H68.7109C71.709 261.729 74.8047 261.436 77.1387 263.555C76.3623 263.647 75.7422 263.726 74.8779 263.828C80.4541 265.889 85.9424 267.534 90.8691 270.498C91.2744 270.776 91.3379 271.162 91.2158 271.606C88.4229 270.967 84 269 83 268.5C82.6487 268.324 82.2667 268.388 82.0117 268.687C81.6564 269.103 82.0447 269.696 82.5 270C84 271 88.8525 272.559 91.7383 274.356C92.4609 274.854 92.2168 275.64 92.3242 276.323C89.9609 275.488 87.5928 274.678 85.2441 273.818C81.5137 272.456 77.832 270.84 73.833 270.537C61.9678 269.639 51.5381 273.809 41.7725 280.024C40.3516 280.928 38.5693 281.694 38.1299 283.672C39.4727 282.93 40.7959 282.163 42.1533 281.45C45.8008 279.526 49.5068 277.803 54.3945 278.442C52.373 279.565 50.5225 279.912 49.0918 281.411C59.751 280.117 70.0928 280.605 79.6533 286.069C75.1904 284.624 70.6006 284.507 65.9912 284.648C61.2549 284.795 56.7041 285.918 52.1387 287.354C52.7002 287.676 53.1201 288.057 53.75 288.022C58.7061 287.769 63.3887 289.185 68.0469 290.532C74.585 292.427 80.3809 295.483 84.8437 300.918C84.7559 301.006 84.9316 300.83 84.8437 300.918C83.8965 300.557 82.9443 300.2 81.9971 299.839C79.5996 298.853 77.2022 297.866 74.8096 296.875C69.3408 293.325 63.3154 292.188 56.9141 292.671C61.8066 293.535 66.3818 295.303 70.835 297.437C72.7881 298.794 74.7363 300.156 76.6895 301.514C77.998 303.267 79.7461 304.429 80.9521 306.294C80.7861 306.44 81.1182 306.147 80.9521 306.294C68.7256 301.045 61.8994 299.209 57.5635 300.107C66.3379 302.632 74.1455 306.797 82.1045 311.377C80.4199 311.694 79.0088 311.406 77.4756 312.056C80.1221 313.442 83.0371 313.535 85.2539 315.425C82.0361 315.815 78.8965 314.194 75.1807 315.195C79.6436 317.031 84.1943 317.109 88.1689 319.102C84.4336 319.087 80.752 317.837 76.9727 318.945C82.041 321.514 87.3975 323.062 93.0127 323.779C93.7451 324.399 94.8975 324.18 95.918 325.513C90.5029 324.648 85.4443 325.884 80.459 324.561C76.4209 323.335 72.71 321.333 68.8672 319.639C64.4336 317.686 59.8975 316.069 54.9756 315.552C59.6045 318.34 63.5303 321.855 66.8555 326.05C66.6504 327.393 65.957 326.465 65.5225 326.289C63.3301 325.405 61.1572 324.473 58.9795 323.56L58.7744 323.916C60.6934 326.157 62.6123 328.398 64.5312 330.64C64.5312 331.968 66.0742 332.515 66.2793 333.94C64.3359 333.408 62.7686 332.241 60.791 332.056C61.1572 333.452 61.7676 334.761 61.8213 336.108C61.6553 336.24 61.9873 335.977 61.8213 336.108C60.7959 334.893 59.7705 333.677 58.5303 332.207C58.8428 334.385 59.8828 336.133 59.9512 338.018C59.79 338.145 60.1123 337.891 59.9512 338.018C57.0898 335.278 55.2246 331.694 52.3096 329.004C51.4795 327.246 50.3271 325.713 48.9941 324.316C44.2676 317.202 38.8672 310.645 32.8418 304.59C32.7441 304.487 32.5537 304.297 32.5537 304.297C32.2559 304.512 32.6465 304.785 32.6465 304.785C32.6465 304.785 37.3828 312.271 39.7754 315.996C41.8115 319.17 43.8232 322.388 46.3672 325.21C47.0459 326.318 47.7246 327.422 48.3984 328.53C49.4434 330.762 50.127 333.35 51.1719 335.581C51.0498 335.698 51.2939 335.464 51.1719 335.581C48.9502 333.555 47.0508 331.235 45.1807 328.892C44.8193 328.438 44.458 327.852 43.833 328.276C43.2812 328.652 43.8916 329.131 43.9648 329.57C44.2725 331.411 44.9561 333.242 44.165 335.518C43.4131 333.98 42.8564 332.754 42.2217 331.563C40.8203 328.94 39.7168 326.108 37.168 324.282C29.6191 304.067 24.9121 282.944 24.4141 261.294C24.4238 260.952 24.4385 260.61 24.4482 260.273L24.4385 260.278Z" fill="#1D1D1D"></path>
<path d="M37.5684 171.289C46.2646 172.31 55.0586 172.676 63.4912 175.435H54.292C57.5244 176.309 60.4883 177.959 63.5938 179.263C66.8018 180.61 70.3809 180.586 73.5742 182.119H68.3398C68.3106 182.251 68.2764 182.383 68.2471 182.52C71.1035 183.394 73.96 184.268 76.8164 185.142C66.6699 184.844 56.6309 185.078 46.5186 185.869C57.876 188.032 68.7647 191.426 78.4473 198.062C73.1738 197.3 68.0615 195.601 62.6758 195.493C66.1084 196.709 69.5752 197.847 72.8613 199.399C76.1035 200.933 79.2383 202.666 81.7236 205.366C78.0127 204.81 75.0293 202.285 70.957 201.655C75.1709 205.02 79.6924 207.339 83.5596 211.362C81.5039 211.479 80.5322 210.103 78.9111 210.137C80.5176 211.753 82.2461 213.022 82.9199 215.151C80.9033 213.853 78.7598 212.91 76.6602 211.919C66.0498 206.904 54.8779 203.335 43.8721 199.346C40.1367 197.993 36.4307 196.553 32.7246 195.112C31.9922 194.829 31.1328 194.678 30.6836 193.887C31.4551 189.028 32.9248 184.346 34.4385 179.688C35.3613 176.855 36.5088 174.092 37.5586 171.299L37.5684 171.289Z" fill="#1D1D1D"></path>
<path d="M109.961 337.495C109.761 337.749 109.565 338.008 109.365 338.262C107.163 337.686 105.874 339.048 104.771 340.562C102.622 343.511 100.244 346.167 97.1924 348.262C95.6055 349.346 94.0283 350.454 92.4121 351.494C92.2559 351.724 92.0947 351.953 91.9385 352.178C91.4746 352.29 90.9424 352.295 90.5518 352.529C84.0625 356.455 77.0898 356.904 69.6973 356.128C64.2236 355.552 58.4814 354.956 53.4717 358.452C51.5186 355.303 49.3652 352.261 48.3057 348.643C49.458 347.979 50.7617 347.69 52.0312 347.637C59.3848 347.344 65.918 344.639 72.1875 341.055C74.3213 339.834 76.6895 339.248 79.1016 338.804C89.3311 336.919 99.6582 337.427 109.971 337.49L109.961 337.495Z" fill="#D3CFE8"></path>
<path d="M29.7363 198.105C38.1934 202.046 46.5576 206.162 54.3262 211.387C58.8672 214.443 62.6465 218.325 66.626 222.51C65.0879 222.598 64.2725 221.763 63.3594 221.27C55.4492 216.973 47.4365 212.886 39.1455 209.355C38.1982 208.95 37.2803 208.33 36.1523 208.53C36.0986 208.442 36.04 208.354 35.9863 208.267C35.9863 208.311 35.9766 208.374 36.001 208.398C36.0498 208.447 36.123 208.472 36.1865 208.501C40.874 214.717 46.0156 220.605 49.9609 227.368C50.8008 228.809 51.6162 230.264 52.5537 231.909C51.4258 232.036 51.0645 231.455 50.7129 231.001C47.3291 226.631 42.876 223.447 38.5645 220.132C35.6445 217.886 32.5391 215.874 29.5117 213.765C28.7158 213.213 27.9541 212.578 26.9336 212.471C27.3145 207.578 28.457 202.832 29.7363 198.11V198.105Z" fill="#1D1D1D"></path>
<path d="M27.2705 222.285C27.7881 222.9 28.2129 223.638 28.8379 224.121C34.6973 228.647 37.8662 235.093 41.2451 241.387C41.5234 241.904 41.7725 242.402 41.3037 243.149C36.8701 237.217 30.2832 233.867 24.9951 228.989C25.0635 224.077 25.8154 219.243 26.6309 214.419C28.5791 214.946 29.834 216.489 31.2695 217.72C35.625 221.44 39.1895 225.796 41.5723 231.055C41.7383 231.421 41.8994 231.797 42.0215 232.183C42.0654 232.319 41.9922 232.49 41.9189 233.057C36.7236 229.692 32.7197 225.068 27.5928 221.963C27.4072 221.826 27.2168 221.685 27.0313 221.543C26.8701 221.47 26.7139 221.396 26.5527 221.323C26.6309 221.479 26.709 221.641 26.7822 221.797C26.9434 221.958 27.1045 222.119 27.2705 222.285Z" fill="#1D1D1D"></path>
<path d="M362.812 403.252C365.366 405.01 367.192 407.476 369.067 409.858C373.267 415.195 377.856 420.259 380.933 426.401C381.362 427.266 381.953 428.081 381.797 429.131C379.541 430.669 377.285 432.212 375.024 433.75C372.266 423.823 367.969 414.536 363.325 405.386C362.993 404.736 362.666 404.082 362.734 403.315L362.808 403.252H362.812Z" fill="#1D1D1D"></path>
<path d="M48.9014 145.464C52.373 145.317 55.5566 146.636 58.8135 147.505C61.665 148.267 64.4385 149.321 67.7783 150.425C63.9209 151.709 60.5762 152.71 57.3242 153.936C53.2422 155.474 49.2334 157.217 45.1807 158.843C44.3066 159.194 43.5107 159.868 42.4609 159.639C42.8857 156.724 44.5898 154.331 45.7617 151.729C46.7188 149.6 47.8516 147.549 48.9063 145.464H48.9014Z" fill="#1D1D1D"></path>
<path d="M383.491 427.671C378.599 415.649 372.651 404.136 366.67 392.637C365.337 388.965 363.11 385.752 361.357 382.295C359.868 379.355 357.627 376.787 356.938 373.447C367.578 388.838 377.051 404.849 383.062 422.7C383.545 424.131 383.682 425.713 384.683 426.953C384.414 427.412 384.053 427.705 383.491 427.671Z" fill="#D3CFE8"></path>
<path d="M32.29 243.628C30.7275 241.406 29.1357 239.204 27.622 236.953C26.831 235.776 25.9228 234.814 24.5312 234.39C24.5458 234.058 24.5556 233.721 24.5703 233.389C24.9169 232.925 25.0585 232.461 24.5263 232.021C24.5117 231.489 24.5148 231.032 24.5001 230.5C24.7394 230.515 25.0976 230.366 25.1757 230.483C27.871 234.692 30.83 238.76 32.2607 243.647L32.2851 243.628H32.29Z" fill="#1D1D1D"></path>
<path d="M109.858 423.843C110.498 422.402 109.126 421.65 108.726 420.566C108.374 419.609 107.871 418.711 107.637 417.656C110.063 420.537 112.52 423.374 114.243 426.748C112.573 426.636 110 425.5 109.858 423.843C109.907 423.428 110.688 423.477 109.854 423.809V423.843H109.858Z" fill="#D3CFE8"></path>
<path d="M24.4971 235.83C27.0166 237.9 26.7676 241.055 27.6953 243.76C26.6846 241.558 24.1309 240.142 24.3994 237.324C24.4287 236.826 24.4629 236.328 24.4922 235.83H24.4971Z" fill="#1D1D1D"></path>
<path d="M112.383 337.466C112.705 337.441 113.062 337.495 113.35 337.383C114.116 337.08 115.718 338.081 115.562 336.46C115.435 335.122 115.439 333.125 113.066 333.325C107.139 333.828 101.216 333.208 95.3125 332.925C85.0342 332.432 74.7803 331.44 64.5166 330.659C62.5977 328.418 60.6787 326.177 58.7598 323.936L58.9648 323.579C61.1426 324.492 63.3154 325.425 65.5078 326.309C65.9424 326.484 66.6357 327.407 66.8408 326.069C71.377 325.596 75.8398 324.463 80.4395 324.575C85.4199 325.898 90.4834 324.663 95.8984 325.527C94.8779 324.194 93.7256 324.414 92.9932 323.794C99.1455 322.852 105.298 321.904 111.558 322.144C114.189 326.309 116.558 330.654 120.269 334.844C117.778 327.261 114.604 320.479 114.092 312.969C114.116 310.693 114.141 308.418 114.165 306.147C114.404 302.524 114.717 298.901 114.868 295.273C115.107 289.497 115.972 283.799 117.012 278.13C118.374 270.669 119.595 263.203 119.199 255.576C119.165 254.932 119.214 254.282 119.277 253.638C119.897 247.656 120.391 241.675 119.741 235.61C119.668 236.245 119.59 236.885 119.482 237.827C116.382 231.87 116.035 225.674 116.895 219.648C117.964 212.183 119.722 204.795 121.509 197.441C123.438 189.502 125.645 181.646 127.769 173.76C129.888 165.884 133.071 158.687 138.569 152.617C142.061 148.76 145.439 144.766 149.248 141.24C154.224 136.631 156.099 130.996 156.348 124.458C156.465 121.44 157.275 118.486 158.721 115.771C160.024 115.454 160.967 114.57 161.958 113.745C165.317 110.942 168.95 108.584 172.993 106.836C178.33 104.526 183.95 104.668 189.482 105.142C193.34 105.469 197.314 106.23 200.576 108.76C200.889 109.99 200.498 111.323 201.089 112.515C201.538 120.303 200.952 128.047 199.57 135.688C198.374 142.305 196.895 148.901 192.534 154.38C191.465 155.723 189.551 157.075 192.051 158.936C190.283 159.458 188.73 159.922 187.012 160.43C187.427 160.737 187.671 161.079 187.93 161.084C190.688 161.162 191.538 162.729 191.392 165.249C191.294 166.948 191.367 168.662 191.367 170.371C191.035 171.006 190.874 171.66 191.147 172.363C190.894 175 190.811 177.632 191.333 180.254C191.299 180.303 191.221 180.361 191.23 180.396C191.26 180.503 191.323 180.601 191.372 180.703C191.562 185.752 192.715 190.605 194.473 195.312C195.166 197.173 196.426 198.779 198.193 199.688C202.637 201.968 207.236 203.862 212.319 204.189C212.798 204.541 213.315 204.629 213.872 204.399C218.931 204.502 223.984 204.609 229.043 204.712C228.232 205.967 226.729 205.723 225.581 206.27C219.521 209.165 214.57 213.457 210.181 218.403C204.355 224.976 200.625 232.705 198.833 241.265C197.261 248.77 197.305 256.396 198.232 264.004C199.258 272.383 201.577 280.361 206.094 287.544C207.852 290.342 209.922 293.032 213.315 294.16C213.867 294.341 214.434 294.624 214.932 294.238C215.562 293.75 214.985 293.164 214.829 292.695C214.307 291.147 213.545 289.673 213.521 287.48C215.454 289.507 217.158 291.099 219.033 292.51C224.365 296.528 231.602 295.127 234.16 290.469C235.972 287.173 237.256 283.75 237.886 280.005C238.418 276.831 238.032 273.516 239.336 270.464C241.792 275.112 243.14 280.088 243.682 285.303C243.794 286.401 244.053 287.48 244.243 288.569C244.272 291.338 244.302 294.102 244.331 296.87C243.413 307.461 240.508 317.476 235.249 326.719C229.902 336.113 226.953 346.24 224.937 356.782C223.838 362.529 222.31 368.213 220.112 373.691C217.896 379.214 214.287 383.574 209.614 387.158C206.934 389.214 203.809 390.864 202.642 394.375C202.261 395.522 201.65 394.565 201.387 394.438C199.585 393.579 197.842 392.603 195.84 391.538V396.313C193.745 393.633 192.036 391.445 189.829 388.623C190.64 394.707 191.875 400.068 191.27 405.591C189.102 404.98 186.787 404.785 184.956 403.301C183.633 402.222 183.53 403.008 183.545 404.121C183.555 404.688 183.545 405.259 183.545 406.069C179.668 404.751 177.446 401.353 174.082 399.146C174.341 401.245 174.58 403.076 174.785 404.912C174.946 406.338 174.17 406.855 172.876 406.67C163.716 405.361 154.717 403.433 146.245 399.575C141.797 397.554 138.223 394.429 135.356 390.483C133.008 386.235 130.659 381.992 128.311 377.744C125.762 371.509 122.612 365.522 120.479 359.116C120.161 358.682 119.839 358.247 119.517 357.812C120.059 355.952 118.804 354.458 118.496 352.773C118.633 350.674 117.725 350.024 115.674 350.503C114.6 350.752 113.423 350.562 112.29 350.566C112.422 349.81 112.817 349.189 113.311 348.623C114.336 348.755 115.361 348.916 116.392 348.999C116.938 349.043 117.72 349.014 117.656 348.276C117.524 346.704 118.374 344.868 116.616 343.657C116.86 342.563 117.134 341.543 115.391 342.554C113.901 343.418 112.744 344.653 111.455 345.747C110.635 345.718 109.819 345.684 108.999 345.654C109.482 342.661 111.699 340.381 112.378 337.471L112.383 337.466ZM195.811 127.207C196.021 117.842 191.626 113.638 186.543 112.026C179.805 109.888 171.68 112.339 167.178 117.832C161.504 124.761 162.549 132.861 169.829 138.105C172.876 140.298 176.235 141.816 179.858 142.852C181.851 143.423 184.023 144.165 185.845 143.799C188.74 143.218 191.304 141.504 192.827 138.652C194.766 135.015 196.104 131.25 195.811 127.207Z" fill="#D3CFE8"></path>
<path d="M239.331 270.464C238.027 273.516 238.413 276.831 237.881 280.005C237.256 283.75 235.967 287.168 234.155 290.469C231.597 295.132 224.36 296.528 219.028 292.51C217.158 291.099 215.449 289.507 213.516 287.48C213.54 289.673 214.307 291.147 214.824 292.695C214.985 293.169 215.562 293.755 214.927 294.238C214.429 294.619 213.862 294.341 213.311 294.16C209.912 293.032 207.847 290.342 206.089 287.544C201.572 280.361 199.253 272.383 198.228 264.004C197.3 256.396 197.256 248.77 198.828 241.265C200.62 232.71 204.351 224.976 210.176 218.403C214.561 213.457 219.517 209.16 225.576 206.27C226.719 205.723 228.223 205.967 229.038 204.712C229.683 204.712 230.322 204.712 230.967 204.712C231.118 204.956 231.274 204.976 231.436 204.722C231.782 204.736 232.129 204.746 232.471 204.761C232.964 205.234 233.472 205.166 233.984 204.795L234.17 204.756L234.312 204.878C234.185 205.063 234.053 205.249 233.926 205.43C228.897 211.943 227.217 219.561 226.665 227.544C226.016 236.274 228.33 244.453 231.519 252.412C233.955 258.496 236.719 264.448 239.341 270.459L239.331 270.464Z" fill="#EFEEFF"></path>
<path d="M333.286 315.479C333.359 315.772 333.433 316.064 333.506 316.357C332.3 317.661 330.981 318.882 329.932 320.298C329.141 321.362 328.442 321.382 327.51 320.713C322.432 317.075 316.641 314.497 311.875 310.41C308.774 307.754 306.567 304.297 304.233 300.996C297.271 291.143 289.219 282.256 280.527 273.921C280.117 273.525 279.722 273.115 279.321 272.71C278.613 271.997 277.837 271.206 278.564 270.181C279.316 269.116 280.21 269.961 280.923 270.356C286.953 273.716 292.661 277.598 298.345 281.499C299.658 282.402 300.977 283.296 302.324 284.214C303.042 282.988 302.021 282.329 301.968 281.499C301.895 280.356 300.898 278.897 302.856 278.301C307.681 281.958 311.475 286.641 315.518 291.069C319.57 295.508 323.052 300.405 326.66 305.2C328.989 308.545 330.708 312.285 333.296 315.469L333.286 315.479Z" fill="#665DFF"></path>
<path d="M163.633 437.92C159.443 437.7 155.947 435.566 152.393 433.691C149.673 432.256 147.085 430.562 144.492 428.897C142.588 427.676 138.574 428.281 138.584 428.32L138.574 428.281C131.367 421.318 122.573 415.356 114.702 409.233C114.805 409.106 114.912 408.984 115.015 408.857C119.424 410.732 123.379 413.418 127.534 415.752C130.347 417.334 133.213 418.823 136.079 420.308C136.68 420.62 137.305 421.206 138.403 420.493C136.392 418.301 134.409 416.143 132.109 413.638C135.742 413.438 138.56 416.309 142.129 415.327C138.354 411.025 133.564 408.247 128.955 405.229C134.038 405.776 138.794 407.476 143.638 408.98C143.931 409.072 144.248 409.072 144.551 409.116C147.261 413.315 149.922 417.549 152.686 421.709C156.294 427.144 159.985 432.52 163.638 437.92H163.633Z" fill="#D3CFE8"></path>
<path d="M343.252 387.153C343.332 387.761 343.576 389.162 343.149 388.721C341 386.5 340.855 384.307 339.922 382.105C334.932 370.254 327.632 359.829 320.151 349.502C318.916 347.798 317.817 345.991 316.655 344.233C316.294 343.687 315.933 343.14 315.996 342.441C316.05 341.821 315.728 341.03 316.382 340.64C317.173 340.166 317.852 340.806 318.272 341.323C319.702 343.086 321.045 344.922 322.388 346.753C328.34 354.868 334.58 362.783 339.941 371.299C346.812 382.207 353.101 393.457 358.232 405.381C356.904 405.293 355.477 404.868 353.95 404.106C356.24 409.409 356.89 414.6 358.35 419.59C358.667 422.407 358.984 425.225 359.302 428.047C358 425.5 358.018 422.979 357.603 420.928C354.829 407.241 349.507 394.517 342.915 382.28C342.749 381.973 342.681 381.465 342.08 381.611C341.655 382.256 342.237 382.7 342.275 383.403C342.294 383.741 342.3 384.268 342.3 384.268C342.3 384.268 342.595 385.16 342.783 385.732C342.966 386.287 343.175 386.574 343.252 387.153Z" fill="#D3CFE8"></path>
<path d="M308.462 317.427C305.669 314.302 303.691 311.157 301.782 308.008C298.823 303.12 295.264 298.716 291.382 294.57C286.836 289.707 282.144 284.976 277.515 280.19C277.344 280.015 277.144 279.858 277.012 279.663C276.45 278.814 275.371 277.92 276.284 276.899C277.119 275.967 278.408 276.143 279.419 276.821C282.056 278.594 284.429 280.723 286.553 283.042C289.609 286.382 292.842 289.609 295.215 293.521C295.791 294.468 296.982 295.303 295.684 296.685C295.171 297.231 296.133 297.759 296.523 298.228C299.844 302.207 303.223 306.138 306.48 310.166C308.76 312.983 308.687 313.042 308.457 317.432L308.462 317.427Z" fill="#665DFF"></path>
<path d="M312.344 350.732C315.557 356.724 318.823 362.686 321.973 368.711C324.399 373.354 326.548 378.125 327.91 383.213C322.798 373.34 317.334 363.677 311.528 354.204C307.671 347.91 303.696 341.694 299.785 335.439C299.272 334.619 298.818 333.76 298.335 332.92C304.268 337.861 308.462 344.175 312.344 350.732Z" fill="#D3CFE8"></path>
<path d="M280.054 321.538C281.919 324.531 283.813 327.51 285.649 330.522C289.937 337.573 293.823 344.834 296.86 352.52L296.885 352.5C293.999 349.062 292.285 344.912 289.985 341.113C285.991 334.521 282.231 327.788 278.384 321.108C278.145 320.693 278.013 320.22 277.832 319.771C278.833 320.029 279.287 320.981 280.054 321.533V321.538Z" fill="#D3CFE8"></path>
<path d="M164.121 438.369C163.838 438.34 163.613 438.247 163.608 437.91C163.779 438.062 163.95 438.218 164.121 438.369Z" fill="#D3CFE8"></path>
<path d="M230.967 204.712C230.322 204.712 229.683 204.712 229.038 204.712C223.98 204.609 218.926 204.502 213.867 204.4C213.398 203.96 212.861 204.024 212.314 204.19C207.231 203.867 202.632 201.968 198.188 199.688C196.421 198.784 195.161 197.178 194.468 195.313C192.715 190.606 191.724 186.397 191 180.5C190.5 176.426 190.099 173.997 190.5 170C190.689 168.122 191.289 166.953 191.387 165.249C191.533 162.725 190.679 161.162 187.925 161.084C187.666 161.074 187.422 160.737 187.007 160.43C188.726 159.922 190.278 159.458 192.046 158.936C189.546 157.075 191.465 155.723 192.529 154.38C196.89 148.897 198.374 142.3 199.565 135.689C200.947 128.047 200.414 120.953 200.5 111.5C200.527 108.571 200.091 106.9 200.5 104C201.152 99.3779 202.534 96.4112 204.761 92.8321C203.721 92.8321 202.896 92.6808 202.144 92.8566C191.484 95.2833 180.879 97.8468 170.713 102.026C164.307 104.658 160.522 109.287 158.716 115.781C157.271 118.501 156.46 121.45 156.343 124.468C156.094 131.006 154.219 136.641 149.243 141.25C145.435 144.776 142.061 148.775 138.564 152.627C133.066 158.696 129.883 165.894 127.764 173.77C125.64 181.655 123.438 189.512 121.504 197.451C119.717 204.81 117.959 212.192 116.89 219.658C116.025 225.684 116.377 231.875 119.478 237.837C119.59 236.895 119.663 236.26 119.736 235.62C120.386 241.68 119.893 247.666 119.272 253.648C119.204 254.292 119.16 254.942 119.194 255.586C119.585 263.213 118.369 270.684 117.007 278.14C115.972 283.809 115.107 289.507 114.863 295.283C114.712 298.911 114.399 302.529 114.16 306.157C114.087 312.979 114.16 306.157 114.087 312.979C114.6 320.488 117.773 327.276 120.264 334.854C116.558 330.669 114.185 326.323 111.553 322.153C107.188 313.208 103.018 304.17 99.3311 294.927C96.875 288.779 94.6485 282.539 92.3194 276.338C92.2119 275.654 92.4609 274.868 91.7334 274.37C91.9483 273.379 91.2988 272.549 91.211 271.616C91.333 271.172 91.2695 270.786 90.8643 270.508C89.9024 265.503 88.6133 260.537 88.0469 255.484C86.8164 244.507 85.8057 233.506 86.1475 222.422C86.8994 198.301 92.5928 175.21 100.61 152.617C104.067 142.876 108.74 133.687 114.014 124.795C119.619 115.352 125.859 106.401 133.857 98.7892C138.882 94.0089 144.614 90.171 150.43 86.4503L150.391 86.4894C150.532 86.4454 150.674 86.4112 150.815 86.3917C160.146 82.129 169.99 80.3175 180.186 79.5216C189.185 78.8136 197.935 79.7755 206.724 81.4064C211.187 82.2364 215.723 82.5489 220.229 81.3722C221.001 81.172 221.831 81.2062 222.632 81.1329C222.051 82.3146 220.601 82.5099 219.893 83.5499C216.704 85.3321 214.605 88.0226 213.355 91.4113C211.23 97.1827 211.284 103.145 211.675 109.17C211.958 113.604 212.847 118.013 212.314 122.485C211.704 127.578 211.128 132.681 210.435 137.764C209.653 143.491 209.702 149.443 205.815 154.605C214.16 153.848 222.227 154.219 230.244 154.942C238.398 155.679 246.489 157.002 254.536 158.652C266.235 161.05 277.651 164.326 288.906 168.276C308.701 175.23 326.968 185.283 344.888 196.001C355.61 202.417 365.903 209.497 376.045 216.787C385.244 224.165 394.189 231.836 402.534 240.186C409.59 247.246 416.899 254.136 422.329 262.568C428.828 272.661 433.965 283.447 435.381 295.567C436.055 301.318 436.45 307.168 434.146 312.759C433.862 313.482 433.438 314.102 432.803 314.566C432.246 312.803 431.685 311.04 431.128 309.277C430.435 306.245 429.282 303.384 427.715 300.708C423.73 293.911 418.486 288.13 412.773 282.788C398.159 269.121 381.738 257.9 364.756 247.432C357.637 243.042 350.225 239.097 343.677 233.838C340.161 231.016 336.821 227.979 334.233 223.413C336.558 224.512 338.315 225.337 340.073 226.167C334.531 218.833 327.515 212.857 322.598 204.512C324.336 205.112 325.195 206.348 326.929 206.411C323.521 201.128 320.303 196.128 316.709 190.552C323.301 192.695 328.355 196.558 334.087 198.97C332.871 197.979 331.587 197.119 330.278 196.314C320.942 190.581 311.885 184.4 301.709 180.093C286.636 173.711 271.055 169.019 255.176 165.181C244.17 162.525 233.164 160.029 221.846 158.98C217.812 158.609 213.779 158.721 209.746 158.316C206.572 157.993 203.281 157.276 199.873 158.145C203.77 159.707 206.03 162.647 207.314 166.377C208.999 171.279 210.938 176.069 213.257 180.708C217.734 189.653 224.087 196.655 233.55 200.484C237.568 202.109 241.567 203.789 245.576 205.444C241.885 205.718 238.252 204.805 234.565 204.893C234.482 204.819 234.395 204.815 234.307 204.878L234.165 204.756L233.98 204.795C233.477 204.785 232.974 204.771 232.466 204.761C232.119 204.746 231.772 204.736 231.431 204.722C231.274 204.722 231.118 204.717 230.962 204.712H230.967Z" fill="#1D1D1D"></path>
<path d="M199.626 159.445C203.259 158.519 206.818 159.284 209.847 159.591H209.848C211.826 159.792 213.812 159.864 215.832 159.933C217.842 160.001 219.889 160.065 221.938 160.254L223.005 160.356C234.027 161.463 244.747 163.9 255.411 166.479L258.392 167.21C273.277 170.92 287.907 175.433 302.099 181.441C312.36 185.786 321.521 192.032 330.801 197.73C332.137 198.55 333.457 199.436 334.719 200.465C335.104 200.779 335.2 201.329 334.944 201.755C334.688 202.181 334.158 202.354 333.699 202.161C330.772 200.929 328.012 199.324 325.24 197.807C323.28 196.734 321.296 195.694 319.18 194.809C322.135 199.393 324.885 203.664 327.77 208.14C327.971 208.453 327.982 208.852 327.798 209.176C327.614 209.499 327.265 209.694 326.893 209.681C326.356 209.661 325.888 209.55 325.469 209.396C327.425 212.21 329.605 214.788 331.852 217.323C334.885 220.747 338.069 224.126 340.871 227.834C341.148 228.201 341.14 228.71 340.85 229.067C340.559 229.425 340.063 229.537 339.646 229.341C338.786 228.934 337.924 228.529 336.997 228.092C339.143 230.977 341.646 233.196 344.303 235.328C350.786 240.535 358.089 244.416 365.28 248.851C382.28 259.328 398.771 270.594 413.456 284.327C419.206 289.703 424.525 295.56 428.577 302.472L428.578 302.473C430.195 305.233 431.386 308.189 432.103 311.324C432.217 311.824 431.935 312.329 431.45 312.494C430.965 312.659 430.434 312.43 430.22 311.965C426.041 302.88 419.129 295.927 411.914 288.986C402.086 279.532 391.242 271.316 379.963 263.608V263.607C376.695 261.376 373.58 259.099 370.23 257.203C360.344 251.611 351.047 245.44 340.88 240.627L339.894 240.165C327.35 234.375 314.659 229.088 301.588 224.644L298.969 223.767C288.137 220.188 277.174 217.183 266.088 214.557C259.05 212.889 252.129 210.893 245.272 208.67C245.229 208.656 245.186 208.638 245.145 208.618C241.145 206.966 237.173 205.298 233.175 203.681V203.68C223.434 199.734 216.92 192.532 212.362 183.426V183.425C210.02 178.74 208.065 173.908 206.369 168.973L206.131 168.322C204.89 165.121 202.846 162.684 199.501 161.343C199.099 161.182 198.847 160.78 198.875 160.349C198.903 159.917 199.207 159.552 199.626 159.445Z" fill="#665DFF" stroke="#1D1D1D" stroke-width="2" stroke-linejoin="round"></path>
<path d="M245.576 205.449C241.567 203.794 237.568 202.114 233.55 200.488C224.087 196.655 217.734 189.658 213.257 180.713C210.938 176.074 208.999 171.284 207.314 166.382C206.03 162.651 203.77 159.712 199.873 158.15C203.281 157.28 206.567 157.998 209.746 158.32C213.779 158.731 217.817 158.613 221.846 158.984C233.164 160.029 244.17 162.525 255.176 165.186C271.055 169.024 286.636 173.716 301.709 180.098C311.88 184.404 320.942 190.586 330.278 196.318C331.592 197.124 332.871 197.983 334.087 198.975C328.355 196.563 323.301 192.7 316.709 190.557C320.303 196.128 323.521 201.128 326.929 206.416C325.195 206.353 324.331 205.117 322.598 204.517C327.52 212.857 334.531 218.838 340.073 226.172C338.315 225.342 336.558 224.512 334.233 223.418C336.821 227.983 340.161 231.021 343.677 233.843C350.225 239.102 357.637 243.047 364.756 247.437C381.733 257.9 398.159 269.126 412.773 282.793C418.486 288.135 423.73 293.916 427.715 300.713C429.282 303.389 431 311 431 311C431 311 423 295.5 412.607 286.001C402.725 276.494 391.831 268.242 380.527 260.518C377.295 258.311 374.121 255.991 370.723 254.067C360.605 248.345 350.913 241.89 340.313 236.992C326.909 230.806 313.325 225.186 299.282 220.552C288.418 216.963 277.427 213.95 266.318 211.318C259.312 209.658 252.417 207.671 245.581 205.454L245.576 205.449Z" fill="#665DFF"></path>
<path d="M434.146 312.754C436.45 307.163 436.05 301.314 435.381 295.562C433.965 283.443 428.828 272.656 422.329 262.564C416.899 254.131 409.59 247.241 402.534 240.181C394.189 231.831 385.249 224.16 376.045 216.782C378.364 216.587 380.005 218.11 381.587 219.331C395.322 229.951 408.237 241.465 419.121 255.078C427.163 265.137 433.242 276.231 436.206 288.858C436.768 291.26 436.958 293.75 437.368 296.504C438.149 295.474 437.949 294.644 437.954 293.882C437.998 288.941 437.974 284.014 437.549 279.063C436.88 271.255 435.732 263.55 434.268 255.864C431.333 240.459 426.05 225.874 419.487 211.66C410.488 192.168 398.442 175.01 382.744 160.264C367.92 146.343 351.592 134.453 334.868 123.032C323.657 115.376 312.329 107.925 299.746 102.608C274.189 91.8019 247.388 86.255 219.902 83.545C220.61 82.505 222.061 82.3097 222.642 81.1281C224.165 81.0939 225.474 80.0245 227.041 80.2101C227.427 80.5812 227.91 80.6105 228.403 80.6154C233.032 80.6447 237.583 81.5284 242.119 82.2267C251.865 83.7257 261.484 85.9132 271.03 88.4181C285.664 92.256 299.917 97.1925 313.394 104.077C327.856 111.465 341.465 120.269 354.448 130.049C367.28 139.717 379.722 149.795 390.537 161.773C396.631 168.521 402.5 175.44 407.549 182.988C414.722 193.721 421.172 204.859 426.299 216.773C432.578 231.367 437.119 246.397 439.502 262.109C439.829 264.273 439.351 266.807 441.289 268.579C441.299 268.887 441.279 282.393 441.289 282.7C441.343 290.195 440.044 297.51 438.174 304.722C437.676 306.636 437.627 308.735 436.382 310.425C435.532 311.099 435.771 312.822 434.146 312.754Z" fill="#D3CFE8"></path>
<path d="M441.289 268.579C439.351 266.807 439.829 264.268 439.502 262.109C437.114 246.397 432.578 231.367 426.299 216.773C421.172 204.854 414.722 193.721 407.549 182.988C402.505 175.44 396.631 168.521 390.537 161.773C379.722 149.795 367.28 139.722 354.448 130.049C341.465 120.269 327.856 111.465 313.394 104.077C299.917 97.1924 285.664 92.2608 271.03 88.418C261.484 85.9132 251.865 83.7257 242.119 82.2266C237.583 81.5284 233.032 80.6495 228.403 80.6153C227.91 80.6153 227.427 80.5811 227.041 80.21C232.7 79.6534 238.276 80.5665 243.896 81.0108C251.27 81.5919 258.545 82.754 265.762 84.2432C283.413 87.876 300.566 93.1446 317.075 100.43C317.295 100.527 317.544 100.562 317.778 100.625C323.555 103.56 329.385 106.401 335.103 109.453C355.449 120.313 373.154 134.556 389.189 151.079C400.317 162.549 409.482 175.303 417.075 189.312C427.598 208.716 435.254 229.131 439.185 250.879C440.034 255.586 441.172 262.695 441.255 267.505C441.27 267.866 441.279 268.223 441.294 268.584L441.289 268.579Z" fill="#D3CFE8"></path>
<path d="M234.307 204.878C234.399 204.814 234.482 204.819 234.565 204.893C234.351 205.073 234.131 205.254 233.916 205.43C234.048 205.244 234.175 205.059 234.302 204.873L234.307 204.878Z" fill="#D3CFE8"></path>
<path d="M299.741 345.835C310.029 361.499 315.557 378.408 321.323 395.215C311.27 380.239 303.77 364.15 299.741 345.835Z" fill="#D3CFE8"></path>
<path d="M356.939 373.447C357.627 376.787 359.868 379.351 361.357 382.295C363.106 385.752 365.337 388.965 366.67 392.637C365.444 392.817 365.269 391.704 364.873 391.03C356.875 377.422 348.467 364.082 339.399 351.157C339.067 350.684 338.774 350.205 338.838 349.6L338.853 349.585C343.887 354.639 347.974 360.459 352.153 366.196C353.794 368.452 355.274 370.83 356.826 373.149C356.777 373.188 356.729 373.228 356.68 373.271C356.773 373.354 356.86 373.433 356.953 373.516L356.939 373.452V373.447Z" fill="#D3CFE8"></path>
<path d="M270.493 320.806C273.462 325.415 275.747 330.352 277.573 335.513C275.107 330.654 272.266 325.981 270.522 320.776L270.493 320.806Z" fill="#D3CFE8"></path>
<path d="M356.958 373.516C356.865 373.433 356.777 373.354 356.685 373.271C356.733 373.232 356.782 373.188 356.831 373.149C356.885 373.267 356.929 373.389 356.958 373.511V373.516Z" fill="#D3CFE8"></path>
<path d="M325.234 336.851C325.298 336.938 325.361 337.026 325.425 337.119C325.332 337.061 325.239 336.997 325.146 336.938L325.234 336.851Z" fill="#1D1D1D"></path>
<path d="M114.688 409.238C114.292 408.984 113.896 408.735 113.394 408.413C114.199 408.125 114.531 408.686 115.005 408.862C114.902 408.989 114.795 409.111 114.692 409.238H114.688Z" fill="#D3CFE8"></path>
<path d="M46.3477 325.22C47.3096 325.181 48.1885 324.897 48.9746 324.326C50.3125 325.728 51.4648 327.256 52.29 329.019C50.9863 328.857 49.6826 328.701 48.3789 328.54C47.7002 327.432 47.0215 326.328 46.3477 325.22Z" fill="#D3CFE8"></path>
<path d="M158.726 115.771C160.532 109.277 164.316 104.648 170.723 102.017C180.889 97.8417 189.373 93.2231 202.153 92.8466C203.175 92.8165 203.73 92.8222 204.771 92.8222C202.544 96.4062 201.845 99.5458 201.079 104.126C200.779 105.917 200.84 107.217 200.581 108.75C197.319 106.221 193.35 105.459 189.487 105.132C183.955 104.658 178.335 104.521 172.998 106.826C168.955 108.574 165.327 110.928 161.963 113.735C160.972 114.56 160.029 115.444 158.726 115.762V115.771Z" fill="#D3CFE8"></path>
<path d="M195.81 127.207C196.108 131.25 194.766 135.019 192.827 138.652C191.309 141.504 188.745 143.218 185.845 143.799C184.023 144.165 181.851 143.418 179.858 142.851C176.23 141.816 172.871 140.298 169.829 138.105C162.549 132.861 161.504 124.761 167.178 117.832C171.675 112.339 179.805 109.888 186.543 112.026C191.626 113.642 196.02 117.842 195.81 127.207ZM194.927 126.206C194.927 117.881 189.893 112.798 181.704 112.744C172.944 112.69 166.445 118.672 166.47 127.075C166.494 135.215 172.661 141.133 181.191 141.133C189.453 141.133 194.927 135.181 194.927 126.206Z" fill="#1D1D1D"></path>
<path d="M232.471 204.761C232.974 204.771 233.481 204.785 233.984 204.795C233.472 205.166 232.964 205.234 232.471 204.761Z" fill="#D3CFE8"></path>
<path d="M230.967 204.712C231.123 204.712 231.279 204.717 231.436 204.722C231.274 204.976 231.118 204.956 230.967 204.712Z" fill="#D3CFE8"></path>
<path d="M219.902 83.5449C247.388 86.2549 274.189 91.8018 299.746 102.607C312.329 107.925 323.657 115.376 334.868 123.032C351.592 134.453 367.92 146.343 382.744 160.264C398.442 175.01 410.488 192.163 419.487 211.66C426.05 225.874 431.338 240.459 434.268 255.864C435.732 263.545 436.875 271.255 437.549 279.062C437.974 284.014 437.993 288.94 437.954 293.882C437.949 294.644 438.149 295.474 437.368 296.504C436.963 293.755 436.772 291.265 436.206 288.857C433.242 276.226 427.168 265.132 419.121 255.078C408.237 241.465 395.322 229.951 381.587 219.331C380.005 218.11 378.369 216.587 376.045 216.782C365.903 209.487 355.61 202.407 344.888 195.996C326.963 185.273 308.701 175.225 288.906 168.271C277.656 164.321 266.24 161.04 254.536 158.647C246.484 156.997 238.394 155.674 230.244 154.937C222.231 154.214 214.16 153.843 205.815 154.6C209.702 149.443 209.653 143.486 210.435 137.759C211.128 132.676 211.709 127.578 212.314 122.48C212.847 118.013 211.963 113.599 211.675 109.165C211.284 103.14 211.23 97.1777 213.354 91.4062C214.604 88.0176 216.704 85.3271 219.893 83.5449H219.902Z" fill="#EFEEFF"></path>
<path d="M194.927 126.206C194.927 135.186 189.453 141.133 181.191 141.133C172.666 141.133 166.494 135.22 166.47 127.075C166.445 118.672 172.944 112.691 181.704 112.744C189.893 112.793 194.927 117.881 194.927 126.206ZM187.959 118.062C183.916 116.265 179.834 115.991 175.703 117.774C170.762 119.614 168.667 125.068 170.942 130.63C172.617 134.722 175.644 137.07 180.234 137.324C184.853 137.583 188.345 135.943 190.43 131.743C191.704 129.175 191.65 126.397 191.333 123.618C191.533 118.901 191.47 118.804 187.959 118.057V118.062Z" fill="#665DFF"></path>
<path d="M191.333 123.628C191.65 126.406 191.699 129.18 190.43 131.748C188.35 135.947 184.853 137.583 180.234 137.329C175.644 137.075 172.617 134.727 170.942 130.635C168.667 125.073 170.762 119.619 175.703 117.778C175.176 118.486 174.541 119.141 174.145 119.917C173.823 120.562 172.9 121.274 173.574 122.007C174.145 122.622 174.932 121.973 175.561 121.655C178.457 120.2 181.45 120.366 184.482 121.094C184.087 122.637 183.52 124.175 185.239 125.381C186.977 126.597 188.389 125.684 189.814 124.795C190.352 124.458 190.825 124.019 191.328 123.628H191.333Z" fill="#1D1D1D"></path>
<path d="M184.487 121.094C181.455 120.366 178.462 120.2 175.566 121.655C174.936 121.973 174.15 122.622 173.579 122.007C172.9 121.274 173.823 120.562 174.15 119.917C174.541 119.141 175.176 118.486 175.708 117.778C179.839 115.996 183.916 116.27 187.964 118.066C186.807 119.077 185.649 120.088 184.492 121.094H184.487Z" fill="#665DFF"></path>
<path d="M184.024 121.01C184.024 121.01 185.901 117.661 187.915 117.566C190.759 117.433 193.402 121.574 191.697 123.892C191.198 124.57 190.602 124.837 190 125.22C188.402 126.231 186.821 127.275 184.873 125.886C182.946 124.514 184.024 121.01 184.024 121.01Z" fill="#D3CFE8"></path>
</g>
</g>
<defs>
<clipPath id="clip0_67_5416">
<rect width="500" height="500" rx="250" fill="white"></rect>
</clipPath>
<clipPath id="clip1_67_5416">
<rect width="500" height="500" fill="white"></rect>
</clipPath>
</defs>
</svg>