<svg width="500" height="500" viewBox="0 0 500 500" fill="none" xmlns="http://www.w3.org/2000/svg">
<g clip-path="url(#clip0_53_5065)">
<rect width="500" height="500" rx="250" transform="matrix(-1 0 0 1 500 0)" fill="#1D1D1D"></rect>
<g clip-path="url(#clip1_53_5065)">
<path d="M250.283 539.949C345.989 539.949 441.695 539.943 537.4 540C539.524 540 540 539.524 540 537.4C539.943 345.802 539.943 154.198 540 -37.4002C540 -39.5242 539.524 -40 537.4 -40C345.802 -39.9434 154.204 -39.9434 -37.4002 -40C-39.5242 -40 -40 -39.5242 -40 -37.4002C-39.9434 154.198 -39.9434 345.796 -40 537.395C-40 539.519 -39.5242 540 -37.4002 539.994C58.4924 539.932 154.391 539.943 250.283 539.943V539.949ZM129.78 410.469C133.218 410.497 136.662 410.44 140.1 410.576C142.575 410.672 145.079 409.942 147.531 410.786C148.188 410.803 148.857 410.899 149.508 410.831C158.707 409.874 167.95 409.659 177.177 409.126C182.83 408.803 188.471 408.316 194.118 407.903C193.082 407.444 192.057 407.45 191.031 407.444C183.515 407.41 176.027 408.39 168.505 407.999C168.222 407.982 167.928 407.965 167.662 408.027C162.343 409.279 156.86 407.88 151.536 409.03C141.499 409.047 131.468 409.064 121.431 409.081C112.924 409.081 104.485 410.406 95.9601 410.253C89.9732 410.151 83.9807 410.27 78.0107 409.676C74.2271 409.302 70.4265 409.007 66.6826 408.379C58.6566 407.03 50.676 405.399 42.6443 404.062C39.5744 403.553 37.1785 402.59 35.5699 399.628C33.8537 396.467 31.5371 393.635 29.6 390.588C24.3098 382.284 19.1045 373.924 14.8904 364.997C14.5052 364.369 14.0635 363.768 13.7406 363.111C10.9539 357.385 8.42206 351.557 5.96954 345.672C2.42383 337.147 -0.527161 328.447 -3.09296 319.6C-3.11566 319.226 -3.07031 318.824 -3.17792 318.479C-7.48828 304.783 -9.89551 290.691 -11.5834 276.479C-12.382 269.734 -12.4613 262.897 -12.8691 256.106C-13.5488 250.13 -13.6395 244.155 -12.8182 238.185C-12.7728 237.975 -12.7219 237.76 -12.6766 237.55C-12.6029 230.827 -11.9459 224.161 -11.1756 217.477C-10.0428 207.633 -8.42285 197.891 -6.1629 188.25C-2.84375 174.107 1.72711 160.361 7.41949 147.022C27.34 100.327 58.1808 62.4006 99.5115 32.9758C124.541 15.1566 151.978 2.37852 181.567 -5.73809C192.289 -8.67773 203.164 -10.9207 214.248 -12.3594C223.792 -13.5998 233.342 -14.6193 242.931 -14.9932C250.346 -15.282 257.777 -14.9309 265.208 -14.6193C276.366 -14.1549 287.371 -12.7219 298.32 -10.8584C315.697 -7.89609 332.559 -2.94571 348.832 3.80586C399.945 25.0178 440.732 58.8322 471.312 104.932C481.496 120.282 489.805 136.617 496.545 153.768C499.366 160.944 501.898 168.222 504.096 175.591C505.999 181.986 507.386 188.545 508.74 195.087C510.541 203.764 512.229 212.464 512.818 221.346C513.237 227.661 513.9 233.959 514.466 240.263C514.546 241.136 514.404 241.934 513.849 242.631C513.906 242.829 513.957 243.033 514.013 243.231C514.602 247.547 514.302 251.858 513.9 256.168C513.685 259.895 513.736 263.616 513.43 267.36C512.614 277.346 511.323 287.236 509.323 297.04C507.924 303.882 506.786 310.781 504.316 317.357C504.062 321.01 502.555 324.312 501.428 327.717C498.851 335.51 496.053 343.213 492.462 350.611C488.508 360.512 483.257 369.744 478.103 379.039C476.636 381.684 474.801 382.953 471.81 383.151C470.57 383.23 469.228 383.383 468.004 383.712C458.307 386.289 448.367 387.438 438.421 388.05C430.508 388.532 422.578 388.713 414.654 389.234C408.356 389.647 402.261 391.222 396.037 391.879C392.015 392.304 388.05 393.431 383.949 393.012C378.081 393.374 372.219 393.386 366.351 393.012C365.564 392.904 364.771 392.712 363.984 392.712C356.094 392.689 348.204 392.695 340.313 392.717C339.843 392.717 339.135 392.417 339.016 393.295C343.468 393.425 347.943 392.876 352.378 393.652C357.878 393.737 363.378 393.822 368.877 393.907C370.265 393.907 371.658 393.788 373.035 393.924C376.02 394.213 379.056 393.233 381.995 394.32C386.045 393.935 390.129 393.777 394.133 393.108C400.879 391.975 407.659 390.729 414.456 390.559C425.88 390.276 437.288 389.681 448.701 389.268C452.422 389.132 456.07 388.447 459.712 387.812C464.696 386.946 469.641 385.841 474.778 384.799C469.273 392.938 464.271 401.219 458.001 408.605C453.725 417.396 445.903 419.18 437.158 419.152C428.531 421.559 419.661 422.306 410.791 422.618C402.913 422.901 394.994 422.901 387.116 422.097C386.232 422.539 385.122 421.774 384.318 422.635C392.87 423.292 401.412 424.051 410.01 423.887C413.952 423.813 417.9 423.881 421.848 423.858C422.68 423.858 423.513 423.756 424.346 423.666C428.645 423.184 432.938 422.686 437.237 422.199C440.834 420.67 444.73 420.732 449.165 419.593C445.472 424.04 442.306 427.84 438.562 431.108C432.864 437.033 426.838 442.612 420.647 448.016C419.888 448.678 419.004 448.933 418.041 448.741C412.678 447.693 407.2 447.829 401.791 447.143C393.001 446.028 384.131 445.637 375.261 445.354C366.34 445.427 357.646 447.024 349.036 449.25C343.134 450.774 337.04 451.148 331.002 451.527C325.083 451.896 319.124 451.607 313.183 451.607C314.015 451.828 314.848 451.856 315.669 451.958C326.765 453.334 337.884 452.519 348.883 451.38C357.323 450.508 365.722 449.131 374.202 448.605C374.366 448.622 374.53 448.639 374.694 448.65C374.995 448.582 375.289 448.52 375.589 448.452C379.815 447.885 384.023 447.953 388.22 448.718C397.9 449.29 407.586 449.862 417.56 450.451C414.751 453.646 412.054 455.747 407.857 454.982C400.732 453.68 393.493 453.215 386.283 452.609C383.372 452.609 380.455 452.609 377.543 452.609C376.773 452.632 376.008 452.655 375.238 452.671C358.903 455.039 342.46 453.442 325.876 454.082C330.197 454.954 334.417 455.141 338.614 455.419C345.366 455.866 352.129 456.178 358.886 456.54C359.441 456.568 360.002 456.461 360.347 457.095C361.678 459.525 364.21 459.978 366.521 460.607C371.964 462.091 377.611 462.306 383.19 462.889C384.374 463.014 385.167 463.286 385.462 464.492C385.773 465.784 384.51 465.631 383.955 466.016C382.477 467.047 380.744 467.568 379.01 468.038C372.264 469.851 365.366 470.564 358.427 471.17C350.039 471.907 341.667 472.79 333.25 473.045C327.507 473.221 321.752 473.079 316.003 473.079C326.301 474.977 336.626 473.798 346.929 473.583C355.051 473.413 363.174 472.7 371.268 471.912C376.088 471.442 380.942 470.751 385.405 468.593C387.722 467.472 389.126 465.789 388.679 463.031L388.713 462.963C387.875 463.609 387.784 462.612 387.359 462.346C386.583 461.961 385.802 461.575 385.026 461.19C381.18 461.264 377.317 461.332 373.539 460.596C370.14 459.938 366.663 459.593 363.395 458.341C362.647 458.052 361.588 457.933 361.616 456.829C361.644 455.77 362.732 455.951 363.361 455.764C367.592 454.49 371.925 453.821 376.354 453.872C387.75 453.238 398.925 455.271 410.78 456.415C406.657 459.1 403.49 462.057 399.684 464.124C398.891 464.776 398.138 465.489 397.3 466.078C381.927 476.761 365.479 485.455 348.119 492.416C337.555 496.653 326.833 500.414 315.743 503.053C310.249 504.996 304.483 505.812 298.813 506.984C291.971 508.4 285.032 509.193 278.077 509.98C271.246 510.756 264.398 510.977 257.562 511.521C252.696 511.521 247.825 511.521 242.96 511.527C234.044 511.068 225.129 510.496 216.305 509.165C210.42 508.276 204.472 507.636 198.729 505.948C194.702 505.342 190.658 504.804 186.902 503.07C182.116 502.572 177.698 500.663 173.144 499.349C165.713 497.202 158.486 494.478 151.343 491.425C147.26 489.68 143 488.349 139.16 486.021C137.965 485.648 136.702 485.427 135.592 484.877C108.002 471.238 83.4029 453.493 62.0607 431.278C61.4207 430.61 60.5824 430.061 60.5768 428.984C59.7838 429.092 59.3873 428.509 58.9681 428.027C54.4256 422.822 49.8604 417.639 45.3801 412.383C43.341 409.993 41.4775 407.45 39.2459 404.612C43.6978 404.765 47.4135 405.949 51.2141 406.589C62.1004 408.418 72.9131 410.774 84.0203 410.865C90.2848 410.865 96.5492 410.859 102.814 410.854C106.223 410.803 109.633 410.752 113.043 410.701C118.605 409.732 124.195 410.435 129.769 410.435L129.78 410.469Z" fill="#1D1D1D"></path>
<path d="M513.866 242.631C514.421 241.934 514.557 241.136 514.483 240.263C513.917 233.959 513.254 227.661 512.835 221.345C512.246 212.464 510.558 203.764 508.757 195.087C507.398 188.545 506.01 181.986 504.113 175.591C501.921 168.217 499.383 160.944 496.562 153.768C489.828 136.617 481.513 120.282 471.329 104.932C440.749 58.8322 399.962 25.0177 348.849 3.8058C332.582 -2.94576 315.714 -7.90182 298.337 -10.8585C287.389 -12.7219 276.383 -14.1549 265.225 -14.6194C257.794 -14.9309 250.363 -15.2764 242.948 -14.9932C233.353 -14.6194 223.809 -13.5999 214.265 -12.3594C203.187 -10.9208 192.306 -8.67779 181.584 -5.73814C151.995 2.37846 124.558 15.1566 99.5286 32.9757C58.1923 62.4005 27.3571 100.333 7.43655 147.022C1.7442 160.36 -2.82666 174.113 -6.14581 188.25C-8.40576 197.891 -10.0258 207.627 -11.1586 217.477C-11.9289 224.16 -12.5859 230.827 -12.6595 237.55C-11.6626 238.298 -10.5751 238.253 -9.45935 237.924C-4.56561 236.485 0.447083 236.468 5.35217 237.443C17.6262 239.873 29.8606 242.031 42.4858 240.371C47.708 239.686 52.7547 238.598 57.6258 236.672C59.461 235.947 61.3188 235.171 62.967 234.107C71.4291 228.646 80.5596 226.149 90.6586 227.287C95.2918 227.814 99.2737 225.945 102.955 223.288C107.47 220.026 111.23 215.857 115.864 212.719C120.163 209.808 124.62 209.304 129.214 211.66C132.896 213.552 136.424 215.744 140.015 217.8C143.029 219.527 146.183 219.907 149.559 219.018C153.745 217.913 157.902 218.032 162.088 219.312C165.679 220.411 169.434 220.79 173.167 221.227C174.175 219.42 175.183 217.613 176.186 215.806C171.66 211.818 167.39 207.565 163.544 202.926C159.715 198.31 155.484 194.028 152.04 189.1C149.701 187.389 147.628 185.39 145.685 183.249C144.44 182.72 145.685 183.249 144.44 182.72C143.08 181.946 143.397 182.167 143.08 181.946C133.768 175.416 124.399 168.964 115.173 162.309C112.001 160.021 108.914 157.494 107.096 153.841C106.473 152.912 105.77 152.034 105.238 151.054C102.502 146.002 103.125 140.553 103.646 135.189C103.748 134.17 103.108 132.391 104.977 131.91C105.011 131.468 105.045 131.021 105.085 130.579C105.011 128.987 105.096 127.373 104.836 125.815C103.493 117.682 105.918 112.873 113.604 109.667C116.062 108.642 117.529 107.209 118.679 104.904C126.093 90.0298 138.537 85.6968 153.955 91.6837C159.007 93.6435 163.493 96.6171 167.962 99.5851C171.842 102.157 175.925 103.403 180.615 103.363C185.311 103.323 189.91 102.553 194.543 102.072C198.593 101.652 201.691 99.84 202.439 95.2634C202.762 93.281 203.458 91.3156 204.263 89.4634C215.002 64.8248 233.716 49.1919 259.283 41.823C269.337 38.9287 279.731 38.2206 290.311 39.2062C301.096 40.2144 311.421 42.6329 320.92 47.657C351.228 63.6863 367.824 88.3873 367.767 123.306C367.756 129.786 366.493 136.05 364.612 142.23C362.789 148.211 360.313 153.886 357.158 159.284C356.717 160.038 355.589 160.734 357.26 161.726C365.575 166.642 372.944 172.816 380.189 179.16C398.954 195.597 414.105 214.702 423.96 237.805C424.816 239.816 424.855 242.234 426.645 243.832C430.984 243.299 435.3 243.973 439.514 244.636C446.169 245.69 452.507 245.378 458.721 242.733C467.047 239.187 475.719 238.332 484.583 239.873C494.28 241.56 504.096 241.821 513.866 242.62V242.631Z" fill="#ED8120"></path>
<path d="M265.355 428.911C271.535 432.111 277.023 436.161 281.169 441.842C282.625 443.836 283.684 446.005 283.996 448.52C284.619 453.572 281.424 456.331 277.76 458.596C271.399 462.521 264.189 463.915 256.939 465.178C246.375 467.019 235.715 466.548 225.124 466.192C215.897 465.88 206.71 464.458 197.494 463.586C188.619 462.748 179.732 462.085 170.867 461.151C163.923 460.42 156.934 459.91 150.069 458.149C161.748 456.24 173.513 456.087 185.288 456.081C188.721 455.22 192.204 455.623 195.676 455.651C199.822 455.747 203.923 455.317 207.922 454.24C208.794 454.008 210.289 454.054 210.238 452.643C210.204 451.567 208.992 451.346 208.137 451.035C203.005 449.188 197.613 448.378 192.329 447.16C182.156 444.815 171.876 443.003 161.482 442.034C151.876 441.139 142.292 441.451 132.641 442.352C123.063 443.241 113.349 444.153 103.743 441.978C100.695 441.287 97.8633 440.058 95.0483 438.761C84.6774 433.963 73.7684 431.035 62.4799 429.449C61.8456 429.358 61.2225 429.166 60.5938 429.018C60.5995 430.095 61.4377 430.65 62.0778 431.312C83.42 453.527 108.019 471.272 135.609 484.911C136.713 485.461 137.982 485.682 139.171 486.05C139.205 485.534 139.387 485.059 139.976 485.115C142.91 485.404 145.781 484.702 148.681 484.6C160.287 484.192 171.864 485.132 183.459 485.291C186.749 485.336 190.046 485.619 193.331 485.925C204.014 486.916 214.713 487.607 225.395 488.706C235.772 489.771 246.165 490.796 256.497 492.178C271.982 494.251 287.423 496.715 302.738 499.853C307.111 500.748 311.636 501.133 315.754 503.076C326.844 500.431 337.566 496.67 348.13 492.439C365.496 485.478 381.939 476.783 397.311 466.101C398.155 465.518 398.903 464.804 399.696 464.147C396.025 463.779 392.355 463.411 388.685 463.042C389.132 465.801 387.727 467.477 385.411 468.605C380.948 470.768 376.093 471.459 371.273 471.924C363.179 472.711 355.057 473.425 346.935 473.595C336.632 473.81 326.306 474.988 316.009 473.09C321.758 473.09 327.513 473.232 333.256 473.056C341.673 472.796 350.044 471.912 358.433 471.182C365.377 470.576 372.27 469.862 379.016 468.049C380.749 467.585 382.482 467.064 383.961 466.027C384.516 465.637 385.779 465.795 385.467 464.504C385.173 463.297 384.374 463.025 383.196 462.901C377.617 462.323 371.97 462.108 366.527 460.618C364.216 459.989 361.678 459.536 360.353 457.106C360.007 456.472 359.447 456.58 358.892 456.551C352.134 456.189 345.372 455.877 338.62 455.43C334.423 455.152 330.203 454.965 325.882 454.093C342.466 453.453 358.909 455.05 375.244 452.683C374.995 451.425 374.74 450.168 374.49 448.911L374.253 448.86L374.207 448.622C365.717 449.154 357.317 450.525 348.883 451.397C337.884 452.536 326.765 453.346 315.669 451.975C314.848 451.873 314.015 451.845 313.183 451.624C319.124 451.624 325.083 451.913 331.002 451.544C337.04 451.165 343.134 450.791 349.036 449.267C357.646 447.047 366.334 445.444 375.261 445.371C375.091 444.238 375.068 443.122 375.51 442.034C372.882 442.544 370.39 443.53 367.541 442.81C359.741 440.839 352.219 437.815 343.933 437.718C338.19 437.65 332.446 437.464 326.708 437.628C317.98 437.877 309.257 438.313 300.529 438.67C301.045 438.222 301.594 438.166 302.143 438.115C309.92 437.43 317.737 437.345 325.502 436.75C339.101 435.708 352.503 435.929 365.751 439.486C369.291 440.437 372.865 441.389 376.609 440.856C375.204 439.208 375.266 436.999 374.411 435.13C371.29 428.316 366.147 423.326 360.138 419.135C353.018 414.162 345.06 411.635 336.428 410.78C320.365 409.183 304.868 411.211 289.898 417.288C284.891 419.322 279.963 421.712 274.356 421.604C271.15 422.414 267.944 422.233 264.738 421.604C258.915 421.253 253.127 421.95 247.321 422.216C248.352 422.947 249.575 423.037 250.753 423.275C255.942 424.329 260.869 426.067 265.361 428.922L265.355 428.911Z" fill="#ED8120"></path>
<path d="M134.43 320.263C90.5283 320.274 46.6204 320.285 2.71829 320.263C0.781174 320.263 -1.25787 320.75 -3.08171 319.6C-0.521545 328.447 2.43509 337.147 5.97513 345.672C8.422 351.557 10.9595 357.385 13.7462 363.111C14.0691 363.768 14.5109 364.369 14.896 364.997C24.0378 356.071 35.8247 352.769 47.6796 349.636C53.8648 348 60.0443 346.329 66.2804 344.93C73.5474 343.304 79.4267 339.045 85.6515 335.352C96.5548 328.883 108.517 325.502 120.967 323.406C125.442 322.653 129.939 322.177 134.402 321.441C134.413 321.044 134.419 320.653 134.43 320.257V320.263Z" fill="#ED8120"></path>
<path d="M504.333 317.368C500.64 316.507 496.902 317.13 493.186 317.034C490.666 316.972 488.14 317 485.619 316.983C485.393 317.374 485.053 317.748 484.962 318.173C483.393 325.672 478.913 330.996 472.541 334.933C472.575 335.346 472.28 335.437 471.969 335.493C471.714 335.862 471.453 336.224 471.199 336.592C471.646 337.867 472.881 337.957 473.895 338.354C479.496 340.529 484.877 343.117 489.488 347.042C490.666 348.045 492.037 348.974 492.478 350.628C496.07 343.23 498.868 335.527 501.445 327.734C502.572 324.324 504.078 321.022 504.333 317.374V317.368Z" fill="#FFF1E7"></path>
<path d="M386.957 405.099C386.26 405.099 385.558 405.099 384.856 405.099C380.432 405.19 375.997 405.699 371.619 404.663C360.732 404.045 349.852 403.422 338.965 402.805C337.64 403.1 336.139 402.295 334.961 403.473C339.402 404.142 343.854 404.765 348.288 405.484C362.483 407.784 376.779 408.367 391.114 407.699C402.142 407.183 413.136 406.906 424.023 409.16C426.736 409.721 429.556 410.117 431.777 412.043L431.709 411.998C432.938 412.128 433.923 412.627 434.433 413.827C436.059 415.238 436.925 417.039 437.152 419.163C445.897 419.197 453.719 417.413 457.996 408.616C448.775 408.571 439.797 406.764 430.814 404.923C422.947 403.309 415.045 404.504 407.155 405.037C405.195 405.167 403.224 405.093 401.259 405.11C396.49 405.263 391.721 405.422 386.951 405.099H386.957Z" fill="#FFF1E7"></path>
<path d="M385.031 461.207C382.913 459.921 380.727 458.738 378.71 457.31C377.577 456.512 376.071 455.758 376.371 453.889C371.942 453.838 367.609 454.507 363.378 455.781C362.749 455.968 361.661 455.781 361.633 456.846C361.599 457.95 362.664 458.075 363.412 458.358C366.674 459.61 370.157 459.95 373.556 460.612C377.334 461.349 381.197 461.275 385.043 461.207H385.031Z" fill="#FFF1E7"></path>
<path d="M437.226 422.199C437.667 425.173 438.115 428.14 438.557 431.114C442.301 427.84 445.467 424.045 449.16 419.593C444.719 420.732 440.828 420.664 437.231 422.199H437.226Z" fill="#FFF1E7"></path>
<path d="M388.724 462.98C388.583 462.096 387.897 462.397 387.371 462.363C387.795 462.623 387.892 463.62 388.724 462.98Z" fill="#FFF1E7"></path>
<path d="M310.509 222.269C315.159 227.242 320.965 227.089 327.116 226.364C332.984 225.673 338.246 227.825 343.021 231.156C345.728 233.042 348.407 234.973 351.081 236.91C358.489 242.269 366.464 243.526 375.198 240.603C379.101 239.295 383.037 238.088 387.303 238.026C393.018 237.935 396.994 240.479 400.058 244.993C402.607 248.748 404.612 252.809 406.759 256.791C409.228 261.373 413.04 264.54 417.537 266.885C421.604 269.009 424.391 268.148 427.161 264.313C422.414 263.497 419.978 259.997 418.342 256.061C415.73 249.768 414.258 243.152 414.15 236.293C407.971 234.962 403.032 231.161 397.736 228.057C395.096 226.511 392.893 224.251 389.914 223.26C389.007 223.849 389.359 224.784 389.319 225.582C389.126 229.536 387.438 232.039 384.357 232.86C380.636 233.852 377.181 232.47 375.057 229.258C373.709 227.225 373.641 224.823 372.938 222.603C372.089 219.912 370.956 217.403 368.373 215.891C365.088 217.182 361.741 218.162 358.15 217.879C358.438 218.95 358.693 220.026 359.016 221.085C360.211 225.055 358.648 229.383 355.187 231.637C352.684 233.268 349.115 232.413 345.836 230.142C340.852 226.692 339.486 216.214 346.023 211.541C340.03 207.582 334.61 202.541 327.094 201.431C325.213 206.381 322.205 208.907 318.348 208.041C307.853 205.679 300.002 199.675 296.581 189.377C295.024 184.688 293.364 180.298 290.583 176.231C288.55 173.258 287.1 169.961 288.232 166.16C287.411 163.855 286.471 161.584 285.791 159.245C284.268 154.022 281.203 150.126 276.519 147.316C271.835 144.512 267.179 141.669 264.981 136.135C264.109 133.938 260.258 133.966 258.054 136.016C256.893 137.098 255.976 138.446 255.001 139.709C252.707 142.694 250.51 145.764 248.142 148.698C245.588 151.859 242.903 154.912 243.588 159.675C237.817 153.966 230.635 152.47 223.209 151.275C217.885 150.414 212.917 148.279 208.573 144.926C201.929 139.8 198.536 132.929 198.531 124.666C198.508 102.168 218.615 88.4042 239.878 96.0507C246.239 98.339 251.563 101.992 256.225 106.767C256.293 106.682 256.361 106.597 256.423 106.512C251.229 98.1464 243.792 93.196 233.988 92.0689C222.648 90.7605 212.289 93.3093 203.062 100.236C196.611 105.079 189.281 107.328 181.187 107.288C168.069 107.22 154.946 107.107 141.833 107.385C132.822 107.577 123.788 108.138 115.184 111.338C113.151 112.097 111.1 112.811 109.412 114.249C107.288 116.062 106.093 118.299 106.15 121.148C106.195 123.318 106.235 125.487 106.212 127.656C106.201 128.749 106.439 129.99 105.102 130.602C105.068 131.043 105.034 131.491 104.994 131.933C105.193 132.912 104.728 133.773 104.518 134.685C103.442 139.369 103.357 144.025 105.096 148.585C105.408 149.406 105.572 150.358 106.954 149.304C109.174 147.611 111.893 147.078 114.669 146.914C124.246 146.342 133.836 146.11 143.425 146.427C148.002 146.58 152.578 146.937 157.041 148.239C160.547 149.265 164.133 149.786 167.854 149.797C175.076 149.82 182.241 150.669 189.31 152.255C202.626 155.24 215.625 159.279 228.494 163.776C230.623 164.518 232.844 165.022 235.126 165.073C239.504 165.175 243.662 166.257 247.802 167.633C256.853 170.635 264.154 177.426 273.63 179.511C274.792 179.766 275.063 180.898 274.769 182.06C274.463 183.266 273.857 184.314 273.041 185.248C273.319 188.415 270.77 188.296 268.822 188.879C268.284 191.037 269.467 191.332 271.172 191.048C275.358 190.346 277.72 187.406 279.765 183.923C279.334 188.652 280.291 193.11 281.073 197.619C281.781 201.719 280.631 205.344 277.114 208.103C272.696 211.569 268.47 215.274 264.16 218.87C268.046 216.265 271.909 213.637 275.811 211.054C279.532 208.596 283.089 205.73 287.938 205.922C297.272 204.608 302.545 210.419 307.337 217.018C308.266 218.293 308.963 219.737 309.767 221.102C310.22 221.385 310.821 221.572 310.577 222.32L310.515 222.286L310.509 222.269ZM264.166 144.739C264.468 145.11 265.055 145.158 264.71 145.838C264.879 145.832 265.123 145.719 265.185 145.798C269.405 151.355 271.574 157.693 271.427 164.614C271.336 168.919 267.457 170.731 263.877 168.562C261.13 168.551 258.4 168.471 256.055 166.721C247.032 160.004 248.986 149.667 256.661 143.918C258.864 142.269 261.385 142.247 263.622 144.229C263.803 144.399 263.982 144.513 264.166 144.739ZM143.657 119.12C143.567 118.537 143.482 117.954 143.391 117.37C143.023 117.297 142.649 117.251 142.298 117.144C141.397 116.872 140.015 117.223 140.055 115.637C140.089 114.255 141.295 114.102 142.258 113.864C144.75 113.258 147.282 113.156 149.763 113.927C153.178 114.986 154.883 117.104 154.895 120.14C154.906 123.318 153.156 125.844 150.261 126.829C147.735 127.685 144.32 126.625 143.057 124.394C142.032 122.581 141.658 120.672 143.657 119.126V119.12Z" fill="#1D1D1D"></path>
<path d="M134.431 320.263C134.419 320.659 134.414 321.05 134.402 321.447C134.572 330.702 129.877 337.187 122.258 341.571C116.747 344.743 111.049 347.886 104.598 348.719C99.3417 349.393 93.9778 349.903 88.8462 347.824C86.4106 346.839 84.717 347.79 83.318 349.671C82.8762 350.265 82.5647 350.962 82.2702 351.647C80.3104 356.23 80.7749 356.864 85.629 357.034C88.1551 357.124 90.7323 356.513 93.2018 357.436C93.7626 357.646 94.6065 357.374 94.8104 358.286C95.0653 359.418 94.0118 359.486 93.4567 359.747C87.2376 362.664 80.7069 364.612 74.012 366.119C70.2114 366.974 66.3089 366.912 62.5196 367.733C58.804 368.538 55.3092 375.703 57.0368 379.016C57.9714 380.806 61.3585 381.395 64.4454 380.375C71.4235 378.07 78.1864 375.062 85.4477 373.675C91.2194 372.576 96.8381 370.605 102.791 370.565C106.297 370.543 106.688 371.03 105.408 374.241C103.624 378.71 101.534 382.987 97.161 385.66C95.1276 386.9 95.5298 390.508 97.8464 392.446C100.695 394.824 104.077 395.442 107.634 394.915C110.738 394.456 111.559 391.681 111.695 389.336C112.046 383.281 115.558 378.937 118.911 374.479C124.116 367.552 131.842 364.901 139.743 362.743C148.308 360.398 157.075 359.464 165.94 359.911C172.55 360.245 179.063 361.259 185.243 363.825C187.962 364.952 191.156 364.403 192.538 362.67C194.317 360.444 194.39 356.988 192.719 354.57C191.269 352.474 187.271 351.613 183.849 352.712C176.792 354.978 170.307 352.576 163.867 350.18C161.493 349.297 160.978 346.827 160.61 344.652C159.868 340.313 159.624 335.89 160.021 331.517C160.293 328.527 162.683 326.431 164.388 324.114C165.815 322.171 167.429 320.359 168.964 318.496C175.92 308.702 179.947 297.567 183.759 286.329C186.019 279.657 187.231 272.736 188.806 265.905C183.844 265.786 182.105 263.322 183.549 258.445C183.81 257.556 184.076 256.672 184.342 255.783C183.748 251.688 182.7 247.819 179.063 245.254C176.282 243.288 173.229 242.286 170.046 243.866C166.869 245.44 165.77 248.459 165.634 251.863C165.498 255.2 166.257 258.422 166.959 261.634C167.554 264.353 167.543 267.072 167.09 269.734C165.719 277.765 162.167 284.896 157.665 291.608C150.415 302.421 146.082 313.998 146.574 327.36C146.841 334.593 145.096 341.662 138.701 346.504C138.124 346.94 137.665 347.631 137.353 348.3C135.614 352.072 132.601 354.525 129.135 356.603C126.223 358.348 123.437 360.285 120.582 362.126C115.705 365.275 111.791 369.166 110.018 374.932C109.503 376.603 108.472 378.166 107.441 379.616C105.991 381.667 104.179 383.366 101.602 384.346C101.511 382.907 102.412 382.392 102.933 381.667C105.295 378.348 107.617 374.932 108.059 370.792C108.489 366.708 110.596 363.808 113.558 361.288C115.003 360.064 116.368 358.75 117.031 356.904C117.178 356.484 117.416 355.89 117.24 355.601C116.9 355.04 116.204 355.244 115.694 355.437C113.032 356.433 110.545 357.787 108.268 359.475C103.805 362.783 98.8376 364.867 93.4737 366.266C83.2897 368.923 72.7772 369.976 62.6159 372.718C62.1061 372.854 61.4208 373.142 61.1206 372.502C60.8657 371.953 61.3075 371.398 61.721 371.018C63.0067 369.835 64.57 369.223 66.2692 368.906C71.5368 367.92 76.9176 367.337 82.0549 365.875C100.299 360.698 115.552 350.328 129.412 337.714C132.641 334.78 134.442 331.019 135.286 326.686C136.266 321.639 136.679 316.496 138.123 311.534C142.638 295.987 148.177 280.745 151.848 264.947C153.467 257.969 156.226 251.49 160.87 245.973C166.999 238.689 173.462 231.677 178.956 223.872C179.749 222.745 180.627 221.566 181.992 220.972C180.27 219.012 178.44 217.177 176.18 215.823C175.172 217.63 174.164 219.437 173.161 221.244C169.729 228.516 164.937 234.934 160.287 241.413C153.252 251.223 149.639 262.336 146.852 273.885C145.509 279.447 143.646 284.891 141.992 290.379C139.205 299.617 136.13 308.782 134.957 318.428C134.878 319.056 134.606 319.662 134.425 320.274L134.431 320.263ZM108.149 350.305C105.555 351.947 103.205 354.338 99.2567 353.437C102.542 352.282 105.346 351.29 108.149 350.305Z" fill="#FFF1E7"></path>
<path d="M273.03 185.231C273.846 184.297 274.452 183.255 274.758 182.043C275.052 180.887 274.78 179.754 273.619 179.494C264.143 177.409 256.842 170.624 247.791 167.616C243.651 166.24 239.493 165.158 235.115 165.056C232.832 164.999 230.612 164.501 228.482 163.759C215.614 159.262 202.615 155.223 189.298 152.238C182.23 150.652 175.065 149.803 167.843 149.78C164.122 149.769 160.542 149.248 157.03 148.222C152.567 146.92 147.99 146.563 143.414 146.41C133.824 146.093 124.235 146.325 114.657 146.897C111.882 147.061 109.169 147.594 106.943 149.287C105.566 150.335 105.402 149.384 105.085 148.568C103.346 144.003 103.431 139.353 104.507 134.668C104.717 133.756 105.181 132.896 104.983 131.916C103.114 132.397 103.748 134.176 103.652 135.195C103.131 140.559 102.508 146.008 105.244 151.06C105.77 152.04 106.478 152.918 107.101 153.847C107.254 149.61 112.477 147.996 117.127 148.755C124.785 150.012 132.391 151.383 140.14 152.153C148.353 152.969 156.464 154.764 164.643 156.016C176.515 157.834 188.29 160.117 200.02 162.706C209.117 164.711 217.941 167.656 226.947 169.955C234.35 171.847 241.765 173.677 249.349 175.58C238.485 177.092 228.788 173.207 218.927 170.261C211.326 167.99 203.696 165.855 195.88 164.473C184.727 162.502 173.649 160.185 162.553 157.908C153.688 156.09 144.886 153.394 135.631 154.294C136.118 155.841 137.495 156.322 138.786 156.849C142.615 158.418 146.62 159.386 150.652 160.276C167.061 163.878 183.521 167.225 200.071 170.12C212.515 172.295 224.263 176.905 236.372 180.241C238.763 180.468 241.136 180.808 243.39 181.657C247.746 183.306 251.909 183.708 256.044 180.819C258.474 179.126 261.294 179.499 264.058 180.462C263.509 181.357 262.897 182.099 262.574 182.949C262.291 183.691 262.059 184.631 263.328 184.948C266.545 185.747 269.745 186.897 273.036 185.22L273.03 185.231Z" fill="#FFF1E7"></path>
<path d="M161.165 166.71C156.718 165.22 152.029 165.192 147.446 164.518C141.352 163.629 135.218 162.949 129.078 162.377C127.237 162.207 124.592 161.159 123.657 163.238C122.819 165.096 125.051 166.506 126.484 167.662C131.462 171.672 136.515 175.591 141.505 179.584C142.434 180.326 141.465 179.556 144.059 182.037C144.059 182.027 145.555 182.292 145.679 183.255C147.622 185.396 149.695 187.401 152.034 189.106C153.212 189.298 154.215 190.04 155.523 189.944C161.726 189.491 166.07 192.425 169.23 197.556C171.904 201.895 174.691 206.194 178.882 209.258C182.371 211.813 186.126 213.286 190.675 212.17C193.41 211.496 196.282 212.085 199.057 212.657C194.283 207.655 190.301 202.054 186.602 196.237C180.236 186.217 172 178.559 160.304 175.087C157.075 174.13 154.022 172.533 150.941 171.111C149.984 170.669 148.506 170.256 148.738 168.885C148.964 167.565 150.386 167.038 151.559 166.857C153.886 166.489 156.299 166.432 158.576 167.055C159.63 167.344 160.355 167.265 161.159 166.71H161.165Z" fill="#FFF1E7"></path>
<path d="M161.165 166.71C160.361 167.259 159.636 167.344 158.582 167.055C156.305 166.432 153.892 166.495 151.564 166.857C150.392 167.044 148.97 167.571 148.744 168.885C148.511 170.256 149.99 170.669 150.947 171.111C154.028 172.533 157.075 174.124 160.31 175.087C172.012 178.553 180.241 186.217 186.608 196.237C190.306 202.059 194.288 207.655 199.063 212.657C203.47 215.495 206.409 219.833 210.068 223.43C212.77 226.086 215.783 228.233 219.272 229.74C222.965 231.337 226.472 231.031 230.074 229.354C234.888 227.117 239.312 224.11 244.285 222.189C245.237 221.793 245.237 221.793 245.237 221.793C245.605 222.32 244.789 222.263 244.58 222.546C238.355 227.531 231.246 230.986 223.713 234.271C226.455 235.913 228.658 235.137 231.025 234.271C233.263 233.461 235.234 231.767 238.072 231.892C234.333 235.013 230.091 236.712 226.024 238.706C227.338 240.886 228.647 243.073 229.961 245.253C229.808 245.44 229.649 245.627 229.496 245.814C226.466 243.129 222.943 241.119 220.105 238.162C217.975 238.383 216.038 237.29 213.943 237.273C213.682 238.179 214.146 238.949 214.481 239.697C216.554 244.325 219.188 248.686 220.898 253.495C222.331 257.522 224.75 260.994 227.491 264.268C234.696 272.871 244.534 277.743 254.061 283.033C255.387 283.769 257.046 284.347 258.643 283.882C262.857 282.659 266.375 280.518 268.17 276.225C268.499 275.437 268.482 274.265 269.739 274.118C269.938 273.07 270.141 272.027 270.34 270.98C269.184 269.824 269.949 268.725 270.493 267.672C272.096 264.574 273.727 261.498 271.506 257.992C271.331 257.714 271.444 257.256 271.427 256.882C269.218 256.706 267.038 256.729 264.823 256.066C258.406 254.146 257.426 247.887 259.986 242.909C261.175 240.592 263.027 238.927 265.18 237.528C266.256 236.825 267.513 236.338 268.182 235.12C268.25 234.214 268.629 233.393 268.703 232.458C268.952 229.383 272.118 225.203 274.367 224.676C275.477 221.606 275.777 218.293 277.437 215.37C279.912 211.031 283.197 207.684 287.932 205.888C283.084 205.696 279.527 208.562 275.805 211.02C271.903 213.597 268.034 216.231 264.155 218.836L264.081 218.899L264.149 218.831C268.459 215.228 272.685 211.524 277.103 208.063C280.62 205.305 281.77 201.68 281.062 197.579C280.28 193.07 279.323 188.613 279.753 183.883C277.709 187.367 275.347 190.306 271.161 191.009C269.456 191.298 268.272 190.997 268.81 188.839C265.497 187.412 262.467 188.239 259.55 189.989C258.281 190.912 256.865 191.218 255.307 191.088C248.505 190.499 241.855 188.766 235.007 188.46C230.419 188.256 226.862 185.124 222.705 183.742C209.151 179.239 195.744 174.243 181.731 171.213C178.984 170.618 175.948 170.913 173.518 169.049C169.344 168.573 165.26 167.616 161.171 166.687L161.165 166.71ZM244.512 251.631C250.595 251.694 255.058 254.69 256.791 259.697C258.23 263.849 255.522 267.717 251.122 267.525C246.437 267.321 242.563 265.486 239.572 261.645C237.72 259.261 237.482 256.604 238.417 254.259C239.414 251.762 242.229 251.535 244.506 251.626L244.512 251.631ZM232.073 222.745C235.981 218.955 240.62 216.503 245.803 215.03C241.362 217.851 237.16 221.096 232.073 222.745Z" fill="#FFF1E7"></path>
<path d="M197.324 388.651C192.544 390.367 187.531 391.069 182.592 392.117C177.245 393.25 171.898 394.383 166.54 395.47C165.832 395.612 165.617 395.963 165.588 396.586C173.348 395.986 181.108 395.396 188.902 395.578C193.609 395.685 198.253 395.045 202.926 394.621C207.429 394.218 211.241 392.587 214.843 389.987C218.349 387.455 221.787 384.799 225.684 382.845C226.268 382.55 226.976 382.148 227.525 382.658C228.154 383.241 227.548 383.932 227.213 384.397C226.29 385.694 225.361 387.036 224.206 388.118C219.165 392.853 213.761 397.209 209.326 402.567C208.811 403.196 207.316 403.581 208.245 404.691C208.958 405.541 210.17 405.258 211.139 404.753C211.637 404.493 212.119 404.17 212.521 403.779C221.068 395.476 230.782 389.036 241.985 384.81C245.446 383.508 248.318 381.038 250.17 377.73C251.076 376.11 252.232 374.864 253.642 373.726C258.689 369.642 263.883 365.734 268.431 361.061C268.068 361.101 267.678 361.072 267.349 361.197C261.334 363.451 257.386 361.344 255.647 355.131C254.78 352.032 255.313 349.03 255.647 345.972C256.559 337.544 266.692 326.136 274.978 324.307C281.855 322.789 285.706 326.748 284.132 333.732C283.826 335.097 283.486 336.456 283.078 337.793C281.067 344.397 277.55 350.237 273.84 355.98C274.792 356.235 275.154 355.374 275.675 354.932C284.607 347.331 292.809 339.028 299.889 329.654C308.334 318.456 315.896 306.799 319.136 292.866C320.274 287.972 321.985 283.197 324.873 279.108C327.853 274.888 327.807 270.991 325.593 266.545C323.491 262.331 321.401 258.111 319.096 254.01C312.871 242.926 306.153 232.113 300.931 220.473C299.368 216.99 296.762 214.39 292.554 214.254C291.642 214.226 290.413 214.022 290.096 215.121C289.807 216.135 291.002 216.401 291.687 216.814C293.228 217.738 294.021 219.023 293.54 220.807C292.616 224.246 292.849 227.718 293.364 231.133C294.401 237.987 296.836 244.534 297.878 251.416C298.297 254.18 297.493 257.046 298.751 259.691C305.298 257.193 309.393 261.674 310.583 266.516C312.14 272.866 310.747 278.949 308.612 284.908C306.98 289.462 304.715 293.681 301.277 297.159C299.272 299.187 296.949 301.163 294.004 300.886C288.448 300.354 282.353 295.499 282.789 288.935C282.959 286.392 283.288 283.933 283.882 281.453C284.647 278.247 286.641 275.551 287.309 272.345C285.876 272.469 285.684 273.8 285.128 274.701C275.828 289.773 267.151 305.219 257.499 320.081C251.388 329.489 245.718 339.124 241.504 349.591C233.903 368.453 219.975 380.795 201.142 387.88C199.935 388.333 198.735 389.03 197.341 388.668L197.324 388.651Z" fill="#FFF1E7"></path>
<path d="M197.324 388.651C198.718 389.013 199.918 388.316 201.125 387.863C219.958 380.778 233.886 368.436 241.487 349.574C245.707 339.107 251.376 329.472 257.482 320.064C267.134 305.202 275.811 289.756 285.112 274.684C285.667 273.783 285.859 272.452 287.292 272.328C287.547 270.113 288.804 268.38 290.102 266.681C290.424 266.256 290.815 265.678 291.461 265.893C292.192 266.137 291.852 266.839 291.869 267.343C291.976 270.747 290.759 273.908 290.011 277.148C289.739 278.326 289.705 278.32 290.113 280.144C293.602 273.387 297.708 267.196 298.745 259.674C297.493 257.029 298.292 254.157 297.873 251.399C296.836 244.517 294.395 237.97 293.358 231.116C292.843 227.695 292.605 224.229 293.534 220.79C294.015 219.006 293.222 217.721 291.682 216.797C290.996 216.384 289.801 216.118 290.09 215.104C290.407 214.005 291.637 214.209 292.548 214.237C296.763 214.373 299.362 216.967 300.926 220.456C306.148 232.096 312.865 242.909 319.09 253.993C321.396 258.094 323.486 262.314 325.587 266.528C327.807 270.974 327.853 274.871 324.868 279.091C321.979 283.18 320.268 287.955 319.13 292.849C315.89 306.782 308.334 318.439 299.883 329.637C292.809 339.016 284.602 347.32 275.67 354.915C275.148 355.363 274.786 356.224 273.834 355.963V355.912C272.753 357.266 273.834 355.963 272.753 357.266C271.314 358.529 269.87 359.787 268.431 361.05C263.888 365.722 258.694 369.636 253.642 373.714C252.232 374.853 251.076 376.105 250.17 377.719C248.318 381.027 245.446 383.496 241.985 384.799C230.776 389.024 221.068 395.464 212.521 403.768C212.119 404.159 211.637 404.482 211.139 404.742C210.17 405.246 208.964 405.53 208.245 404.68C207.316 403.57 208.811 403.185 209.326 402.556C213.756 397.198 219.165 392.842 224.206 388.107C225.361 387.025 226.285 385.683 227.214 384.386C227.542 383.921 228.154 383.23 227.525 382.647C226.976 382.143 226.268 382.539 225.684 382.834C221.793 384.788 218.355 387.444 214.843 389.976C211.246 392.57 207.429 394.201 202.926 394.609C198.253 395.028 193.609 395.674 188.902 395.566C181.108 395.391 173.348 395.974 165.588 396.575C162.439 396.433 159.318 395.912 156.135 396.02C154.929 396.059 153.943 394.989 153.116 394.088C151.559 392.378 149.35 392.077 147.696 392.944C145.611 394.037 144.643 396.348 144.688 398.869C144.728 401.089 145.379 403.202 147.645 403.785C151.904 404.878 156.265 405.733 160.31 402.89C163.249 400.823 166.835 400.772 170.137 400.211C178.48 398.784 186.885 397.447 195.398 397.894C199.426 398.104 203.413 398.869 207.31 400.047C209.111 400.59 208.93 401.293 207.854 402.312C206.596 403.507 205.503 404.68 203.379 404.657C200.27 404.629 199.516 405.739 199.584 408.809C199.68 413.238 203.946 416.444 208.42 415.198C213.15 413.878 217.528 412.072 220.332 407.455C222.008 404.691 224.534 402.437 226.743 400.013C230.844 395.51 235.993 393.516 242.048 393.754C245.463 392.944 248.873 393.131 252.283 393.788C269.592 394.53 286.913 394.553 304.233 394.439C306.578 394.422 308.402 394.213 309.286 391.551C310.509 387.852 310.237 385.054 307.915 383.06C305.887 381.316 303.248 381.208 301.322 382.465C290.696 389.41 279.498 388.464 268 385.564C265.525 384.941 263.027 384.408 260.575 383.683C258.53 383.083 258.128 382.143 259.618 380.585C268.42 371.409 276.253 361.384 284.681 351.874C295.63 339.526 305.338 326.182 313.471 311.75C318.847 302.217 323.214 292.237 327.252 282.087C329.308 276.921 328.849 272.05 327.065 266.896C322.732 254.356 315.692 243.322 308.51 232.351C305.53 227.803 303.52 222.739 300.637 218.151C298.796 215.223 296.649 212.583 293.347 211.184C289.909 209.723 286.46 210.267 283.933 213.019C277.646 219.867 276.921 227.808 280.02 236.219C282.313 242.444 284.868 248.573 287.451 254.684C288.759 257.777 288.725 260.66 287.439 263.764C285.049 269.547 281.39 274.627 278.643 280.229C274.678 288.329 270.232 296.196 265.463 303.871C264.285 305.768 262.988 307.598 261.742 309.456C259.969 312.123 258.196 314.791 256.417 317.459C254.475 322.964 250.43 324.601 244.885 324.233C240.094 323.916 235.262 324.313 230.459 324.126C226.67 323.978 222.892 323.429 219.108 323.072C218.043 322.97 217.109 322.574 216.288 321.922C214.299 320.342 212.068 320.257 210.046 321.475C207.967 322.727 206.789 324.698 206.908 327.348C206.976 328.861 207.537 329.308 208.953 329.297C211.462 329.274 213.88 328.685 216.321 328.26C218.825 327.819 222.059 329.189 223.396 331.415C224.149 331.449 224.937 331.642 225.65 331.495C233.891 329.778 242.127 328.011 250.363 326.261C250.561 326.187 250.912 326.029 250.923 326.057C251.105 326.374 250.827 326.42 250.612 326.488C249.892 327.575 249.088 328.623 248.476 329.767C247.315 331.925 245.514 333.318 243.141 333.171C237.239 332.809 231.405 333.919 225.526 333.755C224.144 333.715 222.665 333.8 221.867 332.276C220.932 332.22 219.992 332.095 219.057 332.112C215.687 332.18 214.815 333.398 214.889 337.855C214.934 340.619 215.676 341.186 219.046 341.208C223.447 341.237 227.502 339.515 231.722 338.66C235.761 337.838 239.776 337.238 244.245 337.176C239.114 347.705 235.676 358.812 228.227 367.943C223.549 373.675 217.698 377.407 210.595 378.92C206.67 379.758 202.626 379.107 198.814 377.549C196.027 376.405 193.416 374.944 190.901 373.307C189.7 372.525 188.607 371.845 189.281 369.801C189.859 368.033 188.08 366.793 186.642 365.921C185.141 365.009 183.51 365.315 182.167 366.312C180.128 367.824 179.177 370.084 178.61 372.468C177.88 375.538 180.117 375.81 182.258 376.309C187.152 377.447 191.643 379.548 195.755 382.426C198.032 384.017 199.261 385.954 197.324 388.651ZM208.766 381.276C208.839 381.457 208.913 381.638 208.987 381.82C206.783 382.817 204.591 383.836 202.371 384.799C201.838 385.031 201.102 385.671 200.689 384.754C200.275 383.847 200.961 383.349 201.748 383.134C204.081 382.488 206.426 381.893 208.766 381.276Z" fill="#1D1D1D"></path>
<path d="M416.727 346.788C419.203 347.745 421.808 347.915 424.419 348.045C428.395 348.045 432.372 348.045 436.348 348.051C442.527 348.011 448.457 346.487 454.388 344.998C449.738 342.851 444.872 341.814 439.735 341.656C435.356 341.526 430.831 341.367 426.917 339.141C418.902 334.576 412.241 328.334 406.187 321.429C405.122 320.217 404.612 318.631 405.422 317.249C406.238 315.862 407.942 316.145 409.313 316.394C413.357 317.13 417.028 318.926 420.403 321.146C428.747 326.618 437.26 331.806 445.71 337.096C449.647 339.56 453.544 341.055 458.154 340.619C456.716 339.226 455.328 337.821 455.679 335.539C457.084 326.476 465.574 320.348 474.631 321.996C477.016 322.432 479.157 323.446 479.468 326.34C481.502 323.248 483.184 319.861 483.212 316.207C483.252 310.645 481.343 305.542 476.602 302.268C468.066 296.377 458.84 291.637 449.596 286.975C446.215 285.27 442.397 284.936 438.681 284.698C437.146 284.602 435.323 284.738 433.991 286.08C431.579 288.516 431.771 292.197 434.62 294.117C439.871 297.652 445.926 299.056 451.986 300.376C455.855 301.22 459.638 302.172 462.663 305.247C461.247 305.712 460.307 304.89 459.287 304.585C453.402 302.817 447.512 302.342 441.587 304.375C441.757 305.763 442.046 307.15 442.063 308.538C442.114 312.452 439.944 314.497 436.002 314.621C433.334 314.706 431.148 313.517 428.911 312.378C426.951 313.302 424.844 313.075 422.89 312.724C418.115 311.863 413.261 310.934 410.723 305.961C409.466 305.355 409.087 304.313 409.053 302.965C408.962 299.187 411.415 297.238 414.23 295.528C418.16 293.143 422.567 293.67 426.855 293.5C426.305 291.229 424.838 289.099 426.549 286.596C427.234 285.593 426.164 285.14 425.02 285.1C417.192 284.823 409.472 285.706 401.899 287.564C392.791 289.796 387.88 296.032 386.612 305.083C386.017 309.337 385.892 313.698 386.011 317.997C386.096 321.112 386.26 324.409 388.639 326.941C389.041 325.038 390.174 324.431 392.089 324.709C396.031 325.281 399.82 326.21 402.862 328.94C406.651 332.344 409.353 336.666 412.417 340.676C413.119 341.594 413.187 342.76 413.068 343.91C413.946 344.799 415.396 345.043 415.889 346.374L415.827 346.323C416.229 346.278 416.586 346.317 416.722 346.788H416.727Z" fill="#FFF1E7"></path>
<path d="M181.997 220.966C180.632 221.561 179.754 222.733 178.961 223.866C173.467 231.671 167.004 238.683 160.876 245.967C156.231 251.49 153.479 257.964 151.853 264.942C148.183 280.739 142.643 295.981 138.129 311.529C136.685 316.496 136.271 321.639 135.291 326.68C134.453 331.019 132.646 334.774 129.418 337.708C115.558 350.322 100.304 360.693 82.0605 365.87C76.9289 367.325 71.5423 367.914 66.2748 368.9C64.5812 369.217 63.0123 369.829 61.7265 371.013C61.313 371.392 60.8712 371.947 61.1261 372.497C61.4207 373.137 62.1117 372.848 62.6214 372.712C72.7828 369.971 83.2953 368.917 93.4792 366.261C98.8431 364.862 103.811 362.771 108.274 359.469C110.551 357.781 113.037 356.428 115.699 355.431C116.215 355.238 116.906 355.034 117.246 355.595C117.421 355.884 117.189 356.479 117.036 356.898C116.379 358.744 115.008 360.058 113.564 361.282C110.596 363.802 108.495 366.702 108.064 370.786C107.628 374.932 105.3 378.342 102.938 381.661C102.423 382.386 101.522 382.907 101.607 384.34C104.184 383.36 105.997 381.661 107.447 379.611C108.472 378.161 109.509 376.597 110.024 374.927C111.797 369.161 115.711 365.275 120.587 362.12C123.436 360.279 126.229 358.337 129.14 356.598C132.607 354.519 135.62 352.066 137.359 348.294C137.665 347.626 138.129 346.935 138.707 346.499C145.102 341.662 146.846 334.587 146.58 327.354C146.087 313.993 150.42 302.415 157.67 291.603C162.167 284.896 165.719 277.76 167.095 269.728C167.548 267.066 167.56 264.341 166.965 261.628C166.262 258.417 165.509 255.194 165.639 251.858C165.775 248.448 166.874 245.435 170.052 243.86C173.241 242.28 176.294 243.282 179.069 245.248C182.705 247.819 183.753 251.682 184.348 255.777C186.432 253.37 188.454 250.912 190.618 248.573C192.277 246.777 192.833 244.817 191.66 242.682C187.837 235.71 184.835 228.375 181.997 220.966Z" fill="#1D1D1D"></path>
<path d="M269.745 274.135C268.488 274.276 268.505 275.449 268.176 276.242C266.375 280.535 262.857 282.676 258.649 283.899C257.052 284.364 255.392 283.78 254.067 283.05C244.54 277.76 234.707 272.888 227.497 264.285C224.755 261.011 222.342 257.539 220.904 253.512C219.193 248.703 216.559 244.342 214.486 239.714C214.152 238.966 213.688 238.19 213.948 237.29C209.491 235.511 205.311 233.178 201.181 230.759C200.621 230.431 200.02 229.802 199.403 230.232C198.695 230.725 198.984 231.637 199.154 232.322C199.703 234.537 200.813 236.52 202.025 238.428C203.407 240.603 204.138 242.954 203.317 245.406C202.779 247.009 203.379 247.865 204.353 248.856C208.199 252.781 212.3 256.474 217.296 258.796C222.971 261.436 226.964 265.774 230.901 270.402C237.811 278.53 245.384 285.995 254.089 292.248C259.544 296.168 262.999 295.737 266.958 290.317C269.247 287.19 271.365 284.086 269.921 279.759C269.348 278.054 269.773 276.015 269.745 274.129V274.135Z" fill="#FFF1E7"></path>
<path d="M388.645 326.941C386.266 324.403 386.102 321.107 386.017 317.997C385.898 313.698 386.017 309.337 386.617 305.083C387.892 296.032 392.802 289.796 401.904 287.564C409.477 285.706 417.197 284.823 425.025 285.1C426.169 285.14 427.24 285.593 426.554 286.596C424.844 289.105 426.311 291.234 426.86 293.5C433.935 294.197 438.704 298.009 441.587 304.375C447.511 302.336 453.396 302.817 459.287 304.585C460.307 304.89 461.247 305.712 462.663 305.247C459.633 302.172 455.849 301.22 451.986 300.376C445.926 299.056 439.871 297.652 434.62 294.117C431.771 292.197 431.578 288.516 433.991 286.08C435.322 284.738 437.146 284.596 438.681 284.698C442.397 284.936 446.214 285.27 449.596 286.975C458.84 291.637 468.072 296.377 476.602 302.268C481.343 305.542 483.257 310.645 483.212 316.207C483.184 319.866 481.502 323.248 479.468 326.346C478.205 330.056 474.863 332.078 472.53 334.921L472.541 334.933C478.913 331.002 483.393 325.672 484.962 318.178C485.053 317.754 485.393 317.385 485.619 316.989C485.953 308.011 481.989 301.537 474.076 297.476C465.738 293.188 458.052 287.677 449.205 284.353C443.649 282.268 437.951 281.011 431.998 281.175C433.266 281.402 430.644 281.215 431.998 281.175C429.22 281.135 426.906 281.175 426.158 281.135C417.503 280.643 409.262 282.971 401.236 285.559C391.698 288.64 385.428 295.177 384.187 305.638C383.536 311.115 382.919 316.558 384.012 322.092C385.19 328.068 388.758 332.406 393.255 335.986C399.911 341.282 407.393 345.003 415.895 346.385C415.402 345.054 413.958 344.811 413.074 343.922C402.59 341.633 393.539 337.283 388.645 326.946V326.941Z" fill="#FFF1E7"></path>
<path d="M375.261 378.416C373.471 379.294 371.353 379.69 371.143 382.386C370.916 385.275 372.927 386.34 374.864 387.433C376.32 388.254 377.906 388.792 379.679 388.781C383.666 388.753 383.774 388.6 384.839 384.572C385.643 381.542 387.88 379.463 390.338 377.674C397.011 372.803 404.544 369.857 412.468 367.762C420.126 365.739 427.869 363.876 433.895 358.201C435.458 356.728 436.982 355.221 437.888 353.109C430.831 354.004 423.938 353.822 417.056 352.95C412.672 358.246 406.861 361.446 400.704 364.159C393.437 367.365 386.34 370.831 380.987 376.983C379.424 378.778 377.39 378.812 375.266 378.404L375.261 378.416Z" fill="#FFF1E7"></path>
<path d="M375.261 378.416C377.385 378.818 379.418 378.789 380.981 376.994C386.334 370.843 393.437 367.376 400.698 364.171C406.855 361.452 412.672 358.257 417.05 352.961C411.766 350.849 406.526 348.436 400.596 350.288C391.211 353.182 381.52 354.547 371.845 355.992C372.23 358.693 370.424 359.747 368.328 360.262C362.471 361.712 356.535 362.856 350.713 364.42C345.819 365.734 340.778 366.549 336.037 368.436C336.677 369.37 337.612 368.894 338.354 368.787C341.486 368.322 344.59 367.654 347.728 367.206C353.533 366.368 359.418 365.932 365.162 364.782C372.95 363.225 380.698 361.401 388.265 358.897C391.432 357.849 394.711 357 398.33 357.912C397.062 360.772 394.637 361.916 392.106 362.93C387.75 364.675 383.173 366.13 381.548 371.313C382.018 374.151 380.132 375.527 378.121 376.801C377.198 377.385 376.218 377.889 375.266 378.433L375.261 378.416Z" fill="#1D1D1D"></path>
<path d="M458.16 340.625C453.555 341.061 449.653 339.566 445.716 337.102C437.26 331.812 428.747 326.623 420.409 321.152C417.033 318.937 413.363 317.136 409.319 316.4C407.948 316.151 406.243 315.862 405.428 317.255C404.618 318.631 405.127 320.223 406.192 321.435C412.247 328.34 418.902 334.576 426.923 339.147C430.831 341.373 435.362 341.531 439.74 341.662C444.878 341.814 449.743 342.857 454.393 345.003C460.273 343.921 465.263 341.095 469.709 337.198L469.76 337.244C468.678 336.706 468.134 337.759 467.421 338.133C464.509 339.679 461.598 341.072 458.16 340.619V340.625Z" fill="#1D1D1D"></path>
<path d="M381.542 371.296C383.168 366.113 387.744 364.658 392.1 362.913C394.632 361.899 397.056 360.755 398.325 357.895C394.711 356.983 391.426 357.832 388.26 358.88C380.693 361.384 372.944 363.213 365.156 364.765C359.413 365.915 353.533 366.351 347.722 367.189C344.584 367.643 341.48 368.311 338.348 368.77C337.606 368.877 336.672 369.353 336.031 368.419C333.483 368.526 331.138 367.614 328.742 366.946C326.448 366.306 324.262 366.108 322.914 368.685C321.894 370.633 322.534 374.434 324.103 375.754C325.457 376.898 327.06 376.343 328.447 376.133C337.193 374.808 345.887 373.159 354.644 371.947C361.667 370.973 368.634 369.721 375.601 368.43C378.059 367.971 380.523 368.339 381.531 371.29L381.542 371.296Z" fill="#FFF1E7"></path>
<path d="M434.44 413.56C432.12 410.66 426.736 409.721 424.023 409.16C413.136 406.912 402.142 407.183 391.114 407.699C376.779 408.367 362.483 407.784 348.288 405.484C343.853 404.765 339.407 404.142 334.972 403.473C334.502 403.456 334.026 403.445 333.545 403.428C332.984 403.723 332.412 403.672 331.834 403.496C323.463 402.613 315.052 403.094 306.663 402.822C299.578 403.219 292.458 403.343 285.406 404.08C276.865 404.969 268.289 405.694 259.827 407.319C257.012 407.863 254.089 407.846 251.212 408.09C245.503 409.183 239.799 408.696 234.095 408.056C233.376 408.061 232.657 408.073 231.937 408.078C231.331 408.209 230.725 408.333 230.119 408.464C224.37 408.531 221.578 409.234 219.272 411.494C225.99 411.007 232.288 410.593 238.593 410.893C241.657 410.882 244.721 410.871 247.785 410.865C255.67 410.559 263.407 409.081 271.212 408.135C276.615 407.478 282.03 406.804 287.439 406.192C294.933 405.348 302.421 404.833 309.943 404.55C315.862 403.53 321.786 403.728 327.717 404.482C338.643 404.652 349.399 406.373 360.194 407.829C364.448 408.407 368.787 408.384 373.086 408.633C379.158 408.633 385.229 408.633 391.307 408.639C393.255 408.548 395.198 408.452 397.147 408.362C401.355 407.71 405.558 407.665 409.761 408.39C417.294 408.418 431.54 409.5 435.6 415.3C435.6 415.3 434.581 413.737 434.44 413.56Z" fill="#FFF1E7"></path>
<path d="M368.271 300.914C366.64 302.41 365.853 304.42 364.929 306.352C364.493 307.269 364.255 308.312 363.293 308.884C361.763 313.353 358.246 316.332 355.21 319.674C353.001 322.749 350.067 324.652 346.3 325.23C341.582 327.666 336.864 327.688 332.146 325.23C328.056 324.987 324.024 324.278 320.166 322.947C316.938 321.832 315.709 319.543 315.692 315.992C315.692 314.729 316.128 313.358 315.114 312.242C312.435 314.678 311.11 318.11 308.804 320.829C307.751 322.07 309.172 322.381 309.858 322.823C314.831 326.04 320.382 327.649 326.165 328.583C334.327 329.897 342.364 329.303 350.333 327.122C354.842 325.887 358.212 323.378 360.517 319.305C363.157 314.633 366.04 310.107 369.767 306.204C370.537 305.394 370.475 304.913 369.727 304.171C368.855 303.299 368.22 302.24 368.277 300.914H368.271Z" fill="#FFF1E7"></path>
<path d="M371.845 355.986C381.52 354.547 391.211 353.177 400.596 350.282C392.57 350.299 384.533 350.265 376.75 347.954C371.851 346.499 367.02 344.811 362.16 343.208C360.676 342.715 359.832 341.35 358.597 340.5C354.989 338.02 352.82 338.518 350.786 342.392C350.226 343.463 349.552 344.505 349.2 345.643C348.441 348.113 349.172 348.957 351.885 349.013C351.749 348.209 350.435 346.895 352.446 346.884C358.829 346.844 364.431 348.974 369.132 353.346L369.376 353.482L369.495 353.522C370.276 354.343 371.052 355.165 371.834 355.98L371.845 355.986Z" fill="#FFF1E7"></path>
<path d="M429.556 258.479C429.602 260.552 429.602 262.625 429.709 264.693C429.794 266.329 429.675 267.349 427.738 268.255C424.98 269.547 422.669 271.784 420.154 273.596C419.174 274.304 418.262 274.973 416.875 274.933C408.894 274.724 401.689 277.029 395.317 281.866C397.226 284.67 399.101 284.307 401.95 282.704C409.755 278.303 418.03 275.007 427.223 274.928C427.829 274.928 428.554 274.639 429.007 275.364C430.406 269.773 430.542 264.143 429.556 258.473V258.479Z" fill="#FFF1E7"></path>
<path d="M376.609 440.851C372.865 441.383 369.291 440.431 365.751 439.48C352.503 435.923 339.101 435.702 325.502 436.744C317.737 437.339 309.914 437.418 302.143 438.109C301.594 438.16 301.05 438.217 300.529 438.664C309.257 438.307 317.98 437.871 326.708 437.622C332.446 437.458 338.195 437.645 343.933 437.713C352.214 437.815 359.741 440.834 367.541 442.805C370.39 443.524 372.882 442.544 375.51 442.029C375.691 441.457 376.784 441.745 376.609 440.851Z" fill="#1D1D1D"></path>
<path d="M250.362 326.261C242.127 328.017 233.891 329.784 225.65 331.495C224.937 331.642 224.149 331.449 223.396 331.415C222.886 331.704 222.371 331.987 221.861 332.276C222.665 333.805 224.138 333.72 225.526 333.754C231.405 333.919 237.239 332.809 243.141 333.171C245.514 333.318 247.315 331.931 248.476 329.767C249.094 328.623 249.898 327.575 250.612 326.487C250.527 326.408 250.442 326.335 250.362 326.255V326.261Z" fill="#FFF1E7"></path>
<path d="M271.433 256.904C271.45 257.278 271.337 257.737 271.512 258.015C273.738 261.521 272.101 264.596 270.498 267.695C269.954 268.748 269.19 269.847 270.345 271.002C271.552 269.677 272.883 268.374 274.622 267.955C279.799 266.709 280.456 262.523 281.113 258.332C281.294 257.165 281.141 255.947 281.141 254.475C277.805 255.772 274.741 256.887 271.433 256.904Z" fill="#1D1D1D"></path>
<path d="M211.558 266.998C214.662 271.484 218.819 275.001 222.597 278.853C226.998 283.333 231.648 287.57 236.57 291.484C237.143 291.942 241.88 295.24 245.36 297.56C237.164 290.117 222.818 277.057 215.036 269.201C214.124 268.278 213.042 267.219 211.558 267.004V266.998Z" fill="#FFF1E7"></path>
<path d="M274.372 224.699C272.129 225.225 268.958 229.405 268.708 232.481C268.635 233.416 268.255 234.243 268.187 235.143C270.107 234.616 272.073 234.469 273.982 234.973C275.386 235.347 275.845 234.956 275.318 233.705C274.084 230.776 274.452 227.723 274.372 224.693V224.699Z" fill="#1D1D1D"></path>
<path d="M369.144 353.352C364.437 348.979 358.835 346.85 352.457 346.889C350.446 346.901 351.761 348.215 351.896 349.019C357.425 349.149 362.681 350.345 367.586 352.967C368.045 353.211 368.622 353.228 369.144 353.352Z" fill="#FFF1E7"></path>
<path d="M181.046 414.122C183.006 413.935 184.965 413.669 186.919 413.584C190.227 413.437 193.512 412.847 196.814 412.57C197.981 412.474 197.862 411.822 197.868 411.063C197.868 410.214 197.358 410.208 196.752 410.321C191.502 411.324 186.251 412.321 181 413.323C181.017 413.589 181.029 413.856 181.046 414.122Z" fill="#FFF1E7"></path>
<path d="M220.111 238.179C222.943 241.136 226.466 243.146 229.502 245.831C229.655 245.644 229.813 245.457 229.966 245.27C228.658 243.09 227.344 240.903 226.03 238.723C224.053 238.542 222.082 238.36 220.111 238.179Z" fill="#FFF1E7"></path>
<path d="M471.199 336.587C471.454 336.218 471.714 335.856 471.969 335.488C471 335.782 469.998 336.031 469.76 337.244L469.709 337.198C470.207 336.994 470.7 336.79 471.199 336.587Z" fill="#ED8120"></path>
<path d="M416.727 346.788C416.591 346.317 416.235 346.278 415.832 346.323C415.798 347.122 416.416 346.663 416.727 346.788Z" fill="#ED8120"></path>
<path d="M369.506 353.528C369.506 353.528 369.381 353.488 369.387 353.488C369.325 353.522 369.262 353.556 369.206 353.584C369.308 353.567 369.41 353.545 369.512 353.528H369.506Z" fill="#FFF1E7"></path>
<path d="M471.969 335.493C472.286 335.431 472.575 335.346 472.541 334.933L472.53 334.921C472.173 334.944 471.878 335.035 471.963 335.493H471.969Z" fill="#ED8120"></path>
<path d="M395.58 196.64C392.176 191.355 386.158 186.449 381.542 182.337C361.191 164.218 337.838 150.97 313.001 140.089C301.181 134.912 289.399 129.656 277.21 125.396C271.727 123.482 267.06 120.497 263.401 115.96C262.891 115.331 262.489 114.516 261.504 114.244C263.469 125.028 266.131 135.354 275.454 142.451C279.94 145.866 284.438 149.287 288.47 153.252C287.768 149.763 285.633 146.988 283.866 144.031C281.985 140.893 279.884 137.857 278.932 134.283C278.757 133.626 278.077 132.629 278.864 131.961C279.668 131.276 280.614 131.666 281.509 132.023C286.567 134.062 291.523 136.317 295.987 139.494C299.849 142.241 303.973 144.32 308.646 145.413C312.203 146.24 315.613 147.594 318.909 149.225C325.377 152.425 329.127 156.996 328.249 164.801C327.598 170.613 325.094 173.535 319.362 173.603C318.711 173.609 318.054 173.728 317.402 173.796C319.085 176.169 320.801 178.525 322.449 180.921C329.54 191.235 338.988 197.777 351.432 200.338C359.407 201.98 367.456 203.305 375.38 205.209C380.115 206.341 384.063 208.443 387.195 212.328C389.472 215.143 391.936 217.913 395.085 219.884C392.531 215.206 389.67 210.663 388.198 205.486C387.563 203.26 386.589 202.92 384.403 203.606C375.182 206.5 365.332 199.375 364.816 189.836C364.544 184.824 363.729 179.856 361.072 175.376C360.376 174.204 358.846 172.646 360.268 171.36C361.701 170.069 362.981 171.898 364.142 172.601C374.247 178.723 383.043 186.517 391.851 194.311C392.553 194.934 395.58 197.8 397.32 198.96L395.58 196.64ZM334.389 177.755C334.389 177.002 334.338 176.243 334.4 175.495C334.763 170.992 338.116 166.483 341.31 166.155C346.805 165.594 350.481 168.313 351.987 173.932C352.984 177.647 352.548 181.221 350.979 184.631C348.09 190.907 341.984 191.762 337.414 186.58C335.205 184.076 334.219 181.097 334.395 177.755H334.389Z" fill="#FFF1E7"></path>
<path d="M119.007 107.572C135.637 103.522 152.023 103.318 168.477 102.785C161.267 96.7362 153.683 91.7688 144.071 90.8399C134.04 89.8713 127.152 94.5838 122.077 102.717C121.188 104.145 120.282 105.561 119.013 107.577L119.007 107.572Z" fill="#1D1D1D"></path>
<path d="M410.321 217.075C409.981 221.595 408.39 225.203 403.49 226.37C404.346 227.91 405.603 229.015 407.251 229.621C409.29 230.363 411.346 230.731 412.898 228.68C414.428 226.658 416.104 224.71 413.98 221.935C412.751 220.326 411.822 218.491 410.321 217.075Z" fill="#FFF1E7"></path>
<path d="M143.657 119.126C141.658 120.672 142.032 122.581 143.057 124.394C144.314 126.625 147.735 127.685 150.261 126.829C153.156 125.849 154.906 123.323 154.895 120.14C154.883 117.104 153.179 114.986 149.763 113.927C147.288 113.162 144.756 113.258 142.258 113.864C141.295 114.102 140.089 114.255 140.055 115.637C140.015 117.223 141.397 116.872 142.298 117.144C142.655 117.251 143.029 117.297 143.391 117.37C144.733 115.614 148.732 115.088 150.573 116.424C152.34 117.705 152.555 120.939 151.009 123.272C150.307 124.337 149.457 125.102 148.024 124.836C146.427 124.547 146.45 122.502 146.569 122.224C148.024 118.769 145.747 119.075 143.657 119.115V119.126Z" fill="#FFF1E7"></path>
<path d="M264.676 145.81C264.998 149.486 267.105 152.635 267.706 156.265C268.125 158.786 268.352 161.278 267.904 163.725C267.496 165.945 266.324 167.882 263.866 168.562C267.445 170.731 271.325 168.919 271.416 164.614C271.563 157.693 269.394 151.36 265.174 145.798C265.112 145.719 264.846 145.798 264.67 145.804L264.676 145.81Z" fill="#FFF1E7"></path>
<path d="M108.149 350.305C105.345 351.29 102.542 352.282 99.2566 353.437C103.204 354.338 105.561 351.947 108.149 350.305Z" fill="#FFF1E7"></path>
<path d="M135.631 154.3C133.258 153.688 130.828 153.643 128.398 153.694C127.804 153.705 126.914 153.382 126.716 154.243C126.506 155.15 127.345 155.597 128.002 155.858C129.656 156.503 131.332 157.132 133.054 157.568C149.667 161.799 166.387 165.543 183.277 168.511C194.713 170.522 205.679 174.294 216.724 177.749C222.178 179.454 227.769 180.491 233.467 180.904C234.48 180.978 235.551 181.102 236.378 180.247C224.268 176.911 212.521 172.306 200.077 170.125C183.527 167.231 167.067 163.884 150.658 160.281C146.62 159.392 142.621 158.423 138.792 156.854C137.5 156.328 136.124 155.841 135.637 154.3H135.631Z" fill="#FFF1E7"></path>
<path d="M173.518 169.072C175.948 170.935 178.984 170.641 181.731 171.236C195.744 174.266 209.151 179.262 222.705 183.764C226.868 185.147 230.425 188.273 235.007 188.483C241.855 188.789 248.505 190.522 255.307 191.111C256.865 191.247 258.281 190.935 259.55 190.012C253.342 190.374 247.604 187.882 241.589 187.016C231.28 185.532 221.408 182.286 211.632 178.803C204.512 176.265 197.602 173.037 190.125 171.649C184.62 170.624 179.205 168.908 173.512 169.072H173.518Z" fill="#FFF1E7"></path>
<path d="M264.155 218.853L264.087 218.921L264.16 218.859L264.155 218.853Z" fill="#FFF1E7"></path>
<path d="M208.76 381.282C206.421 381.899 204.076 382.494 201.742 383.139C200.955 383.355 200.269 383.853 200.683 384.759C201.102 385.677 201.833 385.031 202.365 384.805C204.586 383.842 206.778 382.822 208.981 381.825C208.907 381.644 208.834 381.463 208.76 381.282Z" fill="#FFF1E7"></path>
<path d="M250.617 326.493C250.833 326.42 251.11 326.38 250.929 326.063C250.912 326.034 250.561 326.193 250.368 326.267C250.453 326.346 250.532 326.42 250.617 326.499V326.493Z" fill="#FFF1E7"></path>
<path d="M388.645 326.941C393.539 337.278 402.59 341.622 413.074 343.916C413.193 342.772 413.119 341.599 412.423 340.682C409.358 336.671 406.657 332.35 402.867 328.946C399.826 326.216 396.031 325.281 392.094 324.715C390.18 324.437 389.047 325.043 388.645 326.946V326.941Z" fill="#FFF1E7"></path>
<path d="M428.916 312.384C425.914 310.016 422.98 307.547 419.882 305.298C416.484 302.834 413.204 303.169 410.729 305.961C413.267 310.934 418.121 311.863 422.895 312.724C424.85 313.075 426.957 313.302 428.916 312.378V312.384Z" fill="#FFF1E7"></path>
<path d="M333.545 403.434C332.933 402.38 332.378 402.811 331.834 403.502C332.412 403.683 332.984 403.734 333.545 403.434Z" fill="#FFF1E7"></path>
<path d="M355.204 319.668C352.236 321.52 349.263 323.372 346.295 325.224C350.061 324.647 352.995 322.744 355.204 319.668Z" fill="#FFF1E7"></path>
<path d="M334.389 177.755C334.219 181.097 335.199 184.076 337.408 186.58C341.979 191.762 348.085 190.913 350.973 184.631C352.542 181.221 352.978 177.647 351.981 173.932C350.475 168.313 346.804 165.594 341.305 166.155C338.11 166.478 334.763 170.992 334.394 175.495C334.332 176.243 334.383 177.002 334.383 177.755H334.389Z" fill="#1D1D1D"></path>
<path d="M224.523 108.478C228.862 106.048 231.756 106.892 234.667 109.69C239.98 114.81 241.481 122.825 238.247 130.103C237.947 130.771 236.903 131.598 237.528 132.193C237.635 132.295 237.839 132.408 237.839 132.408C237.839 132.408 239.629 129.701 240.422 128.285C242.739 123.244 242.852 118.282 239.725 113.53C238.717 112.001 237.465 110.636 236.259 109.118C240.071 107.911 243.956 108.161 247.678 107.373C242.863 102.428 237.171 99.3416 230.125 99.3755C226.976 99.3925 223.815 98.9677 220.66 99.84C219.369 100.197 218.304 100.792 217.199 101.437C219.692 102.077 221.527 103.822 223.617 105.159C225.027 106.065 225.14 107.113 224.517 108.472L224.523 108.478Z" fill="#FFF1E7"></path>
<path d="M224.523 108.478C225.146 107.124 225.033 106.071 223.622 105.164C221.538 103.828 219.697 102.083 217.205 101.443C213.342 103.165 213.189 103.556 215.087 107.368C215.647 108.495 215.121 108.971 214.118 109.135C212.872 109.339 212.498 110.29 212.719 111.208C213.206 113.258 212.419 114.895 211.422 116.515C211.156 116.946 210.822 117.489 211.326 117.716C212.963 118.452 212.215 119.676 211.7 120.978C212.742 120.774 213.348 120.655 214.316 120.463C213.195 122.695 213.88 125.345 210.81 126.926C212.447 126.926 213.353 126.841 214.237 126.948C215.223 127.067 216.106 127.452 215.931 128.738C215.693 130.432 216.826 131.174 217.992 132.063C219.85 133.485 219.805 132.159 219.924 130.907C218.989 129.31 218.547 127.515 217.907 125.798C216.044 120.837 217.828 113.473 221.804 110.137C222.121 109.871 222.529 109.446 222.858 110.166C222.858 110.166 222.863 110.16 222.863 110.166C222.524 108.693 223.452 108.466 224.574 108.438L224.529 108.483L224.523 108.478Z" fill="#FFF1E7"></path>
<path d="M247.672 107.379C243.951 108.161 240.065 107.911 236.253 109.123C237.46 110.641 238.717 112.006 239.72 113.536C242.852 118.288 242.739 123.25 240.416 128.291C241.645 128.591 242.869 128.987 244.183 128.681C244.291 127.492 242.705 127.815 242.727 126.58C246.131 126.58 245.168 122.785 247.128 121.352C247.191 121.307 247.094 120.984 247.015 120.82C246.403 119.613 246.709 118.764 248.006 118.18C248.25 118.073 248.516 118.022 248.771 117.948C249.213 120.797 252.792 119.545 253.829 121.987C253.721 116.107 251.575 111.372 247.661 107.379H247.672Z" fill="#FFF1E7"></path>
<path d="M222.846 110.16C223.9 109.06 224.48 108.48 225.64 107.9C225.949 107.559 225.242 107.32 225.06 107.32C222.846 108.656 221.934 110.013 221.793 110.132C217.817 113.468 216.038 120.831 217.896 125.793C218.542 127.509 218.978 129.299 219.912 130.902C220.298 131.009 221.102 131.253 220.864 130.658C217.998 123.465 218.831 116.674 222.841 110.166L222.846 110.16Z" fill="#1D1D1D"></path>
<path d="M371.8 122.98C371.8 137.022 363.68 160.68 356.72 159.52C328.399 149.786 268.208 88.18 232.6 88.18C215.2 88.18 199.54 100.36 199.54 100.36C199.54 81.8 226.8 35.4 284.8 35.4C329.486 35.4 371.8 73.3296 371.8 122.98Z" fill="#1D1D1D"></path>
<path d="M429.556 258.479C429.398 253.438 427.733 248.697 426.651 243.837C424.861 242.24 424.821 239.816 423.966 237.811C414.111 214.707 398.959 195.602 380.194 179.165C372.95 172.821 365.581 166.648 357.266 161.731C355.595 160.746 356.728 160.049 357.164 159.29C360.319 153.898 362.788 148.217 364.618 142.236C366.504 136.056 367.767 129.797 367.773 123.312C367.829 88.3873 351.234 63.692 320.925 47.6627C311.427 42.6387 301.101 40.2145 290.317 39.2119C279.736 38.2264 269.343 38.9287 259.289 41.8287C233.721 49.1977 215.013 64.8305 204.268 89.4691C203.464 91.3213 202.767 93.2867 202.445 95.2691C201.703 99.8457 198.604 101.653 194.549 102.077C189.916 102.559 185.322 103.329 180.621 103.369C175.931 103.408 171.847 102.162 167.967 99.5908C163.498 96.6285 159.007 93.6492 153.96 91.6894C138.537 85.7025 126.099 90.0355 118.684 104.909C117.535 107.215 116.068 108.648 113.609 109.673C105.918 112.879 103.499 117.688 104.841 125.821C105.096 127.379 105.017 128.999 105.091 130.585C106.427 129.973 106.195 128.732 106.201 127.639C106.218 125.47 106.178 123.301 106.138 121.131C106.082 118.282 107.277 116.045 109.401 114.232C111.089 112.788 113.139 112.074 115.173 111.321C123.776 108.115 132.811 107.56 141.822 107.368C154.934 107.084 168.058 107.203 181.176 107.271C189.276 107.311 196.599 105.062 203.051 100.22C212.277 93.2924 222.637 90.7436 233.976 92.0519C243.775 93.1791 251.218 98.1351 256.406 106.501C257.46 107.175 257.969 108.189 258.054 109.475L256.208 106.756C251.546 101.981 246.222 98.3277 239.861 96.0394C218.598 88.393 198.491 102.157 198.514 124.654C198.519 132.918 201.912 139.794 208.556 144.915C212.9 148.268 217.868 150.409 223.192 151.264C230.623 152.459 237.8 153.954 243.571 159.664C242.886 154.9 245.571 151.853 248.125 148.687C250.493 145.759 252.685 142.689 254.984 139.698C255.959 138.429 256.876 137.081 258.037 136.005C260.241 133.955 264.092 133.932 264.964 136.124C267.162 141.658 271.824 144.501 276.502 147.305C281.192 150.114 284.251 154.011 285.774 159.233C286.46 161.578 287.394 163.85 288.215 166.149C288.635 165.974 289.048 165.673 289.484 165.634C294.871 165.152 298.609 167.741 301.311 172.13C302.291 173.722 303.033 175.455 304.058 177.013C305.802 179.658 308.821 180.275 311.489 181.493C320.093 185.435 326.436 191.213 327.082 201.419C334.598 202.529 340.019 207.57 346.011 211.53C351.642 210.606 355.612 212.855 358.144 217.868C361.735 218.151 365.082 217.171 368.368 215.88C369.161 215.121 368.322 214.594 368.096 213.988C366.68 210.255 368.084 206.772 371.426 206.494C376.348 206.092 380.727 207.372 384.097 211.405C387.025 214.911 388.803 218.893 389.908 223.249C392.887 224.245 395.091 226.5 397.73 228.046C403.026 231.15 407.959 234.951 414.144 236.282C414.201 234.328 414.065 232.334 414.898 230.499C415.232 229.762 415.408 228.709 416.336 228.562C417.424 228.392 417.583 229.553 417.985 230.221C423.275 238.995 427.081 248.34 428.305 258.575C428.531 260.484 429.058 262.71 427.155 264.307C424.385 268.142 421.598 269.003 417.532 266.879C413.034 264.534 409.222 261.368 406.753 256.786C404.606 252.804 402.607 248.743 400.052 244.987C396.988 240.473 393.012 237.936 387.297 238.02C383.032 238.088 379.095 239.295 375.193 240.598C366.459 243.526 358.484 242.269 351.075 236.905C348.402 234.973 345.723 233.036 343.015 231.15C338.24 227.825 332.978 225.673 327.111 226.358C320.959 227.078 315.159 227.236 310.503 222.263C313.806 229.479 317.108 236.689 320.41 243.905C321.803 241.192 321.044 238.593 321.837 236.066C322.823 232.928 324.233 229.961 327.445 229.247C330.99 228.46 334.729 228.635 337.572 231.813C342.477 237.301 342.658 248.38 336.949 253.897C334.247 256.514 329.744 256.706 326.623 254.446C326.114 254.078 325.57 253.767 324.59 253.138C326.516 257.952 327.954 262.433 329.535 266.851C332.65 275.596 332.361 283.786 326.946 291.614C322.421 298.15 318.807 305.225 315.097 312.237C316.117 313.358 315.675 314.723 315.675 315.986C315.692 319.543 316.927 321.826 320.149 322.942C324.007 324.273 328.039 324.981 332.129 325.224C331.274 321.82 331.325 318.711 333.109 315.363C337.255 307.598 349.891 302.223 358.574 303.321C361.593 303.701 363.174 305.7 363.276 308.878C364.244 308.306 364.476 307.264 364.912 306.346C365.836 304.42 366.629 302.404 368.254 300.909C368.158 299.357 368.617 297.952 369.308 296.587C371.857 291.54 375.397 287.287 379.786 283.786C384.521 280.008 389.8 279.816 395.306 281.866C401.678 277.029 408.883 274.724 416.863 274.933C418.251 274.967 419.163 274.304 420.143 273.596C422.658 271.778 424.969 269.547 427.727 268.255C429.664 267.349 429.783 266.329 429.698 264.693C429.59 262.625 429.59 260.552 429.545 258.479H429.556ZM394.337 195.648C395.017 195.852 395.413 196.203 395.068 196.973C395.884 197.704 396.75 198.383 397.503 199.171C402.244 204.155 406.102 209.819 409.964 215.472C410.248 215.891 410.214 216.525 410.321 217.063C411.822 218.474 412.751 220.315 413.98 221.923C416.104 224.699 414.428 226.647 412.898 228.669C411.352 230.72 409.296 230.351 407.251 229.609C405.603 229.009 404.346 227.904 403.49 226.358C400.035 225.05 397.413 222.66 395.096 219.879C391.947 217.907 389.483 215.143 387.206 212.323C384.068 208.437 380.126 206.336 375.391 205.203C367.461 203.305 359.418 201.974 351.443 200.332C338.999 197.772 329.552 191.224 322.46 180.915C320.812 178.514 319.096 176.163 317.414 173.79C311.823 172.453 306.788 170.046 302.421 166.234C300.535 164.586 298.581 162.96 296.457 161.658C293.013 159.545 290.345 156.804 288.476 153.246C284.437 149.282 279.946 145.855 275.46 142.445C266.137 135.348 263.469 125.022 261.509 114.238C262.501 114.51 262.903 115.326 263.407 115.954C267.066 120.497 271.733 123.482 277.216 125.391C289.405 129.644 301.192 134.901 313.007 140.083C337.838 150.964 361.197 164.212 381.548 182.331C386.164 186.444 390.95 190.425 394.36 195.716L394.343 195.648H394.337ZM230.147 150.851C227.14 151.219 223.832 150.703 220.575 149.729C201.527 144.031 195.319 127.492 202.269 112.397C208.986 97.7896 223.832 93.1621 238.4 97.0816C246.069 99.1434 251.563 104.445 255.579 111.095C258.921 116.628 260.246 122.949 258.819 129.191C255.84 142.179 242.416 151.876 230.153 150.845L230.147 150.851ZM119.007 107.566C120.276 105.555 121.182 104.133 122.071 102.706C127.152 94.5725 134.04 89.86 144.065 90.8285C153.677 91.7574 161.261 96.7305 168.471 102.774C152.017 103.306 135.631 103.51 119.002 107.56L119.007 107.566ZM378.557 249.955C378.557 249.388 378.557 248.828 378.557 248.261C378.552 244.778 381.355 240.581 384.453 239.431C388.203 238.037 393.573 239.363 395.691 242.563C399.339 248.08 399.594 255.154 394.677 260.541C392.615 262.801 390.095 263.633 386.951 262.665C381.757 261.062 378.523 256.344 378.557 249.96V249.955ZM359.282 254.016C359.526 257.086 358.127 259.912 356.014 262.365C354.689 263.905 353.097 265.236 350.82 265.31C345.303 265.48 343.179 263.843 341.633 258.117C340.313 253.234 341.86 247.372 345.213 245.18C348.26 243.186 351.608 243.05 354.802 244.687C358.399 246.534 359.294 249.938 359.282 254.021V254.016ZM342.534 300.965C336.994 301.084 335.771 299.334 337.102 295.069C339.305 288 346.991 285.65 352.621 286.403C354.4 286.641 356.292 287.547 356.932 289.541C357.589 291.597 356.869 293.438 355.289 294.842C351.341 298.354 346.578 300.087 342.534 300.965Z" fill="#FFF1E7"></path>
<path d="M306 260C299.261 255.058 290.603 263.403 286 274C284.717 276.954 282.735 285 283 290.5C283.481 300.488 298 304.5 302.265 297C306.53 289.5 318 268.8 306 260Z" fill="#1D1D1D"></path>
</g>
<circle cx="250.5" cy="250.5" r="239.5" stroke="#1D1D1D" stroke-width="30"></circle>
</g>
<defs>
<clipPath id="clip0_53_5065">
<rect width="500" height="500" rx="250" transform="matrix(-1 0 0 1 500 0)" fill="white"></rect>
</clipPath>
<clipPath id="clip1_53_5065">
<rect width="580" height="580" fill="white" transform="matrix(-1 0 0 1 540 -40)"></rect>
</clipPath>
</defs>
</svg>